<?xml version="1.0" standalone="no"?>
<!DOCTYPE svg PUBLIC "-//W3C//DTD SVG 20010904//EN"
 "http://www.w3.org/TR/2001/REC-SVG-20010904/DTD/svg10.dtd">
<svg version="1.0" xmlns="http://www.w3.org/2000/svg"
 width="154.000000pt" height="154.000000pt" viewBox="0 0 154.000000 154.000000"
 preserveAspectRatio="xMidYMid meet">
<metadata>
Created by potrace 1.14, written by Peter Selinger 2001-2017
</metadata>
<g transform="translate(0.000000,154.000000) scale(0.100000,-0.100000)"
fill="#000000" stroke="none">
<path d="M484 1458 c-140 -50 -141 -52 -139 -210 l1 -116 -38 -11 c-66 -20
-70 -34 -69 -256 l0 -195 37 -45 c21 -24 50 -49 66 -56 22 -9 28 -18 29 -43 1
-17 3 -40 4 -51 2 -11 6 -63 10 -116 l7 -96 -26 -7 c-34 -8 -48 -37 -44 -93
l3 -47 100 -38 c55 -21 130 -48 166 -60 l66 -21 74 26 c81 28 92 42 78 107 -4
19 -6 36 -5 38 2 1 28 -7 57 -18 56 -22 79 -21 158 13 28 11 36 14 50 16 15 2
5 104 -13 139 -9 17 -29 38 -45 46 -34 18 -43 45 -46 148 -3 69 -1 77 17 81
26 7 75 -10 115 -40 18 -14 38 -26 45 -27 7 -2 29 -10 50 -19 33 -15 40 -15
85 0 26 9 51 21 55 27 4 6 -2 25 -14 44 l-20 33 21 21 c19 17 20 23 9 40 -22
33 -116 72 -171 70 -41 -1 -72 13 -123 55 -75 62 -95 106 -98 216 -2 52 -6
100 -10 106 -4 6 -24 16 -45 22 l-39 12 0 124 c0 93 -3 128 -13 138 -15 14
-205 86 -223 84 -6 0 -61 -19 -122 -41z m209 -218 c-3 -11 -10 -23 -16 -27 -7
-4 -8 0 -4 11 4 10 7 22 7 27 0 5 4 9 9 9 5 0 7 -9 4 -20z m37 -84 c0 -2 -8
-10 -17 -17 -16 -13 -17 -12 -4 4 13 16 21 21 21 13z m-70 -16 c8 -5 11 -10 5
-10 -5 0 -17 5 -25 10 -8 5 -10 10 -5 10 6 0 17 -5 25 -10z"/>
<path d="M1070 136 c0 -2 8 -10 18 -17 15 -13 16 -12 3 4 -13 16 -21 21 -21
13z"/>
</g>
</svg>
