<?xml version="1.0" standalone="no"?>
<!DOCTYPE svg PUBLIC "-//W3C//DTD SVG 1.1//EN" "http://www.w3.org/Graphics/SVG/1.1/DTD/svg11.dtd" >
<svg xmlns="http://www.w3.org/2000/svg" xmlns:xlink="http://www.w3.org/1999/xlink" version="1.1">
<metadata>
Created by FontForge 20170731 at Fri Dec  3 20:04:27 2010
 By Aleksey,,,
Copyright (c) 2007 by Jos Buivenga. All rights reserved.
</metadata>
<defs>
<font id="DiavloMedium-Regular" horiz-adv-x="707" >
  <font-face 
    font-family="Diavlo"
    font-weight="550"
    font-stretch="normal"
    units-per-em="1000"
    panose-1="2 0 0 0 0 0 0 0 0 0"
    ascent="750"
    descent="-250"
    x-height="507"
    cap-height="717"
    bbox="-92 -247 1093 981"
    underline-thickness="50"
    underline-position="-200"
    unicode-range="U+0020-FB06"
  />
<missing-glyph horiz-adv-x="250" 
 />
    <glyph glyph-name="ff" unicode="ff" horiz-adv-x="698" 
d="M170 488h244v87q0 23 -11.5 39.5t-30.5 26.5t-43.5 14.5t-49.5 4.5q-51 0 -80 -26.5t-29 -75.5v-70zM414 404h-244v-411q-30 1 -53 7q-20 5 -36 16.5t-16 33.5v526q0 40 17 71t46 53t67.5 33.5t81.5 11.5q54 0 96 -13.5t63 -38.5q29 45 85 69.5t119 24.5q40 0 74.5 -6.5
t59.5 -19t39 -31t14 -42.5q0 -36 -35 -71q0 24 -13.5 40t-35 26t-48 14.5t-52.5 4.5q-52 0 -88 -26.5t-36 -75.5v-112h184q-1 -24 -8 -42q-6 -16 -19 -29t-36 -13h-121v-411q-30 1 -53 7q-20 5 -36 16.5t-16 33.5v354z" />
    <glyph glyph-name="fi" unicode="fi" horiz-adv-x="584" 
d="M170 332v-339q-30 1 -53 7q-20 5 -36 16.5t-16 33.5v569q0 39 19.5 70.5t51.5 53t74 33t86 11.5q41 0 76.5 -6t62 -19t42 -32t15.5 -44q0 -35 -37 -71q0 23 -15.5 39.5t-39 27t-51.5 15.5t-53 5t-47.5 -6t-40 -18.5t-28 -31t-10.5 -42.5v-188h116q25 0 48.5 6.5t41 18
t28 27t10.5 33.5v13q1 0 17.5 -1t36 -6t35.5 -16.5t16 -33.5v-464q-30 1 -53 7q-20 5 -36 16.5t-16 33.5v321q-11 -10 -42.5 -24.5t-85.5 -14.5h-116z" />
    <glyph glyph-name="fl" unicode="fl" horiz-adv-x="584" 
d="M65 619q0 39 19.5 70.5t51 53t72.5 33t83 11.5q14 0 36 -2t47 -7t50 -12.5t45 -17.5t32.5 -23.5t12.5 -30.5v-520q0 -21 2.5 -47t10 -48.5t21.5 -38t37 -15.5q-18 -20 -36 -26t-35 -6q-27 0 -47 12t-32.5 32.5t-19 47.5t-6.5 57v533q-23 14 -54.5 20.5t-60.5 6.5
q-52 0 -88 -26.5t-36 -75.5v-112h179q-1 -24 -8 -42q-6 -16 -19 -29t-36 -13h-116v-411q-30 1 -53 7q-20 5 -36 16.5t-16 33.5v569z" />
    <glyph glyph-name="ffi" unicode="ffi" horiz-adv-x="933" 
d="M171 416h243v163q-1 22 -13 37.5t-30.5 25t-42.5 14t-48 4.5q-52 0 -80.5 -26.5t-28.5 -75.5v-142zM519 332v-339q-30 1 -53 7q-20 5 -36 16.5t-16 33.5v282h-243v-339q-30 1 -53 7q-20 5 -36 16.5t-16 33.5v526q0 40 17 71t46 53t67.5 33.5t80.5 11.5q54 0 96 -13.5
t63 -38.5q29 45 86 69.5t123 24.5q41 0 76.5 -6t62 -19t42 -32t15.5 -44q0 -35 -37 -71q0 23 -15.5 39.5t-39 27t-51.5 15.5t-53 5t-47.5 -6t-40 -18.5t-28 -31t-10.5 -42.5v-188h116q26 0 49 6.5t40.5 18t28 27t10.5 33.5v13q1 0 17.5 -1t36 -6t35.5 -16.5t16 -33.5v-464
q-30 1 -53 7q-20 5 -36 16.5t-16 33.5v321q-11 -11 -43 -25t-85 -14h-116z" />
    <glyph glyph-name="ffl" unicode="ffl" horiz-adv-x="933" 
d="M170 488h243v89q-1 23 -12.5 39t-30.5 25.5t-42.5 14t-48.5 4.5q-51 0 -80 -26.5t-29 -75.5v-70zM65 576q0 40 17 71t46 53t67.5 33.5t81.5 11.5q54 0 95.5 -13.5t62.5 -38.5q14 22 36 39.5t49 29.5t57.5 18.5t62.5 6.5q33 0 68.5 -6.5t64.5 -19.5q15 -3 31 -8.5
t29 -13.5t21 -19t8 -26v-520q0 -21 2.5 -47t10 -48.5t22 -38t37.5 -15.5q-18 -20 -36.5 -26t-34.5 -6q-27 0 -47 12t-33 32.5t-19.5 47.5t-6.5 57v533q-23 14 -54 20.5t-61 6.5q-26 0 -48.5 -7t-39 -20t-26.5 -32t-10 -43v-112h179q-1 -24 -8 -42q-6 -16 -18.5 -29
t-35.5 -13h-117v-411q-30 1 -53 7q-20 5 -36 16.5t-16 33.5v354h-243v-411q-30 1 -53 7q-20 5 -36 16.5t-16 33.5v526z" />
    <glyph glyph-name="fj" unicode="fj" horiz-adv-x="584" 
d="M519 -89q0 -30 -7.5 -57t-21 -48t-33 -33t-44.5 -12q-16 0 -36 6.5t-46 28.5q23 0 39 15t25.5 37t14 48t4.5 47v427q-13 -11 -46 -24.5t-87 -13.5h-111v-339q-30 1 -53 7q-20 5 -36 16.5t-16 33.5v569q0 39 19.5 70.5t51.5 53t74 33t86 11.5q39 0 75 -6t63 -18.5
t43 -30.5t16 -42q0 -37 -38 -75q0 23 -15.5 39.5t-39 27t-51.5 15.5t-53 5t-47.5 -6t-40 -18.5t-28 -31t-10.5 -42.5v-188h111q26 0 50 6t42.5 17.5t29.5 26.5t11 33v15q1 0 17.5 -1t36 -6t35.5 -17t16 -33v-546z" />
    <glyph glyph-name=".notdef" horiz-adv-x="250" 
 />
    <glyph glyph-name=".null" horiz-adv-x="0" 
 />
    <glyph glyph-name="nonmarkingreturn" horiz-adv-x="280" 
 />
    <glyph glyph-name="space" unicode=" " horiz-adv-x="280" 
 />
    <glyph glyph-name="exclam" unicode="!" horiz-adv-x="275" 
d="M107 104h72q11 0 20 -7t9 -17v-80h-72q-11 0 -20 6.5t-9 17.5v80zM210 178q-2 0 -19 1t-36 6.5t-34.5 17.5t-15.5 33v481q29 -1 52 -7q20 -5 36.5 -17t16.5 -33v-482z" />
    <glyph glyph-name="quotedbl" unicode="&#x22;" horiz-adv-x="406" 
d="M250 594q0 29 0.5 56.5t0.5 55.5h42q32 0 41 -17.5t9 -41.5v-33q0 -24 -3.5 -47t-12 -41t-23 -29t-37.5 -11q-20 0 -32 9t-15 12q9 2 19.5 22t10.5 65zM76 594q0 29 0.5 56.5t0.5 55.5h42q32 0 41 -17.5t9 -41.5v-33q0 -24 -3.5 -47t-12 -41t-23 -29t-37.5 -11
q-20 0 -32 9t-15 12q9 2 19.5 22t10.5 65z" />
    <glyph glyph-name="numbersign" unicode="#" horiz-adv-x="683" 
d="M280 421q-8 -38 -17 -74.5t-18 -74.5h155q10 40 17.5 74.5t17.5 74.5h-155zM351 62q7 31 14 61.5t15 61.5h-156l-46 -196q-7 0 -21.5 4t-29 12t-25.5 19.5t-11 27.5q0 7 1 10q7 31 14 61.5t15 61.5h-95q-1 3 -2 7t-1 17q0 10 1.5 21t7 20.5t15 15.5t25.5 6h69
q10 40 17.5 74.5t17.5 74.5h-93q-1 3 -2 7t-1 17q0 10 1.5 21t7 20.5t15 15.5t25.5 6h68l52 213q6 0 20.5 -4.5t29 -13t26 -20.5t11.5 -28q0 -6 -1 -9l-33 -138h154l52 213q7 0 21.5 -4.5t29 -13t25.5 -20.5t11 -28q0 -6 -1 -9l-33 -138h96q0 -3 1 -7q2 -10 2 -18
q0 -9 -1.5 -20t-6.5 -20.5t-14.5 -15.5t-25.5 -6h-73l-35 -149h96q0 -3 1 -7q2 -10 2 -18q0 -9 -1.5 -20t-6.5 -20.5t-14.5 -15.5t-25.5 -6h-72l-46 -196q-6 0 -20.5 4t-29.5 12t-26 19.5t-11 27.5q0 7 1 10z" />
    <glyph glyph-name="dollar" unicode="$" horiz-adv-x="625" 
d="M161 526q0 -24 7 -40t21 -26.5t34.5 -17t48.5 -11.5v197q-57 -5 -84 -29t-27 -73zM444 199q0 52 -27.5 75.5t-82.5 34.5v-229q64 7 87 38t23 81zM272 -10q-43 1 -81 8t-66.5 20.5t-45 36t-16.5 55.5q0 18 7 40t23 48q0 -34 14.5 -56.5t39 -36t57 -19.5t68.5 -7v241
q-44 7 -85 17t-72.5 30.5t-50.5 54.5t-19 91q0 55 16 93.5t45.5 63t71.5 36t94 14.5v74q17 0 31 -5q11 -5 21 -15.5t10 -31.5v-22q45 -1 82.5 -7.5t64 -20t41 -36t14.5 -55.5q0 -40 -29 -94v6q0 33 -13.5 54.5t-36.5 34.5t-54.5 19t-68.5 8v-208q44 -7 85 -18t72.5 -34
t50 -61.5t18.5 -101.5q0 -102 -59 -155.5t-167 -60.5v-80q-18 0 -31 5q-12 5 -21.5 15t-9.5 32v28z" />
    <glyph glyph-name="percent" unicode="%" horiz-adv-x="790" 
d="M612 638q4 -3 10.5 -10t13 -16t11 -20t4.5 -21q0 -15 -13.5 -32.5t-29.5 -33.5l-438 -439q-12 11 -25.5 30t-13.5 42q0 19 13 32zM664 182q0 25 -13 40t-54 15q-43 0 -55 -14.5t-12 -40.5v-67q0 -26 12 -40.5t55 -14.5q41 0 54 14.5t13 40.5v67zM751 89q0 -49 -42 -74
t-112 -25q-71 0 -113 25t-42 74v117q0 48 42 75t113 27q70 0 112 -27t42 -75v-117zM260 591q0 25 -13 40t-54 15q-43 0 -55 -14.5t-12 -40.5v-67q0 -26 12 -40.5t55 -14.5q41 0 54 14.5t13 40.5v67zM348 498q0 -49 -42 -74t-113 -25q-70 0 -112 25t-42 74v117q0 48 42 75
t112 27q71 0 113 -27t42 -75v-117z" />
    <glyph glyph-name="ampersand" unicode="&#x26;" horiz-adv-x="603" 
d="M279 315q-57 -7 -83.5 -37.5t-26.5 -82.5q0 -50 35.5 -84t113.5 -34q40 0 78 6t67 20.5t47 38.5t18 60q17 -23 25 -44.5t8 -40.5q0 -30 -18.5 -54t-51 -40.5t-77 -25.5t-96.5 -9q-58 0 -105.5 14t-81.5 39t-52.5 60.5t-18.5 78.5v30q0 25 6.5 49.5t19.5 45.5t32.5 36.5
t46.5 23.5q-49 13 -72 53.5t-23 89.5v25q0 43 18.5 77.5t51.5 58.5t78.5 37t99.5 13q49 0 92 -9t74.5 -26t50 -41t18.5 -54q0 -41 -35 -86q0 37 -17.5 61.5t-46 39t-64.5 20.5t-72 6q-71 0 -105 -31t-34 -81q0 -59 26 -86t91 -30v126q27 -2 48 -8q18 -5 33.5 -17t15.5 -33
v-69h116q-1 -25 -8 -43q-6 -17 -18.5 -30t-35.5 -13h-54v-64q0 -17 2.5 -31.5t6.5 -25.5q4 -12 9 -23q-43 5 -66.5 19t-34 30.5t-12.5 31.5t-2 23v40h-17z" />
    <glyph glyph-name="quotesingle" unicode="'" horiz-adv-x="232" 
d="M76 594q0 29 0.5 56.5t0.5 55.5h42q32 0 41 -17.5t9 -41.5v-33q0 -24 -3.5 -47t-12 -41t-23 -29t-37.5 -11q-20 0 -32 9t-15 12q9 2 19.5 22t10.5 65z" />
    <glyph glyph-name="parenleft" unicode="(" horiz-adv-x="323" 
d="M153 261q0 -89 11 -169.5t31 -142t48.5 -99t64.5 -41.5q-8 -7 -25 -20.5t-45 -13.5q-39 0 -74 38.5t-61.5 104.5t-42 154t-15.5 187t15.5 186.5t42 153.5t61.5 104t74 38q28 0 45 -13.5t25 -20.5q-36 -4 -64.5 -41t-48.5 -98t-31 -140t-11 -167z" />
    <glyph glyph-name="parenright" unicode=")" horiz-adv-x="323" 
d="M170 261q0 88 -11 167t-31 140t-48.5 98t-64.5 41q8 7 25 20.5t45 13.5q39 0 74 -38t61.5 -104t42 -153.5t15.5 -186.5t-15.5 -187t-42 -154t-61.5 -104.5t-74 -38.5q-28 0 -45 13.5t-25 20.5q36 4 64.5 41.5t48.5 99t31 142t11 169.5z" />
    <glyph glyph-name="asterisk" unicode="*" horiz-adv-x="406" 
d="M86 508q0 25 19.5 47.5t39.5 39.5q-11 3 -23 5t-23 2q-32 0 -56 -29q-1 3 -3 13t-2 23q0 20 14 38t53 18q14 0 30 -5.5t33 -12.5q-7 29 -22 51.5t-47 27.5l7 7t12 10t16.5 9t20.5 4q21 0 42 -23.5t28 -77.5q15 14 27 32.5t12 36.5q0 13 -6 30q3 -1 13 -3.5t20.5 -8.5
t19 -17t8.5 -29q0 -21 -16.5 -43.5t-42.5 -43.5q22 -8 43 -8q20 0 33 6.5t27 22.5q0 -2 2.5 -12t2.5 -23q0 -20 -14.5 -38t-52.5 -18q-15 0 -31 6t-33 12q7 -29 22.5 -51.5t47.5 -27.5l-7 -7t-12.5 -10t-17 -9t-19.5 -4q-22 0 -42.5 23t-28.5 78q-16 -15 -27.5 -33.5
t-11.5 -36.5q0 -13 6 -29q-3 1 -13 3.5t-20.5 8.5t-19 17t-8.5 29z" />
    <glyph glyph-name="plus" unicode="+" horiz-adv-x="509" 
d="M203 212h-135q-5 24 -1 43q2 17 12.5 30.5t34.5 13.5h89v130q27 5 48 3q18 -2 33.5 -11t15.5 -32v-90h140q5 -25 2 -44q-2 -17 -12.5 -30t-34.5 -13h-95v-145q-28 -5 -49 -2q-18 2 -33 11t-15 32v104z" />
    <glyph glyph-name="comma" unicode="," horiz-adv-x="237" 
d="M89 107h51q12 0 21 -7.5t9 -21.5v-69q0 -27 -3.5 -51.5t-12.5 -43t-24.5 -29t-39.5 -10.5q-11 0 -25.5 3.5t-28.5 13.5q18 4 27.5 17t14 29t4 32.5t-1.5 27.5l-19 109h28z" />
    <glyph glyph-name="hyphen" unicode="-" horiz-adv-x="494" 
d="M425 298q5 -24 2 -42q-2 -16 -11.5 -29t-32.5 -13h-315q-5 24 -2 42q2 16 11.5 29t32.5 13h315z" />
    <glyph glyph-name="period" unicode="." horiz-adv-x="237" 
d="M67 107h75q11 0 19.5 -8t8.5 -17v-82h-74q-12 0 -20.5 7t-8.5 18v82z" />
    <glyph glyph-name="slash" unicode="/" horiz-adv-x="324" 
d="M228 759q27 -6 46 -16q17 -8 29.5 -22t7.5 -34l-214 -927q-28 5 -47 15q-17 8 -29 22t-7 34z" />
    <glyph glyph-name="zero" unicode="0" horiz-adv-x="647" 
d="M473 516q0 63 -35.5 91t-114.5 28q-78 0 -113.5 -28t-35.5 -91v-325q0 -63 35.5 -91t113.5 -28q79 0 114.5 28t35.5 91v325zM582 176q0 -47 -18.5 -82.5t-52.5 -59t-82 -35t-106 -11.5t-105.5 11.5t-81.5 35t-52.5 59t-18.5 82.5v355q0 47 18.5 82.5t52.5 59t81.5 35
t105.5 11.5t106 -11.5t82 -35t52.5 -59t18.5 -82.5v-355z" />
    <glyph glyph-name="one" unicode="1" horiz-adv-x="538" 
d="M172 707q35 0 69.5 2t60.5 4q31 3 58 6l-6 -36q-2 -16 -3.5 -33.5t-1.5 -33.5v-527h172q1 -6 1.5 -11.5t0.5 -11.5q0 -26 -13.5 -46t-42.5 -20h-399q-1 3 -2 7t-1 17q0 16 2.5 28.5t10.5 20.5t22.5 12t37.5 4h105v531h-38q-22 0 -43.5 -2.5t-39 -10.5t-28 -24t-10.5 -44
q-23 20 -33.5 41t-10.5 41q0 40 33.5 63t98.5 23z" />
    <glyph glyph-name="two" unicode="2" horiz-adv-x="601" 
d="M50 95q0 62 28.5 103t71.5 69.5t92.5 49.5t92.5 45t71.5 55t28.5 79v17q0 50 -34 83.5t-105 33.5q-36 0 -72 -6t-64.5 -20.5t-46 -39t-17.5 -61.5q-35 45 -35 86q0 30 18.5 54t50 41t74.5 26t92 9q54 0 99.5 -13t78.5 -37.5t51.5 -59.5t18.5 -78v-40q0 -49 -16.5 -84.5
t-44 -61.5t-62 -45t-71 -35t-71 -31t-62 -34t-44 -43.5t-16.5 -58.5v-9h315q21 0 36.5 2t26.5 5q12 4 21 8q-1 -29 -9 -52q-7 -20 -22 -36t-42 -16h-433v95z" />
    <glyph glyph-name="three" unicode="3" horiz-adv-x="614" 
d="M301 630q-36 0 -72 -6t-64.5 -20.5t-46 -39t-17.5 -61.5q-35 45 -35 86q0 30 18.5 54t50 41t74.5 26t92 9q54 0 99.5 -13t78.5 -37t51.5 -58.5t18.5 -77.5v-25q0 -49 -23 -89.5t-72 -53.5q27 -8 46.5 -23.5t32.5 -36.5t19.5 -46t6.5 -50v-30q0 -43 -18.5 -78.5
t-52.5 -60.5t-81.5 -38.5t-105.5 -13.5q-52 0 -97 8.5t-78 24.5t-52 40t-19 55q0 20 8.5 42.5t27.5 48.5q0 -38 18 -63t47 -40t67 -21t78 -6q78 0 113.5 33.5t35.5 83.5q0 111 -110 126q-6 1 -15 3t-17 9t-14 21t-6 39q0 4 0.5 7t0.5 7h20q73 0 102 27t29 85q0 49 -35 80.5
t-104 31.5z" />
    <glyph glyph-name="four" unicode="4" horiz-adv-x="562" 
d="M351 529q0 10 0.5 21.5t1.5 20.5q1 11 3 21q-2 -4 -5 -8q-2 -4 -5 -8.5t-7 -8.5l-29 -34q-24 -28 -50 -59.5t-49.5 -65t-43 -66.5t-30.5 -64h214v251zM10 196q3 46 27.5 101t60 110.5t77.5 108.5t79.5 96t65.5 71.5t36 35.5q29 -2 52 -8q20 -5 36 -17t16 -32v-384h82
q0 -2 -1.5 -15t-7.5 -28t-18.5 -27t-35.5 -12h-19v-206q-3 0 -20 1t-37 6.5t-36 17t-16 32.5v149h-341z" />
    <glyph glyph-name="five" unicode="5" horiz-adv-x="583" 
d="M279 -12q-48 0 -92 7.5t-77.5 23.5t-54 39.5t-20.5 56.5q0 41 35 92q0 -38 17.5 -63t47 -40t67 -21t77.5 -6q79 0 114.5 26t35.5 89v62q0 58 -35.5 90.5t-114.5 32.5h-127q-18 0 -32.5 -0.5t-25.5 -0.5q-12 -1 -21 -1q1 10 3 21q2 10 3 24t1 32v147v14t1 20q2 8 4.5 20.5
t10.5 24.5t25 20.5t49 8.5h247q23 0 38 2t26 4q11 3 20 6q-1 -29 -9 -51q-7 -19 -22 -34.5t-42 -15.5h-239v-107q0 -11 -1 -20t-2 -16q-1 -8 -2 -14h93q59 0 107 -11t82.5 -34.5t53 -60.5t18.5 -88v-88q0 -47 -18.5 -83t-52.5 -60t-82 -36t-106 -12z" />
    <glyph glyph-name="six" unicode="6" horiz-adv-x="642" 
d="M323 72q79 0 114.5 28t35.5 91v48q0 63 -34 91t-106 28q-35 0 -63.5 -6t-49.5 -19t-33 -35t-13 -53v-54q0 -63 35.5 -91t113.5 -28zM582 176q0 -47 -18.5 -82.5t-52.5 -59t-82 -35t-106 -11.5t-105.5 11.5t-81.5 35t-52.5 59t-18.5 82.5v355q0 47 18.5 82.5t52.5 59
t81.5 35t105.5 11.5q52 0 97 -8t78 -24t51.5 -39t18.5 -54q0 -41 -35 -92q0 37 -17 61.5t-45.5 39.5t-66.5 21t-81 6q-78 0 -113.5 -25.5t-35.5 -88.5v-70q0 -10 -1 -20.5t-2 -18.5q-1 -11 -2 -20q15 15 38 27q20 11 50.5 19.5t75.5 8.5q54 0 100 -11.5t79 -35t51.5 -59
t18.5 -82.5v-78z" />
    <glyph glyph-name="seven" unicode="7" horiz-adv-x="556" 
d="M88 618q-23 0 -38.5 -2t-25.5 -4q-11 -3 -19 -6q1 28 9 50q7 19 21.5 35t41.5 16h469q0 -84 -25 -150.5t-63 -122.5t-82.5 -105.5t-83 -100t-64.5 -105.5t-27 -121q-8 -3 -15 -6l-14 -4t-15 -2q-23 0 -43 8.5t-20 35.5q0 56 21 105t53.5 94.5t72 90t76.5 90.5t67 96.5
t43 107.5h-339z" />
    <glyph glyph-name="eight" unicode="8" horiz-adv-x="647" 
d="M184 518q0 -62 29 -90t102 -28h16q74 0 103 28t29 90q0 63 -34 90t-106 27q-71 0 -105 -27t-34 -90zM473 193q0 64 -35.5 93.5t-114.5 29.5q-78 0 -113.5 -30t-35.5 -96q0 -64 35.5 -91t113.5 -27q79 0 114.5 28.5t35.5 92.5zM65 208q0 51 25 91t73 60q-42 19 -65 58
t-23 88v26q0 47 18.5 82.5t51.5 59t78.5 35t99.5 11.5t100 -11.5t79 -35t51.5 -59t18.5 -82.5v-26q0 -49 -23.5 -88t-65.5 -58q49 -20 74 -60t25 -91v-29q0 -47 -18.5 -83t-52.5 -60t-82 -36t-106 -12t-105.5 11.5t-81.5 35t-52.5 59t-18.5 82.5v32z" />
    <glyph glyph-name="nine" unicode="9" horiz-adv-x="642" 
d="M318 635q-78 0 -113.5 -28t-35.5 -91v-47q0 -63 34 -91t105 -28t114.5 25t45.5 88v53q0 63 -35.5 91t-114.5 28zM60 531q0 47 18.5 82.5t52.5 59t81.5 35t105.5 11.5t106 -11.5t82 -35t52.5 -59t18.5 -82.5v-355q0 -47 -18.5 -82.5t-52.5 -59t-82 -35t-106 -11.5
q-53 0 -97.5 8t-77.5 23.5t-51.5 38.5t-18.5 54q0 20 8.5 43.5t27.5 49.5q0 -37 16.5 -61.5t45 -39.5t66.5 -21t81 -6q79 0 114.5 25.5t35.5 88.5v71q0 10 0.5 20t1.5 19l2 20q-15 -16 -38 -28q-20 -11 -50.5 -19t-75.5 -8q-54 0 -99.5 11.5t-78.5 35t-51.5 59t-18.5 82.5
v77z" />
    <glyph glyph-name="colon" unicode=":" horiz-adv-x="237" 
d="M82 459h75q11 0 19.5 -8t8.5 -17v-82h-74q-12 0 -20.5 7t-8.5 18v82zM82 107h75q11 0 19.5 -8t8.5 -17v-82h-74q-12 0 -20.5 7t-8.5 18v82z" />
    <glyph glyph-name="semicolon" unicode=";" horiz-adv-x="237" 
d="M155 107q12 0 21 -7.5t9 -21.5v-69q0 -27 -3.5 -51.5t-12.5 -43t-24.5 -29t-39.5 -10.5q-11 0 -25.5 3.5t-28.5 13.5q18 4 28 17t14 29t4 32.5t-2 27.5l-19 109h28h51zM82 459h75q11 0 19.5 -8t8.5 -17v-82h-74q-12 0 -20.5 7t-8.5 18v82z" />
    <glyph glyph-name="less" unicode="&#x3c;" horiz-adv-x="421" 
d="M346 63q-3 -6 -9 -13.5t-15 -14t-19.5 -11t-20.5 -4.5q-12 0 -25.5 9t-32.5 30l-142 141q-27 27 -26.5 52.5t27.5 52.5l201 201q6 -4 14 -10t15.5 -13.5t12.5 -16.5t5 -19q0 -11 -8.5 -24t-28.5 -32l-137 -139z" />
    <glyph glyph-name="equal" unicode="=" horiz-adv-x="500" 
d="M432 383q1 -8 1.5 -14.5t0.5 -13.5q0 -26 -12.5 -40.5t-45.5 -14.5h-306q-2 8 -3 14.5t-1 13.5q0 23 12.5 39t43.5 16h310zM432 218q1 -8 1.5 -14.5t0.5 -13.5q0 -26 -12.5 -40.5t-45.5 -14.5h-306q-2 8 -3 14.5t-1 13.5q0 23 12.5 39t43.5 16h310z" />
    <glyph glyph-name="greater" unicode="&#x3e;" horiz-adv-x="421" 
d="M264 252q-41 42 -81 82.5t-82 81.5q-14 14 -14 30q0 10 6 19.5t14 17.5t16.5 14t13.5 9l201 -201q27 -27 27 -53t-26 -52l-169 -169q-13 -13 -30 -13q-20 0 -37.5 14t-27.5 31z" />
    <glyph glyph-name="question" unicode="?" horiz-adv-x="542" 
d="M176 104h72q11 0 19.5 -7.5t8.5 -16.5v-80h-72q-10 0 -19 6.5t-9 17.5v80zM258 630q-32 0 -60 -6t-48.5 -19t-32.5 -33t-12 -48q-40 46 -40 86q0 24 14 44.5t39 34.5t60.5 22t79.5 8q54 0 100 -11.5t79 -34t51.5 -56t18.5 -76.5v-25q0 -42 -17 -71.5t-42.5 -52t-55.5 -41
t-55.5 -37t-42.5 -41t-17 -53.5v-48q-29 1 -51 8q-19 6 -34.5 18t-15.5 35v18q0 33 16.5 57.5t41 44.5t53.5 37t53.5 36.5t41 42.5t16.5 54q0 49 -34 78t-106 29z" />
    <glyph glyph-name="at" unicode="@" horiz-adv-x="908" 
d="M242 142q0 46 19 73.5t48.5 44t65 25t69.5 17t61.5 20t40.5 34.5q0 17 -4 31.5t-14.5 25t-30 16t-50.5 5.5q-30 0 -56.5 -5.5t-46.5 -18t-32 -32.5t-14 -48q-20 23 -28 44t-8 39q0 25 15 45t40.5 33.5t59 20.5t70.5 7q102 0 153 -44.5t51 -123.5v-138q0 -23 -10.5 -42
t-27 -33t-38.5 -23.5t-44 -13.5q5 11 9 24q3 11 6 27.5t3 36.5v77q-6 -15 -23.5 -23t-40 -13.5t-47.5 -10t-46 -13t-34.5 -23t-13.5 -39.5q0 -20 12 -34.5t33 -24.5t50 -15t62 -5q50 0 93.5 7.5t75.5 27t50 53.5t18 88v161q0 37 -11.5 71.5t-36.5 60t-65.5 41t-97.5 15.5
h-149q-57 0 -96.5 -15.5t-64 -41t-36 -60t-11.5 -71.5v-300q0 -38 9 -70t25.5 -55t39.5 -36.5t52 -13.5q23 0 41 5t26 8q-1 -7 -6 -20.5t-18 -26.5t-35.5 -22.5t-58.5 -9.5q-40 0 -73 18t-57 49.5t-37 72.5t-13 88v326q0 54 21.5 100.5t62 81t98.5 54t132 19.5h149
q73 0 131.5 -19.5t99.5 -54t62.5 -81t21.5 -100.5v-187q0 -71 -28 -117.5t-75.5 -73.5t-110 -38t-131.5 -11q-49 0 -95 7.5t-82 25t-57.5 47t-21.5 74.5z" />
    <glyph glyph-name="A" unicode="A" horiz-adv-x="654" 
d="M327 589q-7 -9 -29.5 -53.5t-47.5 -127.5l-33 -111h220l-33 111q-13 42 -26.5 75t-24.5 57q-13 27 -26 49zM327 727q2 -2 21.5 -18.5t46.5 -51t57.5 -89.5t55.5 -134q20 -66 41 -130.5t42 -130.5q19 -60 34 -106t29 -67q-6 -2 -13 -4q-12 -3 -28 -3q-32 0 -53.5 14.5
t-36.5 37.5t-24.5 51.5t-18.5 56.5l-18 59h-270l-18 -59q-9 -28 -18.5 -56.5t-24.5 -51.5t-36.5 -37.5t-53.5 -14.5q-16 0 -28 3q-7 2 -13 4q14 21 29 67t34 106q21 66 41.5 130.5t41.5 130.5q25 79 55.5 134t57.5 89.5t46 51t22 18.5z" />
    <glyph glyph-name="B" unicode="B" horiz-adv-x="607" 
d="M184 623v-223h117q74 0 103 30t29 89q0 60 -34 82t-106 22h-109zM184 316v-232h109q79 0 114.5 25.5t35.5 85.5q0 58 -33.5 89.5t-108.5 31.5h-117zM75 707h218q54 0 100 -9t79 -29.5t51.5 -54t18.5 -82.5v-28q0 -49 -22.5 -89t-58.5 -57q41 -18 66 -59t25 -92v-27
q0 -47 -19 -81t-53 -56t-81.5 -32.5t-105.5 -10.5h-123q-27 1 -48 7q-18 5 -32.5 17t-14.5 33v650z" />
    <glyph glyph-name="C" unicode="C" horiz-adv-x="680" 
d="M353 630q-39 0 -72 -8t-57 -27t-37 -50.5t-13 -77.5v-226q0 -47 13 -78t37 -50.5t57 -27.5t72 -8q40 0 81 5.5t75.5 19.5t58.5 37t30 59q14 -23 19.5 -43t5.5 -37q0 -37 -24 -62t-63 -40t-87 -21.5t-96 -6.5q-57 0 -109.5 12.5t-92 40.5t-63 73.5t-23.5 111.5v255
q0 66 23.5 111.5t63 73.5t92 40.5t109.5 12.5q51 0 99 -7.5t85.5 -24t60.5 -43t23 -64.5q0 -32 -23 -71q-5 33 -28.5 56t-58.5 37.5t-76.5 21t-81.5 6.5z" />
    <glyph glyph-name="D" unicode="D" horiz-adv-x="716" 
d="M184 623v-539h168q40 0 74.5 8t60 27.5t40.5 50.5t15 78v212q0 46 -15 77.5t-40.5 50.5t-60 27t-74.5 8h-168zM169 0q-3 0 -18.5 1t-32 6.5t-30 17t-13.5 32.5v650h277q58 0 112 -11t95.5 -38t66.5 -73t25 -116v-231q0 -70 -25 -116t-66.5 -73t-95.5 -38t-112 -11h-183z
" />
    <glyph glyph-name="E" unicode="E" horiz-adv-x="581" 
d="M184 339v-255h357q0 -2 -1.5 -15.5t-7.5 -28.5t-18.5 -27.5t-35.5 -12.5h-307q-27 1 -48 7q-18 5 -33 16.5t-15 33.5v650h466q-1 -24 -8 -42q-6 -16 -19 -29t-36 -13h-294v-200h218q29 0 48 2.5t30 5.5q13 4 21 8q0 -15 -3 -32.5t-11.5 -32.5t-25 -25t-43.5 -10h-234z
" />
    <glyph glyph-name="F" unicode="F" horiz-adv-x="508" 
d="M362 423q25 0 44 2t31 4q14 3 24 7q0 -15 -3 -32.5t-11.5 -31.5t-25 -23.5t-43.5 -9.5h-194v-349q-31 1 -55 7q-20 5 -37 16.5t-17 33.5v660h436q-1 -24 -8 -42q-6 -16 -19 -29t-36 -13h-264v-200h178z" />
    <glyph glyph-name="G" unicode="G" 
d="M65 481q0 66 23.5 111.5t63 73.5t92 40.5t109.5 12.5q48 0 96.5 -6.5t87 -21.5t63 -40t24.5 -61q0 -18 -6 -38t-20 -43q-5 33 -28.5 56t-58.5 37.5t-76.5 21t-81.5 6.5q-39 0 -72 -8t-57 -27t-37 -50.5t-13 -77.5v-226q0 -47 13 -78t37 -50.5t57 -27.5t72 -8q40 0 73 5.5
t57 22t37 46.5t13 80v47h-128q-24 0 -38.5 11t-21.5 26.5t-9 32.5t-2 28q9 -4 21 -7q11 -3 27.5 -5t39.5 -2h220v-146q0 -65 -23.5 -108.5t-63.5 -70t-92 -38t-110 -11.5q-57 0 -109.5 12.5t-92 40.5t-63 73.5t-23.5 111.5v255z" />
    <glyph glyph-name="H" unicode="H" horiz-adv-x="720" 
d="M536 319h-352v-329q-31 1 -55 7q-20 5 -37 16.5t-17 33.5v670q30 -1 54 -7q20 -5 37.5 -17t17.5 -33v-256h352v313q30 -1 54 -7q20 -5 37.5 -17t17.5 -33v-670q-31 1 -55 7q-20 5 -37 16.5t-17 33.5v272z" />
    <glyph glyph-name="I" unicode="I" horiz-adv-x="259" 
d="M75 717q30 -1 54 -7q20 -5 37.5 -17t17.5 -33v-670q-31 1 -55 7q-20 5 -37 16.5t-17 33.5v670z" />
    <glyph glyph-name="J" unicode="J" horiz-adv-x="269" 
d="M194 -40q0 -32 -7.5 -61t-21.5 -50.5t-34.5 -34.5t-46.5 -13q-17 0 -38.5 7t-47.5 30q25 0 41.5 16t26.5 39.5t14.5 50.5t4.5 50v723q1 0 18 -1t37.5 -6t37 -17.5t16.5 -34.5v-698z" />
    <glyph glyph-name="K" unicode="K" horiz-adv-x="620" 
d="M184 -10q-31 1 -55 7q-20 5 -37 16.5t-17 33.5v670q30 -1 54 -7q20 -5 37.5 -17t17.5 -33v-243q45 6 80.5 24.5t66.5 49.5t59 72.5t57 94.5q21 38 50.5 49.5t53.5 11.5q8 0 15.5 -1t14.5 -2q8 -2 15 -3q-26 -39 -52 -90t-58.5 -99.5t-72.5 -88t-93 -55.5
q40 -9 73.5 -33.5t62.5 -59t53 -75.5t44.5 -80t38.5 -74.5t34 -58.5q-7 -2 -15 -4q-14 -3 -30 -3q-12 0 -27 2.5t-30.5 9t-30.5 18.5t-25 31q-27 49 -53 98t-57.5 89t-73.5 67.5t-100 35.5v-353z" />
    <glyph glyph-name="L" unicode="L" horiz-adv-x="524" 
d="M171 0q-27 1 -48 7q-18 5 -33 16.5t-15 33.5v660q30 -1 54 -7q20 -5 37.5 -17t17.5 -33v-576h235q29 0 48 2t30 5q13 4 21 8q0 -15 -2.5 -32.5t-9.5 -32.5t-19.5 -24.5t-31.5 -9.5h-284z" />
    <glyph glyph-name="M" unicode="M" horiz-adv-x="818" 
d="M634 448q0 17 1 34t3 31q2 17 4 32l-202 -413q-18 1 -36 7q-15 5 -32.5 16.5t-30.5 33.5l-165 353q2 -15 4 -31q2 -14 3 -30t1 -33v-458q-31 1 -55 7q-20 5 -37 16.5t-17 33.5v660h73q1 0 11 -0.5t23 -5.5t27 -16t24 -32l174 -374q8 17 24 50.5t36.5 75.5t42.5 88.5
t42.5 88.5t36.5 75t24 50q11 0 32.5 -1t43.5 -6t38 -17t16 -33v-660q-31 1 -55 7q-20 5 -37 16.5t-17 33.5v401z" />
    <glyph glyph-name="N" unicode="N" horiz-adv-x="721" 
d="M495 233l53 -84q-3 15 -6 32q-2 14 -3.5 30.5t-1.5 31.5v464q30 -1 54 -7q20 -5 37.5 -17t17.5 -33v-660q-49 0 -79.5 10.5t-48.5 23.5q-21 15 -31 34l-314 503q2 -15 5 -32q2 -14 4 -31.5t2 -34.5v-473q-31 1 -55 7q-20 5 -37 16.5t-17 33.5v660q25 0 48.5 -1t43.5 -6
t37 -15.5t29 -30.5z" />
    <glyph glyph-name="O" unicode="O" 
d="M533 477q0 37 -7 66.5t-26.5 49.5t-55 31t-92.5 11q-56 0 -90.5 -11t-54 -31t-26.5 -49.5t-7 -66.5v-247q0 -37 7 -66.5t26.5 -49.5t54 -31t90.5 -11q57 0 92.5 11t55 31t26.5 49.5t7 66.5v247zM642 217q0 -107 -70.5 -168t-218.5 -61t-218 61t-70 168v273q0 107 70 168
t218 61t218.5 -61t70.5 -168v-273z" />
    <glyph glyph-name="P" unicode="P" horiz-adv-x="596" 
d="M184 623v-305h79q40 0 73 5t57 21.5t37 46.5t13 80q0 46 -13 76t-37 46.5t-57 23t-73 6.5h-79zM75 707h188q58 0 110 -9.5t92 -34.5t63.5 -69.5t23.5 -113.5v-18q0 -68 -23.5 -112t-63.5 -69.5t-92 -36t-110 -10.5h-79v-244q-31 1 -55 7q-20 5 -37 16.5t-17 33.5v660z
" />
    <glyph glyph-name="Q" unicode="Q" 
d="M533 477q0 37 -7 66.5t-26.5 49.5t-55 31t-92.5 11q-56 0 -90.5 -11t-54 -31t-26.5 -49.5t-7 -66.5v-247q0 -37 7 -66.5t26.5 -49.5t54 -31t90.5 -11q57 0 92.5 11t55 31t26.5 49.5t7 66.5v247zM642 217q0 -99 -60.5 -158.5t-184.5 -68.5v-22q0 -28 13 -48t34.5 -33.5
t49 -20t55.5 -6.5q29 0 58.5 4.5t53.5 16t41 30.5t21 48q17 -35 17 -67q0 -30 -15.5 -53t-42 -38t-61 -22.5t-73.5 -7.5q-45 0 -89 11.5t-78.5 34t-56 57t-21.5 79.5v38q-122 10 -180 69t-58 157v273q0 107 70 168t218 61t218.5 -61t70.5 -168v-273z" />
    <glyph glyph-name="R" unicode="R" horiz-adv-x="589" 
d="M184 623v-224h117q74 0 103 29.5t29 88.5q0 60 -34 83t-106 23h-109zM542 502q0 -41 -14.5 -74.5t-40 -56.5t-60.5 -35.5t-77 -12.5q49 -24 84 -66t62 -89t48 -93t42 -77q-7 -2 -15 -3q-14 -3 -30 -3q-12 0 -26.5 2t-29 9t-28.5 18.5t-24 31.5q-25 46 -47 89t-49 78
t-63.5 59.5t-89.5 35.5v-325q-31 1 -55 7q-20 5 -37 17t-17 33v660h218q54 0 100 -9t79 -29t51.5 -54t18.5 -83v-30z" />
    <glyph glyph-name="S" unicode="S" horiz-adv-x="645" 
d="M45 513q0 60 22 100t60 64t88.5 34t108.5 10q50 0 96 -5.5t80.5 -19t55 -36.5t20.5 -59q0 -40 -29 -94v6q0 36 -19.5 59t-51.5 35.5t-72 17.5t-80 5q-35 0 -64.5 -6t-51.5 -18.5t-34.5 -32t-12.5 -47.5q0 -33 19 -51.5t49.5 -29t70 -16t81 -13t81 -19.5t70 -35
t49.5 -60.5t19 -95.5q0 -54 -21 -95t-58 -68t-88 -40.5t-111 -13.5q-46 0 -92.5 5.5t-83.5 19.5t-60 37t-23 59q0 18 7 40t23 48q0 -38 21 -61t54.5 -36t74 -17.5t79.5 -4.5q81 0 121.5 32.5t40.5 87.5q0 37 -19 58.5t-49.5 34t-70 19.5t-81 14t-81 17.5t-70 31t-49.5 54
t-19 85.5z" />
    <glyph glyph-name="T" unicode="T" horiz-adv-x="562" 
d="M334 623v-633q-31 1 -55 7q-20 5 -37 16.5t-17 33.5v576h-141q-27 0 -43 10t-25 25t-11.5 32.5t-2.5 32.5q8 -4 22 -8q11 -3 30 -5.5t46 -2.5h361q27 0 45.5 2.5t30.5 5.5q14 4 23 8q0 -15 -3 -32.5t-11.5 -32.5t-25 -25t-43.5 -10h-143z" />
    <glyph glyph-name="U" unicode="U" 
d="M642 205q0 -55 -23.5 -96t-63.5 -68t-92 -40.5t-110 -13.5q-57 0 -109.5 13.5t-92 40.5t-63 68t-23.5 96v511q30 -1 54 -7q20 -5 37.5 -17t17.5 -33v-439q0 -36 13 -63t37 -45t57 -27t72 -9q40 0 73 9t57 27t37 45t13 63v496q30 -1 54 -7q20 -5 37.5 -17t17.5 -33v-454z
" />
    <glyph glyph-name="V" unicode="V" horiz-adv-x="682" 
d="M341 -21q-3 2 -23.5 20t-49 54t-60 91.5t-56.5 132.5l-84 256q-20 60 -34.5 106t-28.5 67q6 1 13 3q6 2 13 3t15 1q33 0 54 -14.5t35.5 -37.5t24.5 -51.5t19 -56.5l84 -255q13 -41 27 -73t25 -53.5t18.5 -32.5l7.5 -11q6 9 28.5 48t49.5 122l84 255q9 28 19 56.5t24 51.5
t35.5 37.5t54.5 14.5q8 0 15 -1t13 -3q7 -2 13 -3q-14 -21 -29 -67t-35 -106l-83 -256q-25 -77 -57 -132.5t-60.5 -91.5t-48.5 -54t-23 -20z" />
    <glyph glyph-name="W" unicode="W" horiz-adv-x="1000" 
d="M340 -20q-34 26 -67 67q-29 35 -61 90t-58 135l-86 261q-20 60 -34.5 106t-28.5 67q6 1 13 3q6 2 12.5 3t14.5 1q33 0 54 -14.5t35 -37.5t24 -51.5t19 -56.5l84 -255q14 -42 27.5 -74t25.5 -55q13 -26 27 -46q15 17 33 45q15 24 35 63t41 96q-10 43 -18 88
q-7 38 -12.5 84t-5.5 88q0 54 26.5 83.5t85.5 29.5q-2 -24 -3.5 -47.5t-1.5 -46.5q0 -106 21 -194t47 -153q30 -76 69 -136q12 20 26 46q11 23 25.5 55t28.5 74l83 255q9 28 18.5 56.5t24 51.5t36 37.5t53.5 14.5q8 0 15 -1t13 -3q7 -2 13 -3q-14 -21 -28.5 -67t-34.5 -106
l-86 -261q-26 -80 -58.5 -135t-61.5 -90q-33 -41 -67 -67q-28 24 -56 57q-24 29 -52 70.5t-52 97.5q-23 -58 -50 -100t-51 -70q-28 -33 -57 -55z" />
    <glyph glyph-name="X" unicode="X" horiz-adv-x="595" 
d="M591 706q-23 -36 -45.5 -80t-48 -91.5t-55.5 -95t-68 -89.5q38 -38 68 -84.5t55.5 -94.5t48.5 -93.5t47 -81.5q-7 -2 -15 -3q-14 -3 -30 -3q-12 0 -25.5 2.5t-27 9t-26.5 18.5t-23 31q-36 68 -70 127t-79 109q-45 -50 -78.5 -109t-69.5 -127q-10 -19 -23 -31t-26.5 -18.5
t-27 -9t-25.5 -2.5q-17 0 -30 3q-8 1 -15 3q24 36 46.5 81.5t48 93.5t56 94.5t68.5 84.5q-38 42 -68.5 89.5t-56 95t-48 91.5t-45.5 80q7 1 15 3q7 1 14.5 2t15.5 1q24 0 52.5 -11t49.5 -50q41 -79 74.5 -137.5t72.5 -99.5q39 42 72 100t75 137q21 39 49.5 50t52.5 11
q8 0 15.5 -1t14.5 -2q8 -2 15 -3z" />
    <glyph glyph-name="Y" unicode="Y" horiz-adv-x="592" 
d="M241 299q-44 42 -77 96t-60.5 109.5t-51.5 108.5t-50 94q7 1 15 3q7 1 14.5 2t15.5 1q23 0 52.5 -11t49.5 -50q30 -62 51.5 -106t38 -74.5t29.5 -51.5t28 -36q18 21 35 49t33.5 60t32.5 66t32 67q13 27 27 43.5t29 26.5t30.5 13.5t29.5 3.5q7 0 15 -1t15 -2q8 -2 15 -3
q-25 -40 -49.5 -93t-52.5 -109.5t-61.5 -110t-76.5 -95.5v-309q-31 1 -55 7q-20 5 -37 17t-17 34v251z" />
    <glyph glyph-name="Z" unicode="Z" horiz-adv-x="578" 
d="M30 0q-1 5 -1 10v10q0 63 24 116t61 100t82.5 90.5t88.5 89.5t79.5 96.5t54.5 110.5h-372q1 24 8 42q6 16 18.5 29t36.5 13h431q0 -74 -27 -138t-68 -121t-89.5 -107.5t-92 -95t-74.5 -85t-38 -77.5h310q29 0 47.5 2.5t29.5 5.5q13 4 21 8q-1 -15 -3.5 -32.5t-9.5 -32
t-18.5 -24.5t-30.5 -10h-468z" />
    <glyph glyph-name="bracketleft" unicode="[" horiz-adv-x="295" 
d="M75 707h204q-1 -22 -8 -39q-6 -14 -18.5 -26t-35.5 -12h-43v-648h43q23 0 35.5 -12t18.5 -26t7 -26t1 -13h-115q-26 1 -45 7q-17 5 -30.5 17t-13.5 34v744z" />
    <glyph glyph-name="backslash" unicode="\" horiz-adv-x="338" 
d="M-12 749q8 2 23 5.5t32 3.5q20 1 35.5 -6.5t21.5 -28.5l274 -942q-8 -3 -24.5 -7t-33.5 -4q-18 0 -33 7.5t-21 27.5z" />
    <glyph glyph-name="bracketright" unicode="]" horiz-adv-x="295" 
d="M220 -37q0 -22 -14 -34t-31 -17q-19 -6 -44 -7h-116q0 1 1 13t7 26t18.5 26t36.5 12h43v648h-43q-24 0 -36.5 12t-18.5 26q-7 17 -8 39h205v-744z" />
    <glyph glyph-name="asciicircum" unicode="^" horiz-adv-x="555" 
d="M475 423q-93 95 -188 188l-165 -165q-8 -8 -17 -10.5t-17 -2.5q-22 2 -39.5 19t-23.5 28l204 204q16 16 30.5 21.5t28.5 5.5q30 0 56 -26l169 -168q9 -11 11.5 -18t2.5 -13q0 -11 -6 -20.5t-14.5 -18t-17 -14.5t-14.5 -10z" />
    <glyph glyph-name="underscore" unicode="_" horiz-adv-x="570" 
d="M567 -12q0 -5 1 -10t1.5 -10.5t0.5 -10.5q0 -19 -9.5 -37.5t-40.5 -18.5h-517q-1 4 -2 9t-1 10.5v11.5q0 9 2 19t7 18t15 13.5t25 5.5h518z" />
    <glyph glyph-name="grave" unicode="`" horiz-adv-x="489" 
d="M226 772q-6 -10 -6 -23q0 -17 15.5 -36t44.5 -48l14 -14t15 -15.5t12 -14.5t5 -12q0 -10 -10 -16.5t-21 -11.5q-14 -5 -31 -9l-60 47q-26 21 -40.5 44t-13.5 44t19 38.5t57 26.5z" />
    <glyph glyph-name="a" unicode="a" horiz-adv-x="521" 
d="M46 140q0 47 20.5 76t52 46t69 26t72 17t61 19.5t36.5 33.5q0 16 -4.5 30.5t-16.5 25t-32.5 16.5t-52.5 6q-33 0 -62 -6.5t-50.5 -20t-33.5 -34t-12 -49.5q-18 25 -25.5 46t-7.5 39q0 29 17.5 49.5t45 33.5t61.5 19t67 6q103 0 157 -43.5t54 -122.5v-361q-19 8 -37 11
t-35 3q-36 0 -72 -9t-78 -9q-36 0 -71 7.5t-62.5 25.5t-44 47t-16.5 72zM360 268q-5 -15 -22.5 -23t-41 -13.5t-49.5 -11t-47.5 -14.5t-35.5 -24.5t-14 -41.5q0 -33 25.5 -54t79.5 -21q23 0 42.5 3t33.5 8q16 5 29 12v180z" />
    <glyph glyph-name="b" unicode="b" horiz-adv-x="546" 
d="M170 88q5 -2 28 -11t68 -9q70 0 95 25t25 76v170q0 53 -27 76.5t-69 23.5q-23 0 -44.5 -6.5t-38 -18.5t-27 -28.5t-10.5 -36.5v-261zM491 154q0 -80 -57 -123t-166 -43q-32 0 -56.5 5t-48 11l-47 12t-51.5 8v730q2 0 19 -1t36 -7t34.5 -20t15.5 -39v-140
q0 -18 -1.5 -31.5t-3.5 -23.5q-2 -11 -4 -20q13 12 33 23q17 9 44 16.5t65 7.5t72 -11.5t60 -32.5t41 -51.5t15 -69.5v-200z" />
    <glyph glyph-name="c" unicode="c" horiz-adv-x="503" 
d="M440 176q15 -22 21.5 -40.5t6.5 -35.5q0 -27 -15.5 -48t-42 -35t-62 -21.5t-74.5 -7.5q-102 0 -160.5 44t-58.5 124v195q0 79 57 123.5t159 44.5q31 0 63.5 -6t59 -19t43 -34t16.5 -50q0 -19 -8 -40t-25 -46q0 28 -11.5 49t-30.5 35t-43 20.5t-49 6.5q-63 0 -94.5 -23.5
t-31.5 -81.5v-153q0 -54 29.5 -79.5t94.5 -25.5q33 0 61.5 7t49.5 20.5t33 33t12 43.5z" />
    <glyph glyph-name="d" unicode="d" horiz-adv-x="546" 
d="M376 349q0 20 -10.5 36.5t-27.5 28.5t-39 18.5t-44 6.5q-42 0 -68.5 -23.5t-26.5 -76.5v-170q0 -26 5.5 -44.5t19 -31.5t36.5 -19t58 -6q23 0 40.5 2.5t30.5 6.5q15 4 26 9v263zM376 754q2 0 19 -1t36 -7t34.5 -20t15.5 -39v-696q-18 8 -37.5 11t-36.5 3q-35 0 -70 -8.5
t-70 -8.5q-102 0 -157 43t-55 123v200q0 39 15 69.5t41 51.5t59.5 32.5t71.5 11.5t65.5 -7.5t44.5 -16.5q20 -11 33 -23q-3 9 -5 20q-2 10 -3 23.5t-1 31.5v207z" />
    <glyph glyph-name="e" unicode="e" horiz-adv-x="518" 
d="M160 304q2 -1 11 -3t22 -4.5t27.5 -4.5t28.5 -2q63 0 88 18.5t25 52.5q0 35 -22.5 56.5t-78.5 21.5q-60 0 -80.5 -27t-20.5 -76v-32zM445 177q28 -41 28 -76q0 -27 -15.5 -48t-42 -35.5t-62 -22t-75.5 -7.5q-105 0 -164 44.5t-59 123.5v195q0 79 53 123.5t155 44.5
t153 -43t51 -115q0 -31 -10.5 -59.5t-35 -50t-63.5 -34t-96 -12.5q-25 0 -53.5 5t-48.5 16v-55q0 -49 27.5 -73.5t90.5 -24.5q36 0 66.5 7t52.5 20.5t35 33t13 43.5z" />
    <glyph glyph-name="f" unicode="f" horiz-adv-x="349" 
d="M65 619q0 39 19.5 70.5t51.5 53t72.5 33t83.5 11.5q37 0 70.5 -6t58.5 -18t40 -29.5t15 -41.5q0 -35 -37 -69q0 20 -12.5 35t-33 24.5t-46.5 14.5t-53 5q-25 0 -47.5 -7t-39.5 -20t-27 -32t-10 -43v-112h184q-1 -24 -8 -42q-6 -16 -18.5 -29t-35.5 -13h-122v-411
q-30 1 -53 7q-20 5 -36 16.5t-16 33.5v569z" />
    <glyph glyph-name="g" unicode="g" horiz-adv-x="512" 
d="M363 420q-4 2 -32.5 11.5t-72.5 9.5q-59 0 -81 -21.5t-22 -70.5v-22q0 -25 4.5 -44t16 -32.5t31.5 -20.5t52 -7q62 0 83 27t21 77v93zM467 312q0 -80 -53 -124.5t-155 -44.5q-31 0 -54.5 4.5t-40.5 9.5q-19 6 -33 15q-2 -12 -4.5 -24t-2.5 -22q0 -19 7.5 -30t22.5 -17
t37 -8t51 -2h33q37 0 75 -2.5t68 -15.5t49 -40.5t19 -78.5q0 -39 -13.5 -71t-41.5 -55t-71 -35.5t-101 -12.5q-47 0 -86 7t-66.5 21t-43 33.5t-15.5 45.5q0 17 7 36.5t23 41.5q4 -56 53 -80.5t123 -24.5q37 0 61.5 6.5t39.5 18.5t21 28.5t6 35.5q0 21 -8 33t-22.5 18t-35 8
t-44.5 2h-49q-36 0 -69.5 3t-59.5 14.5t-41.5 34t-15.5 61.5q0 30 14 53.5t36 49.5q-18 20 -27.5 49.5t-9.5 58.5v52q0 42 16 71.5t42.5 48t60.5 27t70 8.5q41 0 78 -10t72 -10q17 0 36 4t42 14v-205z" />
    <glyph glyph-name="h" unicode="h" horiz-adv-x="556" 
d="M170 -7q-30 1 -53 7q-20 5 -36 16.5t-16 33.5v704q4 0 20.5 -1t35.5 -7t34 -19.5t15 -39.5v-139q0 -18 -1.5 -32t-3.5 -24q-2 -11 -4 -20q13 12 33 23q17 9 44 16.5t65 7.5t72 -10.5t60 -31.5t41 -52t15 -71v-361q-30 1 -53 7q-20 5 -36 17t-16 33v289q0 53 -27 76.5
t-69 23.5q-23 0 -44.5 -6.5t-38 -18.5t-27 -28.5t-10.5 -36.5v-356z" />
    <glyph glyph-name="i" unicode="i" horiz-adv-x="235" 
d="M65 699h75q9 0 19 -8t10 -17v-76h-74q-11 0 -20.5 7t-9.5 17v77zM65 514q1 0 18 -1t36 -6t35 -17t16 -33v-464q-30 1 -53 7q-20 5 -36 16.5t-16 33.5v464z" />
    <glyph glyph-name="j" unicode="j" horiz-adv-x="235" 
d="M64 699h75q9 0 19 -8t10 -17v-76h-74q-11 0 -20.5 7t-9.5 17v77zM169 -90q0 -30 -7 -57t-20.5 -47.5t-33 -32.5t-44.5 -12q-17 0 -37 6.5t-45 28.5q23 0 39 15t25.5 37t13.5 47.5t4 46.5v572q29 -1 52 -7q20 -5 36.5 -17t16.5 -33v-547z" />
    <glyph glyph-name="k" unicode="k" horiz-adv-x="506" 
d="M284 290q40 -12 68.5 -31.5t49 -44t34.5 -52.5t25.5 -56t21.5 -54.5t23 -48.5q-12 -3 -23 -5q-9 -2 -19 -3.5t-16 -1.5q-32 0 -48.5 16.5t-28.5 42.5t-23.5 56.5t-32 58.5t-54.5 49t-91 28v-251q-30 1 -53 7q-20 5 -36 16.5t-16 33.5v706q29 -1 52 -7q20 -5 36.5 -17
t16.5 -33v-373q28 2 49.5 11.5t40 27t35.5 43.5t35 61q10 18 31 31.5t59 13.5q24 0 50 -8q-18 -25 -36 -58.5t-40 -65.5t-48.5 -57.5t-61.5 -34.5z" />
    <glyph glyph-name="l" unicode="l" horiz-adv-x="235" 
d="M60 756q2 0 19 -1t36 -6.5t34.5 -17t15.5 -32.5v-525q0 -21 2.5 -47t10 -48.5t21.5 -38t37 -15.5q-18 -20 -36 -26t-35 -6q-27 0 -47 12t-32.5 32.5t-19 47.5t-6.5 57v614z" />
    <glyph glyph-name="m" unicode="m" horiz-adv-x="877" 
d="M386 347q0 46 -24.5 68t-84.5 22q-23 0 -43 -3t-34 -6q-17 -4 -30 -9v-426q-30 1 -53 7q-20 5 -36 16.5t-16 33.5v467q12 -6 24 -10q11 -4 23.5 -7t25.5 -3q19 0 37 3.5t37 7.5t38.5 7.5t40.5 3.5q43 0 85.5 -11t68.5 -37q4 3 15.5 11t32.5 16.5t52 14.5t73 6
q38 0 73 -9.5t62 -29.5t43 -51t16 -73v-363q-30 2 -53 8q-20 5 -36 16.5t-16 32.5v293q0 51 -27.5 73t-74.5 22q-21 0 -41.5 -5.5t-36.5 -15t-26 -23.5t-10 -31v-370q-30 1 -53 7q-20 5 -36 17t-16 33v297z" />
    <glyph glyph-name="n" unicode="n" horiz-adv-x="556" 
d="M386 347q0 43 -24.5 66.5t-84.5 23.5q-23 0 -43 -3t-34 -6q-17 -4 -30 -8v-427q-30 1 -53 7q-20 5 -36 16.5t-16 33.5v467q8 -5 29.5 -12t47.5 -7q18 0 36 3.5l36 7t37 7t40 3.5q36 0 72 -7t64.5 -25t46 -48.5t17.5 -76.5v-369q-30 2 -53 8q-20 5 -36 16.5t-16 32.5v297z
" />
    <glyph glyph-name="o" unicode="o" horiz-adv-x="567" 
d="M407 336q0 24 -5 43.5t-18.5 32.5t-37.5 20t-63 7q-38 0 -62 -7t-37.5 -20t-18.5 -32.5t-5 -43.5v-165q0 -24 5 -43.5t18.5 -32.5t37.5 -20t62 -7q39 0 63 7t37.5 20t18.5 32.5t5 43.5v165zM512 156q0 -79 -55.5 -123.5t-173.5 -44.5q-117 0 -172.5 44.5t-55.5 123.5v195
q0 79 55.5 123.5t172.5 44.5q118 0 173.5 -44.5t55.5 -123.5v-195z" />
    <glyph glyph-name="p" unicode="p" horiz-adv-x="546" 
d="M170 158q0 -20 10.5 -36.5t27 -28.5t38 -18.5t44.5 -6.5q42 0 69 23.5t27 76.5v170q0 51 -25 76t-95 25q-23 0 -41 -3t-30 -6q-15 -4 -25 -8v-264zM170 -181v-66q-1 0 -17.5 0.5t-36 6.5t-35.5 20t-16 41v696q33 -16 66 -16q35 0 69.5 9t72.5 9q106 0 162 -43t56 -123
v-200q0 -39 -15 -69.5t-41 -51.5t-60 -32.5t-72 -11.5t-65 7t-44 16q-20 11 -33 24q2 -9 4 -20q2 -10 3.5 -23.5t1.5 -30.5v-142z" />
    <glyph glyph-name="q" unicode="q" horiz-adv-x="546" 
d="M481 -247q-1 0 -17.5 0.5t-36 6.5t-35.5 20t-16 41v140q0 17 1 30.5t3 23.5q2 11 5 20q-13 -13 -33 -24q-17 -9 -44.5 -16t-65.5 -7t-71.5 11.5t-59.5 32.5t-41 51.5t-15 69.5v200q0 80 55.5 123t161.5 43q38 0 71.5 -9t68.5 -9q17 0 34 3.5t35 12.5v-764zM376 422
q-11 4 -26 8q-13 3 -30.5 6t-40.5 3q-35 0 -58 -6t-36.5 -19t-19 -32t-5.5 -44v-170q0 -53 26.5 -76.5t68.5 -23.5q22 0 44 6.5t39 18.5t27.5 28.5t10.5 36.5v264z" />
    <glyph glyph-name="r" unicode="r" horiz-adv-x="399" 
d="M255 433q-17 0 -32 -2.5l-27 -4.5q-14 -4 -26 -7v-426q-30 1 -53 7q-20 5 -36 17t-16 34v465q20 -10 37 -14t32 -4q16 0 32 3.5t32.5 7t35 7t39.5 3.5q26 0 49 -5t40 -15.5t27 -27t10 -39.5q0 -28 -13 -49.5t-24 -35.5q0 22 -8.5 38.5t-23 27t-34 15.5t-41.5 5z" />
    <glyph glyph-name="s" unicode="s" horiz-adv-x="498" 
d="M35 359q0 81 53.5 121.5t156.5 40.5q43 0 78.5 -6t61 -18t39.5 -31t14 -44q0 -18 -8 -39.5t-26 -46.5q0 49 -42.5 73.5t-111.5 24.5q-60 0 -84 -17t-24 -55q0 -20 14 -30t36.5 -15t51 -7.5t59 -7t59 -13t51 -26t36.5 -46t14 -72.5q0 -72 -53.5 -114.5t-164.5 -42.5
q-44 0 -81.5 6.5t-64.5 19.5t-42.5 32.5t-15.5 45.5q0 19 9 40t30 47q1 -30 14.5 -50t36 -32.5t52 -18t62.5 -5.5q48 0 79.5 19t31.5 58q0 31 -24 44t-59.5 18.5t-77 9t-77 16t-59.5 40.5t-24 81z" />
    <glyph glyph-name="t" unicode="t" horiz-adv-x="430" 
d="M65 615q9 0 26.5 -1.5t35 -10t30.5 -26.5t13 -51v-38h206q-1 -24 -8 -42q-6 -16 -18.5 -29t-35.5 -13h-144v-220q0 -52 20.5 -82t78.5 -30q24 0 46 6t39.5 18.5t27.5 32.5t10 48q35 -44 35 -81q0 -49 -47.5 -78.5t-123.5 -29.5q-90 0 -140.5 44t-50.5 124v459z" />
    <glyph glyph-name="u" unicode="u" horiz-adv-x="556" 
d="M170 160q0 -43 24 -66.5t84 -23.5q23 0 43 2.5t34 5.5q17 4 31 9v427q29 -1 52 -7q20 -5 36.5 -17t16.5 -33v-466q-9 5 -30 11.5t-48 6.5q-36 0 -71.5 -10.5t-77.5 -10.5q-36 0 -72 7t-64 25t-45.5 48t-17.5 77v369q29 -2 52 -8q20 -5 36.5 -16.5t16.5 -32.5v-297z" />
    <glyph glyph-name="v" unicode="v" horiz-adv-x="506" 
d="M460 318q-6 -58 -23.5 -105t-40.5 -84.5t-48 -65.5t-45.5 -46t-34.5 -27.5t-15 -9.5t-30 20.5t-66 62.5t-70 105.5t-42 149.5l-20 196q28 -1 51 -7q20 -5 37 -16.5t20 -32.5l20 -160q7 -53 23 -92.5t33 -65.5t30.5 -38.5l13.5 -12.5q23 21 43 52q17 26 33 65t23 92
l20 160q2 21 19.5 32.5t37.5 16.5q23 6 52 7z" />
    <glyph glyph-name="w" unicode="w" horiz-adv-x="798" 
d="M545 -19q-24 13 -50 31q-22 16 -47 40.5t-46 59.5q-22 -33 -47.5 -57t-48.5 -41q-26 -19 -53 -33q-51 34 -94 82q-18 21 -36.5 47t-34 57.5t-27 69t-15.5 81.5l-10 98t-11 98l16 -1t35.5 -6t37 -17t20.5 -33l20 -159q7 -54 23.5 -93t33.5 -65q20 -30 43 -51q21 13 41 31
q17 15 35 37t30 49q-11 33 -17 74t-6 86q0 47 11 74t27.5 40.5t35.5 17t35 4.5q-5 -38 -7.5 -71.5t-2.5 -62.5q0 -78 15 -129.5t34.5 -83t37 -47t22.5 -19.5q4 5 18.5 21t30.5 42.5t30.5 63t20.5 82.5l20 159q2 22 19.5 33.5t37.5 16.5q23 6 51 7l-20 -196
q-6 -58 -23.5 -105.5t-40.5 -84.5t-48.5 -65t-46.5 -46t-35 -27z" />
    <glyph glyph-name="x" unicode="x" horiz-adv-x="473" 
d="M236 191l-86 -147q-9 -16 -21.5 -26t-26 -15.5t-26.5 -7.5t-23 -2q-7 0 -15 0.5t-16 1.5q-9 1 -18 3q17 20 25.5 35t21.5 37l70 118q9 15 17.5 27t15.5 20q8 10 16 17q-8 9 -17 20q-8 9 -16 21t-16 26l-73 123q-11 17 -19 31.5t-25 35.5l18 2l16 2t15 1q10 0 22.5 -2
t25.5 -8t25.5 -16t21.5 -25l88 -145l88 145q9 15 21.5 25t25.5 16t25.5 8t22.5 2q7 0 15 -1l16 -2l18 -2q-17 -21 -25 -35.5t-19 -31.5l-73 -123q-8 -14 -16 -26t-16 -21q-9 -11 -17 -20q7 -7 15 -17q7 -8 16 -20t18 -27l70 -118q13 -22 21.5 -37t25.5 -35q-9 -2 -18 -3
q-8 -1 -16 -1.5t-15 -0.5q-10 0 -23 2t-26.5 7.5t-26 15.5t-21.5 26z" />
    <glyph glyph-name="y" unicode="y" horiz-adv-x="516" 
d="M199 63q-22 12 -45.5 36t-43.5 57.5t-34.5 74.5t-19.5 87l-10 98t-11 98l13 -0.5t30 -5t33.5 -13.5t23.5 -26q6 -16 10.5 -37t7.5 -44t5.5 -46t5.5 -44q6 -46 22 -79.5t33 -56.5q20 -26 44 -45q25 20 45 46q17 23 33.5 56.5t21.5 78.5l17 129q4 32 20 49.5t34.5 26t35 10
t22.5 1.5q-6 -49 -11 -98l-10 -98q-6 -50 -22 -92t-38 -76.5t-46.5 -60.5t-46.5 -43l-39 -30q-25 -19 -46 -37t-36.5 -36.5t-24.5 -40t-9 -46.5q0 -24 6 -46.5t16 -42.5q-8 -4 -17.5 -7t-20.5 -3q-14 0 -29.5 5t-28.5 17t-21 32.5t-8 51.5q0 34 11.5 62t30.5 52t44 45t53 41
z" />
    <glyph glyph-name="z" unicode="z" horiz-adv-x="460" 
d="M40 423q1 24 8 42q6 16 18.5 29t35.5 13h334q-6 -20 -9.5 -41t-9.5 -41q-16 -56 -55 -103t-82.5 -88t-82.5 -77.5t-55 -72.5h298q-1 -24 -8 -42q-6 -16 -19 -29t-36 -13h-345q-3 14 -3.5 21.5t-0.5 13.5q0 40 16.5 74t42.5 64.5t58 58.5t64 58t59 62.5t44 70.5h-272z" />
    <glyph glyph-name="braceleft" unicode="{" horiz-adv-x="262" 
d="M15 272q16 8 28 22q11 12 20 30.5t9 45.5v270q0 51 25 80t60 29q22 0 45 -12t45 -37q-23 0 -37 -7.5t-22 -20t-10.5 -30t-2.5 -38.5v-239q0 -23 -7 -39t-16.5 -27.5t-19 -18.5t-13.5 -10q4 -3 13.5 -9t19 -17.5t16.5 -28t7 -38.5v-239q0 -21 2.5 -38.5t10.5 -30t22 -20
t37 -7.5q-22 -26 -45 -37.5t-45 -11.5q-35 0 -60 29t-25 80v270q0 19 -9 36.5t-19.5 31.5t-19.5 23z" />
    <glyph glyph-name="bar" unicode="|" horiz-adv-x="255" 
d="M75 757q29 -1 52 -7q20 -5 36.5 -17t16.5 -33v-942q-30 1 -53 7q-20 5 -36 16.5t-16 33.5v942z" />
    <glyph glyph-name="braceright" unicode="}" horiz-adv-x="262" 
d="M247 272l-9 -7t-19.5 -20t-19.5 -31t-9 -42v-270q0 -51 -25 -80t-60 -29q-22 0 -45 11.5t-45 37.5q23 0 37 7.5t21.5 20t10 30t2.5 38.5v239q0 22 7 38.5t16.5 28t19 17.5t13.5 9q-4 3 -13.5 10t-19 18.5t-16.5 27.5t-7 39v239q0 21 -2.5 38.5t-10 30t-21.5 20t-37 7.5
q22 25 45 37t45 12q35 0 60 -29t25 -80v-270q0 -28 17 -56t40 -42z" />
    <glyph glyph-name="asciitilde" unicode="~" horiz-adv-x="647" 
d="M138 426q40 0 88.5 -8t98 -18t98.5 -18t91 -8q26 0 49 6t43 31q2 -11 3.5 -21.5t1.5 -19.5q0 -36 -22 -59t-80 -23q-41 0 -89 8t-97.5 18t-98 18t-90.5 8q-30 0 -52.5 -7.5t-39.5 -27.5q-7 24 -7 48q0 32 25 52.5t78 20.5z" />
    <glyph glyph-name="uni00A0" unicode="&#xa0;" horiz-adv-x="280" 
 />
    <glyph glyph-name="exclamdown" unicode="&#xa1;" horiz-adv-x="275" 
d="M207 603h-72q-11 0 -19.5 7t-8.5 17v80h72q10 0 19 -6.5t9 -17.5v-80zM105 529q2 0 19 -1t36 -6.5t34.5 -17.5t15.5 -33v-481q-30 1 -53 7q-20 5 -36 16.5t-16 33.5v482z" />
    <glyph glyph-name="cent" unicode="&#xa2;" horiz-adv-x="513" 
d="M160 177q0 -47 19.5 -72t68.5 -30v359q-51 -3 -69.5 -27.5t-18.5 -75.5v-154zM248 -10q-91 6 -142 49.5t-51 117.5v194q0 76 49 120t144 48v56q17 -1 31 -6q11 -5 21 -15t10 -29v-9q28 -3 54 -11t45 -21t30.5 -31.5t11.5 -43.5q0 -18 -7.5 -39.5t-24.5 -45.5q0 48 -30 74
t-79 34v-356q58 6 93.5 32.5t36.5 69.5q28 -43 28 -78q0 -23 -12 -42t-33.5 -33t-50.5 -22.5t-62 -11.5v-61q-18 1 -31 6q-12 5 -21.5 15t-9.5 29v10z" />
    <glyph glyph-name="sterling" unicode="&#xa3;" horiz-adv-x="625" 
d="M197 142q0 -7 -1 -17t-2 -19q-1 -11 -2 -23q29 -9 62 -15q28 -5 63.5 -9.5t73.5 -4.5q25 0 51.5 7.5t49 23t38.5 39.5t20 56q28 -46 28 -84q0 -33 -15 -57.5t-40 -41t-57.5 -24.5t-67.5 -8q-47 0 -88 5t-80 13t-77 19t-78 22q3 15 6 31q2 14 4.5 29.5t2.5 29.5v475
q0 39 16.5 70.5t46 53t69 33t86.5 11.5q95 0 139.5 -25t44.5 -68q0 -36 -37 -81q-3 51 -39.5 71t-107.5 20q-109 0 -109 -100v-120h185q-1 -24 -8 -42q-6 -16 -19 -29t-36 -13h-122v-228z" />
    <glyph glyph-name="yen" unicode="&#xa5;" horiz-adv-x="625" 
d="M219 337q-35 42 -62.5 91.5t-51 99t-45.5 96.5t-45 83q7 1 15 3q7 1 14.5 2t15.5 1q12 0 25.5 -2t27 -9t26.5 -19t23 -31q19 -36 36.5 -74t35.5 -73.5t36.5 -67t38.5 -53.5q20 23 38.5 54t36.5 66t36 73t36 75q9 19 22 30.5t27.5 18.5t28 9.5t24.5 2.5q7 0 15 -1t15 -2
q8 -2 15 -3q-23 -36 -44.5 -82.5t-46 -96.5t-52.5 -99.5t-62 -91.5h94q3 -12 3 -25q0 -20 -10.5 -36t-37.5 -16h-84v-80h129q3 -12 3 -25q0 -20 -10.5 -36t-37.5 -16h-84v-113q-31 1 -55 7q-20 5 -37 17t-17 34v55h-125q-4 11 -4 25q0 20 11.5 36t37.5 16h80v80h-125
q-4 11 -4 25q0 20 11.5 36t37.5 16h45z" />
    <glyph glyph-name="brokenbar" unicode="&#xa6;" horiz-adv-x="255" 
d="M75 182q29 -1 52 -7q20 -5 36.5 -17t16.5 -33v-367q-30 1 -53 7q-20 5 -36 16.5t-16 33.5v367zM75 757q29 -1 52 -7q20 -5 36.5 -17t16.5 -34v-366q-30 1 -53 7q-20 5 -36 16.5t-16 33.5v367z" />
    <glyph glyph-name="section" unicode="&#xa7;" horiz-adv-x="599" 
d="M535 632q0 -39 -25 -86q-14 69 -67.5 99t-139.5 30q-49 0 -77 -9t-42.5 -25t-18 -37t-3.5 -45q0 -41 27 -61t67 -31.5t87 -21t87 -27.5t67 -51.5t27 -94.5q0 -79 -61 -117q2 16 3 27t1 18q0 44 -17.5 71t-46 43.5t-65 25.5t-74.5 18t-74.5 21.5t-65 35t-46 58.5t-17.5 92
q0 43 13 78.5t41.5 61t75 39t112.5 13.5q109 0 170.5 -31t61.5 -94zM67 -109q0 19 5.5 40.5t19.5 46.5q13 -69 67 -99t141 -30q49 0 77 9t42 24.5t17.5 37t3.5 45.5q0 41 -26.5 61.5t-67 32t-87 20.5t-87 27t-67 51t-26.5 92q0 38 15 69t46 51q-2 -16 -3.5 -27t-1.5 -18
q0 -45 17.5 -72t46 -43.5t65 -25.5t75 -18t75 -21t65 -34.5t46 -58.5t17.5 -92q0 -44 -13 -79t-42 -60.5t-75 -39t-112 -13.5q-109 0 -171 30.5t-62 93.5z" />
    <glyph glyph-name="dieresis" unicode="&#xa8;" horiz-adv-x="489" 
d="M303 699h74q12 0 19.5 -8.5t7.5 -16.5v-76h-72q-13 0 -21 7.5t-8 17.5v76zM138 699h74q12 0 19.5 -8.5t7.5 -16.5v-76h-72q-13 0 -21 7.5t-8 17.5v76z" />
    <glyph glyph-name="copyright" unicode="&#xa9;" horiz-adv-x="829" 
d="M65 489q0 55 24.5 99t70 74.5t110 46.5t144.5 16t145 -16t110.5 -46.5t70 -74.5t24.5 -99v-263q0 -55 -24.5 -99t-70 -74.5t-110.5 -46.5t-145 -16t-144.5 16t-110 46.5t-70 74.5t-24.5 99v263zM673 456q0 45 -12 80.5t-42 61t-80.5 39t-126.5 13.5q-75 0 -124.5 -13.5
t-79 -39t-41.5 -61t-12 -80.5v-197q0 -45 12 -80.5t41.5 -61t79 -39t124.5 -13.5q76 0 126.5 13.5t80.5 39t42 61t12 80.5v197zM420 504q-18 0 -34.5 -2t-29 -9.5t-20 -23.5t-7.5 -43v-133q0 -28 7.5 -43.5t20 -23.5t29 -10t34.5 -2q22 0 44 2t41 9t33.5 20t21.5 35
q21 -36 21 -60q0 -21 -13 -36.5t-35 -25t-51.5 -14t-61.5 -4.5q-36 0 -70 6.5t-59.5 23t-41 44t-15.5 68.5v154q0 41 15.5 68.5t41 43.5t59.5 22.5t70 6.5q34 0 64 -5t52 -14.5t35 -24.5t13 -36q0 -23 -23 -58q-7 20 -21.5 33t-33.5 20t-41.5 9.5t-44.5 2.5z" />
    <glyph glyph-name="ordfeminine" unicode="&#xaa;" horiz-adv-x="462" 
d="M65 434q0 34 14.5 54.5t37.5 32.5t51 19t54 13t47 14t31 24q-1 23 -16.5 39.5t-57.5 16.5q-48 0 -78 -16t-32 -60q-18 17 -26 33.5t-8 31.5q0 38 40 59.5t109 21.5q81 0 123.5 -34t42.5 -94v-270q-9 3 -19 6q-8 2 -19 4t-22 2q-28 0 -55.5 -6.5t-59.5 -6.5q-29 0 -57 6
t-50.5 19.5t-36 36t-13.5 54.5zM232 386q32 0 52 5q11 2 19 5v116q-15 -15 -38.5 -20t-46.5 -10t-39.5 -14.5t-16.5 -32.5t16 -36t54 -13z" />
    <glyph glyph-name="guillemotleft" unicode="&#xab;" horiz-adv-x="651" 
d="M346 63q-3 -6 -9 -13.5t-15 -14t-19.5 -11t-20.5 -4.5q-12 0 -25.5 9t-32.5 30l-142 141q-27 27 -26.5 52.5t27.5 52.5l201 201q6 -4 14 -10t15.5 -13.5t12.5 -16.5t5 -19q0 -11 -8.5 -24t-28.5 -32l-137 -139zM576 63q-3 -6 -9 -13.5t-15 -14t-19.5 -11t-20.5 -4.5
q-12 0 -25.5 9t-32.5 30l-142 141q-52 52 1 105l201 201q6 -4 14 -10t15.5 -13.5t12.5 -16.5t5 -19q0 -11 -8.5 -24t-28.5 -32l-137 -139z" />
    <glyph glyph-name="logicalnot" unicode="&#xac;" horiz-adv-x="668" 
d="M498 304q-106 0 -210.5 0.5t-210.5 0.5q-30 0 -40 16t-10 39q0 11 1.5 20t3.5 14h482q47 0 63 -19t16 -56v-246q0 -15 -5.5 -23.5t-13.5 -13.5t-18 -6.5t-19 -1.5q-12 0 -22.5 1.5t-16.5 3.5v271z" />
    <glyph glyph-name="uni00AD" unicode="&#xad;" horiz-adv-x="494" 
d="M425 298q5 -24 2 -42q-2 -16 -11.5 -29t-32.5 -13h-315q-5 24 -2 42q2 16 11.5 29t32.5 13h315z" />
    <glyph glyph-name="registered" unicode="&#xae;" horiz-adv-x="501" 
d="M45 567q0 66 55.5 103t149.5 37t150 -37t56 -103v-158q0 -66 -56 -103.5t-150 -37.5t-149.5 37.5t-55.5 103.5v158zM391 548q0 46 -31.5 75.5t-111.5 29.5q-78 0 -109 -29.5t-31 -75.5v-123q0 -46 31 -74.5t109 -28.5q80 0 111.5 28.5t31.5 74.5v123zM278 533
q0 23 -11.5 29.5t-27.5 6.5h-14v-75h14q15 0 27 8.5t12 30.5zM164 612h69q21 0 40 -3.5t33 -12.5t22.5 -24t8.5 -39q0 -23 -14.5 -45t-38.5 -27q25 -11 40.5 -36.5t22.5 -50.5q-1 0 -6 -1.5t-11.5 -2.5l-13 -2t-9.5 -1q-12 0 -19 9t-14.5 21.5t-18 25.5t-30.5 20v-77
q-18 0 -31 4q-11 3 -20.5 9t-9.5 18v215z" />
    <glyph glyph-name="macron" unicode="&#xaf;" horiz-adv-x="454" 
d="M348 679q5 -22 2 -39q-2 -14 -12.5 -26t-34.5 -12h-262q-5 21 -1 38q2 14 12.5 26.5t34.5 12.5h261z" />
    <glyph glyph-name="degree" unicode="&#xb0;" horiz-adv-x="374" 
d="M246 643q0 22 -12 35t-48 13q-37 0 -47.5 -13t-10.5 -35v-54q0 -23 10.5 -35.5t47.5 -12.5q36 0 48 12.5t12 35.5v54zM329 566q0 -45 -38.5 -68t-104.5 -23q-64 0 -102.5 23t-38.5 68v99q0 42 38.5 67t102.5 25q66 0 104.5 -25t38.5 -67v-99z" />
    <glyph glyph-name="plusminus" unicode="&#xb1;" horiz-adv-x="509" 
d="M428 109q0 -3 1 -7q0 -4 0.5 -8.5t0.5 -9.5q0 -9 -1.5 -19t-7 -18.5t-15 -14t-24.5 -5.5h-296q-1 3 -2 7q-1 5 -1 19q0 9 2 19t7 18t14.5 13.5t24.5 5.5h297zM204 271h-136q-1 3 -1 7q-1 5 -1 19q0 9 1.5 20t7 20t15 15t24.5 6h90v123q5 0 10 1t11 1.5t14 0.5
q10 0 21 -1.5t20 -6.5t15 -13.5t6 -22.5v-82h140q0 -4 1 -8q0 -4 0.5 -9t0.5 -10q0 -9 -1.5 -19.5t-7 -19.5t-15 -15t-24.5 -6h-94v-112l-10 -2t-11 -1h-13q-11 0 -22 1.5t-20 6.5t-15 13t-6 22v72z" />
    <glyph glyph-name="twosuperior" unicode="&#xb2;" horiz-adv-x="388" 
d="M55 394q0 32 13.5 52.5t34.5 35t44.5 25t44.5 21.5t34.5 24.5t13.5 34.5v7q0 23 -14.5 35.5t-45.5 12.5q-14 0 -28.5 -3t-27 -10.5t-21.5 -21.5t-12 -35q-20 20 -25.5 34.5t-5.5 26.5q0 17 10.5 30t27.5 22t40 13.5t49 4.5q58 0 95.5 -27t37.5 -73v-19q0 -26 -10.5 -45
t-26.5 -33.5t-35.5 -25.5t-38.5 -19l-7 -3q-26 -13 -46.5 -25t-22.5 -32h125q47 0 70 11q-1 -21 -6 -37q-5 -14 -13.5 -25t-25.5 -11h-228v55z" />
    <glyph glyph-name="threesuperior" unicode="&#xb3;" horiz-adv-x="381" 
d="M186 648q-15 0 -30.5 -2.5t-29 -9.5t-23 -20t-13.5 -35q-18 17 -24 32t-6 27q0 17 10.5 30t28 22t40.5 13.5t47 4.5q58 0 95 -26.5t37 -72.5v-13q0 -20 -7 -38.5t-29 -28.5q22 -11 31.5 -32.5t9.5 -42.5v-14q0 -45 -37.5 -73.5t-99.5 -28.5q-26 0 -49 5t-40 14t-27 22.5
t-10 30.5q0 11 4.5 24.5t20.5 31.5q9 -41 38 -53t63 -12q30 0 44.5 13t14.5 33t-6.5 29.5t-16 14t-20.5 6t-20 5.5t-14 13.5t-3 29.5l1 10h24q28 0 39 12.5t11 33.5q0 20 -14 32.5t-40 12.5z" />
    <glyph glyph-name="acute" unicode="&#xb4;" horiz-adv-x="489" 
d="M234 772q39 -9 57 -26.5t19 -38.5t-13.5 -44t-40.5 -44l-60 -47q-18 4 -31 9q-12 5 -21.5 11.5t-9.5 16.5q0 5 5 12t12 14.5t15 15.5l14 14q29 29 44.5 48t15.5 36q0 13 -6 23z" />
    <glyph glyph-name="mu" unicode="&#xb5;" horiz-adv-x="556" 
d="M170 160q0 -43 24 -66.5t84 -23.5q23 0 43 2.5t34 5.5q17 4 31 9v427q29 -1 52 -7q20 -5 36.5 -17t16.5 -33v-466q-9 5 -30 11.5t-48 6.5q-36 0 -71.5 -10.5t-77.5 -10.5q-25 0 -51 3.5t-48 14.5q0 -3 2.5 -21.5t2.5 -34.5v-195q-30 1 -53 7q-20 5 -36 16.5t-16 33.5v702
q29 -2 52 -8q20 -5 36.5 -16.5t16.5 -32.5v-297z" />
    <glyph glyph-name="mu" unicode="&#x3bc;" horiz-adv-x="556" 
d="M170 160q0 -43 24 -66.5t84 -23.5q23 0 43 2.5t34 5.5q17 4 31 9v427q29 -1 52 -7q20 -5 36.5 -17t16.5 -33v-466q-9 5 -30 11.5t-48 6.5q-36 0 -71.5 -10.5t-77.5 -10.5q-25 0 -51 3.5t-48 14.5q0 -3 2.5 -21.5t2.5 -34.5v-195q-30 1 -53 7q-20 5 -36 16.5t-16 33.5v702
q29 -2 52 -8q20 -5 36.5 -16.5t16.5 -32.5v-297z" />
    <glyph glyph-name="paragraph" unicode="&#xb6;" horiz-adv-x="600" 
d="M528 3q0 -36 0.5 -72.5t-8 -66.5t-31 -51t-68.5 -28q7 6 12 24q5 15 8.5 44t3.5 79v659q23 -10 41 -24q16 -12 29 -29.5t13 -41.5v-493zM384 625q1 -6 2 -13t1.5 -16t0.5 -22v-666q0 -65 -25 -107t-70 -42q-18 0 -37.5 8t-39.5 26q23 2 38 17t23.5 37t12 47t3.5 46v192
q0 11 0.5 20t1.5 15q1 7 2 13q-8 -4 -22 -7t-34 -3q-39 0 -74.5 12t-63 34t-43.5 52.5t-16 68.5v200q0 78 53.5 124t155.5 46h119h35t43.5 2t45 6.5t40 12.5t28.5 21.5t11 32.5q17 -20 25.5 -38.5t8.5 -35.5q0 -39 -41.5 -61t-111.5 -22h-72z" />
    <glyph glyph-name="periodcentered" unicode="&#xb7;" horiz-adv-x="207" 
d="M52 326h75q11 0 19.5 -7.5t8.5 -17.5v-82h-74q-12 0 -20.5 7.5t-8.5 17.5v82z" />
    <glyph glyph-name="cedilla" unicode="&#xb8;" horiz-adv-x="833" 
d="M222 -87q8 29 18.5 58.5t20.5 57.5q7 0 15.5 -1.5t16 -5.5t12.5 -11t5 -17v-3q-2 -9 -3.5 -18.5t-3.5 -19.5h6q45 0 74.5 -25.5t29.5 -70.5q0 -23 -9.5 -40.5t-25 -29.5t-35.5 -18t-41 -6q-23 0 -39 7t-26.5 17.5t-15 22.5t-4.5 21q8 -4 23.5 -8t34.5 -4q21 0 39 9.5
t18 32.5q0 24 -20 32.5t-41 8.5q-10 0 -19.5 -2t-17.5 -4q-10 -3 -18 -5z" />
    <glyph glyph-name="onesuperior" unicode="&#xb9;" horiz-adv-x="321" 
d="M112 706q17 0 35 1t32 3q17 2 31 4q-1 -12 -2 -23t-1.5 -23t-0.5 -26v-234h70q2 -6 3 -11.5t1 -11.5q0 -15 -8 -26.5t-28 -11.5h-194q-1 2 -2 6t-1 14q0 13 7 27t32 14h40v235q-22 1 -37.5 -8t-17.5 -37q-10 8 -18 17q-7 8 -12.5 18t-5.5 23q0 23 19.5 36.5t57.5 13.5z
" />
    <glyph glyph-name="ordmasculine" unicode="&#xba;" horiz-adv-x="489" 
d="M327 578q0 17 -3 30.5t-12 23t-25.5 14.5t-42.5 5t-42 -5t-25 -14.5t-12.5 -23t-3.5 -30.5v-121q0 -17 3.5 -30.5t12.5 -23t25 -14.5t42 -5t42.5 5t25.5 14.5t12 23t3 30.5v121zM424 446q0 -60 -44 -94t-136 -34t-135.5 34t-43.5 94v143q0 60 43.5 94t135.5 34t136 -34
t44 -94v-143z" />
    <glyph glyph-name="guillemotright" unicode="&#xbb;" horiz-adv-x="651" 
d="M494 252q-41 42 -81 82.5t-82 81.5q-14 14 -14 30q0 10 6 19.5t14 17.5t16.5 14t13.5 9l201 -201q27 -27 27 -53t-26 -52l-169 -169q-13 -13 -30 -13q-20 0 -37.5 14t-27.5 31zM264 252q-41 42 -81 82.5t-82 81.5q-14 14 -14 30q0 10 6 19.5t14 17.5t16.5 14t13.5 9
l201 -201q27 -27 27 -53t-26 -52l-169 -169q-13 -13 -30 -13q-20 0 -37.5 14t-27.5 31z" />
    <glyph glyph-name="onequarter" unicode="&#xbc;" horiz-adv-x="695" 
d="M112 706q17 0 35 1t32 3q17 2 31 4q-1 -12 -2 -23t-1.5 -23t-0.5 -26v-234h70q2 -6 3 -11.5t1 -11.5q0 -15 -8 -26.5t-28 -11.5h-194q-1 2 -2 6t-1 14q0 13 7 27t32 14h40v235q-22 1 -37.5 -8t-17.5 -37q-10 8 -18 17q-7 8 -12.5 18t-5.5 23q0 23 19.5 36.5t57.5 13.5z
M530 557q7 -7 19 -22.5t12 -32.5q0 -14 -11 -25l-354 -354q-7 7 -19 22t-12 33q0 14 12 26zM550 279q-12 -12 -24.5 -27.5t-24.5 -32.5t-22 -34t-17 -32h88v126zM379 96q1 23 13.5 52t30.5 58.5t39 58t40 51.5t33 38.5t18 18.5q21 -2 38 -6q14 -4 26 -11t12 -18v-185h40
q0 -1 -0.5 -10t-4.5 -19.5t-11.5 -19t-20.5 -8.5h-3v-97q-2 0 -14.5 0.5t-26.5 4t-26 10t-12 18.5v64h-171z" />
    <glyph glyph-name="onehalf" unicode="&#xbd;" horiz-adv-x="760" 
d="M452 47q0 32 13.5 52.5t34.5 35t44.5 25t44.5 21.5t34.5 24.5t13.5 34.5v7q0 23 -14.5 35.5t-45.5 12.5q-14 0 -28.5 -3t-27 -10.5t-21.5 -21.5t-12 -35q-20 20 -25.5 34.5t-5.5 26.5q0 17 10.5 30t27.5 22t40 13.5t49 4.5q58 0 95.5 -27t37.5 -73v-19q0 -26 -10.5 -45
t-26.5 -33.5t-35.5 -25.5t-38.5 -19l-7 -3q-26 -13 -46.5 -25t-22.5 -32h125q47 0 70 11q-1 -21 -6 -37q-5 -14 -13.5 -25t-25.5 -11h-228v55zM112 706q17 0 35 1t32 3q17 2 31 4q-1 -12 -2 -23t-1.5 -23t-0.5 -26v-234h70q2 -6 3 -11.5t1 -11.5q0 -15 -8 -26.5t-28 -11.5
h-194q-1 2 -2 6t-1 14q0 13 7 27t32 14h40v235q-22 1 -37.5 -8t-17.5 -37q-10 8 -18 17q-7 8 -12.5 18t-5.5 23q0 23 19.5 36.5t57.5 13.5zM530 557q7 -7 19 -22.5t12 -32.5q0 -14 -11 -25l-354 -354q-7 7 -19 22t-12 33q0 14 12 26z" />
    <glyph glyph-name="threequarters" unicode="&#xbe;" horiz-adv-x="706" 
d="M186 648q-15 0 -30.5 -2.5t-29 -9.5t-23 -20t-13.5 -35q-18 17 -24 32t-6 27q0 17 10.5 30t28 22t40.5 13.5t47 4.5q58 0 95 -26.5t37 -72.5v-13q0 -20 -7 -38.5t-29 -28.5q22 -11 31.5 -32.5t9.5 -42.5v-14q0 -45 -37.5 -73.5t-99.5 -28.5q-26 0 -49 5t-40 14t-27 22.5
t-10 30.5q0 11 4.5 24.5t20.5 31.5q9 -41 38 -53t63 -12q30 0 44.5 13t14.5 33t-6.5 29.5t-16 14t-20.5 6t-20 5.5t-14 13.5t-3 29.5l1 10h24q28 0 39 12.5t11 33.5q0 20 -14 32.5t-40 12.5zM551 557q7 -7 19 -22.5t12 -32.5q0 -14 -11 -25l-354 -354q-7 7 -19 22t-12 33
q0 14 12 26zM559 279q-12 -12 -24.5 -27.5t-24.5 -32.5t-22 -34t-17 -32h88v126zM388 96q1 23 13.5 52t30.5 58.5t39 58t40 51.5t33 38.5t18 18.5q21 -2 38 -6q14 -4 26 -11t12 -18v-185h40q0 -1 -0.5 -10t-4.5 -19.5t-11.5 -19t-20.5 -8.5h-3v-97q-2 0 -14.5 0.5t-26.5 4
t-26 10t-12 18.5v64h-171z" />
    <glyph glyph-name="questiondown" unicode="&#xbf;" horiz-adv-x="542" 
d="M366 615h-72q-11 0 -19.5 7.5t-8.5 16.5v80h72q10 0 19 -6.5t9 -17.5v-80zM284 89q32 0 60 6t48.5 19t32.5 33t12 48q40 -46 40 -86q0 -24 -14 -44.5t-39 -34.5t-61 -22t-79 -8q-54 0 -100 11.5t-79 34t-51.5 55.5t-18.5 77v25q0 42 17 71.5t42.5 52t55.5 41t55.5 37
t42.5 41t17 53.5v48q28 -1 50 -8q19 -6 35 -18t16 -35v-18q0 -33 -16.5 -57.5t-41 -44.5t-53.5 -37t-53.5 -36.5t-41 -42.5t-16.5 -54q0 -49 34 -78t106 -29z" />
    <glyph glyph-name="Agrave" unicode="&#xc0;" horiz-adv-x="654" 
d="M327 589q-7 -9 -29.5 -53.5t-47.5 -127.5l-33 -111h220l-33 111q-13 42 -26.5 75t-24.5 57q-13 27 -26 49zM327 727q2 -2 21.5 -18.5t46.5 -51t57.5 -89.5t55.5 -134q20 -66 41 -130.5t42 -130.5q19 -60 34 -106t29 -67q-6 -2 -13 -4q-12 -3 -28 -3q-32 0 -53.5 14.5
t-36.5 37.5t-24.5 51.5t-18.5 56.5l-18 59h-270l-18 -59q-9 -28 -18.5 -56.5t-24.5 -51.5t-36.5 -37.5t-53.5 -14.5q-16 0 -28 3q-7 2 -13 4q14 21 29 67t34 106q21 66 41.5 130.5t41.5 130.5q25 79 55.5 134t57.5 89.5t46 51t22 18.5zM285 956q-6 -10 -6 -23
q0 -17 15.5 -36t44.5 -48l14 -14t15 -15.5t12 -14.5t5 -12q0 -10 -10 -16.5t-21 -11.5q-14 -5 -31 -9l-60 47q-26 21 -40.5 44t-13.5 44t19 38.5t57 26.5z" />
    <glyph glyph-name="Aacute" unicode="&#xc1;" horiz-adv-x="654" 
d="M368 956q39 -9 57 -26.5t19 -38.5t-13.5 -44t-40.5 -44l-60 -47q-18 4 -31 9q-12 5 -21.5 11.5t-9.5 16.5q0 5 5 12t12 14.5t15 15.5l14 14q29 29 44.5 48t15.5 36q0 13 -6 23zM327 589q-7 -9 -29.5 -53.5t-47.5 -127.5l-33 -111h220l-33 111q-13 42 -26.5 75t-24.5 57
q-13 27 -26 49zM327 727q2 -2 21.5 -18.5t46.5 -51t57.5 -89.5t55.5 -134q20 -66 41 -130.5t42 -130.5q19 -60 34 -106t29 -67q-6 -2 -13 -4q-12 -3 -28 -3q-32 0 -53.5 14.5t-36.5 37.5t-24.5 51.5t-18.5 56.5l-18 59h-270l-18 -59q-9 -28 -18.5 -56.5t-24.5 -51.5
t-36.5 -37.5t-53.5 -14.5q-16 0 -28 3q-7 2 -13 4q14 21 29 67t34 106q21 66 41.5 130.5t41.5 130.5q25 79 55.5 134t57.5 89.5t46 51t22 18.5z" />
    <glyph glyph-name="Acircumflex" unicode="&#xc2;" horiz-adv-x="654" 
d="M327 589q-7 -9 -29.5 -53.5t-47.5 -127.5l-33 -111h220l-33 111q-13 42 -26.5 75t-24.5 57q-13 27 -26 49zM327 727q2 -2 21.5 -18.5t46.5 -51t57.5 -89.5t55.5 -134q20 -66 41 -130.5t42 -130.5q19 -60 34 -106t29 -67q-6 -2 -13 -4q-12 -3 -28 -3q-32 0 -53.5 14.5
t-36.5 37.5t-24.5 51.5t-18.5 56.5l-18 59h-270l-18 -59q-9 -28 -18.5 -56.5t-24.5 -51.5t-36.5 -37.5t-53.5 -14.5q-16 0 -28 3q-7 2 -13 4q14 21 29 67t34 106q21 66 41.5 130.5t41.5 130.5q25 79 55.5 134t57.5 89.5t46 51t22 18.5zM325 875q-8 -8 -20 -19t-23.5 -24.5
t-20 -27.5t-8.5 -28q0 -8 5 -18q-30 11 -50 27.5t-20 37.5q0 25 37 58t100 75q63 -42 100 -75t37 -58q0 -21 -20 -37.5t-50 -27.5q5 10 5 18q0 14 -8.5 28t-20 27.5t-23.5 24.5t-20 19z" />
    <glyph glyph-name="Atilde" unicode="&#xc3;" horiz-adv-x="654" 
d="M187 785q-7 17 -7 37q0 28 15 47.5t48 19.5q20 0 41 -7t43 -15.5t44 -15.5t44 -7q19 0 29.5 5.5t20.5 19.5q4 -10 6 -19.5t2 -20.5q0 -26 -14 -45t-49 -19q-21 0 -42 7t-43 15.5t-44 15.5t-44 7q-20 0 -30 -6t-20 -19zM327 589q-7 -9 -29.5 -53.5t-47.5 -127.5l-33 -111
h220l-33 111q-13 42 -26.5 75t-24.5 57q-13 27 -26 49zM327 727q2 -2 21.5 -18.5t46.5 -51t57.5 -89.5t55.5 -134q20 -66 41 -130.5t42 -130.5q19 -60 34 -106t29 -67q-6 -2 -13 -4q-12 -3 -28 -3q-32 0 -53.5 14.5t-36.5 37.5t-24.5 51.5t-18.5 56.5l-18 59h-270l-18 -59
q-9 -28 -18.5 -56.5t-24.5 -51.5t-36.5 -37.5t-53.5 -14.5q-16 0 -28 3q-7 2 -13 4q14 21 29 67t34 106q21 66 41.5 130.5t41.5 130.5q25 79 55.5 134t57.5 89.5t46 51t22 18.5z" />
    <glyph glyph-name="Adieresis" unicode="&#xc4;" horiz-adv-x="654" 
d="M327 589q-7 -9 -29.5 -53.5t-47.5 -127.5l-33 -111h220l-33 111q-13 42 -26.5 75t-24.5 57q-13 27 -26 49zM327 727q2 -2 21.5 -18.5t46.5 -51t57.5 -89.5t55.5 -134q20 -66 41 -130.5t42 -130.5q19 -60 34 -106t29 -67q-6 -2 -13 -4q-12 -3 -28 -3q-32 0 -53.5 14.5
t-36.5 37.5t-24.5 51.5t-18.5 56.5l-18 59h-270l-18 -59q-9 -28 -18.5 -56.5t-24.5 -51.5t-36.5 -37.5t-53.5 -14.5q-16 0 -28 3q-7 2 -13 4q14 21 29 67t34 106q21 66 41.5 130.5t41.5 130.5q25 79 55.5 134t57.5 89.5t46 51t22 18.5zM359 883h74q12 0 19.5 -8.5t7.5 -16.5
v-76h-72q-13 0 -21 7.5t-8 17.5v76zM194 883h74q12 0 19.5 -8.5t7.5 -16.5v-76h-72q-13 0 -21 7.5t-8 17.5v76z" />
    <glyph glyph-name="Aring" unicode="&#xc5;" horiz-adv-x="654" 
d="M367 876q0 14 -8 22t-33 8q-26 0 -32.5 -8t-6.5 -22v-32q0 -14 6.5 -22t32.5 -8q25 0 33 8t8 22v32zM419 831q0 -29 -25 -44.5t-67 -15.5t-67.5 15.5t-25.5 44.5v58q0 28 25.5 44t67.5 16t67 -16t25 -44v-58zM327 589q-7 -9 -29.5 -53.5t-47.5 -127.5l-33 -111h220
l-33 111q-13 42 -26.5 75t-24.5 57q-13 27 -26 49zM327 727q2 -2 21.5 -18.5t46.5 -51t57.5 -89.5t55.5 -134q20 -66 41 -130.5t42 -130.5q19 -60 34 -106t29 -67q-6 -2 -13 -4q-12 -3 -28 -3q-32 0 -53.5 14.5t-36.5 37.5t-24.5 51.5t-18.5 56.5l-18 59h-270l-18 -59
q-9 -28 -18.5 -56.5t-24.5 -51.5t-36.5 -37.5t-53.5 -14.5q-16 0 -28 3q-7 2 -13 4q14 21 29 67t34 106q21 66 41.5 130.5t41.5 130.5q25 79 55.5 134t57.5 89.5t46 51t22 18.5z" />
    <glyph glyph-name="AE" unicode="&#xc6;" horiz-adv-x="820" 
d="M215 299h149v322q-67 -49 -116 -212zM473 340v-257h307q0 -2 -1 -15t-7 -28t-18.5 -27.5t-35.5 -12.5h-257q-12 0 -28.5 2.5t-31.5 9t-26 17.5t-11 28v158h-174q-8 -27 -17 -65t-24.5 -73t-41 -59.5t-66.5 -24.5q-16 0 -28 3q-7 2 -13 4q6 11 13.5 30.5t15.5 43.5l17 51
l18 54l81 260q18 57 40 101.5t46 77.5t47.5 55t43.5 34h458q-1 -24 -8 -42q-6 -16 -18.5 -28.5t-35.5 -12.5h-245v-200h169q29 0 48 2.5t30 5.5q13 4 21 8q0 -15 -3 -32.5t-11.5 -32.5t-25 -25t-43.5 -10h-185z" />
    <glyph glyph-name="Ccedilla" unicode="&#xc7;" horiz-adv-x="680" 
d="M289 -87q5 20 11.5 39t13.5 38q-51 4 -96.5 18.5t-79 43t-53.5 71.5t-20 103v255q0 66 23.5 111.5t63 73.5t92 40.5t109.5 12.5q51 0 99 -7.5t85.5 -24t60.5 -43t23 -64.5q0 -32 -23 -71q-5 33 -28.5 56t-58.5 37.5t-76.5 21t-81.5 6.5q-39 0 -72 -8t-57 -27t-37 -50.5
t-13 -77.5v-226q0 -47 13 -78t37 -50.5t57 -27.5t72 -8q40 0 81 5.5t75.5 19.5t58.5 37t30 59q14 -23 19.5 -43t5.5 -37q0 -35 -21.5 -59t-56.5 -39t-79.5 -23t-89.5 -9q-2 -8 -3 -17t-3 -18h6q45 0 74.5 -25.5t29.5 -70.5q0 -23 -9.5 -40.5t-25 -29.5t-35.5 -18t-41 -6
q-23 0 -39 7t-26.5 17.5t-15 22.5t-4.5 21q8 -4 23.5 -8t34.5 -4q21 0 39 9.5t18 32.5q0 24 -20 32.5t-41 8.5q-10 0 -19.5 -2t-17.5 -4q-10 -3 -18 -5z" />
    <glyph glyph-name="Egrave" unicode="&#xc8;" horiz-adv-x="581" 
d="M184 339v-255h357q0 -2 -1.5 -15.5t-7.5 -28.5t-18.5 -27.5t-35.5 -12.5h-307q-27 1 -48 7q-18 5 -33 16.5t-15 33.5v650h466q-1 -24 -8 -42q-6 -16 -19 -29t-36 -13h-294v-200h218q29 0 48 2.5t30 5.5q13 4 21 8q0 -15 -3 -32.5t-11.5 -32.5t-25 -25t-43.5 -10h-234z
M266 956q-6 -10 -6 -23q0 -17 15.5 -36t44.5 -48l14 -14t15 -15.5t12 -14.5t5 -12q0 -10 -10 -16.5t-21 -11.5q-14 -5 -31 -9l-60 47q-26 21 -40.5 44t-13.5 44t19 38.5t57 26.5z" />
    <glyph glyph-name="Eacute" unicode="&#xc9;" horiz-adv-x="581" 
d="M349 956q39 -9 57 -26.5t19 -38.5t-13.5 -44t-40.5 -44l-60 -47q-18 4 -31 9q-12 5 -21.5 11.5t-9.5 16.5q0 5 5 12t12 14.5t15 15.5l14 14q29 29 44.5 48t15.5 36q0 13 -6 23zM184 339v-255h357q0 -2 -1.5 -15.5t-7.5 -28.5t-18.5 -27.5t-35.5 -12.5h-307q-27 1 -48 7
q-18 5 -33 16.5t-15 33.5v650h466q-1 -24 -8 -42q-6 -16 -19 -29t-36 -13h-294v-200h218q29 0 48 2.5t30 5.5q13 4 21 8q0 -15 -3 -32.5t-11.5 -32.5t-25 -25t-43.5 -10h-234z" />
    <glyph glyph-name="Ecircumflex" unicode="&#xca;" horiz-adv-x="581" 
d="M184 339v-255h357q0 -2 -1.5 -15.5t-7.5 -28.5t-18.5 -27.5t-35.5 -12.5h-307q-27 1 -48 7q-18 5 -33 16.5t-15 33.5v650h466q-1 -24 -8 -42q-6 -16 -19 -29t-36 -13h-294v-200h218q29 0 48 2.5t30 5.5q13 4 21 8q0 -15 -3 -32.5t-11.5 -32.5t-25 -25t-43.5 -10h-234z
M306 875q-8 -8 -20 -19t-23.5 -24.5t-20 -27.5t-8.5 -28q0 -8 5 -18q-30 11 -50 27.5t-20 37.5q0 25 37 58t100 75q63 -42 100 -75t37 -58q0 -21 -20 -37.5t-50 -27.5q5 10 5 18q0 14 -8.5 28t-20 27.5t-23.5 24.5t-20 19z" />
    <glyph glyph-name="Edieresis" unicode="&#xcb;" horiz-adv-x="581" 
d="M340 883h74q12 0 19.5 -8.5t7.5 -16.5v-76h-72q-13 0 -21 7.5t-8 17.5v76zM175 883h74q12 0 19.5 -8.5t7.5 -16.5v-76h-72q-13 0 -21 7.5t-8 17.5v76zM184 339v-255h357q0 -2 -1.5 -15.5t-7.5 -28.5t-18.5 -27.5t-35.5 -12.5h-307q-27 1 -48 7q-18 5 -33 16.5t-15 33.5
v650h466q-1 -24 -8 -42q-6 -16 -19 -29t-36 -13h-294v-200h218q29 0 48 2.5t30 5.5q13 4 21 8q0 -15 -3 -32.5t-11.5 -32.5t-25 -25t-43.5 -10h-234z" />
    <glyph glyph-name="Igrave" unicode="&#xcc;" horiz-adv-x="259" 
d="M75 717q30 -1 54 -7q20 -5 37.5 -17t17.5 -33v-670q-31 1 -55 7q-20 5 -37 16.5t-17 33.5v670zM88 956q-6 -10 -6 -23q0 -17 15.5 -36t44.5 -48l14 -14t15 -15.5t12 -14.5t5 -12q0 -10 -10 -16.5t-21 -11.5q-14 -5 -31 -9l-60 47q-26 21 -40.5 44t-13.5 44t19 38.5
t57 26.5z" />
    <glyph glyph-name="Iacute" unicode="&#xcd;" horiz-adv-x="259" 
d="M170 956q39 -9 57 -26.5t19 -38.5t-13.5 -44t-40.5 -44l-60 -47q-18 4 -31 9q-12 5 -21.5 11.5t-9.5 16.5q0 5 5 12t12 14.5t15 15.5l14 14q29 29 44.5 48t15.5 36q0 13 -6 23zM75 717q30 -1 54 -7q20 -5 37.5 -17t17.5 -33v-670q-31 1 -55 7q-20 5 -37 16.5t-17 33.5
v670z" />
    <glyph glyph-name="Icircumflex" unicode="&#xce;" horiz-adv-x="259" 
d="M75 717q30 -1 54 -7q20 -5 37.5 -17t17.5 -33v-670q-31 1 -55 7q-20 5 -37 16.5t-17 33.5v670zM128 875q-8 -8 -20 -19t-23.5 -24.5t-20 -27.5t-8.5 -28q0 -8 5 -18q-30 11 -50 27.5t-20 37.5q0 25 37 58t100 75q63 -42 100 -75t37 -58q0 -21 -20 -37.5t-50 -27.5
q5 10 5 18q0 14 -8.5 28t-20 27.5t-23.5 24.5t-20 19z" />
    <glyph glyph-name="Idieresis" unicode="&#xcf;" horiz-adv-x="259" 
d="M161 883h74q12 0 19.5 -8.5t7.5 -16.5v-76h-72q-13 0 -21 7.5t-8 17.5v76zM-4 883h74q12 0 19.5 -8.5t7.5 -16.5v-76h-72q-13 0 -21 7.5t-8 17.5v76zM75 717q30 -1 54 -7q20 -5 37.5 -17t17.5 -33v-670q-31 1 -55 7q-20 5 -37 16.5t-17 33.5v670z" />
    <glyph glyph-name="Eth" unicode="&#xd0;" horiz-adv-x="716" 
d="M184 623v-228h184q-1 0 1 -7t2 -17q0 -9 -1.5 -19.5t-6.5 -19.5t-13.5 -15t-23.5 -6h-142v-227h168q40 0 74.5 8t60 27.5t40.5 50.5t15 78v212q0 46 -15 77.5t-40.5 50.5t-60 27t-74.5 8h-168zM75 395v312h277q58 0 112 -11t95.5 -38t66.5 -73t25 -116v-231
q0 -70 -25 -116t-66.5 -73t-95.5 -38t-112 -11h-183q-3 0 -18.5 1t-32 6.5t-30 17t-13.5 32.5v254h-64q0 2 -0.5 6.5t-0.5 18.5q0 8 1 18t5.5 19t13 15.5t23.5 6.5h22z" />
    <glyph glyph-name="Ntilde" unicode="&#xd1;" horiz-adv-x="721" 
d="M495 233l53 -84q-3 15 -6 32q-2 14 -3.5 30.5t-1.5 31.5v464q30 -1 54 -7q20 -5 37.5 -17t17.5 -33v-660q-49 0 -79.5 10.5t-48.5 23.5q-21 15 -31 34l-314 503q2 -15 5 -32q2 -14 4 -31.5t2 -34.5v-473q-31 1 -55 7q-20 5 -37 16.5t-17 33.5v660q25 0 48.5 -1t43.5 -6
t37 -15.5t29 -30.5zM219 785q-7 17 -7 37q0 28 15 47.5t48 19.5q20 0 41 -7t43 -15.5t44 -15.5t44 -7q19 0 29.5 5.5t20.5 19.5q4 -10 6 -19.5t2 -20.5q0 -26 -14 -45t-49 -19q-21 0 -42 7t-43 15.5t-44 15.5t-44 7q-20 0 -30 -6t-20 -19z" />
    <glyph glyph-name="Ograve" unicode="&#xd2;" 
d="M533 477q0 37 -7 66.5t-26.5 49.5t-55 31t-92.5 11q-56 0 -90.5 -11t-54 -31t-26.5 -49.5t-7 -66.5v-247q0 -37 7 -66.5t26.5 -49.5t54 -31t90.5 -11q57 0 92.5 11t55 31t26.5 49.5t7 66.5v247zM642 217q0 -107 -70.5 -168t-218.5 -61t-218 61t-70 168v273q0 107 70 168
t218 61t218.5 -61t70.5 -168v-273zM312 956q-6 -10 -6 -23q0 -17 15.5 -36t44.5 -48l14 -14t15 -15.5t12 -14.5t5 -12q0 -10 -10 -16.5t-21 -11.5q-14 -5 -31 -9l-60 47q-26 21 -40.5 44t-13.5 44t19 38.5t57 26.5z" />
    <glyph glyph-name="Oacute" unicode="&#xd3;" 
d="M395 956q39 -9 57 -26.5t19 -38.5t-13.5 -44t-40.5 -44l-60 -47q-18 4 -31 9q-12 5 -21.5 11.5t-9.5 16.5q0 5 5 12t12 14.5t15 15.5l14 14q29 29 44.5 48t15.5 36q0 13 -6 23zM533 477q0 37 -7 66.5t-26.5 49.5t-55 31t-92.5 11q-56 0 -90.5 -11t-54 -31t-26.5 -49.5
t-7 -66.5v-247q0 -37 7 -66.5t26.5 -49.5t54 -31t90.5 -11q57 0 92.5 11t55 31t26.5 49.5t7 66.5v247zM642 217q0 -107 -70.5 -168t-218.5 -61t-218 61t-70 168v273q0 107 70 168t218 61t218.5 -61t70.5 -168v-273z" />
    <glyph glyph-name="Ocircumflex" unicode="&#xd4;" 
d="M533 477q0 37 -7 66.5t-26.5 49.5t-55 31t-92.5 11q-56 0 -90.5 -11t-54 -31t-26.5 -49.5t-7 -66.5v-247q0 -37 7 -66.5t26.5 -49.5t54 -31t90.5 -11q57 0 92.5 11t55 31t26.5 49.5t7 66.5v247zM642 217q0 -107 -70.5 -168t-218.5 -61t-218 61t-70 168v273q0 107 70 168
t218 61t218.5 -61t70.5 -168v-273zM352 875q-8 -8 -20 -19t-23.5 -24.5t-20 -27.5t-8.5 -28q0 -8 5 -18q-30 11 -50 27.5t-20 37.5q0 25 37 58t100 75q63 -42 100 -75t37 -58q0 -21 -20 -37.5t-50 -27.5q5 10 5 18q0 14 -8.5 28t-20 27.5t-23.5 24.5t-20 19z" />
    <glyph glyph-name="Otilde" unicode="&#xd5;" 
d="M214 785q-7 17 -7 37q0 28 15 47.5t48 19.5q20 0 41 -7t43 -15.5t44 -15.5t44 -7q19 0 29.5 5.5t20.5 19.5q4 -10 6 -19.5t2 -20.5q0 -26 -14 -45t-49 -19q-21 0 -42 7t-43 15.5t-44 15.5t-44 7q-20 0 -30 -6t-20 -19zM533 477q0 37 -7 66.5t-26.5 49.5t-55 31t-92.5 11
q-56 0 -90.5 -11t-54 -31t-26.5 -49.5t-7 -66.5v-247q0 -37 7 -66.5t26.5 -49.5t54 -31t90.5 -11q57 0 92.5 11t55 31t26.5 49.5t7 66.5v247zM642 217q0 -107 -70.5 -168t-218.5 -61t-218 61t-70 168v273q0 107 70 168t218 61t218.5 -61t70.5 -168v-273z" />
    <glyph glyph-name="Odieresis" unicode="&#xd6;" 
d="M533 477q0 37 -7 66.5t-26.5 49.5t-55 31t-92.5 11q-56 0 -90.5 -11t-54 -31t-26.5 -49.5t-7 -66.5v-247q0 -37 7 -66.5t26.5 -49.5t54 -31t90.5 -11q57 0 92.5 11t55 31t26.5 49.5t7 66.5v247zM642 217q0 -107 -70.5 -168t-218.5 -61t-218 61t-70 168v273q0 107 70 168
t218 61t218.5 -61t70.5 -168v-273zM386 883h74q12 0 19.5 -8.5t7.5 -16.5v-76h-72q-13 0 -21 7.5t-8 17.5v76zM221 883h74q12 0 19.5 -8.5t7.5 -16.5v-76h-72q-13 0 -21 7.5t-8 17.5v76z" />
    <glyph glyph-name="multiply" unicode="&#xd7;" horiz-adv-x="464" 
d="M230 200l-99 -100q-22 15 -34 31q-11 14 -15 30.5t12 32.5l71 71l-100 98q14 22 30 34q14 11 31.5 13.5t35.5 -14.5l68 -66q6 6 20 20.5t30 30.5l30 30l19 19q21 -14 34 -30q11 -14 15 -30t-12 -32l-71 -72l104 -104q-15 -21 -32 -33q-14 -11 -32 -13.5t-35 14.5z" />
    <glyph glyph-name="Oslash" unicode="&#xd8;" 
d="M174 231v-18t2 -17l330 388q-18 25 -54.5 38t-99.5 13q-56 0 -90.5 -11t-54 -31t-26.5 -49.5t-7 -66.5v-246zM533 447q0 15 -1 30.5t-1 32.5q-84 -97 -165.5 -193.5t-165.5 -194.5q18 -24 54 -36.5t98 -12.5q57 0 92.5 11t55 31t26.5 49.5t7 66.5v216zM642 218
q0 -107 -70.5 -168t-218.5 -61q-74 0 -127.5 15.5t-88.5 44.5l-53 -61q-9 7 -15 15q-5 7 -9.5 16t-4.5 20q0 14 12 30t26 30q-15 25 -21.5 54.5t-6.5 64.5v272q0 107 70 168t218 61q74 0 127.5 -15.5t89.5 -44.5q14 15 26.5 30.5t25.5 30.5q8 -7 14 -15q5 -7 10 -16.5
t5 -20.5q0 -17 -12 -32l-25 -29q28 -51 28 -117v-272z" />
    <glyph glyph-name="Ugrave" unicode="&#xd9;" 
d="M642 205q0 -55 -23.5 -96t-63.5 -68t-92 -40.5t-110 -13.5q-57 0 -109.5 13.5t-92 40.5t-63 68t-23.5 96v511q30 -1 54 -7q20 -5 37.5 -17t17.5 -33v-439q0 -36 13 -63t37 -45t57 -27t72 -9q40 0 73 9t57 27t37 45t13 63v496q30 -1 54 -7q20 -5 37.5 -17t17.5 -33v-454z
M312 956q-6 -10 -6 -23q0 -17 15.5 -36t44.5 -48l14 -14t15 -15.5t12 -14.5t5 -12q0 -10 -10 -16.5t-21 -11.5q-14 -5 -31 -9l-60 47q-26 21 -40.5 44t-13.5 44t19 38.5t57 26.5z" />
    <glyph glyph-name="Uacute" unicode="&#xda;" 
d="M395 956q39 -9 57 -26.5t19 -38.5t-13.5 -44t-40.5 -44l-60 -47q-18 4 -31 9q-12 5 -21.5 11.5t-9.5 16.5q0 5 5 12t12 14.5t15 15.5l14 14q29 29 44.5 48t15.5 36q0 13 -6 23zM642 205q0 -55 -23.5 -96t-63.5 -68t-92 -40.5t-110 -13.5q-57 0 -109.5 13.5t-92 40.5
t-63 68t-23.5 96v511q30 -1 54 -7q20 -5 37.5 -17t17.5 -33v-439q0 -36 13 -63t37 -45t57 -27t72 -9q40 0 73 9t57 27t37 45t13 63v496q30 -1 54 -7q20 -5 37.5 -17t17.5 -33v-454z" />
    <glyph glyph-name="Ucircumflex" unicode="&#xdb;" 
d="M642 205q0 -55 -23.5 -96t-63.5 -68t-92 -40.5t-110 -13.5q-57 0 -109.5 13.5t-92 40.5t-63 68t-23.5 96v511q30 -1 54 -7q20 -5 37.5 -17t17.5 -33v-439q0 -36 13 -63t37 -45t57 -27t72 -9q40 0 73 9t57 27t37 45t13 63v496q30 -1 54 -7q20 -5 37.5 -17t17.5 -33v-454z
M352 875q-8 -8 -20 -19t-23.5 -24.5t-20 -27.5t-8.5 -28q0 -8 5 -18q-30 11 -50 27.5t-20 37.5q0 25 37 58t100 75q63 -42 100 -75t37 -58q0 -21 -20 -37.5t-50 -27.5q5 10 5 18q0 14 -8.5 28t-20 27.5t-23.5 24.5t-20 19z" />
    <glyph glyph-name="Udieresis" unicode="&#xdc;" 
d="M386 883h74q12 0 19.5 -8.5t7.5 -16.5v-76h-72q-13 0 -21 7.5t-8 17.5v76zM221 883h74q12 0 19.5 -8.5t7.5 -16.5v-76h-72q-13 0 -21 7.5t-8 17.5v76zM642 205q0 -55 -23.5 -96t-63.5 -68t-92 -40.5t-110 -13.5q-57 0 -109.5 13.5t-92 40.5t-63 68t-23.5 96v511
q30 -1 54 -7q20 -5 37.5 -17t17.5 -33v-439q0 -36 13 -63t37 -45t57 -27t72 -9q40 0 73 9t57 27t37 45t13 63v496q30 -1 54 -7q20 -5 37.5 -17t17.5 -33v-454z" />
    <glyph glyph-name="Yacute" unicode="&#xdd;" horiz-adv-x="592" 
d="M241 299q-44 42 -77 96t-60.5 109.5t-51.5 108.5t-50 94q7 1 15 3q7 1 14.5 2t15.5 1q23 0 52.5 -11t49.5 -50q30 -62 51.5 -106t38 -74.5t29.5 -51.5t28 -36q18 21 35 49t33.5 60t32.5 66t32 67q13 27 27 43.5t29 26.5t30.5 13.5t29.5 3.5q7 0 15 -1t15 -2q8 -2 15 -3
q-25 -40 -49.5 -93t-52.5 -109.5t-61.5 -110t-76.5 -95.5v-309q-31 1 -55 7q-20 5 -37 17t-17 34v251zM336 956q39 -9 57 -26.5t19 -38.5t-13.5 -44t-40.5 -44l-60 -47q-18 4 -31 9q-12 5 -21.5 11.5t-9.5 16.5q0 5 5 12t12 14.5t15 15.5l14 14q29 29 44.5 48t15.5 36
q0 13 -6 23z" />
    <glyph glyph-name="Thorn" unicode="&#xde;" horiz-adv-x="596" 
d="M184 548v-306h79q40 0 73 5t57 21.5t37 47t13 80.5q0 48 -13 78t-37 46.5t-57 22t-73 5.5h-79zM75 757q30 -1 54 -7q20 -5 37.5 -17t17.5 -34v-67h79q58 0 110 -10t92 -35.5t63.5 -69.5t23.5 -112v-18q0 -67 -23.5 -111t-63.5 -70.5t-92 -37t-110 -10.5h-79v-168
q-31 1 -55 7q-20 5 -37 16.5t-17 33.5v710z" />
    <glyph glyph-name="germandbls" unicode="&#xdf;" horiz-adv-x="652" 
d="M315 675q-69 0 -107 -36.5t-38 -99.5v-549q-30 1 -53 7q-20 5 -36 16.5t-16 33.5v512q0 46 21.5 83t57 62.5t79.5 39t89 13.5q48 0 90.5 -8.5t74 -26.5t50 -47t18.5 -70q0 -31 -12.5 -54t-31 -42t-40 -34t-40 -30t-31 -31t-12.5 -36q0 -26 18.5 -37.5t46 -18.5t60 -14.5
t60 -24.5t46 -48.5t18.5 -86.5q0 -72 -54.5 -115t-164.5 -43q-33 0 -64 7.5t-55 21.5t-38.5 35.5t-14.5 49.5q0 35 34 75q0 -26 11 -45t30 -32.5t44 -20t53 -6.5q35 0 57 6t35 16.5t17.5 24.5t4.5 31q0 31 -18 47.5t-45.5 26t-59 17.5t-59 21.5t-45.5 38t-18 67.5
q0 28 12 51t30.5 42.5t39.5 36.5t39.5 32t30.5 29.5t12 28.5q0 22 -10 38t-27 26.5t-40 15t-49 4.5z" />
    <glyph glyph-name="agrave" unicode="&#xe0;" horiz-adv-x="521" 
d="M46 140q0 47 20.5 76t52 46t69 26t72 17t61 19.5t36.5 33.5q0 16 -4.5 30.5t-16.5 25t-32.5 16.5t-52.5 6q-33 0 -62 -6.5t-50.5 -20t-33.5 -34t-12 -49.5q-18 25 -25.5 46t-7.5 39q0 29 17.5 49.5t45 33.5t61.5 19t67 6q103 0 157 -43.5t54 -122.5v-361q-19 8 -37 11
t-35 3q-36 0 -72 -9t-78 -9q-36 0 -71 7.5t-62.5 25.5t-44 47t-16.5 72zM360 268q-5 -15 -22.5 -23t-41 -13.5t-49.5 -11t-47.5 -14.5t-35.5 -24.5t-14 -41.5q0 -33 25.5 -54t79.5 -21q23 0 42.5 3t33.5 8q16 5 29 12v180zM214 772q-6 -10 -6 -23q0 -17 15.5 -36t44.5 -48
l14 -14t15 -15.5t12 -14.5t5 -12q0 -10 -10 -16.5t-21 -11.5q-14 -5 -31 -9l-60 47q-26 21 -40.5 44t-13.5 44t19 38.5t57 26.5z" />
    <glyph glyph-name="aacute" unicode="&#xe1;" horiz-adv-x="521" 
d="M296 772q39 -9 57 -26.5t19 -38.5t-13.5 -44t-40.5 -44l-60 -47q-18 4 -31 9q-12 5 -21.5 11.5t-9.5 16.5q0 5 5 12t12 14.5t15 15.5l14 14q29 29 44.5 48t15.5 36q0 13 -6 23zM46 140q0 47 20.5 76t52 46t69 26t72 17t61 19.5t36.5 33.5q0 16 -4.5 30.5t-16.5 25
t-32.5 16.5t-52.5 6q-33 0 -62 -6.5t-50.5 -20t-33.5 -34t-12 -49.5q-18 25 -25.5 46t-7.5 39q0 29 17.5 49.5t45 33.5t61.5 19t67 6q103 0 157 -43.5t54 -122.5v-361q-19 8 -37 11t-35 3q-36 0 -72 -9t-78 -9q-36 0 -71 7.5t-62.5 25.5t-44 47t-16.5 72zM360 268
q-5 -15 -22.5 -23t-41 -13.5t-49.5 -11t-47.5 -14.5t-35.5 -24.5t-14 -41.5q0 -33 25.5 -54t79.5 -21q23 0 42.5 3t33.5 8q16 5 29 12v180z" />
    <glyph glyph-name="acircumflex" unicode="&#xe2;" horiz-adv-x="521" 
d="M46 140q0 47 20.5 76t52 46t69 26t72 17t61 19.5t36.5 33.5q0 16 -4.5 30.5t-16.5 25t-32.5 16.5t-52.5 6q-33 0 -62 -6.5t-50.5 -20t-33.5 -34t-12 -49.5q-18 25 -25.5 46t-7.5 39q0 29 17.5 49.5t45 33.5t61.5 19t67 6q103 0 157 -43.5t54 -122.5v-361q-19 8 -37 11
t-35 3q-36 0 -72 -9t-78 -9q-36 0 -71 7.5t-62.5 25.5t-44 47t-16.5 72zM360 268q-5 -15 -22.5 -23t-41 -13.5t-49.5 -11t-47.5 -14.5t-35.5 -24.5t-14 -41.5q0 -33 25.5 -54t79.5 -21q23 0 42.5 3t33.5 8q16 5 29 12v180zM254 691q-8 -8 -20 -19t-23.5 -24.5t-20 -27.5
t-8.5 -28q0 -8 5 -18q-30 11 -50 27.5t-20 37.5q0 25 37 58t100 75q63 -42 100 -75t37 -58q0 -21 -20 -37.5t-50 -27.5q5 10 5 18q0 14 -8.5 28t-20 27.5t-23.5 24.5t-20 19z" />
    <glyph glyph-name="atilde" unicode="&#xe3;" horiz-adv-x="521" 
d="M115 601q-7 17 -7 37q0 28 15 47.5t48 19.5q20 0 41 -7t43 -15.5t44 -15.5t44 -7q19 0 29.5 5.5t20.5 19.5q4 -10 6 -19.5t2 -20.5q0 -26 -14 -45t-49 -19q-21 0 -42 7t-43 15.5t-44 15.5t-44 7q-20 0 -30 -6t-20 -19zM46 140q0 47 20.5 76t52 46t69 26t72 17t61 19.5
t36.5 33.5q0 16 -4.5 30.5t-16.5 25t-32.5 16.5t-52.5 6q-33 0 -62 -6.5t-50.5 -20t-33.5 -34t-12 -49.5q-18 25 -25.5 46t-7.5 39q0 29 17.5 49.5t45 33.5t61.5 19t67 6q103 0 157 -43.5t54 -122.5v-361q-19 8 -37 11t-35 3q-36 0 -72 -9t-78 -9q-36 0 -71 7.5t-62.5 25.5
t-44 47t-16.5 72zM360 268q-5 -15 -22.5 -23t-41 -13.5t-49.5 -11t-47.5 -14.5t-35.5 -24.5t-14 -41.5q0 -33 25.5 -54t79.5 -21q23 0 42.5 3t33.5 8q16 5 29 12v180z" />
    <glyph glyph-name="adieresis" unicode="&#xe4;" horiz-adv-x="521" 
d="M46 140q0 47 20.5 76t52 46t69 26t72 17t61 19.5t36.5 33.5q0 16 -4.5 30.5t-16.5 25t-32.5 16.5t-52.5 6q-33 0 -62 -6.5t-50.5 -20t-33.5 -34t-12 -49.5q-18 25 -25.5 46t-7.5 39q0 29 17.5 49.5t45 33.5t61.5 19t67 6q103 0 157 -43.5t54 -122.5v-361q-19 8 -37 11
t-35 3q-36 0 -72 -9t-78 -9q-36 0 -71 7.5t-62.5 25.5t-44 47t-16.5 72zM360 268q-5 -15 -22.5 -23t-41 -13.5t-49.5 -11t-47.5 -14.5t-35.5 -24.5t-14 -41.5q0 -33 25.5 -54t79.5 -21q23 0 42.5 3t33.5 8q16 5 29 12v180zM288 699h74q12 0 19.5 -8.5t7.5 -16.5v-76h-72
q-13 0 -21 7.5t-8 17.5v76zM123 699h74q12 0 19.5 -8.5t7.5 -16.5v-76h-72q-13 0 -21 7.5t-8 17.5v76z" />
    <glyph glyph-name="aring" unicode="&#xe5;" horiz-adv-x="521" 
d="M301 676q0 14 -8 22t-33 8q-26 0 -32.5 -8t-6.5 -22v-32q0 -14 6.5 -22t32.5 -8q25 0 33 8t8 22v32zM353 631q0 -29 -25 -44.5t-67 -15.5t-67.5 15.5t-25.5 44.5v58q0 28 25.5 44t67.5 16t67 -16t25 -44v-58zM46 140q0 47 20.5 76t52 46t69 26t72 17t61 19.5t36.5 33.5
q0 16 -4.5 30.5t-16.5 25t-32.5 16.5t-52.5 6q-33 0 -62 -6.5t-50.5 -20t-33.5 -34t-12 -49.5q-18 25 -25.5 46t-7.5 39q0 29 17.5 49.5t45 33.5t61.5 19t67 6q103 0 157 -43.5t54 -122.5v-361q-19 8 -37 11t-35 3q-36 0 -72 -9t-78 -9q-36 0 -71 7.5t-62.5 25.5t-44 47
t-16.5 72zM360 268q-5 -15 -22.5 -23t-41 -13.5t-49.5 -11t-47.5 -14.5t-35.5 -24.5t-14 -41.5q0 -33 25.5 -54t79.5 -21q23 0 42.5 3t33.5 8q16 5 29 12v180z" />
    <glyph glyph-name="ae" unicode="&#xe6;" horiz-adv-x="821" 
d="M462 302q2 -1 11.5 -3t22 -4t27.5 -3.5t29 -1.5q63 0 87.5 18.5t24.5 52.5q0 35 -22 56.5t-78 21.5q-30 0 -50 -7t-31.5 -20t-16 -32.5t-4.5 -43.5v-34zM249 67q35 0 56.5 11.5t33 29t15 37t3.5 35.5v78q-9 -12 -27.5 -18.5t-41.5 -12t-47.5 -11t-44.5 -15t-33 -24
t-13 -37.5q0 -34 25 -53.5t74 -19.5zM581 -11q-45 0 -77 8t-53 19t-33.5 23t-18.5 21q-5 -8 -17.5 -20.5t-32.5 -23.5t-47.5 -19t-61.5 -8q-37 0 -72 7.5t-62.5 25.5t-44 47t-16.5 71q0 48 20.5 76.5t52 45.5t69 25.5t72 16.5t61.5 20t36 34v2q0 16 -5 29.5t-17 23.5
t-32.5 16t-51.5 6q-33 0 -62 -6.5t-50.5 -20t-33.5 -34.5t-12 -50q-33 49 -33 87q0 29 17.5 49.5t45 33.5t61.5 19t67 6q105 0 160 -47q53 47 156 47q102 0 152.5 -43t50.5 -115q0 -31 -10.5 -59.5t-34.5 -50t-63.5 -34t-96.5 -12.5q-14 0 -29.5 2t-29.5 5t-25.5 6t-17.5 6
v-54q0 -48 28 -72t91 -24q36 0 66.5 7t52.5 20.5t34.5 33t12.5 43.5q29 -41 29 -76q0 -27 -15.5 -48t-42 -35.5t-62 -22t-75.5 -7.5z" />
    <glyph glyph-name="ccedilla" unicode="&#xe7;" horiz-adv-x="503" 
d="M210 -87q5 20 11.5 39t13.5 38q-85 8 -132.5 51t-47.5 115v195q0 79 57 123.5t159 44.5q31 0 63.5 -6t59 -19t43 -34t16.5 -50q0 -19 -8 -40t-25 -46q0 28 -11.5 49t-30.5 35t-43 20.5t-49 6.5q-63 0 -94.5 -23.5t-31.5 -81.5v-153q0 -54 29.5 -79.5t94.5 -25.5
q33 0 61.5 7t49.5 20.5t33 33t12 43.5q15 -22 21.5 -40.5t6.5 -35.5q0 -25 -13.5 -45t-36.5 -34t-54 -22t-67 -10q-2 -8 -3 -17.5t-3 -18.5h6q45 0 74.5 -25.5t29.5 -70.5q0 -23 -9.5 -40.5t-25 -29.5t-35.5 -18t-41 -6q-23 0 -39 7t-26.5 17.5t-15 22.5t-4.5 21
q8 -4 23.5 -8t34.5 -4q21 0 39 9.5t18 32.5q0 24 -20 32.5t-41 8.5q-10 0 -19.5 -2t-17.5 -4q-10 -3 -18 -5z" />
    <glyph glyph-name="egrave" unicode="&#xe8;" horiz-adv-x="518" 
d="M160 304q2 -1 11 -3t22 -4.5t27.5 -4.5t28.5 -2q63 0 88 18.5t25 52.5q0 35 -22.5 56.5t-78.5 21.5q-60 0 -80.5 -27t-20.5 -76v-32zM445 177q28 -41 28 -76q0 -27 -15.5 -48t-42 -35.5t-62 -22t-75.5 -7.5q-105 0 -164 44.5t-59 123.5v195q0 79 53 123.5t155 44.5
t153 -43t51 -115q0 -31 -10.5 -59.5t-35 -50t-63.5 -34t-96 -12.5q-25 0 -53.5 5t-48.5 16v-55q0 -49 27.5 -73.5t90.5 -24.5q36 0 66.5 7t52.5 20.5t35 33t13 43.5zM225 772q-6 -10 -6 -23q0 -17 15.5 -36t44.5 -48l14 -14t15 -15.5t12 -14.5t5 -12q0 -10 -10 -16.5
t-21 -11.5q-14 -5 -31 -9l-60 47q-26 21 -40.5 44t-13.5 44t19 38.5t57 26.5z" />
    <glyph glyph-name="eacute" unicode="&#xe9;" horiz-adv-x="518" 
d="M307 772q39 -9 57 -26.5t19 -38.5t-13.5 -44t-40.5 -44l-60 -47q-18 4 -31 9q-12 5 -21.5 11.5t-9.5 16.5q0 5 5 12t12 14.5t15 15.5l14 14q29 29 44.5 48t15.5 36q0 13 -6 23zM160 304q2 -1 11 -3t22 -4.5t27.5 -4.5t28.5 -2q63 0 88 18.5t25 52.5q0 35 -22.5 56.5
t-78.5 21.5q-60 0 -80.5 -27t-20.5 -76v-32zM445 177q28 -41 28 -76q0 -27 -15.5 -48t-42 -35.5t-62 -22t-75.5 -7.5q-105 0 -164 44.5t-59 123.5v195q0 79 53 123.5t155 44.5t153 -43t51 -115q0 -31 -10.5 -59.5t-35 -50t-63.5 -34t-96 -12.5q-25 0 -53.5 5t-48.5 16v-55
q0 -49 27.5 -73.5t90.5 -24.5q36 0 66.5 7t52.5 20.5t35 33t13 43.5z" />
    <glyph glyph-name="ecircumflex" unicode="&#xea;" horiz-adv-x="518" 
d="M160 304q2 -1 11 -3t22 -4.5t27.5 -4.5t28.5 -2q63 0 88 18.5t25 52.5q0 35 -22.5 56.5t-78.5 21.5q-60 0 -80.5 -27t-20.5 -76v-32zM445 177q28 -41 28 -76q0 -27 -15.5 -48t-42 -35.5t-62 -22t-75.5 -7.5q-105 0 -164 44.5t-59 123.5v195q0 79 53 123.5t155 44.5
t153 -43t51 -115q0 -31 -10.5 -59.5t-35 -50t-63.5 -34t-96 -12.5q-25 0 -53.5 5t-48.5 16v-55q0 -49 27.5 -73.5t90.5 -24.5q36 0 66.5 7t52.5 20.5t35 33t13 43.5zM264 691q-8 -8 -20 -19t-23.5 -24.5t-20 -27.5t-8.5 -28q0 -8 5 -18q-30 11 -50 27.5t-20 37.5q0 25 37 58
t100 75q63 -42 100 -75t37 -58q0 -21 -20 -37.5t-50 -27.5q5 10 5 18q0 14 -8.5 28t-20 27.5t-23.5 24.5t-20 19z" />
    <glyph glyph-name="edieresis" unicode="&#xeb;" horiz-adv-x="518" 
d="M298 699h74q12 0 19.5 -8.5t7.5 -16.5v-76h-72q-13 0 -21 7.5t-8 17.5v76zM133 699h74q12 0 19.5 -8.5t7.5 -16.5v-76h-72q-13 0 -21 7.5t-8 17.5v76zM160 304q2 -1 11 -3t22 -4.5t27.5 -4.5t28.5 -2q63 0 88 18.5t25 52.5q0 35 -22.5 56.5t-78.5 21.5q-60 0 -80.5 -27
t-20.5 -76v-32zM445 177q28 -41 28 -76q0 -27 -15.5 -48t-42 -35.5t-62 -22t-75.5 -7.5q-105 0 -164 44.5t-59 123.5v195q0 79 53 123.5t155 44.5t153 -43t51 -115q0 -31 -10.5 -59.5t-35 -50t-63.5 -34t-96 -12.5q-25 0 -53.5 5t-48.5 16v-55q0 -49 27.5 -73.5t90.5 -24.5
q36 0 66.5 7t52.5 20.5t35 33t13 43.5z" />
    <glyph glyph-name="igrave" unicode="&#xec;" horiz-adv-x="235" 
d="M65 511q2 0 19 -1t36 -6.5t34.5 -17.5t15.5 -33v-462q-30 1 -53 7q-20 5 -36 17t-16 34v462zM109 772q-6 -10 -6 -23q0 -17 15.5 -36t44.5 -48l14 -14t15 -15.5t12 -14.5t5 -12q0 -10 -10 -16.5t-21 -11.5q-14 -5 -31 -9l-60 47q-26 21 -40.5 44t-13.5 44t19 38.5
t57 26.5z" />
    <glyph glyph-name="iacute" unicode="&#xed;" horiz-adv-x="235" 
d="M128 772q39 -9 57 -26.5t19 -38.5t-13.5 -44t-40.5 -44l-60 -47q-18 4 -31 9q-12 5 -21.5 11.5t-9.5 16.5q0 5 5 12t12 14.5t15 15.5l14 14q29 29 44.5 48t15.5 36q0 13 -6 23zM65 511q2 0 19 -1t36 -6.5t34.5 -17.5t15.5 -33v-462q-30 1 -53 7q-20 5 -36 17t-16 34v462z
" />
    <glyph glyph-name="icircumflex" unicode="&#xee;" horiz-adv-x="235" 
d="M65 511q2 0 19 -1t36 -6.5t34.5 -17.5t15.5 -33v-462q-30 1 -53 7q-20 5 -36 17t-16 34v462zM120 691q-8 -8 -20 -19t-23.5 -24.5t-20 -27.5t-8.5 -28q0 -8 5 -18q-30 11 -50 27.5t-20 37.5q0 25 37 58t100 75q63 -42 100 -75t37 -58q0 -21 -20 -37.5t-50 -27.5
q5 10 5 18q0 14 -8.5 28t-20 27.5t-23.5 24.5t-20 19z" />
    <glyph glyph-name="idieresis" unicode="&#xef;" horiz-adv-x="235" 
d="M150 699h74q12 0 19.5 -8.5t7.5 -16.5v-76h-72q-13 0 -21 7.5t-8 17.5v76zM-15 699h74q12 0 19.5 -8.5t7.5 -16.5v-76h-72q-13 0 -21 7.5t-8 17.5v76zM65 511q2 0 19 -1t36 -6.5t34.5 -17.5t15.5 -33v-462q-30 1 -53 7q-20 5 -36 17t-16 34v462z" />
    <glyph glyph-name="eth" unicode="&#xf0;" horiz-adv-x="575" 
d="M165 172q0 -24 5 -43.5t18.5 -33t37.5 -20.5t62 -7t62 7t37.5 20.5t18 33t4.5 43.5v180q0 39 -36 63.5t-92 24.5q-37 0 -60 -7.5t-35.5 -21t-17 -32.5t-4.5 -43v-164zM55 351q0 78 56.5 123.5t165.5 45.5q46 0 79 -10t44 -20q-9 36 -26 66t-38 54l-122 -51q-5 9 -10 20
t-6.5 22t2.5 20.5t18 15.5l57 24q-36 22 -73.5 31.5t-71.5 7.5q8 35 30 49.5t48 14.5q40 0 82.5 -16t81.5 -47l119 50q4 -9 9 -20t6 -22t-3 -20.5t-17 -15.5l-60 -25q42 -51 68 -120t26 -156v-215q0 -80 -57 -124.5t-175 -44.5t-175.5 44.5t-57.5 124.5v194z" />
    <glyph glyph-name="ntilde" unicode="&#xf1;" horiz-adv-x="556" 
d="M386 347q0 43 -24.5 66.5t-84.5 23.5q-23 0 -43 -3t-34 -6q-17 -4 -30 -8v-427q-30 1 -53 7q-20 5 -36 16.5t-16 33.5v467q8 -5 29.5 -12t47.5 -7q18 0 36 3.5l36 7t37 7t40 3.5q36 0 72 -7t64.5 -25t46 -48.5t17.5 -76.5v-369q-30 2 -53 8q-20 5 -36 16.5t-16 32.5v297z
M139 601q-7 17 -7 37q0 28 15 47.5t48 19.5q20 0 41 -7t43 -15.5t44 -15.5t44 -7q19 0 29.5 5.5t20.5 19.5q4 -10 6 -19.5t2 -20.5q0 -26 -14 -45t-49 -19q-21 0 -42 7t-43 15.5t-44 15.5t-44 7q-20 0 -30 -6t-20 -19z" />
    <glyph glyph-name="ograve" unicode="&#xf2;" horiz-adv-x="567" 
d="M407 336q0 24 -5 43.5t-18.5 32.5t-37.5 20t-63 7q-38 0 -62 -7t-37.5 -20t-18.5 -32.5t-5 -43.5v-165q0 -24 5 -43.5t18.5 -32.5t37.5 -20t62 -7q39 0 63 7t37.5 20t18.5 32.5t5 43.5v165zM512 156q0 -79 -55.5 -123.5t-173.5 -44.5q-117 0 -172.5 44.5t-55.5 123.5v195
q0 79 55.5 123.5t172.5 44.5q118 0 173.5 -44.5t55.5 -123.5v-195zM241 772q-6 -10 -6 -23q0 -17 15.5 -36t44.5 -48l14 -14t15 -15.5t12 -14.5t5 -12q0 -10 -10 -16.5t-21 -11.5q-14 -5 -31 -9l-60 47q-26 21 -40.5 44t-13.5 44t19 38.5t57 26.5z" />
    <glyph glyph-name="oacute" unicode="&#xf3;" horiz-adv-x="567" 
d="M324 772q39 -9 57 -26.5t19 -38.5t-13.5 -44t-40.5 -44l-60 -47q-18 4 -31 9q-12 5 -21.5 11.5t-9.5 16.5q0 5 5 12t12 14.5t15 15.5l14 14q29 29 44.5 48t15.5 36q0 13 -6 23zM407 336q0 24 -5 43.5t-18.5 32.5t-37.5 20t-63 7q-38 0 -62 -7t-37.5 -20t-18.5 -32.5
t-5 -43.5v-165q0 -24 5 -43.5t18.5 -32.5t37.5 -20t62 -7q39 0 63 7t37.5 20t18.5 32.5t5 43.5v165zM512 156q0 -79 -55.5 -123.5t-173.5 -44.5q-117 0 -172.5 44.5t-55.5 123.5v195q0 79 55.5 123.5t172.5 44.5q118 0 173.5 -44.5t55.5 -123.5v-195z" />
    <glyph glyph-name="ocircumflex" unicode="&#xf4;" horiz-adv-x="567" 
d="M407 336q0 24 -5 43.5t-18.5 32.5t-37.5 20t-63 7q-38 0 -62 -7t-37.5 -20t-18.5 -32.5t-5 -43.5v-165q0 -24 5 -43.5t18.5 -32.5t37.5 -20t62 -7q39 0 63 7t37.5 20t18.5 32.5t5 43.5v165zM512 156q0 -79 -55.5 -123.5t-173.5 -44.5q-117 0 -172.5 44.5t-55.5 123.5v195
q0 79 55.5 123.5t172.5 44.5q118 0 173.5 -44.5t55.5 -123.5v-195zM281 691q-8 -8 -20 -19t-23.5 -24.5t-20 -27.5t-8.5 -28q0 -8 5 -18q-30 11 -50 27.5t-20 37.5q0 25 37 58t100 75q63 -42 100 -75t37 -58q0 -21 -20 -37.5t-50 -27.5q5 10 5 18q0 14 -8.5 28t-20 27.5
t-23.5 24.5t-20 19z" />
    <glyph glyph-name="otilde" unicode="&#xf5;" horiz-adv-x="567" 
d="M143 601q-7 17 -7 37q0 28 15 47.5t48 19.5q20 0 41 -7t43 -15.5t44 -15.5t44 -7q19 0 29.5 5.5t20.5 19.5q4 -10 6 -19.5t2 -20.5q0 -26 -14 -45t-49 -19q-21 0 -42 7t-43 15.5t-44 15.5t-44 7q-20 0 -30 -6t-20 -19zM407 336q0 24 -5 43.5t-18.5 32.5t-37.5 20t-63 7
q-38 0 -62 -7t-37.5 -20t-18.5 -32.5t-5 -43.5v-165q0 -24 5 -43.5t18.5 -32.5t37.5 -20t62 -7q39 0 63 7t37.5 20t18.5 32.5t5 43.5v165zM512 156q0 -79 -55.5 -123.5t-173.5 -44.5q-117 0 -172.5 44.5t-55.5 123.5v195q0 79 55.5 123.5t172.5 44.5q118 0 173.5 -44.5
t55.5 -123.5v-195z" />
    <glyph glyph-name="odieresis" unicode="&#xf6;" horiz-adv-x="567" 
d="M407 336q0 24 -5 43.5t-18.5 32.5t-37.5 20t-63 7q-38 0 -62 -7t-37.5 -20t-18.5 -32.5t-5 -43.5v-165q0 -24 5 -43.5t18.5 -32.5t37.5 -20t62 -7q39 0 63 7t37.5 20t18.5 32.5t5 43.5v165zM512 156q0 -79 -55.5 -123.5t-173.5 -44.5q-117 0 -172.5 44.5t-55.5 123.5v195
q0 79 55.5 123.5t172.5 44.5q118 0 173.5 -44.5t55.5 -123.5v-195zM315 699h74q12 0 19.5 -8.5t7.5 -16.5v-76h-72q-13 0 -21 7.5t-8 17.5v76zM150 699h74q12 0 19.5 -8.5t7.5 -16.5v-76h-72q-13 0 -21 7.5t-8 17.5v76z" />
    <glyph glyph-name="divide" unicode="&#xf7;" horiz-adv-x="509" 
d="M440 299q0 -4 1 -8q2 -10 2 -20t-2 -20.5t-7 -19t-14.5 -14t-24.5 -5.5h-327q-1 3 -1 7q-1 5 -1 19q0 9 1.5 20t7 20t15 15t24.5 6h326zM208 477h75q11 0 19.5 -8t8.5 -17v-82h-74q-12 0 -20.5 7t-8.5 18v82zM208 145h75q11 0 19.5 -8t8.5 -17v-82h-74q-12 0 -20.5 7
t-8.5 18v82z" />
    <glyph glyph-name="oslash" unicode="&#xf8;" horiz-adv-x="567" 
d="M160 184l226 225q-13 14 -37.5 22t-65.5 8q-38 0 -62 -7t-37.5 -20t-18.5 -32.5t-5 -43.5v-152zM407 303v16.5t-1 16.5q-58 -58 -116 -115l-116 -114q12 -19 37.5 -28.5t71.5 -9.5q39 0 63 7t37.5 20t18.5 32.5t5 43.5v131zM512 157q0 -79 -55.5 -123.5t-173.5 -44.5
q-62 0 -106.5 13t-72.5 37l-52 -51q-8 6 -13 14q-5 6 -9 14.5t-4 18.5q0 17 16 33l24 24q-11 31 -11 65v194q0 79 55.5 123.5t172.5 44.5q113 0 171 -44q14 13 26.5 26t25.5 26q7 -7 13 -15q5 -7 9 -16t4 -19q0 -18 -15 -33l-21 -20q16 -31 16 -73v-194z" />
    <glyph glyph-name="ugrave" unicode="&#xf9;" horiz-adv-x="556" 
d="M170 160q0 -43 24 -66.5t84 -23.5q23 0 43 2.5t34 5.5q17 4 31 9v427q29 -1 52 -7q20 -5 36.5 -17t16.5 -33v-466q-9 5 -30 11.5t-48 6.5q-36 0 -71.5 -10.5t-77.5 -10.5q-36 0 -72 7t-64 25t-45.5 48t-17.5 77v369q29 -2 52 -8q20 -5 36.5 -16.5t16.5 -32.5v-297z
M237 772q-6 -10 -6 -23q0 -17 15.5 -36t44.5 -48l14 -14t15 -15.5t12 -14.5t5 -12q0 -10 -10 -16.5t-21 -11.5q-14 -5 -31 -9l-60 47q-26 21 -40.5 44t-13.5 44t19 38.5t57 26.5z" />
    <glyph glyph-name="uacute" unicode="&#xfa;" horiz-adv-x="556" 
d="M320 772q39 -9 57 -26.5t19 -38.5t-13.5 -44t-40.5 -44l-60 -47q-18 4 -31 9q-12 5 -21.5 11.5t-9.5 16.5q0 5 5 12t12 14.5t15 15.5l14 14q29 29 44.5 48t15.5 36q0 13 -6 23zM170 160q0 -43 24 -66.5t84 -23.5q23 0 43 2.5t34 5.5q17 4 31 9v427q29 -1 52 -7
q20 -5 36.5 -17t16.5 -33v-466q-9 5 -30 11.5t-48 6.5q-36 0 -71.5 -10.5t-77.5 -10.5q-36 0 -72 7t-64 25t-45.5 48t-17.5 77v369q29 -2 52 -8q20 -5 36.5 -16.5t16.5 -32.5v-297z" />
    <glyph glyph-name="ucircumflex" unicode="&#xfb;" horiz-adv-x="556" 
d="M170 160q0 -43 24 -66.5t84 -23.5q23 0 43 2.5t34 5.5q17 4 31 9v427q29 -1 52 -7q20 -5 36.5 -17t16.5 -33v-466q-9 5 -30 11.5t-48 6.5q-36 0 -71.5 -10.5t-77.5 -10.5q-36 0 -72 7t-64 25t-45.5 48t-17.5 77v369q29 -2 52 -8q20 -5 36.5 -16.5t16.5 -32.5v-297z
M277 691q-8 -8 -20 -19t-23.5 -24.5t-20 -27.5t-8.5 -28q0 -8 5 -18q-30 11 -50 27.5t-20 37.5q0 25 37 58t100 75q63 -42 100 -75t37 -58q0 -21 -20 -37.5t-50 -27.5q5 10 5 18q0 14 -8.5 28t-20 27.5t-23.5 24.5t-20 19z" />
    <glyph glyph-name="udieresis" unicode="&#xfc;" horiz-adv-x="556" 
d="M311 699h74q12 0 19.5 -8.5t7.5 -16.5v-76h-72q-13 0 -21 7.5t-8 17.5v76zM146 699h74q12 0 19.5 -8.5t7.5 -16.5v-76h-72q-13 0 -21 7.5t-8 17.5v76zM170 160q0 -43 24 -66.5t84 -23.5q23 0 43 2.5t34 5.5q17 4 31 9v427q29 -1 52 -7q20 -5 36.5 -17t16.5 -33v-466
q-9 5 -30 11.5t-48 6.5q-36 0 -71.5 -10.5t-77.5 -10.5q-36 0 -72 7t-64 25t-45.5 48t-17.5 77v369q29 -2 52 -8q20 -5 36.5 -16.5t16.5 -32.5v-297z" />
    <glyph glyph-name="yacute" unicode="&#xfd;" horiz-adv-x="516" 
d="M199 63q-22 12 -45.5 36t-43.5 57.5t-34.5 74.5t-19.5 87l-10 98t-11 98l13 -0.5t30 -5t33.5 -13.5t23.5 -26q6 -16 10.5 -37t7.5 -44t5.5 -46t5.5 -44q6 -46 22 -79.5t33 -56.5q20 -26 44 -45q25 20 45 46q17 23 33.5 56.5t21.5 78.5l17 129q4 32 20 49.5t34.5 26t35 10
t22.5 1.5q-6 -49 -11 -98l-10 -98q-6 -50 -22 -92t-38 -76.5t-46.5 -60.5t-46.5 -43l-39 -30q-25 -19 -46 -37t-36.5 -36.5t-24.5 -40t-9 -46.5q0 -24 6 -46.5t16 -42.5q-8 -4 -17.5 -7t-20.5 -3q-14 0 -29.5 5t-28.5 17t-21 32.5t-8 51.5q0 34 11.5 62t30.5 52t44 45t53 41
zM303 772q39 -9 57 -26.5t19 -38.5t-13.5 -44t-40.5 -44l-60 -47q-18 4 -31 9q-12 5 -21.5 11.5t-9.5 16.5q0 5 5 12t12 14.5t15 15.5l14 14q29 29 44.5 48t15.5 36q0 13 -6 23z" />
    <glyph glyph-name="thorn" unicode="&#xfe;" horiz-adv-x="546" 
d="M170 158q0 -20 10.5 -36.5t27 -28.5t38 -18.5t44.5 -6.5q42 0 69 23.5t27 76.5v171q0 53 -27 76.5t-69 23.5q-23 0 -44.5 -6.5t-38 -18.5t-27 -28.5t-10.5 -36.5v-191zM65 755q1 0 17.5 -0.5t36 -6.5t35.5 -20t16 -41v-139q0 -18 -1 -31.5t-3 -23.5q-2 -11 -4 -20
q12 12 31 23q17 8 44 15.5t66 7.5q38 0 72 -11.5t60 -32.5t41 -51.5t15 -69.5v-201q0 -39 -15 -69.5t-41 -51.5t-60 -32.5t-72 -11.5q-40 0 -66.5 7t-43.5 16q-19 11 -31 24l4 -22t3 -24t1 -29v-207q-2 0 -18.5 1t-36 7t-35 20t-15.5 40v934z" />
    <glyph glyph-name="ydieresis" unicode="&#xff;" horiz-adv-x="516" 
d="M294 699h74q12 0 19.5 -8.5t7.5 -16.5v-76h-72q-13 0 -21 7.5t-8 17.5v76zM129 699h74q12 0 19.5 -8.5t7.5 -16.5v-76h-72q-13 0 -21 7.5t-8 17.5v76zM199 63q-22 12 -45.5 36t-43.5 57.5t-34.5 74.5t-19.5 87l-10 98t-11 98l13 -0.5t30 -5t33.5 -13.5t23.5 -26
q6 -16 10.5 -37t7.5 -44t5.5 -46t5.5 -44q6 -46 22 -79.5t33 -56.5q20 -26 44 -45q25 20 45 46q17 23 33.5 56.5t21.5 78.5l17 129q4 32 20 49.5t34.5 26t35 10t22.5 1.5q-6 -49 -11 -98l-10 -98q-6 -50 -22 -92t-38 -76.5t-46.5 -60.5t-46.5 -43l-39 -30q-25 -19 -46 -37
t-36.5 -36.5t-24.5 -40t-9 -46.5q0 -24 6 -46.5t16 -42.5q-8 -4 -17.5 -7t-20.5 -3q-14 0 -29.5 5t-28.5 17t-21 32.5t-8 51.5q0 34 11.5 62t30.5 52t44 45t53 41z" />
    <glyph glyph-name="Amacron" unicode="&#x100;" horiz-adv-x="654" 
d="M327 589q-7 -9 -29.5 -53.5t-47.5 -127.5l-33 -111h220l-33 111q-13 42 -26.5 75t-24.5 57q-13 27 -26 49zM327 727q2 -2 21.5 -18.5t46.5 -51t57.5 -89.5t55.5 -134q20 -66 41 -130.5t42 -130.5q19 -60 34 -106t29 -67q-6 -2 -13 -4q-12 -3 -28 -3q-32 0 -53.5 14.5
t-36.5 37.5t-24.5 51.5t-18.5 56.5l-18 59h-270l-18 -59q-9 -28 -18.5 -56.5t-24.5 -51.5t-36.5 -37.5t-53.5 -14.5q-16 0 -28 3q-7 2 -13 4q14 21 29 67t34 106q21 66 41.5 130.5t41.5 130.5q25 79 55.5 134t57.5 89.5t46 51t22 18.5zM480 863q5 -22 2 -39
q-2 -14 -12.5 -26t-34.5 -12h-262q-5 21 -1 38q2 14 12.5 26.5t34.5 12.5h261z" />
    <glyph glyph-name="amacron" unicode="&#x101;" horiz-adv-x="521" 
d="M408 679q5 -22 2 -39q-2 -14 -12.5 -26t-34.5 -12h-262q-5 21 -1 38q2 14 12.5 26.5t34.5 12.5h261zM46 140q0 47 20.5 76t52 46t69 26t72 17t61 19.5t36.5 33.5q0 16 -4.5 30.5t-16.5 25t-32.5 16.5t-52.5 6q-33 0 -62 -6.5t-50.5 -20t-33.5 -34t-12 -49.5
q-18 25 -25.5 46t-7.5 39q0 29 17.5 49.5t45 33.5t61.5 19t67 6q103 0 157 -43.5t54 -122.5v-361q-19 8 -37 11t-35 3q-36 0 -72 -9t-78 -9q-36 0 -71 7.5t-62.5 25.5t-44 47t-16.5 72zM360 268q-5 -15 -22.5 -23t-41 -13.5t-49.5 -11t-47.5 -14.5t-35.5 -24.5t-14 -41.5
q0 -33 25.5 -54t79.5 -21q23 0 42.5 3t33.5 8q16 5 29 12v180z" />
    <glyph glyph-name="Abreve" unicode="&#x102;" horiz-adv-x="654" 
d="M327 589q-7 -9 -29.5 -53.5t-47.5 -127.5l-33 -111h220l-33 111q-13 42 -26.5 75t-24.5 57q-13 27 -26 49zM327 727q2 -2 21.5 -18.5t46.5 -51t57.5 -89.5t55.5 -134q20 -66 41 -130.5t42 -130.5q19 -60 34 -106t29 -67q-6 -2 -13 -4q-12 -3 -28 -3q-32 0 -53.5 14.5
t-36.5 37.5t-24.5 51.5t-18.5 56.5l-18 59h-270l-18 -59q-9 -28 -18.5 -56.5t-24.5 -51.5t-36.5 -37.5t-53.5 -14.5q-16 0 -28 3q-7 2 -13 4q14 21 29 67t34 106q21 66 41.5 130.5t41.5 130.5q25 79 55.5 134t57.5 89.5t46 51t22 18.5zM327 831q42 0 65 24t23 57q0 18 -8 37
q31 -5 47 -28t16 -52q0 -20 -9 -40t-26.5 -36t-44 -26t-62.5 -10q-37 0 -64 10t-45 26t-27 36t-9 40q0 29 16 52t47 28q-8 -19 -8 -37q0 -33 23.5 -57t65.5 -24z" />
    <glyph glyph-name="abreve" unicode="&#x103;" horiz-adv-x="521" 
d="M255 647q42 0 65 24t23 57q0 18 -8 37q31 -5 47 -28t16 -52q0 -20 -9 -40t-26.5 -36t-44 -26t-62.5 -10q-37 0 -64 10t-45 26t-27 36t-9 40q0 29 16 52t47 28q-8 -19 -8 -37q0 -33 23.5 -57t65.5 -24zM46 140q0 47 20.5 76t52 46t69 26t72 17t61 19.5t36.5 33.5
q0 16 -4.5 30.5t-16.5 25t-32.5 16.5t-52.5 6q-33 0 -62 -6.5t-50.5 -20t-33.5 -34t-12 -49.5q-18 25 -25.5 46t-7.5 39q0 29 17.5 49.5t45 33.5t61.5 19t67 6q103 0 157 -43.5t54 -122.5v-361q-19 8 -37 11t-35 3q-36 0 -72 -9t-78 -9q-36 0 -71 7.5t-62.5 25.5t-44 47
t-16.5 72zM360 268q-5 -15 -22.5 -23t-41 -13.5t-49.5 -11t-47.5 -14.5t-35.5 -24.5t-14 -41.5q0 -33 25.5 -54t79.5 -21q23 0 42.5 3t33.5 8q16 5 29 12v180z" />
    <glyph glyph-name="Aogonek" unicode="&#x104;" horiz-adv-x="654" 
d="M327 589q-7 -9 -29.5 -53.5t-47.5 -127.5l-33 -111h220l-33 111q-13 42 -26.5 75t-24.5 57q-13 27 -26 49zM654 0q-8 0 -31 -9t-47.5 -25t-43.5 -38t-19 -49q0 -18 13 -31t39 -13q17 0 34 5t23 8q0 -9 -5.5 -23t-17 -27.5t-30.5 -23.5t-46 -10q-52 0 -80.5 28.5
t-28.5 73.5q0 24 11 47t29.5 42.5t42.5 34.5t51 25q-27 23 -41.5 61t-26.5 77l-18 59h-270l-18 -59q-9 -28 -18.5 -56.5t-24.5 -51.5t-36.5 -37.5t-53.5 -14.5q-16 0 -28 3q-7 2 -13 4q12 20 29.5 68t37 109.5t40 129.5t39.5 127q25 79 55.5 134t57.5 89.5t46 51t22 18.5
q2 -2 21 -18.5t46.5 -51t58 -89.5t55.5 -134q20 -66 41 -130.5t42 -130.5q19 -60 34 -106t29 -67z" />
    <glyph glyph-name="aogonek" unicode="&#x105;" horiz-adv-x="521" 
d="M359 263q-7 -14 -25 -21.5t-41 -13t-48.5 -11t-46.5 -15t-34.5 -24t-13.5 -38.5q0 -32 23 -52t81 -20q22 0 41.5 2.5t33.5 5.5q17 4 30 8v179zM250 435q-33 0 -62 -6.5t-50.5 -20t-33.5 -34.5t-12 -50q-17 26 -25 48t-8 39q0 28 17.5 48.5t45 34t61.5 19.5t67 6
q104 0 157.5 -43t53.5 -123v-325q-8 -6 -26.5 -20.5t-37 -34.5t-33 -44t-14.5 -50q0 -18 13 -31t39 -13q17 0 34 5t23 8q0 -17 -8.5 -32.5t-22.5 -27t-32.5 -18.5t-37.5 -7q-43 0 -75 26.5t-32 78.5q0 39 25.5 72.5t64.5 59.5q-24 -4 -49.5 -7.5t-51.5 -3.5q-36 0 -71 7.5
t-62.5 25t-44.5 46.5t-17 72q0 48 20.5 76.5t52 45.5t69 25.5t72 16.5t61.5 20t36 34q0 16 -4.5 30.5t-16.5 24.5t-32.5 16t-52.5 6z" />
    <glyph glyph-name="Cacute" unicode="&#x106;" horiz-adv-x="680" 
d="M353 630q-39 0 -72 -8t-57 -27t-37 -50.5t-13 -77.5v-226q0 -47 13 -78t37 -50.5t57 -27.5t72 -8q40 0 81 5.5t75.5 19.5t58.5 37t30 59q14 -23 19.5 -43t5.5 -37q0 -37 -24 -62t-63 -40t-87 -21.5t-96 -6.5q-57 0 -109.5 12.5t-92 40.5t-63 73.5t-23.5 111.5v255
q0 66 23.5 111.5t63 73.5t92 40.5t109.5 12.5q51 0 99 -7.5t85.5 -24t60.5 -43t23 -64.5q0 -32 -23 -71q-5 33 -28.5 56t-58.5 37.5t-76.5 21t-81.5 6.5zM395 956q39 -9 57 -26.5t19 -38.5t-13.5 -44t-40.5 -44l-60 -47q-18 4 -31 9q-12 5 -21.5 11.5t-9.5 16.5q0 5 5 12
t12 14.5t15 15.5l14 14q29 29 44.5 48t15.5 36q0 13 -6 23z" />
    <glyph glyph-name="cacute" unicode="&#x107;" horiz-adv-x="503" 
d="M303 772q39 -9 57 -26.5t19 -38.5t-13.5 -44t-40.5 -44l-60 -47q-18 4 -31 9q-12 5 -21.5 11.5t-9.5 16.5q0 5 5 12t12 14.5t15 15.5l14 14q29 29 44.5 48t15.5 36q0 13 -6 23zM440 176q15 -22 21.5 -40.5t6.5 -35.5q0 -27 -15.5 -48t-42 -35t-62 -21.5t-74.5 -7.5
q-102 0 -160.5 44t-58.5 124v195q0 79 57 123.5t159 44.5q31 0 63.5 -6t59 -19t43 -34t16.5 -50q0 -19 -8 -40t-25 -46q0 28 -11.5 49t-30.5 35t-43 20.5t-49 6.5q-63 0 -94.5 -23.5t-31.5 -81.5v-153q0 -54 29.5 -79.5t94.5 -25.5q33 0 61.5 7t49.5 20.5t33 33t12 43.5z
" />
    <glyph glyph-name="Ccircumflex" unicode="&#x108;" horiz-adv-x="680" 
d="M353 630q-39 0 -72 -8t-57 -27t-37 -50.5t-13 -77.5v-226q0 -47 13 -78t37 -50.5t57 -27.5t72 -8q40 0 81 5.5t75.5 19.5t58.5 37t30 59q14 -23 19.5 -43t5.5 -37q0 -37 -24 -62t-63 -40t-87 -21.5t-96 -6.5q-57 0 -109.5 12.5t-92 40.5t-63 73.5t-23.5 111.5v255
q0 66 23.5 111.5t63 73.5t92 40.5t109.5 12.5q51 0 99 -7.5t85.5 -24t60.5 -43t23 -64.5q0 -32 -23 -71q-5 33 -28.5 56t-58.5 37.5t-76.5 21t-81.5 6.5zM352 875q-8 -8 -20 -19t-23.5 -24.5t-20 -27.5t-8.5 -28q0 -8 5 -18q-30 11 -50 27.5t-20 37.5q0 25 37 58t100 75
q63 -42 100 -75t37 -58q0 -21 -20 -37.5t-50 -27.5q5 10 5 18q0 14 -8.5 28t-20 27.5t-23.5 24.5t-20 19z" />
    <glyph glyph-name="ccircumflex" unicode="&#x109;" horiz-adv-x="503" 
d="M260 691q-8 -8 -20 -19t-23.5 -24.5t-20 -27.5t-8.5 -28q0 -8 5 -18q-30 11 -50 27.5t-20 37.5q0 25 37 58t100 75q63 -42 100 -75t37 -58q0 -21 -20 -37.5t-50 -27.5q5 10 5 18q0 14 -8.5 28t-20 27.5t-23.5 24.5t-20 19zM440 176q15 -22 21.5 -40.5t6.5 -35.5
q0 -27 -15.5 -48t-42 -35t-62 -21.5t-74.5 -7.5q-102 0 -160.5 44t-58.5 124v195q0 79 57 123.5t159 44.5q31 0 63.5 -6t59 -19t43 -34t16.5 -50q0 -19 -8 -40t-25 -46q0 28 -11.5 49t-30.5 35t-43 20.5t-49 6.5q-63 0 -94.5 -23.5t-31.5 -81.5v-153q0 -54 29.5 -79.5
t94.5 -25.5q33 0 61.5 7t49.5 20.5t33 33t12 43.5z" />
    <glyph glyph-name="Ccaron" unicode="&#x10c;" horiz-adv-x="680" 
d="M353 630q-39 0 -72 -8t-57 -27t-37 -50.5t-13 -77.5v-226q0 -47 13 -78t37 -50.5t57 -27.5t72 -8q40 0 81 5.5t75.5 19.5t58.5 37t30 59q14 -23 19.5 -43t5.5 -37q0 -37 -24 -62t-63 -40t-87 -21.5t-96 -6.5q-57 0 -109.5 12.5t-92 40.5t-63 73.5t-23.5 111.5v255
q0 66 23.5 111.5t63 73.5t92 40.5t109.5 12.5q51 0 99 -7.5t85.5 -24t60.5 -43t23 -64.5q0 -32 -23 -71q-5 33 -28.5 56t-58.5 37.5t-76.5 21t-81.5 6.5zM287 956q-5 -8 -5 -18q0 -14 8.5 -28.5t20 -27.5t23.5 -24t20 -19l28 25q19 17 31 36.5t13 37.5q0 8 -5 18
q33 -12 53 -28.5t20 -36.5q0 -14 -10.5 -29t-27.5 -31.5t-40.5 -34.5t-48.5 -38h-26q-26 21 -49.5 39t-40.5 34.5t-27 31.5t-10 28q0 21 20.5 37.5t52.5 27.5z" />
    <glyph glyph-name="ccaron" unicode="&#x10d;" horiz-adv-x="503" 
d="M195 772q-5 -8 -5 -18q0 -14 8.5 -28.5t20 -27.5t23.5 -24t20 -19l28 25q19 17 31 36.5t13 37.5q0 8 -5 18q33 -12 53 -28.5t20 -36.5q0 -14 -10.5 -29t-27.5 -31.5t-40.5 -34.5t-48.5 -38h-26q-26 21 -49.5 39t-40.5 34.5t-27 31.5t-10 28q0 21 20.5 37.5t52.5 27.5z
M440 176q15 -22 21.5 -40.5t6.5 -35.5q0 -27 -15.5 -48t-42 -35t-62 -21.5t-74.5 -7.5q-102 0 -160.5 44t-58.5 124v195q0 79 57 123.5t159 44.5q31 0 63.5 -6t59 -19t43 -34t16.5 -50q0 -19 -8 -40t-25 -46q0 28 -11.5 49t-30.5 35t-43 20.5t-49 6.5q-63 0 -94.5 -23.5
t-31.5 -81.5v-153q0 -54 29.5 -79.5t94.5 -25.5q33 0 61.5 7t49.5 20.5t33 33t12 43.5z" />
    <glyph glyph-name="Dcaron" unicode="&#x10e;" horiz-adv-x="716" 
d="M184 623v-539h168q40 0 74.5 8t60 27.5t40.5 50.5t15 78v212q0 46 -15 77.5t-40.5 50.5t-60 27t-74.5 8h-168zM169 0q-3 0 -18.5 1t-32 6.5t-30 17t-13.5 32.5v650h277q58 0 112 -11t95.5 -38t66.5 -73t25 -116v-231q0 -70 -25 -116t-66.5 -73t-95.5 -38t-112 -11h-183z
M273 956q-5 -8 -5 -18q0 -14 8.5 -28.5t20 -27.5t23.5 -24t20 -19l28 25q19 17 31 36.5t13 37.5q0 8 -5 18q33 -12 53 -28.5t20 -36.5q0 -14 -10.5 -29t-27.5 -31.5t-40.5 -34.5t-48.5 -38h-26q-26 21 -49.5 39t-40.5 34.5t-27 31.5t-10 28q0 21 20.5 37.5t52.5 27.5z" />
    <glyph glyph-name="dcaron" unicode="&#x10f;" horiz-adv-x="682" 
d="M563 707h67q12 0 21 -7.5t9 -21.5v-22q0 -28 -3.5 -52.5t-12.5 -43t-24.5 -29t-39.5 -10.5q-11 0 -25.5 3.5t-28.5 13.5q23 7 31.5 25.5t8.5 41.5q0 11 -1 21t-3 19l-11 62h12zM376 349q0 20 -10.5 36.5t-27.5 28.5t-39 18.5t-44 6.5q-42 0 -68.5 -23.5t-26.5 -76.5v-170
q0 -26 5.5 -44.5t19 -31.5t36.5 -19t58 -6q23 0 40.5 2.5t30.5 6.5q15 4 26 9v263zM376 754q2 0 19 -1t36 -7t34.5 -20t15.5 -39v-696q-18 8 -37.5 11t-36.5 3q-35 0 -70 -8.5t-70 -8.5q-102 0 -157 43t-55 123v200q0 39 15 69.5t41 51.5t59.5 32.5t71.5 11.5t65.5 -7.5
t44.5 -16.5q20 -11 33 -23q-3 9 -5 20q-2 10 -3 23.5t-1 31.5v207z" />
    <glyph glyph-name="Dcroat" unicode="&#x110;" horiz-adv-x="716" 
d="M184 623v-228h184q-1 0 1 -7t2 -17q0 -9 -1.5 -19.5t-6.5 -19.5t-13.5 -15t-23.5 -6h-142v-227h168q40 0 74.5 8t60 27.5t40.5 50.5t15 78v212q0 46 -15 77.5t-40.5 50.5t-60 27t-74.5 8h-168zM75 395v312h277q58 0 112 -11t95.5 -38t66.5 -73t25 -116v-231
q0 -70 -25 -116t-66.5 -73t-95.5 -38t-112 -11h-183q-3 0 -18.5 1t-32 6.5t-30 17t-13.5 32.5v254h-64q0 2 -0.5 6.5t-0.5 18.5q0 8 1 18t5.5 19t13 15.5t23.5 6.5h22z" />
    <glyph glyph-name="dcroat" unicode="&#x111;" horiz-adv-x="546" 
d="M376 349q0 20 -10.5 36.5t-27.5 28.5t-39 18.5t-44 6.5q-42 0 -68.5 -23.5t-26.5 -76.5v-170q0 -26 5.5 -44.5t19 -31.5t36.5 -19t58 -6q23 0 40.5 2.5t30.5 6.5q15 4 26 9v263zM376 658v96q2 0 19 -1t36 -7t34.5 -20t15.5 -39v-29h83q5 -21 2 -38q-2 -14 -11.5 -26
t-32.5 -12h-41v-591q-18 8 -37.5 11t-36.5 3q-35 0 -70 -8.5t-70 -8.5q-102 0 -157 43t-55 123v200q0 39 15 69.5t41 51.5t59.5 32.5t71.5 11.5q35 0 61 -6.5t43 -14.5t26.5 -15.5t11.5 -9.5q-1 2 -4.5 21t-3.5 53v35h-86q-5 21 -2 38q2 14 11.5 26t32.5 12h44z" />
    <glyph glyph-name="Emacron" unicode="&#x112;" horiz-adv-x="581" 
d="M184 339v-255h357q0 -2 -1.5 -15.5t-7.5 -28.5t-18.5 -27.5t-35.5 -12.5h-307q-27 1 -48 7q-18 5 -33 16.5t-15 33.5v650h466q-1 -24 -8 -42q-6 -16 -19 -29t-36 -13h-294v-200h218q29 0 48 2.5t30 5.5q13 4 21 8q0 -15 -3 -32.5t-11.5 -32.5t-25 -25t-43.5 -10h-234z
M461 863q5 -22 2 -39q-2 -14 -12.5 -26t-34.5 -12h-262q-5 21 -1 38q2 14 12.5 26.5t34.5 12.5h261z" />
    <glyph glyph-name="emacron" unicode="&#x113;" horiz-adv-x="518" 
d="M419 679q5 -22 2 -39q-2 -14 -12.5 -26t-34.5 -12h-262q-5 21 -1 38q2 14 12.5 26.5t34.5 12.5h261zM160 304q2 -1 11 -3t22 -4.5t27.5 -4.5t28.5 -2q63 0 88 18.5t25 52.5q0 35 -22.5 56.5t-78.5 21.5q-60 0 -80.5 -27t-20.5 -76v-32zM445 177q28 -41 28 -76
q0 -27 -15.5 -48t-42 -35.5t-62 -22t-75.5 -7.5q-105 0 -164 44.5t-59 123.5v195q0 79 53 123.5t155 44.5t153 -43t51 -115q0 -31 -10.5 -59.5t-35 -50t-63.5 -34t-96 -12.5q-25 0 -53.5 5t-48.5 16v-55q0 -49 27.5 -73.5t90.5 -24.5q36 0 66.5 7t52.5 20.5t35 33t13 43.5z
" />
    <glyph glyph-name="Edotaccent" unicode="&#x116;" horiz-adv-x="581" 
d="M184 339v-255h357q0 -2 -1.5 -15.5t-7.5 -28.5t-18.5 -27.5t-35.5 -12.5h-307q-27 1 -48 7q-18 5 -33 16.5t-15 33.5v650h466q-1 -24 -8 -42q-6 -16 -19 -29t-36 -13h-294v-200h218q29 0 48 2.5t30 5.5q13 4 21 8q0 -15 -3 -32.5t-11.5 -32.5t-25 -25t-43.5 -10h-234z
M256 883h75q9 0 19 -8t10 -17v-76h-74q-11 0 -20.5 7t-9.5 17v77z" />
    <glyph glyph-name="edotaccent" unicode="&#x117;" horiz-adv-x="518" 
d="M214 699h75q9 0 19 -8t10 -17v-76h-74q-11 0 -20.5 7t-9.5 17v77zM160 304q2 -1 11 -3t22 -4.5t27.5 -4.5t28.5 -2q63 0 88 18.5t25 52.5q0 35 -22.5 56.5t-78.5 21.5q-60 0 -80.5 -27t-20.5 -76v-32zM445 177q28 -41 28 -76q0 -27 -15.5 -48t-42 -35.5t-62 -22
t-75.5 -7.5q-105 0 -164 44.5t-59 123.5v195q0 79 53 123.5t155 44.5t153 -43t51 -115q0 -31 -10.5 -59.5t-35 -50t-63.5 -34t-96 -12.5q-25 0 -53.5 5t-48.5 16v-55q0 -49 27.5 -73.5t90.5 -24.5q36 0 66.5 7t52.5 20.5t35 33t13 43.5z" />
    <glyph glyph-name="Eogonek" unicode="&#x118;" horiz-adv-x="581" 
d="M184 339v-255h357q-4 -33 -24.5 -57t-44 -46t-42 -45.5t-18.5 -56.5q0 -18 13 -31t39 -13q17 0 34 5t23 8q0 -18 -9 -33.5t-24 -26t-34 -16.5t-38 -6t-37.5 6.5t-33 19.5t-23.5 32t-9 44q0 38 23.5 71.5t61.5 60.5h-227q-27 1 -48 7q-18 5 -33 16.5t-15 33.5v650h466
q-1 -24 -8 -42q-6 -16 -19 -29t-36 -13h-294v-200h218q29 0 48 2.5t30 5.5q13 4 21 8q0 -15 -3 -32.5t-11.5 -32.5t-25 -25t-43.5 -10h-234z" />
    <glyph glyph-name="eogonek" unicode="&#x119;" horiz-adv-x="518" 
d="M160 302q2 -1 11 -3t22 -4t27.5 -3.5t28.5 -1.5q63 0 88 18.5t25 52.5q0 35 -22.5 56.5t-78.5 21.5q-60 0 -80.5 -27t-20.5 -76v-34zM302 -9q-7 -1 -13.5 -1.5t-12.5 -0.5q-103 0 -162 44.5t-59 123.5v194q0 79 53 123.5t155 44.5t153 -43t51 -115q0 -31 -10.5 -59.5
t-35 -50t-63.5 -34t-96 -12.5q-14 0 -29.5 2t-30 5t-25.5 6t-17 6v-52q0 -49 28 -73.5t90 -24.5q36 0 66.5 7t52.5 20.5t35 33t13 43.5q28 -41 28 -76q0 -23 -11 -41.5t-27.5 -34.5t-35.5 -31.5t-35.5 -32.5t-27.5 -37.5t-11 -45.5q0 -18 13 -31t39 -13q18 0 35 5t23 8
q0 -17 -8.5 -32.5t-22.5 -27t-32.5 -18.5t-37.5 -7q-44 0 -75.5 26.5t-31.5 78.5q0 33 20.5 65t54.5 58z" />
    <glyph glyph-name="Ecaron" unicode="&#x11a;" horiz-adv-x="581" 
d="M184 339v-255h357q0 -2 -1.5 -15.5t-7.5 -28.5t-18.5 -27.5t-35.5 -12.5h-307q-27 1 -48 7q-18 5 -33 16.5t-15 33.5v650h466q-1 -24 -8 -42q-6 -16 -19 -29t-36 -13h-294v-200h218q29 0 48 2.5t30 5.5q13 4 21 8q0 -15 -3 -32.5t-11.5 -32.5t-25 -25t-43.5 -10h-234z
M241 956q-5 -8 -5 -18q0 -14 8.5 -28.5t20 -27.5t23.5 -24t20 -19l28 25q19 17 31 36.5t13 37.5q0 8 -5 18q33 -12 53 -28.5t20 -36.5q0 -14 -10.5 -29t-27.5 -31.5t-40.5 -34.5t-48.5 -38h-26q-26 21 -49.5 39t-40.5 34.5t-27 31.5t-10 28q0 21 20.5 37.5t52.5 27.5z" />
    <glyph glyph-name="ecaron" unicode="&#x11b;" horiz-adv-x="518" 
d="M199 772q-5 -8 -5 -18q0 -14 8.5 -28.5t20 -27.5t23.5 -24t20 -19l28 25q19 17 31 36.5t13 37.5q0 8 -5 18q33 -12 53 -28.5t20 -36.5q0 -14 -10.5 -29t-27.5 -31.5t-40.5 -34.5t-48.5 -38h-26q-26 21 -49.5 39t-40.5 34.5t-27 31.5t-10 28q0 21 20.5 37.5t52.5 27.5z
M160 304q2 -1 11 -3t22 -4.5t27.5 -4.5t28.5 -2q63 0 88 18.5t25 52.5q0 35 -22.5 56.5t-78.5 21.5q-60 0 -80.5 -27t-20.5 -76v-32zM445 177q28 -41 28 -76q0 -27 -15.5 -48t-42 -35.5t-62 -22t-75.5 -7.5q-105 0 -164 44.5t-59 123.5v195q0 79 53 123.5t155 44.5t153 -43
t51 -115q0 -31 -10.5 -59.5t-35 -50t-63.5 -34t-96 -12.5q-25 0 -53.5 5t-48.5 16v-55q0 -49 27.5 -73.5t90.5 -24.5q36 0 66.5 7t52.5 20.5t35 33t13 43.5z" />
    <glyph glyph-name="Gcircumflex" unicode="&#x11c;" 
d="M65 481q0 66 23.5 111.5t63 73.5t92 40.5t109.5 12.5q48 0 96.5 -6.5t87 -21.5t63 -40t24.5 -61q0 -18 -6 -38t-20 -43q-5 33 -28.5 56t-58.5 37.5t-76.5 21t-81.5 6.5q-39 0 -72 -8t-57 -27t-37 -50.5t-13 -77.5v-226q0 -47 13 -78t37 -50.5t57 -27.5t72 -8q40 0 73 5.5
t57 22t37 46.5t13 80v47h-128q-24 0 -38.5 11t-21.5 26.5t-9 32.5t-2 28q9 -4 21 -7q11 -3 27.5 -5t39.5 -2h220v-146q0 -65 -23.5 -108.5t-63.5 -70t-92 -38t-110 -11.5q-57 0 -109.5 12.5t-92 40.5t-63 73.5t-23.5 111.5v255zM358 875q-8 -8 -20 -19t-23.5 -24.5
t-20 -27.5t-8.5 -28q0 -8 5 -18q-30 11 -50 27.5t-20 37.5q0 25 37 58t100 75q63 -42 100 -75t37 -58q0 -21 -20 -37.5t-50 -27.5q5 10 5 18q0 14 -8.5 28t-20 27.5t-23.5 24.5t-20 19z" />
    <glyph glyph-name="gcircumflex" unicode="&#x11d;" horiz-adv-x="512" 
d="M260 691q-8 -8 -20 -19t-23.5 -24.5t-20 -27.5t-8.5 -28q0 -8 5 -18q-30 11 -50 27.5t-20 37.5q0 25 37 58t100 75q63 -42 100 -75t37 -58q0 -21 -20 -37.5t-50 -27.5q5 10 5 18q0 14 -8.5 28t-20 27.5t-23.5 24.5t-20 19zM363 420q-4 2 -32.5 11.5t-72.5 9.5
q-59 0 -81 -21.5t-22 -70.5v-22q0 -25 4.5 -44t16 -32.5t31.5 -20.5t52 -7q62 0 83 27t21 77v93zM467 312q0 -80 -53 -124.5t-155 -44.5q-31 0 -54.5 4.5t-40.5 9.5q-19 6 -33 15q-2 -12 -4.5 -24t-2.5 -22q0 -19 7.5 -30t22.5 -17t37 -8t51 -2h33q37 0 75 -2.5t68 -15.5
t49 -40.5t19 -78.5q0 -39 -13.5 -71t-41.5 -55t-71 -35.5t-101 -12.5q-47 0 -86 7t-66.5 21t-43 33.5t-15.5 45.5q0 17 7 36.5t23 41.5q4 -56 53 -80.5t123 -24.5q37 0 61.5 6.5t39.5 18.5t21 28.5t6 35.5q0 21 -8 33t-22.5 18t-35 8t-44.5 2h-49q-36 0 -69.5 3t-59.5 14.5
t-41.5 34t-15.5 61.5q0 30 14 53.5t36 49.5q-18 20 -27.5 49.5t-9.5 58.5v52q0 42 16 71.5t42.5 48t60.5 27t70 8.5q41 0 78 -10t72 -10q17 0 36 4t42 14v-205z" />
    <glyph glyph-name="Gbreve" unicode="&#x11e;" 
d="M65 481q0 66 23.5 111.5t63 73.5t92 40.5t109.5 12.5q48 0 96.5 -6.5t87 -21.5t63 -40t24.5 -61q0 -18 -6 -38t-20 -43q-5 33 -28.5 56t-58.5 37.5t-76.5 21t-81.5 6.5q-39 0 -72 -8t-57 -27t-37 -50.5t-13 -77.5v-226q0 -47 13 -78t37 -50.5t57 -27.5t72 -8q40 0 73 5.5
t57 22t37 46.5t13 80v47h-128q-24 0 -38.5 11t-21.5 26.5t-9 32.5t-2 28q9 -4 21 -7q11 -3 27.5 -5t39.5 -2h220v-146q0 -65 -23.5 -108.5t-63.5 -70t-92 -38t-110 -11.5q-57 0 -109.5 12.5t-92 40.5t-63 73.5t-23.5 111.5v255zM350 831q42 0 65 24t23 57q0 18 -8 37
q31 -5 47 -28t16 -52q0 -20 -9 -40t-26.5 -36t-44 -26t-62.5 -10q-37 0 -64 10t-45 26t-27 36t-9 40q0 29 16 52t47 28q-8 -19 -8 -37q0 -33 23.5 -57t65.5 -24z" />
    <glyph glyph-name="gbreve" unicode="&#x11f;" horiz-adv-x="512" 
d="M257 647q42 0 65 24t23 57q0 18 -8 37q31 -5 47 -28t16 -52q0 -20 -9 -40t-26.5 -36t-44 -26t-62.5 -10q-37 0 -64 10t-45 26t-27 36t-9 40q0 29 16 52t47 28q-8 -19 -8 -37q0 -33 23.5 -57t65.5 -24zM363 420q-4 2 -32.5 11.5t-72.5 9.5q-59 0 -81 -21.5t-22 -70.5v-22
q0 -25 4.5 -44t16 -32.5t31.5 -20.5t52 -7q62 0 83 27t21 77v93zM467 312q0 -80 -53 -124.5t-155 -44.5q-31 0 -54.5 4.5t-40.5 9.5q-19 6 -33 15q-2 -12 -4.5 -24t-2.5 -22q0 -19 7.5 -30t22.5 -17t37 -8t51 -2h33q37 0 75 -2.5t68 -15.5t49 -40.5t19 -78.5
q0 -39 -13.5 -71t-41.5 -55t-71 -35.5t-101 -12.5q-47 0 -86 7t-66.5 21t-43 33.5t-15.5 45.5q0 17 7 36.5t23 41.5q4 -56 53 -80.5t123 -24.5q37 0 61.5 6.5t39.5 18.5t21 28.5t6 35.5q0 21 -8 33t-22.5 18t-35 8t-44.5 2h-49q-36 0 -69.5 3t-59.5 14.5t-41.5 34
t-15.5 61.5q0 30 14 53.5t36 49.5q-18 20 -27.5 49.5t-9.5 58.5v52q0 42 16 71.5t42.5 48t60.5 27t70 8.5q41 0 78 -10t72 -10q17 0 36 4t42 14v-205z" />
    <glyph glyph-name="Gcommaaccent" unicode="&#x122;" 
d="M322 -36h67q12 0 21 -7.5t9 -21.5v-22q0 -28 -3.5 -52.5t-12.5 -43t-24.5 -29t-39.5 -10.5q-11 0 -25.5 3.5t-28.5 13.5q23 7 31.5 25.5t8.5 41.5q0 11 -1 21t-3 19l-11 62h12zM65 481q0 66 23.5 111.5t63 73.5t92 40.5t109.5 12.5q48 0 96.5 -6.5t87 -21.5t63 -40
t24.5 -61q0 -18 -6 -38t-20 -43q-5 33 -28.5 56t-58.5 37.5t-76.5 21t-81.5 6.5q-39 0 -72 -8t-57 -27t-37 -50.5t-13 -77.5v-226q0 -47 13 -78t37 -50.5t57 -27.5t72 -8q40 0 73 5.5t57 22t37 46.5t13 80v47h-128q-24 0 -38.5 11t-21.5 26.5t-9 32.5t-2 28q9 -4 21 -7
q11 -3 27.5 -5t39.5 -2h220v-146q0 -65 -23.5 -108.5t-63.5 -70t-92 -38t-110 -11.5q-57 0 -109.5 12.5t-92 40.5t-63 73.5t-23.5 111.5v255z" />
    <glyph glyph-name="gcommaaccent" unicode="&#x123;" horiz-adv-x="512" 
d="M301 583h-67q-12 0 -21 7.5t-9 21.5v22q0 28 3.5 52.5t12.5 43t24.5 29t39.5 10.5q11 0 25.5 -3.5t28.5 -13.5q-23 -7 -31.5 -25.5t-8.5 -41.5q0 -11 1 -21t3 -19l11 -62h-12zM363 420q-4 2 -32.5 11.5t-72.5 9.5q-59 0 -81 -21.5t-22 -70.5v-22q0 -25 4.5 -44t16 -32.5
t31.5 -20.5t52 -7q62 0 83 27t21 77v93zM467 312q0 -80 -53 -124.5t-155 -44.5q-31 0 -54.5 4.5t-40.5 9.5q-19 6 -33 15q-2 -12 -4.5 -24t-2.5 -22q0 -19 7.5 -30t22.5 -17t37 -8t51 -2h33q37 0 75 -2.5t68 -15.5t49 -40.5t19 -78.5q0 -39 -13.5 -71t-41.5 -55t-71 -35.5
t-101 -12.5q-47 0 -86 7t-66.5 21t-43 33.5t-15.5 45.5q0 17 7 36.5t23 41.5q4 -56 53 -80.5t123 -24.5q37 0 61.5 6.5t39.5 18.5t21 28.5t6 35.5q0 21 -8 33t-22.5 18t-35 8t-44.5 2h-49q-36 0 -69.5 3t-59.5 14.5t-41.5 34t-15.5 61.5q0 30 14 53.5t36 49.5
q-18 20 -27.5 49.5t-9.5 58.5v52q0 42 16 71.5t42.5 48t60.5 27t70 8.5q41 0 78 -10t72 -10q17 0 36 4t42 14v-205z" />
    <glyph glyph-name="Hcircumflex" unicode="&#x124;" horiz-adv-x="720" 
d="M536 319h-352v-329q-31 1 -55 7q-20 5 -37 16.5t-17 33.5v670q30 -1 54 -7q20 -5 37.5 -17t17.5 -33v-256h352v313q30 -1 54 -7q20 -5 37.5 -17t17.5 -33v-670q-31 1 -55 7q-20 5 -37 16.5t-17 33.5v272zM361 891q-8 -8 -20 -19t-23.5 -24.5t-20 -27.5t-8.5 -28
q0 -8 5 -18q-30 11 -50 27.5t-20 37.5q0 25 37 58t100 75q63 -42 100 -75t37 -58q0 -21 -20 -37.5t-50 -27.5q5 10 5 18q0 14 -8.5 28t-20 27.5t-23.5 24.5t-20 19z" />
    <glyph glyph-name="hcircumflex" unicode="&#x125;" horiz-adv-x="556" 
d="M279 891q-8 -8 -20 -19t-23.5 -24.5t-20 -27.5t-8.5 -28q0 -8 5 -18q-30 11 -50 27.5t-20 37.5q0 25 37 58t100 75q63 -42 100 -75t37 -58q0 -21 -20 -37.5t-50 -27.5q5 10 5 18q0 14 -8.5 28t-20 27.5t-23.5 24.5t-20 19zM170 -7q-30 1 -53 7q-20 5 -36 16.5t-16 33.5
v704q4 0 20.5 -1t35.5 -7t34 -19.5t15 -39.5v-139q0 -18 -1.5 -32t-3.5 -24q-2 -11 -4 -20q13 12 33 23q17 9 44 16.5t65 7.5t72 -10.5t60 -31.5t41 -52t15 -71v-361q-30 1 -53 7q-20 5 -36 17t-16 33v289q0 53 -27 76.5t-69 23.5q-23 0 -44.5 -6.5t-38 -18.5t-27 -28.5
t-10.5 -36.5v-356z" />
    <glyph glyph-name="Imacron" unicode="&#x12a;" horiz-adv-x="259" 
d="M75 717q30 -1 54 -7q20 -5 37.5 -17t17.5 -33v-670q-31 1 -55 7q-20 5 -37 16.5t-17 33.5v670zM283 863q5 -22 2 -39q-2 -14 -12.5 -26t-34.5 -12h-262q-5 21 -1 38q2 14 12.5 26.5t34.5 12.5h261z" />
    <glyph glyph-name="imacron" unicode="&#x12b;" horiz-adv-x="235" 
d="M65 511q2 0 19 -1t36 -6.5t34.5 -17.5t15.5 -33v-462q-30 1 -53 7q-20 5 -36 17t-16 34v462zM271 679q5 -22 2 -39q-2 -14 -12.5 -26t-34.5 -12h-262q-5 21 -1 38q2 14 12.5 26.5t34.5 12.5h261z" />
    <glyph glyph-name="Iogonek" unicode="&#x12e;" horiz-adv-x="259" 
d="M75 717q30 -1 54 -7q20 -5 37.5 -17t17.5 -33v-670q-26 -22 -47.5 -50.5t-21.5 -60.5q0 -18 13 -31t39 -13q17 0 34 5t23 8q0 -17 -8.5 -32.5t-22.5 -27t-32.5 -18.5t-37.5 -7q-43 0 -75 26.5t-32 78.5q0 40 25.5 74.5t66.5 61.5q-15 7 -24 16.5t-9 26.5v670z" />
    <glyph glyph-name="iogonek" unicode="&#x12f;" horiz-adv-x="235" 
d="M69 685h70q10 0 18.5 -6.5t8.5 -16.5v-78h-69q-11 0 -19.5 6.5t-8.5 17.5v77zM65 511q1 0 18 -1t36 -6.5t35 -17t16 -33.5v-461q-25 -23 -46 -52t-21 -61q0 -18 13 -31t39 -13q18 0 35 5t23 8q0 -17 -8.5 -32.5t-22.5 -27t-32.5 -18.5t-37.5 -7q-44 0 -75.5 26.5
t-31.5 78.5q0 41 26.5 75t68.5 61q-15 6 -25 17t-10 28v462z" />
    <glyph glyph-name="Idotaccent" unicode="&#x130;" horiz-adv-x="259" 
d="M77 883h75q9 0 19 -8t10 -17v-76h-74q-11 0 -20.5 7t-9.5 17v77zM75 717q30 -1 54 -7q20 -5 37.5 -17t17.5 -33v-670q-31 1 -55 7q-20 5 -37 16.5t-17 33.5v670z" />
    <glyph glyph-name="dotlessi" unicode="&#x131;" horiz-adv-x="235" 
d="M65 511q2 0 19 -1t36 -6.5t34.5 -17.5t15.5 -33v-462q-30 1 -53 7q-20 5 -36 17t-16 34v462z" />
    <glyph glyph-name="Jcircumflex" unicode="&#x134;" horiz-adv-x="269" 
d="M194 -40q0 -32 -7.5 -61t-21.5 -50.5t-34.5 -34.5t-46.5 -13q-17 0 -38.5 7t-47.5 30q25 0 41.5 16t26.5 39.5t14.5 50.5t4.5 50v723q1 0 18 -1t37.5 -6t37 -17.5t16.5 -34.5v-698zM138 875q-8 -8 -20 -19t-23.5 -24.5t-20 -27.5t-8.5 -28q0 -8 5 -18q-30 11 -50 27.5
t-20 37.5q0 25 37 58t100 75q63 -42 100 -75t37 -58q0 -21 -20 -37.5t-50 -27.5q5 10 5 18q0 14 -8.5 28t-20 27.5t-23.5 24.5t-20 19z" />
    <glyph glyph-name="jcircumflex" unicode="&#x135;" horiz-adv-x="235" 
d="M118 691q-8 -8 -20 -19t-23.5 -24.5t-20 -27.5t-8.5 -28q0 -8 5 -18q-30 11 -50 27.5t-20 37.5q0 25 37 58t100 75q63 -42 100 -75t37 -58q0 -21 -20 -37.5t-50 -27.5q5 10 5 18q0 14 -8.5 28t-20 27.5t-23.5 24.5t-20 19zM169 -90q0 -30 -7 -57t-20.5 -47.5t-33 -32.5
t-44.5 -12q-17 0 -37 6.5t-45 28.5q23 0 39 15t25.5 37t13.5 47.5t4 46.5v572q29 -1 52 -7q20 -5 36.5 -17t16.5 -33v-547z" />
    <glyph glyph-name="Kcommaaccent" unicode="&#x136;" horiz-adv-x="620" 
d="M293 -36h67q12 0 21 -7.5t9 -21.5v-22q0 -28 -3.5 -52.5t-12.5 -43t-24.5 -29t-39.5 -10.5q-11 0 -25.5 3.5t-28.5 13.5q23 7 31.5 25.5t8.5 41.5q0 11 -1 21t-3 19l-11 62h12zM184 -10q-31 1 -55 7q-20 5 -37 16.5t-17 33.5v670q30 -1 54 -7q20 -5 37.5 -17t17.5 -33
v-243q45 6 80.5 24.5t66.5 49.5t59 72.5t57 94.5q21 38 50.5 49.5t53.5 11.5q8 0 15.5 -1t14.5 -2q8 -2 15 -3q-26 -39 -52 -90t-58.5 -99.5t-72.5 -88t-93 -55.5q40 -9 73.5 -33.5t62.5 -59t53 -75.5t44.5 -80t38.5 -74.5t34 -58.5q-7 -2 -15 -4q-14 -3 -30 -3
q-12 0 -27 2.5t-30.5 9t-30.5 18.5t-25 31q-27 49 -53 98t-57.5 89t-73.5 67.5t-100 35.5v-353z" />
    <glyph glyph-name="kcommaaccent" unicode="&#x137;" horiz-adv-x="506" 
d="M240 -36h67q12 0 21 -7.5t9 -21.5v-22q0 -28 -3.5 -52.5t-12.5 -43t-24.5 -29t-39.5 -10.5q-11 0 -25.5 3.5t-28.5 13.5q23 7 31.5 25.5t8.5 41.5q0 11 -1 21t-3 19l-11 62h12zM284 290q40 -12 68.5 -31.5t49 -44t34.5 -52.5t25.5 -56t21.5 -54.5t23 -48.5q-12 -3 -23 -5
q-9 -2 -19 -3.5t-16 -1.5q-32 0 -48.5 16.5t-28.5 42.5t-23.5 56.5t-32 58.5t-54.5 49t-91 28v-251q-30 1 -53 7q-20 5 -36 16.5t-16 33.5v706q29 -1 52 -7q20 -5 36.5 -17t16.5 -33v-373q28 2 49.5 11.5t40 27t35.5 43.5t35 61q10 18 31 31.5t59 13.5q24 0 50 -8
q-18 -25 -36 -58.5t-40 -65.5t-48.5 -57.5t-61.5 -34.5z" />
    <glyph glyph-name="Lacute" unicode="&#x139;" horiz-adv-x="524" 
d="M171 0q-27 1 -48 7q-18 5 -33 16.5t-15 33.5v660q30 -1 54 -7q20 -5 37.5 -17t17.5 -33v-576h235q29 0 48 2t30 5q13 4 21 8q0 -15 -2.5 -32.5t-9.5 -32.5t-19.5 -24.5t-31.5 -9.5h-284zM170 956q39 -9 57 -26.5t19 -38.5t-13.5 -44t-40.5 -44l-60 -47q-18 4 -31 9
q-12 5 -21.5 11.5t-9.5 16.5q0 5 5 12t12 14.5t15 15.5l14 14q29 29 44.5 48t15.5 36q0 13 -6 23z" />
    <glyph glyph-name="lacute" unicode="&#x13a;" horiz-adv-x="235" 
d="M154 981q39 -9 57 -26.5t19 -38.5t-13.5 -44t-40.5 -44l-60 -47q-18 4 -31 9q-12 5 -21.5 11.5t-9.5 16.5q0 5 5 12t12 14.5t15 15.5l14 14q29 29 44.5 48t15.5 36q0 13 -6 23zM60 756q2 0 19 -1t36 -6.5t34.5 -17t15.5 -32.5v-525q0 -21 2.5 -47t10 -48.5t21.5 -38
t37 -15.5q-18 -20 -36 -26t-35 -6q-27 0 -47 12t-32.5 32.5t-19 47.5t-6.5 57v614z" />
    <glyph glyph-name="Lcommaaccent" unicode="&#x13b;" horiz-adv-x="524" 
d="M243 -36h67q12 0 21 -7.5t9 -21.5v-22q0 -28 -3.5 -52.5t-12.5 -43t-24.5 -29t-39.5 -10.5q-11 0 -25.5 3.5t-28.5 13.5q23 7 31.5 25.5t8.5 41.5q0 11 -1 21t-3 19l-11 62h12zM171 0q-27 1 -48 7q-18 5 -33 16.5t-15 33.5v660q30 -1 54 -7q20 -5 37.5 -17t17.5 -33v-576
h235q29 0 48 2t30 5q13 4 21 8q0 -15 -2.5 -32.5t-9.5 -32.5t-19.5 -24.5t-31.5 -9.5h-284z" />
    <glyph glyph-name="lcommaaccent" unicode="&#x13c;" horiz-adv-x="235" 
d="M96 -36h67q12 0 21 -7.5t9 -21.5v-22q0 -28 -3.5 -52.5t-12.5 -43t-24.5 -29t-39.5 -10.5q-11 0 -25.5 3.5t-28.5 13.5q23 7 31.5 25.5t8.5 41.5q0 11 -1 21t-3 19l-11 62h12zM60 756q2 0 19 -1t36 -6.5t34.5 -17t15.5 -32.5v-525q0 -21 2.5 -47t10 -48.5t21.5 -38
t37 -15.5q-18 -20 -36 -26t-35 -6q-27 0 -47 12t-32.5 32.5t-19 47.5t-6.5 57v614z" />
    <glyph glyph-name="Lcaron" unicode="&#x13d;" horiz-adv-x="524" 
d="M313 707h67q12 0 21 -7.5t9 -21.5v-22q0 -28 -3.5 -52.5t-12.5 -43t-24.5 -29t-39.5 -10.5q-11 0 -25.5 3.5t-28.5 13.5q23 7 31.5 25.5t8.5 41.5q0 11 -1 21t-3 19l-11 62h12zM171 0q-27 1 -48 7q-18 5 -33 16.5t-15 33.5v660q30 -1 54 -7q20 -5 37.5 -17t17.5 -33v-576
h235q29 0 48 2t30 5q13 4 21 8q0 -15 -2.5 -32.5t-9.5 -32.5t-19.5 -24.5t-31.5 -9.5h-284z" />
    <glyph glyph-name="lcaron" unicode="&#x13e;" horiz-adv-x="366" 
d="M247 707h67q12 0 21 -7.5t9 -21.5v-22q0 -28 -3.5 -52.5t-12.5 -43t-24.5 -29t-39.5 -10.5q-11 0 -25.5 3.5t-28.5 13.5q23 7 31.5 25.5t8.5 41.5q0 11 -1 21t-3 19l-11 62h12zM60 756q2 0 19 -1t36 -6.5t34.5 -17t15.5 -32.5v-525q0 -21 2.5 -47t10 -48.5t21.5 -38
t37 -15.5q-18 -20 -36 -26t-35 -6q-27 0 -47 12t-32.5 32.5t-19 47.5t-6.5 57v614z" />
    <glyph glyph-name="Lslash" unicode="&#x141;" horiz-adv-x="524" 
d="M171 0q-27 1 -48 7q-18 5 -33 16.5t-15 33.5v283l-49 -20q-13 22 -17 40q-4 16 -0.5 32t23.5 24l43 17v284q30 -1 54 -7q20 -5 37.5 -17t17.5 -33v-183l52 23q5 -5 11.5 -18t8.5 -28.5t-3 -30t-23 -21.5l-46 -18v-300h235q29 0 48 2t30 5q13 4 21 8q0 -15 -2.5 -32.5
t-9.5 -32.5t-19.5 -24.5t-31.5 -9.5h-284z" />
    <glyph glyph-name="lslash" unicode="&#x142;" horiz-adv-x="245" 
d="M65 341l-48 -19q-2 0 -5.5 6.5t-6.5 15.5t-5.5 18.5t-2.5 16.5q0 11 5.5 22t20.5 17l42 17v321q1 0 18 -1t36 -6t35 -17t16 -33v-222q13 6 26 11.5t27 10.5q5 -8 9 -17q4 -8 7 -17t3 -18q0 -27 -20 -39t-52 -25v-210q0 -21 2.5 -47t10 -48.5t21.5 -38t37 -15.5
q-18 -20 -36 -26t-35 -6q-25 0 -44.5 12t-33 32.5t-20.5 47.5t-7 57v200z" />
    <glyph glyph-name="Nacute" unicode="&#x143;" horiz-adv-x="721" 
d="M495 233l53 -84q-3 15 -6 32q-2 14 -3.5 30.5t-1.5 31.5v464q30 -1 54 -7q20 -5 37.5 -17t17.5 -33v-660q-49 0 -79.5 10.5t-48.5 23.5q-21 15 -31 34l-314 503q2 -15 5 -32q2 -14 4 -31.5t2 -34.5v-473q-31 1 -55 7q-20 5 -37 16.5t-17 33.5v660q25 0 48.5 -1t43.5 -6
t37 -15.5t29 -30.5zM400 956q39 -9 57 -26.5t19 -38.5t-13.5 -44t-40.5 -44l-60 -47q-18 4 -31 9q-12 5 -21.5 11.5t-9.5 16.5q0 5 5 12t12 14.5t15 15.5l14 14q29 29 44.5 48t15.5 36q0 13 -6 23z" />
    <glyph glyph-name="nacute" unicode="&#x144;" horiz-adv-x="556" 
d="M320 772q39 -9 57 -26.5t19 -38.5t-13.5 -44t-40.5 -44l-60 -47q-18 4 -31 9q-12 5 -21.5 11.5t-9.5 16.5q0 5 5 12t12 14.5t15 15.5l14 14q29 29 44.5 48t15.5 36q0 13 -6 23zM386 347q0 43 -24.5 66.5t-84.5 23.5q-23 0 -43 -3t-34 -6q-17 -4 -30 -8v-427q-30 1 -53 7
q-20 5 -36 16.5t-16 33.5v467q8 -5 29.5 -12t47.5 -7q18 0 36 3.5l36 7t37 7t40 3.5q36 0 72 -7t64.5 -25t46 -48.5t17.5 -76.5v-369q-30 2 -53 8q-20 5 -36 16.5t-16 32.5v297z" />
    <glyph glyph-name="Ncommaaccent" unicode="&#x145;" horiz-adv-x="721" 
d="M327 -36h67q12 0 21 -7.5t9 -21.5v-22q0 -28 -3.5 -52.5t-12.5 -43t-24.5 -29t-39.5 -10.5q-11 0 -25.5 3.5t-28.5 13.5q23 7 31.5 25.5t8.5 41.5q0 11 -1 21t-3 19l-11 62h12zM495 233l53 -84q-3 15 -6 32q-2 14 -3.5 30.5t-1.5 31.5v464q30 -1 54 -7q20 -5 37.5 -17
t17.5 -33v-660q-49 0 -79.5 10.5t-48.5 23.5q-21 15 -31 34l-314 503q2 -15 5 -32q2 -14 4 -31.5t2 -34.5v-473q-31 1 -55 7q-20 5 -37 16.5t-17 33.5v660q25 0 48.5 -1t43.5 -6t37 -15.5t29 -30.5z" />
    <glyph glyph-name="ncommaaccent" unicode="&#x146;" horiz-adv-x="556" 
d="M242 -36h67q12 0 21 -7.5t9 -21.5v-22q0 -28 -3.5 -52.5t-12.5 -43t-24.5 -29t-39.5 -10.5q-11 0 -25.5 3.5t-28.5 13.5q23 7 31.5 25.5t8.5 41.5q0 11 -1 21t-3 19l-11 62h12zM386 347q0 43 -24.5 66.5t-84.5 23.5q-23 0 -43 -3t-34 -6q-17 -4 -30 -8v-427q-30 1 -53 7
q-20 5 -36 16.5t-16 33.5v467q8 -5 29.5 -12t47.5 -7q18 0 36 3.5l36 7t37 7t40 3.5q36 0 72 -7t64.5 -25t46 -48.5t17.5 -76.5v-369q-30 2 -53 8q-20 5 -36 16.5t-16 32.5v297z" />
    <glyph glyph-name="Ncaron" unicode="&#x147;" horiz-adv-x="721" 
d="M495 233l53 -84q-3 15 -6 32q-2 14 -3.5 30.5t-1.5 31.5v464q30 -1 54 -7q20 -5 37.5 -17t17.5 -33v-660q-49 0 -79.5 10.5t-48.5 23.5q-21 15 -31 34l-314 503q2 -15 5 -32q2 -14 4 -31.5t2 -34.5v-473q-31 1 -55 7q-20 5 -37 16.5t-17 33.5v660q25 0 48.5 -1t43.5 -6
t37 -15.5t29 -30.5zM292 956q-5 -8 -5 -18q0 -14 8.5 -28.5t20 -27.5t23.5 -24t20 -19l28 25q19 17 31 36.5t13 37.5q0 8 -5 18q33 -12 53 -28.5t20 -36.5q0 -14 -10.5 -29t-27.5 -31.5t-40.5 -34.5t-48.5 -38h-26q-26 21 -49.5 39t-40.5 34.5t-27 31.5t-10 28
q0 21 20.5 37.5t52.5 27.5z" />
    <glyph glyph-name="ncaron" unicode="&#x148;" horiz-adv-x="556" 
d="M212 772q-5 -8 -5 -18q0 -14 8.5 -28.5t20 -27.5t23.5 -24t20 -19l28 25q19 17 31 36.5t13 37.5q0 8 -5 18q33 -12 53 -28.5t20 -36.5q0 -14 -10.5 -29t-27.5 -31.5t-40.5 -34.5t-48.5 -38h-26q-26 21 -49.5 39t-40.5 34.5t-27 31.5t-10 28q0 21 20.5 37.5t52.5 27.5z
M386 347q0 43 -24.5 66.5t-84.5 23.5q-23 0 -43 -3t-34 -6q-17 -4 -30 -8v-427q-30 1 -53 7q-20 5 -36 16.5t-16 33.5v467q8 -5 29.5 -12t47.5 -7q18 0 36 3.5l36 7t37 7t40 3.5q36 0 72 -7t64.5 -25t46 -48.5t17.5 -76.5v-369q-30 2 -53 8q-20 5 -36 16.5t-16 32.5v297z
" />
    <glyph glyph-name="Omacron" unicode="&#x14c;" 
d="M533 477q0 37 -7 66.5t-26.5 49.5t-55 31t-92.5 11q-56 0 -90.5 -11t-54 -31t-26.5 -49.5t-7 -66.5v-247q0 -37 7 -66.5t26.5 -49.5t54 -31t90.5 -11q57 0 92.5 11t55 31t26.5 49.5t7 66.5v247zM642 217q0 -107 -70.5 -168t-218.5 -61t-218 61t-70 168v273q0 107 70 168
t218 61t218.5 -61t70.5 -168v-273zM507 863q5 -22 2 -39q-2 -14 -12.5 -26t-34.5 -12h-262q-5 21 -1 38q2 14 12.5 26.5t34.5 12.5h261z" />
    <glyph glyph-name="omacron" unicode="&#x14d;" horiz-adv-x="567" 
d="M436 679q5 -22 2 -39q-2 -14 -12.5 -26t-34.5 -12h-262q-5 21 -1 38q2 14 12.5 26.5t34.5 12.5h261zM407 336q0 24 -5 43.5t-18.5 32.5t-37.5 20t-63 7q-38 0 -62 -7t-37.5 -20t-18.5 -32.5t-5 -43.5v-165q0 -24 5 -43.5t18.5 -32.5t37.5 -20t62 -7q39 0 63 7t37.5 20
t18.5 32.5t5 43.5v165zM512 156q0 -79 -55.5 -123.5t-173.5 -44.5q-117 0 -172.5 44.5t-55.5 123.5v195q0 79 55.5 123.5t172.5 44.5q118 0 173.5 -44.5t55.5 -123.5v-195z" />
    <glyph glyph-name="Ohungarumlaut" unicode="&#x150;" 
d="M533 477q0 37 -7 66.5t-26.5 49.5t-55 31t-92.5 11q-56 0 -90.5 -11t-54 -31t-26.5 -49.5t-7 -66.5v-247q0 -37 7 -66.5t26.5 -49.5t54 -31t90.5 -11q57 0 92.5 11t55 31t26.5 49.5t7 66.5v247zM642 217q0 -107 -70.5 -168t-218.5 -61t-218 61t-70 168v273q0 107 70 168
t218 61t218.5 -61t70.5 -168v-273zM281 956q34 -8 54 -24.5t20 -39.5q0 -15 -10.5 -32.5t-33.5 -35.5l-54 -43q-14 3 -25 7q-10 4 -17.5 10.5t-7.5 15.5q0 11 11 22l33 35q36 37 37 64q0 5 -2 10t-5 11zM463 956q73 -22 73 -64q0 -41 -69 -95l-55 -43q-16 3 -28 8
q-11 5 -19 11t-8 16t11 21l50 48q22 21 36.5 39.5t14.5 35.5q0 11 -6 23z" />
    <glyph glyph-name="ohungarumlaut" unicode="&#x151;" horiz-adv-x="567" 
d="M210 772q34 -8 54 -24.5t20 -39.5q0 -15 -10.5 -32.5t-33.5 -35.5l-54 -43q-14 3 -25 7q-10 4 -17.5 10.5t-7.5 15.5q0 11 11 22l33 35q36 37 37 64q0 5 -2 10t-5 11zM392 772q73 -22 73 -64q0 -41 -69 -95l-55 -43q-16 3 -28 8q-11 5 -19 11t-8 16t11 21l50 48
q22 21 36.5 39.5t14.5 35.5q0 11 -6 23zM407 336q0 24 -5 43.5t-18.5 32.5t-37.5 20t-63 7q-38 0 -62 -7t-37.5 -20t-18.5 -32.5t-5 -43.5v-165q0 -24 5 -43.5t18.5 -32.5t37.5 -20t62 -7q39 0 63 7t37.5 20t18.5 32.5t5 43.5v165zM512 156q0 -79 -55.5 -123.5t-173.5 -44.5
q-117 0 -172.5 44.5t-55.5 123.5v195q0 79 55.5 123.5t172.5 44.5q118 0 173.5 -44.5t55.5 -123.5v-195z" />
    <glyph glyph-name="OE" unicode="&#x152;" horiz-adv-x="837" 
d="M381 83v541h-29q-56 0 -90.5 -11t-54 -32.5t-26.5 -53t-7 -72.5v-203q0 -41 7 -72.5t26.5 -53t54 -32.5t90.5 -11h29zM490 340v-257h307q0 -2 -1.5 -15t-7.5 -28t-18.5 -27.5t-35.5 -12.5h-393q-142 2 -209 64t-67 175v229q0 115 70 177t218 62h444q-1 -24 -8 -42
q-6 -16 -19 -28.5t-36 -12.5h-244v-200h169q29 0 48 2.5t30 5.5q13 4 20 8q0 -15 -2.5 -32.5t-11.5 -32.5t-25 -25t-43 -10h-185z" />
    <glyph glyph-name="oe" unicode="&#x153;" horiz-adv-x="870" 
d="M512 302q2 -1 11 -3t22 -4t27.5 -3.5t28.5 -1.5q63 0 88 18.5t25 52.5q0 35 -22.5 56.5t-78.5 21.5q-60 0 -80.5 -27t-20.5 -76v-34zM283 69q36 0 59.5 6t37.5 18t20 29.5t7 39.5v178q0 24 -5.5 42t-19.5 31t-38 19.5t-61 6.5q-38 0 -62 -7t-37.5 -20t-18.5 -32.5
t-5 -43.5v-164q0 -24 5 -43.5t18.5 -32.5t37.5 -20t62 -7zM797 178q28 -41 28 -76q0 -27 -15.5 -48t-42 -35.5t-62 -22t-75.5 -7.5q-55 0 -101.5 13.5t-67.5 45.5q-21 -32 -69 -45.5t-109 -13.5q-117 0 -172.5 44.5t-55.5 123.5v194q0 79 55.5 123.5t172.5 44.5
q60 0 107.5 -13.5t67.5 -44.5q19 31 61.5 44.5t95.5 13.5q102 0 153 -43t51 -115q0 -31 -10.5 -59.5t-35 -50t-63.5 -34t-96 -12.5q-14 0 -29.5 2t-30 5t-25.5 6t-17 6v-54q0 -48 27.5 -72t90.5 -24q36 0 66.5 7t52.5 20.5t35 33t13 43.5z" />
    <glyph glyph-name="Racute" unicode="&#x154;" horiz-adv-x="589" 
d="M184 623v-224h117q74 0 103 29.5t29 88.5q0 60 -34 83t-106 23h-109zM542 502q0 -41 -14.5 -74.5t-40 -56.5t-60.5 -35.5t-77 -12.5q49 -24 84 -66t62 -89t48 -93t42 -77q-7 -2 -15 -3q-14 -3 -30 -3q-12 0 -26.5 2t-29 9t-28.5 18.5t-24 31.5q-25 46 -47 89t-49 78
t-63.5 59.5t-89.5 35.5v-325q-31 1 -55 7q-20 5 -37 17t-17 33v660h218q54 0 100 -9t79 -29t51.5 -54t18.5 -83v-30zM304 972q39 -9 57 -26.5t19 -38.5t-13.5 -44t-40.5 -44l-60 -47q-18 4 -31 9q-12 5 -21.5 11.5t-9.5 16.5q0 5 5 12t12 14.5t15 15.5l14 14q29 29 44.5 48
t15.5 36q0 13 -6 23z" />
    <glyph glyph-name="racute" unicode="&#x155;" horiz-adv-x="399" 
d="M246 772q39 -9 57 -26.5t19 -38.5t-13.5 -44t-40.5 -44l-60 -47q-18 4 -31 9q-12 5 -21.5 11.5t-9.5 16.5q0 5 5 12t12 14.5t15 15.5l14 14q29 29 44.5 48t15.5 36q0 13 -6 23zM255 433q-17 0 -32 -2.5l-27 -4.5q-14 -4 -26 -7v-426q-30 1 -53 7q-20 5 -36 17t-16 34v465
q20 -10 37 -14t32 -4q16 0 32 3.5t32.5 7t35 7t39.5 3.5q26 0 49 -5t40 -15.5t27 -27t10 -39.5q0 -28 -13 -49.5t-24 -35.5q0 22 -8.5 38.5t-23 27t-34 15.5t-41.5 5z" />
    <glyph glyph-name="Rcommaaccent" unicode="&#x156;" horiz-adv-x="589" 
d="M283 -36h67q12 0 21 -7.5t9 -21.5v-22q0 -28 -3.5 -52.5t-12.5 -43t-24.5 -29t-39.5 -10.5q-11 0 -25.5 3.5t-28.5 13.5q23 7 31.5 25.5t8.5 41.5q0 11 -1 21t-3 19l-11 62h12zM184 623v-224h117q74 0 103 29.5t29 88.5q0 60 -34 83t-106 23h-109zM542 502
q0 -41 -14.5 -74.5t-40 -56.5t-60.5 -35.5t-77 -12.5q49 -24 84 -66t62 -89t48 -93t42 -77q-7 -2 -15 -3q-14 -3 -30 -3q-12 0 -26.5 2t-29 9t-28.5 18.5t-24 31.5q-25 46 -47 89t-49 78t-63.5 59.5t-89.5 35.5v-325q-31 1 -55 7q-20 5 -37 17t-17 33v660h218q54 0 100 -9
t79 -29t51.5 -54t18.5 -83v-30z" />
    <glyph glyph-name="rcommaaccent" unicode="&#x157;" horiz-adv-x="399" 
d="M83 -36h67q12 0 21 -7.5t9 -21.5v-22q0 -28 -3.5 -52.5t-12.5 -43t-24.5 -29t-39.5 -10.5q-11 0 -25.5 3.5t-28.5 13.5q23 7 31.5 25.5t8.5 41.5q0 11 -1 21t-3 19l-11 62h12zM255 433q-17 0 -32 -2.5l-27 -4.5q-14 -4 -26 -7v-426q-30 1 -53 7q-20 5 -36 17t-16 34v465
q20 -10 37 -14t32 -4q16 0 32 3.5t32.5 7t35 7t39.5 3.5q26 0 49 -5t40 -15.5t27 -27t10 -39.5q0 -28 -13 -49.5t-24 -35.5q0 22 -8.5 38.5t-23 27t-34 15.5t-41.5 5z" />
    <glyph glyph-name="Rcaron" unicode="&#x158;" horiz-adv-x="589" 
d="M184 623v-224h117q74 0 103 29.5t29 88.5q0 60 -34 83t-106 23h-109zM542 502q0 -41 -14.5 -74.5t-40 -56.5t-60.5 -35.5t-77 -12.5q49 -24 84 -66t62 -89t48 -93t42 -77q-7 -2 -15 -3q-14 -3 -30 -3q-12 0 -26.5 2t-29 9t-28.5 18.5t-24 31.5q-25 46 -47 89t-49 78
t-63.5 59.5t-89.5 35.5v-325q-31 1 -55 7q-20 5 -37 17t-17 33v660h218q54 0 100 -9t79 -29t51.5 -54t18.5 -83v-30zM227 972q-5 -8 -5 -18q0 -14 8.5 -28.5t20 -27.5t23.5 -24t20 -19l28 25q19 17 31 36.5t13 37.5q0 8 -5 18q33 -12 53 -28.5t20 -36.5q0 -14 -10.5 -29
t-27.5 -31.5t-40.5 -34.5t-48.5 -38h-26q-26 21 -49.5 39t-40.5 34.5t-27 31.5t-10 28q0 21 20.5 37.5t52.5 27.5z" />
    <glyph glyph-name="rcaron" unicode="&#x159;" horiz-adv-x="399" 
d="M153 772q-5 -8 -5 -18q0 -14 8.5 -28.5t20 -27.5t23.5 -24t20 -19l28 25q19 17 31 36.5t13 37.5q0 8 -5 18q33 -12 53 -28.5t20 -36.5q0 -14 -10.5 -29t-27.5 -31.5t-40.5 -34.5t-48.5 -38h-26q-26 21 -49.5 39t-40.5 34.5t-27 31.5t-10 28q0 21 20.5 37.5t52.5 27.5z
M255 433q-17 0 -32 -2.5l-27 -4.5q-14 -4 -26 -7v-426q-30 1 -53 7q-20 5 -36 17t-16 34v465q20 -10 37 -14t32 -4q16 0 32 3.5t32.5 7t35 7t39.5 3.5q26 0 49 -5t40 -15.5t27 -27t10 -39.5q0 -28 -13 -49.5t-24 -35.5q0 22 -8.5 38.5t-23 27t-34 15.5t-41.5 5z" />
    <glyph glyph-name="Sacute" unicode="&#x15a;" horiz-adv-x="645" 
d="M45 513q0 60 22 100t60 64t88.5 34t108.5 10q50 0 96 -5.5t80.5 -19t55 -36.5t20.5 -59q0 -40 -29 -94v6q0 36 -19.5 59t-51.5 35.5t-72 17.5t-80 5q-35 0 -64.5 -6t-51.5 -18.5t-34.5 -32t-12.5 -47.5q0 -33 19 -51.5t49.5 -29t70 -16t81 -13t81 -19.5t70 -35
t49.5 -60.5t19 -95.5q0 -54 -21 -95t-58 -68t-88 -40.5t-111 -13.5q-46 0 -92.5 5.5t-83.5 19.5t-60 37t-23 59q0 18 7 40t23 48q0 -38 21 -61t54.5 -36t74 -17.5t79.5 -4.5q81 0 121.5 32.5t40.5 87.5q0 37 -19 58.5t-49.5 34t-70 19.5t-81 14t-81 17.5t-70 31t-49.5 54
t-19 85.5zM361 956q39 -9 57 -26.5t19 -38.5t-13.5 -44t-40.5 -44l-60 -47q-18 4 -31 9q-12 5 -21.5 11.5t-9.5 16.5q0 5 5 12t12 14.5t15 15.5l14 14q29 29 44.5 48t15.5 36q0 13 -6 23z" />
    <glyph glyph-name="sacute" unicode="&#x15b;" horiz-adv-x="498" 
d="M283 772q39 -9 57 -26.5t19 -38.5t-13.5 -44t-40.5 -44l-60 -47q-18 4 -31 9q-12 5 -21.5 11.5t-9.5 16.5q0 5 5 12t12 14.5t15 15.5l14 14q29 29 44.5 48t15.5 36q0 13 -6 23zM35 359q0 81 53.5 121.5t156.5 40.5q43 0 78.5 -6t61 -18t39.5 -31t14 -44q0 -18 -8 -39.5
t-26 -46.5q0 49 -42.5 73.5t-111.5 24.5q-60 0 -84 -17t-24 -55q0 -20 14 -30t36.5 -15t51 -7.5t59 -7t59 -13t51 -26t36.5 -46t14 -72.5q0 -72 -53.5 -114.5t-164.5 -42.5q-44 0 -81.5 6.5t-64.5 19.5t-42.5 32.5t-15.5 45.5q0 19 9 40t30 47q1 -30 14.5 -50t36 -32.5
t52 -18t62.5 -5.5q48 0 79.5 19t31.5 58q0 31 -24 44t-59.5 18.5t-77 9t-77 16t-59.5 40.5t-24 81z" />
    <glyph glyph-name="Scircumflex" unicode="&#x15c;" horiz-adv-x="645" 
d="M45 513q0 60 22 100t60 64t88.5 34t108.5 10q50 0 96 -5.5t80.5 -19t55 -36.5t20.5 -59q0 -40 -29 -94v6q0 36 -19.5 59t-51.5 35.5t-72 17.5t-80 5q-35 0 -64.5 -6t-51.5 -18.5t-34.5 -32t-12.5 -47.5q0 -33 19 -51.5t49.5 -29t70 -16t81 -13t81 -19.5t70 -35
t49.5 -60.5t19 -95.5q0 -54 -21 -95t-58 -68t-88 -40.5t-111 -13.5q-46 0 -92.5 5.5t-83.5 19.5t-60 37t-23 59q0 18 7 40t23 48q0 -38 21 -61t54.5 -36t74 -17.5t79.5 -4.5q81 0 121.5 32.5t40.5 87.5q0 37 -19 58.5t-49.5 34t-70 19.5t-81 14t-81 17.5t-70 31t-49.5 54
t-19 85.5zM318 875q-8 -8 -20 -19t-23.5 -24.5t-20 -27.5t-8.5 -28q0 -8 5 -18q-30 11 -50 27.5t-20 37.5q0 25 37 58t100 75q63 -42 100 -75t37 -58q0 -21 -20 -37.5t-50 -27.5q5 10 5 18q0 14 -8.5 28t-20 27.5t-23.5 24.5t-20 19z" />
    <glyph glyph-name="scircumflex" unicode="&#x15d;" horiz-adv-x="498" 
d="M240 691q-8 -8 -20 -19t-23.5 -24.5t-20 -27.5t-8.5 -28q0 -8 5 -18q-30 11 -50 27.5t-20 37.5q0 25 37 58t100 75q63 -42 100 -75t37 -58q0 -21 -20 -37.5t-50 -27.5q5 10 5 18q0 14 -8.5 28t-20 27.5t-23.5 24.5t-20 19zM35 359q0 81 53.5 121.5t156.5 40.5
q43 0 78.5 -6t61 -18t39.5 -31t14 -44q0 -18 -8 -39.5t-26 -46.5q0 49 -42.5 73.5t-111.5 24.5q-60 0 -84 -17t-24 -55q0 -20 14 -30t36.5 -15t51 -7.5t59 -7t59 -13t51 -26t36.5 -46t14 -72.5q0 -72 -53.5 -114.5t-164.5 -42.5q-44 0 -81.5 6.5t-64.5 19.5t-42.5 32.5
t-15.5 45.5q0 19 9 40t30 47q1 -30 14.5 -50t36 -32.5t52 -18t62.5 -5.5q48 0 79.5 19t31.5 58q0 31 -24 44t-59.5 18.5t-77 9t-77 16t-59.5 40.5t-24 81z" />
    <glyph glyph-name="Scedilla" unicode="&#x15e;" horiz-adv-x="645" 
d="M257 -87q5 20 11.5 39t13.5 38q-42 2 -81 9t-70 21t-49.5 36t-18.5 54q0 18 7 40t23 48q0 -38 21 -61t54.5 -36t74 -17.5t79.5 -4.5q81 0 121.5 32.5t40.5 87.5q0 37 -19 58.5t-49.5 34t-70 19.5t-81 14t-81 17.5t-70 31t-49.5 54t-19 85.5q0 60 22 100t60 64t88.5 34
t108.5 10q50 0 96 -5.5t80.5 -19t55 -36.5t20.5 -59q0 -40 -29 -94v6q0 36 -19.5 59t-51.5 35.5t-72 17.5t-80 5q-35 0 -64.5 -6t-51.5 -18.5t-34.5 -32t-12.5 -47.5q0 -33 19 -51.5t49.5 -29t70 -16t81 -13t81 -19.5t70 -35t49.5 -60.5t19 -95.5q0 -52 -19 -91.5t-53 -66.5
t-81 -41.5t-103 -16.5q-2 -9 -3 -18t-3 -19h6q45 0 74.5 -25.5t29.5 -70.5q0 -23 -9.5 -40.5t-25 -29.5t-35.5 -18t-41 -6q-23 0 -39 7t-26.5 17.5t-15 22.5t-4.5 21q8 -4 23.5 -8t34.5 -4q21 0 39 9.5t18 32.5q0 24 -20 32.5t-41 8.5q-10 0 -19.5 -2t-17.5 -4
q-10 -3 -18 -5z" />
    <glyph glyph-name="scedilla" unicode="&#x15f;" horiz-adv-x="498" 
d="M183 -87q5 19 11.5 38t13.5 38q-74 5 -120.5 30.5t-46.5 72.5q0 19 9 40t30 47q1 -30 14.5 -50t36 -32.5t52 -18t62.5 -5.5q48 0 79.5 19t31.5 58q0 31 -24 44t-59.5 18.5t-77 9t-77 16t-59.5 40.5t-24 81q0 81 53.5 121.5t156.5 40.5q43 0 78.5 -6t61 -18t39.5 -31
t14 -44q0 -18 -8 -39.5t-26 -46.5q0 49 -42.5 73.5t-111.5 24.5q-60 0 -84 -17t-24 -55q0 -20 14 -30t36.5 -15t51 -7.5t59 -7t59 -13t51 -26t36.5 -46t14 -72.5q0 -69 -47.5 -110t-145.5 -46q-2 -8 -3 -17.5t-3 -18.5h6q45 0 74.5 -25.5t29.5 -70.5q0 -23 -9.5 -40.5
t-25 -29.5t-35.5 -18t-41 -6q-23 0 -39 7t-26.5 17.5t-15 22.5t-4.5 21q8 -4 23.5 -8t34.5 -4q21 0 39 9.5t18 32.5q0 24 -20 32.5t-41 8.5q-10 0 -19.5 -2t-17.5 -4q-10 -3 -18 -5z" />
    <glyph glyph-name="Scaron" unicode="&#x160;" horiz-adv-x="645" 
d="M45 513q0 60 22 100t60 64t88.5 34t108.5 10q50 0 96 -5.5t80.5 -19t55 -36.5t20.5 -59q0 -40 -29 -94v6q0 36 -19.5 59t-51.5 35.5t-72 17.5t-80 5q-35 0 -64.5 -6t-51.5 -18.5t-34.5 -32t-12.5 -47.5q0 -33 19 -51.5t49.5 -29t70 -16t81 -13t81 -19.5t70 -35
t49.5 -60.5t19 -95.5q0 -54 -21 -95t-58 -68t-88 -40.5t-111 -13.5q-46 0 -92.5 5.5t-83.5 19.5t-60 37t-23 59q0 18 7 40t23 48q0 -38 21 -61t54.5 -36t74 -17.5t79.5 -4.5q81 0 121.5 32.5t40.5 87.5q0 37 -19 58.5t-49.5 34t-70 19.5t-81 14t-81 17.5t-70 31t-49.5 54
t-19 85.5zM253 956q-5 -8 -5 -18q0 -14 8.5 -28.5t20 -27.5t23.5 -24t20 -19l28 25q19 17 31 36.5t13 37.5q0 8 -5 18q33 -12 53 -28.5t20 -36.5q0 -14 -10.5 -29t-27.5 -31.5t-40.5 -34.5t-48.5 -38h-26q-26 21 -49.5 39t-40.5 34.5t-27 31.5t-10 28q0 21 20.5 37.5
t52.5 27.5z" />
    <glyph glyph-name="scaron" unicode="&#x161;" horiz-adv-x="498" 
d="M175 772q-5 -8 -5 -18q0 -14 8.5 -28.5t20 -27.5t23.5 -24t20 -19l28 25q19 17 31 36.5t13 37.5q0 8 -5 18q33 -12 53 -28.5t20 -36.5q0 -14 -10.5 -29t-27.5 -31.5t-40.5 -34.5t-48.5 -38h-26q-26 21 -49.5 39t-40.5 34.5t-27 31.5t-10 28q0 21 20.5 37.5t52.5 27.5z
M35 359q0 81 53.5 121.5t156.5 40.5q43 0 78.5 -6t61 -18t39.5 -31t14 -44q0 -18 -8 -39.5t-26 -46.5q0 49 -42.5 73.5t-111.5 24.5q-60 0 -84 -17t-24 -55q0 -20 14 -30t36.5 -15t51 -7.5t59 -7t59 -13t51 -26t36.5 -46t14 -72.5q0 -72 -53.5 -114.5t-164.5 -42.5
q-44 0 -81.5 6.5t-64.5 19.5t-42.5 32.5t-15.5 45.5q0 19 9 40t30 47q1 -30 14.5 -50t36 -32.5t52 -18t62.5 -5.5q48 0 79.5 19t31.5 58q0 31 -24 44t-59.5 18.5t-77 9t-77 16t-59.5 40.5t-24 81z" />
    <glyph glyph-name="Tcommaaccent" unicode="&#x162;" horiz-adv-x="562" 
d="M214 -87q7 25 15.5 49.5t16.5 47.5q-10 7 -15.5 15.5t-5.5 21.5v576h-141q-27 0 -43 10t-25 25t-11.5 32.5t-2.5 32.5q8 -4 22 -8q11 -3 30 -5.5t46 -2.5h361q27 0 45.5 2.5t30.5 5.5q14 4 23 8q0 -15 -3 -32.5t-11.5 -32.5t-25 -25t-43.5 -10h-143v-633q-5 0 -10 1
q-5 0 -10.5 0.5t-11.5 1.5v-2q-2 -9 -3.5 -18.5t-3.5 -19.5h6q45 0 74.5 -25.5t29.5 -70.5q0 -23 -9.5 -40.5t-25 -29.5t-35.5 -18t-41 -6q-23 0 -39 7t-26.5 17.5t-15 22.5t-4.5 21q8 -4 23.5 -8t34.5 -4q21 0 39 9.5t18 32.5q0 24 -20 32.5t-41 8.5q-10 0 -19.5 -2
t-17.5 -4q-10 -3 -18 -5z" />
    <glyph glyph-name="tcommaaccent" unicode="&#x163;" horiz-adv-x="430" 
d="M181 -87q5 20 12 39.5t14 39.5q-68 11 -105 53t-37 111v459q9 0 26.5 -1.5t35 -10t30.5 -26.5t13 -51v-38h206q-1 -24 -8 -42q-6 -16 -18.5 -29t-35.5 -13h-144v-220q0 -52 20.5 -82t78.5 -30q24 0 46 6t39.5 18.5t27.5 32.5t10 48q35 -44 35 -81q0 -48 -44 -76.5
t-115 -31.5q-2 -8 -3 -17t-3 -18h6q45 0 74.5 -25.5t29.5 -70.5q0 -23 -9.5 -40.5t-25 -29.5t-35.5 -18t-41 -6q-23 0 -39 7t-26.5 17.5t-15 22.5t-4.5 21q8 -4 23.5 -8t34.5 -4q21 0 39 9.5t18 32.5q0 24 -20 32.5t-41 8.5q-10 0 -19.5 -2t-17.5 -4q-10 -3 -18 -5z" />
    <glyph glyph-name="Tcaron" unicode="&#x164;" horiz-adv-x="562" 
d="M334 623v-633q-31 1 -55 7q-20 5 -37 16.5t-17 33.5v576h-141q-27 0 -43 10t-25 25t-11.5 32.5t-2.5 32.5q8 -4 22 -8q11 -3 30 -5.5t46 -2.5h361q27 0 45.5 2.5t30.5 5.5q14 4 23 8q0 -15 -3 -32.5t-11.5 -32.5t-25 -25t-43.5 -10h-143zM215 972q-5 -8 -5 -18
q0 -14 8.5 -28.5t20 -27.5t23.5 -24t20 -19l28 25q19 17 31 36.5t13 37.5q0 8 -5 18q33 -12 53 -28.5t20 -36.5q0 -14 -10.5 -29t-27.5 -31.5t-40.5 -34.5t-48.5 -38h-26q-26 21 -49.5 39t-40.5 34.5t-27 31.5t-10 28q0 21 20.5 37.5t52.5 27.5z" />
    <glyph glyph-name="tcaron" unicode="&#x165;" horiz-adv-x="532" 
d="M413 707h67q12 0 21 -7.5t9 -21.5v-22q0 -28 -3.5 -52.5t-12.5 -43t-24.5 -29t-39.5 -10.5q-11 0 -25.5 3.5t-28.5 13.5q23 7 31.5 25.5t8.5 41.5q0 11 -1 21t-3 19l-11 62h12zM65 615q9 0 26.5 -1.5t35 -10t30.5 -26.5t13 -51v-38h206q-1 -24 -8 -42q-6 -16 -18.5 -29
t-35.5 -13h-144v-220q0 -52 20.5 -82t78.5 -30q24 0 46 6t39.5 18.5t27.5 32.5t10 48q35 -44 35 -81q0 -49 -47.5 -78.5t-123.5 -29.5q-90 0 -140.5 44t-50.5 124v459z" />
    <glyph glyph-name="Umacron" unicode="&#x16a;" 
d="M642 205q0 -55 -23.5 -96t-63.5 -68t-92 -40.5t-110 -13.5q-57 0 -109.5 13.5t-92 40.5t-63 68t-23.5 96v511q30 -1 54 -7q20 -5 37.5 -17t17.5 -33v-439q0 -36 13 -63t37 -45t57 -27t72 -9q40 0 73 9t57 27t37 45t13 63v496q30 -1 54 -7q20 -5 37.5 -17t17.5 -33v-454z
M507 863q5 -22 2 -39q-2 -14 -12.5 -26t-34.5 -12h-262q-5 21 -1 38q2 14 12.5 26.5t34.5 12.5h261z" />
    <glyph glyph-name="umacron" unicode="&#x16b;" horiz-adv-x="556" 
d="M432 679q5 -22 2 -39q-2 -14 -12.5 -26t-34.5 -12h-262q-5 21 -1 38q2 14 12.5 26.5t34.5 12.5h261zM170 160q0 -43 24 -66.5t84 -23.5q23 0 43 2.5t34 5.5q17 4 31 9v427q29 -1 52 -7q20 -5 36.5 -17t16.5 -33v-466q-9 5 -30 11.5t-48 6.5q-36 0 -71.5 -10.5
t-77.5 -10.5q-36 0 -72 7t-64 25t-45.5 48t-17.5 77v369q29 -2 52 -8q20 -5 36.5 -16.5t16.5 -32.5v-297z" />
    <glyph glyph-name="Ubreve" unicode="&#x16c;" 
d="M642 205q0 -55 -23.5 -96t-63.5 -68t-92 -40.5t-110 -13.5q-57 0 -109.5 13.5t-92 40.5t-63 68t-23.5 96v511q30 -1 54 -7q20 -5 37.5 -17t17.5 -33v-439q0 -36 13 -63t37 -45t57 -27t72 -9q40 0 73 9t57 27t37 45t13 63v496q30 -1 54 -7q20 -5 37.5 -17t17.5 -33v-454z
M354 831q42 0 65 24t23 57q0 18 -8 37q31 -5 47 -28t16 -52q0 -20 -9 -40t-26.5 -36t-44 -26t-62.5 -10q-37 0 -64 10t-45 26t-27 36t-9 40q0 29 16 52t47 28q-8 -19 -8 -37q0 -33 23.5 -57t65.5 -24z" />
    <glyph glyph-name="ubreve" unicode="&#x16d;" horiz-adv-x="556" 
d="M279 647q42 0 65 24t23 57q0 18 -8 37q31 -5 47 -28t16 -52q0 -20 -9 -40t-26.5 -36t-44 -26t-62.5 -10q-37 0 -64 10t-45 26t-27 36t-9 40q0 29 16 52t47 28q-8 -19 -8 -37q0 -33 23.5 -57t65.5 -24zM170 160q0 -43 24 -66.5t84 -23.5q23 0 43 2.5t34 5.5q17 4 31 9v427
q29 -1 52 -7q20 -5 36.5 -17t16.5 -33v-466q-9 5 -30 11.5t-48 6.5q-36 0 -71.5 -10.5t-77.5 -10.5q-36 0 -72 7t-64 25t-45.5 48t-17.5 77v369q29 -2 52 -8q20 -5 36.5 -16.5t16.5 -32.5v-297z" />
    <glyph glyph-name="Uring" unicode="&#x16e;" 
d="M642 205q0 -55 -23.5 -96t-63.5 -68t-92 -40.5t-110 -13.5q-57 0 -109.5 13.5t-92 40.5t-63 68t-23.5 96v511q30 -1 54 -7q20 -5 37.5 -17t17.5 -33v-439q0 -36 13 -63t37 -45t57 -27t72 -9q40 0 73 9t57 27t37 45t13 63v496q30 -1 54 -7q20 -5 37.5 -17t17.5 -33v-454z
M394 876q0 14 -8 22t-33 8q-26 0 -32.5 -8t-6.5 -22v-32q0 -14 6.5 -22t32.5 -8q25 0 33 8t8 22v32zM446 831q0 -29 -25 -44.5t-67 -15.5t-67.5 15.5t-25.5 44.5v58q0 28 25.5 44t67.5 16t67 -16t25 -44v-58z" />
    <glyph glyph-name="uring" unicode="&#x16f;" horiz-adv-x="556" 
d="M318 676q0 14 -8 22t-33 8q-26 0 -32.5 -8t-6.5 -22v-32q0 -14 6.5 -22t32.5 -8q25 0 33 8t8 22v32zM370 631q0 -29 -25 -44.5t-67 -15.5t-67.5 15.5t-25.5 44.5v58q0 28 25.5 44t67.5 16t67 -16t25 -44v-58zM170 160q0 -43 24 -66.5t84 -23.5q23 0 43 2.5t34 5.5
q17 4 31 9v427q29 -1 52 -7q20 -5 36.5 -17t16.5 -33v-466q-9 5 -30 11.5t-48 6.5q-36 0 -71.5 -10.5t-77.5 -10.5q-36 0 -72 7t-64 25t-45.5 48t-17.5 77v369q29 -2 52 -8q20 -5 36.5 -16.5t16.5 -32.5v-297z" />
    <glyph glyph-name="Uhungarumlaut" unicode="&#x170;" 
d="M642 205q0 -55 -23.5 -96t-63.5 -68t-92 -40.5t-110 -13.5q-57 0 -109.5 13.5t-92 40.5t-63 68t-23.5 96v511q30 -1 54 -7q20 -5 37.5 -17t17.5 -33v-439q0 -36 13 -63t37 -45t57 -27t72 -9q40 0 73 9t57 27t37 45t13 63v496q30 -1 54 -7q20 -5 37.5 -17t17.5 -33v-454z
M281 956q34 -8 54 -24.5t20 -39.5q0 -15 -10.5 -32.5t-33.5 -35.5l-54 -43q-14 3 -25 7q-10 4 -17.5 10.5t-7.5 15.5q0 11 11 22l33 35q36 37 37 64q0 5 -2 10t-5 11zM463 956q73 -22 73 -64q0 -41 -69 -95l-55 -43q-16 3 -28 8q-11 5 -19 11t-8 16t11 21l50 48
q22 21 36.5 39.5t14.5 35.5q0 11 -6 23z" />
    <glyph glyph-name="uhungarumlaut" unicode="&#x171;" horiz-adv-x="556" 
d="M206 772q34 -8 54 -24.5t20 -39.5q0 -15 -10.5 -32.5t-33.5 -35.5l-54 -43q-14 3 -25 7q-10 4 -17.5 10.5t-7.5 15.5q0 11 11 22l33 35q36 37 37 64q0 5 -2 10t-5 11zM388 772q73 -22 73 -64q0 -41 -69 -95l-55 -43q-16 3 -28 8q-11 5 -19 11t-8 16t11 21l50 48
q22 21 36.5 39.5t14.5 35.5q0 11 -6 23zM170 160q0 -43 24 -66.5t84 -23.5q23 0 43 2.5t34 5.5q17 4 31 9v427q29 -1 52 -7q20 -5 36.5 -17t16.5 -33v-466q-9 5 -30 11.5t-48 6.5q-36 0 -71.5 -10.5t-77.5 -10.5q-36 0 -72 7t-64 25t-45.5 48t-17.5 77v369q29 -2 52 -8
q20 -5 36.5 -16.5t16.5 -32.5v-297z" />
    <glyph glyph-name="Uogonek" unicode="&#x172;" 
d="M642 206q0 -61 -27 -102.5t-72 -68.5q-18 -11 -43 -24t-47.5 -30t-38.5 -40.5t-16 -56.5q0 -20 12.5 -34.5t38.5 -14.5q19 0 36.5 8t22.5 10q0 -8 -5 -23t-16 -29.5t-29.5 -25.5t-46.5 -11q-51 0 -81.5 28.5t-30.5 76.5q0 37 20.5 65.5t51.5 54.5q-5 0 -9 -0.5t-9 -0.5
q-57 0 -109.5 13.5t-92 40.5t-63 68t-23.5 96v511q30 -1 54 -7q20 -5 37.5 -17t17.5 -33v-439q0 -36 13 -63t37 -45t57 -27t72 -9q40 0 73 9t57 27t37 45t13 63v496q30 -1 54 -7q20 -5 37.5 -17t17.5 -33v-454z" />
    <glyph glyph-name="uogonek" unicode="&#x173;" horiz-adv-x="556" 
d="M170 160q0 -46 24 -68.5t84 -22.5q23 0 43 2.5t34 5.5q17 4 31 9v430q29 -1 52 -7q20 -5 36.5 -17t16.5 -34v-427q-21 -17 -41 -35t-36 -37.5t-26 -40t-10 -41.5q0 -17 12.5 -29.5t37.5 -12.5q20 0 37.5 8t22.5 10q0 -8 -5 -23t-16 -29.5t-30 -25.5t-46 -11
q-50 0 -80.5 26.5t-30.5 80.5q0 33 21.5 68.5t69.5 65.5q-25 -5 -53 -10.5t-54 -5.5q-36 0 -72 7.5t-64 25.5t-45.5 48t-17.5 75v371q29 -2 52 -8q20 -5 36.5 -17t16.5 -33v-298z" />
    <glyph glyph-name="Ydieresis" unicode="&#x178;" horiz-adv-x="592" 
d="M241 299q-44 42 -77 96t-60.5 109.5t-51.5 108.5t-50 94q7 1 15 3q7 1 14.5 2t15.5 1q23 0 52.5 -11t49.5 -50q30 -62 51.5 -106t38 -74.5t29.5 -51.5t28 -36q18 21 35 49t33.5 60t32.5 66t32 67q13 27 27 43.5t29 26.5t30.5 13.5t29.5 3.5q7 0 15 -1t15 -2q8 -2 15 -3
q-25 -40 -49.5 -93t-52.5 -109.5t-61.5 -110t-76.5 -95.5v-309q-31 1 -55 7q-20 5 -37 17t-17 34v251zM327 883h74q12 0 19.5 -8.5t7.5 -16.5v-76h-72q-13 0 -21 7.5t-8 17.5v76zM162 883h74q12 0 19.5 -8.5t7.5 -16.5v-76h-72q-13 0 -21 7.5t-8 17.5v76z" />
    <glyph glyph-name="Zacute" unicode="&#x179;" horiz-adv-x="578" 
d="M30 0q-1 5 -1 10v10q0 63 24 116t61 100t82.5 90.5t88.5 89.5t79.5 96.5t54.5 110.5h-372q1 24 8 42q6 16 18.5 29t36.5 13h431q0 -74 -27 -138t-68 -121t-89.5 -107.5t-92 -95t-74.5 -85t-38 -77.5h310q29 0 47.5 2.5t29.5 5.5q13 4 21 8q-1 -15 -3.5 -32.5t-9.5 -32
t-18.5 -24.5t-30.5 -10h-468zM344 956q39 -9 57 -26.5t19 -38.5t-13.5 -44t-40.5 -44l-60 -47q-18 4 -31 9q-12 5 -21.5 11.5t-9.5 16.5q0 5 5 12t12 14.5t15 15.5l14 14q29 29 44.5 48t15.5 36q0 13 -6 23z" />
    <glyph glyph-name="zacute" unicode="&#x17a;" horiz-adv-x="460" 
d="M273 772q39 -9 57 -26.5t19 -38.5t-13.5 -44t-40.5 -44l-60 -47q-18 4 -31 9q-12 5 -21.5 11.5t-9.5 16.5q0 5 5 12t12 14.5t15 15.5l14 14q29 29 44.5 48t15.5 36q0 13 -6 23zM40 423q1 24 8 42q6 16 18.5 29t35.5 13h334q-6 -20 -9.5 -41t-9.5 -41q-16 -56 -55 -103
t-82.5 -88t-82.5 -77.5t-55 -72.5h298q-1 -24 -8 -42q-6 -16 -19 -29t-36 -13h-345q-3 14 -3.5 21.5t-0.5 13.5q0 40 16.5 74t42.5 64.5t58 58.5t64 58t59 62.5t44 70.5h-272z" />
    <glyph glyph-name="Zdotaccent" unicode="&#x17b;" horiz-adv-x="578" 
d="M30 0q-1 5 -1 10v10q0 63 24 116t61 100t82.5 90.5t88.5 89.5t79.5 96.5t54.5 110.5h-372q1 24 8 42q6 16 18.5 29t36.5 13h431q0 -74 -27 -138t-68 -121t-89.5 -107.5t-92 -95t-74.5 -85t-38 -77.5h310q29 0 47.5 2.5t29.5 5.5q13 4 21 8q-1 -15 -3.5 -32.5t-9.5 -32
t-18.5 -24.5t-30.5 -10h-468zM251 883h75q9 0 19 -8t10 -17v-76h-74q-11 0 -20.5 7t-9.5 17v77z" />
    <glyph glyph-name="zdotaccent" unicode="&#x17c;" horiz-adv-x="460" 
d="M180 699h75q9 0 19 -8t10 -17v-76h-74q-11 0 -20.5 7t-9.5 17v77zM40 423q1 24 8 42q6 16 18.5 29t35.5 13h334q-6 -20 -9.5 -41t-9.5 -41q-16 -56 -55 -103t-82.5 -88t-82.5 -77.5t-55 -72.5h298q-1 -24 -8 -42q-6 -16 -19 -29t-36 -13h-345q-3 14 -3.5 21.5t-0.5 13.5
q0 40 16.5 74t42.5 64.5t58 58.5t64 58t59 62.5t44 70.5h-272z" />
    <glyph glyph-name="Zcaron" unicode="&#x17d;" horiz-adv-x="578" 
d="M30 0q-1 5 -1 10v10q0 63 24 116t61 100t82.5 90.5t88.5 89.5t79.5 96.5t54.5 110.5h-372q1 24 8 42q6 16 18.5 29t36.5 13h431q0 -74 -27 -138t-68 -121t-89.5 -107.5t-92 -95t-74.5 -85t-38 -77.5h310q29 0 47.5 2.5t29.5 5.5q13 4 21 8q-1 -15 -3.5 -32.5t-9.5 -32
t-18.5 -24.5t-30.5 -10h-468zM236 956q-5 -8 -5 -18q0 -14 8.5 -28.5t20 -27.5t23.5 -24t20 -19l28 25q19 17 31 36.5t13 37.5q0 8 -5 18q33 -12 53 -28.5t20 -36.5q0 -14 -10.5 -29t-27.5 -31.5t-40.5 -34.5t-48.5 -38h-26q-26 21 -49.5 39t-40.5 34.5t-27 31.5t-10 28
q0 21 20.5 37.5t52.5 27.5z" />
    <glyph glyph-name="zcaron" unicode="&#x17e;" horiz-adv-x="460" 
d="M165 772q-5 -8 -5 -18q0 -14 8.5 -28.5t20 -27.5t23.5 -24t20 -19l28 25q19 17 31 36.5t13 37.5q0 8 -5 18q33 -12 53 -28.5t20 -36.5q0 -14 -10.5 -29t-27.5 -31.5t-40.5 -34.5t-48.5 -38h-26q-26 21 -49.5 39t-40.5 34.5t-27 31.5t-10 28q0 21 20.5 37.5t52.5 27.5z
M40 423q1 24 8 42q6 16 18.5 29t35.5 13h334q-6 -20 -9.5 -41t-9.5 -41q-16 -56 -55 -103t-82.5 -88t-82.5 -77.5t-55 -72.5h298q-1 -24 -8 -42q-6 -16 -19 -29t-36 -13h-345q-3 14 -3.5 21.5t-0.5 13.5q0 40 16.5 74t42.5 64.5t58 58.5t64 58t59 62.5t44 70.5h-272z" />
    <glyph glyph-name="florin" unicode="&#x192;" horiz-adv-x="490" 
d="M178 329q-17 -105 -33.5 -209.5t-32.5 -209.5q-5 -30 -17 -57t-29.5 -47.5t-38 -32.5t-42.5 -12q-17 0 -36 9t-41 31q22 0 40 14t31 35.5t21.5 46.5t11.5 47l102 646q6 39 27.5 70t54 52.5t74.5 33t89 11.5q87 0 129 -21t42 -58q0 -20 -12 -45.5t-37 -49.5q-2 24 -8 41
t-20 28t-39.5 16.5t-65.5 5.5q-56 0 -89.5 -26t-41.5 -75l-25 -160h189q-5 -24 -15 -42q-8 -16 -22.5 -29t-37.5 -13h-128z" />
    <glyph glyph-name="Scommaaccent" unicode="&#x218;" horiz-adv-x="645" 
d="M294 -36h67q12 0 21 -7.5t9 -21.5v-22q0 -28 -3.5 -52.5t-12.5 -43t-24.5 -29t-39.5 -10.5q-11 0 -25.5 3.5t-28.5 13.5q23 7 31.5 25.5t8.5 41.5q0 11 -1 21t-3 19l-11 62h12zM45 513q0 60 22 100t60 64t88.5 34t108.5 10q50 0 96 -5.5t80.5 -19t55 -36.5t20.5 -59
q0 -40 -29 -94v6q0 36 -19.5 59t-51.5 35.5t-72 17.5t-80 5q-35 0 -64.5 -6t-51.5 -18.5t-34.5 -32t-12.5 -47.5q0 -33 19 -51.5t49.5 -29t70 -16t81 -13t81 -19.5t70 -35t49.5 -60.5t19 -95.5q0 -54 -21 -95t-58 -68t-88 -40.5t-111 -13.5q-46 0 -92.5 5.5t-83.5 19.5
t-60 37t-23 59q0 18 7 40t23 48q0 -38 21 -61t54.5 -36t74 -17.5t79.5 -4.5q81 0 121.5 32.5t40.5 87.5q0 37 -19 58.5t-49.5 34t-70 19.5t-81 14t-81 17.5t-70 31t-49.5 54t-19 85.5z" />
    <glyph glyph-name="scommaaccent" unicode="&#x219;" horiz-adv-x="498" 
d="M217 -36h67q12 0 21 -7.5t9 -21.5v-22q0 -28 -3.5 -52.5t-12.5 -43t-24.5 -29t-39.5 -10.5q-11 0 -25.5 3.5t-28.5 13.5q23 7 31.5 25.5t8.5 41.5q0 11 -1 21t-3 19l-11 62h12zM35 359q0 81 53.5 121.5t156.5 40.5q43 0 78.5 -6t61 -18t39.5 -31t14 -44q0 -18 -8 -39.5
t-26 -46.5q0 49 -42.5 73.5t-111.5 24.5q-60 0 -84 -17t-24 -55q0 -20 14 -30t36.5 -15t51 -7.5t59 -7t59 -13t51 -26t36.5 -46t14 -72.5q0 -72 -53.5 -114.5t-164.5 -42.5q-44 0 -81.5 6.5t-64.5 19.5t-42.5 32.5t-15.5 45.5q0 19 9 40t30 47q1 -30 14.5 -50t36 -32.5
t52 -18t62.5 -5.5q48 0 79.5 19t31.5 58q0 31 -24 44t-59.5 18.5t-77 9t-77 16t-59.5 40.5t-24 81z" />
    <glyph glyph-name="uni021A" unicode="&#x21a;" horiz-adv-x="562" 
d="M244 -36h67q12 0 21 -7.5t9 -21.5v-22q0 -28 -3.5 -52.5t-12.5 -43t-24.5 -29t-39.5 -10.5q-11 0 -25.5 3.5t-28.5 13.5q23 7 31.5 25.5t8.5 41.5q0 11 -1 21t-3 19l-11 62h12zM334 623v-633q-31 1 -55 7q-20 5 -37 16.5t-17 33.5v576h-141q-27 0 -43 10t-25 25
t-11.5 32.5t-2.5 32.5q8 -4 22 -8q11 -3 30 -5.5t46 -2.5h361q27 0 45.5 2.5t30.5 5.5q14 4 23 8q0 -15 -3 -32.5t-11.5 -32.5t-25 -25t-43.5 -10h-143z" />
    <glyph glyph-name="uni021B" unicode="&#x21b;" horiz-adv-x="430" 
d="M206 -36h67q12 0 21 -7.5t9 -21.5v-22q0 -28 -3.5 -52.5t-12.5 -43t-24.5 -29t-39.5 -10.5q-11 0 -25.5 3.5t-28.5 13.5q23 7 31.5 25.5t8.5 41.5q0 11 -1 21t-3 19l-11 62h12zM65 615q9 0 26.5 -1.5t35 -10t30.5 -26.5t13 -51v-38h206q-1 -24 -8 -42q-6 -16 -18.5 -29
t-35.5 -13h-144v-220q0 -52 20.5 -82t78.5 -30q24 0 46 6t39.5 18.5t27.5 32.5t10 48q35 -44 35 -81q0 -49 -47.5 -78.5t-123.5 -29.5q-90 0 -140.5 44t-50.5 124v459z" />
    <glyph glyph-name="circumflex" unicode="&#x2c6;" horiz-adv-x="489" 
d="M257 691q-8 -8 -20 -19t-23.5 -24.5t-20 -27.5t-8.5 -28q0 -8 5 -18q-30 11 -50 27.5t-20 37.5q0 25 37 58t100 75q63 -42 100 -75t37 -58q0 -21 -20 -37.5t-50 -27.5q5 10 5 18q0 14 -8.5 28t-20 27.5t-23.5 24.5t-20 19z" />
    <glyph glyph-name="caron" unicode="&#x2c7;" horiz-adv-x="489" 
d="M219 772q-5 -8 -5 -18q0 -14 8.5 -28.5t20 -27.5t23.5 -24t20 -19l28 25q19 17 31 36.5t13 37.5q0 8 -5 18q33 -12 53 -28.5t20 -36.5q0 -14 -10.5 -29t-27.5 -31.5t-40.5 -34.5t-48.5 -38h-26q-26 21 -49.5 39t-40.5 34.5t-27 31.5t-10 28q0 21 20.5 37.5t52.5 27.5z
" />
    <glyph glyph-name="breve" unicode="&#x2d8;" horiz-adv-x="571" 
d="M287 647q42 0 65 24t23 57q0 18 -8 37q31 -5 47 -28t16 -52q0 -20 -9 -40t-26.5 -36t-44 -26t-62.5 -10q-37 0 -64 10t-45 26t-27 36t-9 40q0 29 16 52t47 28q-8 -19 -8 -37q0 -33 23.5 -57t65.5 -24z" />
    <glyph glyph-name="dotaccent" unicode="&#x2d9;" horiz-adv-x="243" 
d="M68 699h75q9 0 19 -8t10 -17v-76h-74q-11 0 -20.5 7t-9.5 17v77z" />
    <glyph glyph-name="ring" unicode="&#x2da;" horiz-adv-x="341" 
d="M211 676q0 14 -8 22t-33 8q-26 0 -32.5 -8t-6.5 -22v-32q0 -14 6.5 -22t32.5 -8q25 0 33 8t8 22v32zM263 631q0 -29 -25 -44.5t-67 -15.5t-67.5 15.5t-25.5 44.5v58q0 28 25.5 44t67.5 16t67 -16t25 -44v-58z" />
    <glyph glyph-name="ogonek" unicode="&#x2db;" horiz-adv-x="833" 
d="M419 28q-7 -9 -24.5 -24.5t-36 -35t-32.5 -43t-14 -49.5q0 -18 13.5 -29.5t36.5 -11.5q19 0 36 5t22 8q0 -17 -8.5 -32.5t-22.5 -27t-32.5 -18.5t-37.5 -7q-44 0 -75.5 26.5t-31.5 78.5q0 33 18 59.5t44 48t54.5 38t48.5 28.5z" />
    <glyph glyph-name="tilde" unicode="&#x2dc;" horiz-adv-x="389" 
d="M57 601q-7 17 -7 37q0 28 15 47.5t48 19.5q20 0 41 -7t43 -15.5t44 -15.5t44 -7q19 0 29.5 5.5t20.5 19.5q4 -10 6 -19.5t2 -20.5q0 -26 -14 -45t-49 -19q-21 0 -42 7t-43 15.5t-44 15.5t-44 7q-20 0 -30 -6t-20 -19z" />
    <glyph glyph-name="hungarumlaut" unicode="&#x2dd;" horiz-adv-x="468" 
d="M159 772q34 -8 54 -24.5t20 -39.5q0 -15 -10.5 -32.5t-33.5 -35.5l-54 -43q-14 3 -25 7q-10 4 -17.5 10.5t-7.5 15.5q0 11 11 22l33 35q36 37 37 64q0 5 -2 10t-5 11zM341 772q73 -22 73 -64q0 -41 -69 -95l-55 -43q-16 3 -28 8q-11 5 -19 11t-8 16t11 21l50 48
q22 21 36.5 39.5t14.5 35.5q0 11 -6 23z" />
    <glyph glyph-name="Omega" unicode="&#x3a9;" horiz-adv-x="1113" 
d="M836 99q11 20 16 36.5t5 30.5q0 28 -17 48t-42 37t-54.5 33.5t-54.5 36.5t-42 46t-17 63q0 26 8.5 46t22.5 34t32 21t38 7q41 0 71 -28q-1 5 -1 10.5v10.5q2 21 12 38.5t25.5 30.5t34.5 20.5t39 7.5q46 0 80 -21t56.5 -55t33.5 -77t11 -87q0 -53 -16 -104.5t-47 -93
t-76.5 -67t-103.5 -25.5q-4 0 -7.5 0.5t-6.5 0.5zM277 618q-11 -20 -16 -36.5t-5 -30.5q0 -28 17 -48t42 -37t54.5 -33.5t54.5 -36.5t42 -46t17 -63q0 -26 -8.5 -46t-22.5 -34t-32.5 -21t-37.5 -7q-41 0 -71 28q1 -5 1 -10.5v-10.5q-2 -21 -12 -38.5t-25.5 -30.5
t-34.5 -20.5t-39 -7.5q-46 0 -80 21t-56.5 55t-33.5 77t-11 87q0 52 16 104t47 93.5t76 67t104 25.5q4 0 7.5 -0.5t6.5 -0.5zM524 397q0 46 10 87t30 72t50 49.5t70 18.5q16 0 33.5 -3t32.5 -11.5t25 -24t12 -40.5q-19 17 -36.5 23t-34.5 6q-30 0 -52.5 -14t-38.5 -38
t-24 -57t-8 -70v-78q0 -46 -10 -87t-30 -72t-50 -49.5t-70 -18.5q-16 0 -33.5 3t-32.5 11.5t-25.5 24t-11.5 40.5q19 -17 36.5 -23t34.5 -6q30 0 52.5 14t38.5 38t24 56.5t8 70.5v78z" />
    <glyph glyph-name="Omega" unicode="&#x2126;" horiz-adv-x="1113" 
d="M836 99q11 20 16 36.5t5 30.5q0 28 -17 48t-42 37t-54.5 33.5t-54.5 36.5t-42 46t-17 63q0 26 8.5 46t22.5 34t32 21t38 7q41 0 71 -28q-1 5 -1 10.5v10.5q2 21 12 38.5t25.5 30.5t34.5 20.5t39 7.5q46 0 80 -21t56.5 -55t33.5 -77t11 -87q0 -53 -16 -104.5t-47 -93
t-76.5 -67t-103.5 -25.5q-4 0 -7.5 0.5t-6.5 0.5zM277 618q-11 -20 -16 -36.5t-5 -30.5q0 -28 17 -48t42 -37t54.5 -33.5t54.5 -36.5t42 -46t17 -63q0 -26 -8.5 -46t-22.5 -34t-32.5 -21t-37.5 -7q-41 0 -71 28q1 -5 1 -10.5v-10.5q-2 -21 -12 -38.5t-25.5 -30.5
t-34.5 -20.5t-39 -7.5q-46 0 -80 21t-56.5 55t-33.5 77t-11 87q0 52 16 104t47 93.5t76 67t104 25.5q4 0 7.5 -0.5t6.5 -0.5zM524 397q0 46 10 87t30 72t50 49.5t70 18.5q16 0 33.5 -3t32.5 -11.5t25 -24t12 -40.5q-19 17 -36.5 23t-34.5 6q-30 0 -52.5 -14t-38.5 -38
t-24 -57t-8 -70v-78q0 -46 -10 -87t-30 -72t-50 -49.5t-70 -18.5q-16 0 -33.5 3t-32.5 11.5t-25.5 24t-11.5 40.5q19 -17 36.5 -23t34.5 -6q30 0 52.5 14t38.5 38t24 56.5t8 70.5v78z" />
    <glyph glyph-name="pi" unicode="&#x3c0;" horiz-adv-x="1113" 
d="M836 -4q11 20 16 36.5t5 30.5q0 28 -17 48t-42 37t-54.5 33.5t-54.5 36.5t-42 46t-17 63q0 26 8.5 46t22.5 34t32 21t38 7q41 0 71 -28q-1 5 -1 10.5v10.5q2 21 12 38.5t25.5 30.5t34.5 20.5t39 7.5q46 0 80 -21t56.5 -55t33.5 -77t11 -87q0 -53 -16 -104.5t-47 -93
t-76.5 -67t-103.5 -25.5q-4 0 -7.5 0.5t-6.5 0.5zM277 515q-11 -20 -16 -36.5t-5 -30.5q0 -28 17 -48t42 -37t54.5 -33.5t54.5 -36.5t42 -46t17 -63q0 -26 -8.5 -46t-22.5 -34t-32.5 -21t-37.5 -7q-41 0 -71 28q1 -5 1 -10.5v-10.5q-2 -21 -12 -38.5t-25.5 -30.5
t-34.5 -20.5t-39 -7.5q-46 0 -80 21t-56.5 55t-33.5 77t-11 87q0 52 16 104t47 93.5t76 67t104 25.5q4 0 7.5 -0.5t6.5 -0.5zM524 294q0 46 10 87t30 72t50 49.5t70 18.5q16 0 33.5 -3t32.5 -11.5t25 -24t12 -40.5q-19 17 -36.5 23t-34.5 6q-30 0 -52.5 -14t-38.5 -38
t-24 -57t-8 -70v-78q0 -46 -10 -87t-30 -72t-50 -49.5t-70 -18.5q-16 0 -33.5 3t-32.5 11.5t-25.5 24t-11.5 40.5q19 -17 36.5 -23t34.5 -6q30 0 52.5 14t38.5 38t24 56.5t8 70.5v78z" />
    <glyph glyph-name="endash" unicode="&#x2013;" horiz-adv-x="718" 
d="M689 299q0 -4 1 -8q2 -10 2 -20t-2 -20.5t-7 -19t-14.5 -14t-24.5 -5.5h-616q-1 3 -1 7q-1 5 -1 19q0 9 1.5 20t7 20t15 15t24.5 6h615z" />
    <glyph glyph-name="emdash" unicode="&#x2014;" horiz-adv-x="815" 
d="M786 299q0 -4 1 -8q2 -10 2 -20t-2 -20.5t-7 -19t-14.5 -14t-24.5 -5.5h-713q-1 3 -1 7q-1 5 -1 19q0 9 1.5 20t7 20t15 15t24.5 6h712z" />
    <glyph glyph-name="quoteleft" unicode="&#x2018;" horiz-adv-x="243" 
d="M98 485q-13 0 -22 7.5t-9 21.5v59q0 27 3.5 51.5t12.5 43t24.5 29t39.5 10.5q12 0 26.5 -3.5t27.5 -13.5q-16 -5 -25.5 -16t-14 -26t-5 -32t2.5 -32l17 -99h-78z" />
    <glyph glyph-name="quoteright" unicode="&#x2019;" horiz-adv-x="243" 
d="M95 707h50q13 0 22 -7.5t9 -21.5v-59q0 -27 -3.5 -51.5t-12.5 -43t-24.5 -29t-39.5 -10.5q-12 0 -26.5 3.5t-27.5 13.5q18 4 27.5 17t13 29t3 32.5t-2.5 27.5l-16 99h28z" />
    <glyph glyph-name="quotesinglbase" unicode="&#x201a;" horiz-adv-x="243" 
d="M95 107h50q13 0 22 -7.5t9 -21.5v-59q0 -27 -3.5 -51.5t-12.5 -43t-24.5 -29t-39.5 -10.5q-12 0 -26.5 3.5t-27.5 13.5q18 4 27.5 17t13 29t3 32.5t-2.5 27.5l-16 99h28z" />
    <glyph glyph-name="quotedblleft" unicode="&#x201c;" horiz-adv-x="408" 
d="M148 485h-50q-13 0 -22 7.5t-9 21.5v59q0 27 3.5 51.5t12.5 43t24.5 29t39.5 10.5q12 0 26.5 -3.5t27.5 -13.5q-16 -5 -25.5 -16t-14 -26t-5 -32t2.5 -32l17 -99h-28zM313 485h-50q-13 0 -22 7.5t-9 21.5v59q0 27 3.5 51.5t12.5 43t24.5 29t39.5 10.5q12 0 26.5 -3.5
t27.5 -13.5q-16 -5 -25.5 -16t-14 -26t-5 -32t2.5 -32l17 -99h-28z" />
    <glyph glyph-name="quotedblright" unicode="&#x201d;" horiz-adv-x="408" 
d="M95 707h50q13 0 22 -7.5t9 -21.5v-59q0 -27 -3.5 -51.5t-12.5 -43t-24.5 -29t-39.5 -10.5q-12 0 -26.5 3.5t-27.5 13.5q18 4 27.5 17t13 29t3 32.5t-2.5 27.5l-16 99h28zM260 707h50q13 0 22 -7.5t9 -21.5v-59q0 -27 -3.5 -51.5t-12.5 -43t-24.5 -29t-39.5 -10.5
q-12 0 -26.5 3.5t-27.5 13.5q18 4 27.5 17t13 29t3 32.5t-2.5 27.5l-16 99h28z" />
    <glyph glyph-name="quotedblbase" unicode="&#x201e;" horiz-adv-x="408" 
d="M95 107h50q13 0 22 -7.5t9 -21.5v-59q0 -27 -3.5 -51.5t-12.5 -43t-24.5 -29t-39.5 -10.5q-12 0 -26.5 3.5t-27.5 13.5q18 4 27.5 17t13 29t3 32.5t-2.5 27.5l-16 99h28zM260 107h50q13 0 22 -7.5t9 -21.5v-59q0 -27 -3.5 -51.5t-12.5 -43t-24.5 -29t-39.5 -10.5
q-12 0 -26.5 3.5t-27.5 13.5q18 4 27.5 17t13 29t3 32.5t-2.5 27.5l-16 99h28z" />
    <glyph glyph-name="dagger" unicode="&#x2020;" horiz-adv-x="401" 
d="M149 757q29 -1 52 -7q20 -5 36.5 -17t16.5 -33v-193h133q1 -8 1.5 -15t0.5 -15q0 -24 -10 -40.5t-42 -16.5h-83v-662q-30 1 -53 7q-20 5 -36 17t-16 34v604h-134q-3 10 -3 25q0 21 10 41.5t39 20.5h88v250z" />
    <glyph glyph-name="daggerdbl" unicode="&#x2021;" horiz-adv-x="401" 
d="M149 757q29 -1 52 -7q20 -5 36.5 -17t16.5 -33v-193h133q1 -8 1.5 -15t0.5 -15q0 -24 -10 -40.5t-42 -16.5h-83v-333h133q1 -8 1.5 -15t0.5 -15q0 -24 -10 -40.5t-42 -16.5h-83v-242q-30 1 -53 7q-20 5 -36 17t-16 34v184h-134q-3 10 -3 25q0 21 10 41.5t39 20.5h88v333
h-134q-3 10 -3 25q0 21 10 41.5t39 20.5h88v250z" />
    <glyph glyph-name="bullet" unicode="&#x2022;" horiz-adv-x="474" 
d="M419 210q0 -63 -44 -99t-138 -36t-138 36t-44 99v92q0 64 44 99.5t138 35.5t138 -35.5t44 -99.5v-92z" />
    <glyph glyph-name="ellipsis" unicode="&#x2026;" horiz-adv-x="712" 
d="M549 107h75q11 0 20 -8t9 -17v-82h-74q-12 0 -21 7t-9 18v82zM312 107h75q11 0 19.5 -8t8.5 -17v-82h-74q-12 0 -20.5 7t-8.5 18v82zM74 107h75q11 0 20 -8t9 -17v-82h-74q-12 0 -21 7t-9 18v82z" />
    <glyph glyph-name="perthousand" unicode="&#x2030;" horiz-adv-x="1012" 
d="M886 391q0 25 -13 40t-54 15q-43 0 -55 -15t-12 -40v-67q0 -26 12 -40.5t55 -14.5q41 0 54 14.5t13 40.5v67zM260 591q0 25 -13 40t-54 15q-43 0 -55 -14.5t-12 -40.5v-67q0 -26 12 -40.5t55 -14.5q41 0 54 14.5t13 40.5v67zM664 182q0 25 -13 40t-54 15q-43 0 -55 -14.5
t-12 -40.5v-67q0 -26 12 -40.5t55 -14.5q41 0 54 14.5t13 40.5v67zM612 638q4 -3 10.5 -10t13 -16t11 -20t4.5 -21q0 -15 -13.5 -32.5t-29.5 -33.5l-438 -439q-12 11 -25.5 30t-13.5 42q0 19 13 32zM348 498q0 -49 -42 -74t-113 -25q-70 0 -112 25t-42 74v117q0 48 42 75
t112 27q71 0 113 -27t42 -75v-117zM973 297q0 -49 -42 -74t-112 -25q-20 0 -39 2.5t-34 6.5q1 -3 2 -7q1 -3 2 -8t1 -10v-93q0 -49 -42 -74t-112 -25q-71 0 -113 25t-42 74v117q0 48 42 75t113 27q19 0 38 -3t34 -8q-2 4 -3 8q-2 10 -2 21v89q0 48 42 74.5t113 26.5
q70 0 112 -26.5t42 -74.5v-118z" />
    <glyph glyph-name="guilsinglleft" unicode="&#x2039;" horiz-adv-x="421" 
d="M346 63q-3 -6 -9 -13.5t-15 -14t-19.5 -11t-20.5 -4.5q-12 0 -25.5 9t-32.5 30l-142 141q-27 27 -26.5 52.5t27.5 52.5l201 201q6 -4 14 -10t15.5 -13.5t12.5 -16.5t5 -19q0 -11 -8.5 -24t-28.5 -32l-137 -139z" />
    <glyph glyph-name="guilsinglright" unicode="&#x203a;" horiz-adv-x="421" 
d="M264 252q-41 42 -81 82.5t-82 81.5q-14 14 -14 30q0 10 6 19.5t14 17.5t16.5 14t13.5 9l201 -201q27 -27 27 -53t-26 -52l-169 -169q-13 -13 -30 -13q-20 0 -37.5 14t-27.5 31z" />
    <glyph glyph-name="fraction" unicode="&#x2044;" horiz-adv-x="563" 
d="M505 639q4 -5 11 -12.5t14 -17t11.5 -20.5t4.5 -23q0 -19 -15 -34l-473 -473q-5 4 -12 12t-14 17.5t-11.5 20.5t-4.5 23q0 19 16 35z" />
    <glyph glyph-name="Euro" unicode="&#x20ac;" horiz-adv-x="625" 
d="M343 77q36 0 68 7t56 20.5t38 32.5t14 43q15 -22 21.5 -40.5t6.5 -35.5q0 -27 -17 -48.5t-45.5 -36.5t-65.5 -23t-76 -8q-57 0 -108 12.5t-88.5 40.5t-59.5 73.5t-22 111.5v255q0 66 22 111.5t59.5 73.5t88.5 40.5t108 12.5q31 0 65 -7t62 -21t46 -35.5t18 -50.5
q0 -19 -8 -40t-25 -46q0 28 -15.5 49t-38.5 35t-51 20.5t-53 6.5q-39 0 -70.5 -8t-53.5 -27t-33.5 -50.5t-11.5 -77.5v-3h318q-1 -22 -10 -40q-8 -15 -25 -27.5t-48 -12.5h-235v-68h258q-1 -22 -10 -40q-8 -15 -25 -27t-48 -12h-175q0 -45 12 -76t34 -49.5t53 -26.5t70 -8z
" />
    <glyph glyph-name="trademark" unicode="&#x2122;" horiz-adv-x="1063" 
d="M897 519q0 12 0.5 23.5t1.5 22.5l-123 -186q-18 1 -34 5q-14 4 -28.5 12t-23.5 22l-95 141q0 -11 0.5 -21t0.5 -21v-199q-26 1 -46 5q-17 4 -31 12.5t-14 25.5v346h55q-1 0 6.5 -0.5t18.5 -4t23.5 -11.5t21.5 -22l117 -183l142 221h27q20 -1 36 -5q14 -4 25 -13t11 -25
v-346q-26 1 -46 5q-17 4 -31 12.5t-14 25.5v158zM364 640h-80v-322q-26 1 -46 5q-17 4 -31 12.5t-14 25.5v279h-78v-89q-20 4 -35 10q-14 5 -24.5 14t-10.5 23v109h388v-109q0 -14 -11 -23t-24 -14q-15 -6 -34 -10v89z" />
    <glyph glyph-name="partialdiff" unicode="&#x2202;" horiz-adv-x="786" 
d="M283 135q5 -1 9.5 -1h9.5q40 0 61 18t31.5 46t15 62t13 67t25 60t50.5 41q21 8 40 8q17 0 33.5 -6.5t29.5 -18.5t21 -29.5t8 -39.5q0 -18 -6 -33q24 9 46 9q25 0 45 -10.5t33.5 -27t20.5 -38t7 -42.5q0 -48 -25 -86.5t-64.5 -65t-88.5 -40.5t-96 -14q-37 0 -72.5 8.5
t-65 26t-51 44t-30.5 62.5zM61 519q-19 0 -29 9.5t-15 21.5q-6 13 -7 31h490q46 0 84 -11.5t65 -32t42 -50t15 -65.5q0 -33 -15 -59.5t-46 -30.5q14 30 14 60q0 57 -42.5 91t-129.5 36h-426z" />
    <glyph glyph-name="product" unicode="&#x220f;" horiz-adv-x="786" 
d="M299 519q-87 -2 -129.5 -36t-42.5 -91q0 -30 14 -60q-31 4 -46 30.5t-15 59.5q0 36 15 65.5t42 50t65 32t84 11.5h490q-2 -18 -7 -31q-5 -12 -15 -21.5t-29 -9.5h-426zM503 135q-9 -36 -30.5 -62.5t-51 -44t-65 -26t-72.5 -8.5q-47 0 -96 14t-88.5 40.5t-64.5 65
t-25 86.5q0 21 7 42.5t20.5 38t33.5 27t45 10.5q22 0 46 -9q-6 15 -6 33q0 22 8 39.5t21 29.5t29.5 18.5t33.5 6.5q19 0 40 -8q34 -14 50.5 -41t25 -60t13 -67t15 -62t31.5 -46t61 -18h9.5t9.5 1z" />
    <glyph glyph-name="summation" unicode="&#x2211;" horiz-adv-x="851" 
d="M70 308q0 46 11 84.5t31.5 67t49.5 44.5t65 16q40 0 66.5 -15.5t31.5 -47.5q-27 14 -59 14q-57 0 -94.5 -42.5t-37.5 -133.5v-151q0 -39 12 -75t38.5 -63.5t69 -44t103.5 -16.5h129q60 0 103.5 16.5t72 44t42 63.5t13.5 75v220q0 91 -36.5 133.5t-93.5 42.5
q-16 0 -30.5 -2.5t-28.5 -7.5q5 29 31.5 43t66.5 14q36 0 64.5 -15.5t49 -43.5t31 -66.5t10.5 -84.5v-246q0 -52 -19.5 -96.5t-57.5 -77.5t-93 -51.5t-126 -18.5h-129q-71 0 -124.5 18.5t-89.5 51.5t-54 77.5t-18 96.5v177zM395 7q20 36 20 62t-15.5 44.5t-39 34.5t-51 31
t-51 34t-39 43t-15.5 58q0 48 29 74t65 26q38 0 66 -26q-1 5 -1 10v10q2 19 11.5 35.5t23.5 28.5t32 19t36 7q43 0 74.5 -19.5t52.5 -51t31 -71.5t10 -81q0 -49 -15 -97t-43.5 -86.5t-71 -62t-96.5 -23.5q-3 0 -6.5 0.5t-6.5 0.5z" />
    <glyph glyph-name="minus" unicode="&#x2212;" horiz-adv-x="509" 
d="M440 307q5 -25 2 -44q-2 -17 -12.5 -30t-34.5 -13h-327q-5 24 -1 43q2 17 12.5 30.5t34.5 13.5h326z" />
    <glyph glyph-name="radical" unicode="&#x221a;" horiz-adv-x="577" 
d="M113 145q0 17 8.5 35.5t21.5 35.5t28.5 32.5t29.5 27.5q-14 5 -30.5 8t-31.5 3q-31 0 -51 -9.5t-40 -33.5q-2 4 -5 19t-3 35q0 15 5 30t16.5 27t30.5 19.5t48 7.5q22 0 47 -8t50 -18q-11 42 -34 76t-71 43q3 3 10.5 10t18.5 14.5t24.5 13.5t29.5 6t33 -8.5t31.5 -27.5
t25.5 -48t16 -69q23 23 41 50.5t18 55.5q0 10 -1.5 21t-6.5 23q4 -2 19 -6t31 -13t28.5 -25t12.5 -43q0 -32 -24 -65.5t-64 -65.5q15 -5 31.5 -9t31.5 -4q30 0 50.5 10t40.5 35q1 -5 4.5 -19.5t3.5 -34.5q0 -14 -5 -29t-16.5 -27t-31 -19.5t-48.5 -7.5q-23 0 -47 8.5
t-49 18.5q10 -45 33.5 -78.5t71.5 -41.5l-10.5 -10.5t-18.5 -15t-25 -13.5t-30 -6q-17 0 -33 8.5t-30.5 26.5t-25.5 47t-17 70q-25 -23 -42.5 -50.5t-17.5 -53.5q0 -21 9 -45q-4 2 -19 6t-31 13t-28.5 25t-12.5 43z" />
    <glyph glyph-name="infinity" unicode="&#x221e;" horiz-adv-x="663" 
d="M476 358q-7 44 -28 89t-45 82.5t-45 63.5t-27 34q-7 -7 -28.5 -33t-45.5 -63.5t-44.5 -82.5t-26.5 -90h290zM332 731l14 14t21 23.5t19.5 28.5t8.5 29q0 7 -2 15t-7 19q15 -5 31 -12.5t28.5 -17t21 -22t8.5 -27.5q0 -14 -9.5 -32t-35.5 -39l-34 -27q27 -27 60 -66.5
t62.5 -88.5t49.5 -106t20 -118v-314q-2 0 -19 1t-37 6t-36.5 17t-16.5 33v230h-295v-287q-2 0 -19 1t-37 6t-36.5 17t-16.5 33v257q0 62 20 119.5t49 106.5t62.5 88t59.5 65l-34 27q-23 18 -34 37.5t-11 33.5q0 15 8.5 27.5t21.5 22t29 17t31 12.5q-6 -11 -7.5 -19t-1.5 -15
q0 -11 8 -25t18.5 -27.5t21 -25t16.5 -17.5z" />
    <glyph glyph-name="integral" unicode="&#x222b;" horiz-adv-x="851" 
d="M781 131q0 -52 -18.5 -96.5t-54.5 -77.5t-89.5 -51.5t-123.5 -18.5h-129q-71 0 -126 18.5t-93 51.5t-57.5 77.5t-19.5 96.5v246q0 46 10.5 84.5t31 66.5t49 43.5t64.5 15.5q40 0 66.5 -14t31.5 -43q-14 5 -28.5 7.5t-30.5 2.5q-57 0 -93.5 -42.5t-36.5 -133.5v-220
q0 -39 13.5 -75t42 -63.5t72 -44t103.5 -16.5h129q61 0 103.5 16.5t69 44t38.5 63.5t12 75v151q0 91 -37.5 133.5t-94.5 42.5q-32 0 -59 -14q5 32 31.5 47.5t66.5 15.5q36 0 65 -16t49.5 -44.5t31.5 -67t11 -84.5v-177zM456 7q-3 0 -6.5 -0.5t-6.5 -0.5q-54 0 -96.5 23.5
t-71 62t-43.5 86.5t-15 97q0 41 10 81t31 71.5t52.5 51t74.5 19.5q18 0 36 -7t32 -19t23.5 -28.5t11.5 -35.5v-10t-1 -10q28 26 66 26q36 0 65 -26t29 -74q0 -34 -15.5 -58t-39 -43t-51 -34t-51 -31t-39 -34.5t-15.5 -44.5t20 -62z" />
    <glyph glyph-name="approxequal" unicode="&#x2248;" horiz-adv-x="647" 
d="M138 423q40 0 88.5 -8t98 -18t98.5 -18t91 -8q26 0 49 6t43 31q2 -11 3.5 -21.5t1.5 -19.5q0 -36 -22 -59t-80 -23q-41 0 -89 8t-97.5 18t-98 18t-90.5 8q-30 0 -52.5 -7.5t-39.5 -27.5q-7 24 -7 48q0 32 25 52.5t78 20.5zM138 249q40 0 88.5 -8t98 -18t98.5 -18t91 -8
q26 0 49 6t43 31q2 -11 3.5 -21.5t1.5 -19.5q0 -36 -22 -59t-80 -23q-41 0 -89 8t-97.5 18t-98 18t-90.5 8q-30 0 -52.5 -7.5t-39.5 -27.5q-7 24 -7 48q0 32 25 52.5t78 20.5z" />
    <glyph glyph-name="notequal" unicode="&#x2260;" horiz-adv-x="500" 
d="M256 383l33 125q13 -4 24 -9q9 -5 17 -12.5t8 -19.5q0 -18 -8 -42t-13 -42h115q1 -5 1.5 -11t0.5 -14q0 -10 -2 -20.5t-7 -19t-14 -14t-24 -5.5h-92l-21 -80h158q1 -5 1.5 -11t0.5 -14q0 -10 -2 -20.5t-7 -19t-14 -14t-24 -5.5h-135l-36 -134q-14 3 -25 8q-10 5 -17.5 13
t-7.5 20q0 2 2 10l22 83h-121q-3 9 -3 24q0 10 2 20.5t7.5 19.5t15 14.5t23.5 5.5h98l21 80h-164q-3 9 -3 24q0 10 2 20.5t7.5 19.5t15 14.5t23.5 5.5h142z" />
    <glyph glyph-name="lessequal" unicode="&#x2264;" horiz-adv-x="414" 
d="M355 87q1 -5 2 -12.5t1 -16.5q0 -27 -15 -42.5t-58 -15.5h-220q-2 5 -3 11t-1 14q0 10 2.5 21t8 20t15 15t24.5 6h244zM342 205q-3 -6 -10 -14t-16 -14.5t-19.5 -11t-20.5 -4.5q-13 0 -25.5 8t-31.5 27l-135 135q-25 25 -25 53q0 29 26 55l192 192q6 -4 14 -10t16 -14
t13.5 -17.5t5.5 -19.5q0 -13 -10 -26.5t-24 -27.5l-130 -131z" />
    <glyph glyph-name="greaterequal" unicode="&#x2265;" horiz-adv-x="411" 
d="M349 87q1 -5 2 -12.5t1 -16.5q0 -28 -16 -43t-56 -15h-221q-3 9 -3 23q0 10 2 21.5t8 21t15.5 15.5t24.5 6h243zM244 385l-153 153q-14 14 -14 30q0 11 6 21t14.5 18.5t17.5 14.5t14 9l191 -192q27 -27 27 -56q0 -26 -26 -52l-159 -159q-8 -8 -17.5 -11t-17.5 -3
q-11 0 -21 5.5t-18.5 13t-14.5 15.5t-9 13z" />
    <glyph glyph-name="lozenge" unicode="&#x25ca;" horiz-adv-x="833" 
d="M259 406q0 -9 8 -16.5t19 -10.5l97 -16l2 76q0 6 -7.5 14.5t-17.5 10.5l-96 18zM600 418l-89 18q-9 0 -16 -3.5t-7 -13.5l1 -74l91 -17q26 0 25 17zM536 114q2 0 5 -0.5t5 -0.5q35 0 48 18t13 41q0 5 -1.5 13t-8.5 34q-12 -14 -23.5 -18t-31.5 -4l-220 35q-20 5 -32.5 14
t-25.5 26q-7 -24 -8.5 -32t-1.5 -13q0 -26 16 -50t60 -33zM214 590q8 1 15.5 1.5t16.5 0.5q36 0 92.5 -8.5t115 -22t109 -29t75.5 -28.5l25 13q18 9 31.5 21.5t13.5 25.5q0 8 -1.5 13t-6.5 13q12 -6 25.5 -14t25 -17.5t18.5 -20.5t7 -23t-8.5 -23.5t-29.5 -24.5l-38 -23
q5 -11 9 -23.5t5 -26.5l25 -225q1 -7 1 -13v-13q0 -69 -51 -108.5t-161 -39.5q-22 0 -46 1.5t-51 5.5q-171 21 -254.5 84.5t-83.5 155.5q0 7 0.5 13.5t1.5 14.5l30 234q2 16 7 28.5t11 22.5l-41 38q-25 23 -36 39.5t-11 29.5t8.5 22t22 14t30 7t32.5 2q-12 -9 -12 -21
q0 -15 16 -34t37 -39z" />
    <glyph glyph-name="st" unicode="&#xfb06;" horiz-adv-x="928" 
d="M35 359q0 81 53.5 121.5t156.5 40.5q55 0 101 -11q-3 12 -3 23q0 30 12 54t33.5 41t50 26.5t61.5 9.5q34 0 64.5 -9t53.5 -28t36.5 -49.5t13.5 -73.5v-16h206q-1 -24 -8 -42q-6 -16 -18.5 -29t-35.5 -13h-144v-220q0 -52 20.5 -82t78.5 -30q24 0 46 6t39.5 18.5
t27.5 32.5t10 48q35 -44 35 -81q0 -49 -47.5 -78.5t-123.5 -29.5q-90 0 -140.5 44t-50.5 124v323q0 50 -18.5 76t-50.5 26q-24 0 -39.5 -7t-25 -18t-13.5 -26t-4 -31q0 -6 0.5 -11.5t1.5 -10.5q24 -24 24 -55q0 -18 -8 -39.5t-26 -46.5q0 49 -42.5 73.5t-111.5 24.5
q-60 0 -84 -17t-24 -55q0 -20 14 -30t36.5 -15t51 -7.5t59 -7t59 -13t51 -26t36.5 -46t14 -72.5q0 -72 -53.5 -114.5t-164.5 -42.5q-44 0 -81.5 6.5t-64.5 19.5t-42.5 32.5t-15.5 45.5q0 19 9 40t30 47q1 -30 14.5 -50t36 -32.5t52 -18t62.5 -5.5q48 0 79.5 19t31.5 58
q0 31 -24 44t-59.5 18.5t-77 9t-77 16t-59.5 40.5t-24 81z" />
    <glyph glyph-name="kreska" horiz-adv-x="489" 
d="M187 604q10 36 16 56.5t9 31.5t4 16.5t1 11.5q0 25 -24 44q11 2 19 3.5t16 1.5q28 0 51 -13.5t23 -47.5q0 -11 -6 -29.5t-14.5 -38.5t-16.5 -38t-11 -26q-5 -2 -10 -3q-9 -3 -21 -3t-25 4.5t-13 18.5v5.5t2 5.5z" />
    <glyph glyph-name="ct" horiz-adv-x="933" 
d="M673 488h206q-1 -24 -8 -42q-6 -16 -18.5 -29t-35.5 -13h-144v-220q0 -52 20.5 -82t78.5 -30q24 0 46 6t39.5 18.5t27.5 32.5t10 48q35 -44 35 -81q0 -49 -47.5 -78.5t-123.5 -29.5q-90 0 -140.5 44t-50.5 124v323q0 50 -17 76t-50 26q-44 0 -63 -24t-19 -58q0 -13 3 -25
q24 -24 24 -57q0 -36 -32 -81q0 51 -38.5 75t-98.5 24t-88.5 -24t-28.5 -80v-155q0 -53 30 -78t93 -25q69 0 112.5 27.5t44.5 76.5q15 -22 21 -40.5t6 -36.5q0 -27 -15.5 -47.5t-42 -35t-61.5 -22t-75 -7.5q-101 0 -159.5 44.5t-58.5 123.5v195q0 79 55.5 123.5t157.5 44.5
q25 0 46 -3t41 -9q-4 15 -4 31q0 28 12.5 51.5t34 40t49.5 25.5t60 9q34 0 64.5 -9t53 -28t35.5 -49.5t13 -73.5v-16z" />
    <glyph glyph-name="apple" horiz-adv-x="1019" 
d="M368 95q0 -20 14.5 -31t32.5 -16q20 -6 47 -7v209h127q26 0 40 11.5t21 25.5q8 17 9 38h-197v133h187q19 0 29 11t15 25q5 16 6 37h-331v-436zM895 190l-92 -54v-111l-195 -104l-97 53l-100 -53l-194 104v111l-91 54v203l91 54v111l194 104l100 -54l97 54l195 -104v-111
l92 -54v-203zM938 405l-102 59v124l-218 115l-107 -59l-110 59l-217 -115v-124l-103 -59v-227l103 -58v-125l217 -116l110 60l107 -60l218 116v125l102 58v227zM984 166l-112 -66v-138l-241 -128l-120 64l-122 -64l-241 128v138l-113 66v252l113 65v137l241 129l122 -65
l120 65l241 -129v-137l112 -65v-252z" />
    <glyph glyph-name="commaaccent" horiz-adv-x="250" 
d="M82 -36h67q12 0 21 -7.5t9 -21.5v-22q0 -28 -3.5 -52.5t-12.5 -43t-24.5 -29t-39.5 -10.5q-11 0 -25.5 3.5t-28.5 13.5q23 7 31.5 25.5t8.5 41.5q0 11 -1 21t-3 19l-11 62h12z" />
    <glyph glyph-name="f.alt" horiz-adv-x="349" 
d="M65 609q0 75 40.5 119t107.5 44q29 0 57 -12t38 -50q-46 0 -73 -8.5t-41.5 -25.5t-19 -42.5t-4.5 -59.5v-86h184q-1 -24 -8 -42q-6 -16 -19 -29t-36 -13h-121v-411q-30 1 -53 7q-20 5 -36 16.5t-16 33.5v559z" />
    <glyph glyph-name="ff.alt" horiz-adv-x="698" 
d="M170 488h244v90q-1 22 -13 38t-30.5 25.5t-42.5 14t-49 4.5q-51 0 -80 -26.5t-29 -75.5v-70zM414 404h-244v-411q-30 1 -53 7q-20 5 -36 16.5t-16 33.5v526q0 40 17 71t46 53t67.5 33.5t81.5 11.5q52 0 92 -13t63 -35q17 35 51 55t79 20q29 0 57 -12t38 -50
q-46 0 -73 -8.5t-41.5 -25.5t-19 -42.5t-4.5 -59.5v-86h184q-1 -24 -8 -42q-6 -16 -19 -29t-36 -13h-121v-411q-30 1 -53 7q-20 5 -36 16.5t-16 33.5v354z" />
    <glyph glyph-name="f.alt2" horiz-adv-x="349" 
d="M65 619q0 39 18 70.5t47 53t65 33t71 11.5q31 0 59.5 -6t50.5 -18t35 -29.5t13 -39.5q0 -38 -39 -74q-2 22 -12 37.5t-26 25.5t-36 14.5t-41 4.5q-18 0 -36 -6t-32.5 -18t-23 -30.5t-8.5 -43.5v-116h184q-1 -24 -8 -42q-6 -16 -19 -29t-36 -13h-121v-411q-30 1 -53 7
q-20 5 -36 16.5t-16 33.5v569z" />
    <glyph glyph-name="ff.alt2" horiz-adv-x="698" 
d="M170 488h244v87q0 23 -12 39.5t-31 26.5t-43 14.5t-49 4.5q-51 0 -80 -26.5t-29 -75.5v-70zM414 404h-244v-411q-30 1 -53 7q-20 5 -36 16.5t-16 33.5v526q0 40 17 71t46 53t67.5 33.5t81.5 11.5q54 0 95.5 -13.5t62.5 -37.5q13 22 33 39.5t44 29.5t50.5 18t52.5 6
q31 0 59.5 -6t50.5 -18t35 -29.5t13 -39.5q0 -38 -39 -74q-2 22 -12 37.5t-26 25.5t-36 14.5t-41 4.5q-18 0 -36 -6t-32.5 -18t-23 -30.5t-8.5 -43.5v-116h184q-1 -24 -8 -42q-6 -16 -19 -29t-36 -13h-121v-411q-30 1 -53 7q-20 5 -36 16.5t-16 33.5v354z" />
    <glyph glyph-name="zero.tnum" horiz-adv-x="647" 
d="M473 516q0 63 -35.5 91t-114.5 28q-78 0 -113.5 -28t-35.5 -91v-325q0 -63 35.5 -91t113.5 -28q79 0 114.5 28t35.5 91v325zM582 176q0 -47 -18.5 -82.5t-52.5 -59t-82 -35t-106 -11.5t-105.5 11.5t-81.5 35t-52.5 59t-18.5 82.5v355q0 47 18.5 82.5t52.5 59t81.5 35
t105.5 11.5t106 -11.5t82 -35t52.5 -59t18.5 -82.5v-355z" />
    <glyph glyph-name="one.tnum" horiz-adv-x="647" 
d="M215 707q35 0 69.5 2t60.5 4q31 3 58 6l-6 -36q-2 -16 -3.5 -33.5t-1.5 -33.5v-527h172q1 -6 1.5 -11.5t0.5 -11.5q0 -26 -13.5 -46t-42.5 -20h-399q-1 3 -2 7t-1 17q0 16 2.5 28.5t10.5 20.5t22.5 12t37.5 4h105v531h-38q-22 0 -43.5 -2.5t-39 -10.5t-28 -24t-10.5 -44
q-23 20 -33.5 41t-10.5 41q0 40 33.5 63t98.5 23z" />
    <glyph glyph-name="two.tnum" horiz-adv-x="647" 
d="M76 95q0 62 28.5 103t71.5 69.5t92.5 49.5t92.5 45t71.5 55t28.5 79v17q0 50 -34 83.5t-105 33.5q-36 0 -72 -6t-64.5 -20.5t-46 -39t-17.5 -61.5q-35 45 -35 86q0 30 18.5 54t50 41t74.5 26t92 9q54 0 99.5 -13t78.5 -37.5t51.5 -59.5t18.5 -78v-40q0 -49 -16.5 -84.5
t-44 -61.5t-62 -45t-71 -35t-71 -31t-62 -34t-44 -43.5t-16.5 -58.5v-9h315q21 0 36.5 2t26.5 5q12 4 21 8q-1 -29 -9 -52q-7 -20 -22 -36t-42 -16h-433v95z" />
    <glyph glyph-name="three.tnum" horiz-adv-x="647" 
d="M319 630q-36 0 -72 -6t-64.5 -20.5t-46 -39t-17.5 -61.5q-35 45 -35 86q0 30 18.5 54t50 41t74.5 26t92 9q54 0 99.5 -13t78.5 -37t51.5 -58.5t18.5 -77.5v-25q0 -49 -23 -89.5t-72 -53.5q27 -8 46.5 -23.5t32.5 -36.5t19.5 -46t6.5 -50v-30q0 -43 -18.5 -78.5
t-52.5 -60.5t-81.5 -38.5t-105.5 -13.5q-52 0 -97 8.5t-78 24.5t-52 40t-19 55q0 20 8.5 42.5t27.5 48.5q0 -38 18 -63t47 -40t67 -21t78 -6q78 0 113.5 33.5t35.5 83.5q0 111 -110 126q-6 1 -15 3t-17 9t-14 21t-6 39q0 4 0.5 7t0.5 7h20q73 0 102 27t29 85q0 49 -35 80.5
t-104 31.5z" />
    <glyph glyph-name="four.tnum" horiz-adv-x="647" 
d="M397 529q0 10 0.5 21.5t1.5 20.5q1 11 3 21q-2 -4 -5 -8q-2 -4 -5 -8.5t-7 -8.5l-29 -34q-24 -28 -50 -59.5t-49.5 -65t-43 -66.5t-30.5 -64h214v251zM56 196q3 46 27.5 101t60 110.5t77.5 108.5t79.5 96t65.5 71.5t36 35.5q29 -2 52 -8q20 -5 36 -17t16 -32v-384h82
q0 -2 -1.5 -15t-7.5 -28t-18.5 -27t-35.5 -12h-19v-206q-3 0 -20 1t-37 6.5t-36 17t-16 32.5v149h-341z" />
    <glyph glyph-name="five.tnum" horiz-adv-x="647" 
d="M309 -12q-48 0 -92 7.5t-77.5 23.5t-54 39.5t-20.5 56.5q0 41 35 92q0 -38 17.5 -63t47 -40t67 -21t77.5 -6q79 0 114.5 26t35.5 89v62q0 58 -35.5 90.5t-114.5 32.5h-127q-18 0 -32.5 -0.5t-25.5 -0.5q-12 -1 -21 -1q1 10 3 21q2 10 3 24t1 32v147v14t1 20q2 8 4.5 20.5
t10.5 24.5t25 20.5t49 8.5h247q23 0 38 2t26 4q11 3 20 6q-1 -29 -9 -51q-7 -19 -22 -34.5t-42 -15.5h-239v-107q0 -11 -1 -20t-2 -16q-1 -8 -2 -14h93q59 0 107 -11t82.5 -34.5t53 -60.5t18.5 -88v-88q0 -47 -18.5 -83t-52.5 -60t-82 -36t-106 -12z" />
    <glyph glyph-name="six.tnum" horiz-adv-x="647" 
d="M323 72q79 0 114.5 28t35.5 91v48q0 63 -34 91t-106 28q-35 0 -63.5 -6t-49.5 -19t-33 -35t-13 -53v-54q0 -63 35.5 -91t113.5 -28zM582 176q0 -47 -18.5 -82.5t-52.5 -59t-82 -35t-106 -11.5t-105.5 11.5t-81.5 35t-52.5 59t-18.5 82.5v355q0 47 18.5 82.5t52.5 59
t81.5 35t105.5 11.5q52 0 97 -8t78 -24t51.5 -39t18.5 -54q0 -41 -35 -92q0 37 -17 61.5t-45.5 39.5t-66.5 21t-81 6q-78 0 -113.5 -25.5t-35.5 -88.5v-70q0 -10 -1 -20.5t-2 -18.5q-1 -11 -2 -20q15 15 38 27q20 11 50.5 19.5t75.5 8.5q54 0 100 -11.5t79 -35t51.5 -59
t18.5 -82.5v-78z" />
    <glyph glyph-name="seven.tnum" horiz-adv-x="647" 
d="M146 618q-23 0 -38.5 -2t-25.5 -4q-11 -3 -19 -6q1 28 9 50q7 19 21.5 35t41.5 16h469q0 -84 -25 -150.5t-63 -122.5t-82.5 -105.5t-83 -100t-64.5 -105.5t-27 -121q-8 -3 -15 -6l-14 -4t-15 -2q-23 0 -43 8.5t-20 35.5q0 56 21 105t53.5 94.5t72 90t76.5 90.5t67 96.5
t43 107.5h-339z" />
    <glyph glyph-name="eight.tnum" horiz-adv-x="647" 
d="M184 518q0 -62 29 -90t102 -28h16q74 0 103 28t29 90q0 63 -34 90t-106 27q-71 0 -105 -27t-34 -90zM473 193q0 64 -35.5 93.5t-114.5 29.5q-78 0 -113.5 -30t-35.5 -96q0 -64 35.5 -91t113.5 -27q79 0 114.5 28.5t35.5 92.5zM65 208q0 51 25 91t73 60q-42 19 -65 58
t-23 88v26q0 47 18.5 82.5t51.5 59t78.5 35t99.5 11.5t100 -11.5t79 -35t51.5 -59t18.5 -82.5v-26q0 -49 -23.5 -88t-65.5 -58q49 -20 74 -60t25 -91v-29q0 -47 -18.5 -83t-52.5 -60t-82 -36t-106 -12t-105.5 11.5t-81.5 35t-52.5 59t-18.5 82.5v32z" />
    <glyph glyph-name="nine.tnum" horiz-adv-x="647" 
d="M323 635q-78 0 -113.5 -28t-35.5 -91v-47q0 -63 34 -91t105 -28t114.5 25t45.5 88v53q0 63 -35.5 91t-114.5 28zM65 531q0 47 18.5 82.5t52.5 59t81.5 35t105.5 11.5t106 -11.5t82 -35t52.5 -59t18.5 -82.5v-355q0 -47 -18.5 -82.5t-52.5 -59t-82 -35t-106 -11.5
q-53 0 -97.5 8t-77.5 23.5t-51.5 38.5t-18.5 54q0 20 8.5 43.5t27.5 49.5q0 -37 16.5 -61.5t45 -39.5t66.5 -21t81 -6q79 0 114.5 25.5t35.5 88.5v71q0 10 0.5 20t1.5 19l2 20q-15 -16 -38 -28q-20 -11 -50.5 -19t-75.5 -8q-54 0 -99.5 11.5t-78.5 35t-51.5 59t-18.5 82.5
v77z" />
    </font>
</defs>
</svg>
