<?xml version="1.0" standalone="no"?>
<!DOCTYPE svg PUBLIC "-//W3C//DTD SVG 1.1//EN" "http://www.w3.org/Graphics/SVG/1.1/DTD/svg11.dtd" >
<svg xmlns="http://www.w3.org/2000/svg" xmlns:xlink="http://www.w3.org/1999/xlink" version="1.1">
<metadata>
Created by FontForge 20170731 at Mon Apr  5 12:23:40 2021
 By Aleksey,,,
Copyright (c) 2007 by Jos Buivenga. All rights reserved.
</metadata>
<defs>
<font id="DiavloBold-Regular" horiz-adv-x="1478" >
  <font-face 
    font-family="Diavlo Bold"
    font-weight="700"
    font-stretch="normal"
    units-per-em="2048"
    panose-1="2 0 0 0 0 0 0 0 0 0"
    ascent="1536"
    descent="-512"
    x-height="1055"
    cap-height="1485"
    bbox="-211 -506 2238 2038"
    underline-thickness="102"
    underline-position="-409"
    unicode-range="U+0020-FB06"
  />
<missing-glyph horiz-adv-x="512" 
 />
    <glyph glyph-name="ff" unicode="ff" horiz-adv-x="1490" 
d="M868 119v684h-479v-817q-11 0 -29 1t-63.5 8t-81 19.5t-64 40t-28.5 64.5v1067q0 109 66.5 192.5t172 125.5t230.5 42q118 0 202.5 -29.5t127.5 -80.5q62 90 181 141t255 51q131 0 227.5 -31.5t141.5 -83t32.5 -123t-90.5 -147.5q3 50 -25 87t-76 56t-98 28t-102 9
q-100 0 -166.5 -55t-66.5 -145v-217h366q0 -4 -0.5 -11.5t-3.5 -28.5t-8.5 -40t-17 -42.5t-27 -40.5t-40.5 -28.5t-56 -11.5h-213v-817q-6 0 -15.5 0.5t-37 3t-53 7t-56 14.5t-53 23.5t-37.5 35.5t-15 49zM389 1141v-135h479v155q0 50 -23.5 87t-63.5 56.5t-84 28t-95 8.5
q-98 0 -155.5 -54t-57.5 -146z" />
    <glyph glyph-name="fi" unicode="fi" horiz-adv-x="1257" 
d="M633 649h-244v-663q-11 0 -29 1t-63.5 8t-81 19.5t-64 40t-28.5 64.5v1149q0 109 72.5 192.5t187.5 125.5t250 42q105 0 193.5 -17.5t149 -52t87 -81.5t5 -110.5t-94.5 -133.5q-1 49 -36 87.5t-88.5 60t-109 32t-106.5 10.5q-98 0 -171 -49.5t-73 -136.5v-385h244
q99 0 167 56.5t68 125.5v35q15 0 33.5 -1t64.5 -8t80 -19.5t61.5 -40t27.5 -64.5v-950q-6 0 -15.5 0.5t-37 3t-53 7t-56 14.5t-53 23.5t-37.5 35.5t-15 49v608q-3 -3 -8 -8.5t-25.5 -19t-45 -23.5t-66.5 -18.5t-90 -8.5z" />
    <glyph glyph-name="fl" unicode="fl" horiz-adv-x="1257" 
d="M123 119v1149q0 108 71.5 192t182 126t235.5 42q56 0 137 -12t167.5 -34t147 -62t60.5 -88v-1059q0 -37 1 -62t5 -65.5t13.5 -67.5t25 -54.5t41.5 -41.5t60 -14q-61 -82 -170 -82q-118 0 -180 91.5t-62 229.5v1059q-84 57 -235 57q-101 0 -167.5 -55t-66.5 -145v-217h346
q0 -4 -0.5 -11.5t-3.5 -28.5t-8.5 -40t-17 -42.5t-27 -40.5t-40.5 -28.5t-56 -11.5h-193v-817q-11 0 -29 1t-63.5 8t-81 19.5t-64 40t-28.5 64.5z" />
    <glyph glyph-name="ffi" unicode="ffi" horiz-adv-x="2002" 
d="M1378 649h-243v-663q-6 0 -15.5 0.5t-37 3t-53 7t-56 14.5t-53 23.5t-37.5 35.5t-15 49v530h-479v-663q-11 0 -29 1t-63.5 8t-81 19.5t-64 40t-28.5 64.5v1067q0 109 66.5 192.5t172 125.5t230.5 42q118 0 202.5 -29.5t127.5 -80.5q63 91 187 141.5t269 50.5
q105 0 193.5 -17.5t149 -52t87 -81.5t5 -110.5t-94.5 -133.5q-1 49 -36 87.5t-88.5 60t-109 32t-106.5 10.5q-98 0 -170.5 -49.5t-72.5 -136.5v-385h243q99 0 167.5 56.5t68.5 125.5v35q14 0 33 -1t64.5 -8t79.5 -19.5t61.5 -40t27.5 -64.5v-950q-11 0 -29 1t-63.5 8
t-81 19.5t-64 40t-28.5 64.5v606q-76 -76 -236 -76zM389 1141v-289h479v319q-3 48 -27.5 82.5t-64 53t-82.5 26.5t-92 8q-98 0 -155.5 -54t-57.5 -146z" />
    <glyph glyph-name="ffl" unicode="ffl" horiz-adv-x="2002" 
d="M123 119v1067q0 109 66.5 192.5t172 125.5t230.5 42q118 0 202.5 -29.5t127.5 -80.5q62 92 183 142t257 50q77 0 164.5 -14t164.5 -39t128 -63t51 -80v-1059q0 -32 0.5 -52.5t3.5 -56t8 -59t16 -52t26 -45.5t38 -28.5t53 -11.5q-61 -82 -170 -82q-118 0 -179.5 91.5
t-61.5 229.5v1059q-84 57 -236 57q-100 0 -166.5 -55t-66.5 -145v-217h346q0 -8 -1 -22t-9.5 -49t-23 -61.5t-46 -48.5t-74.5 -22h-192v-817q-6 0 -15.5 0.5t-37 3t-53 7t-56 14.5t-53 23.5t-37.5 35.5t-15 49v684h-479v-817q-11 0 -29 1t-63.5 8t-81 19.5t-64 40
t-28.5 64.5zM389 1141v-135h479v165q-3 48 -27.5 82.5t-64 53t-82.5 26.5t-92 8q-98 0 -155.5 -54t-57.5 -146z" />
    <glyph glyph-name="fj" unicode="fj" horiz-adv-x="1257" 
d="M1135 936v-1104q0 -134 -66 -227.5t-176 -93.5t-215 92q51 0 89.5 30t59.5 76.5t31 94.5t10 94v829q-3 -3 -8 -8.5t-25.5 -19t-45 -23.5t-66.5 -18.5t-90 -8.5h-244v-663q-11 0 -29 1t-63.5 8t-81 19.5t-64 40t-28.5 64.5v1149q0 109 72.5 192.5t187.5 125.5t250 42
q192 0 317 -57t125 -154q0 -85 -102 -184q-1 49 -36 87.5t-88.5 60t-109 32t-106.5 10.5q-98 0 -171 -49.5t-73 -136.5v-385h244q99 0 167 56.5t68 125.5v35q15 0 33.5 -1t64.5 -8t80 -19.5t61.5 -40t27.5 -64.5z" />
    <glyph glyph-name=".notdef" horiz-adv-x="512" 
 />
    <glyph glyph-name=".null" horiz-adv-x="0" 
 />
    <glyph glyph-name="nonmarkingreturn" horiz-adv-x="682" 
 />
    <glyph glyph-name="space" unicode=" " horiz-adv-x="573" 
 />
    <glyph glyph-name="exclam" unicode="!" horiz-adv-x="593" 
d="M471 1352v-971q-11 0 -29 0.5t-63.5 7t-81 19t-64 40.5t-28.5 66v971q11 0 29 -1t63.5 -8t81 -19.5t64 -40t28.5 -64.5zM215 63v193h168q32 0 56 -19.5t24 -43.5v-193h-166q-34 0 -58 18.5t-24 44.5z" />
    <glyph glyph-name="quotedbl" unicode="&#x22;" horiz-adv-x="901" 
d="M549 1227v237h108q72 0 98.5 -35.5t26.5 -97.5v-65q0 -54 -8 -99t-26.5 -85.5t-54.5 -63.5t-87 -23q-36 0 -67 15.5t-43 31.5l-13 15l7.5 2.5t15.5 12t20 27t16 50.5t7 78zM150 1227v237h108q72 0 98.5 -35.5t26.5 -97.5v-65q0 -54 -8 -99t-26.5 -85.5t-54.5 -63.5
t-87 -23q-36 0 -67 15.5t-44 31.5l-12 15l7.5 2.5t15.5 12t20 27t16 50.5t7 78z" />
    <glyph glyph-name="numbersign" unicode="#" horiz-adv-x="1423" 
d="M711 147l51 218h-268l-93 -390q-42 0 -97 22.5t-95 65t-29 87.5l51 215h-188q-6 24 -6 59q0 20 2.5 39t11 39.5t21.5 35.5t35.5 25t52.5 10h121q10 43 29 130t34 145h-184q-6 24 -6 59q0 27 5 50t17 47t37.5 38.5t62.5 14.5h117q69 276 109 440q39 0 94 -23.5t96.5 -66.5
t30.5 -86l-64 -264h265q46 184 108 440q41 0 96.5 -23.5t95.5 -66.5t29 -88l-63 -262h190q6 -29 6 -64q0 -145 -120 -145h-127q-10 -40 -29.5 -128t-34.5 -147h189q6 -28 6 -63q0 -26 -5 -49t-17 -46t-37.5 -36.5t-61.5 -13.5h-125l-92 -390q-39 0 -94 22t-96.5 64t-30.5 86
zM608 848l-63 -275h266q10 43 29 130t34 145h-266z" />
    <glyph glyph-name="dollar" unicode="$" horiz-adv-x="1318" 
d="M578 -100v80q-96 3 -176 18t-147.5 43.5t-105.5 77.5t-38 114q0 85 73 191q0 -219 394 -236v453q-51 8 -82.5 13.5t-79 16.5t-78 22t-69.5 29t-64 38.5t-51.5 50t-41.5 64.5t-24.5 80.5t-9.5 99.5q0 90 24 161t67 119.5t106.5 81.5t137.5 49.5t165 20.5v160
q1 -2 13.5 0.5t32 -3.5t38 -15.5t32 -34t13.5 -60.5v-47q104 -3 181 -17.5t136 -43t89 -76.5t30 -115q0 -83 -68 -207q0 54 -18.5 96t-51 69t-80 45t-100.5 26t-118 10v-387q62 -9 105 -18t98 -25.5t92 -38t76 -55.5t62 -77.5t37.5 -105t14.5 -137.5q0 -208 -125.5 -321.5
t-359.5 -128.5v-189q-5 0 -14 0.5t-31 5.5t-39 15.5t-31 33t-14 54.5zM907 412q0 93 -46.5 137t-153.5 67v-423q115 13 157.5 66t42.5 153zM360 1085q0 -81 53.5 -119t164.5 -59v367q-108 -9 -163 -54.5t-55 -134.5z" />
    <glyph glyph-name="percent" unicode="%" horiz-adv-x="1658" 
d="M733 1266v-234q0 -102 -89 -156.5t-243 -54.5t-242.5 54.5t-88.5 156.5v234q0 101 89.5 159t241.5 58t242 -58t90 -159zM510 1085v134q0 47 -23 70.5t-86 23.5q-64 0 -86 -23t-22 -71v-134q0 -49 21.5 -71.5t86.5 -22.5q64 0 86.5 23t22.5 71zM1589 424v-234
q0 -102 -89 -156t-243 -54t-242.5 54t-88.5 156v234q0 101 89.5 159t241.5 58t242 -58t90 -159zM1366 244v133q0 47 -23 70.5t-86 23.5q-64 0 -86 -23t-22 -71v-133q0 -49 21.5 -71.5t86.5 -22.5q64 0 86.5 23t22.5 71zM317 375l949 948q32 -32 50 -52.5t37 -54t19 -61.5
q0 -41 -37 -78l-948 -948q-104 100 -104 168q0 44 34 78z" />
    <glyph glyph-name="ampersand" unicode="&#x26;" horiz-adv-x="1255" 
d="M602 631h-8q-207 -23 -207 -217q0 -101 70 -163.5t211 -62.5q83 0 154 12.5t134 41t99.5 82t36.5 127.5q81 -93 89 -180.5t-49 -152.5t-178 -104t-286 -39q-249 0 -402 112t-153 296v61q0 105 55.5 196.5t150.5 117.5q-86 24 -136 106.5t-50 182.5v51q0 181 148.5 286
t386.5 105q105 0 194.5 -18.5t153 -51t102.5 -78.5t48.5 -99t-14 -114.5t-81.5 -123.5q1 79 -35 135t-98 84.5t-128 40.5t-142 12q-128 0 -194 -56t-66 -153q0 -116 43.5 -168t150.5 -59v247q10 0 26 -1t57.5 -9t73 -20.5t57.5 -40t26 -64.5v-114h213q0 -8 -1 -22t-9.5 -50
t-23 -63t-46 -49.5t-74.5 -22.5h-59v-111q0 -41 9 -84t19 -66l9 -22q-58 6 -103.5 19.5t-74 28t-49 35.5t-30 36t-14.5 37.5t-5.5 32t-0.5 26.5v6v62z" />
    <glyph glyph-name="quotesingle" unicode="'" horiz-adv-x="501" 
d="M150 1227v237h108q72 0 98.5 -35.5t26.5 -97.5v-65q0 -54 -8 -99t-26.5 -85.5t-54.5 -63.5t-87 -23q-36 0 -67 15.5t-44 31.5l-12 15l7.5 2.5t15.5 12t20 27t16 50.5t7 78z" />
    <glyph glyph-name="parenleft" unicode="(" horiz-adv-x="688" 
d="M352 545q0 -247 33 -448t106 -335t177 -149q-2 -4 -6 -9.5t-19.5 -21t-33 -27t-47 -21t-62.5 -9.5q-106 0 -202.5 138t-156 374t-59.5 504q0 201 35.5 389t93 323.5t134 217t155.5 81.5q33 0 62 -9t47.5 -22t32.5 -26t20 -22l6 -9q-104 -15 -177 -147.5t-106 -330.5
t-33 -441z" />
    <glyph glyph-name="parenright" unicode=")" horiz-adv-x="688" 
d="M336 545q0 243 -33 441t-106 330.5t-177 147.5q2 4 6 9.5t19.5 21t33 27t47 21t62.5 9.5q79 0 155.5 -81.5t134 -217t93 -323.5t35.5 -389q0 -268 -59.5 -504t-156 -374t-202.5 -138q-33 0 -62 9t-47.5 22t-32.5 26t-20 22l-6 9q104 15 177 149t106 335t33 448z" />
    <glyph glyph-name="asterisk" unicode="*" horiz-adv-x="858" 
d="M205 1118q24 41 82 86q-30 6 -56 6q-86 0 -147 -75q-16 47 -16 104q0 51 37 88t120 37q36 0 115 -27q-34 121 -160 142q2 3 7 8.5t19.5 20t30.5 25t39.5 19.5t47.5 9q50 0 96.5 -49t60.5 -154q58 65 58 131q0 35 -15 78q6 -1 17 -2.5t38 -10.5t48 -22.5t38 -40.5t17 -61
q0 -94 -111 -185q27 -8 58 -8q83 0 145 76q17 -46 17 -103q0 -51 -37.5 -88t-120.5 -37q-38 0 -117 27q40 -126 162 -141q-2 -3 -7 -8.5t-20 -20t-30.5 -25t-39 -19.5t-46.5 -9q-51 0 -95.5 47.5t-64.5 155.5q-58 -65 -58 -131q0 -29 17 -78l-17.5 2.5t-38 10.5t-48.5 22.5
t-38.5 40.5t-17.5 61q0 38 31 98z" />
    <glyph glyph-name="plus" unicode="+" horiz-adv-x="1067" 
d="M403 221v199h-274q-1 4 -2 11.5t-2.5 29.5t0 41.5t8.5 44t19.5 41.5t36.5 29t57 12h157v262q10 2 27 5t60 4.5t76 -5t60 -31.5t27 -67v-168h283q1 -4 2.5 -11.5t3 -29.5t0.5 -41.5t-8 -44t-19.5 -41.5t-36.5 -29t-57 -12h-168v-293q-5 -1 -14 -2.5t-35 -4t-49.5 -2.5
t-52.5 5t-50 15.5t-35 31.5t-14 51z" />
    <glyph glyph-name="comma" unicode="," horiz-adv-x="501" 
d="M113 256h67h107q39 0 63.5 -20t24.5 -58v-153q0 -70 -8.5 -121t-29.5 -92.5t-59.5 -62.5t-95.5 -21q-76 0 -129 43q40 10 66 40t32.5 64.5t9.5 69t-3 53.5z" />
    <glyph glyph-name="hyphen" unicode="-" horiz-adv-x="1005" 
d="M231 623h643q2 -8 4 -21.5t2 -47.5t-7.5 -59.5t-32.5 -47t-66 -21.5h-645q-1 4 -2 11t-2.5 27.5t-0.5 39t7 41.5t17 39.5t32.5 27.5t50.5 11z" />
    <glyph glyph-name="period" unicode="." horiz-adv-x="501" 
d="M127 63v193h168q32 0 56 -19.5t24 -43.5v-193h-166q-34 0 -58 18.5t-24 44.5z" />
    <glyph glyph-name="slash" unicode="/" horiz-adv-x="681" 
d="M18 -328l439 1897q5 -1 13.5 -3t32.5 -8.5t45.5 -15t47 -22.5t42 -30t25.5 -39t3 -48l-439 -1895q-5 1 -13.5 2.5t-32.5 8.5t-45.5 15t-47 22t-42 30t-25.5 38.5t-3 47.5z" />
    <glyph glyph-name="zero" unicode="0" horiz-adv-x="1355" 
d="M1233 1087v-710q0 -196 -149.5 -299t-405.5 -103t-405.5 103t-149.5 299v710q0 196 149.5 299t405.5 103t405.5 -103t149.5 -299zM958 408v649q0 121 -66 175t-214 54t-214.5 -54t-66.5 -175v-649q0 -121 66.5 -175.5t214.5 -54.5t214 54.5t66 175.5z" />
    <glyph glyph-name="one" unicode="1" horiz-adv-x="1134" 
d="M371 1464q86 0 189.5 7t164.5 15l61 7q-26 -147 -26 -231v-1049h348q6 -28 6 -63q0 -27 -5 -50.5t-17 -47.5t-37.5 -38t-61.5 -14h-858q-6 26 -6 59q0 27 5 51t17.5 49t38.5 39.5t64 14.5h238v1040q-24 1 -55 0t-64 -0.5t-65 -9t-57 -25.5t-40.5 -51t-15.5 -84
q0 -27 2 -41q-125 116 -125 232q0 84 75.5 137t223.5 53z" />
    <glyph glyph-name="two" unicode="2" horiz-adv-x="1261" 
d="M92 0v211q0 81 27 148.5t72.5 114.5t104 87t124 70.5t130.5 59.5t123.5 61t104 68t72.5 86t27 110v35q0 100 -67 162.5t-194 62.5q-76 0 -142 -12t-128 -40.5t-98 -84.5t-35 -135q-58 62 -81.5 123.5t-14 114.5t48.5 99t102.5 78.5t153 51t194.5 18.5q236 0 385.5 -110
t149.5 -292v-81q0 -83 -27 -152.5t-73 -118t-105 -89t-125 -70.5t-131.5 -58t-124.5 -56.5t-105 -60t-73 -74t-27 -94.5v-20h623q60 0 109.5 10.5t68.5 21.5l19 11q0 -5 -0.5 -14.5t-4 -36t-9.5 -50.5t-19 -53.5t-30.5 -51t-46 -36t-64.5 -14.5h-914z" />
    <glyph glyph-name="three" unicode="3" horiz-adv-x="1284" 
d="M627 1276q-60 0 -113.5 -7t-108.5 -25.5t-94 -48t-64 -78.5t-24 -113q-86 92 -95.5 181.5t47.5 155.5t176 107t276 41q238 0 386 -105t148 -286v-51q0 -100 -50 -182.5t-136 -106.5q95 -26 151 -118t56 -196v-61q0 -184 -153 -296t-402 -112q-167 0 -289 36.5t-182.5 101
t-51 158t98.5 200.5q0 -80 36.5 -137.5t100 -88t134 -44t153.5 -13.5q141 0 210.5 62.5t69.5 163.5q0 108 -50.5 166.5t-156.5 70.5q-19 3 -31 6t-33 15.5t-33 33t-20 60t-5 92.5h65q134 0 189 48t55 161q0 97 -66 153t-194 56z" />
    <glyph glyph-name="four" unicode="4" horiz-adv-x="1191" 
d="M10 387q6 111 77.5 259.5t167 281.5t202 260.5t177 201.5t99.5 99q10 0 27 -1.5t60 -9t76 -20.5t60 -39.5t27 -62.5v-770h178q0 -11 -1 -26t-9.5 -48.5t-23.5 -59t-46 -45.5t-73 -20h-25v-407q-15 0 -35.5 1t-66.5 8.5t-81 20t-63 39.5t-28 64v274h-699zM709 586v458
q0 19 2.5 47.5t4.5 46.5l3 19q-48 -73 -68 -96q-235 -270 -323 -475h381z" />
    <glyph glyph-name="five" unicode="5" horiz-adv-x="1222" 
d="M586 -25q-167 0 -289 36.5t-182.5 101t-51 158t98.5 200.5q0 -80 36.5 -137.5t100 -88t134 -44t153.5 -13.5q149 0 214.5 51t65.5 171v118q0 236 -280 236h-260q-57 0 -105 -1.5t-67 -2.5l-19 -2q17 80 17 176v338q0 4 0.5 11t3 27t8 38t17 40t27 38t41 27t56.5 11h563
q64 0 113.5 7t66.5 15l17 7q0 -5 -0.5 -13.5t-4 -34t-9.5 -48t-19 -50.5t-30.5 -48t-46 -34t-64.5 -14h-465v-194q0 -19 -2 -41.5t-4 -35.5l-2 -13h164q129 0 230 -24t175.5 -72.5t114 -128.5t39.5 -187v-172q0 -197 -150 -302.5t-405 -105.5z" />
    <glyph glyph-name="six" unicode="6" horiz-adv-x="1345" 
d="M1233 528v-151q0 -196 -149.5 -299t-405.5 -103t-405.5 103t-149.5 299v710q0 196 149.5 299t405.5 103q170 0 293 -37t182 -101.5t48 -156t-99 -195.5q3 80 -30 136t-95 86t-134.5 42.5t-164.5 12.5q-150 0 -215.5 -49.5t-65.5 -169.5v-109q0 -21 -2.5 -47t-4.5 -41
l-3 -16q4 3 11 9t34.5 21t60 26t88 20.5t117.5 9.5q158 0 277 -44t188.5 -135.5t69.5 -222.5zM678 178q148 0 214 54.5t66 175.5v90q0 120 -63 174.5t-197 54.5q-141 0 -219 -50.5t-82 -166.5v-102q0 -121 66.5 -175.5t214.5 -54.5z" />
    <glyph glyph-name="seven" unicode="7" horiz-adv-x="1171" 
d="M862 1251h-665q-64 0 -113.5 -7t-66.5 -14l-17 -7q0 5 0.5 13.5t4 33.5t9.5 48t19 51t30.5 48t46 33.5t64.5 13.5h985q3 -140 -33 -268t-96.5 -228t-134.5 -194t-149.5 -182t-139.5 -175t-106 -191t-47 -212q-66 -34 -115 -34q-154 0 -154 106q0 89 31 177t83 165.5
t115.5 155t132.5 156.5t130 156.5t111.5 170.5t74.5 184z" />
    <glyph glyph-name="eight" unicode="8" horiz-adv-x="1355" 
d="M123 377v57q0 107 53 191.5t148 117.5q-78 32 -129.5 117.5t-51.5 181.5v45q0 131 69.5 222.5t188.5 135.5t277 44t276.5 -44t188 -135.5t69.5 -222.5v-45q0 -96 -51 -181.5t-129 -117.5q95 -33 148 -117.5t53 -191.5v-51q0 -197 -150 -302.5t-405 -105.5
q-256 0 -405.5 103t-149.5 299zM958 408q0 123 -66 178t-214 55t-214.5 -56.5t-66.5 -183.5q0 -120 66 -171.5t215 -51.5q148 0 214 53.5t66 176.5zM418 1065q0 -119 55 -170t189 -51h32q134 0 189 51t55 170t-62.5 170t-197.5 51t-197.5 -51t-62.5 -170z" />
    <glyph glyph-name="nine" unicode="9" horiz-adv-x="1345" 
d="M113 936v151q0 196 149.5 299t405.5 103t405.5 -103t149.5 -299v-710q0 -196 -149.5 -299t-405.5 -103q-170 0 -293 37t-182 101.5t-48 156t99 195.5q-3 -80 30 -136t95 -86t134.5 -42.5t164.5 -12.5q150 0 215 50t65 170v108q0 21 2.5 47t5.5 42l2 16q-4 -3 -11 -9
t-34.5 -21t-60 -26t-88 -20.5t-117.5 -9.5q-158 0 -276.5 43.5t-188 135t-69.5 222.5zM668 1286q-148 0 -214.5 -54t-66.5 -175v-90q0 -120 63.5 -175t196.5 -55q141 0 219 50.5t82 166.5v103q0 121 -66 175t-214 54z" />
    <glyph glyph-name="colon" unicode=":" horiz-adv-x="501" 
d="M158 63v193h168q32 0 56 -19.5t24 -43.5v-193h-166q-34 0 -58 18.5t-24 44.5zM158 762v192h168q32 0 56 -19.5t24 -43.5v-193h-166q-34 0 -58 19t-24 45z" />
    <glyph glyph-name="semicolon" unicode=";" horiz-adv-x="501" 
d="M158 762v192h168q32 0 56 -19.5t24 -43.5v-193h-166q-34 0 -58 19t-24 45zM143 256h68h106q39 0 64 -20t25 -58v-153q0 -70 -8.5 -121t-29.5 -92.5t-59.5 -62.5t-95.5 -21q-76 0 -129 43q40 10 66 40t32.5 64.5t9 69t-3.5 53.5z" />
    <glyph glyph-name="less" unicode="&#x3c;" horiz-adv-x="874" 
d="M356 522l375 -375q-20 -41 -60.5 -71t-87 -35.5t-85.5 31.5l-336 336q-59 58 -58.5 114.5t60.5 116.5l411 412q29 -18 50 -33t43 -37.5t30.5 -43.5t2.5 -47.5t-31 -51.5z" />
    <glyph glyph-name="equal" unicode="=" horiz-adv-x="1030" 
d="M246 807h655q5 -46 3.5 -90t-31 -75.5t-85.5 -31.5h-655q-24 72 6 134.5t107 62.5zM246 451h655q5 -46 3.5 -90t-31 -75.5t-85.5 -31.5h-655q-24 72 6 134.5t107 62.5z" />
    <glyph glyph-name="greater" unicode="&#x3e;" horiz-adv-x="874" 
d="M143 147l375 375l-313 316q-31 31 -34.5 62.5t19 59.5t47.5 48.5t62 42.5l412 -412q117 -117 2 -231l-336 -336q-40 -37 -86 -31.5t-87 35.5t-61 71z" />
    <glyph glyph-name="question" unicode="?" horiz-adv-x="1136" 
d="M541 1276q-63 0 -116.5 -12.5t-98 -38t-70 -70.5t-25.5 -104q-83 77 -102.5 156.5t20 141t142 101t250.5 39.5q240 0 387 -100t147 -281v-51q0 -70 -26 -128.5t-67.5 -99.5t-91.5 -76.5t-100.5 -66.5t-92 -62.5t-67.5 -71t-26 -85.5v-98q-5 0 -14.5 0.5t-36.5 3t-51 7.5
t-54 15t-51.5 24.5t-36 37.5t-14.5 51v33q0 51 25 96t65 79t88.5 65t97.5 62t89 63t65 74.5t25 90.5q0 96 -65.5 150.5t-194.5 54.5zM350 63v193h168q32 0 56 -19.5t24 -43.5v-193h-166q-34 0 -58 18.5t-24 44.5z" />
    <glyph glyph-name="at" unicode="@" horiz-adv-x="1890" 
d="M496 307q0 73 25.5 126.5t69.5 84t97.5 52t113.5 36t114.5 29t104 38.5t77.5 58q0 35 -5.5 58t-22 44t-51 31t-87.5 10q-264 0 -293 -210q-92 100 -92 190q0 102 113 163.5t272 61.5q216 0 324 -94t108 -266v-246q0 -13 -1 -25t-7.5 -34.5t-18 -42t-34 -43t-53 -41
t-78.5 -32.5t-107 -22q4 7 10.5 21t17.5 63.5t11 106.5v102q-15 -30 -58 -48t-91 -27t-95 -21.5t-77.5 -41.5t-30.5 -77q0 -70 80.5 -109.5t209.5 -39.5q83 0 148 9t125 32.5t99.5 62t63 100.5t23.5 144v313q0 77 -22.5 141.5t-69 117t-126.5 82.5t-187 30h-305
q-105 0 -184.5 -30t-126 -82.5t-69 -117t-22.5 -141.5v-598q0 -155 64.5 -257.5t175.5 -102.5q40 0 79.5 8.5t59.5 16.5l20 8q-1 -8 -3.5 -21.5t-19.5 -48t-43 -60.5t-79.5 -47.5t-124.5 -21.5q-114 0 -206 70t-140.5 184t-48.5 246v651q0 113 46 211.5t130.5 171t212 114.5
t281.5 42h305q204 0 357.5 -72.5t232.5 -194t79 -272.5v-367q0 -508 -731 -508q-113 0 -205 16.5t-170 53t-121.5 103.5t-43.5 159z" />
    <glyph glyph-name="A" unicode="A" horiz-adv-x="1396" 
d="M698 1511q15 -9 40.5 -31.5t73.5 -76.5t94 -120.5t98.5 -172.5t91.5 -225l174 -539q73 -230 100 -289q14 -29 27 -49q-68 -22 -115 -22q-54 0 -97.5 20t-68.5 41t-52 73.5t-36 76.5t-31 91q-4 11 -6 17l-35 109h-516l-34 -109q-45 -137 -73 -187q-71 -126 -204 -132h-14
q-21 0 -49.5 5.5t-47.5 10.5l-18 6q38 56 115 300q8 25 12 38l174 539q39 119 91.5 225t98.5 172.5t93.5 120.5t73 76.5t40.5 31.5zM698 1178q-59 -92 -135 -347l-63 -213h397l-63 213q-23 76 -57 163t-57 136z" />
    <glyph glyph-name="B" unicode="B" horiz-adv-x="1273" 
d="M143 133v1331h473q535 0 535 -372v-52q0 -96 -45.5 -181.5t-114.5 -117.5q79 -35 129.5 -122t50.5 -187v-51q0 -130 -71 -217t-192.5 -125.5t-291.5 -38.5h-251q-9 0 -24 1t-53.5 8.5t-67.5 20t-53 39.5t-24 64zM633 639h-215v-436h198q149 0 215 48t66 161
q0 114 -64 170.5t-200 56.5zM616 1262h-198v-420h215q131 0 187.5 56.5t56.5 172.5q0 110 -61 150.5t-200 40.5z" />
    <glyph glyph-name="C" unicode="C" horiz-adv-x="1413" 
d="M750 1276q-353 0 -353 -320v-446q0 -324 353 -324q425 0 501 246q39 -69 49 -129t-6.5 -106t-54 -83.5t-90.5 -63t-118.5 -42.5t-135.5 -25t-145 -8q-102 0 -191.5 16.5t-170.5 54t-139 94.5t-92 143.5t-34 195.5v506q0 109 34 195.5t92 143.5t139 94.5t170.5 54
t191.5 16.5q107 0 203 -14.5t179 -48.5t130.5 -85t48 -130.5t-59.5 -178.5q-15 54 -53 97t-88 70t-112.5 45t-123.5 25t-124 7z" />
    <glyph glyph-name="D" unicode="D" horiz-adv-x="1497" 
d="M737 0h-375q-13 0 -31.5 1.5t-54 9t-63 20.5t-49 39.5t-21.5 62.5v1331h594q104 0 193 -14t172.5 -49.5t142 -91.5t94 -144.5t35.5 -203.5v-457q0 -115 -35.5 -204t-94 -144.5t-142 -91.5t-172.5 -50t-193 -14zM737 1262h-319v-1059h319q363 0 363 321v418
q0 320 -363 320z" />
    <glyph glyph-name="E" unicode="E" horiz-adv-x="1220" 
d="M872 680h-454v-477h731q0 -10 -1.5 -26t-10 -50t-23 -60t-46 -46.5t-73.5 -20.5h-628q-9 0 -24 1t-54 8t-68.5 19.5t-53.5 40t-24 64.5v1331h1006q0 -4 -0.5 -11.5t-3.5 -28.5t-8 -40t-16.5 -42t-27.5 -40t-41.5 -28.5t-56.5 -11.5h-577v-379h422q78 0 135 8t75 16l17 8
q0 -36 -4 -65.5t-16 -62.5t-32.5 -55.5t-57 -37t-85.5 -14.5z" />
    <glyph glyph-name="F" unicode="F" horiz-adv-x="1071" 
d="M418 883h340q60 0 117 5.5t83 11.5l27 5q0 -36 -3.5 -64.5t-16 -60t-33 -52.5t-56.5 -34.5t-85 -13.5h-373v-700q-11 0 -29.5 1t-66 8t-84 19.5t-66 40t-29.5 64.5v1351h944q0 -4 -0.5 -11.5t-3 -28.5t-8 -40t-17 -42t-27 -40t-41 -28.5t-56.5 -11.5h-516v-379z" />
    <glyph glyph-name="G" unicode="G" 
d="M123 479v506q0 109 33 195.5t89 143.5t135.5 94.5t168 54t190.5 16.5q108 0 206 -15.5t182 -47.5t134 -87.5t50 -128.5q0 -80 -64 -180q-18 68 -70.5 118t-126 76.5t-151 39t-160.5 12.5q-163 0 -252.5 -73.5t-89.5 -246.5v-446q0 -173 90 -247.5t252 -74.5q66 0 113.5 6
t93 25t73.5 51.5t45 87.5t17 131v66h-235q-170 0 -170 229q55 -26 205 -26h475v-299q0 -106 -33 -190t-89.5 -138.5t-136 -90t-168 -50.5t-190.5 -15t-190.5 16.5t-168 54t-135.5 94.5t-89 143.5t-33 195.5z" />
    <glyph glyph-name="H" unicode="H" horiz-adv-x="1505" 
d="M1087 113v526h-669v-659q-11 0 -29.5 1t-66 8t-84 19.5t-66 40t-29.5 64.5v1372q11 0 29.5 -1t66 -8t84 -19.5t66 -40t29.5 -64.5v-508h669v641q11 0 29.5 -1t66 -8t84 -19.5t66 -40t29.5 -64.5v-1372q-11 0 -29.5 1t-66 8t-84 19.5t-66 40t-29.5 64.5z" />
    <glyph glyph-name="I" unicode="I" horiz-adv-x="561" 
d="M143 113v1372q11 0 29.5 -1t66 -8t84 -19.5t66 -40t29.5 -64.5v-1372q-11 0 -29.5 1t-66 8t-84 19.5t-66 40t-29.5 64.5z" />
    <glyph glyph-name="J" unicode="J" horiz-adv-x="604" 
d="M461 1348v-1416q0 -143 -68 -241.5t-184 -98.5q-117 0 -223 97q54 0 95 31.5t62.5 81.5t32 101t10.5 99v1483h19t39.5 -2.5t54.5 -7.5t56.5 -15t53.5 -24t37 -37t15 -51z" />
    <glyph glyph-name="K" unicode="K" horiz-adv-x="1318" 
d="M418 684v-704q-11 0 -29.5 1t-66 8t-84 19.5t-66 40t-29.5 64.5v1372q11 0 29.5 -1t66 -8t84 -19.5t66 -40t29.5 -64.5v-478q147 30 258.5 147t232.5 335q72 133 236 133q23 0 54 -4.5t51 -9.5l20 -5q-35 -56 -91.5 -156t-98.5 -169t-99 -147.5t-123.5 -133.5t-142.5 -84
q65 -18 129 -63.5t114 -100.5t100.5 -130t84.5 -137.5t71 -137.5q75 -146 117 -207q-82 -20 -125 -20t-85.5 9.5t-92 41t-76.5 82.5q-15 27 -47.5 87.5t-50 92t-51 85.5t-59 85t-64 72t-75.5 66t-85.5 47t-101.5 32z" />
    <glyph glyph-name="L" unicode="L" horiz-adv-x="1114" 
d="M948 0h-581q-9 0 -24 1t-54 8t-68.5 19.5t-53.5 40t-24 64.5v1352q11 0 29.5 -1t66 -8t84 -19.5t66 -40t29.5 -64.5v-1149h456q77 0 134 8.5t76 16.5l18 8q0 -44 -7 -82.5t-23 -74.5t-47.5 -57.5t-76.5 -21.5z" />
    <glyph glyph-name="M" unicode="M" horiz-adv-x="1705" 
d="M1288 113v692q0 42 5 94.5t11 84.5l5 32l-373 -760q-7 0 -18.5 1t-44.5 8t-62.5 19t-64.5 39t-58 64l-289 617q19 -105 19 -199v-825q-11 0 -29.5 1t-66 8t-84 19.5t-66 40t-29.5 64.5v1351h176q10 0 18.5 -0.5t37 -6.5t50.5 -17t48.5 -36.5t42.5 -60.5l334 -714
q65 137 200.5 417.5t200.5 417.5q312 0 312 -133v-1351q-11 0 -29.5 1t-66 8t-84 19.5t-66 40t-29.5 64.5z" />
    <glyph glyph-name="N" unicode="N" horiz-adv-x="1507" 
d="M514 1348l600 -940q-24 117 -24 217v839q11 0 29.5 -1t66 -8t83.5 -19.5t65.5 -40t29.5 -64.5v-1351q-87 0 -157 15t-108.5 37t-64.5 43.5t-34 36.5l-9 15l-596 946q23 -117 23 -217v-876q-11 0 -29.5 1t-66 8t-84 19.5t-66 40t-29.5 64.5v1351q55 0 81 -0.5t71 -3.5
t69.5 -10t56 -19.5t53.5 -33.5t40 -49z" />
    <glyph glyph-name="O" unicode="O" 
d="M1356 1004v-543q0 -233 -154 -359.5t-463 -126.5q-310 0 -463 126.5t-153 359.5v543q0 233 153 359t463 126q309 0 463 -126.5t154 -358.5zM1081 487v490q0 63 -8 107.5t-30 85t-60 64.5t-99.5 38t-146.5 14q-84 0 -144.5 -14t-98.5 -38t-59.5 -64.5t-29.5 -85t-8 -107.5
v-490q0 -63 8 -107.5t29.5 -85t59.5 -64.5t98.5 -38t144.5 -14q85 0 146.5 14t99.5 38t60 64.5t30 85t8 107.5z" />
    <glyph glyph-name="P" unicode="P" horiz-adv-x="1251" 
d="M143 113v1351h412q106 0 191 -11.5t166.5 -44t136.5 -84.5t88.5 -137.5t33.5 -199.5v-37q0 -481 -616 -481h-137v-489q-11 0 -29.5 1t-66 8t-84 19.5t-66 40t-29.5 64.5zM555 1262h-137v-590h137q66 0 113.5 6t93 24t73.5 50t45 86.5t17 130.5q0 71 -16.5 123.5
t-45.5 84.5t-73.5 51.5t-93.5 26.5t-113 7z" />
    <glyph glyph-name="Q" unicode="Q" 
d="M1356 1004v-543q0 -205 -129 -330t-377 -149v-31q0 -67 44 -115.5t108.5 -70t138.5 -21.5q43 0 75.5 2t75 7.5t74.5 18t63.5 31.5t53.5 49.5t33 71.5q34 -69 34 -137q0 -121 -114 -188.5t-297 -67.5q-99 0 -191.5 25t-167 72t-119.5 123t-45 169v64q-246 24 -369.5 147.5
t-123.5 329.5v543q0 233 153 359t463 126q309 0 463 -126.5t154 -358.5zM1081 487v490q0 63 -8 107.5t-30 85t-60 64.5t-99.5 38t-146.5 14q-84 0 -144.5 -14t-98.5 -38t-59.5 -64.5t-29.5 -85t-8 -107.5v-490q0 -63 8 -107.5t29.5 -85t59.5 -64.5t98.5 -38t144.5 -14
q85 0 146.5 14t99.5 38t60 64.5t30 85t8 107.5z" />
    <glyph glyph-name="R" unicode="R" horiz-adv-x="1249" 
d="M1151 1032q0 -166 -103.5 -271.5t-267.5 -105.5q87 -50 161.5 -138.5t117.5 -169t98 -185t92 -158.5q-82 -20 -125 -20q-174 0 -243 133q-11 21 -40 76.5t-42.5 81t-43 74.5t-50 75.5t-55 64.5t-66.5 60.5t-75.5 45t-90.5 36.5v-651q-11 0 -29.5 1t-66 9t-84 20.5
t-66 39.5t-29.5 63v1351h473q122 0 216 -19t167.5 -60.5t112.5 -114.5t39 -176v-62zM616 1262h-198v-424h215q132 0 188 54.5t56 170.5q0 111 -62 155t-199 44z" />
    <glyph glyph-name="S" unicode="S" horiz-adv-x="1339" 
d="M82 1055q0 97 30.5 172.5t83 124t128 80t160.5 44.5t186 13q538 0 538 -254q0 -85 -67 -207q0 248 -469 248q-142 0 -224.5 -46t-82.5 -145q0 -54 30.5 -90t82 -54.5t118.5 -31t141 -23.5t148 -26.5t141 -46.5t118.5 -77t82 -124t30.5 -182q0 -148 -79 -251.5
t-212.5 -152.5t-310.5 -49q-102 0 -193.5 13.5t-171.5 41.5t-127.5 80t-47.5 121q0 85 73 191q0 -57 30 -100.5t76.5 -68.5t111 -41t124 -21t125.5 -5q157 0 237.5 59t80.5 165q0 60 -30.5 102t-82 64.5t-118.5 37t-141 26.5t-147.5 26.5t-140.5 42t-118.5 68.5t-82 111.5
t-30.5 164.5z" />
    <glyph glyph-name="T" unicode="T" horiz-adv-x="1181" 
d="M983 1262h-258v-1282q-11 0 -29.5 1t-66 8t-83.5 19.5t-65.5 40t-29.5 64.5v1149h-252q-49 0 -85.5 14.5t-57 37t-32.5 55.5t-16 62.5t-4 65.5q71 -33 227 -33h719q69 0 126 8t80 16l22 9q0 -36 -4 -65.5t-16 -62.5t-32.5 -55.5t-57 -37t-85.5 -14.5z" />
    <glyph glyph-name="U" unicode="U" 
d="M1356 1352v-914q0 -112 -50 -202t-136 -146t-196 -85.5t-235 -29.5t-235 29.5t-195.5 85.5t-135.5 146t-50 202v1047q11 0 29.5 -1t66 -8t83.5 -19.5t65.5 -40t29.5 -64.5v-883q0 -135 93.5 -208t248.5 -73t248.5 73t93.5 208v1016q11 0 29.5 -1t66 -8t84 -19.5t66 -40
t29.5 -64.5z" />
    <glyph glyph-name="V" unicode="V" horiz-adv-x="1458" 
d="M729 -49q-15 10 -41.5 32t-76 76.5t-97.5 121.5t-102.5 173t-94.5 224l-180 538q-73 230 -100 289q-14 30 -27 49q68 23 115 23q39 0 72 -10t57 -23t46.5 -40.5t35 -46.5t29.5 -58.5t23.5 -59l21.5 -64.5l6 -18l178 -526q25 -76 59 -155.5t55 -121.5l21 -41
q61 94 135 318l178 526l6 18q45 138 82 193q72 109 203 109q21 0 49.5 -5.5t47.5 -11.5l18 -6q-38 -56 -115 -300q-3 -8 -4 -12.5t-3.5 -12l-4.5 -13.5l-180 -538q-40 -118 -94.5 -224t-102.5 -173t-97.5 -121.5t-76 -76.5t-41.5 -32z" />
    <glyph glyph-name="W" unicode="W" horiz-adv-x="2109" 
d="M727 -49q-11 8 -30 24.5t-73.5 74.5t-103 125t-106.5 176t-97 227l-180 538q-9 28 -28 86t-28 84.5t-22.5 64.5t-25 61.5t-23.5 41.5q68 23 113 23q53 0 94.5 -17t68.5 -44t49 -67t36.5 -79t30.5 -87q1 -6 2.5 -9t3 -8t2.5 -9l176 -526q24 -76 60 -156t60 -122l23 -42
q12 13 33.5 40t76 122t97.5 205q-8 33 -20.5 88t-33 189t-20.5 227q0 128 71 195t206 67q-13 -114 -13 -203q0 -151 26 -302.5t63 -259.5t74 -194.5t63 -130.5l26 -43q87 146 142 320l176 526q2 7 7 22q45 137 81 192q71 105 198 106q21 0 49.5 -5.5t46.5 -11.5l19 -6
q-12 -18 -23.5 -42.5t-25 -61t-23 -65.5t-27 -83t-28.5 -86l-180 -538q-39 -118 -96 -225.5t-110.5 -177.5t-100.5 -123t-76 -77l-29 -24q-8 7 -22.5 19.5t-56 55t-79.5 90t-85.5 122t-81.5 151.5q-35 -81 -81.5 -156.5t-87.5 -124.5t-77.5 -86t-58.5 -54z" />
    <glyph glyph-name="X" unicode="X" horiz-adv-x="1290" 
d="M645 569q-130 -161 -285 -456q-39 -72 -102.5 -102.5t-128.5 -30.5q-23 0 -54 4.5t-51 9.5l-20 4q55 86 134.5 238.5t154.5 274.5t166 214q-91 107 -166.5 233t-151 268.5t-131.5 229.5q74 19 125 19q162 0 232 -134q81 -151 110 -203.5t78 -130.5t90 -124q41 46 89 122
t80.5 134.5t109.5 201.5q70 134 231 134q23 0 54 -4.5t51 -9.5l20 -5q-56 -87 -131.5 -229.5t-151 -268.5t-166.5 -233q91 -92 166 -214t154.5 -274.5t134.5 -238.5q-74 -18 -125 -18q-65 0 -128.5 30.5t-102.5 102.5q-146 277 -285 456z" />
    <glyph glyph-name="Y" unicode="Y" horiz-adv-x="1277" 
d="M502 113v497q-85 85 -157.5 198.5t-116 210t-105.5 223.5t-119 216q74 19 125 19q166 0 231 -134l95 -190q5 -11 30 -62t32 -65.5t27.5 -54t32.5 -59t29 -46.5t33 -47q22 29 47.5 73t39.5 71t48 96t43 86l101 198q68 134 231 134q19 0 50.5 -5.5t52.5 -10.5l22 -5
q-50 -84 -113.5 -212.5t-109.5 -225t-119.5 -210.5t-155.5 -198v-630q-11 0 -29.5 1t-66 8t-83.5 19.5t-65.5 40t-29.5 64.5z" />
    <glyph glyph-name="Z" unicode="Z" horiz-adv-x="1214" 
d="M1040 0h-983q-8 115 21.5 219.5t85.5 188.5t127 163t151.5 158t153.5 156.5t138.5 176t101.5 200.5h-750q0 4 0.5 11.5t3.5 28.5t8.5 40t17 42t27.5 40t41.5 28.5t57.5 11.5h907q0 -97 -24.5 -193.5t-67 -179.5t-97.5 -163.5t-117.5 -151.5t-125 -137.5t-121.5 -126.5
t-106 -113.5t-79.5 -104.5t-41.5 -93h598q77 0 133.5 8.5t73.5 17.5l18 9q-2 -36 -6 -65t-14.5 -62.5t-26.5 -56t-43 -37.5t-62 -15z" />
    <glyph glyph-name="bracketleft" unicode="[" horiz-adv-x="638" 
d="M143 -92v1556h475q0 -4 -0.5 -10.5t-3 -26.5t-8 -37.5t-17 -39t-27 -37.5t-41 -26.5t-56.5 -10.5h-78v-1313h78q43 0 74 -19.5t45.5 -44t23 -56.5t9.5 -45.5t1 -22.5h-272q-4 0 -11.5 0.5t-28.5 3t-40 7t-42.5 14.5t-40.5 23.5t-28.5 35.5t-11.5 49z" />
    <glyph glyph-name="backslash" unicode="\" horiz-adv-x="743" 
d="M537 -387l-562 1929q39 13 77 20t82.5 7t78 -21t45.5 -63l559 -1925q-242 -80 -280 53z" />
    <glyph glyph-name="bracketright" unicode="]" horiz-adv-x="638" 
d="M496 1464v-1556q0 -37 -21 -64.5t-50.5 -40t-59.5 -19.5t-51 -8l-21 -1h-273q0 5 0.5 12.5t3.5 27t8.5 37.5t17 39t27 36t41 25.5t56.5 10.5h78v1313h-78q-43 0 -75 19.5t-46.5 47t-22.5 55t-9 46.5l-1 20h476z" />
    <glyph glyph-name="asciicircum" unicode="^" horiz-adv-x="1157" 
d="M975 854l-369 369l-321 -320q-40 -39 -88 -32t-89 38.5t-67 75.5l428 428q59 59 134.5 61t137.5 -59l334 -334q102 -102 -100 -227z" />
    <glyph glyph-name="underscore" unicode="_" horiz-adv-x="1218" 
d="M127 -29h1083q9 -45 9 -80q0 -129 -127 -129h-1084q-8 41 -8 78q0 53 28 92t99 39z" />
    <glyph glyph-name="grave" unicode="`" horiz-adv-x="1001" 
d="M492 1602q-26 -42 0 -87.5t104 -123.5l68 -68q25 -27 21.5 -49t-26.5 -39t-50 -28t-49 -17l-21 -6l-121 90q-59 44 -84.5 98.5t-16 101t55 82.5t119.5 46z" />
    <glyph glyph-name="a" unicode="a" horiz-adv-x="1093" 
d="M725 199v333q-13 -29 -56.5 -47.5t-96 -29t-103.5 -25t-85 -46.5t-34 -83q0 -68 48 -103.5t137 -35.5q48 0 95.5 9t71.5 19zM86 297q0 78 30.5 136t80.5 91.5t111.5 56.5t126.5 38t121.5 29.5t101 37.5t61.5 55q0 140 -199 140q-67 0 -124 -12.5t-103.5 -38.5t-73 -72.5
t-26.5 -108.5q-78 106 -78 199q0 63 39 110.5t102.5 72.5t130 36.5t135.5 11.5q224 0 342.5 -91t118.5 -259v-749q-63 32 -158 32q-49 0 -155 -18.5t-166 -18.5q-84 0 -155 16.5t-132 52.5t-96 100.5t-35 152.5z" />
    <glyph glyph-name="b" unicode="b" horiz-adv-x="1148" 
d="M1047 725v-393q0 -171 -124 -264t-358 -93q-89 0 -228 35.5t-214 38.5v1512h21t39 -3t52.5 -8.5t54 -16.5t50.5 -27t34.5 -41.5t14.5 -57.5v-289q0 -23 -4 -52.5t-8 -47.5l-4 -19q4 3 11.5 8.5t32.5 19.5t53.5 24.5t73.5 19t93 8.5q171 0 290.5 -97t119.5 -257zM389 715
v-512q74 -33 172 -33q123 0 171 45.5t48 146.5v332q0 96 -46.5 143.5t-123.5 47.5q-87 0 -154 -48.5t-67 -121.5z" />
    <glyph glyph-name="c" unicode="c" horiz-adv-x="1042" 
d="M918 387q63 -92 63 -168q0 -111 -114 -177.5t-292 -66.5q-219 0 -346 96t-127 265v383q0 168 122 264t341 96q65 0 129 -12t124.5 -37.5t98 -73.5t37.5 -112q0 -87 -80 -203q0 116 -77.5 177t-184.5 61q-121 0 -183 -46t-62 -167v-277q0 -110 58 -160.5t181 -50.5
q134 0 222.5 59t89.5 150z" />
    <glyph glyph-name="d" unicode="d" horiz-adv-x="1148" 
d="M760 1118v443h21t39 -3t52.5 -8.5t54 -16.5t50.5 -27t34.5 -41.5t14.5 -57.5v-1432q-69 35 -164 35q-57 0 -158 -17.5t-141 -17.5q-220 0 -340.5 93.5t-120.5 263.5v393q0 160 119.5 257t290.5 97q48 0 92.5 -8t74.5 -20t53 -24t34 -20l10 -8q-16 68 -16 119zM760 195
v520q0 73 -67 121.5t-154 48.5q-77 0 -123.5 -47.5t-46.5 -143.5v-332q0 -101 48 -146.5t171 -45.5q41 0 84 6t66 12z" />
    <glyph glyph-name="e" unicode="e" horiz-adv-x="1083" 
d="M369 688v-59q95 -19 153 -19q106 0 152.5 32.5t46.5 96.5q0 146 -174 146q-99 0 -138.5 -48.5t-39.5 -148.5zM596 -25q-233 0 -363.5 96t-130.5 265v383q0 170 117.5 265t335.5 95q214 0 323 -90.5t109 -249.5q0 -55 -13 -102t-44 -91t-78.5 -75t-122 -49.5t-168.5 -18.5
q-102 0 -192 37v-73q0 -187 227 -187q152 0 246 58t96 151q63 -89 63 -168q0 -110 -113.5 -178t-291.5 -68z" />
    <glyph glyph-name="f" unicode="f" horiz-adv-x="745" 
d="M125 119v1149q0 107 71.5 191t182 126.5t235.5 42.5q172 0 282 -55t110 -150q0 -75 -99 -155q0 51 -42 87t-104 52t-136 16q-99 0 -167.5 -55t-68.5 -145v-217h367q0 -8 -1 -21.5t-9.5 -48.5t-23 -61.5t-45.5 -48t-73 -21.5h-215v-819q-11 0 -28.5 1t-63 8t-80.5 19.5
t-63.5 40t-28.5 64.5z" />
    <glyph glyph-name="g" unicode="g" horiz-adv-x="1079" 
d="M70 193q0 57 26.5 105.5t83.5 115.5q-39 38 -62.5 106t-23.5 129v96q0 88 34.5 154.5t93.5 104.5t130 56.5t152 18.5q58 0 164.5 -21.5t154.5 -21.5q72 0 174 41v-428q0 -172 -116 -267t-334 -95q-68 0 -132.5 14.5t-94.5 28.5l-31 14q-13 -43 -13 -80q0 -34 16 -55.5
t50 -32t73 -14.5t97 -4h68h4q55 0 83 -0.5t78 -4t77.5 -11t66.5 -20.5t60.5 -35t43.5 -51.5t31.5 -72.5t9.5 -96q0 -169 -122 -266t-365 -97q-208 0 -328.5 61t-120.5 163q0 82 70 172q22 -201 360 -201q246 0 246 154q0 28 -10 48t-26 31t-43.5 17t-54.5 8t-67 2h-100
q-72 0 -125 4.5t-108.5 18.5t-90.5 39t-57 68.5t-22 103.5zM358 680q0 -103 40 -151t149 -48q108 0 147 48t39 151v174q-92 35 -182 35q-104 0 -148.5 -40t-44.5 -134v-35z" />
    <glyph glyph-name="h" unicode="h" horiz-adv-x="1169" 
d="M389 715v-729q-11 0 -29 1t-63.5 8t-81 19.5t-64 40t-28.5 64.5v1442h20t38 -2.5t53.5 -7.5t53.5 -16.5t51.5 -27t34.5 -41.5t15 -59v-285q0 -23 -4 -53.5t-8 -50.5l-4 -19q4 3 11.5 8.5t33.5 19.5t54.5 24.5t73.5 19t91 8.5q84 0 157 -22t130 -64.5t90 -111.5t33 -156
v-739q-6 0 -15.5 0.5t-37 3.5t-53 7.5t-56 15t-53 24t-37.5 35t-15 47.5v575q0 96 -46.5 143.5t-123.5 47.5q-87 0 -154 -48.5t-67 -121.5z" />
    <glyph glyph-name="i" unicode="i" horiz-adv-x="512" 
d="M123 119v950q15 0 35 -1t64.5 -8.5t78.5 -20t61 -39.5t27 -64v-950q-11 0 -29 1t-63.5 8t-81 19.5t-64 40t-28.5 64.5zM129 1278v170h180q25 0 50.5 -19t25.5 -40v-170h-180q-31 0 -53.5 18t-22.5 41z" />
    <glyph glyph-name="j" unicode="j" horiz-adv-x="512" 
d="M389 936v-1104q0 -134 -66 -227.5t-176 -93.5t-215 92q51 0 90 30t60 76.5t31 95t10 93.5v1171q11 0 29 -1t63.5 -8t81 -19.5t64 -40t28.5 -64.5zM131 1278v170h180q25 0 50.5 -19t25.5 -40v-170h-180q-31 0 -53.5 18t-22.5 41z" />
    <glyph glyph-name="k" unicode="k" horiz-adv-x="1085" 
d="M1012 1044q-32 -43 -78.5 -122.5t-79.5 -134.5t-89 -111t-120 -82q73 -26 130 -66t92 -82.5t66 -99.5t50 -106.5t47.5 -115t54.5 -112.5q-110 -26 -151 -26q-51 0 -87.5 18.5t-57.5 49t-40.5 70.5t-34.5 83t-41.5 86.5t-60 80.5t-91 66t-132.5 41v-495q-11 0 -29 1
t-63.5 8t-81 19.5t-64 40t-28.5 64.5v1446q11 0 29 -1t63.5 -8t81 -19.5t64 -40t28.5 -64.5v-746q86 13 146 77.5t135 205.5q53 100 196 100q66 0 146 -25z" />
    <glyph glyph-name="l" unicode="l" horiz-adv-x="512" 
d="M113 307v1258q15 0 35 -1t64.5 -8.5t78.5 -20t61 -39.5t27 -64v-1059q0 -32 0.5 -52.5t3.5 -56t8 -59t16 -52t26 -45.5t38 -28.5t53 -11.5q-61 -82 -170 -82q-118 0 -179.5 91.5t-61.5 229.5z" />
    <glyph glyph-name="m" unicode="m" horiz-adv-x="1826" 
d="M780 119v592q0 85 -45.5 127.5t-150.5 42.5q-46 0 -95 -7.5t-75 -14.5l-25 -7v-866q-11 0 -29 1t-63.5 8t-81 19.5t-64 40t-28.5 64.5v960q80 -43 184 -43q49 0 148.5 21.5t156.5 21.5q212 0 324 -88q4 4 12 9.5t38 21t66.5 27t99 21t134.5 9.5q116 0 208.5 -37.5
t151 -119t58.5 -197.5v-739q-11 0 -29 1t-63.5 9t-81 20.5t-64 39.5t-28.5 63v575q0 96 -46.5 143.5t-123.5 47.5q-88 0 -153 -38t-68 -106v-755q-6 0 -15.5 0.5t-37 3.5t-53 7.5t-56 15t-53 24t-37.5 35t-15 47.5z" />
    <glyph glyph-name="n" unicode="n" horiz-adv-x="1169" 
d="M780 119v592q0 85 -45.5 127.5t-150.5 42.5q-46 0 -95 -7.5t-75 -14.5l-25 -7v-866q-11 0 -29 1t-63.5 8t-81 19.5t-64 40t-28.5 64.5v960q80 -43 184 -43q49 0 148.5 21.5t156.5 21.5q67 0 126.5 -9.5t117.5 -33.5t99 -61t66.5 -97t25.5 -137v-755q-6 0 -15.5 0.5
t-37 3.5t-53 7.5t-56 15t-53 24t-37.5 35t-15 47.5z" />
    <glyph glyph-name="o" unicode="o" horiz-adv-x="1191" 
d="M1090 719v-383q0 -173 -123.5 -267t-370.5 -94t-370.5 94t-123.5 267v383q0 173 123.5 266.5t370.5 93.5t370.5 -93.5t123.5 -266.5zM823 367v321q0 102 -47 149.5t-180 47.5t-180 -47.5t-47 -149.5v-321q0 -102 47 -149.5t180 -47.5t180 47.5t47 149.5z" />
    <glyph glyph-name="p" unicode="p" horiz-adv-x="1148" 
d="M389 -63v-443h-21t-39 3t-52.5 8.5t-54 16.5t-50.5 27t-34.5 41.5t-14.5 57.5v1431q77 -39 164 -39q57 0 158 19.5t141 19.5q220 0 340.5 -93t120.5 -263v-393q0 -160 -119.5 -257.5t-290.5 -97.5q-48 0 -92.5 8t-74.5 20t-53 24t-33 20l-11 8q16 -67 16 -118zM389 860
v-520q0 -73 67 -121.5t154 -48.5q78 0 124 47t46 143v332q0 101 -48 147t-171 46q-41 0 -84 -6.5t-65 -12.5z" />
    <glyph glyph-name="q" unicode="q" horiz-adv-x="1148" 
d="M760 340v520q-80 25 -172 25q-123 0 -171 -46t-48 -147v-332q0 -96 46 -143t124 -47q87 0 154 48.5t67 121.5zM1026 1079v-1585h-21t-39 3t-52.5 8.5t-54 16.5t-50.5 27t-34.5 41.5t-14.5 57.5v289q0 23 4 52.5t8 47.5l4 18q-4 -3 -11.5 -8.5t-32.5 -19.5t-53.5 -24.5
t-73.5 -19t-93 -8.5q-171 0 -290.5 97.5t-119.5 257.5v393q0 170 120.5 263t340.5 93q40 0 141 -19.5t158 -19.5q87 0 164 39z" />
    <glyph glyph-name="r" unicode="r" horiz-adv-x="856" 
d="M389 -14q-11 0 -29 1t-63.5 8t-81 19.5t-64 40t-28.5 64.5v958q81 -41 158 -41q41 0 139 21.5t162 21.5q119 0 197.5 -47t78.5 -145q0 -35 -13 -71t-27 -57t-33 -45.5t-21 -27.5q0 92 -62.5 139t-158.5 47q-31 0 -62 -4t-61 -11l-31 -7v-864z" />
    <glyph glyph-name="s" unicode="s" horiz-adv-x="1046" 
d="M725 315q0 46 -36.5 72t-95 35.5t-129.5 15.5t-142 20.5t-129.5 42t-95 88t-36.5 150.5q0 169 116.5 254.5t336.5 85.5q191 0 303.5 -53.5t112.5 -153.5q0 -85 -78 -184q0 91 -90 140t-227 49q-108 0 -159.5 -30t-51.5 -95q0 -35 28.5 -56.5t75 -29t106 -15.5t121 -14.5
t121 -28.5t106 -55.5t75 -97t28.5 -150.5q0 -156 -119.5 -243t-351.5 -87q-197 0 -316.5 58t-119.5 162q0 91 96 192q1 -62 32 -106t83 -66t106.5 -31.5t118.5 -9.5q49 0 93.5 11t81 44.5t36.5 85.5z" />
    <glyph glyph-name="t" unicode="t" horiz-adv-x="911" 
d="M125 336v917q22 0 39 -1t52.5 -5t61.5 -15.5t53.5 -29.5t42.5 -50t15 -73v-73h418q0 -8 -1 -21.5t-9.5 -48.5t-23 -61.5t-45.5 -48t-73 -21.5h-266v-412q0 -110 42 -163.5t153 -53.5q102 0 171.5 51t69.5 164q86 -95 86 -182q0 -100 -94 -167t-270 -67q-201 0 -311.5 95
t-110.5 266z" />
    <glyph glyph-name="u" unicode="u" horiz-adv-x="1169" 
d="M389 936v-592q0 -85 46 -127.5t151 -42.5q46 0 94.5 7t73.5 15l26 7v866q6 0 15.5 -0.5t37 -3t53 -7t56 -14.5t53 -23.5t37.5 -35.5t15 -49v-961q-81 43 -185 43q-49 0 -148.5 -21.5t-156.5 -21.5q-67 0 -126.5 9.5t-117 33.5t-98.5 61t-66.5 97t-25.5 137v756
q11 0 29 -1t63.5 -9t81 -20.5t64 -39.5t28.5 -63z" />
    <glyph glyph-name="v" unicode="v" horiz-adv-x="1071" 
d="M1030 1069l-45 -403q-10 -97 -40.5 -189t-69.5 -160.5t-87 -130t-89.5 -101.5t-81.5 -71.5t-58.5 -43.5t-23.5 -15q-5 3 -24 15t-59 43.5t-82 71.5t-90 101.5t-87 130t-69 160.5t-40 189l-43 403q10 0 27.5 -1t63 -7.5t81 -19t67 -39t35.5 -62.5l41 -311
q10 -83 32 -155.5t46.5 -116t47.5 -75t38 -44.5l15 -13q6 5 16 14.5t36.5 45.5t48.5 78.5t44.5 114t32.5 151.5l41 311q4 36 34 62.5t69.5 39t79 19t66.5 7.5z" />
    <glyph glyph-name="w" unicode="w" horiz-adv-x="1667" 
d="M43 1069q94 0 173 -30q92 -34 101 -101l41 -311q11 -84 33.5 -156.5t47 -116t47.5 -75t38 -43.5l15 -13q6 3 15.5 9.5t36 27.5t50.5 43.5t50.5 56.5t43.5 68q-45 137 -45 326q0 139 62.5 209.5t203.5 76.5q-22 -178 -22 -292q0 -106 20.5 -199t50 -150.5t58.5 -99
t49 -59.5l21 -17q6 7 16.5 20.5t38.5 56.5t51 88t45.5 110.5t30.5 128.5l41 311q4 36 33.5 62.5t68.5 39t77 20t65 8.5l26 1l-41 -405q-10 -97 -40 -189t-70.5 -160.5t-87 -128.5t-91 -101t-81 -71t-58.5 -44l-22 -13l-21 10.5t-51 31t-73.5 52t-78.5 72t-75 92.5
q-33 -46 -76 -90t-81 -73t-70.5 -51.5t-52.5 -32.5l-19 -11q-8 5 -22.5 14t-56.5 42.5t-81.5 71.5t-89 100.5t-88 130t-69.5 159.5t-42 189z" />
    <glyph glyph-name="x" unicode="x" horiz-adv-x="1019" 
d="M664 98l-154 271l-154 -271q-34 -60 -98 -86t-123 -26q-19 0 -53 4t-58 8l-24 4q29 37 49 65.5t27.5 41t34.5 59.5l141 242q22 37 47.5 65t40.5 37l14 10q-73 74 -102 123l-156 264q-48 83 -96 144q92 16 135 16q57 0 119 -27t98 -86l158 -266l158 266q36 59 98 86
t119 27q19 0 53 -4t58 -8l24 -4q-48 -61 -96 -144l-156 -264q-13 -22 -38.5 -52.5t-44.5 -50.5l-19 -20q6 -3 16 -10t37 -36t49 -66l141 -242q3 -5 11 -19l10 -17.5t8.5 -14.5t9 -15t8.5 -13.5t10 -15t10.5 -14.5t12.5 -17t14 -18.5t17 -21.5q-92 -16 -135 -16
q-59 0 -123 26t-98 86z" />
    <glyph glyph-name="y" unicode="y" horiz-adv-x="1091" 
d="M63 1069q10 0 27 -0.5t61.5 -9t80 -24t67.5 -50t39 -82.5l41 -276q10 -71 32.5 -133.5t46 -100.5t46.5 -66t37 -39.5t16 -11.5l7 6q8 7 22 21t30.5 34t35 49.5t35 64t30 80.5t20.5 96l37 274q6 46 37.5 80.5t71 50.5t78.5 25.5t65 10.5l27 1l-45 -405q-11 -96 -45.5 -187
t-82.5 -162.5t-97 -125t-99 -91.5l-80 -61q-59 -46 -93.5 -76.5t-70.5 -72t-52.5 -85t-16.5 -92.5q0 -83 43 -178q-56 -29 -109 -29q-79 0 -133.5 58t-54.5 172q0 67 21 124.5t65.5 108.5t86.5 87t111 87q-103 62 -188 207t-104 316z" />
    <glyph glyph-name="z" unicode="z" horiz-adv-x="972" 
d="M623 852h-551q0 4 0.5 11.5t3 28.5t8 40t17 42.5t27 40.5t41 28.5t56.5 11.5h713q-10 -34 -23.5 -99t-19.5 -90q-21 -77 -71.5 -152t-115 -138t-130.5 -121t-133 -125.5t-107 -126.5h604q0 -8 -1 -22t-9 -49t-22.5 -61.5t-46.5 -48.5t-75 -22h-729q-12 55 -12 88
q0 67 24 130t65.5 115.5t92.5 102t108.5 99t109.5 97t100 105t76 115.5z" />
    <glyph glyph-name="braceleft" unicode="{" horiz-adv-x="548" 
d="M20 557q5 3 12 8t26.5 23.5t34 39.5t26.5 56.5t12 73.5v553q0 89 39.5 151t98 81t129.5 -9t130 -104q-40 0 -68 -11t-43 -26.5t-23 -43.5t-9.5 -51t-1.5 -61v-489q0 -115 -107 -193q107 -74 107 -193v-489q0 -38 1.5 -60.5t9.5 -51t23 -43.5t43 -26t68 -11
q-47 -62 -103 -93.5t-107 -28t-93.5 30.5t-68 82.5t-25.5 126.5v553q0 29 -11.5 61t-27.5 56.5t-32.5 45t-27.5 31.5z" />
    <glyph glyph-name="bar" unicode="|" horiz-adv-x="552" 
d="M143 -362v1929q6 0 15.5 -0.5t37 -3t53 -7t56 -14.5t53 -23.5t37.5 -35.5t15 -49v-1930q-6 0 -15.5 0.5t-37 3t-53 7t-56 15t-53 24t-37.5 35.5t-15 49z" />
    <glyph glyph-name="braceright" unicode="}" horiz-adv-x="548" 
d="M528 557l-11.5 -11.5t-26.5 -30.5t-33.5 -46t-26.5 -55.5t-12 -61.5v-553q0 -71 -25.5 -126.5t-68.5 -82.5t-93.5 -30.5t-107 28t-103.5 93.5q34 0 59 6.5t40.5 20.5t25.5 29.5t14 40t5.5 44.5t1.5 51v489q0 120 106 193q-106 78 -106 193v489q0 38 -1.5 61t-9.5 51
t-23 43.5t-43.5 26.5t-68.5 11q47 61 103 92t107 28t94 -30t68.5 -82t25.5 -127v-553q0 -38 11.5 -73t27.5 -57.5t32 -39t27 -24.5z" />
    <glyph glyph-name="asciitilde" unicode="~" horiz-adv-x="1349" 
d="M295 903q128 0 382.5 -53t387.5 -53q40 0 65 3.5t65 25.5t77 65q76 -301 -217 -301q-129 0 -383 53t-385 53q-62 0 -110 -16.5t-95 -67.5q-44 140 11 215.5t202 75.5z" />
    <glyph glyph-name="uni00A0" unicode="&#xa0;" horiz-adv-x="573" 
 />
    <glyph glyph-name="exclamdown" unicode="&#xa1;" horiz-adv-x="593" 
d="M205 113v970q11 0 29 -0.5t63.5 -7t81 -19t64 -40.5t28.5 -66v-970q-11 0 -29 1t-63.5 8t-81 19.5t-64 40t-28.5 64.5zM461 1401v-193h-168q-32 0 -56 20t-24 44v192h166q34 0 58 -18.5t24 -44.5z" />
    <glyph glyph-name="cent" unicode="&#xa2;" horiz-adv-x="1062" 
d="M530 -53v30q-199 9 -313.5 104.5t-114.5 254.5v383q0 166 110 260t318 100v121q5 0 14.5 -0.5t32.5 -6t40.5 -15t32 -30.5t14.5 -50v-27q77 -10 139 -34t105.5 -73t43.5 -116q0 -91 -78 -207q0 98 -56 154.5t-154 74.5v-684q115 15 183.5 70t70.5 133q63 -89 63 -168
q0 -96 -87 -161t-230 -80v-136q-5 0 -14.5 0.5t-32.5 6.5t-40.5 15.5t-32 30.5t-14.5 50zM369 387q0 -99 36.5 -147.5t124.5 -57.5v695q-86 -6 -123.5 -53t-37.5 -156v-281z" />
    <glyph glyph-name="sterling" unicode="&#xa3;" horiz-adv-x="1318" 
d="M446 743v-436l-8 -114q21 -6 58 -14.5t142.5 -23t201.5 -14.5q116 0 206.5 65t122.5 191q55 -76 69 -148.5t-11 -129.5t-77 -100.5t-129.5 -67t-166.5 -23.5q-169 0 -323 30.5t-388 98.5q29 117 29 193v956q0 165 133.5 263t339.5 98q126 0 215 -23t133.5 -62t55.5 -90
t-12 -108.5t-76 -116.5q-4 57 -29 96.5t-68.5 61.5t-96.5 31.5t-122 9.5q-97 0 -148 -49t-51 -141v-230h400q0 -8 -1 -22t-9.5 -49t-23 -61.5t-46 -48.5t-74.5 -22h-246z" />
    <glyph glyph-name="yen" unicode="&#xa5;" horiz-adv-x="1318" 
d="M395 700h45q-79 100 -147 232.5t-136.5 279.5t-131.5 246q74 19 125 19q166 0 231 -134l94 -190q5 -11 30 -62t32 -65.5t27.5 -54t32.5 -59t29 -46.5t33 -47q17 24 35 51.5t38 66t33 63t38 75.5t35 70l100 198q68 134 231 134q19 0 50.5 -5.5t52.5 -10.5l22 -5
q-56 -92 -127 -242t-141 -282t-149 -232h174q7 -33 5 -64.5t-11.5 -56.5t-36.5 -40t-70 -15h-141v-141h254q7 -33 5 -64.5t-11.5 -56.5t-36.5 -40t-70 -15h-141v-227q-11 0 -29.5 1t-66 8t-84 19.5t-66 40t-29.5 64.5v94h-239q-23 71 5.5 123.5t106.5 52.5h127v141h-239
q-23 71 5.5 123.5t106.5 52.5z" />
    <glyph glyph-name="brokenbar" unicode="&#xa6;" horiz-adv-x="552" 
d="M143 815v750q6 0 15.5 -0.5t37 -3t53 -7t56 -14.5t53 -23.5t37.5 -35.5t15 -49v-750q-6 0 -15.5 0.5t-37 3t-53 7t-56 14.5t-53 23.5t-37.5 35.5t-15 49zM143 -362v751q6 0 15.5 -0.5t37 -3t53 -7t56 -14.5t53 -23.5t37.5 -35.5t15 -49v-752q-6 0 -15.5 0.5t-37 3t-53 7
t-56 15t-53 24t-37.5 35.5t-15 49z" />
    <glyph glyph-name="section" unicode="&#xa7;" horiz-adv-x="1230" 
d="M621 1565q240 0 368.5 -67.5t128.5 -194.5q0 -94 -69 -211q-46 280 -428 280q-58 0 -101 -7t-70 -22.5t-44.5 -33t-25.5 -44.5t-10.5 -50.5t-2.5 -57.5q0 -54 31 -91.5t81.5 -57.5t115 -38t131.5 -31.5t131.5 -39.5t115 -60.5t81.5 -96t31 -144.5q0 -97 -36 -161.5
t-117 -100.5q12 88 12 106q0 66 -28.5 114.5t-76.5 76.5t-110 49t-130.5 38t-137.5 36t-131 51t-110 76t-76.5 116.5t-28.5 167.5q0 398 506 398zM618 -477q-240 0 -368.5 67.5t-128.5 194.5q0 94 69 211q46 -281 428 -281q58 0 101 7t70 22.5t44.5 33t25.5 44.5t10.5 50.5
t2.5 57.5q0 54 -31 91.5t-81.5 57.5t-115 38t-131.5 31.5t-131.5 39.5t-115 60.5t-81.5 96t-31 144.5q0 97 36 162t117 101q-12 -88 -12 -107q0 -66 28.5 -114.5t76.5 -76.5t110 -49t131 -38t137.5 -36t130.5 -51t110 -76t76.5 -116.5t28.5 -167.5q0 -397 -506 -397z" />
    <glyph glyph-name="dieresis" unicode="&#xa8;" horiz-adv-x="946" 
d="M539 1278v172h163q30 0 51 -19t21 -40v-170h-164q-32 0 -51.5 17t-19.5 40zM172 1278v172h164q30 0 51 -19t21 -40v-170h-164q-32 0 -52 17t-20 40z" />
    <glyph glyph-name="copyright" unicode="&#xa9;" horiz-adv-x="1728" 
d="M889 1010q-33 0 -57 -5t-48.5 -19t-37.5 -46t-13 -80v-235q0 -49 13 -81t37.5 -46.5t48.5 -19.5t57 -5q48 0 82.5 4.5t72.5 18t65.5 43t45.5 75.5q53 -86 53 -151q0 -84 -84.5 -128t-234.5 -44q-402 0 -402 305v291q0 303 402 303q159 0 245.5 -47t86.5 -125
q0 -64 -60 -146q-18 45 -46.5 74t-67.5 42t-74 17.5t-84 4.5zM1374 547v387q0 92 -25 160t-82.5 119.5t-159 77.5t-247.5 26q-143 0 -242.5 -26t-156.5 -77.5t-82 -119.5t-25 -160v-387q0 -92 25 -160t82 -119.5t156.5 -77.5t242.5 -26q146 0 247.5 26t159 77.5t82.5 119.5
t25 160zM123 479v522q0 232 200 366t541 134t541.5 -134t200.5 -366v-522q0 -232 -200.5 -365.5t-541.5 -133.5t-541 133.5t-200 365.5z" />
    <glyph glyph-name="ordfeminine" unicode="&#xaa;" horiz-adv-x="976" 
d="M492 811q35 0 65 5.5t43 11.5l12 6v206q-17 -28 -58.5 -44.5t-80.5 -23t-69.5 -24.5t-30.5 -49q0 -40 30 -64t89 -24zM123 885q0 65 30.5 111t76.5 69.5t103.5 41.5t110 28t97.5 28.5t63 44.5q-2 45 -34.5 74t-100.5 29q-104 0 -162.5 -30.5t-62.5 -106.5q-76 67 -76 139
q0 74 83 123t238 49q175 0 270 -73.5t95 -205.5v-542q-63 18 -131 18q-48 0 -145 -17.5t-162 -17.5q-123 0 -208 60t-85 178z" />
    <glyph glyph-name="guillemotleft" unicode="&#xab;" horiz-adv-x="1386" 
d="M356 522l375 -375q-20 -41 -60.5 -71t-87 -35.5t-85.5 31.5l-336 336q-59 58 -58.5 114.5t60.5 116.5l411 412q29 -18 50 -33t43 -37.5t30.5 -43.5t2.5 -47.5t-31 -51.5zM868 522l375 -375q-20 -41 -60.5 -71t-87 -35.5t-85.5 31.5l-336 336q-59 58 -58.5 114.5
t60.5 116.5l411 412q29 -18 50 -33t43 -37.5t30.5 -43.5t2.5 -47.5t-31 -51.5z" />
    <glyph glyph-name="logicalnot" unicode="&#xac;" horiz-adv-x="1398" 
d="M1016 57v543l-842 2q-127 0 -127 131q0 43 12 90h1014q110 0 146 -38.5t36 -131.5v-503q-3 -107 -131 -107q-50 0 -108 14z" />
    <glyph glyph-name="uni00AD" unicode="&#xad;" horiz-adv-x="1005" 
d="M231 623h643q2 -8 4 -21.5t2 -47.5t-7.5 -59.5t-32.5 -47t-66 -21.5h-645q-1 4 -2 11t-2.5 27.5t-0.5 39t7 41.5t17 39.5t32.5 27.5t50.5 11z" />
    <glyph glyph-name="registered" unicode="&#xae;" horiz-adv-x="1026" 
d="M346 831v408h133q99 0 155 -33.5t56 -122.5q0 -41 -32.5 -85t-77.5 -54q47 -16 81.5 -62.5t51.5 -101.5q-66 -20 -95 -20q-21 0 -36 15t-23 35.5t-27 47.5t-45 45v-141q-6 0 -15.5 0.5t-33.5 4t-43 10t-34 20.5t-15 34zM555 1090q0 24 -13 38.5t-24.5 17.5t-23.5 3h-7
v-123h7q12 0 23.5 3.5t24.5 19t13 41.5zM782 862v264q0 89 -67.5 142t-206.5 53q-134 0 -200 -53t-66 -142v-264q0 -89 65.5 -139.5t200.5 -50.5q139 0 206.5 50.5t67.5 139.5zM80 831v332q0 137 117 216t315 79q199 0 316.5 -79t117.5 -216v-332q0 -137 -117.5 -216.5
t-316.5 -79.5q-198 0 -315 79.5t-117 216.5z" />
    <glyph glyph-name="macron" unicode="&#xaf;" horiz-adv-x="899" 
d="M256 1417h516q1 -4 2.5 -10.5t3 -25t0.5 -35.5t-8 -38t-19.5 -36t-36.5 -25t-57 -10h-518q-1 4 -2 10.5t-2.5 25t0 35.5t8.5 38t19.5 36t36.5 25t57 10z" />
    <glyph glyph-name="degree" unicode="&#xb0;" horiz-adv-x="796" 
d="M715 1362v-186q0 -98 -85 -150.5t-233 -52.5q-146 0 -230.5 52.5t-84.5 150.5v186q0 94 86 149.5t229 55.5q145 0 231.5 -55.5t86.5 -149.5zM494 1223v94q0 42 -21 63t-76 21q-56 0 -75 -20.5t-19 -63.5v-94q0 -44 19 -64t75 -20q55 0 76 20.5t21 63.5z" />
    <glyph glyph-name="plusminus" unicode="&#xb1;" horiz-adv-x="1067" 
d="M403 434v127h-274q-1 4 -2 11.5t-2.5 29.5t0 41.5t8.5 44t19.5 41.5t36.5 29t57 12h157v231q10 2 27 5t60 4.5t76 -5t60 -31.5t27 -67v-137h283q1 -4 2.5 -11.5t3 -29.5t0.5 -41.5t-8 -44t-19.5 -41.5t-36.5 -29t-57 -12h-168v-221q-5 -1 -14 -2.5t-35 -4t-49.5 -2.5
t-52.5 5t-50 15.5t-35 31.5t-14 51zM281 246h628q1 -4 2.5 -11t3 -28t0.5 -39.5t-7.5 -41.5t-19 -39.5t-36.5 -28t-57 -11.5h-629q-1 4 -2 11t-3 28t-0.5 39.5t8.5 41.5t19.5 39.5t36 28t56.5 11.5z" />
    <glyph glyph-name="twosuperior" unicode="&#xb2;" horiz-adv-x="800" 
d="M102 700v117q0 69 39 119t94.5 78.5t111.5 53.5t95 59.5t39 80.5v15q0 43 -25.5 68.5t-74.5 25.5q-22 0 -35 -0.5t-36 -3.5t-37.5 -8t-32 -16t-28 -26.5t-17.5 -39.5t-7 -54q-77 64 -77 140q0 66 74.5 104.5t195.5 38.5q125 0 204 -58t79 -153v-39q0 -51 -20.5 -92.5
t-53.5 -68t-73.5 -48t-81 -38.5t-74 -33.5t-56 -38.5t-24.5 -49h294q33 0 61 8t40 16l12 8v-21t-5.5 -39t-15 -50.5t-30.5 -38t-51 -17.5h-484z" />
    <glyph glyph-name="threesuperior" unicode="&#xb3;" horiz-adv-x="774" 
d="M365 1317q-36 0 -63 -5t-55.5 -19t-47.5 -45t-25 -77q-72 59 -72 136q0 67 74.5 106t188.5 39q126 0 204 -54.5t78 -150.5v-26q0 -47 -19.5 -88.5t-56.5 -55.5q42 -22 64 -62.5t22 -84.5v-29q0 -95 -80.5 -154t-211.5 -59q-118 0 -188.5 41t-70.5 107t56 125
q28 -138 203 -138q56 0 84 27.5t28 71.5q0 39 -12 60.5t-30 25t-39 7.5t-39 8.5t-30 27t-12 63.5v8q0 1 1 9t1 10h56q51 0 72.5 22.5t21.5 67.5q0 86 -102 86z" />
    <glyph glyph-name="acute" unicode="&#xb4;" horiz-adv-x="1001" 
d="M451 1602q98 -13 144.5 -68.5t27 -128t-98.5 -131.5l-121 -90l-55 17q-118 45 -84 104q6 9 15 18l67 68q79 79 105 124t0 87z" />
    <glyph glyph-name="mu" unicode="&#xb5;" horiz-adv-x="1169" 
d="M389 936v-592q0 -85 46 -127.5t151 -42.5q46 0 94.5 7t73.5 15l26 7v866q6 0 15.5 -0.5t37 -3t53 -7t56 -14.5t53 -23.5t37.5 -35.5t15 -49v-961q-81 43 -185 43q-49 0 -148.5 -21.5t-156.5 -21.5q-93 0 -176 21q8 -72 8 -98v-398q-11 0 -29 1t-63.5 8t-81 19.5t-64 40
t-28.5 64.5v660v4v16v756q11 0 29 -1t63.5 -9t81 -20.5t64 -39.5t28.5 -63z" />
    <glyph glyph-name="mu" unicode="&#x3bc;" horiz-adv-x="1169" 
d="M389 936v-592q0 -85 46 -127.5t151 -42.5q46 0 94.5 7t73.5 15l26 7v866q6 0 15.5 -0.5t37 -3t53 -7t56 -14.5t53 -23.5t37.5 -35.5t15 -49v-961q-81 43 -185 43q-49 0 -148.5 -21.5t-156.5 -21.5q-93 0 -176 21q8 -72 8 -98v-398q-11 0 -29 1t-63.5 8t-81 19.5t-64 40
t-28.5 64.5v660v4v16v756q11 0 29 -1t63.5 -9t81 -20.5t64 -39.5t28.5 -63z" />
    <glyph glyph-name="paragraph" unicode="&#xb6;" horiz-adv-x="1228" 
d="M930 1266h-142q9 -35 9 -101v-1339q0 -145 -61.5 -232.5t-160.5 -87.5q-93 0 -194 91q51 7 86.5 37.5t52.5 76.5t24 89t7 91v359q0 25 2 49.5t4 36.5l2 12q-24 -14 -90 -14q-174 0 -301 100.5t-127 255.5v410q0 171 118 267.5t335 96.5h268h13h40.5t47.5 1t54 3t54.5 5.5
t55.5 10t50 14.5t44.5 20t33 27t21.5 35t4 44q50 -55 72 -107.5t13 -97.5t-46 -79.5t-111.5 -54t-177.5 -19.5zM1116 983v-1024v-143q-8 -126 -79 -185q-57 -47 -160 -67q2 1 5 5t10.5 24.5t13.5 49.5t11 87t5 131v1343q8 -3 21 -9.5t46.5 -28t59 -45t46.5 -61.5t21 -77z
" />
    <glyph glyph-name="periodcentered" unicode="&#xb7;" horiz-adv-x="440" 
d="M96 496v192h168q32 0 56 -19.5t24 -43.5v-193h-166q-34 0 -58 19t-24 45z" />
    <glyph glyph-name="cedilla" unicode="&#xb8;" horiz-adv-x="1705" 
d="M418 -211q8 37 20 74l80 219q59 0 90 -20t25 -64l-10 -74l41 -4q88 -9 139 -61t51 -138q0 -91 -71 -145.5t-167 -54.5q-57 0 -98.5 19.5t-60.5 48t-27 51t-8 38.5q15 -8 52 -17t77 -9q46 0 78.5 20.5t32.5 61.5q0 78 -125 78q-28 0 -57.5 -6t-45.5 -12z" />
    <glyph glyph-name="onesuperior" unicode="&#xb9;" horiz-adv-x="692" 
d="M225 1444q41 0 99.5 4.5t96.5 9.5l38 4q-15 -96 -15 -133v-493h158q8 -25 8 -45q0 -89 -82 -89h-436q-8 26 -8 46q0 88 88 88h90v473q-115 0 -115 -111q-88 74 -88 137q0 47 42 78t124 31z" />
    <glyph glyph-name="ordmasculine" unicode="&#xba;" horiz-adv-x="1032" 
d="M909 1206v-276q0 -133 -98.5 -206t-294.5 -73q-197 0 -295 72.5t-98 206.5v276q0 134 98 206.5t295 72.5q196 0 294.5 -73t98.5 -206zM659 952v232q0 71 -29 103t-114 32t-115 -32.5t-30 -102.5v-232q0 -70 30 -102.5t115 -32.5t114 32t29 103z" />
    <glyph glyph-name="guillemotright" unicode="&#xbb;" horiz-adv-x="1386" 
d="M655 147l375 375l-313 316q-31 31 -34.5 62.5t19 59.5t47.5 48.5t62 42.5l412 -412q117 -117 2 -231l-336 -336q-40 -37 -86 -31.5t-87 35.5t-61 71zM143 147l375 375l-313 316q-31 31 -34.5 62.5t19 59.5t47.5 48.5t62 42.5l412 -412q117 -117 2 -231l-336 -336
q-40 -37 -86 -31.5t-87 35.5t-61 71z" />
    <glyph glyph-name="onequarter" unicode="&#xbc;" horiz-adv-x="1443" 
d="M1114 199h-338q3 59 39.5 136.5t84 145t101.5 132.5t88.5 101.5t49.5 49.5q6 0 17 -1t38 -5.5t47.5 -12.5t37.5 -24t17 -37v-358h84q0 -7 -2.5 -21.5t-10 -39t-26 -43.5t-45.5 -23v-199q-14 0 -34.5 2t-58.5 8.5t-63.5 25t-25.5 46.5v117zM1114 326v206
q-104 -120 -143 -206h143zM225 1444q41 0 99.5 4.5t96.5 9.5l38 4q-15 -96 -15 -133v-493h158q8 -25 8 -45q0 -89 -82 -89h-436q-8 26 -8 46q0 88 88 88h90v473q-115 0 -115 -111q-88 74 -88 137q0 47 42 78t124 31zM365 432l725 721q24 -23 40 -42.5t31.5 -47t11.5 -54.5
t-28 -51l-725 -720q-26 25 -42 44.5t-30.5 46t-10 53t27.5 50.5z" />
    <glyph glyph-name="onehalf" unicode="&#xbd;" horiz-adv-x="1576" 
d="M225 1444q41 0 99.5 4.5t96.5 9.5l38 4q-15 -96 -15 -133v-493h158q8 -25 8 -45q0 -89 -82 -89h-436q-8 26 -8 46q0 88 88 88h90v473q-115 0 -115 -111q-88 74 -88 137q0 47 42 78t124 31zM365 432l725 721q24 -23 40 -42.5t31.5 -47t11.5 -54.5t-28 -51l-725 -720
q-26 25 -42 44.5t-30.5 46t-10 53t27.5 50.5zM932 -10v116q0 51 21 91.5t54.5 66.5t73.5 47.5t80.5 40t74 38t54.5 47t21 61.5v14q0 43 -26 68.5t-75 25.5q-32 0 -50 -1t-49 -8.5t-48.5 -22t-31 -44t-13.5 -71.5q-78 65 -78 139q0 66 74.5 104.5t195.5 38.5q125 0 204 -58
t79 -153v-38q0 -51 -20.5 -92.5t-53.5 -68t-73.5 -48.5t-81 -39t-74 -33.5t-56 -38.5t-24.5 -49h295q33 0 61 8.5t40 16.5l12 8q0 -11 -0.5 -20.5t-5.5 -39.5t-14.5 -50.5t-31 -38t-51.5 -17.5h-483z" />
    <glyph glyph-name="threequarters" unicode="&#xbe;" horiz-adv-x="1447" 
d="M1116 199h-338q3 59 39.5 136.5t84 145t101.5 132.5t88.5 101.5t49.5 49.5q6 0 17 -1t38 -5.5t47.5 -12.5t37.5 -24t17 -37v-358h84q0 -7 -2.5 -21.5t-10 -39t-26 -43.5t-45.5 -23v-199q-14 0 -34.5 2t-58.5 8.5t-63.5 25t-25.5 46.5v117zM1116 326v206
q-104 -120 -143 -206h143zM389 432l725 721q24 -23 40 -42.5t31.5 -47t11.5 -54.5t-28 -51l-725 -720q-26 25 -42 44.5t-30.5 46t-10 53t27.5 50.5zM365 1317q-36 0 -63 -5t-55.5 -19t-47.5 -45t-25 -77q-72 59 -72 136q0 67 74.5 106t188.5 39q126 0 204 -54.5t78 -150.5
v-26q0 -47 -19.5 -88.5t-56.5 -55.5q42 -22 64 -62.5t22 -84.5v-29q0 -95 -80.5 -154t-211.5 -59q-118 0 -188.5 41t-70.5 107t56 125q28 -138 203 -138q56 0 84 27.5t28 71.5q0 39 -12 60.5t-30 25t-39 7.5t-39 8.5t-30 27t-12 63.5v8q0 1 1 9t1 10h56q51 0 72.5 22.5
t21.5 67.5q0 86 -102 86z" />
    <glyph glyph-name="questiondown" unicode="&#xbf;" horiz-adv-x="1136" 
d="M596 186q62 0 116 12.5t98 38.5t69.5 71t25.5 104q55 -51 83 -105t27.5 -102t-28.5 -91t-80 -74t-132 -49t-179 -18q-240 0 -387.5 100t-147.5 281v52q0 70 26 128.5t67.5 99.5t92 76.5t100.5 66.5t91.5 62t67.5 70.5t26 85.5v99q5 0 14.5 -0.5t36.5 -3t51.5 -7.5
t54.5 -15.5t51.5 -25t36 -37.5t14.5 -51v-32q0 -51 -25 -96t-65 -79t-88.5 -65.5t-97.5 -62t-89 -63t-65 -75t-25 -90.5q0 -96 65.5 -150.5t194.5 -54.5zM786 1399v-193h-168q-31 0 -55 20t-24 44v192h166q34 0 57.5 -18.5t23.5 -44.5z" />
    <glyph glyph-name="Agrave" unicode="&#xc0;" horiz-adv-x="1396" 
d="M698 1511q15 -9 40.5 -31.5t73.5 -76.5t94 -120.5t98.5 -172.5t91.5 -225l174 -539q73 -230 100 -289q14 -29 27 -49q-68 -22 -115 -22q-54 0 -97.5 20t-68.5 41t-52 73.5t-36 76.5t-31 91q-4 11 -6 17l-35 109h-516l-34 -109q-45 -137 -73 -187q-71 -126 -204 -132h-14
q-21 0 -49.5 5.5t-47.5 10.5l-18 6q38 56 115 300q8 25 12 38l174 539q39 119 91.5 225t98.5 172.5t93.5 120.5t73 76.5t40.5 31.5zM698 1178q-59 -92 -135 -347l-63 -213h397l-63 213q-23 76 -57 163t-57 136zM642 1979q-26 -42 0 -87.5t104 -123.5l68 -68q25 -27 21.5 -49
t-26.5 -39t-50 -28t-49 -17l-21 -6l-121 90q-59 44 -84.5 98.5t-16 101t55 82.5t119.5 46z" />
    <glyph glyph-name="Aacute" unicode="&#xc1;" horiz-adv-x="1396" 
d="M698 1511q15 -9 40.5 -31.5t73.5 -76.5t94 -120.5t98.5 -172.5t91.5 -225l174 -539q73 -230 100 -289q14 -29 27 -49q-68 -22 -115 -22q-54 0 -97.5 20t-68.5 41t-52 73.5t-36 76.5t-31 91q-4 11 -6 17l-35 109h-516l-34 -109q-45 -137 -73 -187q-71 -126 -204 -132h-14
q-21 0 -49.5 5.5t-47.5 10.5l-18 6q38 56 115 300q8 25 12 38l174 539q39 119 91.5 225t98.5 172.5t93.5 120.5t73 76.5t40.5 31.5zM698 1178q-59 -92 -135 -347l-63 -213h397l-63 213q-23 76 -57 163t-57 136zM754 1978q98 -13 144.5 -68.5t27 -127.5t-98.5 -131l-120 -90
l-56 17q-118 45 -84 104q6 9 15 18l67 67q79 79 105 124t0 87z" />
    <glyph glyph-name="Acircumflex" unicode="&#xc2;" horiz-adv-x="1396" 
d="M698 1511q15 -9 40.5 -31.5t73.5 -76.5t94 -120.5t98.5 -172.5t91.5 -225l174 -539q73 -230 100 -289q14 -29 27 -49q-68 -22 -115 -22q-54 0 -97.5 20t-68.5 41t-52 73.5t-36 76.5t-31 91q-4 11 -6 17l-35 109h-516l-34 -109q-45 -137 -73 -187q-71 -126 -204 -132h-14
q-21 0 -49.5 5.5t-47.5 10.5l-18 6q38 56 115 300q8 25 12 38l174 539q39 119 91.5 225t98.5 172.5t93.5 120.5t73 76.5t40.5 31.5zM698 1178q-59 -92 -135 -347l-63 -213h397l-63 213q-23 76 -57 163t-57 136zM829 1567q17 28 10 58t-30 60t-47.5 53.5t-43.5 38.5l-20 15
q-2 -2 -6.5 -5t-16.5 -12.5t-23.5 -20t-26.5 -25.5t-26.5 -29.5t-22 -32t-15 -34t-3 -34t10.5 -32.5q-57 21 -95.5 41.5t-56 43t-23.5 42.5t10.5 47t37 49.5t65.5 56.5t85 61.5t106 70.5q66 -43 106.5 -70t85.5 -61t65.5 -56.5t37.5 -49.5t11.5 -47.5t-23 -43t-56 -43
t-96.5 -41.5z" />
    <glyph glyph-name="Atilde" unicode="&#xc3;" horiz-adv-x="1396" 
d="M698 1511q15 -9 40.5 -31.5t73.5 -76.5t94 -120.5t98.5 -172.5t91.5 -225l174 -539q73 -230 100 -289q14 -29 27 -49q-68 -22 -115 -22q-54 0 -97.5 20t-68.5 41t-52 73.5t-36 76.5t-31 91q-4 11 -6 17l-35 109h-516l-34 -109q-45 -137 -73 -187q-71 -126 -204 -132h-14
q-21 0 -49.5 5.5t-47.5 10.5l-18 6q38 56 115 300q8 25 12 38l174 539q39 119 91.5 225t98.5 172.5t93.5 120.5t73 76.5t40.5 31.5zM698 1178q-59 -92 -135 -347l-63 -213h397l-63 213q-23 76 -57 163t-57 136zM408 1622q-20 30 -22 71t11.5 78t46.5 63t76 26
q54 0 184.5 -47.5t192.5 -47.5q36 0 57.5 12t42.5 42q19 -33 22 -74.5t-8.5 -78.5t-44.5 -62t-81 -25q-56 0 -185.5 47t-189.5 47q-39 0 -60.5 -11.5t-41.5 -39.5z" />
    <glyph glyph-name="Adieresis" unicode="&#xc4;" horiz-adv-x="1396" 
d="M698 1511q15 -9 40.5 -31.5t73.5 -76.5t94 -120.5t98.5 -172.5t91.5 -225l174 -539q73 -230 100 -289q14 -29 27 -49q-68 -22 -115 -22q-54 0 -97.5 20t-68.5 41t-52 73.5t-36 76.5t-31 91q-4 11 -6 17l-35 109h-516l-34 -109q-45 -137 -73 -187q-71 -126 -204 -132h-14
q-21 0 -49.5 5.5t-47.5 10.5l-18 6q38 56 115 300q8 25 12 38l174 539q39 119 91.5 225t98.5 172.5t93.5 120.5t73 76.5t40.5 31.5zM698 1178q-59 -92 -135 -347l-63 -213h397l-63 213q-23 76 -57 163t-57 136zM764 1655v172h163q30 0 51 -19t21 -40v-170h-164
q-32 0 -51.5 17t-19.5 40zM397 1655v172h164q30 0 51 -19t21 -40v-170h-164q-32 0 -52 17t-20 40z" />
    <glyph glyph-name="Aring" unicode="&#xc5;" horiz-adv-x="1396" 
d="M698 1511q15 -9 40.5 -31.5t73.5 -76.5t94 -120.5t98.5 -172.5t91.5 -225l174 -539q73 -230 100 -289q14 -29 27 -49q-68 -22 -115 -22q-54 0 -97.5 20t-68.5 41t-52 73.5t-36 76.5t-31 91q-4 11 -6 17l-35 109h-516l-34 -109q-45 -137 -73 -187q-71 -126 -204 -132h-14
q-21 0 -49.5 5.5t-47.5 10.5l-18 6q38 56 115 300q8 25 12 38l174 539q39 119 91.5 225t98.5 172.5t93.5 120.5t73 76.5t40.5 31.5zM698 1178q-59 -92 -135 -347l-63 -213h397l-63 213q-23 76 -57 163t-57 136zM768 1722v54q0 49 -72 49q-41 0 -54 -12t-13 -37v-54
q0 -26 13 -36.5t54 -10.5t56.5 11t15.5 36zM907 1798v-98q0 -64 -56 -98.5t-153 -34.5q-96 0 -152.5 35t-56.5 98v98q0 62 57 98.5t152 36.5q96 0 152.5 -36t56.5 -99z" />
    <glyph glyph-name="AE" unicode="&#xc6;" horiz-adv-x="1748" 
d="M1401 680h-352v-477h628q0 -11 -1 -26.5t-9.5 -49.5t-23.5 -60t-46 -46.5t-73 -20.5h-527q-9 0 -24 1t-53.5 8t-68 19.5t-53.5 40t-24 64.5v293h-340l-33 -111q-38 -128 -52 -161q-54 -129 -158 -158q-35 -10 -76 -10q-21 0 -49.5 5.5t-47.5 10.5l-18 6q39 68 129 363
l166 532q34 108 82 204.5t100 164.5t101 116t94 76h1005q0 -4 -0.5 -11.5t-3 -28.5t-8 -40t-17 -42t-27 -40t-41 -28.5t-56.5 -11.5h-475v-379h319q78 0 135 8t75 16l17 8q0 -36 -3.5 -65.5t-16 -62.5t-32.5 -55.5t-56.5 -37t-85.5 -14.5zM555 834q-12 -43 -33.5 -114.5
t-27.5 -90.5h280v624q-64 -54 -122.5 -170t-96.5 -249z" />
    <glyph glyph-name="Ccedilla" unicode="&#xc7;" horiz-adv-x="1413" 
d="M592 -211q8 37 20 74l41 117q-89 8 -165.5 29t-144.5 61t-116 95.5t-76 135.5t-28 178v506q0 109 34 195.5t92 143.5t139 94.5t170.5 54t191.5 16.5q107 0 203 -14.5t179 -48.5t130.5 -85t48 -130.5t-59.5 -178.5q-15 54 -53 97t-88 70t-112.5 45t-123.5 25t-124 7
q-353 0 -353 -320v-446q0 -324 353 -324q425 0 501 246q51 -91 52 -166t-39.5 -126t-113 -87.5t-160 -54t-187.5 -21.5l-6 -53l41 -4q88 -9 139 -61t51 -138q0 -91 -70.5 -145.5t-166.5 -54.5q-46 0 -83 13.5t-57 32.5t-33.5 42.5t-17.5 40t-4 28.5q15 -8 52 -17t77 -9
q46 0 78.5 20.5t32.5 61.5q0 78 -125 78q-28 0 -57.5 -6t-45.5 -12z" />
    <glyph glyph-name="Egrave" unicode="&#xc8;" horiz-adv-x="1220" 
d="M872 680h-454v-477h731q0 -10 -1.5 -26t-10 -50t-23 -60t-46 -46.5t-73.5 -20.5h-628q-9 0 -24 1t-54 8t-68.5 19.5t-53.5 40t-24 64.5v1331h1006q0 -4 -0.5 -11.5t-3.5 -28.5t-8 -40t-16.5 -42t-27.5 -40t-41.5 -28.5t-56.5 -11.5h-577v-379h422q78 0 135 8t75 16l17 8
q0 -36 -4 -65.5t-16 -62.5t-32.5 -55.5t-57 -37t-85.5 -14.5zM611 1979q-26 -42 0 -87.5t104 -123.5l68 -68q25 -27 21.5 -49t-26.5 -39t-50 -28t-49 -17l-21 -6l-121 90q-59 44 -84.5 98.5t-16 101t55 82.5t119.5 46z" />
    <glyph glyph-name="Eacute" unicode="&#xc9;" horiz-adv-x="1220" 
d="M872 680h-454v-477h731q0 -10 -1.5 -26t-10 -50t-23 -60t-46 -46.5t-73.5 -20.5h-628q-9 0 -24 1t-54 8t-68.5 19.5t-53.5 40t-24 64.5v1331h1006q0 -4 -0.5 -11.5t-3.5 -28.5t-8 -40t-16.5 -42t-27.5 -40t-41.5 -28.5t-56.5 -11.5h-577v-379h422q78 0 135 8t75 16l17 8
q0 -36 -4 -65.5t-16 -62.5t-32.5 -55.5t-57 -37t-85.5 -14.5zM723 1978q74 -10 119.5 -45.5t55 -82.5t-16 -101t-84.5 -98l-121 -90l-56 17q-118 45 -84 104q6 9 15 18l67 67q79 79 105 124t0 87z" />
    <glyph glyph-name="Ecircumflex" unicode="&#xca;" horiz-adv-x="1220" 
d="M872 680h-454v-477h731q0 -10 -1.5 -26t-10 -50t-23 -60t-46 -46.5t-73.5 -20.5h-628q-9 0 -24 1t-54 8t-68.5 19.5t-53.5 40t-24 64.5v1331h1006q0 -4 -0.5 -11.5t-3.5 -28.5t-8 -40t-16.5 -42t-27.5 -40t-41.5 -28.5t-56.5 -11.5h-577v-379h422q78 0 135 8t75 16l17 8
q0 -36 -4 -65.5t-16 -62.5t-32.5 -55.5t-57 -37t-85.5 -14.5zM798 1567q17 28 10 58t-30 60t-47.5 53.5t-43.5 38.5l-20 15q-2 -2 -6.5 -5t-16.5 -12.5t-23.5 -20t-26.5 -25.5t-26.5 -29.5t-22 -32t-15 -34t-3 -34t10.5 -32.5q-57 21 -95.5 41.5t-56 43t-23.5 42.5t10.5 47
t37 49.5t65.5 56.5t85 61.5t106 70.5q66 -43 106.5 -70t85.5 -61t65.5 -56.5t37.5 -49.5t11.5 -47.5t-23 -43t-56 -43t-96.5 -41.5z" />
    <glyph glyph-name="Edieresis" unicode="&#xcb;" horiz-adv-x="1220" 
d="M872 680h-454v-477h731q0 -10 -1.5 -26t-10 -50t-23 -60t-46 -46.5t-73.5 -20.5h-628q-9 0 -24 1t-54 8t-68.5 19.5t-53.5 40t-24 64.5v1331h1006q0 -4 -0.5 -11.5t-3.5 -28.5t-8 -40t-16.5 -42t-27.5 -40t-41.5 -28.5t-56.5 -11.5h-577v-379h422q78 0 135 8t75 16l17 8
q0 -36 -4 -65.5t-16 -62.5t-32.5 -55.5t-57 -37t-85.5 -14.5zM733 1655v172h164q30 0 51 -19.5t21 -40.5v-170h-164q-32 0 -52 17.5t-20 40.5zM367 1655v172h163q30 0 51 -19.5t21 -40.5v-170h-164q-32 0 -51.5 17.5t-19.5 40.5z" />
    <glyph glyph-name="Igrave" unicode="&#xcc;" horiz-adv-x="561" 
d="M143 113v1372q11 0 29.5 -1t66 -8t84 -19.5t66 -40t29.5 -64.5v-1372q-11 0 -29.5 1t-66 8t-84 19.5t-66 40t-29.5 64.5zM224 1979q-26 -42 0 -87.5t104 -123.5l68 -68q25 -27 21.5 -49t-26.5 -39t-50 -28t-49 -17l-21 -6l-121 90q-59 44 -84.5 98.5t-16 101t55 82.5
t119.5 46z" />
    <glyph glyph-name="Iacute" unicode="&#xcd;" horiz-adv-x="561" 
d="M143 113v1372q11 0 29.5 -1t66 -8t84 -19.5t66 -40t29.5 -64.5v-1372q-11 0 -29.5 1t-66 8t-84 19.5t-66 40t-29.5 64.5zM336 1978q74 -10 119.5 -45.5t55 -82.5t-16 -101t-84.5 -98l-121 -90l-56 17q-118 45 -84 104q6 9 15 18l67 67q79 79 105 124t0 87z" />
    <glyph glyph-name="Icircumflex" unicode="&#xce;" horiz-adv-x="561" 
d="M143 113v1372q11 0 29.5 -1t66 -8t84 -19.5t66 -40t29.5 -64.5v-1372q-11 0 -29.5 1t-66 8t-84 19.5t-66 40t-29.5 64.5zM411 1567q17 28 10 58t-30 60t-47.5 53.5t-43.5 38.5l-20 15q-2 -2 -6.5 -5t-16.5 -12.5t-23.5 -20t-26.5 -25.5t-26.5 -29.5t-22 -32t-15 -34
t-3 -34t10.5 -32.5q-57 21 -95.5 41.5t-56 43t-23.5 42.5t10.5 47t37 49.5t65.5 56.5t85 61.5t106 70.5q66 -43 106.5 -70t85.5 -61t65.5 -56.5t37.5 -49.5t11.5 -47.5t-23 -43t-56 -43t-96.5 -41.5z" />
    <glyph glyph-name="Idieresis" unicode="&#xcf;" horiz-adv-x="561" 
d="M143 113v1372q11 0 29.5 -1t66 -8t84 -19.5t66 -40t29.5 -64.5v-1372q-11 0 -29.5 1t-66 8t-84 19.5t-66 40t-29.5 64.5zM346 1655v172h164q30 0 51 -19.5t21 -40.5v-170h-164q-32 0 -52 17.5t-20 40.5zM-20 1655v172h163q30 0 51 -19.5t21 -40.5v-170h-164
q-32 0 -51.5 17.5t-19.5 40.5z" />
    <glyph glyph-name="Eth" unicode="&#xd0;" horiz-adv-x="1497" 
d="M106 827h37v637h594q104 0 193 -14t172.5 -49.5t142 -91.5t94 -144.5t35.5 -203.5v-457q0 -115 -35.5 -204t-94 -144.5t-142 -91.5t-172.5 -50t-193 -14h-375q-13 0 -31.5 1.5t-54 9t-63 20.5t-49 39.5t-21.5 62.5v498h-139q-2 8 -3.5 21t-1 47t8.5 60t33 47t65 21z
M737 1262h-319v-435h332q2 -8 4 -21t1.5 -47t-8 -60t-32.5 -47t-66 -21h-231v-428h319q363 0 363 321v418q0 320 -363 320z" />
    <glyph glyph-name="Ntilde" unicode="&#xd1;" horiz-adv-x="1507" 
d="M514 1348l600 -940q-24 117 -24 217v839q11 0 29.5 -1t66 -8t83.5 -19.5t65.5 -40t29.5 -64.5v-1351q-87 0 -157 15t-108.5 37t-64.5 43.5t-34 36.5l-9 15l-596 946q23 -117 23 -217v-876q-11 0 -29.5 1t-66 8t-84 19.5t-66 40t-29.5 64.5v1351q55 0 81 -0.5t71 -3.5
t69.5 -10t56 -19.5t53.5 -33.5t40 -49zM465 1622q-20 30 -22 71t11.5 78t46.5 63t76 26q54 0 184.5 -47t192.5 -47q36 0 57.5 11.5t42.5 41.5q19 -33 22 -74.5t-8.5 -78.5t-44.5 -62t-81 -25q-56 0 -185.5 47t-189.5 47q-39 0 -60.5 -11.5t-41.5 -39.5z" />
    <glyph glyph-name="Ograve" unicode="&#xd2;" 
d="M1356 1004v-543q0 -233 -154 -359.5t-463 -126.5q-310 0 -463 126.5t-153 359.5v543q0 233 153 359t463 126q309 0 463 -126.5t154 -358.5zM1081 487v490q0 63 -8 107.5t-30 85t-60 64.5t-99.5 38t-146.5 14q-84 0 -144.5 -14t-98.5 -38t-59.5 -64.5t-29.5 -85t-8 -107.5
v-490q0 -63 8 -107.5t29.5 -85t59.5 -64.5t98.5 -38t144.5 -14q85 0 146.5 14t99.5 38t60 64.5t30 85t8 107.5zM685 1979q-26 -42 0 -87.5t104 -123.5l68 -68q25 -27 21.5 -49t-26.5 -39t-50 -28t-49 -17l-21 -6l-121 90q-59 44 -84.5 98.5t-16 101t55 82.5t119.5 46z" />
    <glyph glyph-name="Oacute" unicode="&#xd3;" 
d="M1356 1004v-543q0 -233 -154 -359.5t-463 -126.5q-310 0 -463 126.5t-153 359.5v543q0 233 153 359t463 126q309 0 463 -126.5t154 -358.5zM1081 487v490q0 63 -8 107.5t-30 85t-60 64.5t-99.5 38t-146.5 14q-84 0 -144.5 -14t-98.5 -38t-59.5 -64.5t-29.5 -85t-8 -107.5
v-490q0 -63 8 -107.5t29.5 -85t59.5 -64.5t98.5 -38t144.5 -14q85 0 146.5 14t99.5 38t60 64.5t30 85t8 107.5zM797 1978q98 -13 144.5 -68.5t27 -127.5t-98.5 -131l-120 -90l-56 17q-118 45 -84 104q6 9 15 18l67 67q79 79 105 124t0 87z" />
    <glyph glyph-name="Ocircumflex" unicode="&#xd4;" 
d="M1356 1004v-543q0 -233 -154 -359.5t-463 -126.5q-310 0 -463 126.5t-153 359.5v543q0 233 153 359t463 126q309 0 463 -126.5t154 -358.5zM1081 487v490q0 63 -8 107.5t-30 85t-60 64.5t-99.5 38t-146.5 14q-84 0 -144.5 -14t-98.5 -38t-59.5 -64.5t-29.5 -85t-8 -107.5
v-490q0 -63 8 -107.5t29.5 -85t59.5 -64.5t98.5 -38t144.5 -14q85 0 146.5 14t99.5 38t60 64.5t30 85t8 107.5zM872 1567q17 28 10 58t-30 60t-47.5 53.5t-43.5 38.5l-20 15q-2 -2 -6.5 -5t-16.5 -12.5t-23.5 -20t-26.5 -25.5t-26.5 -29.5t-22 -32t-15 -34t-3 -34
t10.5 -32.5q-57 21 -95.5 41.5t-56 43t-23.5 42.5t10.5 47t37 49.5t65.5 56.5t85 61.5t106 70.5q66 -43 106.5 -70t85.5 -61t65.5 -56.5t37.5 -49.5t11.5 -47.5t-23 -43t-56 -43t-96.5 -41.5z" />
    <glyph glyph-name="Otilde" unicode="&#xd5;" 
d="M1356 1004v-543q0 -233 -154 -359.5t-463 -126.5q-310 0 -463 126.5t-153 359.5v543q0 233 153 359t463 126q309 0 463 -126.5t154 -358.5zM1081 487v490q0 63 -8 107.5t-30 85t-60 64.5t-99.5 38t-146.5 14q-84 0 -144.5 -14t-98.5 -38t-59.5 -64.5t-29.5 -85t-8 -107.5
v-490q0 -63 8 -107.5t29.5 -85t59.5 -64.5t98.5 -38t144.5 -14q85 0 146.5 14t99.5 38t60 64.5t30 85t8 107.5zM451 1622q-20 30 -22 71t11.5 78t46.5 63t76 26q54 0 184.5 -47.5t192.5 -47.5q36 0 57.5 12t42.5 42q19 -33 22 -74.5t-8.5 -78.5t-44.5 -62t-81 -25
q-56 0 -185.5 47t-189.5 47q-39 0 -60.5 -11.5t-41.5 -39.5z" />
    <glyph glyph-name="Odieresis" unicode="&#xd6;" 
d="M1356 1004v-543q0 -233 -154 -359.5t-463 -126.5q-310 0 -463 126.5t-153 359.5v543q0 233 153 359t463 126q309 0 463 -126.5t154 -358.5zM1081 487v490q0 63 -8 107.5t-30 85t-60 64.5t-99.5 38t-146.5 14q-84 0 -144.5 -14t-98.5 -38t-59.5 -64.5t-29.5 -85t-8 -107.5
v-490q0 -63 8 -107.5t29.5 -85t59.5 -64.5t98.5 -38t144.5 -14q85 0 146.5 14t99.5 38t60 64.5t30 85t8 107.5zM807 1655v172h163q30 0 51 -19t21 -40v-170h-164q-32 0 -51.5 17t-19.5 40zM440 1655v172h164q30 0 51 -19t21 -40v-170h-164q-32 0 -52 17t-20 40z" />
    <glyph glyph-name="multiply" unicode="&#xd7;" horiz-adv-x="985" 
d="M614 270l-125 125l-198 -200q-4 3 -11 7.5t-25.5 20t-33.5 31t-30 38t-21.5 43.5t-1.5 45t25 44l133 135l-203 199q5 8 14 20.5t36.5 40t55 42.5t66 12.5t72.5 -35.5l120 -117q34 35 104.5 104.5t96.5 96.5q4 -3 11 -7.5t25.5 -19.5t33.5 -30t30 -37t21.5 -42t1.5 -44
t-25 -44l-135 -137l211 -211q-5 -8 -14.5 -20.5t-38.5 -40t-57.5 -42.5t-66.5 -12.5t-71 35.5z" />
    <glyph glyph-name="Oslash" unicode="&#xd8;" 
d="M1356 1004v-543q0 -233 -154 -359.5t-463 -126.5q-299 0 -454 121l-111 -127q-5 3 -13 9.5t-25 26.5t-26 40t-6 49t25 56l53 61q-59 101 -59 250v543q0 233 153 359t463 126q293 0 453 -119l104 121q5 -4 13 -10.5t25 -26.5t26 -41t5.5 -50t-26.5 -56l-45 -54
q62 -106 62 -249zM1081 487v490v33l-637 -731q69 -101 293 -101q85 0 146.5 14t99.5 38t60 64.5t30 85t8 107.5zM397 487v-30l635 729q-71 100 -295 100q-84 0 -144.5 -14t-98.5 -38t-59.5 -64.5t-29.5 -85t-8 -107.5v-490z" />
    <glyph glyph-name="Ugrave" unicode="&#xd9;" 
d="M1356 1352v-914q0 -112 -50 -202t-136 -146t-196 -85.5t-235 -29.5t-235 29.5t-195.5 85.5t-135.5 146t-50 202v1047q11 0 29.5 -1t66 -8t83.5 -19.5t65.5 -40t29.5 -64.5v-883q0 -135 93.5 -208t248.5 -73t248.5 73t93.5 208v1016q11 0 29.5 -1t66 -8t84 -19.5t66 -40
t29.5 -64.5zM685 1979q-26 -42 0 -87.5t104 -123.5l68 -68q25 -27 21.5 -49t-26.5 -39t-50 -28t-49 -17l-21 -6l-121 90q-59 44 -84.5 98.5t-16 101t55 82.5t119.5 46z" />
    <glyph glyph-name="Uacute" unicode="&#xda;" 
d="M1356 1352v-914q0 -112 -50 -202t-136 -146t-196 -85.5t-235 -29.5t-235 29.5t-195.5 85.5t-135.5 146t-50 202v1047q11 0 29.5 -1t66 -8t83.5 -19.5t65.5 -40t29.5 -64.5v-883q0 -135 93.5 -208t248.5 -73t248.5 73t93.5 208v1016q11 0 29.5 -1t66 -8t84 -19.5t66 -40
t29.5 -64.5zM797 1978q98 -13 144.5 -68.5t27 -127.5t-98.5 -131l-120 -90l-56 17q-118 45 -84 104q6 9 15 18l67 67q79 79 105 124t0 87z" />
    <glyph glyph-name="Ucircumflex" unicode="&#xdb;" 
d="M1356 1352v-914q0 -112 -50 -202t-136 -146t-196 -85.5t-235 -29.5t-235 29.5t-195.5 85.5t-135.5 146t-50 202v1047q11 0 29.5 -1t66 -8t83.5 -19.5t65.5 -40t29.5 -64.5v-883q0 -135 93.5 -208t248.5 -73t248.5 73t93.5 208v1016q11 0 29.5 -1t66 -8t84 -19.5t66 -40
t29.5 -64.5zM872 1567q17 28 10 58t-30 60t-47.5 53.5t-43.5 38.5l-20 15q-2 -2 -6.5 -5t-16.5 -12.5t-23.5 -20t-26.5 -25.5t-26.5 -29.5t-22 -32t-15 -34t-3 -34t10.5 -32.5q-57 21 -95.5 41.5t-56 43t-23.5 42.5t10.5 47t37 49.5t65.5 56.5t85 61.5t106 70.5
q66 -43 106.5 -70t85.5 -61t65.5 -56.5t37.5 -49.5t11.5 -47.5t-23 -43t-56 -43t-96.5 -41.5z" />
    <glyph glyph-name="Udieresis" unicode="&#xdc;" 
d="M1356 1352v-914q0 -112 -50 -202t-136 -146t-196 -85.5t-235 -29.5t-235 29.5t-195.5 85.5t-135.5 146t-50 202v1047q11 0 29.5 -1t66 -8t83.5 -19.5t65.5 -40t29.5 -64.5v-883q0 -135 93.5 -208t248.5 -73t248.5 73t93.5 208v1016q11 0 29.5 -1t66 -8t84 -19.5t66 -40
t29.5 -64.5zM807 1655v172h164q30 0 50.5 -19.5t20.5 -40.5v-170h-163q-32 0 -52 17.5t-20 40.5zM440 1655v172h164q30 0 51 -19.5t21 -40.5v-170h-164q-32 0 -52 17.5t-20 40.5z" />
    <glyph glyph-name="Yacute" unicode="&#xdd;" horiz-adv-x="1277" 
d="M502 113v497q-85 85 -157.5 198.5t-116 210t-105.5 223.5t-119 216q74 19 125 19q166 0 231 -134l95 -190q5 -11 30 -62t32 -65.5t27.5 -54t32.5 -59t29 -46.5t33 -47q22 29 47.5 73t39.5 71t48 96t43 86l101 198q68 134 231 134q19 0 50.5 -5.5t52.5 -10.5l22 -5
q-50 -84 -113.5 -212.5t-109.5 -225t-119.5 -210.5t-155.5 -198v-630q-11 0 -29.5 1t-66 8t-83.5 19.5t-65.5 40t-29.5 64.5zM695 1979q98 -13 144.5 -68.5t27 -128t-98.5 -131.5l-121 -90l-55 17q-118 45 -84 104q6 9 15 18l67 68q79 79 105 124t0 87z" />
    <glyph glyph-name="Thorn" unicode="&#xde;" horiz-adv-x="1251" 
d="M143 113v1452q11 0 29.5 -1t66 -8t84 -19.5t66 -40t29.5 -64.5v-125h137q105 0 190.5 -12t167 -44t136.5 -84.5t88.5 -138t33.5 -199.5v-36q0 -482 -616 -482h-137v-331q-11 0 -29.5 1t-66 8t-84 19.5t-66 40t-29.5 64.5zM555 1104h-137v-590h137q66 0 113.5 6t93 24
t73.5 50t45 86.5t17 130.5q0 71 -16.5 123.5t-45.5 84.5t-73.5 51.5t-93.5 26.5t-113 7z" />
    <glyph glyph-name="germandbls" unicode="&#xdf;" horiz-adv-x="1366" 
d="M662 1368q-127 0 -200 -71t-73 -193v-1124q-11 0 -29 1t-63.5 8t-81 19.5t-64 40t-28.5 64.5v1032q0 76 30.5 144t82.5 118t120 86.5t144.5 55t154.5 18.5q108 0 196.5 -18.5t158.5 -56.5t108.5 -102.5t38.5 -150.5q0 -57 -23.5 -107.5t-59 -84.5t-77 -67.5t-77 -59.5
t-59 -58t-23.5 -65q0 -36 27 -58.5t70 -36t95 -26.5t103.5 -37t94.5 -59.5t70 -102.5t27 -158q0 -158 -121.5 -251t-351.5 -93q-55 0 -112 13.5t-108.5 37.5t-86.5 61t-48.5 81.5t7.5 102t80 118.5q-7 -48 17 -89t66.5 -66.5t91 -39.5t93.5 -14q118 0 162.5 39.5t44.5 110.5
q0 46 -26.5 78.5t-68.5 51.5t-93 35.5t-101.5 36.5t-92.5 47.5t-68.5 76t-26.5 114.5q0 61 32 119t78 100.5t91.5 80.5t77.5 74t32 66q0 80 -63.5 119t-167.5 39z" />
    <glyph glyph-name="agrave" unicode="&#xe0;" horiz-adv-x="1093" 
d="M725 199v333q-13 -29 -56.5 -47.5t-96 -29t-103.5 -25t-85 -46.5t-34 -83q0 -68 48 -103.5t137 -35.5q48 0 95.5 9t71.5 19zM86 297q0 78 30.5 136t80.5 91.5t111.5 56.5t126.5 38t121.5 29.5t101 37.5t61.5 55q0 140 -199 140q-67 0 -124 -12.5t-103.5 -38.5t-73 -72.5
t-26.5 -108.5q-78 106 -78 199q0 63 39 110.5t102.5 72.5t130 36.5t135.5 11.5q224 0 342.5 -91t118.5 -259v-749q-63 32 -158 32q-49 0 -155 -18.5t-166 -18.5q-84 0 -155 16.5t-132 52.5t-96 100.5t-35 152.5zM486 1602q-26 -42 0 -87.5t104 -123.5l68 -68
q25 -27 21.5 -49t-26.5 -39t-50 -28t-49 -17l-21 -6l-121 90q-59 44 -84.5 98.5t-16 101t55 82.5t119.5 46z" />
    <glyph glyph-name="aacute" unicode="&#xe1;" horiz-adv-x="1093" 
d="M725 199v333q-13 -29 -56.5 -47.5t-96 -29t-103.5 -25t-85 -46.5t-34 -83q0 -68 48 -103.5t137 -35.5q48 0 95.5 9t71.5 19zM86 297q0 78 30.5 136t80.5 91.5t111.5 56.5t126.5 38t121.5 29.5t101 37.5t61.5 55q0 140 -199 140q-67 0 -124 -12.5t-103.5 -38.5t-73 -72.5
t-26.5 -108.5q-78 106 -78 199q0 63 39 110.5t102.5 72.5t130 36.5t135.5 11.5q224 0 342.5 -91t118.5 -259v-749q-63 32 -158 32q-49 0 -155 -18.5t-166 -18.5q-84 0 -155 16.5t-132 52.5t-96 100.5t-35 152.5zM598 1602q74 -10 119.5 -46t55 -82.5t-16 -101t-84.5 -98.5
l-121 -90l-56 17q-118 45 -84 104q6 9 15 18l68 68q78 78 104 123.5t0 87.5z" />
    <glyph glyph-name="acircumflex" unicode="&#xe2;" horiz-adv-x="1093" 
d="M725 199v333q-13 -29 -56.5 -47.5t-96 -29t-103.5 -25t-85 -46.5t-34 -83q0 -68 48 -103.5t137 -35.5q48 0 95.5 9t71.5 19zM86 297q0 78 30.5 136t80.5 91.5t111.5 56.5t126.5 38t121.5 29.5t101 37.5t61.5 55q0 140 -199 140q-67 0 -124 -12.5t-103.5 -38.5t-73 -72.5
t-26.5 -108.5q-78 106 -78 199q0 63 39 110.5t102.5 72.5t130 36.5t135.5 11.5q224 0 342.5 -91t118.5 -259v-749q-63 32 -158 32q-49 0 -155 -18.5t-166 -18.5q-84 0 -155 16.5t-132 52.5t-96 100.5t-35 152.5zM673 1190q17 28 10 58t-30 60t-47.5 53.5t-43.5 38.5l-20 15
q-2 -2 -6.5 -5t-16.5 -12.5t-23.5 -20t-26.5 -25.5t-26.5 -29.5t-22 -32t-15 -34t-3 -34t10.5 -32.5q-57 21 -95.5 41.5t-56 43t-23.5 42.5t10.5 47t37 49.5t65.5 56.5t85 61.5t106 70.5q66 -43 106.5 -70t85.5 -61t65.5 -56.5t37.5 -49.5t11.5 -47.5t-23 -43t-56 -43
t-96.5 -41.5z" />
    <glyph glyph-name="atilde" unicode="&#xe3;" horiz-adv-x="1093" 
d="M725 199v333q-13 -29 -56.5 -47.5t-96 -29t-103.5 -25t-85 -46.5t-34 -83q0 -68 48 -103.5t137 -35.5q48 0 95.5 9t71.5 19zM86 297q0 78 30.5 136t80.5 91.5t111.5 56.5t126.5 38t121.5 29.5t101 37.5t61.5 55q0 140 -199 140q-67 0 -124 -12.5t-103.5 -38.5t-73 -72.5
t-26.5 -108.5q-78 106 -78 199q0 63 39 110.5t102.5 72.5t130 36.5t135.5 11.5q224 0 342.5 -91t118.5 -259v-749q-63 32 -158 32q-49 0 -155 -18.5t-166 -18.5q-84 0 -155 16.5t-132 52.5t-96 100.5t-35 152.5zM252 1245q-20 29 -22 70.5t12 78.5t47 63t76 26q54 0 184 -47
t192 -47q36 0 58.5 11.5t42.5 41.5q19 -33 22 -74.5t-9 -78.5t-45 -62t-81 -25q-56 0 -185.5 47t-189.5 47q-39 0 -60.5 -11.5t-41.5 -39.5z" />
    <glyph glyph-name="adieresis" unicode="&#xe4;" horiz-adv-x="1093" 
d="M725 199v333q-13 -29 -56.5 -47.5t-96 -29t-103.5 -25t-85 -46.5t-34 -83q0 -68 48 -103.5t137 -35.5q48 0 95.5 9t71.5 19zM86 297q0 78 30.5 136t80.5 91.5t111.5 56.5t126.5 38t121.5 29.5t101 37.5t61.5 55q0 140 -199 140q-67 0 -124 -12.5t-103.5 -38.5t-73 -72.5
t-26.5 -108.5q-78 106 -78 199q0 63 39 110.5t102.5 72.5t130 36.5t135.5 11.5q224 0 342.5 -91t118.5 -259v-749q-63 32 -158 32q-49 0 -155 -18.5t-166 -18.5q-84 0 -155 16.5t-132 52.5t-96 100.5t-35 152.5zM609 1278v172h163q30 0 51 -19t21 -40v-170h-164
q-32 0 -51.5 17t-19.5 40zM242 1278v172h164q30 0 51 -19t21 -40v-170h-164q-32 0 -52 17t-20 40z" />
    <glyph glyph-name="aring" unicode="&#xe5;" horiz-adv-x="1093" 
d="M725 199v333q-13 -29 -56.5 -47.5t-96 -29t-103.5 -25t-85 -46.5t-34 -83q0 -68 48 -103.5t137 -35.5q48 0 95.5 9t71.5 19zM86 297q0 78 30.5 136t80.5 91.5t111.5 56.5t126.5 38t121.5 29.5t101 37.5t61.5 55q0 140 -199 140q-67 0 -124 -12.5t-103.5 -38.5t-73 -72.5
t-26.5 -108.5q-78 106 -78 199q0 63 39 110.5t102.5 72.5t130 36.5t135.5 11.5q224 0 342.5 -91t118.5 -259v-749q-63 32 -158 32q-49 0 -155 -18.5t-166 -18.5q-84 0 -155 16.5t-132 52.5t-96 100.5t-35 152.5zM612 1346v53q0 24 -15.5 36.5t-55.5 12.5q-41 0 -54.5 -12
t-13.5 -37v-53q0 -26 13.5 -37t54.5 -11t56 11.5t15 36.5zM752 1421v-98q0 -64 -56 -98.5t-153 -34.5q-96 0 -152.5 35t-56.5 98v98q0 62 57 98.5t152 36.5q96 0 152.5 -36t56.5 -99z" />
    <glyph glyph-name="ae" unicode="&#xe6;" horiz-adv-x="1699" 
d="M1212 -25q-89 0 -161 15t-110.5 36.5t-64.5 43t-34 36.5l-8 15q-3 -6 -10 -16t-35 -35t-62 -44t-94.5 -35t-130.5 -16q-66 0 -125 10t-114 33.5t-94.5 59.5t-63 92t-23.5 127q0 50 13.5 92t33 72.5t54.5 56.5t65.5 42t79 32t82 24.5t86.5 20.5q90 19 145.5 41.5
t73.5 62.5q0 138 -199 138q-91 0 -162 -22.5t-118.5 -78t-47.5 -137.5q-77 115 -77 207q0 63 39.5 110.5t103 72.5t130 36.5t134.5 11.5q215 0 334 -84q116 84 319 84q214 0 323.5 -91t109.5 -249q0 -55 -13 -102t-44 -91t-78.5 -75t-122 -49.5t-168.5 -18.5q-103 0 -193 37
v-73q0 -187 227 -187q152 0 246 58t96 151q64 -91 64 -168q0 -110 -114 -178t-292 -68zM530 168q50 0 87.5 16t56 37t29.5 50t13.5 47.5t2.5 37.5v154q-20 -22 -66.5 -38.5t-96.5 -28.5t-98 -28t-79 -46t-31 -74q0 -127 182 -127zM985 688v-59q95 -19 154 -19
q106 0 152 32.5t46 96.5q0 146 -174 146q-99 0 -138.5 -48.5t-39.5 -148.5z" />
    <glyph glyph-name="ccedilla" unicode="&#xe7;" horiz-adv-x="1042" 
d="M420 -211q8 37 20 74l43 119q-179 19 -279 111t-100 243v383q0 168 122 264t341 96q65 0 129 -12t124.5 -37.5t98 -73.5t37.5 -112q0 -88 -79 -203q0 116 -78 177t-185 61q-121 0 -183 -46t-62 -167v-277q0 -110 58 -160.5t181 -50.5q134 0 222.5 59t89.5 150
q63 -92 63 -168q0 -101 -97.5 -166t-254.5 -76l-6 -53l41 -4q88 -9 139 -61t51 -138q0 -91 -71 -145.5t-167 -54.5q-57 0 -98.5 19.5t-60.5 48t-27 51t-8 38.5q15 -8 52 -17t77 -9q46 0 78.5 20.5t32.5 61.5q0 78 -125 78q-28 0 -57.5 -6t-45.5 -12z" />
    <glyph glyph-name="egrave" unicode="&#xe8;" horiz-adv-x="1083" 
d="M369 688v-59q95 -19 153 -19q106 0 152.5 32.5t46.5 96.5q0 146 -174 146q-99 0 -138.5 -48.5t-39.5 -148.5zM596 -25q-233 0 -363.5 96t-130.5 265v383q0 170 117.5 265t335.5 95q214 0 323 -90.5t109 -249.5q0 -55 -13 -102t-44 -91t-78.5 -75t-122 -49.5t-168.5 -18.5
q-102 0 -192 37v-73q0 -187 227 -187q152 0 246 58t96 151q63 -89 63 -168q0 -110 -113.5 -178t-291.5 -68zM496 1602q-26 -42 0 -87.5t104 -123.5l68 -68q25 -27 21.5 -49t-26.5 -39t-50 -28t-49 -17l-21 -6l-121 90q-59 44 -84.5 98.5t-16 101t55 82.5t119.5 46z" />
    <glyph glyph-name="eacute" unicode="&#xe9;" horiz-adv-x="1083" 
d="M369 688v-59q95 -19 153 -19q106 0 152.5 32.5t46.5 96.5q0 146 -174 146q-99 0 -138.5 -48.5t-39.5 -148.5zM596 -25q-233 0 -363.5 96t-130.5 265v383q0 170 117.5 265t335.5 95q214 0 323 -90.5t109 -249.5q0 -55 -13 -102t-44 -91t-78.5 -75t-122 -49.5t-168.5 -18.5
q-102 0 -192 37v-73q0 -187 227 -187q152 0 246 58t96 151q63 -89 63 -168q0 -110 -113.5 -178t-291.5 -68zM608 1602q74 -10 119.5 -46t55 -82.5t-16 -101t-84.5 -98.5l-121 -90l-56 17q-118 45 -84 104q6 9 15 18l68 68q78 78 104 123.5t0 87.5z" />
    <glyph glyph-name="ecircumflex" unicode="&#xea;" horiz-adv-x="1083" 
d="M369 688v-59q95 -19 153 -19q106 0 152.5 32.5t46.5 96.5q0 146 -174 146q-99 0 -138.5 -48.5t-39.5 -148.5zM596 -25q-233 0 -363.5 96t-130.5 265v383q0 170 117.5 265t335.5 95q214 0 323 -90.5t109 -249.5q0 -55 -13 -102t-44 -91t-78.5 -75t-122 -49.5t-168.5 -18.5
q-102 0 -192 37v-73q0 -187 227 -187q152 0 246 58t96 151q63 -89 63 -168q0 -110 -113.5 -178t-291.5 -68zM684 1190q17 28 10 58t-30 60t-47.5 53.5t-43.5 38.5l-20 15q-2 -2 -6.5 -5t-16.5 -12.5t-23.5 -20t-26.5 -25.5t-26.5 -29.5t-22 -32t-15 -34t-3 -34t10.5 -32.5
q-57 21 -95.5 41.5t-56 43t-23.5 42.5t10.5 47t37 49.5t65.5 56.5t85 61.5t106 70.5q66 -43 106.5 -70t85.5 -61t65.5 -56.5t37.5 -49.5t11.5 -47.5t-23 -43t-56 -43t-96.5 -41.5z" />
    <glyph glyph-name="edieresis" unicode="&#xeb;" horiz-adv-x="1083" 
d="M369 688v-59q95 -19 153 -19q106 0 152.5 32.5t46.5 96.5q0 146 -174 146q-99 0 -138.5 -48.5t-39.5 -148.5zM596 -25q-233 0 -363.5 96t-130.5 265v383q0 170 117.5 265t335.5 95q214 0 323 -90.5t109 -249.5q0 -55 -13 -102t-44 -91t-78.5 -75t-122 -49.5t-168.5 -18.5
q-102 0 -192 37v-73q0 -187 227 -187q152 0 246 58t96 151q63 -89 63 -168q0 -110 -113.5 -178t-291.5 -68zM618 1278v172h164q30 0 51 -19t21 -40v-170h-164q-32 0 -52 17t-20 40zM252 1278v172h164q30 0 50.5 -19t20.5 -40v-170h-163q-32 0 -52 17t-20 40z" />
    <glyph glyph-name="igrave" unicode="&#xec;" horiz-adv-x="512" 
d="M123 119v950q15 0 35 -1t64.5 -8.5t78.5 -20t61 -39.5t27 -64v-950q-11 0 -29 1t-63.5 8t-81 19.5t-64 40t-28.5 64.5zM199 1602q-26 -42 0 -87.5t104 -123.5l68 -68q25 -27 21.5 -49t-26.5 -39t-50 -28t-49 -17l-21 -6l-121 90q-59 44 -84.5 98.5t-16 101t55 82.5
t119.5 46z" />
    <glyph glyph-name="iacute" unicode="&#xed;" horiz-adv-x="512" 
d="M123 119v950q15 0 35 -1t64.5 -8.5t78.5 -20t61 -39.5t27 -64v-950q-11 0 -29 1t-63.5 8t-81 19.5t-64 40t-28.5 64.5zM311 1602q74 -10 119.5 -46t55 -82.5t-16 -101t-84.5 -98.5l-121 -90l-56 17q-118 45 -84 104q6 9 15 18l68 68q78 78 104 123.5t0 87.5z" />
    <glyph glyph-name="icircumflex" unicode="&#xee;" horiz-adv-x="512" 
d="M123 119v950q15 0 35 -1t64.5 -8.5t78.5 -20t61 -39.5t27 -64v-950q-11 0 -29 1t-63.5 8t-81 19.5t-64 40t-28.5 64.5zM387 1190q17 28 10 58t-30 60t-47.5 53.5t-43.5 38.5l-20 15q-2 -2 -6.5 -5t-16.5 -12.5t-23.5 -20t-26.5 -25.5t-26.5 -29.5t-22 -32t-15 -34t-3 -34
t10.5 -32.5q-57 21 -95.5 41.5t-56 43t-23.5 42.5t10.5 47t37 49.5t65.5 56.5t85 61.5t106 70.5q66 -43 106.5 -70t85.5 -61t65.5 -56.5t37.5 -49.5t11.5 -47.5t-23 -43t-56 -43t-96.5 -41.5z" />
    <glyph glyph-name="idieresis" unicode="&#xef;" horiz-adv-x="512" 
d="M123 119v950q15 0 35 -1t64.5 -8.5t78.5 -20t61 -39.5t27 -64v-950q-11 0 -29 1t-63.5 8t-81 19.5t-64 40t-28.5 64.5zM322 1278v172h163q30 0 51 -19t21 -40v-170h-164q-32 0 -51.5 17t-19.5 40zM-45 1278v172h164q30 0 50.5 -19t20.5 -40v-170h-163q-32 0 -52 17
t-20 40z" />
    <glyph glyph-name="eth" unicode="&#xf0;" horiz-adv-x="1193" 
d="M102 336v383q0 167 122 263.5t349 96.5q78 0 146 -17.5t86 -33.5q-33 125 -125 223l-250 -104q-74 134 2 168l109 45q-135 77 -273 74q13 72 60 109.5t110 37.5q179 0 338 -121l248 105q9 -19 13 -27.5t12.5 -29.5t9.5 -34.5t0.5 -30.5t-10.5 -29t-27 -19l-127 -54
q93 -117 145 -270t52 -326v-409q0 -172 -124 -266.5t-370 -94.5q-248 0 -372 94t-124 267zM369 367q0 -50 9.5 -84.5t33.5 -61.5t70 -40t116 -13q69 0 114.5 13t69.5 40t33.5 61.5t9.5 84.5v358q0 74 -63 117t-172 43q-68 0 -112 -12.5t-67.5 -39.5t-32.5 -61t-9 -84v-321z
" />
    <glyph glyph-name="ntilde" unicode="&#xf1;" horiz-adv-x="1169" 
d="M780 119v592q0 85 -45.5 127.5t-150.5 42.5q-46 0 -95 -7.5t-75 -14.5l-25 -7v-866q-11 0 -29 1t-63.5 8t-81 19.5t-64 40t-28.5 64.5v960q80 -43 184 -43q49 0 148.5 21.5t156.5 21.5q67 0 126.5 -9.5t117.5 -33.5t99 -61t66.5 -97t25.5 -137v-755q-6 0 -15.5 0.5
t-37 3.5t-53 7.5t-56 15t-53 24t-37.5 35t-15 47.5zM287 1245q-20 30 -22 71t11.5 78t46.5 63t76 26q54 0 184.5 -47t192.5 -47q36 0 57.5 11.5t42.5 41.5q19 -33 22 -74.5t-8.5 -78.5t-44.5 -62t-81 -25q-56 0 -185.5 47t-189.5 47q-39 0 -60.5 -11.5t-41.5 -39.5z" />
    <glyph glyph-name="ograve" unicode="&#xf2;" horiz-adv-x="1191" 
d="M1090 719v-383q0 -173 -123.5 -267t-370.5 -94t-370.5 94t-123.5 267v383q0 173 123.5 266.5t370.5 93.5t370.5 -93.5t123.5 -266.5zM823 367v321q0 102 -47 149.5t-180 47.5t-180 -47.5t-47 -149.5v-321q0 -102 47 -149.5t180 -47.5t180 47.5t47 149.5zM539 1602
q-26 -42 0 -87.5t104 -123.5l68 -68q25 -27 21.5 -49t-26.5 -39t-50 -28t-49 -17l-21 -6l-121 90q-59 44 -84.5 98.5t-16 101t55 82.5t119.5 46z" />
    <glyph glyph-name="oacute" unicode="&#xf3;" horiz-adv-x="1191" 
d="M1090 719v-383q0 -173 -123.5 -267t-370.5 -94t-370.5 94t-123.5 267v383q0 173 123.5 266.5t370.5 93.5t370.5 -93.5t123.5 -266.5zM823 367v321q0 102 -47 149.5t-180 47.5t-180 -47.5t-47 -149.5v-321q0 -102 47 -149.5t180 -47.5t180 47.5t47 149.5zM651 1602
q74 -10 119.5 -46t55 -82.5t-16 -101t-84.5 -98.5l-121 -90l-56 17q-118 45 -84 104q6 9 15 18l68 68q78 78 104 123.5t0 87.5z" />
    <glyph glyph-name="ocircumflex" unicode="&#xf4;" horiz-adv-x="1191" 
d="M1090 719v-383q0 -173 -123.5 -267t-370.5 -94t-370.5 94t-123.5 267v383q0 173 123.5 266.5t370.5 93.5t370.5 -93.5t123.5 -266.5zM823 367v321q0 102 -47 149.5t-180 47.5t-180 -47.5t-47 -149.5v-321q0 -102 47 -149.5t180 -47.5t180 47.5t47 149.5zM727 1190
q17 28 10 58t-30 60t-47.5 53.5t-43.5 38.5l-20 15q-2 -2 -6.5 -5t-16.5 -12.5t-23.5 -20t-26.5 -25.5t-26.5 -29.5t-22 -32t-15 -34t-3 -34t10.5 -32.5q-57 21 -95.5 41.5t-56 43t-23.5 42.5t10.5 47t37 49.5t65.5 56.5t85 61.5t106 70.5q66 -43 106.5 -70t85.5 -61
t65.5 -56.5t37.5 -49.5t11.5 -47.5t-23 -43t-56 -43t-96.5 -41.5z" />
    <glyph glyph-name="otilde" unicode="&#xf5;" horiz-adv-x="1191" 
d="M1090 719v-383q0 -173 -123.5 -267t-370.5 -94t-370.5 94t-123.5 267v383q0 173 123.5 266.5t370.5 93.5t370.5 -93.5t123.5 -266.5zM823 367v321q0 102 -47 149.5t-180 47.5t-180 -47.5t-47 -149.5v-321q0 -102 47 -149.5t180 -47.5t180 47.5t47 149.5zM305 1245
q-20 29 -22 70.5t12 78.5t47 63t76 26q54 0 184.5 -47t192.5 -47q36 0 57.5 11.5t42.5 41.5q19 -33 22 -74.5t-9 -78.5t-45 -62t-81 -25q-56 0 -185 47t-189 47q-39 0 -61 -11.5t-42 -39.5z" />
    <glyph glyph-name="odieresis" unicode="&#xf6;" horiz-adv-x="1191" 
d="M1090 719v-383q0 -173 -123.5 -267t-370.5 -94t-370.5 94t-123.5 267v383q0 173 123.5 266.5t370.5 93.5t370.5 -93.5t123.5 -266.5zM823 367v321q0 102 -47 149.5t-180 47.5t-180 -47.5t-47 -149.5v-321q0 -102 47 -149.5t180 -47.5t180 47.5t47 149.5zM662 1278v172
h163q30 0 51 -19t21 -40v-170h-164q-32 0 -51.5 17t-19.5 40zM295 1278v172h164q30 0 51 -19t21 -40v-170h-164q-32 0 -52 17t-20 40z" />
    <glyph glyph-name="divide" unicode="&#xf7;" horiz-adv-x="1067" 
d="M420 109v192h168q32 0 56 -19.5t24 -43.5v-193h-166q-34 0 -58 19t-24 45zM420 807v192h168q32 0 56 -19.5t24 -43.5v-193h-166q-34 0 -58 19t-24 45zM246 629h690q1 -4 2.5 -11.5t3 -29.5t0.5 -41.5t-8 -44t-19.5 -41.5t-36.5 -29t-57 -12h-692q-1 4 -2 11.5t-2.5 29.5
t0 41.5t8.5 44t19.5 41.5t36.5 29t57 12z" />
    <glyph glyph-name="oslash" unicode="&#xf8;" horiz-adv-x="1191" 
d="M1090 719v-383q0 -173 -123.5 -267t-370.5 -94q-249 0 -375 99l-108 -105q-5 3 -12.5 9t-23.5 25t-23.5 38t-2 45.5t30.5 50.5l49 47q-29 73 -29 152v383q0 173 123.5 266.5t370.5 93.5q240 0 365 -90l108 107q5 -4 12.5 -11t23 -28t23 -42t1.5 -49t-31 -53l-41 -39
q33 -65 33 -155zM823 367v282l-428 -409q48 -70 201 -70q133 0 180 47.5t47 149.5zM369 688v-274l419 409q-49 62 -192 62q-133 0 -180 -47.5t-47 -149.5z" />
    <glyph glyph-name="ugrave" unicode="&#xf9;" horiz-adv-x="1169" 
d="M389 936v-592q0 -85 46 -127.5t151 -42.5q46 0 94.5 7t73.5 15l26 7v866q6 0 15.5 -0.5t37 -3t53 -7t56 -14.5t53 -23.5t37.5 -35.5t15 -49v-961q-81 43 -185 43q-49 0 -148.5 -21.5t-156.5 -21.5q-67 0 -126.5 9.5t-117 33.5t-98.5 61t-66.5 97t-25.5 137v756
q11 0 29 -1t63.5 -9t81 -20.5t64 -39.5t28.5 -63zM521 1602q-26 -42 0 -87.5t104 -123.5l68 -68q25 -27 21.5 -49t-26.5 -39t-50 -28t-49 -17l-21 -6l-121 90q-59 44 -84.5 98.5t-16 101t55 82.5t119.5 46z" />
    <glyph glyph-name="uacute" unicode="&#xfa;" horiz-adv-x="1169" 
d="M389 936v-592q0 -85 46 -127.5t151 -42.5q46 0 94.5 7t73.5 15l26 7v866q6 0 15.5 -0.5t37 -3t53 -7t56 -14.5t53 -23.5t37.5 -35.5t15 -49v-961q-81 43 -185 43q-49 0 -148.5 -21.5t-156.5 -21.5q-67 0 -126.5 9.5t-117 33.5t-98.5 61t-66.5 97t-25.5 137v756
q11 0 29 -1t63.5 -9t81 -20.5t64 -39.5t28.5 -63zM633 1602q74 -10 119.5 -46t55 -82.5t-16 -101t-84.5 -98.5l-121 -90l-56 17q-118 45 -84 104q6 9 15 18l67 68q79 79 105 124t0 87z" />
    <glyph glyph-name="ucircumflex" unicode="&#xfb;" horiz-adv-x="1169" 
d="M389 936v-592q0 -85 46 -127.5t151 -42.5q46 0 94.5 7t73.5 15l26 7v866q6 0 15.5 -0.5t37 -3t53 -7t56 -14.5t53 -23.5t37.5 -35.5t15 -49v-961q-81 43 -185 43q-49 0 -148.5 -21.5t-156.5 -21.5q-67 0 -126.5 9.5t-117 33.5t-98.5 61t-66.5 97t-25.5 137v756
q11 0 29 -1t63.5 -9t81 -20.5t64 -39.5t28.5 -63zM708 1190q17 28 10 58t-30 60t-47.5 53.5t-43.5 38.5l-20 15q-2 -2 -6.5 -5t-16.5 -12.5t-23.5 -20t-26.5 -25.5t-26.5 -29.5t-22 -32t-15 -34t-3 -34t10.5 -32.5q-57 21 -95.5 41.5t-56 43t-23.5 42.5t10.5 47t37 49.5
t65.5 56.5t85 61.5t106 70.5q66 -43 106.5 -70t85.5 -61t65.5 -56.5t37.5 -49.5t11.5 -47.5t-23 -43t-56 -43t-96.5 -41.5z" />
    <glyph glyph-name="udieresis" unicode="&#xfc;" horiz-adv-x="1169" 
d="M389 936v-592q0 -85 46 -127.5t151 -42.5q46 0 94.5 7t73.5 15l26 7v866q6 0 15.5 -0.5t37 -3t53 -7t56 -14.5t53 -23.5t37.5 -35.5t15 -49v-961q-81 43 -185 43q-49 0 -148.5 -21.5t-156.5 -21.5q-67 0 -126.5 9.5t-117 33.5t-98.5 61t-66.5 97t-25.5 137v756
q11 0 29 -1t63.5 -9t81 -20.5t64 -39.5t28.5 -63zM643 1278v172h164q30 0 51 -19t21 -40v-170h-164q-32 0 -52 17t-20 40zM276 1278v172h164q30 0 51 -19t21 -40v-170h-164q-32 0 -52 17t-20 40z" />
    <glyph glyph-name="yacute" unicode="&#xfd;" horiz-adv-x="1091" 
d="M63 1069q10 0 27 -0.5t61.5 -9t80 -24t67.5 -50t39 -82.5l41 -276q10 -71 32.5 -133.5t46 -100.5t46.5 -66t37 -39.5t16 -11.5l7 6q8 7 22 21t30.5 34t35 49.5t35 64t30 80.5t20.5 96l37 274q6 46 37.5 80.5t71 50.5t78.5 25.5t65 10.5l27 1l-45 -405q-11 -96 -45.5 -187
t-82.5 -162.5t-97 -125t-99 -91.5l-80 -61q-59 -46 -93.5 -76.5t-70.5 -72t-52.5 -85t-16.5 -92.5q0 -83 43 -178q-56 -29 -109 -29q-79 0 -133.5 58t-54.5 172q0 67 21 124.5t65.5 108.5t86.5 87t111 87q-103 62 -188 207t-104 316zM613 1602q98 -13 144.5 -68.5t27 -128
t-98.5 -131.5l-121 -90l-55 17q-118 45 -84 104q6 9 15 18l67 68q79 79 105 124t0 87z" />
    <glyph glyph-name="thorn" unicode="&#xfe;" horiz-adv-x="1148" 
d="M123 -352v1917q186 0 244 -82q22 -31 22 -72v-289q0 -23 -3 -52.5t-6 -47.5l-3 -18q3 3 10 8t30.5 18t51 23t73 18t95.5 8q171 0 290.5 -97t119.5 -257v-395q0 -160 -119.5 -257.5t-290.5 -97.5q-51 0 -96.5 8t-74 20t-50 24t-30.5 20l-9 8q12 -86 12 -123v-438h-21.5
t-38.5 3t-53 8t-53.5 16.5t-50.5 27t-34.5 41.5t-14.5 58zM389 715v-375q0 -73 67 -121.5t154 -48.5q78 0 124 47t46 143v334q0 96 -46.5 143.5t-123.5 47.5q-87 0 -154 -48.5t-67 -121.5z" />
    <glyph glyph-name="ydieresis" unicode="&#xff;" horiz-adv-x="1091" 
d="M63 1069q10 0 27 -0.5t61.5 -9t80 -24t67.5 -50t39 -82.5l41 -276q10 -71 32.5 -133.5t46 -100.5t46.5 -66t37 -39.5t16 -11.5l7 6q8 7 22 21t30.5 34t35 49.5t35 64t30 80.5t20.5 96l37 274q6 46 37.5 80.5t71 50.5t78.5 25.5t65 10.5l27 1l-45 -405q-11 -96 -45.5 -187
t-82.5 -162.5t-97 -125t-99 -91.5l-80 -61q-59 -46 -93.5 -76.5t-70.5 -72t-52.5 -85t-16.5 -92.5q0 -83 43 -178q-56 -29 -109 -29q-79 0 -133.5 58t-54.5 172q0 67 21 124.5t65.5 108.5t86.5 87t111 87q-103 62 -188 207t-104 316zM623 1278v172h163q30 0 51 -19t21 -40
v-170h-164q-32 0 -51.5 17t-19.5 40zM256 1278v172h164q30 0 51 -19t21 -40v-170h-164q-32 0 -52 17t-20 40z" />
    <glyph glyph-name="Amacron" unicode="&#x100;" horiz-adv-x="1396" 
d="M698 1511q15 -9 40.5 -31.5t73.5 -76.5t94 -120.5t98.5 -172.5t91.5 -225l174 -539q73 -230 100 -289q14 -29 27 -49q-68 -22 -115 -22q-54 0 -97.5 20t-68.5 41t-52 73.5t-36 76.5t-31 91q-4 11 -6 17l-35 109h-516l-34 -109q-45 -137 -73 -187q-71 -126 -204 -132h-14
q-21 0 -49.5 5.5t-47.5 10.5l-18 6q38 56 115 300q8 25 12 38l174 539q39 119 91.5 225t98.5 172.5t93.5 120.5t73 76.5t40.5 31.5zM698 1178q-59 -92 -135 -347l-63 -213h397l-63 213q-23 76 -57 163t-57 136zM498 1794h516q1 -4 2.5 -10.5t3 -25t0.5 -35.5t-8 -38
t-19.5 -36t-36.5 -25t-57 -10h-518q-1 4 -2 10.5t-2.5 25t0 35.5t8.5 38t19.5 36t36.5 25t57 10z" />
    <glyph glyph-name="amacron" unicode="&#x101;" horiz-adv-x="1093" 
d="M725 199v333q-13 -29 -56.5 -47.5t-96 -29t-103.5 -25t-85 -46.5t-34 -83q0 -68 48 -103.5t137 -35.5q48 0 95.5 9t71.5 19zM86 297q0 78 30.5 136t80.5 91.5t111.5 56.5t126.5 38t121.5 29.5t101 37.5t61.5 55q0 140 -199 140q-67 0 -124 -12.5t-103.5 -38.5t-73 -72.5
t-26.5 -108.5q-78 106 -78 199q0 63 39 110.5t102.5 72.5t130 36.5t135.5 11.5q224 0 342.5 -91t118.5 -259v-749q-63 32 -158 32q-49 0 -155 -18.5t-166 -18.5q-84 0 -155 16.5t-132 52.5t-96 100.5t-35 152.5zM342 1417h516q1 -4 2.5 -10.5t3 -25t0.5 -35.5t-8 -38
t-19.5 -36t-36.5 -25t-57 -10h-518q-1 4 -2 10.5t-2.5 25t0 35.5t8.5 38t19.5 36t36.5 25t57 10z" />
    <glyph glyph-name="Abreve" unicode="&#x102;" horiz-adv-x="1396" 
d="M698 1511q15 -9 40.5 -31.5t73.5 -76.5t94 -120.5t98.5 -172.5t91.5 -225l174 -539q73 -230 100 -289q14 -29 27 -49q-68 -22 -115 -22q-54 0 -97.5 20t-68.5 41t-52 73.5t-36 76.5t-31 91q-4 11 -6 17l-35 109h-516l-34 -109q-45 -137 -73 -187q-71 -126 -204 -132h-14
q-21 0 -49.5 5.5t-47.5 10.5l-18 6q38 56 115 300q8 25 12 38l174 539q39 119 91.5 225t98.5 172.5t93.5 120.5t73 76.5t40.5 31.5zM698 1178q-59 -92 -135 -347l-63 -213h397l-63 213q-23 76 -57 163t-57 136zM699 1741q83 0 131.5 43.5t48.5 112.5q0 35 -16 75
q67 -21 102 -69t35 -107q0 -89 -80 -158t-219 -69q-143 0 -224 68t-81 159q0 59 35 107t102 69q-16 -40 -16 -75q0 -69 49 -112.5t133 -43.5z" />
    <glyph glyph-name="abreve" unicode="&#x103;" horiz-adv-x="1093" 
d="M725 199v333q-13 -29 -56.5 -47.5t-96 -29t-103.5 -25t-85 -46.5t-34 -83q0 -68 48 -103.5t137 -35.5q48 0 95.5 9t71.5 19zM86 297q0 78 30.5 136t80.5 91.5t111.5 56.5t126.5 38t121.5 29.5t101 37.5t61.5 55q0 140 -199 140q-67 0 -124 -12.5t-103.5 -38.5t-73 -72.5
t-26.5 -108.5q-78 106 -78 199q0 63 39 110.5t102.5 72.5t130 36.5t135.5 11.5q224 0 342.5 -91t118.5 -259v-749q-63 32 -158 32q-49 0 -155 -18.5t-166 -18.5q-84 0 -155 16.5t-132 52.5t-96 100.5t-35 152.5zM543 1364q83 0 131.5 43.5t48.5 112.5q0 35 -16 75
q67 -21 102 -69t35 -107q0 -89 -80 -158t-219 -69q-143 0 -224 68t-81 159q0 59 35 107t102 69q-17 -43 -17 -75q0 -69 49 -112.5t134 -43.5z" />
    <glyph glyph-name="Aogonek" unicode="&#x104;" horiz-adv-x="1396" 
d="M1397 8q2 2 -29.5 -9.5t-75 -32.5t-88 -49.5t-75.5 -68.5t-31 -81q0 -36 24.5 -58t63.5 -22q36 0 79.5 12t49.5 18v-3q-21 -116 -105 -168q-53 -31 -123 -31q-113 0 -174 61t-61 145q0 60 27 112.5t72 90.5t89.5 64t94.5 45q-28 21 -50 50t-40 72.5t-27 68.5t-27 81
l-35 109h-516l-34 -109q-14 -45 -21.5 -67.5t-24 -62.5t-30 -61.5t-36.5 -49.5t-47 -42.5t-58 -25t-74 -10.5q-21 0 -49.5 5.5t-47.5 10.5l-18 6q38 56 115 300q8 25 12 38l174 539q38 119 90 224.5t98.5 172.5t93.5 120.5t73.5 76.5t41.5 32q15 -9 40.5 -31.5t73.5 -76.5
t94 -120.5t98.5 -172.5t91.5 -225l174 -539q73 -230 100 -289q14 -29 27 -49zM698 1178q-59 -92 -135 -347l-63 -213h397l-63 213q-23 76 -57 163t-57 136z" />
    <glyph glyph-name="aogonek" unicode="&#x105;" horiz-adv-x="1093" 
d="M516 879q-91 0 -162 -22.5t-118.5 -78t-47.5 -137.5q-77 115 -77 207q0 63 39.5 110.5t103 72.5t130 36.5t134.5 11.5q226 0 344.5 -90t118.5 -260v-676q-9 -5 -24 -15t-54 -41.5t-68.5 -63.5t-54 -77.5t-24.5 -88.5q0 -36 24.5 -58t63.5 -22q36 0 79.5 12t49.5 18
q0 -78 -72 -141t-162 -63q-92 0 -160.5 59t-68.5 160q0 159 205 270q-16 -2 -63 -10.5t-81.5 -12.5t-68.5 -4q-66 0 -125 10t-114 33.5t-94.5 59.5t-63 92t-23.5 127q0 50 13.5 92t33 72.5t54.5 56.5t65.5 42t79 32t82 24.5t86.5 20.5q90 19 145.5 41.5t73.5 62.5
q0 138 -199 138zM721 197v315q-19 -22 -65.5 -39t-97 -29t-99 -28t-80 -46.5t-31.5 -74.5q0 -127 182 -127q41 0 88.5 7t75.5 15z" />
    <glyph glyph-name="Cacute" unicode="&#x106;" horiz-adv-x="1413" 
d="M750 1276q-353 0 -353 -320v-446q0 -324 353 -324q425 0 501 246q39 -69 49 -129t-6.5 -106t-54 -83.5t-90.5 -63t-118.5 -42.5t-135.5 -25t-145 -8q-102 0 -191.5 16.5t-170.5 54t-139 94.5t-92 143.5t-34 195.5v506q0 109 34 195.5t92 143.5t139 94.5t170.5 54
t191.5 16.5q107 0 203 -14.5t179 -48.5t130.5 -85t48 -130.5t-59.5 -178.5q-15 54 -53 97t-88 70t-112.5 45t-123.5 25t-124 7zM795 1979q98 -13 144.5 -68.5t27 -128t-98.5 -131.5l-121 -90l-55 17q-118 45 -84 104q6 9 15 18l67 68q79 79 105 124t0 87z" />
    <glyph glyph-name="cacute" unicode="&#x107;" horiz-adv-x="1042" 
d="M918 387q63 -92 63 -168q0 -111 -114 -177.5t-292 -66.5q-219 0 -346 96t-127 265v383q0 168 122 264t341 96q65 0 129 -12t124.5 -37.5t98 -73.5t37.5 -112q0 -87 -80 -203q0 116 -77.5 177t-184.5 61q-121 0 -183 -46t-62 -167v-277q0 -110 58 -160.5t181 -50.5
q134 0 222.5 59t89.5 150zM612 1602q74 -10 119.5 -46t55 -82.5t-16 -101t-84.5 -98.5l-121 -90l-56 17q-118 45 -84 104q6 9 15 18l68 68q78 78 104 123.5t0 87.5z" />
    <glyph glyph-name="Ccircumflex" unicode="&#x108;" horiz-adv-x="1413" 
d="M750 1276q-353 0 -353 -320v-446q0 -324 353 -324q425 0 501 246q39 -69 49 -129t-6.5 -106t-54 -83.5t-90.5 -63t-118.5 -42.5t-135.5 -25t-145 -8q-102 0 -191.5 16.5t-170.5 54t-139 94.5t-92 143.5t-34 195.5v506q0 109 34 195.5t92 143.5t139 94.5t170.5 54
t191.5 16.5q107 0 203 -14.5t179 -48.5t130.5 -85t48 -130.5t-59.5 -178.5q-15 54 -53 97t-88 70t-112.5 45t-123.5 25t-124 7zM870 1567q17 28 10 58t-30 60t-47.5 53.5t-43.5 38.5l-20 15q-2 -2 -6.5 -5t-16.5 -12.5t-23.5 -20t-26.5 -25.5t-26.5 -29.5t-22 -32t-15 -34
t-3 -34t10.5 -32.5q-57 21 -95.5 41.5t-56 43t-23.5 42.5t10.5 47t37 49.5t65.5 56.5t85 61.5t106 70.5q66 -43 106.5 -70t85.5 -61t65.5 -56.5t37.5 -49.5t11.5 -47.5t-23 -43t-56 -43t-96.5 -41.5z" />
    <glyph glyph-name="ccircumflex" unicode="&#x109;" horiz-adv-x="1042" 
d="M918 387q63 -92 63 -168q0 -111 -114 -177.5t-292 -66.5q-219 0 -346 96t-127 265v383q0 168 122 264t341 96q65 0 129 -12t124.5 -37.5t98 -73.5t37.5 -112q0 -87 -80 -203q0 116 -77.5 177t-184.5 61q-121 0 -183 -46t-62 -167v-277q0 -110 58 -160.5t181 -50.5
q134 0 222.5 59t89.5 150zM688 1190q17 28 10 58t-30 60t-47.5 53.5t-44.5 38.5l-19 15q-2 -2 -6.5 -5t-16.5 -12.5t-23.5 -20t-26.5 -25.5t-26.5 -29.5t-22 -32t-15 -34t-3 -34t10.5 -32.5q-57 21 -95.5 41.5t-56 43t-23.5 42.5t10.5 47t37 49.5t65.5 56.5t85 61.5
t106 70.5q66 -43 106.5 -70t85.5 -61t65.5 -56.5t37.5 -49.5t11.5 -47.5t-23 -43t-56 -43t-96.5 -41.5z" />
    <glyph glyph-name="Ccaron" unicode="&#x10c;" horiz-adv-x="1413" 
d="M750 1276q-353 0 -353 -320v-446q0 -324 353 -324q425 0 501 246q39 -69 49 -129t-6.5 -106t-54 -83.5t-90.5 -63t-118.5 -42.5t-135.5 -25t-145 -8q-102 0 -191.5 16.5t-170.5 54t-139 94.5t-92 143.5t-34 195.5v506q0 109 34 195.5t92 143.5t139 94.5t170.5 54
t191.5 16.5q107 0 203 -14.5t179 -48.5t130.5 -85t48 -130.5t-59.5 -178.5q-15 54 -53 97t-88 70t-112.5 45t-123.5 25t-124 7zM607 1979q-17 -28 -10 -58t30 -60t47.5 -54t43.5 -39l20 -15q2 2 6.5 5t16.5 13t23.5 20t26.5 25t26.5 30t22 32.5t15 34t3 34t-10.5 32.5
q56 -21 94 -40.5t55 -42.5t25 -41.5t-8.5 -46t-31 -47.5t-56 -55t-72 -59t-89.5 -68q-11 -8 -16 -12h-61q-165 123 -212 169q-85 84 -53 141q30 53 165 102z" />
    <glyph glyph-name="ccaron" unicode="&#x10d;" horiz-adv-x="1042" 
d="M918 387q63 -92 63 -168q0 -111 -114 -177.5t-292 -66.5q-219 0 -346 96t-127 265v383q0 168 122 264t341 96q65 0 129 -12t124.5 -37.5t98 -73.5t37.5 -112q0 -87 -80 -203q0 116 -77.5 177t-184.5 61q-121 0 -183 -46t-62 -167v-277q0 -110 58 -160.5t181 -50.5
q134 0 222.5 59t89.5 150zM424 1602q-17 -28 -10 -58t30 -60t47.5 -54t44.5 -39l19 -15q2 2 6.5 5t16.5 13t23.5 20t26.5 25t26.5 30t22 32.5t15 34t3 34t-10.5 32.5q167 -62 174 -131q5 -56 -99 -146q-43 -37 -173 -135h-62q-165 123 -212 169q-85 84 -53 141
q30 53 165 102z" />
    <glyph glyph-name="Dcaron" unicode="&#x10e;" horiz-adv-x="1497" 
d="M737 0h-375q-13 0 -31.5 1.5t-54 9t-63 20.5t-49 39.5t-21.5 62.5v1331h594q104 0 193 -14t172.5 -49.5t142 -91.5t94 -144.5t35.5 -203.5v-457q0 -115 -35.5 -204t-94 -144.5t-142 -91.5t-172.5 -50t-193 -14zM737 1262h-319v-1059h319q363 0 363 321v418
q0 320 -363 320zM584 1979q-17 -28 -10 -58t30 -60t47.5 -54t43.5 -39l20 -15q2 2 6.5 5t16.5 13t23.5 20t26.5 25t26.5 30t22 32.5t15 34t3 34t-10.5 32.5q56 -21 94 -40.5t55 -42.5t25 -41.5t-8.5 -46t-31 -47.5t-56 -55t-72 -59t-89.5 -68q-11 -8 -16 -12h-61
q-165 123 -212 169q-85 84 -53 141q30 53 165 102z" />
    <glyph glyph-name="dcaron" unicode="&#x10f;" horiz-adv-x="1499" 
d="M1192 1466h174q39 0 63.5 -19.5t24.5 -57.5v-5q0 -71 -8.5 -121.5t-29 -92t-59 -62.5t-95.5 -21q-76 0 -129 43q38 9 59.5 37.5t25 68t1.5 67.5t-7 55zM760 1118v443h21t39 -3t52.5 -8.5t54 -16.5t50.5 -27t34.5 -41.5t14.5 -57.5v-1432q-69 35 -164 35q-57 0 -158 -17.5
t-141 -17.5q-220 0 -340.5 93.5t-120.5 263.5v393q0 160 119.5 257t290.5 97q48 0 92.5 -8t74.5 -20t53 -24t34 -20l10 -8q-16 68 -16 119zM760 195v520q0 73 -67 121.5t-154 48.5q-77 0 -123.5 -47.5t-46.5 -143.5v-332q0 -101 48 -146.5t171 -45.5q41 0 84 6t66 12z" />
    <glyph glyph-name="Dcroat" unicode="&#x110;" horiz-adv-x="1497" 
d="M106 827h37v637h594q104 0 193 -14t172.5 -49.5t142 -91.5t94 -144.5t35.5 -203.5v-457q0 -115 -35.5 -204t-94 -144.5t-142 -91.5t-172.5 -50t-193 -14h-375q-13 0 -31.5 1.5t-54 9t-63 20.5t-49 39.5t-21.5 62.5v498h-139q-2 8 -3.5 21t-1 47t8.5 60t33 47t65 21z
M737 1262h-319v-435h332q2 -8 4 -21t1.5 -47t-8 -60t-32.5 -47t-66 -21h-231v-428h319q363 0 363 321v418q0 320 -363 320z" />
    <glyph glyph-name="dcroat" unicode="&#x111;" horiz-adv-x="1148" 
d="M688 1386h72v175q12 0 35 -2t65.5 -12.5t77.5 -27t61.5 -49.5t26.5 -77v-7h174q2 -7 4 -19.5t2 -43.5t-7.5 -54.5t-32.5 -43t-66 -19.5h-74v-1231q-69 35 -164 35q-57 0 -158 -17.5t-141 -17.5q-220 0 -340.5 93.5t-120.5 263.5v393q0 160 119.5 257t290.5 97
q48 0 92.5 -8t74.5 -20t53 -24t34 -20l10 -8q-16 68 -16 119v88h-174q-1 4 -2 10.5t-2.5 25t-0.5 35.5t7 38t17 36t32.5 25t50.5 10zM760 195v520q0 73 -67 121.5t-154 48.5q-77 0 -123.5 -47.5t-46.5 -143.5v-332q0 -101 48 -146.5t171 -45.5q41 0 84 6t66 12z" />
    <glyph glyph-name="Emacron" unicode="&#x112;" horiz-adv-x="1220" 
d="M872 680h-454v-477h731q0 -10 -1.5 -26t-10 -50t-23 -60t-46 -46.5t-73.5 -20.5h-628q-9 0 -24 1t-54 8t-68.5 19.5t-53.5 40t-24 64.5v1331h1006q0 -4 -0.5 -11.5t-3.5 -28.5t-8 -40t-16.5 -42t-27.5 -40t-41.5 -28.5t-56.5 -11.5h-577v-379h422q78 0 135 8t75 16l17 8
q0 -36 -4 -65.5t-16 -62.5t-32.5 -55.5t-57 -37t-85.5 -14.5zM467 1794h516q1 -4 2.5 -10.5t3 -25t0.5 -35.5t-8 -38t-19.5 -36t-36.5 -25t-57 -10h-518q-1 4 -2 10.5t-2.5 25t0 35.5t8.5 38t19.5 36t36.5 25t57 10z" />
    <glyph glyph-name="emacron" unicode="&#x113;" horiz-adv-x="1083" 
d="M369 688v-59q95 -19 153 -19q106 0 152.5 32.5t46.5 96.5q0 146 -174 146q-99 0 -138.5 -48.5t-39.5 -148.5zM596 -25q-233 0 -363.5 96t-130.5 265v383q0 170 117.5 265t335.5 95q214 0 323 -90.5t109 -249.5q0 -55 -13 -102t-44 -91t-78.5 -75t-122 -49.5t-168.5 -18.5
q-102 0 -192 37v-73q0 -187 227 -187q152 0 246 58t96 151q63 -89 63 -168q0 -110 -113.5 -178t-291.5 -68zM352 1417h516q1 -4 2.5 -10.5t3 -25t0.5 -35.5t-7.5 -38t-19 -36t-36.5 -25t-57 -10h-518q-1 4 -2 10.5t-2.5 25t-0.5 35.5t8 38t19.5 36t36.5 25t57 10z" />
    <glyph glyph-name="Edotaccent" unicode="&#x116;" horiz-adv-x="1220" 
d="M872 680h-454v-477h731q0 -10 -1.5 -26t-10 -50t-23 -60t-46 -46.5t-73.5 -20.5h-628q-9 0 -24 1t-54 8t-68.5 19.5t-53.5 40t-24 64.5v1331h1006q0 -4 -0.5 -11.5t-3.5 -28.5t-8 -40t-16.5 -42t-27.5 -40t-41.5 -28.5t-56.5 -11.5h-577v-379h422q78 0 135 8t75 16l17 8
q0 -36 -4 -65.5t-16 -62.5t-32.5 -55.5t-57 -37t-85.5 -14.5zM541 1655v170h180q25 0 50.5 -19t25.5 -40v-170h-180q-31 0 -53.5 18t-22.5 41z" />
    <glyph glyph-name="edotaccent" unicode="&#x117;" horiz-adv-x="1083" 
d="M369 688v-59q95 -19 153 -19q106 0 152.5 32.5t46.5 96.5q0 146 -174 146q-99 0 -138.5 -48.5t-39.5 -148.5zM596 -25q-233 0 -363.5 96t-130.5 265v383q0 170 117.5 265t335.5 95q214 0 323 -90.5t109 -249.5q0 -55 -13 -102t-44 -91t-78.5 -75t-122 -49.5t-168.5 -18.5
q-102 0 -192 37v-73q0 -187 227 -187q152 0 246 58t96 151q63 -89 63 -168q0 -110 -113.5 -178t-291.5 -68zM426 1278v170h180q25 0 50.5 -19t25.5 -40v-170h-180q-31 0 -53.5 18t-22.5 41z" />
    <glyph glyph-name="Eogonek" unicode="&#x118;" horiz-adv-x="1220" 
d="M872 680h-454v-477h731q-3 -58 -33.5 -107.5t-72 -85.5t-83 -71t-70 -79t-28.5 -93q0 -36 24.5 -58t63.5 -22q36 0 79.5 12t49.5 18q0 -78 -71.5 -141t-161.5 -63q-92 0 -161 59t-69 160q0 155 187 268h-436q-9 0 -24 1t-54 8t-68.5 19.5t-53.5 40t-24 64.5v1331h1006
q0 -4 -0.5 -11.5t-3.5 -28.5t-8 -40t-16.5 -42t-27.5 -40t-41.5 -28.5t-56.5 -11.5h-577v-379h422q78 0 135 8t75 16l17 8q0 -36 -4 -65.5t-16 -62.5t-32.5 -55.5t-57 -37t-85.5 -14.5z" />
    <glyph glyph-name="eogonek" unicode="&#x119;" horiz-adv-x="1083" 
d="M618 -23l-32 -2q-224 0 -354 96.5t-130 264.5v383q0 170 117.5 265t335.5 95q214 0 323 -90.5t109 -249.5q0 -55 -13 -102t-44 -91t-78.5 -75t-122 -49.5t-168.5 -18.5q-102 0 -192 37v-73q0 -187 227 -187q152 0 246 58t96 151q63 -89 63 -168q0 -49 -22.5 -93
t-56 -75.5t-73 -66t-73 -64.5t-56 -70.5t-22.5 -84.5q0 -36 24.5 -58t63.5 -22q36 0 79.5 12t49.5 18q0 -78 -71.5 -141t-161.5 -63q-92 0 -160.5 59t-68.5 160q0 73 47.5 137t117.5 108zM369 688v-59q95 -19 153 -19q106 0 152.5 32.5t46.5 96.5q0 146 -174 146
q-99 0 -138.5 -48.5t-39.5 -148.5z" />
    <glyph glyph-name="Ecaron" unicode="&#x11a;" horiz-adv-x="1220" 
d="M872 680h-454v-477h731q0 -10 -1.5 -26t-10 -50t-23 -60t-46 -46.5t-73.5 -20.5h-628q-9 0 -24 1t-54 8t-68.5 19.5t-53.5 40t-24 64.5v1331h1006q0 -4 -0.5 -11.5t-3.5 -28.5t-8 -40t-16.5 -42t-27.5 -40t-41.5 -28.5t-56.5 -11.5h-577v-379h422q78 0 135 8t75 16l17 8
q0 -36 -4 -65.5t-16 -62.5t-32.5 -55.5t-57 -37t-85.5 -14.5zM535 1979q-17 -28 -10 -58t30 -60t47.5 -54t43.5 -39l20 -15q2 2 6.5 5t16.5 13t23.5 20t26.5 25t26.5 30t22 32.5t15 34t3 34t-10.5 32.5q56 -21 94 -40.5t55 -42.5t25 -41.5t-8.5 -46t-31 -47.5t-56 -55
t-72 -59t-89.5 -68q-11 -8 -16 -12h-61q-165 123 -212 169q-85 84 -53 141q30 53 165 102z" />
    <glyph glyph-name="ecaron" unicode="&#x11b;" horiz-adv-x="1083" 
d="M369 688v-59q95 -19 153 -19q106 0 152.5 32.5t46.5 96.5q0 146 -174 146q-99 0 -138.5 -48.5t-39.5 -148.5zM596 -25q-233 0 -363.5 96t-130.5 265v383q0 170 117.5 265t335.5 95q214 0 323 -90.5t109 -249.5q0 -55 -13 -102t-44 -91t-78.5 -75t-122 -49.5t-168.5 -18.5
q-102 0 -192 37v-73q0 -187 227 -187q152 0 246 58t96 151q63 -89 63 -168q0 -110 -113.5 -178t-291.5 -68zM420 1602q-17 -28 -10 -58t30 -60t47.5 -54t44.5 -39l19 -15q2 2 6.5 5t16.5 13t23.5 20t26.5 25t26.5 30t22 32.5t15 34t3 34t-10.5 32.5q167 -62 174 -131
q5 -56 -99 -146q-43 -37 -173 -135h-62q-165 123 -212 169q-85 84 -53 141q30 53 165 102z" />
    <glyph glyph-name="Gcircumflex" unicode="&#x11c;" 
d="M123 479v506q0 109 33 195.5t89 143.5t135.5 94.5t168 54t190.5 16.5q108 0 206 -15.5t182 -47.5t134 -87.5t50 -128.5q0 -80 -64 -180q-18 68 -70.5 118t-126 76.5t-151 39t-160.5 12.5q-163 0 -252.5 -73.5t-89.5 -246.5v-446q0 -173 90 -247.5t252 -74.5q66 0 113.5 6
t93 25t73.5 51.5t45 87.5t17 131v66h-235q-170 0 -170 229q55 -26 205 -26h475v-299q0 -106 -33 -190t-89.5 -138.5t-136 -90t-168 -50.5t-190.5 -15t-190.5 16.5t-168 54t-135.5 94.5t-89 143.5t-33 195.5zM870 1567q17 28 10 58t-30 60t-47.5 53.5t-43.5 38.5l-20 15
q-2 -2 -6.5 -5t-16.5 -12.5t-23.5 -20t-26.5 -25.5t-26.5 -29.5t-22 -32t-15 -34t-3 -34t10.5 -32.5q-57 21 -95.5 41.5t-56 43t-23.5 42.5t10.5 47t37 49.5t65.5 56.5t85 61.5t106 70.5q66 -43 106.5 -70t85.5 -61t65.5 -56.5t37.5 -49.5t11.5 -47.5t-23 -43t-56 -43
t-96.5 -41.5z" />
    <glyph glyph-name="gcircumflex" unicode="&#x11d;" horiz-adv-x="1079" 
d="M70 193q0 57 26.5 105.5t83.5 115.5q-39 38 -62.5 106t-23.5 129v96q0 88 34.5 154.5t93.5 104.5t130 56.5t152 18.5q58 0 164.5 -21.5t154.5 -21.5q72 0 174 41v-428q0 -172 -116 -267t-334 -95q-68 0 -132.5 14.5t-94.5 28.5l-31 14q-13 -43 -13 -80q0 -34 16 -55.5
t50 -32t73 -14.5t97 -4h68h4q55 0 83 -0.5t78 -4t77.5 -11t66.5 -20.5t60.5 -35t43.5 -51.5t31.5 -72.5t9.5 -96q0 -169 -122 -266t-365 -97q-208 0 -328.5 61t-120.5 163q0 82 70 172q22 -201 360 -201q246 0 246 154q0 28 -10 48t-26 31t-43.5 17t-54.5 8t-67 2h-100
q-72 0 -125 4.5t-108.5 18.5t-90.5 39t-57 68.5t-22 103.5zM358 680q0 -103 40 -151t149 -48q108 0 147 48t39 151v174q-92 35 -182 35q-104 0 -148.5 -40t-44.5 -134v-35zM668 1190q17 28 10 58t-30 60t-47.5 53.5t-44.5 38.5l-19 15q-2 -2 -6.5 -5t-16.5 -12.5t-23.5 -20
t-26.5 -25.5t-26.5 -29.5t-22 -32t-15 -34t-3 -34t10.5 -32.5q-57 21 -95.5 41.5t-56 43t-23.5 42.5t10.5 47t37 49.5t65.5 56.5t85 61.5t106 70.5q66 -43 106.5 -70t85.5 -61t65.5 -56.5t37.5 -49.5t11.5 -47.5t-23 -43t-56 -43t-96.5 -41.5z" />
    <glyph glyph-name="Gbreve" unicode="&#x11e;" 
d="M123 479v506q0 109 33 195.5t89 143.5t135.5 94.5t168 54t190.5 16.5q108 0 206 -15.5t182 -47.5t134 -87.5t50 -128.5q0 -80 -64 -180q-18 68 -70.5 118t-126 76.5t-151 39t-160.5 12.5q-163 0 -252.5 -73.5t-89.5 -246.5v-446q0 -173 90 -247.5t252 -74.5q66 0 113.5 6
t93 25t73.5 51.5t45 87.5t17 131v66h-235q-170 0 -170 229q55 -26 205 -26h475v-299q0 -106 -33 -190t-89.5 -138.5t-136 -90t-168 -50.5t-190.5 -15t-190.5 16.5t-168 54t-135.5 94.5t-89 143.5t-33 195.5zM740 1741q83 0 131.5 43.5t48.5 112.5q0 35 -16 75
q67 -21 102 -69t35 -107q0 -89 -80 -158t-219 -69q-143 0 -224 68t-81 159q0 59 35 107t102 69q-16 -40 -16 -75q0 -69 49 -112.5t133 -43.5z" />
    <glyph glyph-name="gbreve" unicode="&#x11f;" horiz-adv-x="1079" 
d="M70 193q0 57 26.5 105.5t83.5 115.5q-39 38 -62.5 106t-23.5 129v96q0 88 34.5 154.5t93.5 104.5t130 56.5t152 18.5q58 0 164.5 -21.5t154.5 -21.5q72 0 174 41v-428q0 -172 -116 -267t-334 -95q-68 0 -132.5 14.5t-94.5 28.5l-31 14q-13 -43 -13 -80q0 -34 16 -55.5
t50 -32t73 -14.5t97 -4h68h4q55 0 83 -0.5t78 -4t77.5 -11t66.5 -20.5t60.5 -35t43.5 -51.5t31.5 -72.5t9.5 -96q0 -169 -122 -266t-365 -97q-208 0 -328.5 61t-120.5 163q0 82 70 172q22 -201 360 -201q246 0 246 154q0 28 -10 48t-26 31t-43.5 17t-54.5 8t-67 2h-100
q-72 0 -125 4.5t-108.5 18.5t-90.5 39t-57 68.5t-22 103.5zM358 680q0 -103 40 -151t149 -48q108 0 147 48t39 151v174q-92 35 -182 35q-104 0 -148.5 -40t-44.5 -134v-35zM541 1364q83 0 131.5 43.5t48.5 112.5q0 35 -16 75q67 -21 102 -69t35 -107q0 -89 -80 -158
t-219 -69q-143 0 -224 68t-81 159q0 59 35 107t102 69q-17 -43 -17 -75q0 -69 49 -112.5t134 -43.5z" />
    <glyph glyph-name="Gcommaaccent" unicode="&#x122;" horiz-adv-x="1482" 
d="M123 479v506q0 109 33 195.5t89 143.5t135.5 94.5t168 54t190.5 16.5q108 0 206 -15.5t182 -47.5t134 -87.5t50 -128.5q0 -80 -64 -180q-18 68 -70.5 118t-126 76.5t-151 39t-160.5 12.5q-163 0 -252.5 -73.5t-89.5 -246.5v-446q0 -173 90 -247.5t252 -74.5q66 0 113.5 6
t93 25t73.5 51.5t45 87.5t17 131v66h-235q-170 0 -170 229q55 -26 205 -26h475v-299q0 -106 -33 -190t-89.5 -138.5t-136 -90t-168 -50.5t-190.5 -15t-190.5 16.5t-168 54t-135.5 94.5t-89 143.5t-33 195.5zM639 -74h174q39 0 63.5 -20t24.5 -58v-4q0 -146 -41.5 -221.5
t-150.5 -75.5q-76 0 -129 43q38 9 59.5 37.5t25 68t1.5 67.5t-7 55z" />
    <glyph glyph-name="gcommaaccent" unicode="&#x123;" horiz-adv-x="1089" 
d="M70 193q0 57 26.5 105.5t83.5 115.5q-39 38 -62.5 106t-23.5 129v96q0 88 34.5 154.5t93.5 104.5t130 56.5t152 18.5q58 0 164.5 -21.5t154.5 -21.5q72 0 174 41v-428q0 -172 -116 -267t-334 -95q-68 0 -132.5 14.5t-94.5 28.5l-31 14q-13 -43 -13 -80q0 -34 16 -55.5
t50 -32t73 -14.5t97 -4h68h4q55 0 83 -0.5t78 -4t77.5 -11t66.5 -20.5t60.5 -35t43.5 -51.5t31.5 -72.5t9.5 -96q0 -169 -122 -266t-365 -97q-208 0 -328.5 61t-120.5 163q0 82 70 172q22 -201 360 -201q246 0 246 154q0 28 -10 48t-26 31t-43.5 17t-54.5 8t-67 2h-100
q-72 0 -125 4.5t-108.5 18.5t-90.5 39t-57 68.5t-22 103.5zM358 680q0 -103 40 -151t149 -48q108 0 147 48t39 151v174q-92 35 -182 35q-104 0 -148.5 -40t-44.5 -134v-35zM688 1208h-174q-39 0 -63.5 20t-24.5 58v4q0 71 8.5 121.5t29 92t59 62.5t95.5 21q77 0 130 -43
q-38 -9 -59.5 -37.5t-25 -67.5t-2 -67t6.5 -55z" />
    <glyph glyph-name="Hcircumflex" unicode="&#x124;" horiz-adv-x="1505" 
d="M1087 113v526h-669v-659q-11 0 -29.5 1t-66 8t-84 19.5t-66 40t-29.5 64.5v1372q11 0 29.5 -1t66 -8t84 -19.5t66 -40t29.5 -64.5v-508h669v641q11 0 29.5 -1t66 -8t84 -19.5t66 -40t29.5 -64.5v-1372q-11 0 -29.5 1t-66 8t-84 19.5t-66 40t-29.5 64.5zM880 1600
q17 28 10 58t-30 60t-47.5 53.5t-43.5 38.5l-20 15q-2 -2 -6.5 -5t-16.5 -12.5t-23.5 -20t-26.5 -25.5t-26.5 -29.5t-22 -32t-15 -34t-3 -34t10.5 -32.5q-57 21 -95.5 41.5t-56 43t-23.5 42.5t10.5 47t37 49.5t65.5 56.5t85 61.5t106 70.5q66 -43 106.5 -70t85.5 -61
t65.5 -56.5t37.5 -49.5t11.5 -47.5t-23 -43t-56 -43t-96.5 -41.5z" />
    <glyph glyph-name="hcircumflex" unicode="&#x125;" horiz-adv-x="1169" 
d="M389 715v-729q-11 0 -29 1t-63.5 8t-81 19.5t-64 40t-28.5 64.5v1442h20t38 -2.5t53.5 -7.5t53.5 -16.5t51.5 -27t34.5 -41.5t15 -59v-285q0 -23 -4 -53.5t-8 -50.5l-4 -19q4 3 11.5 8.5t33.5 19.5t54.5 24.5t73.5 19t91 8.5q84 0 157 -22t130 -64.5t90 -111.5t33 -156
v-739q-6 0 -15.5 0.5t-37 3.5t-53 7.5t-56 15t-53 24t-37.5 35t-15 47.5v575q0 96 -46.5 143.5t-123.5 47.5q-87 0 -154 -48.5t-67 -121.5zM711 1599q17 28 10 58t-30 60t-47.5 54t-43.5 39l-20 15q-2 -2 -6.5 -5t-16.5 -13t-23.5 -20t-26.5 -25t-26.5 -30t-22 -32.5
t-15 -34t-3 -34t10.5 -32.5q-57 21 -95.5 41.5t-56 43t-23.5 42.5t10.5 47t37 49.5t65.5 56.5t85 61.5t106 70.5q66 -43 106.5 -70t85.5 -61t65.5 -56.5t37.5 -49.5t11.5 -47.5t-23 -43t-56 -43t-96.5 -41.5z" />
    <glyph glyph-name="Imacron" unicode="&#x12a;" horiz-adv-x="561" 
d="M143 113v1372q11 0 29.5 -1t66 -8t84 -19.5t66 -40t29.5 -64.5v-1372q-11 0 -29.5 1t-66 8t-84 19.5t-66 40t-29.5 64.5zM80 1794h516q1 -4 2.5 -10.5t3 -25t0.5 -35.5t-8 -38t-19.5 -36t-36.5 -25t-57 -10h-518q-1 4 -2 10.5t-2.5 25t0 35.5t8.5 38t19.5 36t36.5 25
t57 10z" />
    <glyph glyph-name="imacron" unicode="&#x12b;" horiz-adv-x="512" 
d="M123 119v950q15 0 35 -1t64.5 -8.5t78.5 -20t61 -39.5t27 -64v-950q-11 0 -29 1t-63.5 8t-81 19.5t-64 40t-28.5 64.5zM55 1417h516q1 -4 2.5 -10.5t3 -25t0.5 -35.5t-8 -38t-19.5 -36t-36.5 -25t-57 -10h-518q-1 4 -2 10.5t-2.5 25t0 35.5t8.5 38t19.5 36t36.5 25t57 10
z" />
    <glyph glyph-name="Iogonek" unicode="&#x12e;" horiz-adv-x="561" 
d="M143 113v1372q11 0 29.5 -1t66 -8t84 -19.5t66 -40t29.5 -64.5v-1372q-146 -107 -146 -213q0 -36 24.5 -58t63.5 -22q36 0 79.5 12t49.5 18q0 -78 -71.5 -141t-161.5 -63q-92 0 -160.5 59t-68.5 160q0 90 58 160t146 118q-88 35 -88 103z" />
    <glyph glyph-name="iogonek" unicode="&#x12f;" horiz-adv-x="512" 
d="M123 119v950q15 0 35 -1t64.5 -8.5t78.5 -20t61 -39.5t27 -64v-950q-153 -110 -153 -219q0 -36 24.5 -58t63.5 -22q36 0 79.5 12t49.5 18q0 -78 -72 -141t-162 -63q-92 0 -160.5 59t-68.5 160q0 93 62.5 164.5t154.5 121.5q-84 31 -84 101zM139 1251v183h158q30 0 53 -19
t23 -41v-182h-156q-32 0 -55 17t-23 42z" />
    <glyph glyph-name="Idotaccent" unicode="&#x130;" horiz-adv-x="561" 
d="M143 113v1372q11 0 29.5 -1t66 -8t84 -19.5t66 -40t29.5 -64.5v-1372q-11 0 -29.5 1t-66 8t-84 19.5t-66 40t-29.5 64.5zM154 1655v170h180q25 0 50.5 -19.5t25.5 -40.5v-170h-181q-31 0 -53 18.5t-22 41.5z" />
    <glyph glyph-name="dotlessi" unicode="&#x131;" horiz-adv-x="512" 
d="M123 119v950q15 0 35 -1t64.5 -8.5t78.5 -20t61 -39.5t27 -64v-950q-11 0 -29 1t-63.5 8t-81 19.5t-64 40t-28.5 64.5z" />
    <glyph glyph-name="Jcircumflex" unicode="&#x134;" horiz-adv-x="604" 
d="M461 1348v-1416q0 -143 -68 -241.5t-184 -98.5q-117 0 -223 97q54 0 95 31.5t62.5 81.5t32 101t10.5 99v1483h19t39.5 -2.5t54.5 -7.5t56.5 -15t53.5 -24t37 -37t15 -51zM456 1567q17 28 10 58t-30 60t-47.5 53.5t-43.5 38.5l-20 15q-2 -2 -6.5 -5t-16.5 -12.5t-23.5 -20
t-26.5 -25.5t-26.5 -29.5t-22 -32t-15 -34t-3 -34t10.5 -32.5q-57 21 -95.5 41.5t-56 43t-23.5 42.5t10.5 47t37 49.5t65.5 56.5t85 61.5t106 70.5q66 -43 106.5 -70t85.5 -61t65.5 -56.5t37.5 -49.5t11.5 -47.5t-23 -43t-56 -43t-96.5 -41.5z" />
    <glyph glyph-name="jcircumflex" unicode="&#x135;" horiz-adv-x="512" 
d="M389 936v-1104q0 -134 -66 -227.5t-176 -93.5t-215 92q51 0 90 30t60 76.5t31 95t10 93.5v1171q11 0 29 -1t63.5 -8t81 -19.5t64 -40t28.5 -64.5zM385 1190q17 28 10 58t-30 60t-47.5 53.5t-43.5 38.5l-20 15q-2 -2 -6.5 -5t-16.5 -12.5t-23.5 -20t-26.5 -25.5
t-26.5 -29.5t-22 -32t-15 -34t-3 -34t10.5 -32.5q-57 21 -95.5 41.5t-56 43t-23.5 42.5t10.5 47t37 49.5t65.5 56.5t85 61.5t106 70.5q66 -43 106.5 -70t85.5 -61t65.5 -56.5t37.5 -49.5t11.5 -47.5t-23 -43t-56 -43t-96.5 -41.5z" />
    <glyph glyph-name="Kcommaaccent" unicode="&#x136;" horiz-adv-x="1320" 
d="M418 684v-704q-11 0 -29.5 1t-66 8t-84 19.5t-66 40t-29.5 64.5v1372q11 0 29.5 -1t66 -8t84 -19.5t66 -40t29.5 -64.5v-478q147 30 258.5 147t232.5 335q72 133 236 133q23 0 54 -4.5t51 -9.5l20 -5q-35 -56 -91.5 -156t-98.5 -169t-99 -147.5t-123.5 -133.5t-142.5 -84
q65 -18 129 -63.5t114 -100.5t100.5 -130t84.5 -137.5t71 -137.5q75 -146 117 -207q-82 -20 -125 -20t-85.5 9.5t-92 41t-76.5 82.5q-15 27 -47.5 87.5t-50 92t-51 85.5t-59 85t-64 72t-75.5 66t-85.5 47t-101.5 32zM559 -74h174q39 0 63.5 -20t24.5 -58v-4
q0 -146 -41.5 -221.5t-150.5 -75.5q-76 0 -129 43q38 9 59.5 38t25 68t2 67t-6.5 55z" />
    <glyph glyph-name="kcommaaccent" unicode="&#x137;" horiz-adv-x="1087" 
d="M1012 1044q-32 -43 -78.5 -122.5t-79.5 -134.5t-89 -111t-120 -82q73 -26 130 -66t92 -82.5t66 -99.5t50 -106.5t47.5 -115t54.5 -112.5q-110 -26 -151 -26q-51 0 -87.5 18.5t-57.5 49t-40.5 70.5t-34.5 83t-41.5 86.5t-60 80.5t-91 66t-132.5 41v-495q-11 0 -29 1
t-63.5 8t-81 19.5t-64 40t-28.5 64.5v1446q11 0 29 -1t63.5 -8t81 -19.5t64 -40t28.5 -64.5v-746q86 13 146 77.5t135 205.5q53 100 196 100q66 0 146 -25zM457 -74h174q39 0 63.5 -20t24.5 -58v-4q0 -70 -8.5 -121t-29.5 -92.5t-59.5 -62.5t-95.5 -21q-76 0 -129 43
q38 9 59.5 38t25 68t2 67t-6.5 55z" />
    <glyph glyph-name="Lacute" unicode="&#x139;" horiz-adv-x="1114" 
d="M948 0h-581q-9 0 -24 1t-54 8t-68.5 19.5t-53.5 40t-24 64.5v1352q11 0 29.5 -1t66 -8t84 -19.5t66 -40t29.5 -64.5v-1149h456q77 0 134 8.5t76 16.5l18 8q0 -44 -7 -82.5t-23 -74.5t-47.5 -57.5t-76.5 -21.5zM326 1979q98 -13 144.5 -68.5t27 -128t-98.5 -131.5
l-121 -90l-55 17q-118 45 -84 104q6 9 15 18l67 68q79 79 105 124t0 87z" />
    <glyph glyph-name="lacute" unicode="&#x13a;" horiz-adv-x="516" 
d="M113 307v1258q15 0 35 -1t64.5 -8.5t78.5 -20t61 -39.5t27 -64v-1059q0 -32 0.5 -52.5t3.5 -56t8 -59t16 -52t26 -45.5t38 -28.5t53 -11.5q-61 -82 -170 -82q-118 0 -179.5 91.5t-61.5 229.5zM301 2038q74 -10 119.5 -46t55 -82.5t-16 -101t-84.5 -98.5l-121 -90l-56 17
q-118 45 -84 104q6 9 15 18l68 68q78 78 104 123.5t0 87.5z" />
    <glyph glyph-name="Lcommaaccent" unicode="&#x13b;" horiz-adv-x="1116" 
d="M948 0h-581q-9 0 -24 1t-54 8t-68.5 19.5t-53.5 40t-24 64.5v1352q11 0 29.5 -1t66 -8t84 -19.5t66 -40t29.5 -64.5v-1149h456q77 0 134 8.5t76 16.5l18 8q0 -44 -7 -82.5t-23 -74.5t-47.5 -57.5t-76.5 -21.5zM485 -74h174q39 0 64 -20t25 -58v-4q0 -70 -8.5 -121
t-29.5 -92.5t-59.5 -62.5t-95.5 -21q-76 0 -129 43q38 9 59.5 38t25 68t2 67t-6.5 55z" />
    <glyph glyph-name="lcommaaccent" unicode="&#x13c;" horiz-adv-x="516" 
d="M113 307v1258q15 0 35 -1t64.5 -8.5t78.5 -20t61 -39.5t27 -64v-1059q0 -32 0.5 -52.5t3.5 -56t8 -59t16 -52t26 -45.5t38 -28.5t53 -11.5q-61 -82 -170 -82q-118 0 -179.5 91.5t-61.5 229.5zM180 -74h174q39 0 63.5 -20t24.5 -58v-4q0 -71 -8.5 -121.5t-29 -92
t-59 -62.5t-95.5 -21q-76 0 -129 43q38 9 59.5 38t25 68t2 67t-6.5 55z" />
    <glyph glyph-name="Lcaron" unicode="&#x13d;" horiz-adv-x="1116" 
d="M604 1464h174q39 0 63.5 -20t24.5 -58v-4q0 -71 -8.5 -121.5t-29 -92t-59 -62.5t-95.5 -21q-76 0 -129 43q38 9 59.5 38t25 68t2 67t-6.5 55zM948 0h-581q-9 0 -24 1t-54 8t-68.5 19.5t-53.5 40t-24 64.5v1352q11 0 29.5 -1t66 -8t84 -19.5t66 -40t29.5 -64.5v-1149h456
q77 0 134 8.5t76 16.5l18 8q0 -44 -7 -82.5t-23 -74.5t-47.5 -57.5t-76.5 -21.5z" />
    <glyph glyph-name="lcaron" unicode="&#x13e;" horiz-adv-x="851" 
d="M545 1464h174q39 0 63.5 -20t24.5 -58v-4q0 -70 -8.5 -121t-29.5 -92.5t-59.5 -62.5t-95.5 -21q-76 0 -129 43q38 9 59.5 38t25 68t2 67t-6.5 55zM113 307v1258q15 0 35 -1t64.5 -8.5t78.5 -20t61 -39.5t27 -64v-1059q0 -32 0.5 -52.5t3.5 -56t8 -59t16 -52t26 -45.5
t38 -28.5t53 -11.5q-61 -82 -170 -82q-118 0 -179.5 91.5t-61.5 229.5z" />
    <glyph glyph-name="Lslash" unicode="&#x141;" horiz-adv-x="1114" 
d="M948 0h-581q-9 0 -24 1t-54 8t-68.5 19.5t-53.5 40t-24 64.5v529l-88 -35q-55 82 -55 137q0 64 70 94l73 31v596q11 0 29.5 -1t66 -8t84 -19.5t66 -40t29.5 -64.5v-351l106 46q60 -85 60 -140q0 -65 -74 -96l-92 -37v-571h456q77 0 134 8.5t76 16.5l18 8q0 -44 -7 -82.5
t-23 -74.5t-47.5 -57.5t-76.5 -21.5z" />
    <glyph glyph-name="lslash" unicode="&#x142;" horiz-adv-x="552" 
d="M133 307v361l-84 -33q-55 82 -55 137q0 64 69 94l70 29v670q15 0 35 -1t64.5 -8.5t78.5 -20t61 -39.5t27 -64v-428l101 40q59 -84 59 -139q0 -65 -74 -96l-86 -35v-401q0 -37 1 -62t5 -65.5t13.5 -67.5t25 -54.5t41.5 -41.5t60 -14q-61 -82 -170 -82q-118 0 -180 91.5
t-62 229.5z" />
    <glyph glyph-name="Nacute" unicode="&#x143;" horiz-adv-x="1507" 
d="M514 1348l600 -940q-24 117 -24 217v839q11 0 29.5 -1t66 -8t83.5 -19.5t65.5 -40t29.5 -64.5v-1351q-87 0 -157 15t-108.5 37t-64.5 43.5t-34 36.5l-9 15l-596 946q23 -117 23 -217v-876q-11 0 -29.5 1t-66 8t-84 19.5t-66 40t-29.5 64.5v1351q55 0 81 -0.5t71 -3.5
t69.5 -10t56 -19.5t53.5 -33.5t40 -49zM811 1979q98 -13 144.5 -68.5t27 -128t-98.5 -131.5l-121 -90l-55 17q-118 45 -84 104q6 9 15 18l67 68q79 79 105 124t0 87z" />
    <glyph glyph-name="nacute" unicode="&#x144;" horiz-adv-x="1169" 
d="M780 119v592q0 85 -45.5 127.5t-150.5 42.5q-46 0 -95 -7.5t-75 -14.5l-25 -7v-866q-11 0 -29 1t-63.5 8t-81 19.5t-64 40t-28.5 64.5v960q80 -43 184 -43q49 0 148.5 21.5t156.5 21.5q67 0 126.5 -9.5t117.5 -33.5t99 -61t66.5 -97t25.5 -137v-755q-6 0 -15.5 0.5
t-37 3.5t-53 7.5t-56 15t-53 24t-37.5 35t-15 47.5zM633 1602q74 -10 119.5 -46t55 -82.5t-16 -101t-84.5 -98.5l-121 -90l-56 17q-118 45 -84 104q6 9 15 18l67 68q79 79 105 124t0 87z" />
    <glyph glyph-name="Ncommaaccent" unicode="&#x145;" horiz-adv-x="1511" 
d="M514 1348l600 -940q-24 117 -24 217v839q11 0 29.5 -1t66 -8t83.5 -19.5t65.5 -40t29.5 -64.5v-1351q-87 0 -157 15t-108.5 37t-64.5 43.5t-34 36.5l-9 15l-596 946q23 -117 23 -217v-876q-11 0 -29.5 1t-66 8t-84 19.5t-66 40t-29.5 64.5v1351q55 0 81 -0.5t71 -3.5
t69.5 -10t56 -19.5t53.5 -33.5t40 -49zM651 -74h174q39 0 63.5 -20t24.5 -58v-4q0 -146 -41.5 -221.5t-150.5 -75.5q-76 0 -129 43q38 9 59.5 38t25 68t2 67t-6.5 55z" />
    <glyph glyph-name="ncommaaccent" unicode="&#x146;" horiz-adv-x="1177" 
d="M780 119v592q0 85 -45.5 127.5t-150.5 42.5q-46 0 -95 -7.5t-75 -14.5l-25 -7v-866q-11 0 -29 1t-63.5 8t-81 19.5t-64 40t-28.5 64.5v960q80 -43 184 -43q49 0 148.5 21.5t156.5 21.5q67 0 126.5 -9.5t117.5 -33.5t99 -61t66.5 -97t25.5 -137v-755q-6 0 -15.5 0.5
t-37 3.5t-53 7.5t-56 15t-53 24t-37.5 35t-15 47.5zM477 -74h174q39 0 63.5 -20t24.5 -58v-4q0 -146 -41.5 -221.5t-150.5 -75.5q-76 0 -129 43q38 9 59.5 38t25 68t2 67t-6.5 55z" />
    <glyph glyph-name="Ncaron" unicode="&#x147;" horiz-adv-x="1507" 
d="M514 1348l600 -940q-24 117 -24 217v839q11 0 29.5 -1t66 -8t83.5 -19.5t65.5 -40t29.5 -64.5v-1351q-87 0 -157 15t-108.5 37t-64.5 43.5t-34 36.5l-9 15l-596 946q23 -117 23 -217v-876q-11 0 -29.5 1t-66 8t-84 19.5t-66 40t-29.5 64.5v1351q55 0 81 -0.5t71 -3.5
t69.5 -10t56 -19.5t53.5 -33.5t40 -49zM623 1979q-17 -28 -10 -58t30 -60t47.5 -54t43.5 -39l20 -15q2 2 6.5 5t16.5 13t23.5 20t26.5 25t26.5 30t22 32.5t15 34t3 34t-10.5 32.5q56 -21 94 -40.5t55 -42.5t25 -41.5t-8.5 -46t-31 -47.5t-56 -55t-72 -59t-89.5 -68
q-11 -8 -16 -12h-61q-165 123 -212 169q-85 84 -53 141q30 53 165 102z" />
    <glyph glyph-name="ncaron" unicode="&#x148;" horiz-adv-x="1169" 
d="M780 119v592q0 85 -45.5 127.5t-150.5 42.5q-46 0 -95 -7.5t-75 -14.5l-25 -7v-866q-11 0 -29 1t-63.5 8t-81 19.5t-64 40t-28.5 64.5v960q80 -43 184 -43q49 0 148.5 21.5t156.5 21.5q67 0 126.5 -9.5t117.5 -33.5t99 -61t66.5 -97t25.5 -137v-755q-6 0 -15.5 0.5
t-37 3.5t-53 7.5t-56 15t-53 24t-37.5 35t-15 47.5zM444 1602q-17 -28 -10 -58t30 -60t47.5 -54t44.5 -39l19 -15q2 2 6.5 5t16.5 13l24 20t26.5 25t26.5 30t22.5 32.5t15 34t3 34t-10.5 32.5q56 -21 94 -40.5t55 -42.5t25 -41.5t-8.5 -46t-31 -47.5t-56 -55t-72 -59
t-89.5 -68q-11 -8 -16 -12h-61q-166 124 -212 169q-85 84 -54 141q30 53 165 102z" />
    <glyph glyph-name="Omacron" unicode="&#x14c;" 
d="M1356 1004v-543q0 -233 -154 -359.5t-463 -126.5q-310 0 -463 126.5t-153 359.5v543q0 233 153 359t463 126q309 0 463 -126.5t154 -358.5zM1081 487v490q0 63 -8 107.5t-30 85t-60 64.5t-99.5 38t-146.5 14q-84 0 -144.5 -14t-98.5 -38t-59.5 -64.5t-29.5 -85t-8 -107.5
v-490q0 -63 8 -107.5t29.5 -85t59.5 -64.5t98.5 -38t144.5 -14q85 0 146.5 14t99.5 38t60 64.5t30 85t8 107.5zM541 1794h516q1 -4 2.5 -10.5t3 -25t0.5 -35.5t-8 -38t-19.5 -36t-36.5 -25t-57 -10h-518q-1 4 -2 10.5t-2.5 25t0 35.5t8.5 38t19.5 36t36.5 25t57 10z" />
    <glyph glyph-name="omacron" unicode="&#x14d;" horiz-adv-x="1191" 
d="M1090 719v-383q0 -173 -123.5 -267t-370.5 -94t-370.5 94t-123.5 267v383q0 173 123.5 266.5t370.5 93.5t370.5 -93.5t123.5 -266.5zM823 367v321q0 102 -47 149.5t-180 47.5t-180 -47.5t-47 -149.5v-321q0 -102 47 -149.5t180 -47.5t180 47.5t47 149.5zM395 1417h516
q1 -4 2.5 -10.5t3 -25t0.5 -35.5t-7.5 -38t-19 -36t-36.5 -25t-57 -10h-518q-1 4 -2 10.5t-2.5 25t-0.5 35.5t8 38t19.5 36t36.5 25t57 10z" />
    <glyph glyph-name="Ohungarumlaut" unicode="&#x150;" 
d="M1356 1004v-543q0 -233 -154 -359.5t-463 -126.5q-310 0 -463 126.5t-153 359.5v543q0 233 153 359t463 126q309 0 463 -126.5t154 -358.5zM1081 487v490q0 63 -8 107.5t-30 85t-60 64.5t-99.5 38t-146.5 14q-84 0 -144.5 -14t-98.5 -38t-59.5 -64.5t-29.5 -85t-8 -107.5
v-490q0 -63 8 -107.5t29.5 -85t59.5 -64.5t98.5 -38t144.5 -14q85 0 146.5 14t99.5 38t60 64.5t30 85t8 107.5zM965 1979q98 -13 139.5 -67.5t17.5 -124.5t-104 -130l-121 -90q-4 1 -11 2.5t-25 8t-33.5 13.5t-31 19t-22.5 24.5t-3 30t22 35.5l67 68q79 79 105 124t0 87z
M557 1979q99 -13 144 -57t28 -103t-90 -117l-109 -86l-10 2.5t-22.5 7t-30 12.5t-27 18t-19 24t-1.5 30.5t22 36.5q54 58 78.5 87t40 57.5t13 46t-16.5 41.5z" />
    <glyph glyph-name="ohungarumlaut" unicode="&#x151;" horiz-adv-x="1191" 
d="M1090 719v-383q0 -173 -123.5 -267t-370.5 -94t-370.5 94t-123.5 267v383q0 173 123.5 266.5t370.5 93.5t370.5 -93.5t123.5 -266.5zM823 367v321q0 102 -47 149.5t-180 47.5t-180 -47.5t-47 -149.5v-321q0 -102 47 -149.5t180 -47.5t180 47.5t47 149.5zM819 1602
q98 -13 139.5 -67.5t17.5 -124.5t-104 -130l-120 -90q-4 1 -11 2.5t-25.5 8t-33.5 13.5t-31 19t-23 24.5t-3 30t22 35.5l68 68q78 78 104 123.5t0 87.5zM412 1602q99 -13 144 -57t28 -103t-90 -117l-109 -86l-10 2.5t-22.5 7t-30 12.5t-27 18t-19 24t-1.5 30.5t22 36.5
q54 58 78.5 87t40 57.5t13 46t-16.5 41.5z" />
    <glyph glyph-name="OE" unicode="&#x152;" horiz-adv-x="1761" 
d="M1413 680h-352v-477h629q0 -10 -1.5 -26t-10 -50t-23 -60t-46 -46.5t-73.5 -20.5h-526h-2h-269q-310 0 -463 126t-153 359v494q0 233 153 359t463 126h951q0 -4 -0.5 -11.5t-3.5 -28.5t-8 -40t-16.5 -42t-27.5 -40t-41.5 -28.5t-56.5 -11.5h-475v-379h319q78 0 135 8
t75 16l18 8q0 -36 -4 -65.5t-16 -62.5t-32.5 -55.5t-57 -37t-85.5 -14.5zM737 203h49v1057q-16 2 -49 2q-84 0 -144.5 -14t-98 -38.5t-59.5 -64.5t-30 -85t-8 -108v-440q0 -63 8 -107.5t29.5 -85t59.5 -64.5t98.5 -38t144.5 -14z" />
    <glyph glyph-name="oe" unicode="&#x153;" horiz-adv-x="1804" 
d="M1317 -25q-121 0 -216 27.5t-140 83.5q-87 -111 -365 -111q-247 0 -370.5 94t-123.5 267v383q0 173 123.5 266.5t370.5 93.5q274 0 356 -106q77 106 324 106q214 0 323 -90.5t109 -249.5q0 -55 -13 -102t-44 -91t-78.5 -75t-122 -49.5t-168.5 -18.5q-102 0 -192 37v-73
q0 -187 227 -187q152 0 246 58t96 151q63 -89 63 -168q0 -110 -113.5 -178t-291.5 -68zM823 348v359q-3 91 -51.5 134.5t-175.5 43.5q-133 0 -180 -47.5t-47 -149.5v-321q0 -102 47 -149.5t180 -47.5q127 0 175.5 43t51.5 135zM1090 688v-59q95 -19 153 -19
q106 0 152.5 32.5t46.5 96.5q0 146 -174 146q-99 0 -138.5 -48.5t-39.5 -148.5z" />
    <glyph glyph-name="Racute" unicode="&#x154;" horiz-adv-x="1249" 
d="M1151 1032q0 -166 -103.5 -271.5t-267.5 -105.5q87 -50 161.5 -138.5t117.5 -169t98 -185t92 -158.5q-82 -20 -125 -20q-174 0 -243 133q-11 21 -40 76.5t-42.5 81t-43 74.5t-50 75.5t-55 64.5t-66.5 60.5t-75.5 45t-90.5 36.5v-651q-11 0 -29.5 1t-66 9t-84 20.5
t-66 39.5t-29.5 63v1351h473q122 0 216 -19t167.5 -60.5t112.5 -114.5t39 -176v-62zM616 1262h-198v-424h215q132 0 188 54.5t56 170.5q0 111 -62 155t-199 44zM668 1979q98 -13 144.5 -68.5t27 -128t-98.5 -131.5l-121 -90l-55 17q-118 45 -84 104q6 9 15 18l67 68
q79 79 105 124t0 87z" />
    <glyph glyph-name="racute" unicode="&#x155;" horiz-adv-x="856" 
d="M389 -14q-11 0 -29 1t-63.5 8t-81 19.5t-64 40t-28.5 64.5v958q81 -41 158 -41q41 0 139 21.5t162 21.5q119 0 197.5 -47t78.5 -145q0 -35 -13 -71t-27 -57t-33 -45.5t-21 -27.5q0 92 -62.5 139t-158.5 47q-31 0 -62 -4t-61 -11l-31 -7v-864zM522 1602q74 -10 119.5 -46
t55 -82.5t-16 -101t-84.5 -98.5l-121 -90l-56 17q-118 45 -84 104q6 9 15 18l68 68q78 78 104 123.5t0 87.5z" />
    <glyph glyph-name="Rcommaaccent" unicode="&#x156;" horiz-adv-x="1253" 
d="M1151 1032q0 -166 -103.5 -271.5t-267.5 -105.5q87 -50 161.5 -138.5t117.5 -169t98 -185t92 -158.5q-82 -20 -125 -20q-174 0 -243 133q-11 21 -40 76.5t-42.5 81t-43 74.5t-50 75.5t-55 64.5t-66.5 60.5t-75.5 45t-90.5 36.5v-651q-11 0 -29.5 1t-66 9t-84 20.5
t-66 39.5t-29.5 63v1351h473q122 0 216 -19t167.5 -60.5t112.5 -114.5t39 -176v-62zM616 1262h-198v-424h215q132 0 188 54.5t56 170.5q0 111 -62 155t-199 44zM522 -74h174q39 0 63.5 -20t24.5 -58v-4q0 -71 -8.5 -121.5t-29 -92t-59 -62.5t-95.5 -21q-76 0 -129 43
q38 9 59.5 38t25 68t2 67t-6.5 55z" />
    <glyph glyph-name="rcommaaccent" unicode="&#x157;" horiz-adv-x="858" 
d="M389 -14q-11 0 -29 1t-63.5 8t-81 19.5t-64 40t-28.5 64.5v958q81 -41 158 -41q41 0 139 21.5t162 21.5q119 0 197.5 -47t78.5 -145q0 -35 -13 -71t-27 -57t-33 -45.5t-21 -27.5q0 92 -62.5 139t-158.5 47q-31 0 -62 -4t-61 -11l-31 -7v-864zM143 -74h174q39 0 64 -20
t25 -58v-4q0 -70 -8.5 -121t-29.5 -92.5t-59.5 -62.5t-95.5 -21q-76 0 -129 43q38 9 59.5 38t25 68t2 67t-6.5 55z" />
    <glyph glyph-name="Rcaron" unicode="&#x158;" horiz-adv-x="1249" 
d="M1151 1032q0 -166 -103.5 -271.5t-267.5 -105.5q87 -50 161.5 -138.5t117.5 -169t98 -185t92 -158.5q-82 -20 -125 -20q-174 0 -243 133q-11 21 -40 76.5t-42.5 81t-43 74.5t-50 75.5t-55 64.5t-66.5 60.5t-75.5 45t-90.5 36.5v-651q-11 0 -29.5 1t-66 9t-84 20.5
t-66 39.5t-29.5 63v1351h473q122 0 216 -19t167.5 -60.5t112.5 -114.5t39 -176v-62zM616 1262h-198v-424h215q132 0 188 54.5t56 170.5q0 111 -62 155t-199 44zM480 1979q-17 -28 -10 -58t30 -60t47.5 -54t43.5 -39l20 -15q2 2 6.5 5t16.5 13t23.5 20t26.5 25t26.5 30
t22 32.5t15 34t3 34t-10.5 32.5q56 -21 94 -40.5t55 -42.5t25 -41.5t-8.5 -46t-31 -47.5t-56 -55t-72 -59t-89.5 -68q-11 -8 -16 -12h-61q-165 123 -212 169q-85 84 -53 141q30 53 165 102z" />
    <glyph glyph-name="rcaron" unicode="&#x159;" horiz-adv-x="856" 
d="M389 -14q-11 0 -29 1t-63.5 8t-81 19.5t-64 40t-28.5 64.5v958q81 -41 158 -41q41 0 139 21.5t162 21.5q119 0 197.5 -47t78.5 -145q0 -35 -13 -71t-27 -57t-33 -45.5t-21 -27.5q0 92 -62.5 139t-158.5 47q-31 0 -62 -4t-61 -11l-31 -7v-864zM334 1602q-17 -28 -10 -58
t30 -60t47.5 -54t44.5 -39l19 -15q2 2 6.5 5t16.5 13t23.5 20t26.5 25t26.5 30t22 32.5t15 34t3 34t-10.5 32.5q167 -62 174 -131q5 -56 -99 -146q-43 -37 -173 -135h-62q-165 123 -212 169q-85 84 -53 141q30 53 165 102z" />
    <glyph glyph-name="Sacute" unicode="&#x15a;" horiz-adv-x="1339" 
d="M82 1055q0 97 30.5 172.5t83 124t128 80t160.5 44.5t186 13q538 0 538 -254q0 -85 -67 -207q0 248 -469 248q-142 0 -224.5 -46t-82.5 -145q0 -54 30.5 -90t82 -54.5t118.5 -31t141 -23.5t148 -26.5t141 -46.5t118.5 -77t82 -124t30.5 -182q0 -148 -79 -251.5
t-212.5 -152.5t-310.5 -49q-102 0 -193.5 13.5t-171.5 41.5t-127.5 80t-47.5 121q0 85 73 191q0 -57 30 -100.5t76.5 -68.5t111 -41t124 -21t125.5 -5q157 0 237.5 59t80.5 165q0 60 -30.5 102t-82 64.5t-118.5 37t-141 26.5t-147.5 26.5t-140.5 42t-118.5 68.5t-82 111.5
t-30.5 164.5zM719 1979q98 -13 144.5 -68.5t27 -128t-98.5 -131.5l-121 -90l-55 17q-118 45 -84 104q6 9 15 18l67 68q79 79 105 124t0 87z" />
    <glyph glyph-name="sacute" unicode="&#x15b;" horiz-adv-x="1046" 
d="M725 315q0 46 -36.5 72t-95 35.5t-129.5 15.5t-142 20.5t-129.5 42t-95 88t-36.5 150.5q0 169 116.5 254.5t336.5 85.5q191 0 303.5 -53.5t112.5 -153.5q0 -85 -78 -184q0 91 -90 140t-227 49q-108 0 -159.5 -30t-51.5 -95q0 -35 28.5 -56.5t75 -29t106 -15.5t121 -14.5
t121 -28.5t106 -55.5t75 -97t28.5 -150.5q0 -156 -119.5 -243t-351.5 -87q-197 0 -316.5 58t-119.5 162q0 91 96 192q1 -62 32 -106t83 -66t106.5 -31.5t118.5 -9.5q49 0 93.5 11t81 44.5t36.5 85.5zM563 1602q74 -10 119.5 -46t55 -82.5t-16 -101t-84.5 -98.5l-121 -90
l-56 17q-118 45 -84 104q6 9 15 18l68 68q78 78 104 123.5t0 87.5z" />
    <glyph glyph-name="Scircumflex" unicode="&#x15c;" horiz-adv-x="1339" 
d="M82 1055q0 97 30.5 172.5t83 124t128 80t160.5 44.5t186 13q538 0 538 -254q0 -85 -67 -207q0 248 -469 248q-142 0 -224.5 -46t-82.5 -145q0 -54 30.5 -90t82 -54.5t118.5 -31t141 -23.5t148 -26.5t141 -46.5t118.5 -77t82 -124t30.5 -182q0 -148 -79 -251.5
t-212.5 -152.5t-310.5 -49q-102 0 -193.5 13.5t-171.5 41.5t-127.5 80t-47.5 121q0 85 73 191q0 -57 30 -100.5t76.5 -68.5t111 -41t124 -21t125.5 -5q157 0 237.5 59t80.5 165q0 60 -30.5 102t-82 64.5t-118.5 37t-141 26.5t-147.5 26.5t-140.5 42t-118.5 68.5t-82 111.5
t-30.5 164.5zM794 1567q17 28 10 58t-30 60t-47.5 53.5t-43.5 38.5l-20 15q-2 -2 -6.5 -5t-16.5 -12.5t-23.5 -20t-26.5 -25.5t-26.5 -29.5t-22 -32t-15 -34t-3 -34t10.5 -32.5q-57 21 -95.5 41.5t-56 43t-23.5 42.5t10.5 47t37 49.5t65.5 56.5t85 61.5t106 70.5
q66 -43 106.5 -70t85.5 -61t65.5 -56.5t37.5 -49.5t11.5 -47.5t-23 -43t-56 -43t-96.5 -41.5z" />
    <glyph glyph-name="scircumflex" unicode="&#x15d;" horiz-adv-x="1046" 
d="M725 315q0 46 -36.5 72t-95 35.5t-129.5 15.5t-142 20.5t-129.5 42t-95 88t-36.5 150.5q0 169 116.5 254.5t336.5 85.5q191 0 303.5 -53.5t112.5 -153.5q0 -85 -78 -184q0 91 -90 140t-227 49q-108 0 -159.5 -30t-51.5 -95q0 -35 28.5 -56.5t75 -29t106 -15.5t121 -14.5
t121 -28.5t106 -55.5t75 -97t28.5 -150.5q0 -156 -119.5 -243t-351.5 -87q-197 0 -316.5 58t-119.5 162q0 91 96 192q1 -62 32 -106t83 -66t106.5 -31.5t118.5 -9.5q49 0 93.5 11t81 44.5t36.5 85.5zM639 1190q17 28 10 58t-30 60t-47.5 53.5t-43.5 38.5l-20 15
q-2 -2 -6.5 -5t-16.5 -12.5t-23.5 -20t-26.5 -25.5t-26.5 -29.5t-22 -32t-15 -34t-3 -34t10.5 -32.5q-57 21 -95.5 41.5t-56 43t-23.5 42.5t10.5 47t37 49.5t65.5 56.5t85 61.5t106 70.5q66 -43 106.5 -70t85.5 -61t65.5 -56.5t37.5 -49.5t11.5 -47.5t-23 -43t-56 -43
t-96.5 -41.5z" />
    <glyph glyph-name="Scedilla" unicode="&#x15e;" horiz-adv-x="1339" 
d="M500 -211q8 37 20 74l43 119q-90 6 -166.5 22t-142 44.5t-102.5 76t-37 108.5q0 85 73 191q0 -57 30 -100.5t76.5 -68.5t111 -41t124 -21t125.5 -5q157 0 237.5 59t80.5 165q0 60 -30.5 102t-82 64.5t-118.5 37t-141 26.5t-147.5 26.5t-140.5 42t-118.5 68.5t-82 111.5
t-30.5 164.5q0 97 30.5 172.5t83 124t128 80t160.5 44.5t186 13q538 0 538 -254q0 -85 -67 -207q0 248 -469 248q-142 0 -224.5 -46t-82.5 -145q0 -54 30.5 -90t82 -54.5t118.5 -31t141 -23.5t148 -26.5t141 -46.5t118.5 -77t82 -124t30.5 -182q0 -140 -71 -240.5
t-192 -151.5t-283 -58l-6 -56l40 -4q88 -9 139.5 -61t51.5 -138q0 -91 -71 -145.5t-167 -54.5q-57 0 -98.5 19.5t-60.5 48t-27 51t-8 38.5q15 -8 52 -17t77 -9q46 0 78 20.5t32 61.5q0 78 -125 78q-28 0 -57.5 -6t-44.5 -12z" />
    <glyph glyph-name="scedilla" unicode="&#x15f;" horiz-adv-x="1046" 
d="M358 -211q9 37 21 74l41 117q-160 14 -251 69t-91 146t96 192q1 -62 32 -106t83 -66t106.5 -31.5t118.5 -9.5q49 0 93.5 11t81 44.5t36.5 85.5q0 46 -36.5 72t-95 35.5t-129.5 15.5t-142 20.5t-129.5 42t-95 88t-36.5 150.5q0 169 116.5 254.5t336.5 85.5
q191 0 303.5 -53.5t112.5 -153.5q0 -85 -78 -184q0 91 -90 140t-227 49q-108 0 -159.5 -30t-51.5 -95q0 -35 28.5 -56.5t75 -29t106 -15.5t121 -14.5t121 -28.5t106 -55.5t75 -97t28.5 -150.5q0 -146 -105.5 -232t-310.5 -96l-6 -53l41 -4q88 -9 139.5 -61t51.5 -138
q0 -91 -71 -145.5t-167 -54.5q-46 0 -83 13.5t-57 32.5t-33.5 42.5t-17.5 40t-4 28.5q15 -7 52.5 -16.5t77.5 -9.5q46 0 78 20.5t32 61.5q0 78 -125 78q-28 0 -57.5 -6t-45.5 -12z" />
    <glyph glyph-name="Scaron" unicode="&#x160;" horiz-adv-x="1339" 
d="M82 1055q0 97 30.5 172.5t83 124t128 80t160.5 44.5t186 13q538 0 538 -254q0 -85 -67 -207q0 248 -469 248q-142 0 -224.5 -46t-82.5 -145q0 -54 30.5 -90t82 -54.5t118.5 -31t141 -23.5t148 -26.5t141 -46.5t118.5 -77t82 -124t30.5 -182q0 -148 -79 -251.5
t-212.5 -152.5t-310.5 -49q-102 0 -193.5 13.5t-171.5 41.5t-127.5 80t-47.5 121q0 85 73 191q0 -57 30 -100.5t76.5 -68.5t111 -41t124 -21t125.5 -5q157 0 237.5 59t80.5 165q0 60 -30.5 102t-82 64.5t-118.5 37t-141 26.5t-147.5 26.5t-140.5 42t-118.5 68.5t-82 111.5
t-30.5 164.5zM531 1979q-17 -28 -10 -58t30 -60t47.5 -54t43.5 -39l20 -15q2 2 6.5 5t16.5 13t23.5 20t26.5 25t26.5 30t22 32.5t15 34t3 34t-10.5 32.5q56 -21 94 -40.5t55 -42.5t25 -41.5t-8.5 -46t-31 -47.5t-56 -55t-72 -59t-89.5 -68q-11 -8 -16 -12h-61
q-165 123 -212 169q-85 84 -53 141q30 53 165 102z" />
    <glyph glyph-name="scaron" unicode="&#x161;" horiz-adv-x="1046" 
d="M725 315q0 46 -36.5 72t-95 35.5t-129.5 15.5t-142 20.5t-129.5 42t-95 88t-36.5 150.5q0 169 116.5 254.5t336.5 85.5q191 0 303.5 -53.5t112.5 -153.5q0 -85 -78 -184q0 91 -90 140t-227 49q-108 0 -159.5 -30t-51.5 -95q0 -35 28.5 -56.5t75 -29t106 -15.5t121 -14.5
t121 -28.5t106 -55.5t75 -97t28.5 -150.5q0 -156 -119.5 -243t-351.5 -87q-197 0 -316.5 58t-119.5 162q0 91 96 192q1 -62 32 -106t83 -66t106.5 -31.5t118.5 -9.5q49 0 93.5 11t81 44.5t36.5 85.5zM375 1602q-17 -28 -10 -58t30 -60t47.5 -54t43.5 -39l20 -15q2 2 6.5 5
t16.5 13t23.5 20t26.5 25t26.5 30t22 32.5t15 34t3 34t-10.5 32.5q167 -62 174 -131q5 -56 -99 -146q-43 -37 -173 -135h-62q-165 123 -212 169q-85 84 -53 141q30 53 165 102z" />
    <glyph glyph-name="Tcommaaccent" unicode="&#x162;" horiz-adv-x="1181" 
d="M434 -211q9 37 21 74l57 160q-61 33 -61 90v1149h-252q-49 0 -85.5 14.5t-57 37t-32.5 55.5t-16 62.5t-4 65.5q71 -33 227 -33h719q69 0 126 8t80 16l22 9q0 -36 -4 -65.5t-16 -62.5t-32.5 -55.5t-57 -37t-85.5 -14.5h-258v-1282q-37 0 -78 6l-8 -62l41 -4q88 -9 139 -61
t51 -138q0 -91 -70.5 -145.5t-166.5 -54.5q-46 0 -83 13.5t-57 32.5t-33.5 42.5t-17.5 40t-4 28.5q15 -8 52 -17t77 -9q46 0 78.5 20.5t32.5 61.5q0 78 -125 78q-28 0 -57.5 -6t-45.5 -12z" />
    <glyph glyph-name="tcommaaccent" unicode="&#x163;" horiz-adv-x="911" 
d="M362 -211q9 37 21 74l45 123q-147 26 -225 116t-78 234v917q22 0 39 -1t52.5 -5t61.5 -15.5t53.5 -29.5t42.5 -50t15 -73v-73h418q0 -8 -1 -21.5t-9.5 -48.5t-23 -61.5t-45.5 -48t-73 -21.5h-266v-412q0 -110 42 -163.5t153 -53.5q102 0 171.5 51t69.5 164
q86 -95 86 -182q0 -96 -87.5 -161t-250.5 -71l-6 -53l41 -4q88 -9 139.5 -61t51.5 -138q0 -91 -71 -145.5t-167 -54.5q-57 0 -98.5 19.5t-60.5 48t-27 51t-8 38.5q15 -8 52 -17t77 -9q46 0 78 20.5t32 61.5q0 78 -125 78q-28 0 -57.5 -6t-45.5 -12z" />
    <glyph glyph-name="Tcaron" unicode="&#x164;" horiz-adv-x="1179" 
d="M983 1262h-258v-1282q-11 0 -29.5 1t-66 8t-83.5 19.5t-65.5 40t-29.5 64.5v1149h-252q-49 0 -85.5 14.5t-57 37t-32.5 55.5t-16 62.5t-4 65.5q71 -33 227 -33h719q69 0 126 8t80 16l22 9q0 -36 -4 -65.5t-16 -62.5t-32.5 -55.5t-57 -37t-85.5 -14.5zM455 1978
q-17 -28 -10 -58t30 -60t47.5 -53.5t43.5 -38.5l20 -15q2 2 6.5 5t16.5 12.5t23.5 20t26.5 25.5t26.5 29.5t22 32t15 34t3 34t-10.5 32.5q74 -27 116 -54t52 -56.5t-1 -58.5t-49 -66t-84.5 -74.5t-114.5 -88.5q-12 -9 -18 -13h-61q-165 123 -211 168q-85 83 -55 140
q29 53 166 103z" />
    <glyph glyph-name="tcaron" unicode="&#x165;" horiz-adv-x="1171" 
d="M125 336v917q22 0 39 -1t52.5 -5t61.5 -15.5t53.5 -29.5t42.5 -50t15 -73v-73h418q0 -8 -1 -21.5t-9.5 -48.5t-23 -61.5t-45.5 -48t-73 -21.5h-266v-412q0 -110 42 -163.5t153 -53.5q102 0 171.5 51t69.5 164q86 -95 86 -182q0 -100 -94 -167t-270 -67q-201 0 -311.5 95
t-110.5 266zM864 1464h174q39 0 63.5 -20t24.5 -58v-4q0 -71 -8.5 -121.5t-29 -92t-59 -62.5t-95.5 -21q-76 0 -129 43q38 9 59.5 38t25 68t2 67t-6.5 55z" />
    <glyph glyph-name="Umacron" unicode="&#x16a;" 
d="M1356 1352v-914q0 -112 -50 -202t-136 -146t-196 -85.5t-235 -29.5t-235 29.5t-195.5 85.5t-135.5 146t-50 202v1047q11 0 29.5 -1t66 -8t83.5 -19.5t65.5 -40t29.5 -64.5v-883q0 -135 93.5 -208t248.5 -73t248.5 73t93.5 208v1016q11 0 29.5 -1t66 -8t84 -19.5t66 -40
t29.5 -64.5zM541 1794h516q1 -4 2.5 -10.5t3 -25t0.5 -35.5t-8 -38t-19.5 -36t-36.5 -25t-57 -10h-518q-1 4 -2 10.5t-2.5 25t0 35.5t8.5 38t19.5 36t36.5 25t57 10z" />
    <glyph glyph-name="umacron" unicode="&#x16b;" horiz-adv-x="1169" 
d="M389 936v-592q0 -85 46 -127.5t151 -42.5q46 0 94.5 7t73.5 15l26 7v866q6 0 15.5 -0.5t37 -3t53 -7t56 -14.5t53 -23.5t37.5 -35.5t15 -49v-961q-81 43 -185 43q-49 0 -148.5 -21.5t-156.5 -21.5q-67 0 -126.5 9.5t-117 33.5t-98.5 61t-66.5 97t-25.5 137v756
q11 0 29 -1t63.5 -9t81 -20.5t64 -39.5t28.5 -63zM377 1417h516q1 -4 2.5 -10.5t3 -25t0.5 -35.5t-8 -38t-19.5 -36t-36.5 -25t-57 -10h-518q-1 4 -2 10.5t-2.5 25t0 35.5t8.5 38t19.5 36t36.5 25t57 10z" />
    <glyph glyph-name="Ubreve" unicode="&#x16c;" 
d="M1356 1352v-914q0 -112 -50 -202t-136 -146t-196 -85.5t-235 -29.5t-235 29.5t-195.5 85.5t-135.5 146t-50 202v1047q11 0 29.5 -1t66 -8t83.5 -19.5t65.5 -40t29.5 -64.5v-883q0 -135 93.5 -208t248.5 -73t248.5 73t93.5 208v1016q11 0 29.5 -1t66 -8t84 -19.5t66 -40
t29.5 -64.5zM742 1741q83 0 131.5 43.5t48.5 112.5q0 35 -16 75q67 -21 102 -69t35 -107q0 -89 -80 -158t-219 -69q-143 0 -224 68t-81 159q0 59 35 107t102 69q-16 -40 -16 -75q0 -69 49 -112.5t133 -43.5z" />
    <glyph glyph-name="ubreve" unicode="&#x16d;" horiz-adv-x="1169" 
d="M389 936v-592q0 -85 46 -127.5t151 -42.5q46 0 94.5 7t73.5 15l26 7v866q6 0 15.5 -0.5t37 -3t53 -7t56 -14.5t53 -23.5t37.5 -35.5t15 -49v-961q-81 43 -185 43q-49 0 -148.5 -21.5t-156.5 -21.5q-67 0 -126.5 9.5t-117 33.5t-98.5 61t-66.5 97t-25.5 137v756
q11 0 29 -1t63.5 -9t81 -20.5t64 -39.5t28.5 -63zM578 1364q83 0 131.5 43.5t48.5 112.5q0 32 -17 75q67 -21 102.5 -69t35.5 -107q0 -89 -80 -158t-219 -69q-143 0 -224.5 68t-81.5 159q0 59 35.5 107t102.5 69q-17 -43 -17 -75q0 -69 49 -112.5t134 -43.5z" />
    <glyph glyph-name="Uring" unicode="&#x16e;" 
d="M1356 1352v-914q0 -112 -50 -202t-136 -146t-196 -85.5t-235 -29.5t-235 29.5t-195.5 85.5t-135.5 146t-50 202v1047q11 0 29.5 -1t66 -8t83.5 -19.5t65.5 -40t29.5 -64.5v-883q0 -135 93.5 -208t248.5 -73t248.5 73t93.5 208v1016q11 0 29.5 -1t66 -8t84 -19.5t66 -40
t29.5 -64.5zM811 1723v53q0 49 -72 49q-41 0 -54 -12t-13 -37v-53q0 -26 13 -37t54 -11t56.5 11.5t15.5 36.5zM950 1798v-98q0 -64 -56 -98.5t-153 -34.5q-96 0 -152.5 35t-56.5 98v98q0 62 57 98.5t152 36.5q96 0 152.5 -36t56.5 -99z" />
    <glyph glyph-name="uring" unicode="&#x16f;" horiz-adv-x="1169" 
d="M389 936v-592q0 -85 46 -127.5t151 -42.5q46 0 94.5 7t73.5 15l26 7v866q6 0 15.5 -0.5t37 -3t53 -7t56 -14.5t53 -23.5t37.5 -35.5t15 -49v-961q-81 43 -185 43q-49 0 -148.5 -21.5t-156.5 -21.5q-67 0 -126.5 9.5t-117 33.5t-98.5 61t-66.5 97t-25.5 137v756
q11 0 29 -1t63.5 -9t81 -20.5t64 -39.5t28.5 -63zM647 1346v53q0 49 -72 49q-41 0 -54 -12t-13 -37v-53q0 -26 13 -37t54 -11t56.5 11.5t15.5 36.5zM786 1421v-98q0 -64 -55.5 -98.5t-152.5 -34.5q-96 0 -152.5 35t-56.5 98v98q0 62 57 98.5t152 36.5q96 0 152 -36t56 -99z
" />
    <glyph glyph-name="Uhungarumlaut" unicode="&#x170;" 
d="M1356 1352v-914q0 -112 -50 -202t-136 -146t-196 -85.5t-235 -29.5t-235 29.5t-195.5 85.5t-135.5 146t-50 202v1047q11 0 29.5 -1t66 -8t83.5 -19.5t65.5 -40t29.5 -64.5v-883q0 -135 93.5 -208t248.5 -73t248.5 73t93.5 208v1016q11 0 29.5 -1t66 -8t84 -19.5t66 -40
t29.5 -64.5zM965 1979q98 -13 139.5 -67.5t17.5 -124.5t-104 -130l-121 -90q-4 1 -11 2.5t-25 8t-33.5 13.5t-31 19t-22.5 24.5t-3 30t22 35.5l67 68q79 79 105 124t0 87zM557 1979q99 -13 144 -57t28 -103t-90 -117l-109 -86l-10 2.5t-22.5 7t-30 12.5t-27 18t-19 24
t-1.5 30.5t22 36.5q54 58 78.5 87t40 57.5t13 46t-16.5 41.5z" />
    <glyph glyph-name="uhungarumlaut" unicode="&#x171;" horiz-adv-x="1169" 
d="M389 936v-592q0 -85 46 -127.5t151 -42.5q46 0 94.5 7t73.5 15l26 7v866q6 0 15.5 -0.5t37 -3t53 -7t56 -14.5t53 -23.5t37.5 -35.5t15 -49v-961q-81 43 -185 43q-49 0 -148.5 -21.5t-156.5 -21.5q-67 0 -126.5 9.5t-117 33.5t-98.5 61t-66.5 97t-25.5 137v756
q11 0 29 -1t63.5 -9t81 -20.5t64 -39.5t28.5 -63zM801 1602q98 -13 139.5 -67.5t17.5 -124.5t-104 -130l-121 -90q-4 1 -11 2.5t-25 8t-33.5 13.5t-31 19t-22.5 24.5t-3 30t22 35.5l67 68q79 79 105 124t0 87zM393 1602q99 -13 144 -57t28 -103t-90 -117l-108 -86l-10 2.5
t-22.5 7t-30 12.5t-27 18t-19 24t-1.5 30.5t22 36.5q53 58 78 87.5t40 57t12.5 45.5t-16.5 42z" />
    <glyph glyph-name="Uogonek" unicode="&#x172;" 
d="M1356 1352v-914q0 -253 -240 -381q-105 -55 -148 -87q-118 -89 -118 -195q0 -38 24 -63t60 -25q26 0 60 12.5t54.5 24.5t20.5 14q0 -9 -2 -24t-14.5 -53.5t-33.5 -68t-64.5 -53.5t-102.5 -24q-112 0 -179 59t-67 170q0 126 150 231h-17q-125 0 -235 29.5t-195.5 85.5
t-135.5 146t-50 202v1047q11 0 29.5 -1t66 -8t83.5 -19.5t65.5 -40t29.5 -64.5v-883q0 -135 93.5 -208t248.5 -73t248.5 73t93.5 208v1016q11 0 29.5 -1t66 -8t84 -19.5t66 -40t29.5 -64.5z" />
    <glyph glyph-name="uogonek" unicode="&#x173;" horiz-adv-x="1169" 
d="M389 936v-592q0 -85 46 -127.5t151 -42.5q46 0 94.5 7t73.5 15l26 7v866q6 0 15.5 -0.5t37 -3t53 -7t56 -14.5t53 -23.5t37.5 -35.5t15 -49v-870q-64 -56 -95 -85.5t-68 -71.5t-52 -77t-15 -72q0 -33 22 -53t58 -20q31 0 65.5 12.5t53.5 25.5l18 13q0 -9 -2 -24
t-14.5 -53.5t-33.5 -68t-64.5 -53.5t-102.5 -24q-112 0 -179 59t-67 170q0 140 193 264q-17 -3 -61.5 -13t-78.5 -15t-67 -5q-67 0 -126.5 9.5t-117 33.5t-98.5 61t-66.5 97t-25.5 137v756q11 0 29 -1t63.5 -9t81 -20.5t64 -39.5t28.5 -63z" />
    <glyph glyph-name="Ydieresis" unicode="&#x178;" horiz-adv-x="1277" 
d="M502 113v497q-85 85 -157.5 198.5t-116 210t-105.5 223.5t-119 216q74 19 125 19q166 0 231 -134l95 -190q5 -11 30 -62t32 -65.5t27.5 -54t32.5 -59t29 -46.5t33 -47q22 29 47.5 73t39.5 71t48 96t43 86l101 198q68 134 231 134q19 0 50.5 -5.5t52.5 -10.5l22 -5
q-50 -84 -113.5 -212.5t-109.5 -225t-119.5 -210.5t-155.5 -198v-630q-11 0 -29.5 1t-66 8t-83.5 19.5t-65.5 40t-29.5 64.5zM691 1655v172h163q30 0 51 -19t21 -40v-170h-164q-32 0 -51.5 17t-19.5 40zM324 1655v172h164q30 0 51 -19t21 -40v-170h-164q-32 0 -52 17t-20 40
z" />
    <glyph glyph-name="Zacute" unicode="&#x179;" horiz-adv-x="1214" 
d="M1040 0h-983q-8 115 21.5 219.5t85.5 188.5t127 163t151.5 158t153.5 156.5t138.5 176t101.5 200.5h-750q0 4 0.5 11.5t3.5 28.5t8.5 40t17 42t27.5 40t41.5 28.5t57.5 11.5h907q0 -97 -24.5 -193.5t-67 -179.5t-97.5 -163.5t-117.5 -151.5t-125 -137.5t-121.5 -126.5
t-106 -113.5t-79.5 -104.5t-41.5 -93h598q77 0 133.5 8.5t73.5 17.5l18 9q-2 -36 -6 -65t-14.5 -62.5t-26.5 -56t-43 -37.5t-62 -15zM687 1979q98 -13 144.5 -68.5t27 -128t-98.5 -131.5l-121 -90l-55 17q-118 45 -84 104q6 9 15 18l67 68q79 79 105 124t0 87z" />
    <glyph glyph-name="zacute" unicode="&#x17a;" horiz-adv-x="972" 
d="M623 852h-551q0 4 0.5 11.5t3 28.5t8 40t17 42.5t27 40.5t41 28.5t56.5 11.5h713q-10 -34 -23.5 -99t-19.5 -90q-21 -77 -71.5 -152t-115 -138t-130.5 -121t-133 -125.5t-107 -126.5h604q0 -8 -1 -22t-9 -49t-22.5 -61.5t-46.5 -48.5t-75 -22h-729q-12 55 -12 88
q0 67 24 130t65.5 115.5t92.5 102t108.5 99t109.5 97t100 105t76 115.5zM547 1602q74 -10 119.5 -46t55 -82.5t-16 -101t-84.5 -98.5l-121 -90l-56 17q-118 45 -84 104q6 9 15 18l67 68q79 79 105 124t0 87z" />
    <glyph glyph-name="Zdotaccent" unicode="&#x17b;" horiz-adv-x="1214" 
d="M1040 0h-983q-8 115 21.5 219.5t85.5 188.5t127 163t151.5 158t153.5 156.5t138.5 176t101.5 200.5h-750q0 4 0.5 11.5t3.5 28.5t8.5 40t17 42t27.5 40t41.5 28.5t57.5 11.5h907q0 -97 -24.5 -193.5t-67 -179.5t-97.5 -163.5t-117.5 -151.5t-125 -137.5t-121.5 -126.5
t-106 -113.5t-79.5 -104.5t-41.5 -93h598q77 0 133.5 8.5t73.5 17.5l18 9q-2 -36 -6 -65t-14.5 -62.5t-26.5 -56t-43 -37.5t-62 -15zM504 1655v170h180q25 0 50.5 -19t25.5 -40v-170h-180q-31 0 -53.5 18t-22.5 41z" />
    <glyph glyph-name="zdotaccent" unicode="&#x17c;" horiz-adv-x="972" 
d="M623 852h-551q0 4 0.5 11.5t3 28.5t8 40t17 42.5t27 40.5t41 28.5t56.5 11.5h713q-10 -34 -23.5 -99t-19.5 -90q-21 -77 -71.5 -152t-115 -138t-130.5 -121t-133 -125.5t-107 -126.5h604q0 -8 -1 -22t-9 -49t-22.5 -61.5t-46.5 -48.5t-75 -22h-729q-12 55 -12 88
q0 67 24 130t65.5 115.5t92.5 102t108.5 99t109.5 97t100 105t76 115.5zM365 1278v170h180q25 0 50.5 -19t25.5 -40v-170h-181q-31 0 -53 18t-22 41z" />
    <glyph glyph-name="Zcaron" unicode="&#x17d;" horiz-adv-x="1214" 
d="M1040 0h-983q-8 115 21.5 219.5t85.5 188.5t127 163t151.5 158t153.5 156.5t138.5 176t101.5 200.5h-750q0 4 0.5 11.5t3.5 28.5t8.5 40t17 42t27.5 40t41.5 28.5t57.5 11.5h907q0 -97 -24.5 -193.5t-67 -179.5t-97.5 -163.5t-117.5 -151.5t-125 -137.5t-121.5 -126.5
t-106 -113.5t-79.5 -104.5t-41.5 -93h598q77 0 133.5 8.5t73.5 17.5l18 9q-2 -36 -6 -65t-14.5 -62.5t-26.5 -56t-43 -37.5t-62 -15zM498 1979q-17 -28 -10 -58t30 -60t47.5 -54t43.5 -39l20 -15q2 2 6.5 5t16.5 13t23.5 20t26.5 25t26.5 30t22 32.5t15 34t3 34t-10.5 32.5
q56 -21 94 -40.5t55 -42.5t25 -41.5t-8.5 -46t-31 -47.5t-56 -55t-72 -59t-89.5 -68q-11 -8 -16 -12h-61q-165 123 -212 169q-85 84 -53 141q30 53 165 102z" />
    <glyph glyph-name="zcaron" unicode="&#x17e;" horiz-adv-x="972" 
d="M623 852h-551q0 4 0.5 11.5t3 28.5t8 40t17 42.5t27 40.5t41 28.5t56.5 11.5h713q-10 -34 -23.5 -99t-19.5 -90q-21 -77 -71.5 -152t-115 -138t-130.5 -121t-133 -125.5t-107 -126.5h604q0 -8 -1 -22t-9 -49t-22.5 -61.5t-46.5 -48.5t-75 -22h-729q-12 55 -12 88
q0 67 24 130t65.5 115.5t92.5 102t108.5 99t109.5 97t100 105t76 115.5zM358 1602q-17 -28 -10 -58t30 -60t47.5 -54t44.5 -39l19 -15q2 2 6.5 5t16.5 13t23.5 20t26.5 25t26.5 30t22 32.5t15 34t3 34t-10.5 32.5q167 -62 174 -131q5 -56 -99 -146q-43 -37 -173 -135h-61
q-166 124 -212 169q-85 84 -54 141q30 53 165 102z" />
    <glyph glyph-name="florin" unicode="&#x192;" horiz-adv-x="1034" 
d="M410 659l-131 -831q-21 -129 -104 -223t-183 -94q-91 0 -203 112q49 0 92 27t71 70.5t46 90t25 91.5l206 1308q26 164 174 260.5t353 96.5q187 0 275.5 -45.5t88.5 -126.5q0 -51 -31.5 -113t-87.5 -115q-5 37 -10.5 60.5t-17 49t-29 39.5t-45.5 27t-69 18t-97 5
q-102 0 -164 -50.5t-77 -144.5l-50 -309h387q-1 -8 -4.5 -22t-17.5 -49t-32.5 -61.5t-52.5 -48.5t-75 -22h-237z" />
    <glyph glyph-name="Scommaaccent" unicode="&#x218;" horiz-adv-x="1339" 
d="M82 1055q0 97 30.5 172.5t83 124t128 80t160.5 44.5t186 13q538 0 538 -254q0 -85 -67 -207q0 248 -469 248q-142 0 -224.5 -46t-82.5 -145q0 -54 30.5 -90t82 -54.5t118.5 -31t141 -23.5t148 -26.5t141 -46.5t118.5 -77t82 -124t30.5 -182q0 -148 -79 -251.5
t-212.5 -152.5t-310.5 -49q-102 0 -193.5 13.5t-171.5 41.5t-127.5 80t-47.5 121q0 85 73 191q0 -57 30 -100.5t76.5 -68.5t111 -41t124 -21t125.5 -5q157 0 237.5 59t80.5 165q0 60 -30.5 102t-82 64.5t-118.5 37t-141 26.5t-147.5 26.5t-140.5 42t-118.5 68.5t-82 111.5
t-30.5 164.5zM563 -74h174q39 0 63.5 -20t24.5 -58v-4q0 -146 -41.5 -221.5t-150.5 -75.5q-76 0 -129 43q38 9 59.5 38t25 68t2 67t-6.5 55z" />
    <glyph glyph-name="scommaaccent" unicode="&#x219;" horiz-adv-x="1046" 
d="M725 315q0 46 -36.5 72t-95 35.5t-129.5 15.5t-142 20.5t-129.5 42t-95 88t-36.5 150.5q0 169 116.5 254.5t336.5 85.5q191 0 303.5 -53.5t112.5 -153.5q0 -85 -78 -184q0 91 -90 140t-227 49q-108 0 -159.5 -30t-51.5 -95q0 -35 28.5 -56.5t75 -29t106 -15.5t121 -14.5
t121 -28.5t106 -55.5t75 -97t28.5 -150.5q0 -156 -119.5 -243t-351.5 -87q-197 0 -316.5 58t-119.5 162q0 91 96 192q1 -62 32 -106t83 -66t106.5 -31.5t118.5 -9.5q49 0 93.5 11t81 44.5t36.5 85.5zM420 -74h174q39 0 63.5 -20t24.5 -58v-4q0 -70 -8.5 -121t-29.5 -92.5
t-59.5 -62.5t-95.5 -21q-76 0 -129 43q38 9 59.5 38t25 68t2 67t-6.5 55z" />
    <glyph glyph-name="uni021A" unicode="&#x21a;" horiz-adv-x="1181" 
d="M983 1262h-258v-1282q-11 0 -29.5 1t-66 8t-83.5 19.5t-65.5 40t-29.5 64.5v1149h-252q-49 0 -85.5 14.5t-57 37t-32.5 55.5t-16 62.5t-4 65.5q71 -33 227 -33h719q69 0 126 8t80 16l22 9q0 -36 -4 -65.5t-16 -62.5t-32.5 -55.5t-57 -37t-85.5 -14.5zM477 -74h174
q39 0 63.5 -20t24.5 -58v-4q0 -146 -41.5 -221.5t-150.5 -75.5q-76 0 -129 43q38 9 59.5 38t25 68t2 67t-6.5 55z" />
    <glyph glyph-name="uni021B" unicode="&#x21b;" horiz-adv-x="911" 
d="M125 336v917q22 0 39 -1t52.5 -5t61.5 -15.5t53.5 -29.5t42.5 -50t15 -73v-73h418q0 -8 -1 -21.5t-9.5 -48.5t-23 -61.5t-45.5 -48t-73 -21.5h-266v-412q0 -110 42 -163.5t153 -53.5q102 0 171.5 51t69.5 164q86 -95 86 -182q0 -100 -94 -167t-270 -67q-201 0 -311.5 95
t-110.5 266zM403 -74h175q39 0 63.5 -20t24.5 -58v-4q0 -70 -8.5 -121t-29.5 -92.5t-59.5 -62.5t-95.5 -21q-76 0 -129 43q38 9 59.5 38t25 68t2 67t-6.5 55z" />
    <glyph glyph-name="circumflex" unicode="&#x2c6;" horiz-adv-x="1001" 
d="M657 1190q17 28 10 58t-30 60t-47.5 53.5t-43.5 38.5l-20 15q-2 -2 -6.5 -5t-16.5 -12.5t-23.5 -20t-26.5 -25.5t-26.5 -29.5t-22 -32t-15 -34t-3 -34t10.5 -32.5q-57 21 -95.5 41.5t-56 43t-23.5 42.5t10.5 47t37 49.5t65.5 56.5t85 61.5t106 70.5q66 -43 106.5 -70
t85.5 -61t65.5 -56.5t37.5 -49.5t11.5 -47.5t-23 -43t-56 -43t-96.5 -41.5z" />
    <glyph glyph-name="caron" unicode="&#x2c7;" horiz-adv-x="1001" 
d="M455 1602q-17 -28 -10 -58t30 -60t47.5 -54t43.5 -39l20 -15q2 2 6.5 5t16.5 13t23.5 20t26.5 25t26.5 30t22 32.5t15 34t3 34t-10.5 32.5q56 -21 94 -40.5t55 -42.5t25 -41.5t-8.5 -46t-31 -47.5t-56 -55t-72 -59t-89.5 -68q-11 -8 -16 -12h-61q-165 123 -212 169
q-85 84 -53 141q30 53 165 102z" />
    <glyph glyph-name="breve" unicode="&#x2d8;" horiz-adv-x="1169" 
d="M588 1364q83 0 131.5 43.5t48.5 112.5q0 35 -16 75q67 -21 102 -69t35 -107q0 -89 -80 -158t-219 -69q-143 0 -224 68t-81 159q0 59 35 107t102 69q-16 -40 -16 -75q0 -69 49 -112.5t133 -43.5z" />
    <glyph glyph-name="dotaccent" unicode="&#x2d9;" horiz-adv-x="497" 
d="M117 1278v170h180q25 0 50.5 -19t25.5 -40v-170h-180q-31 0 -53.5 18t-22.5 41z" />
    <glyph glyph-name="ring" unicode="&#x2da;" horiz-adv-x="698" 
d="M420 1346v53q0 49 -72 49q-41 0 -54 -12t-13 -37v-53q0 -26 13 -37t54 -11t56.5 11.5t15.5 36.5zM559 1421v-98q0 -64 -56 -98.5t-153 -34.5q-96 0 -152.5 35t-56.5 98v98q0 62 57 98.5t152 36.5q96 0 152.5 -36t56.5 -99z" />
    <glyph glyph-name="ogonek" unicode="&#x2db;" horiz-adv-x="1705" 
d="M799 86l114 -37l-56 -35q-161 -109 -187 -213q-4 -17 -4 -34q0 -36 24.5 -58t63.5 -22q27 0 59 6.5t51.5 14t18.5 9.5q1 -78 -71 -141t-163 -63q-92 0 -160.5 59t-68.5 160q0 57 25.5 108.5t67.5 88.5t86 66.5t90.5 49t71.5 28.5t37 13h1z" />
    <glyph glyph-name="tilde" unicode="&#x2dc;" horiz-adv-x="796" 
d="M111 1245q-20 30 -22 71t11.5 78t46.5 63t76 26q54 0 184.5 -47t192.5 -47q36 0 57.5 11.5t42.5 41.5q19 -33 22 -74.5t-8.5 -78.5t-44.5 -62t-81 -25q-56 0 -185.5 47t-189.5 47q-39 0 -60.5 -11.5t-41.5 -39.5z" />
    <glyph glyph-name="hungarumlaut" unicode="&#x2dd;" horiz-adv-x="958" 
d="M709 1602q98 -13 139.5 -67.5t17.5 -124.5t-104 -130l-121 -90q-4 1 -11 2.5t-25 8t-33.5 13.5t-31 19t-22.5 24.5t-3 30t22 35.5l67 68q79 79 105 124t0 87zM301 1602q99 -13 144 -57t28 -103t-90 -117l-109 -86l-10 2.5t-22.5 7t-30 12.5t-27 18t-19 24t-1.5 30.5
t22 36.5q54 58 78.5 87t40 57.5t13 46t-16.5 41.5z" />
    <glyph glyph-name="Omega" unicode="&#x3a9;" horiz-adv-x="2279" 
d="M1073 653v160q0 128 36 231.5t111.5 168.5t180.5 65q37 0 69 -6.5t65 -22.5t53.5 -50t23.5 -83q-68 60 -146 60q-118 0 -185 -104t-67 -263v-160q0 -128 -35.5 -231.5t-111 -168.5t-180.5 -65q-37 0 -69 6.5t-65 22.5t-53.5 50t-23.5 83q67 -59 145 -59q118 0 185 103.5
t67 262.5zM567 1266q-43 -76 -43 -138q0 -46 25.5 -85t66.5 -69t90.5 -58.5t99.5 -60.5t91 -67.5t66.5 -87t25.5 -112.5q0 -101 -61.5 -161t-145.5 -60q-85 0 -145 57q2 -14 2 -43q-7 -83 -75.5 -141t-151.5 -58q-91 0 -163.5 42.5t-117 113.5t-67.5 157.5t-23 178.5
q0 87 21 172t63 161t100.5 134.5t139.5 92.5t174 34q5 0 14.5 -1t13.5 -1zM1712 203q43 76 43 137q0 40 -20 76t-52.5 62t-74.5 53.5t-85.5 51t-85.5 55t-74.5 64t-52.5 79t-20 100.5q0 101 61.5 161t145.5 60t145 -58q-2 14 -2 43q7 83 75.5 141t152.5 58q91 0 163.5 -42.5
t116.5 -113.5t67 -156.5t23 -178.5q0 -87 -20.5 -172t-63 -161t-100.5 -134.5t-139 -92.5t-174 -34q-5 0 -15 1t-14 1z" />
    <glyph glyph-name="Omega" unicode="&#x2126;" horiz-adv-x="2279" 
d="M1073 653v160q0 128 36 231.5t111.5 168.5t180.5 65q37 0 69 -6.5t65 -22.5t53.5 -50t23.5 -83q-68 60 -146 60q-118 0 -185 -104t-67 -263v-160q0 -128 -35.5 -231.5t-111 -168.5t-180.5 -65q-37 0 -69 6.5t-65 22.5t-53.5 50t-23.5 83q67 -59 145 -59q118 0 185 103.5
t67 262.5zM567 1266q-43 -76 -43 -138q0 -46 25.5 -85t66.5 -69t90.5 -58.5t99.5 -60.5t91 -67.5t66.5 -87t25.5 -112.5q0 -101 -61.5 -161t-145.5 -60q-85 0 -145 57q2 -14 2 -43q-7 -83 -75.5 -141t-151.5 -58q-91 0 -163.5 42.5t-117 113.5t-67.5 157.5t-23 178.5
q0 87 21 172t63 161t100.5 134.5t139.5 92.5t174 34q5 0 14.5 -1t13.5 -1zM1712 203q43 76 43 137q0 40 -20 76t-52.5 62t-74.5 53.5t-85.5 51t-85.5 55t-74.5 64t-52.5 79t-20 100.5q0 101 61.5 161t145.5 60t145 -58q-2 14 -2 43q7 83 75.5 141t152.5 58q91 0 163.5 -42.5
t116.5 -113.5t67 -156.5t23 -178.5q0 -87 -20.5 -172t-63 -161t-100.5 -134.5t-139 -92.5t-174 -34q-5 0 -15 1t-14 1z" />
    <glyph glyph-name="pi" unicode="&#x3c0;" horiz-adv-x="2279" 
d="M1073 442v160q0 128 36 231.5t111.5 168.5t180.5 65q37 0 69 -6.5t65 -22.5t53.5 -50t23.5 -83q-68 60 -146 60q-118 0 -185 -104t-67 -263v-160q0 -128 -35.5 -231.5t-111 -168.5t-180.5 -65q-37 0 -69 6.5t-65 22.5t-53.5 50t-23.5 83q67 -59 145 -59q118 0 185 103.5
t67 262.5zM567 1055q-43 -76 -43 -137q0 -40 20 -76t52.5 -62t74.5 -53.5t85.5 -51t85.5 -55t74.5 -64t52.5 -79t20 -100.5q0 -101 -61.5 -161t-145.5 -60q-85 0 -145 57q2 -14 2 -43q-7 -83 -75.5 -141t-151.5 -58q-91 0 -163.5 42.5t-117 113.5t-67.5 157.5t-23 178.5
q0 87 21 172t63 161t100.5 134.5t139.5 92.5t174 34q5 0 14.5 -1t13.5 -1zM1712 -8q43 76 43 137q0 40 -20 76t-52.5 62t-74.5 53.5t-85.5 51t-85.5 55t-74.5 64t-52.5 79t-20 100.5q0 101 61.5 161t145.5 60q85 0 145 -57q-2 14 -2 43q7 83 75.5 140.5t152.5 57.5
q91 0 163.5 -42.5t116.5 -113.5t67 -156.5t23 -178.5q0 -87 -20.5 -172t-63 -161t-100.5 -134.5t-139 -92.5t-174 -34q-5 0 -15 1t-14 1z" />
    <glyph glyph-name="endash" unicode="&#x2013;" horiz-adv-x="1495" 
d="M164 629h1282q1 -4 2.5 -11.5t3 -29.5t0.5 -41.5t-8 -44t-19.5 -41.5t-36.5 -29t-57 -12h-1284q-1 4 -2 11.5t-2.5 29.5t0 41.5t8.5 44t19.5 41.5t36.5 29t57 12z" />
    <glyph glyph-name="emdash" unicode="&#x2014;" horiz-adv-x="1693" 
d="M164 629h1481q1 -4 2.5 -11.5t3 -29.5t0.5 -41.5t-8 -44t-19.5 -41.5t-36.5 -29t-57 -12h-1483q-1 4 -2 11.5t-2.5 29.5t0 41.5t8.5 44t19.5 41.5t36.5 29t57 12z" />
    <glyph glyph-name="quoteleft" unicode="&#x2018;" horiz-adv-x="524" 
d="M389 977h-67h-107q-39 0 -63.5 20t-24.5 58v112q0 146 41.5 221.5t150.5 75.5q77 0 130 -43q-40 -10 -64.5 -39t-30.5 -67t-6 -66t4 -55z" />
    <glyph glyph-name="quoteright" unicode="&#x2019;" horiz-adv-x="524" 
d="M135 1464h68h106q39 0 63.5 -20t24.5 -58v-112q0 -146 -41.5 -221.5t-150.5 -75.5q-76 0 -129 43q40 10 64 39t30 67t6 66t-4 55z" />
    <glyph glyph-name="quotesinglbase" unicode="&#x201a;" horiz-adv-x="524" 
d="M135 256h68h106q39 0 63.5 -20t24.5 -58v-112q0 -146 -41.5 -221.5t-150.5 -75.5q-76 0 -129 43q40 10 64 39t30 67t6 66t-4 55z" />
    <glyph glyph-name="quotedblleft" unicode="&#x201c;" horiz-adv-x="894" 
d="M389 977h-67h-107q-39 0 -63.5 20t-24.5 58v112q0 146 41.5 221.5t150.5 75.5q77 0 130 -43q-40 -10 -64.5 -39t-30.5 -67t-6 -66t4 -55zM760 977h-68h-106q-39 0 -63.5 20t-24.5 58v112q0 71 8.5 121.5t29 92t59 62.5t95.5 21q76 0 129 -43q-40 -10 -64 -39t-30 -67
t-6 -66t4 -55z" />
    <glyph glyph-name="quotedblright" unicode="&#x201d;" horiz-adv-x="894" 
d="M135 1464h68h106q39 0 63.5 -20t24.5 -58v-112q0 -146 -41.5 -221.5t-150.5 -75.5q-76 0 -129 43q40 10 64 39t30 67t6 66t-4 55zM506 1464h67h107q39 0 63.5 -20t24.5 -58v-112q0 -70 -8.5 -121t-29.5 -92.5t-59.5 -62.5t-95.5 -21q-76 0 -129 43q40 10 64.5 39t30.5 67
t6 66t-4 55z" />
    <glyph glyph-name="quotedblbase" unicode="&#x201e;" horiz-adv-x="894" 
d="M135 256h68h106q39 0 63.5 -20t24.5 -58v-112q0 -146 -41.5 -221.5t-150.5 -75.5q-76 0 -129 43q40 10 64 39t30 67t6 66t-4 55zM506 256h67h107q39 0 63.5 -20t24.5 -58v-112q0 -70 -8.5 -121t-29.5 -92.5t-59.5 -62.5t-95.5 -21q-76 0 -129 43q40 10 64.5 39t30.5 67
t6 66t-4 55z" />
    <glyph glyph-name="dagger" unicode="&#x2020;" horiz-adv-x="860" 
d="M143 1055h156v512q11 0 29 -1t63.5 -8t81 -19.5t64 -40t28.5 -64.5v-379h269q6 -29 6 -64q0 -26 -5 -49t-17 -46t-37.5 -36.5t-61.5 -13.5h-154v-1342q-11 0 -29 1t-63.5 8t-81 20t-64 40.5t-28.5 64.5v1208h-272q-7 24 -7 59q0 26 5 49.5t17 47.5t38 38.5t63 14.5z" />
    <glyph glyph-name="daggerdbl" unicode="&#x2021;" horiz-adv-x="862" 
d="M143 209h156v637h-272q-1 4 -2 11.5t-2.5 29.5t-0.5 41.5t8 44t19.5 41.5t36.5 29t57 12h156v512q11 0 29 -1t63.5 -8t81 -19.5t64 -40t28.5 -64.5v-379h269q1 -4 2.5 -11.5t3 -29.5t0.5 -41.5t-8 -44t-19.5 -41.5t-36.5 -29t-57 -12h-154v-637h269q1 -4 2.5 -11.5
t3 -29.5t0.5 -41.5t-8 -44t-19.5 -41.5t-36.5 -29t-57 -12h-154v-496q-11 0 -29 1t-63.5 8t-81 20t-64 40.5t-28.5 64.5v362h-272q-1 4 -2 11.5t-2.5 29.5t-0.5 41.5t8 44t19.5 41.5t36.5 29t57 12z" />
    <glyph glyph-name="bullet" unicode="&#x2022;" horiz-adv-x="997" 
d="M895 625v-199q0 -140 -99 -216.5t-298 -76.5t-297.5 76.5t-98.5 216.5v199q0 140 98 215t298 75t298.5 -75t98.5 -215z" />
    <glyph glyph-name="ellipsis" unicode="&#x2026;" horiz-adv-x="1505" 
d="M127 63v193h168q32 0 56 -19.5t24 -43.5v-193h-166q-34 0 -58 18.5t-24 44.5zM629 63v193h168q32 0 56 -19.5t24 -43.5v-193h-166q-34 0 -58 18.5t-24 44.5zM1130 63v193h168q32 0 56 -19.5t24 -43.5v-193h-166q-34 0 -58 18.5t-24 44.5z" />
    <glyph glyph-name="perthousand" unicode="&#x2030;" horiz-adv-x="2113" 
d="M2044 850v-234q0 -102 -89 -156t-243 -54q-78 0 -133 12q10 -18 10 -51v-177q0 -102 -89 -156t-243 -54t-242.5 54t-88.5 156v234q0 101 89.5 159t241.5 58q77 0 132 -18q-9 26 -9 63v164q0 101 90 159t242 58t242 -58t90 -159zM733 1266v-234q0 -102 -89 -156.5
t-243 -54.5t-242.5 54.5t-88.5 156.5v234q0 101 89.5 159t241.5 58t242 -58t90 -159zM317 375l949 948q32 -32 50 -52.5t37 -54t19 -61.5q0 -41 -37 -78l-948 -948q-104 100 -104 168q0 44 34 78zM1366 244v133q0 47 -23 70.5t-86 23.5q-64 0 -86 -23t-22 -71v-133
q0 -49 21.5 -71.5t86.5 -22.5q64 0 86.5 23t22.5 71zM510 1085v134q0 47 -23 70.5t-86 23.5q-64 0 -86 -23t-22 -71v-134q0 -49 21.5 -71.5t86.5 -22.5q64 0 86.5 23t22.5 71zM1821 670v133q0 47 -23 70.5t-86 23.5q-64 0 -86 -23t-22 -71v-133q0 -49 22 -72t86 -23
q63 0 86 23.5t23 71.5z" />
    <glyph glyph-name="guilsinglleft" unicode="&#x2039;" horiz-adv-x="874" 
d="M356 522l375 -375q-20 -41 -60.5 -71t-87 -35.5t-85.5 31.5l-336 336q-59 58 -58.5 114.5t60.5 116.5l411 412q29 -18 50 -33t43 -37.5t30.5 -43.5t2.5 -47.5t-31 -51.5z" />
    <glyph glyph-name="guilsinglright" unicode="&#x203a;" horiz-adv-x="874" 
d="M143 147l375 375l-313 316q-31 31 -34.5 62.5t19 59.5t47.5 48.5t62 42.5l412 -412q117 -117 2 -231l-336 -336q-40 -37 -86 -31.5t-87 35.5t-61 71z" />
    <glyph glyph-name="fraction" unicode="&#x2044;" horiz-adv-x="1165" 
d="M61 362l969 965q25 -24 43.5 -44t38 -49.5t26 -55.5t-0.5 -55.5t-33 -55.5l-969 -965q-34 32 -56 58.5t-41.5 62.5t-14 71.5t37.5 67.5z" />
    <glyph glyph-name="Euro" unicode="&#x20ac;" horiz-adv-x="1318" 
d="M715 1276q-155 0 -234.5 -68t-83.5 -231h643q0 -8 -1 -20.5t-11.5 -45t-28.5 -57.5t-58 -45.5t-95 -20.5h-449v-139h521q0 -8 -1 -20.5t-11.5 -45t-29 -57t-58.5 -45t-95 -20.5h-324q21 -275 316 -275q91 0 181 24.5t152.5 71.5t63.5 105q64 -94 64 -168q0 -72 -67 -129
t-171.5 -86t-222.5 -29q-95 0 -179.5 16.5t-161 54t-131.5 94.5t-87.5 143.5t-32.5 195.5v506q0 136 45.5 235.5t128.5 157t186.5 84.5t231.5 27q51 0 105.5 -7t112.5 -24.5t103 -43.5t74 -67.5t29 -93.5q0 -86 -80 -202q0 59 -35 104.5t-89.5 70.5t-111 37.5t-108.5 12.5z
" />
    <glyph glyph-name="trademark" unicode="&#x2122;" horiz-adv-x="2244" 
d="M766 1110v186h-143v-645q-10 0 -26 0.5t-57 6.5t-72.5 16t-57 31.5t-25.5 50.5v540h-139v-186q-7 1 -18 3.5t-39 12t-50 21t-39.5 32.5t-17.5 46v239h846v-239q0 -25 -16.5 -45.5t-40.5 -33t-48 -21t-41 -11.5zM1853 756v315l-206 -295q-17 1 -44.5 4.5t-85 25.5
t-83.5 58l-146 195v-408q-10 0 -26 0.5t-56.5 6.5t-72 16t-57 31.5t-25.5 50.5v708h137q4 0 12 -0.5t30 -5.5t41.5 -13t43 -25.5t39.5 -41.5l219 -323l272 409h72q7 0 19 -0.5t42 -6t52.5 -15.5t41.5 -31.5t19 -50.5v-709q-10 0 -26 0.5t-57 6.5t-72.5 16t-57 31.5
t-25.5 50.5z" />
    <glyph glyph-name="partialdiff" unicode="&#x2202;" horiz-adv-x="1609" 
d="M997 1063h-872q-29 0 -50 13t-31 31.5t-16 37.5t-7 32l-1 13h1004q188 0 305 -89.5t117 -236.5q0 -72 -32.5 -124.5t-92.5 -59.5q29 63 29 123q0 118 -90 187.5t-263 72.5zM580 276q14 -2 38 -2q68 0 112 27t64.5 72.5t32.5 101.5t22.5 117t26.5 115t52 100.5t92 69.5
q43 16 82 16q75 0 131.5 -53t56.5 -140q0 -37 -12 -67q50 18 94 18q98 0 157.5 -73.5t59.5 -167.5q0 -95 -51 -176.5t-133 -134t-180.5 -82t-196.5 -29.5q-104 0 -195 30t-160.5 96.5t-92.5 161.5z" />
    <glyph glyph-name="product" unicode="&#x220f;" horiz-adv-x="1609" 
d="M1030 276q-23 -95 -92.5 -161.5t-160.5 -96.5t-195 -30q-98 0 -197 29.5t-180.5 82t-133 134t-51.5 176.5q0 94 60 167.5t158 73.5q44 0 94 -18q-13 33 -13 67q0 87 57 140t132 53q39 0 82 -16q56 -23 92 -69.5t52 -100.5t26 -115t22 -117t32.5 -101.5t64.5 -72.5
t112 -27q25 0 39 2zM1485 1063h-873q-173 -3 -262.5 -72t-89.5 -188q0 -60 29 -123q-60 7 -92.5 59.5t-32.5 124.5q0 147 117 236.5t305 89.5h1003q0 -5 -1 -13.5t-6.5 -30.5t-15.5 -39t-31 -30.5t-50 -13.5z" />
    <glyph glyph-name="summation" unicode="&#x2211;" horiz-adv-x="1742" 
d="M809 14q41 72 41 127q0 43 -24 79.5t-62 64t-84 54.5t-92 56.5t-84 62.5t-62 80.5t-24 104.5q0 94 57 149.5t135 55.5q79 0 135 -53q-2 14 -2 41q7 77 70.5 130.5t140.5 53.5q68 0 125 -26t97 -70.5t68 -103.5t41 -124t13 -133q0 -101 -31 -198.5t-88 -176.5
t-146.5 -127.5t-196.5 -48.5q-4 0 -13.5 1t-13.5 1zM143 268v363q0 190 88 312t234 122q84 0 137.5 -32.5t63.5 -96.5q-57 29 -121 29q-123 0 -197 -91t-74 -270v-309q0 -83 25.5 -154t78 -129t143 -91.5t210.5 -33.5h264q119 0 211.5 33.5t148.5 91t84.5 129.5t28.5 154
v450q0 180 -72 270.5t-194 90.5q-53 0 -121 -21q10 58 63.5 87.5t137.5 29.5q146 0 231.5 -119.5t85.5 -310.5v-504q0 -220 -161.5 -359.5t-444.5 -139.5h-264q-141 0 -253.5 38t-184.5 105t-110 157.5t-38 198.5z" />
    <glyph glyph-name="minus" unicode="&#x2212;" horiz-adv-x="1067" 
d="M246 659h690q1 -4 2.5 -11.5t3 -29.5t0.5 -41.5t-8 -43.5t-19.5 -41t-36.5 -29t-57 -12h-692q-1 4 -2 11.5t-2.5 29.5t0 41.5t8.5 43.5t19.5 41t36.5 29t57 12z" />
    <glyph glyph-name="radical" unicode="&#x221a;" horiz-adv-x="1228" 
d="M279 426q39 65 120 127q-48 10 -82 10q-129 0 -221 -114q-24 71 -24 157q0 76 56 131.5t179 55.5q71 0 174 -39q-56 178 -239 213q4 5 10.5 13t28.5 28.5t45 36.5t58.5 29t70.5 13t69.5 -15.5t69 -48.5t61 -94t37.5 -143q86 93 86 197q0 54 -20 115q10 -1 25.5 -3.5
t56 -16t71.5 -34t56.5 -61t25.5 -92.5q0 -64 -42 -135.5t-124 -139.5q43 -14 86 -14q125 0 220 115q24 -68 24 -154q0 -35 -12 -66t-38 -59t-74 -44.5t-113 -16.5q-70 0 -177 39q29 -90 85.5 -144.5t158.5 -68.5q-4 -5 -11 -13t-29.5 -29t-46 -37t-59 -29t-69.5 -13
t-67.5 14.5t-67.5 47t-62 94.5t-43 147q-86 -96 -86 -197q0 -49 25 -116q-10 1 -26 3.5t-57.5 16.5t-73 34.5t-57.5 60.5t-26 92q0 61 48 147z" />
    <glyph glyph-name="infinity" unicode="&#x221e;" horiz-adv-x="1388" 
d="M694 1516q105 102 105 184q0 45 -25 92q51 -17 87.5 -33t75 -39.5t59 -54t20.5 -66.5q0 -34 -25.5 -75.5t-77.5 -81.5l-55 -43q52 -52 98.5 -107.5t101.5 -135.5t94.5 -160t66 -179t26.5 -194v-643q-15 0 -35.5 1t-66.5 8.5t-81 20t-63 39.5t-28 64v440h-553v-573
q-15 0 -36 1t-67 8.5t-81 20t-63 39.5t-28 64v510q0 120 38.5 241t102.5 223t122.5 174.5t123.5 137.5l-55 45v-2q-104 86 -104 157q0 36 21 66.5t59.5 54t76 40t86.5 32.5q-24 -45 -24 -92q0 -87 104 -184zM963 750q-26 136 -110.5 281.5t-160.5 234.5q-46 -49 -97 -120
t-105 -183.5t-66 -212.5h539z" />
    <glyph glyph-name="integral" unicode="&#x222b;" horiz-adv-x="1742" 
d="M934 14q-4 0 -13.5 -1t-13.5 -1q-107 0 -197 48.5t-146.5 127.5t-88 176.5t-31.5 198.5q0 68 13 133t41 124t68 103.5t97 70.5t125 26q77 0 140.5 -53.5t70.5 -130.5q0 -27 -2 -41q56 53 136 53q78 0 135 -55.5t57 -149.5q0 -57 -24 -104.5t-62 -80.5t-84 -62.5
t-92 -56.5t-84 -54.5t-62 -64t-24 -79.5q0 -55 41 -127zM1599 631v-363q0 -108 -38 -198.5t-110 -157.5t-184 -105t-253 -38h-264q-283 0 -445 139.5t-162 359.5v504q0 190 86 310t232 120q84 0 137.5 -29.5t63.5 -87.5q-68 21 -121 21q-122 0 -194.5 -91t-72.5 -270v-450
q0 -82 28.5 -154t84.5 -129.5t149 -91t212 -33.5h264q120 0 210.5 33.5t142.5 91.5t77.5 129t25.5 154v309q0 179 -73.5 270t-196.5 91q-64 0 -121 -29q10 64 63.5 96.5t137.5 32.5q146 0 233.5 -122t87.5 -312z" />
    <glyph glyph-name="approxequal" unicode="&#x2248;" horiz-adv-x="1349" 
d="M295 911q128 0 382.5 -53t387.5 -53q40 0 65 3.5t65 25.5t77 65q76 -301 -217 -301q-129 0 -383 53.5t-385 53.5q-62 0 -110 -16.5t-95 -67.5q-44 140 11 215t202 75zM295 524q128 0 382.5 -53t387.5 -53q40 0 65 3.5t65 25.5t77 65q76 -301 -217 -301q-129 0 -383 53
t-385 53q-62 0 -110 -16.5t-95 -67.5q-44 140 11 215.5t202 75.5z" />
    <glyph glyph-name="notequal" unicode="&#x2260;" horiz-adv-x="1030" 
d="M246 807h274l68 250l15 -2.5t31.5 -9.5t38.5 -19.5t26 -33t3 -48.5l-36 -137h235q5 -46 3.5 -90t-31 -75.5t-85.5 -31.5h-174l-43 -159h330q5 -46 3.5 -90t-31 -75.5t-85.5 -31.5h-268l-67 -256q-6 1 -15.5 2.5t-32.5 9.5t-39.5 19t-26.5 32.5t-3 47.5l39 145h-242
q-24 72 6 134.5t107 62.5h180l43 159h-336q-24 72 6 134.5t107 62.5z" />
    <glyph glyph-name="lessequal" unicode="&#x2264;" horiz-adv-x="878" 
d="M377 819l336 -336q-22 -44 -65.5 -76t-92 -37.5t-90.5 33.5l-295 295q-66 66 -66.5 119t68.5 125l375 375q38 -23 63.5 -43.5t50.5 -51t22 -64t-36 -66.5zM244 209h522q21 -82 -6.5 -145.5t-112.5 -63.5h-522q-25 75 6.5 142t112.5 67z" />
    <glyph glyph-name="greaterequal" unicode="&#x2265;" horiz-adv-x="868" 
d="M135 483l336 336l-270 273q-33 33 -36 66.5t22 64t50.5 51t63.5 43.5l375 -375q69 -72 68.5 -125t-66.5 -119l-295 -295q-42 -39 -90.5 -33.5t-92 37.5t-65.5 76zM233 209h523q21 -82 -6.5 -145.5t-112.5 -63.5h-522q-25 75 6 142t112 67z" />
    <glyph glyph-name="lozenge" unicode="&#x25ca;" horiz-adv-x="1705" 
d="M387 1255l51 -47q40 4 66 4q147 0 424.5 -62t378.5 -118l51 27q92 47 92 96q0 22 -16 53q155 -75 155 -153q0 -54 -78 -99l-77 -47q26 -68 28 -102l51 -461q3 -27 3 -53q0 -145 -108 -224t-327 -79q-94 0 -198 14q-343 42 -518 171t-175 321q0 7 5 57l61 479q8 56 37 105
l-84 77q-99 89 -96 146q0 25 17.5 43t47 27.5t60.5 13.5t65 4q-24 -17 -24 -43q0 -50 108 -150zM676 295l422 -62q3 0 10 -1t10 -1q66 0 95.5 34t29.5 87q0 13 -4 41l-16 56q-24 -27 -47.5 -36.5t-65.5 -9.5l-451 72q-40 10 -65 28.5t-53 53.5l-17 -51q-4 -28 -4 -41
q0 -61 36.5 -107t119.5 -63zM1239 707l-10 149l-182 37q-48 0 -48 -35l2 -151l187 -35h10q18 0 29.5 7.5t11.5 20.5v7zM541 987l-11 -156q0 -18 16 -33.5t40 -21.5l198 -33l4 156q0 14 -15.5 30.5t-35.5 20.5z" />
    <glyph glyph-name="st" unicode="&#xfb06;" horiz-adv-x="1957" 
d="M725 315q0 46 -36.5 72t-95 35.5t-129.5 15.5t-142 20.5t-129.5 42t-95 88t-36.5 150.5q0 169 116.5 254.5t336.5 85.5q119 0 203 -20q-20 97 24.5 171t127.5 110t186 36q63 0 118.5 -11.5t104 -37.5t83.5 -65.5t55 -98t20 -131.5v-26h417q0 -8 -1 -21.5t-9.5 -48.5
t-22.5 -61.5t-45 -48t-73 -21.5h-266v-412q0 -111 41.5 -164t152.5 -53q47 0 88.5 11t77 34.5t56 67t20.5 102.5q86 -95 86 -182q0 -100 -94.5 -167t-270.5 -67q-201 0 -311.5 95t-110.5 266l-2 645q0 205 -151 205q-94 0 -125.5 -61.5t-7.5 -143.5h-2q47 -44 47 -109
q0 -85 -78 -184q0 91 -90 140t-227 49q-108 0 -159.5 -30t-51.5 -95q0 -35 28.5 -56.5t75 -29t106 -15.5t121 -14.5t121 -28.5t106 -55.5t75 -97t28.5 -150.5q0 -156 -119.5 -243t-351.5 -87q-197 0 -316.5 58t-119.5 162q0 91 96 192q1 -62 32 -106t83 -66t106.5 -31.5
t118.5 -9.5q49 0 93.5 11t81 44.5t36.5 85.5z" />
    <glyph glyph-name="CR" horiz-adv-x="573" 
 />
    <glyph glyph-name="kreska" horiz-adv-x="1001" 
d="M371 1247q59 231 59 242q0 46 -55 94q79 14 100 14q72 0 117 -32t45 -103q0 -30 -24.5 -96.5t-48.5 -117.5l-25 -52q-37 -18 -74 -18q-16 0 -32.5 3t-34 10t-25.5 21.5t-2 34.5z" />
    <glyph glyph-name="ct" horiz-adv-x="1953" 
d="M1432 1032v-26h417q0 -8 -1 -21.5t-9.5 -48.5t-22.5 -61.5t-45 -48t-73 -21.5h-266v-412q0 -111 41.5 -164t152.5 -53q47 0 88.5 11t77 34.5t56 67t20.5 102.5q86 -95 86 -182q0 -100 -94.5 -167t-270.5 -67q-201 0 -311.5 95t-110.5 266l-2 645q0 205 -151 205
q-47 0 -80 -17.5t-46 -45t-16.5 -63t7.5 -71.5q117 -110 -25 -301q0 97 -73 144t-206 47q-41 0 -76 -10.5t-65 -33.5t-47.5 -66t-17.5 -101v-281q0 -207 206 -207q152 0 246.5 58t96.5 151q63 -89 63 -168q0 -110 -114 -178t-292 -68q-219 0 -346 96.5t-127 264.5v383
q0 168 121 264t332 96q89 0 158 -14q-26 142 76.5 226.5t261.5 84.5q63 0 118.5 -11.5t104 -37.5t83.5 -65.5t55 -98t20 -131.5z" />
    <glyph glyph-name="apple" horiz-adv-x="2086" 
d="M2015 856v-516l-229 -135v-283l-494 -262l-245 131l-250 -131l-494 262v283l-231 135v516l231 133v281l494 264l250 -133l245 133l494 -264v-281zM1921 365v464l-209 121v254l-446 236l-219 -121l-226 121l-444 -236v-254l-211 -121v-464l211 -119v-256l444 -238l226 123
l219 -123l446 238v256zM1833 805v-416l-188 -110v-228l-400 -213l-198 109l-205 -109l-398 213v228l-186 110v416l186 110v228l398 213l205 -111l198 111l400 -213v-228zM754 1087v-892q0 -31 20 -54t48 -33.5t56 -16.5t48 -7h20v428h260q40 0 69.5 16t43 38.5t21.5 45
t9 38.5l1 16h-404v272h383q29 0 50 15.5t30.5 37t15.5 43.5t7 38v15h-678z" />
    <glyph glyph-name="commaaccent" horiz-adv-x="512" 
d="M125 -74h174q39 0 63.5 -20t24.5 -58v-4q0 -146 -41.5 -221.5t-150.5 -75.5q-76 0 -129 43q38 9 59.5 37.5t25 68t1.5 67.5t-7 55z" />
    <glyph glyph-name="f.alt" horiz-adv-x="745" 
d="M123 119v1128q0 160 90.5 255t241.5 95q180 0 219 -155q-75 0 -127 -11.5t-83 -31t-48 -54.5t-22 -73t-5 -96v-170h367q0 -8 -1 -22t-9.5 -49t-23 -61.5t-46 -48.5t-74.5 -22h-213v-817q-11 0 -29 1t-63.5 8t-81 19.5t-64 40t-28.5 64.5z" />
    <glyph glyph-name="ff.alt" horiz-adv-x="1490" 
d="M868 119v684h-479v-817q-11 0 -29 1t-63.5 8t-81 19.5t-64 40t-28.5 64.5v1067q0 109 66.5 192.5t172 125.5t230.5 42q228 0 323 -102q42 73 115.5 113t169.5 40q180 0 219 -155q-75 0 -127 -11.5t-83 -31t-47.5 -54.5t-21.5 -73t-5 -96v-170h366q0 -4 -0.5 -11.5
t-3.5 -28.5t-8.5 -40t-17 -42.5t-27 -40.5t-40.5 -28.5t-56 -11.5h-213v-817q-6 0 -15.5 0.5t-37 3t-53 7t-56 14.5t-53 23.5t-37.5 35.5t-15 49zM389 1141v-135h479v165q-3 48 -27.5 82.5t-64 53t-82.5 26.5t-92 8q-98 0 -155.5 -54t-57.5 -146z" />
    <glyph glyph-name="f.alt2" horiz-adv-x="745" 
d="M123 119v1149q0 107 67.5 191.5t166.5 126.5t204 42q89 0 164.5 -23.5t122.5 -69t47 -103.5q0 -86 -107 -179q-11 89 -71.5 129.5t-141.5 40.5q-76 0 -131 -47.5t-55 -138.5v-231h367q0 -8 -1 -22t-9.5 -49t-23 -61.5t-46 -48.5t-74.5 -22h-213v-817q-11 0 -29 1t-63.5 8
t-81 19.5t-64 40t-28.5 64.5z" />
    <glyph glyph-name="ff.alt2" horiz-adv-x="1490" 
d="M868 119v684h-479v-817q-11 0 -29 1t-63.5 8t-81 19.5t-64 40t-28.5 64.5v1067q0 109 66.5 192.5t172 125.5t230.5 42q116 0 200.5 -29.5t127.5 -78.5q58 88 165.5 139t221.5 51q89 0 164.5 -23.5t122 -69t46.5 -103.5q0 -87 -106 -179q-11 89 -71.5 129.5t-141.5 40.5
q-76 0 -131 -47.5t-55 -138.5v-231h366q0 -4 -0.5 -11.5t-3.5 -28.5t-8.5 -40t-17 -42.5t-27 -40.5t-40.5 -28.5t-56 -11.5h-213v-817q-6 0 -15.5 0.5t-37 3t-53 7t-56 14.5t-53 23.5t-37.5 35.5t-15 49zM389 1141v-135h479v155q0 50 -23.5 87t-63.5 56.5t-84 28t-95 8.5
q-98 0 -155.5 -54t-57.5 -146z" />
    <glyph glyph-name="zero.tnum" horiz-adv-x="1355" 
d="M1233 1087v-710q0 -196 -149.5 -299t-405.5 -103t-405.5 103t-149.5 299v710q0 196 149.5 299t405.5 103t405.5 -103t149.5 -299zM958 408v649q0 121 -66 175t-214 54t-214.5 -54t-66.5 -175v-649q0 -121 66.5 -175.5t214.5 -54.5t214 54.5t66 175.5z" />
    <glyph glyph-name="one.tnum" horiz-adv-x="1355" 
d="M451 1464q86 0 189.5 7t164.5 15l61 7q-26 -147 -26 -231v-1049h348q6 -28 6 -63q0 -27 -5 -50.5t-17 -47.5t-37.5 -38t-61.5 -14h-858q-6 26 -6 59q0 27 5 51t17.5 49t38.5 39.5t64 14.5h237v1040q-24 1 -55 0t-64 -0.5t-65 -9t-57 -25.5t-40.5 -51t-15.5 -84
q0 -27 2 -41q-124 115 -124 232q0 84 75.5 137t223.5 53z" />
    <glyph glyph-name="two.tnum" horiz-adv-x="1355" 
d="M145 0v211q0 81 27 148.5t72.5 114.5t104 87t124 70.5t130.5 59.5t123.5 61t104 68t72.5 86t27 110v35q0 100 -66.5 162.5t-193.5 62.5q-60 0 -113.5 -7t-108.5 -25.5t-94 -48t-64 -78.5t-24 -113q-86 92 -95.5 181.5t47.5 155.5t176 107t276 41q236 0 385 -110t149 -292
v-81q0 -83 -27 -152.5t-72.5 -118t-105 -89t-125 -70.5t-131 -58t-125 -56.5t-105 -60t-72.5 -74t-27 -94.5v-20h622q60 0 109 10.5t69 21.5l19 11q0 -5 -0.5 -14.5t-4 -36t-9.5 -50.5t-19 -53.5t-30.5 -51t-46 -36t-64.5 -14.5h-914z" />
    <glyph glyph-name="three.tnum" horiz-adv-x="1355" 
d="M659 1276q-76 0 -142 -12t-128 -40.5t-98 -84.5t-35 -135q-58 62 -81.5 123.5t-14 114.5t48.5 99t102.5 78.5t153 51t194.5 18.5q238 0 386.5 -105t148.5 -286v-51q0 -100 -50 -182.5t-136 -106.5q95 -26 150.5 -117.5t55.5 -196.5v-61q0 -184 -153 -296t-402 -112
q-134 0 -240 23t-173 67.5t-95 104t-7 137.5t92 164q0 -65 24.5 -115t65 -81t96.5 -51t114 -28t123 -8q141 0 211 62.5t70 163.5q0 108 -50.5 166.5t-156.5 70.5q-19 3 -31 6t-33.5 15.5t-33.5 33t-20 60t-5 92.5h66q134 0 189 48t55 161q0 97 -66.5 153t-194.5 56z" />
    <glyph glyph-name="four.tnum" horiz-adv-x="1355" 
d="M104 387q6 111 77.5 259.5t167 281.5t202 260.5t177 201.5t99.5 99q10 0 27 -1.5t60 -9t76 -20.5t60 -39.5t27 -62.5v-770h178q0 -11 -1 -26t-9.5 -48.5t-23.5 -59t-46 -45.5t-73 -20h-25v-407q-15 0 -35.5 1t-66.5 8.5t-81 20t-63 39.5t-28 64v274h-699zM803 586v458
q0 19 2.5 47.5t4.5 46.5l3 19q-48 -73 -68 -96q-235 -270 -323 -475h381z" />
    <glyph glyph-name="five.tnum" horiz-adv-x="1355" 
d="M645 -25q-167 0 -289 36.5t-182.5 101t-51 158t98.5 200.5q0 -80 36.5 -137.5t100 -88t134 -44t153.5 -13.5q149 0 215 51t66 171v118q0 236 -281 236h-260q-57 0 -104.5 -1.5t-66.5 -2.5l-19 -2q16 80 16 176v338q0 4 0.5 11t3.5 27t8 38t16.5 40t27.5 38t41.5 27
t56.5 11h563q64 0 113 7t66 15l17 7q0 -5 -0.5 -13.5t-4 -34t-9.5 -48t-19 -50.5t-30.5 -48t-46 -34t-64.5 -14h-465v-194q0 -19 -2 -41.5t-4 -35.5l-2 -13h164q129 0 230 -24t175.5 -72.5t114 -128.5t39.5 -187v-172q0 -197 -150 -302.5t-405 -105.5z" />
    <glyph glyph-name="six.tnum" horiz-adv-x="1355" 
d="M1233 528v-151q0 -196 -149.5 -299t-405.5 -103t-405.5 103t-149.5 299v710q0 196 149.5 299t405.5 103q170 0 293 -37t182 -101.5t48 -156t-99 -195.5q3 80 -30 136t-95 86t-134.5 42.5t-164.5 12.5q-150 0 -215.5 -49.5t-65.5 -169.5v-109q0 -21 -2.5 -47t-4.5 -41
l-3 -16q4 3 11 9t34.5 21t60 26t88 20.5t117.5 9.5q158 0 277 -44t188.5 -135.5t69.5 -222.5zM678 178q148 0 214 54.5t66 175.5v90q0 120 -63 174.5t-197 54.5q-141 0 -219 -50.5t-82 -166.5v-102q0 -121 66.5 -175.5t214.5 -54.5z" />
    <glyph glyph-name="seven.tnum" horiz-adv-x="1355" 
d="M981 1251h-666q-64 0 -113 -7t-66 -14l-17 -7q0 5 0.5 13.5t4 33.5t9.5 48t19 51t30.5 48t46 33.5t64.5 13.5h985q3 -110 -19 -213t-61 -187t-91 -163t-110 -149.5t-116.5 -138.5t-112.5 -138t-96.5 -140.5t-69.5 -152.5t-31 -168q-65 -34 -114 -34q-154 0 -154 106
q0 89 31 177t83 165.5t115.5 155t132.5 156.5t130 156.5t111.5 170.5t74.5 184z" />
    <glyph glyph-name="eight.tnum" horiz-adv-x="1355" 
d="M123 377v57q0 107 53 191.5t148 117.5q-78 32 -129.5 117.5t-51.5 181.5v45q0 131 69.5 222.5t188.5 135.5t277 44t276.5 -44t188 -135.5t69.5 -222.5v-45q0 -96 -51 -181.5t-129 -117.5q95 -33 148 -117.5t53 -191.5v-51q0 -197 -150 -302.5t-405 -105.5
q-256 0 -405.5 103t-149.5 299zM958 408q0 123 -66 178t-214 55t-214.5 -56.5t-66.5 -183.5q0 -120 66 -171.5t215 -51.5q148 0 214 53.5t66 176.5zM418 1065q0 -119 55 -170t189 -51h32q134 0 189 51t55 170t-62.5 170t-197.5 51t-197.5 -51t-62.5 -170z" />
    <glyph glyph-name="nine.tnum" horiz-adv-x="1355" 
d="M123 936v151q0 196 149.5 299t405.5 103t405.5 -103t149.5 -299v-710q0 -196 -149.5 -299t-405.5 -103q-170 0 -293 37t-182 101.5t-48 156t99 195.5q-3 -80 30 -136t95 -86t134.5 -42.5t164.5 -12.5q150 0 215 50t65 170v108q0 21 3 47t5 42l3 16q-4 -3 -11 -9
t-34.5 -21t-60 -26t-88.5 -20.5t-118 -9.5q-158 0 -276.5 43.5t-188 135t-69.5 222.5zM678 1286q-148 0 -214.5 -54t-66.5 -175v-90q0 -120 63.5 -175t196.5 -55q141 0 219 50.5t82 166.5v103q0 121 -66 175t-214 54z" />
    </font>
</defs>
</svg>
