<?xml version="1.0" standalone="no"?>
<!DOCTYPE svg PUBLIC "-//W3C//DTD SVG 1.1//EN" "http://www.w3.org/Graphics/SVG/1.1/DTD/svg11.dtd" >
<svg xmlns="http://www.w3.org/2000/svg" xmlns:xlink="http://www.w3.org/1999/xlink" version="1.1">
<metadata>
Created by FontForge 20170731 at Mon Apr  5 12:26:48 2021
 By Aleksey,,,
Copyright (c) 2007 by Jos Buivenga. All rights reserved.
</metadata>
<defs>
<font id="DiavloLight-Regular" horiz-adv-x="1386" >
  <font-face 
    font-family="Diavlo Light"
    font-weight="300"
    font-stretch="normal"
    units-per-em="2048"
    panose-1="2 0 0 0 0 0 0 0 0 0"
    ascent="1536"
    descent="-512"
    x-height="1012"
    cap-height="1442"
    bbox="-158 -508 2238 1974"
    underline-thickness="102"
    underline-position="-409"
    unicode-range="U+0020-FB06"
  />
<missing-glyph horiz-adv-x="512" 
 />
    <glyph glyph-name="ff" unicode="ff" horiz-adv-x="1306" 
d="M266 1153v-166h541v227q-18 77 -96 121.5t-176 44.5q-111 0 -190 -58t-79 -169zM1214 1475q-125 0 -209.5 -60.5t-84.5 -169.5v-258h397q0 -4 -0.5 -11.5t-5 -26.5t-11.5 -33.5t-22.5 -26.5t-36.5 -12h-321v-891q-5 0 -12.5 0.5t-27 5.5t-34.5 13.5t-27 27t-12 43.5v801
h-541v-891q-5 0 -12.5 0.5t-26.5 5.5t-34 13.5t-27 27t-12 43.5v1100q0 145 111 231t272 86q78 0 168 -29t126 -82q44 94 153.5 148.5t236.5 54.5q75 0 145 -21t118 -66t48 -103q0 -12 -3 -24.5t-5.5 -20t-10 -19.5t-10 -15t-12.5 -16l-10 -12q0 78 -75.5 132.5t-191.5 54.5
z" />
    <glyph glyph-name="fi" unicode="fi" horiz-adv-x="1073" 
d="M496 741h-230v-755q-5 0 -12.5 0.5t-26.5 5.5t-34 13.5t-27 27t-12 43.5v1192q0 95 60.5 169.5t151 111t191.5 36.5q56 0 111.5 -10t105 -29t80.5 -53t31 -76q0 -56 -35 -106q1 74 -83 119t-210 45q-127 0 -209 -63.5t-82 -174.5v-385h230q56 0 109 9t99.5 27.5t74.5 51
t28 74.5v12q10 0 24.5 -2.5t36.5 -10.5t37 -28t15 -49v-950q-5 0 -12.5 0.5t-27 5.5t-34.5 13.5t-27 27t-12 43.5v745q-40 -35 -100 -54t-104 -22.5t-107 -3.5z" />
    <glyph glyph-name="fl" unicode="fl" horiz-adv-x="1073" 
d="M797 276v1137q-105 62 -236 62q-125 0 -210 -60.5t-85 -169.5v-258h408q0 -4 -0.5 -11.5t-5 -26.5t-11.5 -33.5t-22.5 -26.5t-36.5 -12h-332v-891q-5 0 -12.5 0.5t-26.5 5.5t-34 13.5t-27 27t-12 43.5v1192q0 96 60.5 169.5t153.5 110.5t199 37q36 0 86.5 -8.5t111.5 -27
t102.5 -57.5t41.5 -91v-1071q0 -84 12.5 -150t43 -110.5t77.5 -44.5q-3 -4 -8.5 -10.5t-26 -17.5t-44.5 -11q-83 0 -124.5 79.5t-41.5 210.5z" />
    <glyph glyph-name="ffi" unicode="ffi" horiz-adv-x="1726" 
d="M154 76v1100q0 145 111 231t272 86q78 0 168 -29t126 -82q44 94 151 148.5t228 54.5q56 0 111.5 -10t105 -29t80.5 -53t31 -76q0 -56 -35 -106q0 75 -83.5 119.5t-209.5 44.5q-127 0 -208.5 -63.5t-81.5 -174.5v-385h229q56 0 109 9t99.5 27.5t74.5 51t28 74.5v12
q10 0 24.5 -2.5t36.5 -10.5t37 -28t15 -49v-950q-5 0 -12.5 0.5t-27 5.5t-34.5 13.5t-27 27t-12 43.5v745q-40 -35 -100 -54t-104 -22.5t-107 -3.5h-229v-755q-5 0 -12.5 0.5t-27 5.5t-34.5 13.5t-27 27t-12 43.5v665h-541v-755q-5 0 -12.5 0.5t-26.5 5.5t-34 13.5t-27 27
t-12 43.5zM266 1153v-301h541v362q-18 77 -96 121.5t-176 44.5q-111 0 -190 -58t-79 -169z" />
    <glyph glyph-name="ffl" unicode="ffl" horiz-adv-x="1726" 
d="M1450 276v1137q-105 62 -236 62q-125 0 -209.5 -60.5t-84.5 -169.5v-258h407q0 -4 -0.5 -11.5t-5 -26.5t-11.5 -33.5t-22.5 -26.5t-36.5 -12h-331v-891q-5 0 -12.5 0.5t-27 5.5t-34.5 13.5t-27 27t-12 43.5v801h-541v-891q-5 0 -12.5 0.5t-26.5 5.5t-34 13.5t-27 27
t-12 43.5v1100q0 145 111 231t272 86q78 0 168 -29t126 -82q44 94 153.5 148.5t236.5 54.5q36 0 86.5 -8.5t111.5 -27t102.5 -57.5t41.5 -91v-1071q0 -84 12.5 -150t43 -110.5t77.5 -44.5q-3 -4 -9 -10.5t-26.5 -17.5t-44.5 -11q-83 0 -124.5 79.5t-41.5 210.5zM266 1153
v-166h541v227q-18 77 -96 121.5t-176 44.5q-111 0 -190 -58t-79 -169z" />
    <glyph glyph-name="fj" unicode="fj" horiz-adv-x="1073" 
d="M920 936v-1149q0 -115 -45 -195.5t-119 -80.5q-42 0 -74 32q33 0 58.5 30t39.5 78t20.5 99.5t6.5 102.5v962q-43 -35 -109 -52.5t-107.5 -19.5t-110.5 -2h-19h-195v-755q-5 0 -12.5 0.5t-26.5 5.5t-34 13t-27 26t-12 43v1194q0 95 60.5 169t151 110t191.5 36
q59 0 114.5 -9.5t104 -29.5t78 -54.5t29.5 -80.5q0 -53 -33 -100q0 76 -83 120t-210 44t-209 -62.5t-82 -173.5v-385h195q62 0 118.5 7t110 23t85.5 46.5t32 72.5v23q43 0 78 -23q34 -24 35 -65z" />
    <glyph glyph-name=".notdef" horiz-adv-x="512" 
 />
    <glyph glyph-name=".null" horiz-adv-x="0" 
 />
    <glyph glyph-name="nonmarkingreturn" horiz-adv-x="682" 
 />
    <glyph glyph-name="space" unicode=" " horiz-adv-x="573" 
 />
    <glyph glyph-name="exclam" unicode="!" horiz-adv-x="509" 
d="M352 1352v-1016q-9 0 -22 2t-36 9t-38.5 27t-15.5 50v1016q5 0 12.5 -0.5t26.5 -5.5t34 -13t27 -26t12 -43zM233 135h101q22 0 22 -29v-106h-100q-23 0 -23 29v106z" />
    <glyph glyph-name="quotedbl" unicode="&#x22;" horiz-adv-x="716" 
d="M174 1210v213h55q58 0 58 -100v-72q0 -252 -127 -252q-28 0 -45 17q17 5 29 22t17.5 35.5t8.5 48t3.5 45.5t0.5 43zM455 1210v213h55q34 0 45.5 -26.5t11.5 -73.5v-72q0 -252 -127 -252q-28 0 -45 17q60 18 60 194z" />
    <glyph glyph-name="numbersign" unicode="#" horiz-adv-x="1351" 
d="M246 1004h168l102 428q110 -35 92 -113l-76 -315h412l103 428q110 -35 92 -113l-76 -315h217q1 -16 2.5 -40.5t-14 -47.5t-45.5 -23h-187l-90 -369h215q1 -16 2.5 -40.5t-14 -47t-45.5 -22.5h-184l-103 -428q-48 13 -74.5 42.5t-17.5 67.5l76 318h-412l-102 -428
q-48 13 -74.5 42.5t-17.5 67.5l75 318h-198q-1 19 -2 43.5t13.5 45.5t43.5 21h170l90 369h-197q-1 19 -2 43.5t14 46t44 21.5zM506 893l-90 -369h411l91 369h-412z" />
    <glyph glyph-name="dollar" unicode="$" horiz-adv-x="1228" 
d="M553 -53v30q-81 3 -151.5 18t-130 42t-94 73t-34.5 105q0 68 33 150q0 -133 102 -199t275 -74v600q-60 11 -98.5 19t-89.5 23t-83.5 31.5t-68 43.5t-55 59.5t-32.5 78.5t-13 102q0 376 440 397v110q5 0 12.5 -0.5t27 -5.5t34.5 -13.5t27 -27t12 -43.5v-20
q80 -2 145.5 -15t120.5 -39t86 -72t31 -108q0 -63 -37 -147q0 134 -91.5 195t-254.5 71v-538q55 -9 96 -18.5t88.5 -25.5t81 -35.5t66 -49t52.5 -66.5t32 -88t12 -113q0 -198 -110 -302t-318 -118v-120q-5 0 -12.5 0.5t-27 5.5t-34.5 13.5t-27 27t-12 43.5zM971 391
q0 68 -21 117t-64.5 80.5t-94 50t-125.5 33.5v-580q162 10 233.5 86.5t71.5 212.5zM236 1059q0 -51 16 -89.5t41 -63.5t68.5 -44t85.5 -29.5t106 -21.5v520q-157 -6 -237 -68t-80 -204z" />
    <glyph glyph-name="percent" unicode="%" horiz-adv-x="1523" 
d="M664 1251v-256q0 -89 -77 -137.5t-208 -48.5q-133 0 -210 48.5t-77 137.5v256q0 87 78 138t209 51q130 0 207.5 -51t77.5 -138zM1432 422v-256q0 -89 -77 -137.5t-210 -48.5q-131 0 -208 48.5t-77 137.5v256q0 87 77.5 137.5t207.5 50.5q131 0 209 -50.5t78 -137.5z
M252 297l969 983q5 -4 12 -11t19 -30t12 -47q0 -45 -43 -88l-955 -954q-41 41 -41 88q0 32 27 59zM1335 223v146q0 74 -40 112.5t-150 38.5q-115 0 -153 -37.5t-38 -113.5v-146q0 -40 6.5 -65t26.5 -46t58.5 -30.5t99.5 -9.5q112 0 151 36.5t39 114.5zM569 1053v145
q0 74 -40 113t-150 39q-115 0 -153 -38t-38 -114v-145q0 -39 7 -64t26 -46.5t58 -31.5t100 -10q111 0 150.5 37.5t39.5 114.5z" />
    <glyph glyph-name="ampersand" unicode="&#x26;" horiz-adv-x="1193" 
d="M623 676h-66q-145 0 -220 -82t-75 -213q0 -124 91 -207.5t270 -83.5q125 0 222 26.5t156.5 84.5t59.5 141q31 -63 31 -127t-45 -113t-117.5 -75t-150 -39t-156.5 -13q-215 0 -347.5 102t-132.5 267v62q0 116 57 202.5t175 118.5q-211 57 -211 305v51q0 161 129 261
t330 100q73 0 145.5 -12t142 -38t113 -74.5t43.5 -113.5q0 -61 -27 -127q0 81 -58.5 139t-151 84.5t-207.5 26.5q-164 0 -252 -78.5t-88 -197.5q0 -135 78.5 -198.5t261.5 -66.5v285q5 0 12.5 -0.5t26.5 -6t34 -14t27 -27.5t12 -44v-190h287q0 -5 -0.5 -12.5t-5 -27.5
t-12 -35t-23.5 -27.5t-37 -12.5h-209v-174q0 -42 8.5 -79.5t16.5 -54.5l8 -16q-6 1 -15.5 3.5t-34.5 15.5t-44.5 32.5t-35 58.5t-15.5 89v125z" />
    <glyph glyph-name="quotesingle" unicode="'" horiz-adv-x="436" 
d="M174 1210v213h55q58 0 58 -100v-72q0 -252 -127 -252q-28 0 -45 17q17 5 29 22t17.5 35.5t8.5 48t3.5 45.5t0.5 43z" />
    <glyph glyph-name="parenleft" unicode="(" horiz-adv-x="612" 
d="M113 514q0 203 29.5 380t78.5 300t116 193.5t140 70.5q45 0 84 -37q-57 -1 -116 -74t-106 -193t-76.5 -290t-29.5 -350t29.5 -350t76.5 -290t106 -193t116 -74q-39 -37 -84 -37q-98 0 -181 120t-133 338t-50 486z" />
    <glyph glyph-name="parenright" unicode=")" horiz-adv-x="612" 
d="M500 514q0 -201 -29.5 -378t-79 -300.5t-116.5 -194.5t-140 -71q-45 0 -84 37q57 1 116 74t106 193t76.5 290t29.5 350t-29.5 350t-76.5 290t-106 193t-116 74q39 37 84 37q73 0 140 -70.5t116.5 -193.5t79 -300t29.5 -380z" />
    <glyph glyph-name="asterisk" unicode="*" horiz-adv-x="804" 
d="M270 961l-39 16q-51 30 -51 84q0 70 129 172q-70 24 -133 24q-28 0 -46 -10t-38 -33q-4 28 -4 43q0 42 27.5 72.5t89.5 30.5q35 0 145 -45q-31 165 -125 182q41 41 86 41q47 0 82 -56t47 -157q41 34 72 77.5t31 76.5q0 24 -8 45l38 -17q52 -31 52 -84q0 -79 -131 -172
q65 -24 135 -24q28 0 46 10t38 33q4 -28 4 -43q0 -42 -27.5 -72.5t-89.5 -30.5q-15 0 -35 5t-33 10t-39.5 16.5t-35.5 15.5q10 -72 40.5 -124t82.5 -60q-41 -41 -86 -41q-47 0 -82 55t-47 156q-44 -35 -74.5 -77.5t-30.5 -75.5q0 -16 10 -43z" />
    <glyph glyph-name="plus" unicode="+" horiz-adv-x="993" 
d="M442 221v248h-282q-5 21 -5.5 46t14 46t40.5 21h233v276q46 6 76.5 -10.5t30.5 -50.5v-215h287q2 -21 2.5 -46t-13.5 -46t-41 -21h-235v-309q-37 -5 -72 11t-35 50z" />
    <glyph glyph-name="comma" unicode="," horiz-adv-x="444" 
d="M141 150h37h92q17 0 17 -21v-119q0 -44 -4.5 -81.5t-16 -74t-34.5 -58t-56 -21.5q-37 0 -70 20q36 6 52 40.5t12.5 74t-5.5 73.5q-1 9 -1 13z" />
    <glyph glyph-name="hyphen" unicode="-" horiz-adv-x="993" 
d="M213 582h623q1 -16 2 -40.5t-14.5 -47.5t-45.5 -23h-620q-1 19 -2 43.5t13.5 46t43.5 21.5z" />
    <glyph glyph-name="period" unicode="." horiz-adv-x="452" 
d="M158 150h110q17 0 22 -7.5t5 -23.5v-119h-111q-17 0 -21.5 7.5t-4.5 25.5v117z" />
    <glyph glyph-name="slash" unicode="/" horiz-adv-x="626" 
d="M49 -377l438 1905q111 -35 93 -113l-439 -1902q-48 13 -74.5 42.5t-17.5 67.5z" />
    <glyph glyph-name="zero" unicode="0" horiz-adv-x="1243" 
d="M1100 1087v-753q0 -175 -128.5 -267t-348.5 -92q-222 0 -351 92t-129 267v753q0 174 129.5 266.5t350.5 92.5q220 0 348.5 -92.5t128.5 -266.5zM981 365v692q0 142 -86.5 210t-271.5 68q-186 0 -273.5 -68t-87.5 -210v-692q0 -143 87 -211t274 -68q185 0 271.5 68
t86.5 211z" />
    <glyph glyph-name="one" unicode="1" horiz-adv-x="1028" 
d="M305 1419q90 0 173 4.5t121 8.5l38 4q-14 -82 -14 -174v-1149l360 4q1 -19 4 -45t-11 -49t-44 -23h-791q-2 21 -3 46t12 46t40 21h314v1198q-96 -13 -213 -13q-86 0 -127 -41t-41 -98v-8q-31 64 -31 115q0 72 56.5 112.5t156.5 40.5z" />
    <glyph glyph-name="two" unicode="2" horiz-adv-x="1148" 
d="M113 0v145q0 82 27.5 150t74 116.5t106.5 90t126.5 75.5t133 66.5t126.5 69t106.5 78.5t74 99t27.5 126v35q0 121 -88 200.5t-252 79.5q-115 0 -207.5 -26.5t-151 -84.5t-58.5 -139q-31 73 -31 125q0 65 43.5 114t113.5 75t143.5 38.5t147.5 12.5q202 0 330.5 -98.5
t128.5 -260.5v-81q0 -82 -27.5 -150t-74 -116t-106.5 -88.5t-126.5 -73.5t-133.5 -65.5t-127 -69.5t-106.5 -79.5t-74 -101.5t-27.5 -131v-18h697q36 0 65.5 3t41.5 6l12 3q0 -5 -0.5 -13.5t-6 -30t-14.5 -38t-29 -30t-47 -13.5h-837z" />
    <glyph glyph-name="three" unicode="3" horiz-adv-x="1187" 
d="M586 1331q-115 0 -207.5 -27t-151.5 -85.5t-59 -139.5q-31 76 -31 127q0 52 29.5 94.5t76 69t107 44.5t119.5 25t117 7q201 0 329.5 -100.5t128.5 -262.5v-51q0 -248 -210 -305q118 -32 174.5 -121t56.5 -207v-61q0 -164 -131.5 -263.5t-347.5 -99.5q-80 0 -157.5 13.5
t-148 40.5t-114 76t-43.5 112q0 60 24 117q0 -119 123 -181.5t316 -62.5q178 0 269 79t91 200q0 129 -65.5 208.5t-198.5 94.5q-1 0 -14.5 1t-20.5 4.5t-18.5 13.5t-18 32t-8.5 55q177 6 250.5 71t73.5 204q0 121 -86.5 199.5t-253.5 78.5z" />
    <glyph glyph-name="four" unicode="4" horiz-adv-x="1044" 
d="M31 430q4 83 51 191.5t118.5 215t151 209.5t157 188.5t127 137.5t71.5 72q6 0 15 -1t33 -6t42.5 -13.5t33.5 -26t15 -41.5v-815h147q0 -7 -0.5 -14.5t-4.5 -26.5t-11 -33t-22.5 -25.5t-36.5 -11.5h-72v-450q-6 0 -15 0.5t-29 5.5t-35.5 13.5t-27.5 26.5t-12 42v362h-696z
M727 541v620q0 35 3.5 75t7.5 62l3 23q-36 -47 -63 -74q-142 -142 -297 -347t-209 -359h555z" />
    <glyph glyph-name="five" unicode="5" horiz-adv-x="1128" 
d="M549 -25q-44 0 -93 3.5t-119.5 18t-124 38t-92 68.5t-38.5 104q0 44 27 127q0 -119 122.5 -181.5t317.5 -62.5q187 0 272.5 65t85.5 210v143q0 133 -88.5 205.5t-269.5 72.5h-260l-107 -4q8 31 8 131v334q0 29 1.5 48.5t7.5 45t17 41t33 26.5t52 11h530q33 0 62.5 4.5
t42.5 8.5l14 4q0 -5 -0.5 -14t-6 -31t-14.5 -39t-28.5 -31t-46.5 -14h-545v-281q0 -38 -3.5 -71.5t-7.5 -47.5l-3 -14h250q481 0 481 -358v-197q0 -175 -129 -269t-348 -94z" />
    <glyph glyph-name="six" unicode="6" horiz-adv-x="1232" 
d="M1100 504v-170q0 -175 -128.5 -267t-348.5 -92q-222 0 -351 92t-129 267v743q0 175 130.5 272t349.5 97q65 0 123 -5t123 -19.5t111 -38.5t76.5 -66.5t30.5 -97.5q0 -64 -26 -125q0 60 -36 106.5t-97.5 74.5t-139 42t-165.5 14q-359 0 -359 -284v-195l-6 -158q1 4 4.5 10
t16.5 23.5t30 33t48.5 35t69.5 33.5t94.5 23.5t121.5 9.5q206 0 331.5 -92t125.5 -266zM623 86q187 0 271.5 66t84.5 213v108q0 146 -82 212.5t-254 66.5q-379 0 -379 -263v-124q0 -147 85.5 -213t273.5 -66z" />
    <glyph glyph-name="seven" unicode="7" horiz-adv-x="1056" 
d="M895 1309h-754q-34 0 -64 -4.5t-43 -8.5l-14 -4q0 5 0.5 14t6 31t15 39t30 31t47.5 14h907q0 -133 -39.5 -256.5t-102.5 -220.5t-139 -189t-152 -180t-138 -176t-100 -194t-36 -217q-11 -8 -36 -8q-80 0 -80 63q0 100 34 197.5t90 181t124 166t139.5 166.5t133.5 168
t109 184.5t62 202.5z" />
    <glyph glyph-name="eight" unicode="8" horiz-adv-x="1243" 
d="M143 334v76q0 107 50 181.5t155 127.5q-100 50 -142 120t-42 179v69q0 173 126 266t333 93q205 0 330.5 -93t125.5 -266v-69q0 -109 -41.5 -179t-140.5 -120q104 -53 153.5 -128t49.5 -181v-70q0 -176 -129 -270.5t-348 -94.5q-222 0 -351 92t-129 267zM981 373
q0 147 -87 220t-271 73q-186 0 -273.5 -74t-87.5 -225q0 -146 86.5 -213.5t274.5 -67.5q185 0 271.5 70t86.5 217zM623 1335q-173 0 -256.5 -68t-83.5 -214q0 -143 73.5 -210t249.5 -67h33q174 0 248 67t74 210q0 146 -83 214t-255 68z" />
    <glyph glyph-name="nine" unicode="9" horiz-adv-x="1232" 
d="M133 918v169q0 175 128.5 267t348.5 92q222 0 351 -92t129 -267v-743q0 -175 -130.5 -272t-349.5 -97q-65 0 -123.5 5t-123 20t-111 39t-77 66.5t-30.5 97.5q0 62 27 125q0 -79 63 -134.5t159 -79.5t216 -24q359 0 359 285v194l6 158q-1 -4 -4.5 -10t-16.5 -23.5t-30 -33
t-48.5 -35t-69.5 -33.5t-94.5 -23.5t-121.5 -9.5q-206 0 -331.5 92.5t-125.5 266.5zM610 1335q-187 0 -271.5 -65.5t-84.5 -212.5v-109q0 -146 82 -212t254 -66q379 0 379 262v125q0 147 -85.5 212.5t-273.5 65.5z" />
    <glyph glyph-name="colon" unicode=":" horiz-adv-x="452" 
d="M188 150h111q17 0 22 -7.5t5 -23.5v-119h-111q-17 0 -22 8t-5 25v117zM188 913h111q17 0 22 -7t5 -23v-119h-111q-17 0 -22 8t-5 25v116z" />
    <glyph glyph-name="semicolon" unicode=";" horiz-adv-x="452" 
d="M188 913h111q17 0 22 -7t5 -23v-119h-111q-17 0 -22 8t-5 25v116zM180 150h37h92q17 0 17 -21v-119q0 -44 -4.5 -81.5t-16 -74t-34.5 -58t-56 -21.5q-37 0 -70 20q36 6 52 40.5t12.5 74t-5.5 73.5q-1 9 -1 13z" />
    <glyph glyph-name="less" unicode="&#x3c;" horiz-adv-x="839" 
d="M250 508l416 -416q-36 -53 -74 -53q-6 0 -12 1.5t-12.5 4.5t-12 5.5t-13 8.5t-11.5 9.5t-12 11t-11 10.5l-12 12l-11 11l-303 303q-49 49 -49 90q0 43 51 94l408 408q59 -38 59 -78q0 -6 -3 -13t-9 -15.5t-12 -16t-16 -18t-16.5 -17.5t-18 -18t-17.5 -17z" />
    <glyph glyph-name="equal" unicode="=" horiz-adv-x="993" 
d="M213 446h623q1 -16 2 -40.5t-14.5 -47t-45.5 -22.5h-620q-1 19 -2 43.5t13.5 45.5t43.5 21zM213 725h623q1 -16 2 -40.5t-14.5 -47.5t-45.5 -23h-620q-1 19 -2 43.5t13.5 46t43.5 21.5z" />
    <glyph glyph-name="greater" unicode="&#x3e;" horiz-adv-x="839" 
d="M133 92l416 416l-309 307q-5 5 -23.5 23t-26.5 26.5t-20.5 22.5t-17.5 24.5t-5 18.5q0 40 60 78l407 -408q52 -52 52 -94q0 -40 -50 -90l-303 -303l-14 -14l-15.5 -15.5t-14 -13t-16 -13t-14.5 -9t-16.5 -7.5t-15.5 -2q-38 0 -74 53z" />
    <glyph glyph-name="question" unicode="?" horiz-adv-x="1054" 
d="M506 1329q-155 0 -240.5 -56t-85.5 -157q-28 60 -28 127q0 51 32.5 91t85 62.5t113 34t123.5 11.5q204 0 330.5 -88.5t126.5 -247.5v-51q0 -71 -26 -128.5t-67.5 -97t-91.5 -74.5t-100.5 -68t-92 -68.5t-67.5 -85.5t-26 -111v-98q-4 0 -11 0.5t-25 5.5t-31.5 14
t-24.5 28.5t-11 45.5v45q0 56 19.5 103.5t51.5 81.5t73 67t83.5 59t83.5 58t73 64t51.5 76.5t19.5 96.5q0 123 -85.5 191.5t-252.5 68.5zM381 135h100q23 0 23 -29v-106h-101q-22 0 -22 29v106z" />
    <glyph glyph-name="at" unicode="@" horiz-adv-x="1798" 
d="M496 262q0 73 27 128.5t71.5 87t101.5 55t117.5 35.5t119.5 26t106.5 28t80 40t39.5 63q0 93 -62 146t-210 53q-164 0 -249 -61.5t-85 -164.5q-37 70 -37 131q0 99 106.5 152t264.5 53q183 0 284 -83t101 -232l2 -346q0 -21 -3.5 -43t-15.5 -58.5t-43.5 -67t-78.5 -44.5
q32 79 32 159v265q-7 -40 -67 -63.5t-139.5 -37.5t-158 -33.5t-132.5 -65t-54 -118.5q0 -60 52.5 -102.5t137 -62t193.5 -19.5q97 0 172.5 9.5t146 35t116 67.5t73 110.5t27.5 160.5v358q0 85 -26.5 157.5t-82 132t-150.5 93t-222 33.5h-306q-101 0 -182.5 -22.5t-136 -61
t-91 -92t-53 -113t-16.5 -127.5v-643q0 -164 80 -262t211 -98q24 0 48 4t36 8l12 4q-4 -45 -54.5 -69.5t-106.5 -24.5q-149 0 -243.5 114.5t-94.5 297.5v696q0 103 41 193t116 157t188 105t249 38h305q270 0 431 -140t161 -353v-412q0 -463 -654 -463q-76 0 -145.5 9
t-134 30.5t-111.5 53.5t-75.5 82t-28.5 112z" />
    <glyph glyph-name="A" unicode="A" horiz-adv-x="1232" 
d="M981 332l-41 143h-647l-41 -143q-4 -15 -13 -47t-14 -49.5t-14.5 -47t-16.5 -47t-18.5 -42t-22 -38.5t-25.5 -30.5t-30.5 -25.5t-35.5 -15t-42 -6q-14 0 -20 2q8 14 19.5 41.5t27 70.5t30 85t35 107t35.5 113t39 126l38 123.5t39 128t36 118.5q35 115 80.5 212.5
t79 151.5t75.5 101t53 56.5t29 23.5q18 -14 29 -23t53.5 -57t76 -101.5t79 -151t80.5 -212.5q11 -36 36 -118.5t39 -128l38 -123.5t39 -126t35.5 -113t35 -107t30 -85t27 -70.5t19.5 -41.5q-6 -2 -21 -2q-24 0 -45.5 6t-39 20.5t-31.5 28.5t-27.5 39.5t-22 43.5t-19 51
t-16 51.5t-15.5 55t-15 52.5zM326 588h581l-78 258q-40 134 -93.5 243.5t-86.5 152.5l-33 42q-5 -6 -14 -17t-35 -50.5t-50.5 -86t-56.5 -123.5t-57 -161z" />
    <glyph glyph-name="B" unicode="B" horiz-adv-x="1181" 
d="M174 90v1331h397q457 0 457 -336v-65q0 -106 -50 -185.5t-134 -113.5q92 -39 148.5 -121t56.5 -188v-66q0 -117 -61.5 -196t-166.5 -114.5t-250 -35.5h-252q-6 0 -15.5 0.5t-34.5 6t-44.5 14t-35 26.5t-15.5 43zM588 666h-295v-555h278q186 0 272.5 64t86.5 202
q0 136 -85 212.5t-257 76.5zM571 1309h-278v-535h295q173 0 247 69t74 208q0 136 -82.5 197t-255.5 61z" />
    <glyph glyph-name="C" unicode="C" horiz-adv-x="1351" 
d="M705 1331q-96 0 -172.5 -20t-136.5 -63.5t-92 -117t-32 -174.5v-489q0 -377 422 -377q34 0 67.5 1.5t85 7.5t95.5 16t90.5 29.5t79 45t53 65.5t19.5 89q31 -66 33 -120.5t-20 -92t-65 -66.5t-93.5 -45.5t-113.5 -27t-118 -14t-113 -3.5q-113 0 -207 24.5t-170.5 77
t-119.5 144t-43 215.5v549q0 123 44.5 214.5t123.5 144t174.5 77.5t208.5 25q53 0 103 -2.5t114 -11.5t114.5 -24t96 -42t68 -62.5t20.5 -89.5t-37 -120q0 69 -50 119t-130 74t-153.5 34t-145.5 10z" />
    <glyph glyph-name="D" unicode="D" horiz-adv-x="1404" 
d="M692 1311h-399v-1200h399q76 0 140.5 11.5t121 38.5t95.5 69t61.5 105.5t22.5 145.5v461q0 100 -33.5 173.5t-95.5 115t-139 61t-173 19.5zM692 0h-375q-12 0 -29.5 2.5t-46.5 10t-48 27.5t-19 50v1331h518q91 0 169 -13t151.5 -45.5t125 -83.5t82.5 -132t31 -186v-500
q0 -105 -31 -186t-82.5 -132t-125 -84t-151.5 -46t-169 -13z" />
    <glyph glyph-name="E" unicode="E" horiz-adv-x="1128" 
d="M807 727h-514v-616h733q0 -9 -1.5 -21t-7.5 -35.5t-23.5 -39t-43.5 -15.5h-628q-6 0 -16 0.5t-35.5 5.5t-45 13.5t-35.5 27t-16 43.5v1331h852q0 -4 -0.5 -11.5t-4.5 -26.5t-11 -33.5t-23 -26.5t-37 -12h-657v-473h502q54 0 91 7t48 14l10 7q0 -19 -5.5 -39.5
t-18.5 -44.5t-42.5 -39.5t-70.5 -15.5z" />
    <glyph glyph-name="F" unicode="F" horiz-adv-x="978" 
d="M293 838h420q54 0 91 7t48 14l10 7q0 -19 -5.5 -39.5t-18.5 -44.5t-42.5 -39.5t-70.5 -15.5h-432v-747q-5 0 -13 0.5t-28.5 5.5t-36 13.5t-28.5 27t-13 43.5v1351h791q0 -4 -0.5 -11.5t-4.5 -26.5t-11 -33.5t-23 -26.5t-37 -12h-596v-473z" />
    <glyph glyph-name="G" unicode="G" 
d="M154 436v549q0 123 44.5 214.5t123.5 144t174.5 77.5t208.5 25q51 0 100.5 -3t112.5 -12t114 -24t96.5 -42.5t69 -63.5t22 -90t-35.5 -119q0 56 -34.5 100t-86 69.5t-119.5 42t-126 22t-113 5.5q-96 0 -172.5 -20t-136.5 -63.5t-92 -117t-32 -174.5v-489q0 -377 422 -377
q96 0 170 18.5t132.5 60t89 114t30.5 174.5v145h-311q-26 0 -46 13.5t-30 33t-16 38.5t-7 33l-1 13q49 -20 131 -20h397v-287q0 -124 -43 -214t-120 -140.5t-170 -73.5t-206 -23t-207 24.5t-170.5 77t-119.5 144t-43 215.5z" />
    <glyph glyph-name="H" unicode="H" horiz-adv-x="1413" 
d="M1120 70v616h-827v-706q-5 0 -13 0.5t-28.5 5.5t-36 13.5t-28.5 27t-13 43.5v1372q5 0 13 -0.5t28.5 -5.5t36 -13.5t28.5 -27t13 -43.5v-553h827v643q5 0 13 -0.5t28.5 -5.5t36 -13.5t28.5 -27t13 -43.5v-1372q-5 0 -13 0.5t-28.5 5.5t-36 13.5t-28.5 27t-13 43.5z" />
    <glyph glyph-name="I" unicode="I" horiz-adv-x="466" 
d="M174 70v1372q5 0 13 -0.5t28.5 -5.5t36 -13.5t28.5 -27t13 -43.5v-1372q-5 0 -13 0.5t-28.5 5.5t-36 13.5t-28.5 27t-13 43.5z" />
    <glyph glyph-name="J" unicode="J" horiz-adv-x="446" 
d="M272 1348v-1442q0 -144 -46 -229t-128 -85q-45 0 -82 37q36 0 64 30.5t43.5 80t23 104.5t7.5 113v1485q10 0 25 -2.5t38.5 -11t39 -29.5t15.5 -51z" />
    <glyph glyph-name="K" unicode="K" horiz-adv-x="1175" 
d="M293 737v-757q-5 0 -13 0.5t-28.5 5.5t-36 13.5t-28.5 27t-13 43.5v1372q5 0 13 -0.5t28.5 -5.5t36 -13.5t28.5 -27t13 -43.5v-533q95 4 172.5 27t138 62t118 105t105 139.5t105.5 182.5q60 111 168 111q26 0 26 -2q-19 -29 -54.5 -95.5t-68 -129.5t-83.5 -139
t-104 -134.5t-126 -104.5t-151 -61q77 -8 153.5 -60t135.5 -123t118.5 -165.5t99 -173.5t81 -161.5t61.5 -114.5q-28 -7 -49 -7q-48 0 -82.5 26.5t-67.5 90.5q-8 16 -25 48q-47 91 -71.5 136t-70.5 120.5t-79 114t-85.5 89t-103 75t-118 43t-143.5 19.5z" />
    <glyph glyph-name="L" unicode="L" horiz-adv-x="991" 
d="M883 0h-561q-6 0 -16 0.5t-35.5 5.5t-45 13.5t-35.5 27t-16 43.5v1352q5 0 13 -0.5t28.5 -5.5t36 -13.5t28.5 -27t13 -43.5v-1241h536q54 0 91.5 5t47.5 10l11 5q0 -39 -27 -85t-69 -46z" />
    <glyph glyph-name="M" unicode="M" horiz-adv-x="1613" 
d="M1321 70v1065q0 37 2.5 80t4.5 67l3 25l-495 -1006q-7 0 -19 2.5t-43 25t-55 62.5l-436 922q10 -94 10 -178v-1155q-5 0 -13 0.5t-28.5 5.5t-36 13.5t-28.5 27t-13 43.5v1351h100q3 0 9 -0.5t22 -6t31 -14.5t32.5 -28.5t30.5 -46.5l404 -860l461 956q7 0 19 -0.5t42.5 -6
t53.5 -14t42 -26.5t19 -43v-1351q-5 0 -13 0.5t-28.5 5.5t-36 13.5t-28.5 27t-13 43.5z" />
    <glyph glyph-name="N" unicode="N" horiz-adv-x="1415" 
d="M399 1323l660 -1067l80 -141q-17 100 -17 145v1161q5 0 13 -0.5t28.5 -5.5t36 -13.5t28.5 -27t13 -43.5v-1351q-48 0 -88.5 13t-65 31.5t-42 37t-24.5 31.5l-7 13l-738 1186q17 -88 17 -170v-1142q-5 0 -13 0.5t-28.5 5.5t-36 13.5t-28.5 27t-13 43.5v1351q37 0 55 -0.5
t47 -5.5t46.5 -15t38.5 -29t38 -48z" />
    <glyph glyph-name="O" unicode="O" 
d="M1233 1004v-586q0 -214 -134.5 -328.5t-404.5 -114.5q-273 0 -406.5 114.5t-133.5 328.5v586q0 212 134 327t406 115q270 0 404.5 -115t134.5 -327zM1114 444v533q0 68 -10 119t-37.5 98t-74 76.5t-122 47t-178.5 17.5t-178 -17.5t-121 -47t-73.5 -76.5t-37.5 -98
t-10 -119v-533q0 -68 10 -119.5t37.5 -98t73.5 -76t121 -47t178 -17.5t178.5 17.5t122 47t74 76t37.5 98t10 119.5z" />
    <glyph glyph-name="P" unicode="P" horiz-adv-x="1159" 
d="M510 1311h-217v-703h217q79 0 139 8.5t115 31.5t90 62t55.5 102t20.5 149q0 99 -30.5 168.5t-88 108.5t-131 56t-170.5 17zM174 70v1351h336q92 0 167 -11.5t146 -42t119.5 -79t77.5 -127t29 -182.5v-37q0 -101 -29 -179t-77.5 -127t-119 -81t-147 -44.5t-166.5 -12.5
h-217v-518q-5 0 -13 0.5t-28.5 5.5t-36 13.5t-28.5 27t-13 43.5z" />
    <glyph glyph-name="Q" unicode="Q" 
d="M1233 1004v-586q0 -206 -122 -320t-370 -123v-67q0 -82 52.5 -143.5t131.5 -90t171 -28.5q52 0 106 12t106.5 38.5t82.5 77t24 117.5q54 -112 20.5 -192t-125 -124t-216.5 -44q-85 0 -166 22.5t-147.5 64t-107 109t-40.5 150.5v100q-243 10 -361 124.5t-118 316.5v586
q0 212 134 327t406 115q270 0 404.5 -115t134.5 -327zM1114 444v533q0 59 -7 104t-24 87t-48 71.5t-77 51.5t-112.5 33t-153.5 11q-103 0 -178 -16.5t-121.5 -45.5t-73.5 -75.5t-37 -98t-10 -122.5v-533q0 -71 10 -123t37 -98.5t73.5 -75t121.5 -45t178 -16.5
q104 0 179 16.5t121.5 45t74 75t37.5 98.5t10 123z" />
    <glyph glyph-name="R" unicode="R" horiz-adv-x="1120" 
d="M1028 1085v-61q0 -178 -119.5 -266t-318.5 -80q84 -26 158.5 -93.5t128.5 -154.5t94.5 -168.5t77.5 -164t57 -113.5q-75 -10 -112.5 9.5t-78.5 98.5q-113 221 -148 279q-96 158 -207 226q-108 67 -267 79v-696q-5 0 -13 0.5t-28.5 6t-36 14t-28.5 26.5t-13 43v1351h397
q103 0 183.5 -18t143.5 -56.5t96.5 -104.5t33.5 -157zM571 1311h-278v-535h295q172 0 246.5 70t74.5 209q0 133 -83 194.5t-255 61.5z" />
    <glyph glyph-name="S" unicode="S" horiz-adv-x="1267" 
d="M113 1049q0 89 28.5 159t77 114.5t117.5 73.5t144 40.5t163 11.5t165 -11t148 -36t112.5 -73.5t41.5 -115.5q0 -63 -37 -147q0 62 -25 109.5t-66.5 77t-100.5 48.5t-120 26t-132 7q-86 0 -153.5 -13t-123.5 -43t-86 -85t-30 -133q0 -66 31.5 -112.5t84.5 -71.5t122 -41
t145.5 -28t152.5 -26.5t145 -41.5t122 -67t84.5 -110t31.5 -164q0 -208 -141 -315t-379 -107q-86 0 -168.5 13.5t-157 40t-120.5 75t-46 111.5q0 68 33 150q0 -75 39.5 -130t108.5 -85.5t149 -45t174 -14.5q189 0 287 80t98 221q0 74 -31.5 126.5t-84.5 82t-122 49.5
t-145.5 33t-152.5 27t-145 37.5t-122 59t-84.5 97.5t-31.5 146z" />
    <glyph glyph-name="T" unicode="T" horiz-adv-x="1087" 
d="M967 1311h-367v-1331q-5 0 -13 0.5t-28.5 5.5t-36 13.5t-28.5 27t-13 43.5v1241h-358q-36 0 -61.5 15.5t-37 39.5t-16 44.5t-4.5 39.5q2 -3 9.5 -8t46 -13t96.5 -8h778q58 0 95.5 7.5t45.5 14.5l8 7q0 -20 -4 -40t-15 -44t-36 -39.5t-61 -15.5z" />
    <glyph glyph-name="U" unicode="U" 
d="M1233 1354v-951q0 -102 -43.5 -185t-118.5 -135t-171.5 -80t-205.5 -28q-110 0 -206.5 28t-171.5 80t-118.5 135t-43.5 185v1041h6.5t16.5 -2t23.5 -5t25 -10t23.5 -16t16.5 -24t6.5 -33v-926q0 -158 116 -248t306 -90q188 0 304 90t116 248v1016q5 0 13 -0.5t28.5 -5.5
t36 -13.5t28.5 -27t13 -43.5z" />
    <glyph glyph-name="V" unicode="V" horiz-adv-x="1273" 
d="M975 547q-34 -114 -81.5 -215t-91 -164t-81.5 -110t-61 -67l-23 -20q-9 7 -24.5 22t-60 67.5t-84.5 113.5t-88 162t-81 211q-179 603 -236 761q-34 92 -53 124h23q27 0 51 -9t41.5 -22.5t33.5 -38t27 -45.5t23 -55t18.5 -57t17.5 -61.5t17 -58.5l160 -514
q29 -92 61.5 -169.5t58.5 -123t48 -77.5t34 -44l13 -12q5 5 13.5 15.5t34 48t50 82.5t57 120.5t58.5 159.5l160 514q5 17 17 58t18.5 62t19.5 57t23.5 55.5t27 44.5t34 38t41 22.5t50.5 9.5h21q-16 -26 -41 -91.5t-57 -168t-60 -194.5t-67.5 -225.5t-61.5 -205.5zM10 1434
v-2v2zM1264 1434l-2 -2z" />
    <glyph glyph-name="W" unicode="W" horiz-adv-x="1925" 
d="M637 -29q-8 4 -21 13t-52.5 49t-77 95t-87 158t-88.5 230l-166 528q-95 307 -123 366q-7 13 -12 22l13 -2h10q27 0 51 -9.5t41.5 -22.5t34 -38t27.5 -45t23 -55t19 -57t18 -61.5t17 -58.5l162 -514q29 -93 61.5 -172t58 -125t47 -79t33.5 -45l11 -13q4 4 12.5 12t36 46
t57 89t74.5 146.5t90 212.5q-9 37 -23 99.5t-37.5 223t-23.5 281.5q0 43 4 69.5t17 51t40.5 36t71.5 11.5q-8 -114 -8 -172q0 -140 19 -277t48.5 -243.5t66 -203t73 -164.5t66 -118.5t48.5 -74.5l19 -25q4 4 12 13t31.5 44.5t47.5 80t57.5 124t64.5 172.5l160 514
q7 22 20 67t21.5 70t22.5 63t29 60t35 44.5t46 32.5t57 10l23 2v0q-31 -49 -135 -388l-166 -528q-29 -93 -62.5 -173t-64 -134t-61 -98t-55 -69t-43.5 -42t-30 -23l-10 -6q-7 7 -20.5 20t-52.5 60.5t-76 103t-86 147t-88 192.5q-34 -99 -80 -189t-88 -148t-79 -102.5
t-59 -64.5z" />
    <glyph glyph-name="X" unicode="X" horiz-adv-x="1075" 
d="M1075 1430q-21 -32 -70.5 -132.5t-99 -198.5t-124.5 -212t-148 -182q73 -73 147.5 -188t123.5 -212t98 -195.5t69 -129.5q-25 -1 -41.5 0.5t-44 10t-52 33t-46.5 64.5q-22 41 -86 162t-89.5 164.5t-74.5 111t-98 109.5q-38 -34 -72 -74.5t-74 -105.5t-60.5 -100.5
t-73 -134t-71.5 -132.5q-22 -39 -46 -63.5t-50.5 -33t-43.5 -10.5t-44 -1q20 31 69 129.5t97.5 195.5t123.5 212t148 188q-73 68 -148 182t-124 212t-98 198.5t-70 132.5q0 2 27 2q98 0 157 -111q15 -29 53.5 -101.5t55.5 -104t51.5 -90.5t59.5 -93.5t60.5 -77t72.5 -76.5
q42 40 79 84.5t78.5 111.5t60.5 99.5t70.5 128.5t63.5 119q59 111 158 111q26 0 26 -2z" />
    <glyph glyph-name="Y" unicode="Y" horiz-adv-x="1081" 
d="M600 621h2v-641q-5 0 -13 0.5t-29 5.5t-37 13.5t-29 27.5t-13 45v549q-79 68 -161.5 196t-137 243t-107 229t-71.5 143q0 2 27 2q45 0 81.5 -23.5t73.5 -87.5q13 -22 73 -152.5t132.5 -253t149.5 -196.5q60 57 120.5 151t99.5 174t78.5 165.5t55.5 111.5q37 64 74 87.5
t82 23.5q26 0 26 -2q-19 -29 -71.5 -143t-107 -229t-137 -243t-161.5 -196z" />
    <glyph glyph-name="Z" unicode="Z" horiz-adv-x="1122" 
d="M954 0h-886q0 108 40.5 211.5t106.5 190.5t147 171.5t167 170t160.5 170.5t133 188t80.5 209h-784q0 4 0.5 11.5t4.5 26.5t11.5 33.5t23.5 26.5t38 12h833q-2 -124 -43.5 -241t-109 -212t-149 -185t-166.5 -173.5t-158 -161.5t-127.5 -165.5t-71.5 -171.5h706
q54 0 91.5 6t47.5 12l11 6q0 -19 -5 -40t-16 -43.5t-33.5 -37t-52.5 -14.5z" />
    <glyph glyph-name="bracketleft" unicode="[" horiz-adv-x="532" 
d="M174 -49v1470h307q0 -4 -0.5 -11t-4.5 -24t-11.5 -30t-23.5 -24t-38 -11h-110v-1358h110q21 0 36.5 -10t23 -22.5t12 -29t5.5 -25t1 -13.5h-166q-6 0 -15.5 0.5t-33.5 5.5t-43 13t-34 26t-15 43z" />
    <glyph glyph-name="backslash" unicode="\" horiz-adv-x="610" 
d="M551 -422l-565 1940q31 6 47 6q64 0 80 -51l561 -1940q-31 -6 -45 -6q-64 0 -78 51z" />
    <glyph glyph-name="bracketright" unicode="]" horiz-adv-x="530" 
d="M356 1421v-1470q0 -39 -35 -61t-71 -24l-35 -3h-164q0 9 1.5 20t7.5 32t23.5 34.5t43.5 13.5h111v1358h-111q-34 0 -53 25t-21 50l-2 25h305z" />
    <glyph glyph-name="asciicircum" unicode="^" horiz-adv-x="1118" 
d="M987 893l-416 416l-307 -310q-5 -5 -23 -23.5t-26.5 -26.5t-22.5 -20t-24 -17t-18 -5q-41 0 -78 58l407 409q51 51 94 51q42 -3 91 -49l303 -303q5 -5 19.5 -18.5t20.5 -20.5t15.5 -18.5t13 -23t4.5 -23.5q0 -16 -14.5 -39t-38.5 -37z" />
    <glyph glyph-name="underscore" unicode="_" horiz-adv-x="1064" 
d="M59 -16h1000q2 -19 2.5 -43.5t-12.5 -46t-37 -21.5h-1006q-4 21 -3.5 46t15.5 45t41 20z" />
    <glyph glyph-name="grave" unicode="`" horiz-adv-x="1001" 
d="M399 1536q-12 -50 7.5 -89.5t62.5 -82.5l141 -133q23 -22 15.5 -39t-30 -28.5t-50.5 -14.5l-99 78q-77 62 -114.5 107t-36.5 81t25.5 62.5t78.5 58.5z" />
    <glyph glyph-name="a" unicode="a" horiz-adv-x="1017" 
d="M111 266q0 69 25 121t66.5 82.5t96 54t112 35.5t115 27t105 29.5t83.5 41.5t48 64q0 99 -56.5 152t-201.5 53q-148 0 -232 -58.5t-84 -156.5q-43 57 -43 123q0 91 99 146.5t260 55.5q186 0 278 -84t92 -237v-725q-53 20 -124 20q-29 0 -117.5 -17.5t-134.5 -17.5
q-187 0 -287 79.5t-100 211.5zM227 264q0 -84 70.5 -134t216.5 -50q68 0 130 13t90 27l28 13v455q-8 -29 -42.5 -49t-82 -31.5t-103 -22.5t-110 -26.5t-98.5 -38t-71.5 -62t-27.5 -94.5z" />
    <glyph glyph-name="b" unicode="b" horiz-adv-x="1056" 
d="M924 725v-438q0 -99 -57 -171.5t-145 -106.5t-194 -34q-75 0 -204.5 33.5t-169.5 40.5v1467q112 0 112 -109v-285q0 -78 -5.5 -132t-10.5 -68l-6 -15q3 5 10.5 14t36 31t64 39t99.5 31t138 14q139 0 235.5 -85t96.5 -226zM516 82q163 0 229 61.5t66 173.5v377
q0 120 -67 178t-179 58q-74 0 -142 -26.5t-112.5 -77t-44.5 -111.5v-574q13 -7 36.5 -16.5t89.5 -26t124 -16.5z" />
    <glyph glyph-name="c" unicode="c" horiz-adv-x="1009" 
d="M868 311q52 -74 52 -129q0 -68 -57.5 -116.5t-141 -69.5t-180.5 -21q-187 0 -297.5 84.5t-110.5 233.5v426q0 149 102 233t285 84q160 0 257 -55t97 -147q0 -63 -45 -123q0 98 -83 156.5t-230 58.5q-270 0 -270 -230v-383q0 -105 75 -166t220 -61q146 0 236.5 57.5
t90.5 167.5z" />
    <glyph glyph-name="d" unicode="d" horiz-adv-x="1056" 
d="M791 1122v394q112 0 112 -109v-1417q-53 20 -108 20q-40 0 -138 -17.5t-151 -17.5q-175 0 -274 84.5t-99 227.5v438q0 141 96.5 225t237.5 84q80 0 145.5 -13t101 -32t59.5 -37.5t32 -31.5l8 -13q-22 39 -22 215zM791 131v584q0 61 -44 111t-111.5 76t-141.5 26
q-112 0 -180 -59t-68 -175v-377q0 -123 66.5 -179t230.5 -56q68 0 130 12t90 24z" />
    <glyph glyph-name="e" unicode="e" horiz-adv-x="1017" 
d="M858 311q47 -66 47 -131q0 -67 -59.5 -115t-144.5 -69t-181 -21q-179 0 -283 84.5t-104 233.5v426q0 150 97.5 233.5t279.5 83.5q181 0 283 -81t102 -216q0 -130 -96 -208t-299 -78q-59 0 -122.5 13.5t-97.5 26.5l-34 13v-182q0 -121 61.5 -179.5t212.5 -58.5
q147 0 242.5 58t95.5 167zM246 688v-78q-2 -1 7 -5q61 -23 165 -37q40 -5 71 -5q156 0 224.5 45t68.5 131q0 191 -268 191q-80 0 -133.5 -16t-82.5 -48.5t-40.5 -75t-11.5 -102.5z" />
    <glyph glyph-name="f" unicode="f" horiz-adv-x="653" 
d="M154 76v1192q0 96 60.5 169.5t153.5 110.5t199 37q75 0 145 -21t118.5 -66t48.5 -103q0 -12 -3 -24t-6 -20.5t-10 -19t-10.5 -15.5t-12 -15.5t-10.5 -12.5q0 78 -75 132.5t-191 54.5q-125 0 -210 -60.5t-85 -169.5v-258h398q0 -4 -0.5 -11.5t-5 -26.5t-11.5 -33.5
t-22.5 -26.5t-36.5 -12h-322v-891q-5 0 -12.5 0.5t-26.5 5.5t-34 13.5t-27 27t-12 43.5z" />
    <glyph glyph-name="g" unicode="g" horiz-adv-x="987" 
d="M874 1024v-401q0 -152 -96 -235t-278 -83q-61 0 -112 7.5t-80 18t-49 21t-27 18.5l-7 7q-20 -72 -20 -119q0 -93 53 -119t207 -26h67q41 0 69.5 -1t67 -4.5t66 -11.5t58.5 -20t51.5 -31.5t38.5 -45.5t26.5 -62.5t8.5 -81.5q0 -162 -102.5 -256.5t-309.5 -94.5
q-108 0 -198 22t-149 69t-59 112q0 70 47 135q0 -104 84.5 -165.5t274.5 -61.5q89 0 149.5 19.5t91 56.5t42.5 78t12 96q0 38 -15 64t-37 40t-61.5 21.5t-73.5 9.5t-88 2h-100q-43 0 -75 1.5t-69 7t-63.5 14.5t-52 25.5t-41.5 39.5t-25.5 56.5t-9.5 76.5q0 61 20 102.5
t70 102.5q-57 75 -57 195v122q0 76 28.5 133.5t78 90.5t110.5 49t133 16q54 0 155 -18.5t132 -18.5q59 0 114 27zM500 412q150 0 206 58.5t56 182.5v221q-12 6 -34 15t-92.5 24t-143.5 15q-146 0 -201 -50.5t-55 -162.5v-62q0 -124 57 -182.5t207 -58.5z" />
    <glyph glyph-name="h" unicode="h" horiz-adv-x="1077" 
d="M266 715v-729q-5 0 -12.5 0.5t-26.5 5.5t-34 13.5t-27 27t-12 43.5v1442q7 0 14.5 -0.5t27 -6.5t33.5 -16t25.5 -33t11.5 -55v-285q0 -76 -5.5 -130t-10.5 -70l-6 -15q3 5 10 14t35.5 31t64 39t99.5 31t139 14q139 0 235.5 -85.5t96.5 -225.5v-739q-5 0 -12.5 0.5t-27 6
t-34.5 14t-27 26.5t-12 43v618q0 120 -67 178t-179 58q-74 0 -142 -26.5t-112.5 -77t-44.5 -111.5z" />
    <glyph glyph-name="i" unicode="i" horiz-adv-x="419" 
d="M154 76v950q10 0 23.5 -2.5t36 -10t37.5 -27.5t15 -50v-950q-5 0 -12.5 0.5t-26.5 5.5t-34 13.5t-27 27t-12 43.5zM145 1268v114h107q22 0 22 -28v-113h-106q-9 0 -16 9t-7 18z" />
    <glyph glyph-name="j" unicode="j" horiz-adv-x="419" 
d="M266 936v-1147q0 -116 -46 -197t-120 -81q-37 0 -73 32q33 0 59 30t40 78t21 100t7 104v1171q5 0 12.5 -0.5t26.5 -5.5t34 -13.5t27 -27t12 -43.5zM145 1268v114h107q22 0 22 -28v-113h-106q-9 0 -16 9t-7 18z" />
    <glyph glyph-name="k" unicode="k" horiz-adv-x="942" 
d="M455 594q88 -16 160.5 -62t117 -103.5t81 -126.5t56 -127t39 -110t33.5 -71q-35 -8 -53 -8q-41 0 -69 28.5t-46.5 75t-38.5 103t-54.5 114.5t-82.5 106.5t-133.5 82t-198.5 39.5v-549q-5 0 -12.5 0.5t-26.5 5.5t-34 13.5t-27 27t-12 43.5v1446q5 0 12.5 -0.5t26.5 -5.5
t34 -13.5t27 -27t12 -43.5v-795h29q74 0 129 17.5t101.5 59.5t82.5 94t84 140q11 20 16.5 27.5t22.5 22.5t46 21.5t71 6.5l20 -2q-12 -19 -40 -69t-52.5 -91.5t-62.5 -94t-74.5 -88.5t-85.5 -61.5t-98 -25.5z" />
    <glyph glyph-name="l" unicode="l" horiz-adv-x="419" 
d="M143 276v1246q9 0 22 -2t36.5 -9.5t39 -28t15.5 -50.5v-1102q0 -84 12.5 -150t43 -110.5t77.5 -44.5q-3 -4 -9 -10.5t-26.5 -17.5t-44.5 -11q-83 0 -124.5 79.5t-41.5 210.5z" />
    <glyph glyph-name="m" unicode="m" horiz-adv-x="1734" 
d="M811 74v637q0 115 -65.5 165t-206.5 50q-76 0 -144.5 -12t-98.5 -24l-30 -13v-891q-5 0 -12.5 0.5t-26.5 5.5t-34 13t-27 26t-12 43v946q51 -29 92 -29q51 0 155.5 22.5t165.5 22.5q67 0 123 -12.5t88.5 -31t55 -36.5t30.5 -30l8 -13q130 121 357 121q65 0 125.5 -16.5
t112.5 -50.5t83 -93t31 -135v-753q-5 0 -12.5 0.5t-27 5.5t-34.5 13.5t-27 26.5t-12 42v643q0 108 -66 157.5t-208 49.5q-104 0 -187 -49.5t-83 -129.5v-759q-5 0 -12.5 0.5t-27 5.5t-34.5 13t-27 26t-12 43z" />
    <glyph glyph-name="n" unicode="n" horiz-adv-x="1077" 
d="M811 76v635q0 106 -63.5 160.5t-208.5 54.5q-76 0 -144.5 -12t-98.5 -24l-30 -13v-891q-5 0 -12.5 0.5t-26.5 5.5t-34 13.5t-27 27t-12 43.5v944q57 -29 92 -29q48 0 151 22.5t170 22.5q55 0 104 -8.5t96.5 -29.5t81.5 -53.5t54.5 -84.5t20.5 -119v-755q-5 0 -12.5 0.5
t-27 5.5t-34.5 13.5t-27 27t-12 43.5z" />
    <glyph glyph-name="o" unicode="o" horiz-adv-x="1099" 
d="M967 719v-426q0 -154 -103.5 -236t-312.5 -82q-210 0 -314 82t-104 236v426q0 152 104 234.5t314 82.5q208 0 312 -82.5t104 -234.5zM854 324v364q0 61 -12 102.5t-44.5 75t-93 49t-153.5 15.5t-154.5 -15.5t-93.5 -49t-44.5 -75t-12.5 -102.5v-364q0 -62 12.5 -104
t44.5 -75t93.5 -49t154.5 -16t153.5 16t93 49t44.5 75t12 104z" />
    <glyph glyph-name="p" unicode="p" horiz-adv-x="1056" 
d="M266 -115v-256v-135q-12 0 -24.5 2t-35.5 11t-37.5 33.5t-14.5 62.5v1417q54 -25 102 -25q24 0 109 20.5t157 20.5q198 0 300 -81.5t102 -231.5v-438q0 -102 -52.5 -174t-131 -104t-171.5 -32q-40 0 -77 4.5t-66 12t-54.5 17t-44 20t-33.5 21t-25 20.5t-16 17t-8.5 11
t-0.5 4q22 -39 22 -217zM266 879v-584q0 -61 44.5 -111.5t112.5 -77t142 -26.5q111 0 178.5 59t67.5 176v377q0 124 -64 181t-231 57q-64 0 -126.5 -13t-93.5 -25z" />
    <glyph glyph-name="q" unicode="q" horiz-adv-x="1056" 
d="M791 -397v282q0 79 5.5 133.5t11.5 69.5l5 14q4 0 -6 -13t-35.5 -32t-62.5 -37.5t-97.5 -31.5t-130.5 -13q-92 0 -169.5 33t-128 105t-50.5 172v438q0 150 102 231.5t300 81.5q71 0 157 -20.5t109 -20.5q48 0 102 25v-1526q-12 0 -24.5 2t-35.5 11t-37.5 33.5t-14.5 62.5
zM791 295v584q-12 6 -33.5 14.5t-87 22.5t-129.5 14q-167 0 -231 -57t-64 -181v-377q0 -117 67.5 -176t178.5 -59q74 0 142 26.5t112.5 77t44.5 111.5z" />
    <glyph glyph-name="r" unicode="r" horiz-adv-x="739" 
d="M700 788q-5 127 -202 127q-154 0 -232 -43v-886q-5 0 -12.5 0.5t-26.5 5.5t-34 13.5t-27 27t-12 43.5v944q59 -29 98 -29t137 22.5t154 22.5q127 0 169.5 -66t-12.5 -182z" />
    <glyph glyph-name="s" unicode="s" horiz-adv-x="956" 
d="M752 287q0 52 -22 87t-60 52t-87 26.5t-103 14t-108.5 10.5t-104 21t-88 40.5t-62 72.5t-25.5 114q0 154 95.5 232.5t281.5 78.5q72 0 133.5 -10.5t113 -32.5t81.5 -61.5t30 -91.5q0 -64 -49 -152q2 10 2 33q0 98 -75 153.5t-236 55.5q-144 0 -204 -49t-60 -146
q0 -60 36.5 -93.5t94.5 -45t128 -17t140.5 -17.5t128.5 -38.5t94.5 -89t36.5 -158.5q0 -136 -102 -218.5t-293 -82.5q-72 0 -134 9.5t-118 32t-88.5 64.5t-32.5 101q0 51 31 127q0 -103 84.5 -165t257.5 -62q283 0 283 205z" />
    <glyph glyph-name="t" unicode="t" horiz-adv-x="819" 
d="M154 283v997q5 0 12.5 -0.5t26.5 -6t34 -14t27 -26.5t12 -43v-203h428q0 -4 -0.5 -11.5t-5 -26.5t-11.5 -33.5t-22.5 -26.5t-36.5 -12h-352v-543q0 -117 63.5 -182.5t184.5 -65.5q102 0 175 58.5t73 150.5q37 -67 37 -123q0 -94 -84 -145.5t-203 -51.5
q-155 0 -256.5 81.5t-101.5 226.5z" />
    <glyph glyph-name="u" unicode="u" horiz-adv-x="1077" 
d="M266 936v-625q0 -35 4.5 -62.5t21 -60.5t44.5 -55.5t80.5 -37.5t124.5 -15q76 0 143.5 13t97.5 25l29 13v895q5 0 12.5 -0.5t27 -5.5t34.5 -13.5t27 -27t12 -43.5v-946q-46 20 -111 20q-35 0 -132 -17.5t-149 -17.5q-69 0 -131 14.5t-120 46t-92.5 92t-34.5 142.5v756
q5 0 12.5 -0.5t26.5 -6t34 -14t27 -26.5t12 -43z" />
    <glyph glyph-name="v" unicode="v" horiz-adv-x="970" 
d="M899 1026l-39 -397q-9 -95 -34.5 -182.5t-59.5 -152t-72.5 -120.5t-75 -93t-66.5 -63.5t-48 -38.5l-19 -12q-7 4 -18.5 12t-46.5 38t-67 64.5t-73 92t-73 121t-58 151.5t-36 183l-41 397q4 0 11.5 -0.5t26.5 -5.5t34.5 -13.5t29 -27.5t16.5 -45l41 -354q9 -79 38.5 -158
t65.5 -136t70 -102.5t57 -68.5l23 -23q9 8 24.5 23.5t55.5 66t72.5 104t63.5 134t40 160.5l41 354q3 26 16 45t29.5 27.5t33 13.5t27.5 6h11z" />
    <glyph glyph-name="w" unicode="w" horiz-adv-x="1568" 
d="M1079 92q9 8 24.5 22t56 62.5t73.5 101t64.5 135t41.5 167.5l41 354q3 26 16 45t29.5 27.5t33 13.5t27.5 6h11l-39 -397q-9 -95 -34.5 -182.5t-59.5 -152t-72.5 -120.5t-75 -93t-66.5 -63.5t-48 -38.5l-19 -12q-8 4 -21.5 13t-52 39t-74.5 64.5t-79.5 90t-75.5 115.5
q-25 -51 -65 -103t-78.5 -89.5t-73.5 -68t-57 -46.5l-21 -15q-7 4 -18.5 12t-46.5 38t-67 64.5t-73 92t-73 121t-58 151.5t-36 183l-41 397q4 0 11.5 -0.5t26.5 -5.5t34.5 -13.5t29 -27.5t16.5 -45l41 -354q9 -78 39.5 -157t67 -136t72 -103t58.5 -69l24 -23q7 6 19 16
t45.5 43.5t63 68.5t62.5 87t53 103q-13 46 -27 149t-14 195q0 259 146 264q-31 -155 -31 -303q0 -198 65.5 -365t204.5 -258z" />
    <glyph glyph-name="x" unicode="x" horiz-adv-x="866" 
d="M651 78l-217 356l-217 -356q-54 -92 -158 -92l-26 2q3 7 14.5 25t27 44t25.5 43l144 242q22 37 51 78.5t47 64.5l18 23q-61 68 -116 162l-138 231q-13 22 -30.5 51t-28.5 46.5t-14 23.5q6 4 26 4q95 0 154 -94l221 -354l221 354q59 94 154 94l27 -4q-3 -6 -14.5 -24
t-28.5 -46t-31 -51l-137 -231q-24 -42 -53.5 -82.5t-46.5 -59.5l-17 -20q68 -82 117 -166l143 -242q12 -21 38 -62.5t30 -49.5q-7 -2 -27 -2q-104 0 -158 92z" />
    <glyph glyph-name="y" unicode="y" horiz-adv-x="991" 
d="M508 162q9 7 25 20t56.5 56t73.5 88.5t63 114.5t38 137l37 346q3 30 15 49.5t33.5 29t34 12.5t36.5 7l-39 -395q-10 -99 -40 -187t-74.5 -153t-87 -110.5t-91.5 -82.5l-80 -61q-121 -95 -157 -132q-87 -89 -93 -197v-19q0 -74 47 -183q-16 -4 -31 -4q-23 0 -44 8
t-42.5 28t-34 60.5t-12.5 98.5q0 64 23.5 123.5t67 110.5t91 91.5t109.5 81.5q-32 20 -66 50.5t-73 79t-70.5 105t-56.5 133.5t-33 159l-41 397q4 0 11.5 -0.5t27 -5.5t35 -13.5t29 -27t16.5 -43.5l41 -356q8 -71 37.5 -140t65.5 -117t71 -85.5t58 -55.5z" />
    <glyph glyph-name="z" unicode="z" horiz-adv-x="880" 
d="M662 905h-560q0 4 0.5 11.5t4.5 26t11.5 32.5t23.5 25.5t38 11.5h623q-6 -21 -13.5 -67t-13.5 -66q-31 -96 -99 -195t-143.5 -177t-147.5 -150t-122.5 -138t-56.5 -115h612q0 -4 -0.5 -11t-4.5 -25t-11 -32t-23 -25t-37 -11h-665v45q0 66 26 130t69.5 119t97 110t112 112
t111.5 115t98.5 129.5t69.5 144.5z" />
    <glyph glyph-name="braceleft" unicode="{" horiz-adv-x="487" 
d="M193 557q4 -3 10.5 -8.5t23 -24t29 -39.5t23 -54.5t10.5 -68.5v-489q0 -103 37.5 -159t109.5 -56q-42 -34 -89.5 -40t-86 13.5t-64.5 67.5t-26 115v524q0 49 -12 89.5t-27.5 62.5t-35.5 39t-29 21.5t-15 6.5q8 3 17 8t29 22t34.5 39.5t26.5 62t12 87.5v524q0 67 26 115
t64.5 67.5t86 13.5t89.5 -40q-72 0 -109.5 -56t-37.5 -159v-489q0 -35 -10 -68t-24 -55t-28 -39t-24 -25z" />
    <glyph glyph-name="bar" unicode="|" horiz-adv-x="460" 
d="M174 -406v1930q5 0 12.5 -0.5t27 -5.5t34.5 -13.5t27 -27t12 -43.5v-1930q-5 0 -12.5 0.5t-27 5.5t-34.5 13.5t-27 27t-12 43.5z" />
    <glyph glyph-name="braceright" unicode="}" horiz-adv-x="487" 
d="M295 557q-4 3 -10.5 8.5t-23 24t-29 39.5t-23 54.5t-10.5 68.5v489q0 103 -38 159t-110 56q42 34 89.5 40t86 -13.5t64.5 -67.5t26 -115v-524q0 -48 12 -87.5t26.5 -62t34.5 -39.5t29 -22t17 -8q-6 -2 -15 -6.5t-29 -21.5t-35.5 -39t-27.5 -62.5t-12 -89.5v-524
q0 -67 -26 -115t-64.5 -67.5t-86 -13.5t-89.5 40q72 0 110 56t38 159v489q0 35 10 68t24 55t28 39t24 25z" />
    <glyph glyph-name="asciitilde" unicode="~" horiz-adv-x="1277" 
d="M98 651q-6 29 -6 45q0 115 166 115q75 0 382 -53t388 -53q41 0 79 11.5t55 23.5l18 12q6 -30 6 -50q0 -44 -38 -77t-130 -33q-76 0 -382 53t-386 53q-50 0 -88 -12t-51 -24z" />
    <glyph glyph-name="uni00A0" unicode="&#xa0;" horiz-adv-x="573" 
 />
    <glyph glyph-name="exclamdown" unicode="&#xa1;" horiz-adv-x="509" 
d="M238 68v1015q9 0 22 -2t36 -9t38.5 -27t15.5 -50v-1015q-5 0 -12.5 0.5t-26.5 5.5t-34 13t-27 26t-12 43zM356 1284h-100q-23 0 -23 29v106h101q22 0 22 -28v-107z" />
    <glyph glyph-name="cent" unicode="&#xa2;" horiz-adv-x="1030" 
d="M467 -35v15q-158 14 -246 95.5t-88 217.5v426q0 141 86.5 223.5t247.5 91.5v105q5 0 12.5 -0.5t27 -5.5t34.5 -13.5t27 -27t12 -43.5v-17q133 -11 213.5 -64t80.5 -134q0 -63 -45 -123q0 85 -66 141.5t-183 69.5v-834q128 10 208 66.5t80 156.5q52 -74 52 -129
q0 -62 -51 -108.5t-125 -69t-164 -27.5v-102q-5 0 -12.5 0.5t-27 5.5t-34.5 13.5t-27 27t-12 43.5zM246 313q0 -200 221 -225v836q-67 -4 -112.5 -23t-68 -51t-31.5 -68t-9 -86v-383z" />
    <glyph glyph-name="sterling" unicode="&#xa3;" horiz-adv-x="1228" 
d="M907 1245q-3 83 -76.5 125.5t-236.5 42.5q-134 0 -206.5 -61.5t-72.5 -175.5v-273h381q0 -4 -0.5 -11.5t-4.5 -26.5t-11.5 -33.5t-22.5 -26.5t-36 -12h-306v-529q0 -25 -3 -62t-6 -61l-3 -24q23 -8 63.5 -19t157 -30t224.5 -19q46 0 81 3.5t80 18t76 39.5t58 71.5
t38 111.5q39 -77 39 -143q0 -108 -101 -165t-261 -57q-113 0 -227 21t-222.5 52t-134.5 36q23 94 23 170v999q0 146 112 232t285 86q155 0 251.5 -40.5t96.5 -119.5q0 -62 -35 -119z" />
    <glyph glyph-name="yen" unicode="&#xa5;" horiz-adv-x="1228" 
d="M324 670h174q-90 98 -180.5 263t-159 318t-86.5 181l23 2h3q45 0 82 -23.5t74 -87.5q16 -26 55.5 -111.5t78.5 -165.5t99.5 -174t120.5 -151q77 74 149.5 196.5t132.5 253t73 152.5q37 64 73.5 87.5t81.5 23.5l27 -2q-19 -29 -65.5 -129.5t-95 -205.5t-122 -228
t-143.5 -199h227q1 -16 2.5 -40.5t-14 -47.5t-45.5 -23h-219v-197h276q1 -16 2.5 -40.5t-14 -47t-45.5 -22.5h-219v-272q-5 0 -13 0.5t-29 5.5t-37 13.5t-29 27.5t-13 45v180h-281q-1 19 -2 43.5t14 45.5t44 21h225v197h-281q-1 19 -2 43.5t14 46t44 21.5z" />
    <glyph glyph-name="brokenbar" unicode="&#xa6;" horiz-adv-x="460" 
d="M174 772v752q5 0 12.5 -0.5t27 -5.5t34.5 -13t27 -26t12 -43v-754q-5 0 -12.5 0.5t-27 5.5t-34.5 13.5t-27 27t-12 43.5zM174 -406v752q5 0 12.5 -0.5t27 -5.5t34.5 -13.5t27 -27t12 -43.5v-752q-5 0 -12.5 0.5t-27 5.5t-34.5 13.5t-27 27t-12 43.5z" />
    <glyph glyph-name="section" unicode="&#xa7;" horiz-adv-x="1218" 
d="M1055 1278q0 -54 -19 -104q-15 51 -42 91t-74 73.5t-122.5 52t-176.5 18.5q-80 0 -140 -9.5t-98.5 -30t-63 -44t-36 -59t-15.5 -67t-4 -75.5q0 -66 27 -112.5t72.5 -72.5t104 -43t123.5 -29.5t130.5 -27t124 -40t104 -63.5t72.5 -103.5t27 -153.5q0 -84 -68 -196
q4 32 4 65q0 65 -12 117.5t-34 89.5t-53 65.5t-67.5 47t-78 32.5t-85.5 23.5t-89 18.5q-47 9 -71 14t-66.5 16t-66 21t-58 27.5t-54 36.5t-42.5 47.5t-35 61.5t-20 76.5t-8 94.5q0 387 476 387q129 0 223 -23t152.5 -79.5t58.5 -143.5zM172 -225q0 56 18 104q15 -51 42 -91
t74 -73.5t123 -52t177 -18.5q95 0 162.5 15.5t105 39t58 63t26 76t5.5 90.5q0 66 -27 112.5t-72.5 72.5t-104 43t-124 29.5t-130.5 27t-123.5 40t-104 63.5t-72.5 103.5t-27 153.5q0 85 68 197q-4 -32 -4 -65q0 -90 25.5 -156.5t60 -104.5t97 -66t110.5 -40t126 -27
q84 -16 127 -26.5t109 -39.5t99 -66.5t59 -105t26 -157.5q0 -387 -475 -387q-129 0 -223 23t-152.5 79.5t-58.5 143.5z" />
    <glyph glyph-name="dieresis" unicode="&#xa8;" horiz-adv-x="1001" 
d="M356 1268v114h107q22 0 22 -28v-113h-106q-9 0 -16 9t-7 18zM629 1268v114h106q23 0 23 -28v-113h-107q-9 0 -15.5 9t-6.5 18z" />
    <glyph glyph-name="copyright" unicode="&#xa9;" horiz-adv-x="1636" 
d="M1376 524v373q0 83 -14 146.5t-51.5 120.5t-99.5 93t-161.5 57t-234.5 21q-133 0 -230.5 -21t-159 -57t-98.5 -93t-51 -120.5t-14 -146.5v-373q0 -84 14 -148t51 -121t98.5 -94t159 -58t230.5 -21q135 0 234.5 21t161.5 58t99.5 94t51.5 121t14 148zM154 436v549
q0 213 179 335t486 122q306 0 485 -122t179 -335v-549q0 -214 -178.5 -335t-485.5 -121q-308 0 -486.5 121t-178.5 335zM1139 588q49 -71 49 -121q0 -64 -56.5 -110t-137 -65.5t-171.5 -19.5q-174 0 -273 78.5t-99 218.5v287q0 141 91.5 219t260.5 78q152 0 247 -52t95 -138
q0 -61 -43 -115q0 91 -82 146t-221 55q-74 0 -123.5 -15.5t-74.5 -46.5t-34.5 -66t-9.5 -85v-246q0 -213 266 -213q138 0 227 54t89 157z" />
    <glyph glyph-name="ordfeminine" unicode="&#xaa;" horiz-adv-x="915" 
d="M651 770v311q-22 -22 -70 -39.5t-98.5 -29.5t-99 -28.5t-79 -46.5t-30.5 -73q0 -129 191 -129q46 0 92.5 8.5t70.5 17.5zM158 862q0 55 22.5 95.5t59.5 64.5t82.5 41.5t95 30.5t93.5 26t81 35t55 51q-4 140 -184 140q-109 0 -171.5 -34t-72.5 -116q-35 52 -35 94
q0 72 81 112t198 40q145 0 223 -63.5t78 -178.5v-547q-50 11 -107 11q-38 0 -107 -10.5t-106 -10.5q-55 0 -104 12t-91 36.5t-66.5 68.5t-24.5 102z" />
    <glyph glyph-name="guillemotleft" unicode="&#xab;" horiz-adv-x="1226" 
d="M637 508l416 -416q-36 -53 -74 -53q-6 0 -12 1.5t-12.5 4.5t-12 5.5t-13 8.5t-11.5 9.5t-12 11t-11 10.5l-12 12l-11 11l-303 303q-49 49 -49 90q0 43 51 94l408 408q59 -38 59 -78q0 -6 -3 -13t-9 -15.5t-12 -16t-16 -18t-16.5 -17.5t-18 -18t-17.5 -17zM250 508
l416 -416q-36 -53 -74 -53q-6 0 -12 1.5t-12.5 4.5t-12 5.5t-13 8.5t-11.5 9.5t-12 11t-11 10.5l-12 12l-11 11l-303 303q-49 49 -49 90q0 43 51 94l408 408q59 -38 59 -78q0 -6 -3 -13t-9 -15.5t-12 -16t-16 -18t-16.5 -17.5t-18 -18t-17.5 -17z" />
    <glyph glyph-name="logicalnot" unicode="&#xac;" horiz-adv-x="1306" 
d="M1020 88v580l-891 2q-19 0 -30.5 7t-16 20.5t-5.5 22t-1 23.5l4 35h932q70 0 95.5 -28.5t25.5 -96.5v-503q0 -66 -74 -66z" />
    <glyph glyph-name="uni00AD" unicode="&#xad;" horiz-adv-x="993" 
d="M213 582h623q1 -16 2 -40.5t-14.5 -47.5t-45.5 -23h-620q-1 19 -2 43.5t13.5 46t43.5 21.5z" />
    <glyph glyph-name="registered" unicode="&#xae;" horiz-adv-x="1024" 
d="M328 797v471h147q45 0 82 -8.5t67.5 -26.5t48 -51.5t17.5 -79.5q0 -58 -28.5 -101t-79.5 -55q95 -55 125 -192q-44 -11 -64 -11q-38 0 -57 37q-39 122 -156 138v-177q-4 0 -11 1t-24.5 5t-31 9.5t-24.5 16t-11 24.5zM475 1188h-45v-191h45q111 0 111 99q0 56 -27 74
t-84 18zM823 881v241q0 115 -70.5 177.5t-246.5 62.5q-170 0 -238.5 -62.5t-68.5 -177.5v-241q0 -115 68 -175.5t239 -60.5q177 0 247 60.5t70 175.5zM104 848v313q0 131 110.5 206t297.5 75t297.5 -75t110.5 -206v-313q0 -131 -110.5 -207t-297.5 -76t-297.5 76t-110.5 207
z" />
    <glyph glyph-name="macron" unicode="&#xaf;" horiz-adv-x="757" 
d="M158 1341h493q16 -104 -51 -104h-491q-5 20 -5 43.5t14 42t40 18.5z" />
    <glyph glyph-name="degree" unicode="&#xb0;" horiz-adv-x="755" 
d="M643 1362v-217q0 -83 -71 -127.5t-195 -44.5q-123 0 -193.5 44.5t-70.5 127.5v217q0 79 72 126.5t192 47.5q122 0 194 -47.5t72 -126.5zM543 1192v125q0 57 -41 93t-125 36q-86 0 -125 -35.5t-39 -93.5v-125q0 -129 164 -129q85 0 125.5 35t40.5 94z" />
    <glyph glyph-name="plusminus" unicode="&#xb1;" horiz-adv-x="993" 
d="M438 362v209h-278q-5 21 -5.5 46t14 46t40.5 21h229v277q45 6 76 -11t31 -51v-215h282q2 -21 2.5 -46t-13 -46t-40.5 -21h-231v-270q-37 -5 -72 11t-35 50zM215 180h621q1 -16 2 -40.5t-14.5 -47t-45.5 -22.5h-618q-1 19 -2 43.5t13.5 45.5t43.5 21z" />
    <glyph glyph-name="twosuperior" unicode="&#xb2;" horiz-adv-x="788" 
d="M133 713v96q0 39 14 73t30.5 55t52 45t55.5 34t63 31q30 15 39 19t35 18t35 21t26.5 22t24 27.5t12.5 30t6 36.5v16q0 57 -35 90t-106 33q-187 0 -209 -121q-33 42 -33 78q0 65 71.5 97t170.5 32q114 0 184 -52t70 -139v-41q0 -30 -7.5 -56t-16.5 -45t-29 -38.5
t-34 -30.5t-42.5 -26.5t-42 -22t-45.5 -20.5q-97 -44 -128 -70q-51 -44 -52 -104h313q71 0 96 10q0 -4 -0.5 -10.5t-4.5 -23.5t-10 -30t-18.5 -23.5t-29.5 -10.5h-455z" />
    <glyph glyph-name="threesuperior" unicode="&#xb3;" horiz-adv-x="784" 
d="M649 926v-31q0 -86 -72.5 -140.5t-191.5 -54.5q-65 0 -121 14t-93.5 45t-37.5 75q0 38 29 75q12 -47 47 -74t76.5 -35.5t99.5 -8.5q76 0 114 32.5t38 87.5q0 118 -111 129q-11 1 -17.5 3t-17 9t-15.5 22.5t-5 39.5v8h22q73 1 103 29t30 88q0 56 -35 87.5t-106 31.5
q-180 0 -213 -121q-29 37 -29 78q0 62 73 96.5t169 34.5q113 0 183.5 -52.5t70.5 -138.5v-26q0 -103 -88 -148q48 -21 73 -63.5t25 -91.5z" />
    <glyph glyph-name="acute" unicode="&#xb4;" horiz-adv-x="1001" 
d="M545 1536q54 -32 78.5 -58.5t25.5 -62.5t-36.5 -81t-114.5 -107l-99 -78q-28 3 -50.5 14.5t-30 28.5t15.5 39l141 133q43 43 62.5 82.5t7.5 89.5z" />
    <glyph glyph-name="mu" unicode="&#xb5;" horiz-adv-x="1077" 
d="M266 936v-625q0 -35 4.5 -62.5t21 -60.5t44.5 -55.5t80.5 -37.5t124.5 -15q76 0 143.5 13t97.5 25l29 13v895q5 0 12.5 -0.5t27 -5.5t34.5 -13.5t27 -27t12 -43.5v-946q-46 20 -111 20q-35 0 -132 -17.5t-149 -17.5q-168 0 -274 74q12 -66 12 -131v-426q-5 0 -12.5 0.5
t-27.5 5.5t-35.5 13t-28 26t-12.5 43v1446q5 0 12.5 -0.5t26.5 -6t34 -14t27 -26.5t12 -43z" />
    <glyph glyph-name="mu" unicode="&#x3bc;" horiz-adv-x="1077" 
d="M266 936v-625q0 -35 4.5 -62.5t21 -60.5t44.5 -55.5t80.5 -37.5t124.5 -15q76 0 143.5 13t97.5 25l29 13v895q5 0 12.5 -0.5t27 -5.5t34.5 -13.5t27 -27t12 -43.5v-946q-46 20 -111 20q-35 0 -132 -17.5t-149 -17.5q-168 0 -274 74q12 -66 12 -131v-426q-5 0 -12.5 0.5
t-27.5 5.5t-35.5 13t-28 26t-12.5 43v1446q5 0 12.5 -0.5t26.5 -6t34 -14t27 -26.5t12 -43z" />
    <glyph glyph-name="paragraph" unicode="&#xb6;" horiz-adv-x="1179" 
d="M901 1311h-156q9 -39 9 -117v-1413q0 -113 -38 -195t-108 -82q-63 0 -104 33q44 0 76.5 50.5t46.5 119t14 139.5v463q0 30 2 56t4 37l2 10q-77 -33 -178 -33q-133 0 -226 87t-93 224v410q0 152 96.5 235.5t277.5 83.5h301q52 0 103.5 7.5t99.5 23.5t77.5 45t29.5 68
q32 -41 32 -95q0 -50 -42.5 -87t-102 -53.5t-123.5 -16.5zM971 1077v-1243q0 -56 -2 -89.5t-11.5 -74t-27.5 -62.5t-51.5 -37.5t-81.5 -16.5q2 1 6.5 4.5t15 22.5t18.5 49t14.5 91t6.5 140v1364q5 -1 12.5 -4t27 -15t34.5 -27t27 -42.5t12 -59.5z" />
    <glyph glyph-name="periodcentered" unicode="&#xb7;" horiz-adv-x="395" 
d="M131 633h111q17 0 21.5 -7.5t4.5 -23.5v-119h-110q-17 0 -22 8t-5 25v117z" />
    <glyph glyph-name="cedilla" unicode="&#xb8;" horiz-adv-x="1705" 
d="M496 -227q0 5 6 30l65 232q18 0 48 -20t24 -48l-23 -88q94 0 153.5 -47.5t59.5 -138.5q0 -83 -59 -129.5t-145 -46.5q-21 0 -41 4t-42.5 14t-36 31.5t-13.5 52.5q50 -20 96 -20q56 0 95.5 23t39.5 75q0 46 -37.5 70t-91.5 24q-24 0 -48.5 -4.5t-37.5 -8.5z" />
    <glyph glyph-name="onesuperior" unicode="&#xb9;" horiz-adv-x="618" 
d="M219 1436q114 0 150 12v-651h147q1 -3 1.5 -8.5t-0.5 -20t-5 -25t-15 -19.5t-28 -9h-350q-1 3 -2 8.5t-1 20t3.5 25t15 19.5t29.5 9h96v549h-35q-40 0 -68 -18.5t-36 -49.5q-33 39 -33 74q0 42 35 63t96 21z" />
    <glyph glyph-name="ordmasculine" unicode="&#xba;" horiz-adv-x="970" 
d="M821 1200v-313q0 -117 -83.5 -180.5t-248.5 -63.5q-166 0 -248.5 63.5t-82.5 180.5v313q0 117 82 179.5t249 62.5q166 0 249 -63t83 -179zM705 909v267q0 61 -16 97.5t-64.5 58.5t-135.5 22q-66 0 -109.5 -11.5t-66.5 -35.5t-32 -55t-9 -76v-267q0 -92 44.5 -134
t172.5 -42q87 0 135.5 21.5t64.5 57.5t16 97z" />
    <glyph glyph-name="guillemotright" unicode="&#xbb;" horiz-adv-x="1226" 
d="M133 92l416 416l-309 307q-5 5 -23.5 23t-26.5 26.5t-20.5 22.5t-17.5 24.5t-5 18.5q0 40 60 78l407 -408q52 -52 52 -94q0 -40 -50 -90l-303 -303l-14 -14l-15.5 -15.5t-14 -13t-16 -13t-14.5 -9t-16.5 -7.5t-15.5 -2q-38 0 -74 53zM520 92l416 416l-309 307
q-6 6 -17.5 17t-18 18t-16.5 17.5t-16 18t-12 16t-9 15.5t-3 13q0 40 59 78l407 -408q52 -52 52 -94q0 -41 -49 -90l-304 -303l-14 -14l-15.5 -15.5t-14 -13t-16 -13t-14.5 -9t-16.5 -7.5t-15.5 -2q-38 0 -74 53z" />
    <glyph glyph-name="onequarter" unicode="&#xbc;" horiz-adv-x="1378" 
d="M1100 219h-344q4 62 51 149t109.5 164.5t113.5 133t76 77.5q4 0 11 -1t24.5 -4.5t31 -9t24.5 -16t11 -24.5v-389h82q-10 -80 -63 -80h-19v-217q-12 0 -27 2t-35 7.5t-33 18t-13 29.5v160zM1100 602q-58 -62 -121.5 -149t-93.5 -154h215v303zM362 410l721 723
q39 -53 39 -86q0 -30 -24 -54l-723 -721q-37 51 -37 84q0 30 24 54zM219 1434q114 0 150 12v-651h147q1 -3 1.5 -8.5t-0.5 -20t-5 -25t-15 -19.5t-28 -9h-350q-1 3 -2 8.5t-1 20t3.5 25t15 19.5t29.5 9h96v548h-35q-40 0 -68.5 -18t-35.5 -49q-33 39 -33 74q0 42 35 63
t96 21z" />
    <glyph glyph-name="onehalf" unicode="&#xbd;" horiz-adv-x="1519" 
d="M360 410l721 723q67 -88 15 -140l-723 -721q-65 86 -13 138zM219 1436q114 0 150 12v-651h147q1 -3 1.5 -8.5t-0.5 -20t-5 -25t-15 -19.5t-28 -9h-350q-1 3 -2 8.5t-1 20t3.5 25t15 19.5t29.5 9h96v549h-35q-40 0 -68 -18.5t-36 -49.5q-33 39 -33 74q0 42 35 63t96 21z
M918 2v96q0 39 14 73t30.5 55t52 45t55.5 34t63 31q30 15 39 19t35 18t35 21t26.5 22t24 27.5t12.5 30t6 36.5v16q0 56 -35.5 89.5t-106.5 33.5q-186 0 -208 -121q-33 42 -33 78q0 65 71 97t170 32q114 0 184 -51.5t70 -138.5v-41q0 -35 -8 -64t-26 -52t-34.5 -39.5t-47 -34
t-48 -26t-53.5 -24.5q-97 -44 -128 -70q-52 -43 -52 -104h313q72 0 97 10q0 -4 -1 -10.5t-5 -23.5t-10 -30t-18.5 -23.5t-29.5 -10.5h-454z" />
    <glyph glyph-name="threequarters" unicode="&#xbe;" horiz-adv-x="1462" 
d="M1184 219h-344q4 62 51 149t109.5 164.5t113.5 133t76 77.5q4 0 11 -1t24.5 -4.5t31 -9t24.5 -16t11 -24.5v-389h82q-10 -80 -63 -80h-19v-217q-12 0 -27 2t-35 7.5t-33 18t-13 29.5v160zM1184 602q-58 -62 -121.5 -149t-93.5 -154h215v303zM446 410l721 723
q39 -53 39 -86q0 -30 -24 -54l-723 -721q-37 51 -37 84q0 30 24 54zM649 924v-31q0 -86 -72.5 -140.5t-191.5 -54.5q-66 0 -121.5 13.5t-93 44.5t-37.5 75q0 39 29 76q12 -47 47 -74.5t76.5 -36t99.5 -8.5q76 0 114 33t38 88q0 118 -111 129q-11 1 -17.5 3t-17 9t-15.5 22.5
t-5 39.5v8h22q73 1 103 29t30 88q0 56 -35 87.5t-106 31.5q-180 0 -213 -121q-29 37 -29 78q0 62 73 96.5t169 34.5q113 0 183.5 -52.5t70.5 -138.5v-26q0 -103 -88 -148q48 -21 73 -63.5t25 -91.5z" />
    <glyph glyph-name="questiondown" unicode="&#xbf;" horiz-adv-x="1054" 
d="M608 88q155 0 240.5 56t85.5 157q29 -62 29 -127q0 -51 -32.5 -91t-85.5 -62.5t-113.5 -34t-123.5 -11.5q-204 0 -330 88.5t-126 247.5v51q0 71 26 128.5t67.5 97.5t92 75t100.5 68t91.5 69t67.5 86t26 111v99q4 0 11 -0.5t24.5 -6t31 -14.5t24.5 -28.5t11 -45.5v-45
q0 -63 -25 -116t-65 -90.5t-88.5 -72t-97.5 -67.5t-89 -69t-65 -85.5t-25 -107.5q0 -123 85.5 -191.5t252.5 -68.5zM733 1284h-100q-23 0 -23 29v106h101q22 0 22 -28v-107z" />
    <glyph glyph-name="Agrave" unicode="&#xc0;" horiz-adv-x="1232" 
d="M981 332l-41 143h-647l-41 -143q-4 -15 -13 -47t-14 -49.5t-14.5 -47t-16.5 -47t-18.5 -42t-22 -38.5t-25.5 -30.5t-30.5 -25.5t-35.5 -15t-42 -6q-14 0 -20 2q8 14 19.5 41.5t27 70.5t30 85t35 107t35.5 113t39 126l38 123.5t39 128t36 118.5q35 115 80.5 212.5
t79 151.5t75.5 101t53 56.5t29 23.5q18 -14 29 -23t53.5 -57t76 -101.5t79 -151t80.5 -212.5q11 -36 36 -118.5t39 -128l38 -123.5t39 -126t35.5 -113t35 -107t30 -85t27 -70.5t19.5 -41.5q-6 -2 -21 -2q-24 0 -45.5 6t-39 20.5t-31.5 28.5t-27.5 39.5t-22 43.5t-19 51
t-16 51.5t-15.5 55t-15 52.5zM326 588h581l-78 258q-40 134 -93.5 243.5t-86.5 152.5l-33 42q-5 -6 -14 -17t-35 -50.5t-50.5 -86t-56.5 -123.5t-57 -161zM467 1913q-12 -50 7.5 -89.5t62.5 -82.5l141 -133q23 -22 15.5 -39t-30 -28.5t-50.5 -14.5l-99 78q-77 62 -114.5 107
t-36.5 81t25.5 62.5t78.5 58.5z" />
    <glyph glyph-name="Aacute" unicode="&#xc1;" horiz-adv-x="1232" 
d="M981 332l-41 143h-647l-41 -143q-4 -15 -13 -47t-14 -49.5t-14.5 -47t-16.5 -47t-18.5 -42t-22 -38.5t-25.5 -30.5t-30.5 -25.5t-35.5 -15t-42 -6q-14 0 -20 2q8 14 19.5 41.5t27 70.5t30 85t35 107t35.5 113t39 126l38 123.5t39 128t36 118.5q35 115 80.5 212.5
t79 151.5t75.5 101t53 56.5t29 23.5q18 -14 29 -23t53.5 -57t76 -101.5t79 -151t80.5 -212.5q11 -36 36 -118.5t39 -128l38 -123.5t39 -126t35.5 -113t35 -107t30 -85t27 -70.5t19.5 -41.5q-6 -2 -21 -2q-24 0 -45.5 6t-39 20.5t-31.5 28.5t-27.5 39.5t-22 43.5t-19 51
t-16 51.5t-15.5 55t-15 52.5zM326 588h581l-78 258q-40 134 -93.5 243.5t-86.5 152.5l-33 42q-5 -6 -14 -17t-35 -50.5t-50.5 -86t-56.5 -123.5t-57 -161zM766 1913q54 -32 78.5 -58.5t25.5 -62.5t-36.5 -81t-114.5 -107l-98 -78q-28 3 -51 14.5t-30.5 28.5t15.5 39l141 133
q43 43 62.5 82.5t7.5 89.5z" />
    <glyph glyph-name="Acircumflex" unicode="&#xc2;" horiz-adv-x="1232" 
d="M981 332l-41 143h-647l-41 -143q-4 -15 -13 -47t-14 -49.5t-14.5 -47t-16.5 -47t-18.5 -42t-22 -38.5t-25.5 -30.5t-30.5 -25.5t-35.5 -15t-42 -6q-14 0 -20 2q8 14 19.5 41.5t27 70.5t30 85t35 107t35.5 113t39 126l38 123.5t39 128t36 118.5q35 115 80.5 212.5
t79 151.5t75.5 101t53 56.5t29 23.5q18 -14 29 -23t53.5 -57t76 -101.5t79 -151t80.5 -212.5q11 -36 36 -118.5t39 -128l38 -123.5t39 -126t35.5 -113t35 -107t30 -85t27 -70.5t19.5 -41.5q-6 -2 -21 -2q-24 0 -45.5 6t-39 20.5t-31.5 28.5t-27.5 39.5t-22 43.5t-19 51
t-16 51.5t-15.5 55t-15 52.5zM326 588h581l-78 258q-40 134 -93.5 243.5t-86.5 152.5l-33 42q-5 -6 -14 -17t-35 -50.5t-50.5 -86t-56.5 -123.5t-57 -161zM450 1782l166 137l166 -137q80 -66 75.5 -137t-91.5 -117q12 24 12 49q0 24 -16.5 54.5t-40.5 57t-48 50t-41 37.5
l-16 14q-7 -5 -17.5 -14.5t-38.5 -36t-49 -51.5t-38.5 -56t-17.5 -55q0 -25 12 -49q-88 46 -92.5 117t75.5 137z" />
    <glyph glyph-name="Atilde" unicode="&#xc3;" horiz-adv-x="1232" 
d="M981 332l-41 143h-647l-41 -143q-4 -15 -13 -47t-14 -49.5t-14.5 -47t-16.5 -47t-18.5 -42t-22 -38.5t-25.5 -30.5t-30.5 -25.5t-35.5 -15t-42 -6q-14 0 -20 2q8 14 19.5 41.5t27 70.5t30 85t35 107t35.5 113t39 126l38 123.5t39 128t36 118.5q35 115 80.5 212.5
t79 151.5t75.5 101t53 56.5t29 23.5q18 -14 29 -23t53.5 -57t76 -101.5t79 -151t80.5 -212.5q11 -36 36 -118.5t39 -128l38 -123.5t39 -126t35.5 -113t35 -107t30 -85t27 -70.5t19.5 -41.5q-6 -2 -21 -2q-24 0 -45.5 6t-39 20.5t-31.5 28.5t-27.5 39.5t-22 43.5t-19 51
t-16 51.5t-15.5 55t-15 52.5zM326 588h581l-78 258q-40 134 -93.5 243.5t-86.5 152.5l-33 42q-5 -6 -14 -17t-35 -50.5t-50.5 -86t-56.5 -123.5t-57 -161zM352 1597q-6 29 -4 58.5t10.5 53.5t35 39t69.5 15q46 0 100.5 -24t111 -48t107.5 -24q35 0 57 12t42 43
q9 -87 -17 -127.5t-96 -40.5q-56 0 -155 47.5t-158 47.5q-40 0 -62.5 -12t-40.5 -40z" />
    <glyph glyph-name="Adieresis" unicode="&#xc4;" horiz-adv-x="1232" 
d="M981 332l-41 143h-647l-41 -143q-4 -15 -13 -47t-14 -49.5t-14.5 -47t-16.5 -47t-18.5 -42t-22 -38.5t-25.5 -30.5t-30.5 -25.5t-35.5 -15t-42 -6q-14 0 -20 2q8 14 19.5 41.5t27 70.5t30 85t35 107t35.5 113t39 126l38 123.5t39 128t36 118.5q35 115 80.5 212.5
t79 151.5t75.5 101t53 56.5t29 23.5q18 -14 29 -23t53.5 -57t76 -101.5t79 -151t80.5 -212.5q11 -36 36 -118.5t39 -128l38 -123.5t39 -126t35.5 -113t35 -107t30 -85t27 -70.5t19.5 -41.5q-6 -2 -21 -2q-24 0 -45.5 6t-39 20.5t-31.5 28.5t-27.5 39.5t-22 43.5t-19 51
t-16 51.5t-15.5 55t-15 52.5zM326 588h581l-78 258q-40 134 -93.5 243.5t-86.5 152.5l-33 42q-5 -6 -14 -17t-35 -50.5t-50.5 -86t-56.5 -123.5t-57 -161zM415 1645v114h107q22 0 22 -28v-113h-106q-9 0 -16 9t-7 18zM688 1645v114h106q23 0 23 -28v-113h-107q-9 0 -15.5 9
t-6.5 18z" />
    <glyph glyph-name="Aring" unicode="&#xc5;" horiz-adv-x="1232" 
d="M981 332l-41 143h-647l-41 -143q-4 -15 -13 -47t-14 -49.5t-14.5 -47t-16.5 -47t-18.5 -42t-22 -38.5t-25.5 -30.5t-30.5 -25.5t-35.5 -15t-42 -6q-14 0 -20 2q8 14 19.5 41.5t27 70.5t30 85t35 107t35.5 113t39 126l38 123.5t39 128t36 118.5q35 115 80.5 212.5
t79 151.5t75.5 101t53 56.5t29 23.5q18 -14 29 -23t53.5 -57t76 -101.5t79 -151t80.5 -212.5q11 -36 36 -118.5t39 -128l38 -123.5t39 -126t35.5 -113t35 -107t30 -85t27 -70.5t19.5 -41.5q-6 -2 -21 -2q-24 0 -45.5 6t-39 20.5t-31.5 28.5t-27.5 39.5t-22 43.5t-19 51
t-16 51.5t-15.5 55t-15 52.5zM326 588h581l-78 258q-40 134 -93.5 243.5t-86.5 152.5l-33 42q-5 -6 -14 -17t-35 -50.5t-50.5 -86t-56.5 -123.5t-57 -161zM784 1778v-140q0 -53 -46 -81.5t-124 -28.5t-124 28.5t-46 81.5v140q0 52 46.5 82t123.5 30t123.5 -30t46.5 -82z
M711 1669v80q0 37 -21.5 56.5t-75.5 19.5q-56 0 -76 -19t-20 -57v-80q0 -39 20 -57.5t76 -18.5q54 0 75.5 19t21.5 57z" />
    <glyph glyph-name="AE" unicode="&#xc6;" horiz-adv-x="1544" 
d="M657 1421h785q0 -4 -0.5 -11.5t-4.5 -26.5t-11 -33.5t-23 -26.5t-37 -12h-555v-473h399q54 0 91.5 7t48.5 14l10 7q0 -19 -5.5 -39.5t-18.5 -44.5t-42.5 -39.5t-70.5 -15.5h-412v-616h631q0 -9 -1.5 -21t-7.5 -35.5t-23.5 -39t-43.5 -15.5h-526q-6 0 -16 0.5t-35.5 5.5
t-45 13.5t-35.5 27t-16 43.5v387h-395l-51 -168q-5 -17 -17.5 -60t-18.5 -62t-19 -54.5t-23.5 -52.5t-28.5 -40.5t-37 -33.5t-45 -16.5t-57 -3.5q38 53 135 372l166 533q132 429 356 530zM406 844l-76 -256h362v719q-41 -24 -71 -49.5t-68.5 -75.5t-75 -134.5t-71.5 -203.5z
" />
    <glyph glyph-name="Ccedilla" unicode="&#xc7;" horiz-adv-x="1351" 
d="M598 -227q0 5 6 30l49 174q-106 4 -193.5 31t-157.5 79.5t-109 141.5t-39 207v549q0 123 44.5 214.5t123.5 144t174.5 77.5t208.5 25q53 0 103 -2.5t114 -11.5t114.5 -24t96 -42t68 -62.5t20.5 -89.5t-37 -120q0 69 -50 119t-130 74t-153.5 34t-145.5 10
q-96 0 -172.5 -20t-136.5 -63.5t-92 -117t-32 -174.5v-489q0 -377 422 -377q34 0 67.5 1.5t85 7.5t95.5 16t90.5 29.5t79 45t53 65.5t19.5 89q29 -62 32 -114t-15 -88.5t-55 -65.5t-82.5 -46.5t-103 -29.5t-110 -17t-109.5 -6v-10l-22 -88q94 0 153.5 -47.5t59.5 -138.5
q0 -83 -59.5 -129.5t-145.5 -46.5q-21 0 -41 4t-42.5 14t-36 31.5t-13.5 52.5q50 -20 96 -20q56 0 95.5 23t39.5 75q0 46 -37.5 70t-91.5 24q-24 0 -48.5 -4.5t-37.5 -8.5z" />
    <glyph glyph-name="Egrave" unicode="&#xc8;" horiz-adv-x="1128" 
d="M807 727h-514v-616h733q0 -9 -1.5 -21t-7.5 -35.5t-23.5 -39t-43.5 -15.5h-628q-6 0 -16 0.5t-35.5 5.5t-45 13.5t-35.5 27t-16 43.5v1331h852q0 -4 -0.5 -11.5t-4.5 -26.5t-11 -33.5t-23 -26.5t-37 -12h-657v-473h502q54 0 91 7t48 14l10 7q0 -19 -5.5 -39.5
t-18.5 -44.5t-42.5 -39.5t-70.5 -15.5zM460 1913q-12 -50 7.5 -89.5t62.5 -82.5l141 -133q23 -22 15.5 -39t-30 -28.5t-50.5 -14.5l-99 78q-77 62 -114.5 107t-36.5 81t25.5 62.5t78.5 58.5z" />
    <glyph glyph-name="Eacute" unicode="&#xc9;" horiz-adv-x="1128" 
d="M807 727h-514v-616h733q0 -9 -1.5 -21t-7.5 -35.5t-23.5 -39t-43.5 -15.5h-628q-6 0 -16 0.5t-35.5 5.5t-45 13.5t-35.5 27t-16 43.5v1331h852q0 -4 -0.5 -11.5t-4.5 -26.5t-11 -33.5t-23 -26.5t-37 -12h-657v-473h502q54 0 91 7t48 14l10 7q0 -19 -5.5 -39.5
t-18.5 -44.5t-42.5 -39.5t-70.5 -15.5zM760 1913q54 -32 78.5 -58.5t25.5 -62.5t-36.5 -81t-114.5 -107l-99 -78q-28 3 -50.5 14.5t-30 28.5t15.5 39l141 133q43 43 62.5 82.5t7.5 89.5z" />
    <glyph glyph-name="Ecircumflex" unicode="&#xca;" horiz-adv-x="1128" 
d="M807 727h-514v-616h733q0 -9 -1.5 -21t-7.5 -35.5t-23.5 -39t-43.5 -15.5h-628q-6 0 -16 0.5t-35.5 5.5t-45 13.5t-35.5 27t-16 43.5v1331h852q0 -4 -0.5 -11.5t-4.5 -26.5t-11 -33.5t-23 -26.5t-37 -12h-657v-473h502q54 0 91 7t48 14l10 7q0 -19 -5.5 -39.5
t-18.5 -44.5t-42.5 -39.5t-70.5 -15.5zM444 1782l166 137l166 -137q80 -66 75.5 -137t-91.5 -117q12 24 12 49q0 24 -16.5 54.5t-40.5 57t-48 50t-41 37.5l-16 14q-7 -5 -17.5 -14.5t-38.5 -36t-49 -51.5t-38.5 -56t-17.5 -55q0 -25 12 -49q-88 46 -92.5 117t75.5 137z" />
    <glyph glyph-name="Edieresis" unicode="&#xcb;" horiz-adv-x="1128" 
d="M807 727h-514v-616h733q0 -9 -1.5 -21t-7.5 -35.5t-23.5 -39t-43.5 -15.5h-628q-6 0 -16 0.5t-35.5 5.5t-45 13.5t-35.5 27t-16 43.5v1331h852q0 -4 -0.5 -11.5t-4.5 -26.5t-11 -33.5t-23 -26.5t-37 -12h-657v-473h502q54 0 91 7t48 14l10 7q0 -19 -5.5 -39.5
t-18.5 -44.5t-42.5 -39.5t-70.5 -15.5zM409 1645v114h107q22 0 22 -28v-113h-106q-9 0 -16 9t-7 18zM682 1645v114h106q23 0 23 -28v-113h-107q-9 0 -15.5 9t-6.5 18z" />
    <glyph glyph-name="Igrave" unicode="&#xcc;" horiz-adv-x="466" 
d="M174 70v1372q5 0 13 -0.5t28.5 -5.5t36 -13.5t28.5 -27t13 -43.5v-1372q-5 0 -13 0.5t-28.5 5.5t-36 13.5t-28.5 27t-13 43.5zM84 1913q-12 -50 7.5 -89.5t62.5 -82.5l141 -133q23 -22 15.5 -39t-30 -28.5t-50.5 -14.5l-99 78q-77 62 -114.5 107t-36.5 81t25.5 62.5
t78.5 58.5z" />
    <glyph glyph-name="Iacute" unicode="&#xcd;" horiz-adv-x="466" 
d="M174 70v1372q5 0 13 -0.5t28.5 -5.5t36 -13.5t28.5 -27t13 -43.5v-1372q-5 0 -13 0.5t-28.5 5.5t-36 13.5t-28.5 27t-13 43.5zM383 1913q54 -32 78.5 -58.5t25.5 -62.5t-36.5 -81t-114.5 -107l-98 -78q-28 3 -51 14.5t-30.5 28.5t15.5 39l141 133q43 43 62.5 82.5
t7.5 89.5z" />
    <glyph glyph-name="Icircumflex" unicode="&#xce;" horiz-adv-x="466" 
d="M174 70v1372q5 0 13 -0.5t28.5 -5.5t36 -13.5t28.5 -27t13 -43.5v-1372q-5 0 -13 0.5t-28.5 5.5t-36 13.5t-28.5 27t-13 43.5zM67 1782l166 137l166 -137q80 -66 75.5 -137t-91.5 -117q12 24 12 49q0 24 -16.5 54.5t-40.5 57t-48 50t-41 37.5l-16 14q-7 -5 -17.5 -14.5
t-38.5 -36t-49 -51.5t-38.5 -56t-17.5 -55q0 -25 12 -49q-88 46 -92.5 117t75.5 137z" />
    <glyph glyph-name="Idieresis" unicode="&#xcf;" horiz-adv-x="466" 
d="M174 70v1372q5 0 13 -0.5t28.5 -5.5t36 -13.5t28.5 -27t13 -43.5v-1372q-5 0 -13 0.5t-28.5 5.5t-36 13.5t-28.5 27t-13 43.5zM33 1645v114h106q23 0 23 -28v-113h-107q-9 0 -15.5 9t-6.5 18zM305 1645v114h107q22 0 22 -28v-113h-106q-9 0 -16 9t-7 18z" />
    <glyph glyph-name="Eth" unicode="&#xd0;" horiz-adv-x="1404" 
d="M113 770h61v651h518q91 0 169 -13t151.5 -45.5t125 -83.5t82.5 -132t31 -186v-500q0 -105 -31 -186t-82.5 -132t-125 -84t-151.5 -46t-169 -13h-375q-12 0 -29.5 2.5t-46.5 10t-48 27.5t-19 50v569h-117q-1 19 -2 43.5t14 46t44 21.5zM692 1311h-399v-541h471
q1 -16 2.5 -40.5t-14 -47.5t-45.5 -23h-414v-548h399q76 0 140.5 11.5t121 38.5t95.5 69t61.5 105.5t22.5 145.5v461q0 100 -33.5 173.5t-95.5 115t-139 61t-173 19.5z" />
    <glyph glyph-name="Ntilde" unicode="&#xd1;" horiz-adv-x="1415" 
d="M399 1323l660 -1067l80 -141q-17 100 -17 145v1161q5 0 13 -0.5t28.5 -5.5t36 -13.5t28.5 -27t13 -43.5v-1351q-48 0 -88.5 13t-65 31.5t-42 37t-24.5 31.5l-7 13l-738 1186q17 -88 17 -170v-1142q-5 0 -13 0.5t-28.5 5.5t-36 13.5t-28.5 27t-13 43.5v1351q37 0 55 -0.5
t47 -5.5t46.5 -15t38.5 -29t38 -48zM444 1598q-6 29 -4 58.5t10.5 53t35 38.5t69.5 15q46 0 100.5 -24t111 -48t107.5 -24q35 0 57 12.5t42 43.5q9 -87 -17 -127.5t-96 -40.5q-56 0 -155 47t-158 47q-40 0 -62.5 -12t-40.5 -39z" />
    <glyph glyph-name="Ograve" unicode="&#xd2;" 
d="M1233 1004v-586q0 -214 -134.5 -328.5t-404.5 -114.5q-273 0 -406.5 114.5t-133.5 328.5v586q0 212 134 327t406 115q270 0 404.5 -115t134.5 -327zM1114 444v533q0 68 -10 119t-37.5 98t-74 76.5t-122 47t-178.5 17.5t-178 -17.5t-121 -47t-73.5 -76.5t-37.5 -98
t-10 -119v-533q0 -68 10 -119.5t37.5 -98t73.5 -76t121 -47t178 -17.5t178.5 17.5t122 47t74 76t37.5 98t10 119.5zM544 1913q-12 -50 7.5 -89.5t62.5 -82.5l141 -133q23 -22 15.5 -39t-30 -28.5t-50.5 -14.5l-99 78q-77 62 -114.5 107t-36.5 81t25.5 62.5t78.5 58.5z" />
    <glyph glyph-name="Oacute" unicode="&#xd3;" 
d="M1233 1004v-586q0 -214 -134.5 -328.5t-404.5 -114.5q-273 0 -406.5 114.5t-133.5 328.5v586q0 212 134 327t406 115q270 0 404.5 -115t134.5 -327zM1114 444v533q0 68 -10 119t-37.5 98t-74 76.5t-122 47t-178.5 17.5t-178 -17.5t-121 -47t-73.5 -76.5t-37.5 -98
t-10 -119v-533q0 -68 10 -119.5t37.5 -98t73.5 -76t121 -47t178 -17.5t178.5 17.5t122 47t74 76t37.5 98t10 119.5zM844 1913q54 -32 78.5 -58.5t25.5 -62.5t-36.5 -81t-114.5 -107l-99 -78q-28 3 -50.5 14.5t-30 28.5t15.5 39l141 133q43 43 62.5 82.5t7.5 89.5z" />
    <glyph glyph-name="Ocircumflex" unicode="&#xd4;" 
d="M1233 1004v-586q0 -214 -134.5 -328.5t-404.5 -114.5q-273 0 -406.5 114.5t-133.5 328.5v586q0 212 134 327t406 115q270 0 404.5 -115t134.5 -327zM1114 444v533q0 68 -10 119t-37.5 98t-74 76.5t-122 47t-178.5 17.5t-178 -17.5t-121 -47t-73.5 -76.5t-37.5 -98
t-10 -119v-533q0 -68 10 -119.5t37.5 -98t73.5 -76t121 -47t178 -17.5t178.5 17.5t122 47t74 76t37.5 98t10 119.5zM528 1782l166 137l166 -137q80 -66 75.5 -137t-91.5 -117q12 24 12 49q0 24 -16.5 54.5t-40.5 57t-48 50t-41 37.5l-16 14q-7 -5 -17.5 -14.5t-38.5 -36
t-49 -51.5t-38.5 -56t-17.5 -55q0 -25 12 -49q-88 46 -92.5 117t75.5 137z" />
    <glyph glyph-name="Otilde" unicode="&#xd5;" 
d="M1233 1004v-586q0 -214 -134.5 -328.5t-404.5 -114.5q-273 0 -406.5 114.5t-133.5 328.5v586q0 212 134 327t406 115q270 0 404.5 -115t134.5 -327zM1114 444v533q0 68 -10 119t-37.5 98t-74 76.5t-122 47t-178.5 17.5t-178 -17.5t-121 -47t-73.5 -76.5t-37.5 -98
t-10 -119v-533q0 -68 10 -119.5t37.5 -98t73.5 -76t121 -47t178 -17.5t178.5 17.5t122 47t74 76t37.5 98t10 119.5zM430 1597q-6 29 -4 58.5t10.5 53.5t35 39t69.5 15q46 0 100.5 -24t111 -48t107.5 -24q35 0 56.5 12t41.5 43q9 -88 -17 -128t-95 -40q-56 0 -155.5 47.5
t-158.5 47.5q-39 0 -61.5 -12t-40.5 -40z" />
    <glyph glyph-name="Odieresis" unicode="&#xd6;" 
d="M1233 1004v-586q0 -214 -134.5 -328.5t-404.5 -114.5q-273 0 -406.5 114.5t-133.5 328.5v586q0 212 134 327t406 115q270 0 404.5 -115t134.5 -327zM1114 444v533q0 68 -10 119t-37.5 98t-74 76.5t-122 47t-178.5 17.5t-178 -17.5t-121 -47t-73.5 -76.5t-37.5 -98
t-10 -119v-533q0 -68 10 -119.5t37.5 -98t73.5 -76t121 -47t178 -17.5t178.5 17.5t122 47t74 76t37.5 98t10 119.5zM493 1645v114h107q22 0 22 -28v-113h-106q-9 0 -16 9t-7 18zM766 1645v114h106q23 0 23 -28v-113h-107q-9 0 -15.5 9t-6.5 18z" />
    <glyph glyph-name="multiply" unicode="&#xd7;" horiz-adv-x="880" 
d="M618 258l-180 178l-211 -213q-6 4 -14.5 12t-22.5 29t-14 39q0 22 21 43l165 170l-208 201q4 7 10.5 17t26.5 27t38 17q11 0 33 -18l176 -166l-2 -2q0 1 54 55l108 108t53 54l-2 -2q6 -4 14.5 -11.5t22.5 -28.5t14 -40q0 -23 -20 -43l-166 -170l213 -213
q-4 -6 -11.5 -15.5t-27.5 -25.5t-37 -16q-16 0 -33 14z" />
    <glyph glyph-name="Oslash" unicode="&#xd8;" 
d="M1233 1004v-586q0 -214 -134.5 -328.5t-404.5 -114.5q-275 0 -415 121l-111 -135q-32 30 -38.5 79.5t20.5 84.5l55 68q-51 92 -51 225v586q0 212 134 327t406 115q289 0 426 -137l113 137q31 -28 42.5 -71.5t-13.5 -80.5l-72 -86q43 -87 43 -204zM272 444q0 -85 17 -149
l760 926q-93 114 -357 114q-103 0 -178 -17.5t-121 -47t-73.5 -76.5t-37.5 -98t-10 -119v-533zM1114 444v533q0 67 -12 123l-752 -916q95 -98 342 -98q103 0 178.5 17.5t122 47t74 76t37.5 98t10 119.5z" />
    <glyph glyph-name="Ugrave" unicode="&#xd9;" 
d="M1233 1354v-951q0 -102 -43.5 -185t-118.5 -135t-171.5 -80t-205.5 -28q-110 0 -206.5 28t-171.5 80t-118.5 135t-43.5 185v1041h6.5t16.5 -2t23.5 -5t25 -10t23.5 -16t16.5 -24t6.5 -33v-926q0 -158 116 -248t306 -90q188 0 304 90t116 248v1016q5 0 13 -0.5t28.5 -5.5
t36 -13.5t28.5 -27t13 -43.5zM544 1913q-12 -50 7.5 -89.5t62.5 -82.5l141 -133q23 -22 15.5 -39t-30 -28.5t-50.5 -14.5l-99 78q-77 62 -114.5 107t-36.5 81t25.5 62.5t78.5 58.5z" />
    <glyph glyph-name="Uacute" unicode="&#xda;" 
d="M1233 1354v-951q0 -102 -43.5 -185t-118.5 -135t-171.5 -80t-205.5 -28q-110 0 -206.5 28t-171.5 80t-118.5 135t-43.5 185v1041h6.5t16.5 -2t23.5 -5t25 -10t23.5 -16t16.5 -24t6.5 -33v-926q0 -158 116 -248t306 -90q188 0 304 90t116 248v1016q5 0 13 -0.5t28.5 -5.5
t36 -13.5t28.5 -27t13 -43.5zM844 1913q54 -32 78.5 -58.5t25.5 -62.5t-36.5 -81t-114.5 -107l-99 -78q-28 3 -50.5 14.5t-30 28.5t15.5 39l141 133q43 43 62.5 82.5t7.5 89.5z" />
    <glyph glyph-name="Ucircumflex" unicode="&#xdb;" 
d="M1233 1354v-951q0 -102 -43.5 -185t-118.5 -135t-171.5 -80t-205.5 -28q-110 0 -206.5 28t-171.5 80t-118.5 135t-43.5 185v1041h6.5t16.5 -2t23.5 -5t25 -10t23.5 -16t16.5 -24t6.5 -33v-926q0 -158 116 -248t306 -90q188 0 304 90t116 248v1016q5 0 13 -0.5t28.5 -5.5
t36 -13.5t28.5 -27t13 -43.5zM528 1782l166 137l166 -137q80 -66 75.5 -137t-91.5 -117q12 24 12 49q0 24 -16.5 54.5t-40.5 57t-48 50t-41 37.5l-16 14q-7 -5 -17.5 -14.5t-38.5 -36t-49 -51.5t-38.5 -56t-17.5 -55q0 -25 12 -49q-88 46 -92.5 117t75.5 137z" />
    <glyph glyph-name="Udieresis" unicode="&#xdc;" 
d="M1233 1354v-951q0 -102 -43.5 -185t-118.5 -135t-171.5 -80t-205.5 -28q-110 0 -206.5 28t-171.5 80t-118.5 135t-43.5 185v1041h6.5t16.5 -2t23.5 -5t25 -10t23.5 -16t16.5 -24t6.5 -33v-926q0 -158 116 -248t306 -90q188 0 304 90t116 248v1016q5 0 13 -0.5t28.5 -5.5
t36 -13.5t28.5 -27t13 -43.5zM494 1645v114h106q23 0 23 -28v-113h-107q-9 0 -15.5 9t-6.5 18zM766 1645v114h106q23 0 23 -28v-113h-107q-9 0 -15.5 9t-6.5 18z" />
    <glyph glyph-name="Yacute" unicode="&#xdd;" horiz-adv-x="1081" 
d="M600 621h2v-641q-5 0 -13 0.5t-29 5.5t-37 13.5t-29 27.5t-13 45v549q-79 68 -161.5 196t-137 243t-107 229t-71.5 143q0 2 27 2q45 0 81.5 -23.5t73.5 -87.5q13 -22 73 -152.5t132.5 -253t149.5 -196.5q60 57 120.5 151t99.5 174t78.5 165.5t55.5 111.5q37 64 74 87.5
t82 23.5q26 0 26 -2q-19 -29 -71.5 -143t-107 -229t-137 -243t-161.5 -196zM692 1913q54 -32 78.5 -58.5t25.5 -62.5t-36.5 -81t-114.5 -107l-99 -78q-28 3 -50.5 14.5t-30 28.5t15.5 39l141 133q43 43 62.5 82.5t7.5 89.5z" />
    <glyph glyph-name="Thorn" unicode="&#xde;" horiz-adv-x="1159" 
d="M293 1270h217q92 0 167 -11.5t146 -42t119.5 -79.5t77.5 -127.5t29 -182.5v-36q0 -101 -29 -179t-77.5 -127.5t-119 -81t-147 -44.5t-166.5 -13h-217v-366q-5 0 -13 0.5t-28.5 5.5t-36 13t-28.5 26t-13 43v1454q13 0 28 -2.5t38 -10t38 -27t15 -48.5v-164zM510 1159h-217
v-702h217q79 0 138.5 8.5t115 31.5t90.5 61.5t55.5 101.5t20.5 149q0 99 -30.5 168.5t-88 108.5t-131 56t-170.5 17z" />
    <glyph glyph-name="germandbls" unicode="&#xdf;" horiz-adv-x="1273" 
d="M266 -20q-5 0 -12.5 0.5t-26.5 5.5t-34 13.5t-27 27t-12 43.5v1075q0 113 68.5 201.5t171.5 133t216 44.5q186 0 305 -79.5t119 -225.5q0 -63 -39.5 -118t-96 -95.5t-112.5 -80t-95.5 -89t-39.5 -105.5q0 -53 30.5 -83.5t79 -42.5t107 -19t117.5 -22t107.5 -43t79 -90
t30.5 -155q0 -139 -101.5 -220t-293.5 -81q-94 0 -170 21.5t-126 70.5t-50 119q0 60 31 121q0 -106 85.5 -163.5t229.5 -57.5q161 0 222 52.5t61 148.5q0 60 -30.5 98t-79 54t-107 26t-117.5 23t-107.5 36t-79 73.5t-30.5 127.5q0 55 21 105t55 87.5t74.5 72t81.5 63.5
t75 55.5t55 54t21 54.5q0 70 -42 115t-107.5 63t-156.5 18q-163 0 -256.5 -83.5t-93.5 -225.5v-1124z" />
    <glyph glyph-name="agrave" unicode="&#xe0;" horiz-adv-x="1017" 
d="M111 266q0 69 25 121t66.5 82.5t96 54t112 35.5t115 27t105 29.5t83.5 41.5t48 64q0 99 -56.5 152t-201.5 53q-148 0 -232 -58.5t-84 -156.5q-43 57 -43 123q0 91 99 146.5t260 55.5q186 0 278 -84t92 -237v-725q-53 20 -124 20q-29 0 -117.5 -17.5t-134.5 -17.5
q-187 0 -287 79.5t-100 211.5zM227 264q0 -84 70.5 -134t216.5 -50q68 0 130 13t90 27l28 13v455q-8 -29 -42.5 -49t-82 -31.5t-103 -22.5t-110 -26.5t-98.5 -38t-71.5 -62t-27.5 -94.5zM367 1536q-12 -50 7 -89.5t62 -82.5l142 -133q23 -22 15.5 -39t-30.5 -28.5t-51 -14.5
l-98 78q-77 62 -114.5 107t-36.5 81t25.5 62.5t78.5 58.5z" />
    <glyph glyph-name="aacute" unicode="&#xe1;" horiz-adv-x="1017" 
d="M111 266q0 69 25 121t66.5 82.5t96 54t112 35.5t115 27t105 29.5t83.5 41.5t48 64q0 99 -56.5 152t-201.5 53q-148 0 -232 -58.5t-84 -156.5q-43 57 -43 123q0 91 99 146.5t260 55.5q186 0 278 -84t92 -237v-725q-53 20 -124 20q-29 0 -117.5 -17.5t-134.5 -17.5
q-187 0 -287 79.5t-100 211.5zM227 264q0 -84 70.5 -134t216.5 -50q68 0 130 13t90 27l28 13v455q-8 -29 -42.5 -49t-82 -31.5t-103 -22.5t-110 -26.5t-98.5 -38t-71.5 -62t-27.5 -94.5zM666 1536q54 -32 78.5 -58.5t25.5 -62.5t-36.5 -81t-114.5 -107l-99 -78
q-28 3 -50.5 14.5t-30 28.5t15.5 39l141 133q43 43 62.5 82.5t7.5 89.5z" />
    <glyph glyph-name="acircumflex" unicode="&#xe2;" horiz-adv-x="1017" 
d="M111 266q0 69 25 121t66.5 82.5t96 54t112 35.5t115 27t105 29.5t83.5 41.5t48 64q0 99 -56.5 152t-201.5 53q-148 0 -232 -58.5t-84 -156.5q-43 57 -43 123q0 91 99 146.5t260 55.5q186 0 278 -84t92 -237v-725q-53 20 -124 20q-29 0 -117.5 -17.5t-134.5 -17.5
q-187 0 -287 79.5t-100 211.5zM227 264q0 -84 70.5 -134t216.5 -50q68 0 130 13t90 27l28 13v455q-8 -29 -42.5 -49t-82 -31.5t-103 -22.5t-110 -26.5t-98.5 -38t-71.5 -62t-27.5 -94.5zM350 1405l166 137l166 -137q80 -66 75.5 -137t-91.5 -117q12 24 12 49
q0 24 -16.5 54.5t-40.5 57t-48 50t-41 37.5l-16 14q-7 -5 -17.5 -14.5t-38.5 -36t-49 -51.5t-38.5 -56t-17.5 -55q0 -25 12 -49q-88 46 -92.5 117t75.5 137z" />
    <glyph glyph-name="atilde" unicode="&#xe3;" horiz-adv-x="1017" 
d="M111 266q0 69 25 121t66.5 82.5t96 54t112 35.5t115 27t105 29.5t83.5 41.5t48 64q0 99 -56.5 152t-201.5 53q-148 0 -232 -58.5t-84 -156.5q-43 57 -43 123q0 91 99 146.5t260 55.5q186 0 278 -84t92 -237v-725q-53 20 -124 20q-29 0 -117.5 -17.5t-134.5 -17.5
q-187 0 -287 79.5t-100 211.5zM227 264q0 -84 70.5 -134t216.5 -50q68 0 130 13t90 27l28 13v455q-8 -29 -42.5 -49t-82 -31.5t-103 -22.5t-110 -26.5t-98.5 -38t-71.5 -62t-27.5 -94.5zM252 1221q-6 29 -4 58.5t10.5 53t35 38.5t69.5 15q46 0 100.5 -24t111 -48t107.5 -24
q35 0 57 12.5t42 43.5q9 -87 -17 -127.5t-96 -40.5q-56 0 -155 47t-158 47q-40 0 -62.5 -12t-40.5 -39z" />
    <glyph glyph-name="adieresis" unicode="&#xe4;" horiz-adv-x="1017" 
d="M111 266q0 69 25 121t66.5 82.5t96 54t112 35.5t115 27t105 29.5t83.5 41.5t48 64q0 99 -56.5 152t-201.5 53q-148 0 -232 -58.5t-84 -156.5q-43 57 -43 123q0 91 99 146.5t260 55.5q186 0 278 -84t92 -237v-725q-53 20 -124 20q-29 0 -117.5 -17.5t-134.5 -17.5
q-187 0 -287 79.5t-100 211.5zM227 264q0 -84 70.5 -134t216.5 -50q68 0 130 13t90 27l28 13v455q-8 -29 -42.5 -49t-82 -31.5t-103 -22.5t-110 -26.5t-98.5 -38t-71.5 -62t-27.5 -94.5zM309 1268v114h107q22 0 22 -28v-113h-106q-9 0 -16 9t-7 18zM582 1268v114h106
q23 0 23 -28v-113h-107q-9 0 -15.5 9t-6.5 18z" />
    <glyph glyph-name="aring" unicode="&#xe5;" horiz-adv-x="1017" 
d="M111 266q0 69 25 121t66.5 82.5t96 54t112 35.5t115 27t105 29.5t83.5 41.5t48 64q0 99 -56.5 152t-201.5 53q-148 0 -232 -58.5t-84 -156.5q-43 57 -43 123q0 91 99 146.5t260 55.5q186 0 278 -84t92 -237v-725q-53 20 -124 20q-29 0 -117.5 -17.5t-134.5 -17.5
q-187 0 -287 79.5t-100 211.5zM227 264q0 -84 70.5 -134t216.5 -50q68 0 130 13t90 27l28 13v455q-8 -29 -42.5 -49t-82 -31.5t-103 -22.5t-110 -26.5t-98.5 -38t-71.5 -62t-27.5 -94.5zM684 1401v-139q0 -53 -46 -82t-124 -29t-124 29t-46 82v139q0 52 46.5 82t123.5 30
t123.5 -30t46.5 -82zM610 1292v80q0 37 -21 56.5t-75 19.5q-56 0 -76 -19t-20 -57v-80q0 -39 20 -57t76 -18q54 0 75 18.5t21 56.5z" />
    <glyph glyph-name="ae" unicode="&#xe6;" horiz-adv-x="1646" 
d="M1487 311q47 -66 47 -131q0 -67 -59.5 -115t-144.5 -69t-181 -21q-76 0 -141.5 16t-104.5 39t-67 46t-39 39l-11 16q-45 -76 -132.5 -116t-188.5 -40q-147 0 -249.5 79t-102.5 212q0 81 32 139t84.5 89.5t116.5 52t131.5 34t125 28.5t101.5 42.5t58 69.5q0 99 -56.5 152
t-201.5 53q-148 0 -232 -58.5t-84 -156.5q-43 57 -43 123q0 91 99 146.5t260 55.5q227 0 315 -127q94 127 320 127q181 0 283 -81t102 -216q0 -130 -96.5 -208t-299.5 -78q-59 0 -122.5 13.5t-97.5 26.5l-34 13v-182q0 -121 62 -179.5t213 -58.5q147 0 242.5 58t95.5 167z
M227 264q0 -81 75 -132.5t173 -51.5q71 0 135 28.5t108 88t44 137.5v235q-17 -36 -79 -56t-137 -32t-148 -30.5t-122 -65t-49 -121.5zM874 688v-80q0 -3 39 -14t99.5 -21t105.5 -10q156 0 224.5 45t68.5 131q0 191 -268 191q-80 0 -133.5 -16t-82.5 -48.5t-41 -75
t-12 -102.5z" />
    <glyph glyph-name="ccedilla" unicode="&#xe7;" horiz-adv-x="1009" 
d="M438 -227q0 5 6 30l50 174q-167 11 -264 94t-97 222v426q0 149 102 233t285 84q160 0 257 -55t97 -147q0 -63 -45 -123q0 98 -83 156.5t-230 58.5q-270 0 -270 -230v-383q0 -105 75 -166t220 -61q146 0 236.5 57.5t90.5 167.5q52 -74 52 -129q0 -48 -28.5 -86.5
t-76.5 -63t-107 -38.5t-126 -17v-10l-23 -88q94 0 153.5 -47.5t59.5 -138.5q0 -83 -59.5 -129.5t-145.5 -46.5q-21 0 -41 4t-42.5 14t-36 31.5t-13.5 52.5q50 -20 96 -20q56 0 96 23t40 75q0 46 -37.5 70t-91.5 24q-24 0 -49 -4.5t-38 -8.5z" />
    <glyph glyph-name="egrave" unicode="&#xe8;" horiz-adv-x="1017" 
d="M858 311q47 -66 47 -131q0 -67 -59.5 -115t-144.5 -69t-181 -21q-179 0 -283 84.5t-104 233.5v426q0 150 97.5 233.5t279.5 83.5q181 0 283 -81t102 -216q0 -130 -96 -208t-299 -78q-59 0 -122.5 13.5t-97.5 26.5l-34 13v-182q0 -121 61.5 -179.5t212.5 -58.5
q147 0 242.5 58t95.5 167zM246 688v-78q-2 -1 7 -5q61 -23 165 -37q40 -5 71 -5q156 0 224.5 45t68.5 131q0 191 -268 191q-80 0 -133.5 -16t-82.5 -48.5t-40.5 -75t-11.5 -102.5zM362 1536q-12 -50 7.5 -89.5t62.5 -82.5l141 -133q23 -22 15.5 -39t-30 -28.5t-50.5 -14.5
l-99 78q-77 62 -114.5 107t-36.5 81t25.5 62.5t78.5 58.5z" />
    <glyph glyph-name="eacute" unicode="&#xe9;" horiz-adv-x="1017" 
d="M858 311q47 -66 47 -131q0 -67 -59.5 -115t-144.5 -69t-181 -21q-179 0 -283 84.5t-104 233.5v426q0 150 97.5 233.5t279.5 83.5q181 0 283 -81t102 -216q0 -130 -96 -208t-299 -78q-59 0 -122.5 13.5t-97.5 26.5l-34 13v-182q0 -121 61.5 -179.5t212.5 -58.5
q147 0 242.5 58t95.5 167zM246 688v-78q-2 -1 7 -5q61 -23 165 -37q40 -5 71 -5q156 0 224.5 45t68.5 131q0 191 -268 191q-80 0 -133.5 -16t-82.5 -48.5t-40.5 -75t-11.5 -102.5zM662 1536q54 -32 78.5 -58.5t25 -62.5t-36.5 -81t-115 -107l-98 -78q-28 3 -50.5 14.5
t-30 28.5t15.5 39l141 133q43 43 62.5 82.5t7.5 89.5z" />
    <glyph glyph-name="ecircumflex" unicode="&#xea;" horiz-adv-x="1017" 
d="M858 311q47 -66 47 -131q0 -67 -59.5 -115t-144.5 -69t-181 -21q-179 0 -283 84.5t-104 233.5v426q0 150 97.5 233.5t279.5 83.5q181 0 283 -81t102 -216q0 -130 -96 -208t-299 -78q-59 0 -122.5 13.5t-97.5 26.5l-34 13v-182q0 -121 61.5 -179.5t212.5 -58.5
q147 0 242.5 58t95.5 167zM246 688v-78q-2 -1 7 -5q61 -23 165 -37q40 -5 71 -5q156 0 224.5 45t68.5 131q0 191 -268 191q-80 0 -133.5 -16t-82.5 -48.5t-40.5 -75t-11.5 -102.5zM346 1405l166 137l166 -137q80 -66 75.5 -137t-91.5 -117q12 24 12 49q0 24 -16.5 54.5
t-40.5 57t-48 50t-41 37.5l-16 14q-7 -5 -17.5 -14.5t-38.5 -36t-49 -51.5t-38.5 -56t-17.5 -55q0 -25 12 -49q-88 46 -92.5 117t75.5 137z" />
    <glyph glyph-name="edieresis" unicode="&#xeb;" horiz-adv-x="1017" 
d="M858 311q47 -66 47 -131q0 -67 -59.5 -115t-144.5 -69t-181 -21q-179 0 -283 84.5t-104 233.5v426q0 150 97.5 233.5t279.5 83.5q181 0 283 -81t102 -216q0 -130 -96 -208t-299 -78q-59 0 -122.5 13.5t-97.5 26.5l-34 13v-182q0 -121 61.5 -179.5t212.5 -58.5
q147 0 242.5 58t95.5 167zM246 688v-78q-2 -1 7 -5q61 -23 165 -37q40 -5 71 -5q156 0 224.5 45t68.5 131q0 191 -268 191q-80 0 -133.5 -16t-82.5 -48.5t-40.5 -75t-11.5 -102.5zM311 1268v114h107q22 0 22 -28v-113h-106q-9 0 -16 9t-7 18zM584 1268v114h106q23 0 23 -28
v-113h-107q-9 0 -15.5 9t-6.5 18z" />
    <glyph glyph-name="igrave" unicode="&#xec;" horiz-adv-x="419" 
d="M154 66v938q9 0 22 -2t36 -9.5t38.5 -27.5t15.5 -50v-938q-5 0 -12.5 0.5t-26.5 5.5t-34 13.5t-27 26.5t-12 43zM59 1536q-12 -50 7.5 -89.5t62.5 -82.5l141 -133q23 -22 15.5 -39t-30 -28.5t-50.5 -14.5l-99 78q-77 62 -114.5 107t-36.5 81t25.5 62.5t78.5 58.5z" />
    <glyph glyph-name="iacute" unicode="&#xed;" horiz-adv-x="419" 
d="M154 66v938q9 0 22 -2t36 -9.5t38.5 -27.5t15.5 -50v-938q-5 0 -12.5 0.5t-26.5 5.5t-34 13.5t-27 26.5t-12 43zM358 1536q54 -32 78.5 -58.5t25.5 -62.5t-36.5 -81t-114.5 -107l-98 -78q-28 3 -51 14.5t-30.5 28.5t15.5 39l142 133q43 43 62 82.5t7 89.5z" />
    <glyph glyph-name="icircumflex" unicode="&#xee;" horiz-adv-x="419" 
d="M154 66v938q9 0 22 -2t36 -9.5t38.5 -27.5t15.5 -50v-938q-5 0 -12.5 0.5t-26.5 5.5t-34 13.5t-27 26.5t-12 43zM43 1405l166 137l166 -137q80 -66 75.5 -137t-91.5 -117q12 24 12 49q0 24 -16.5 54.5t-40.5 57t-48 50t-41 37.5l-16 14q-7 -5 -17.5 -14.5t-38.5 -36
t-49 -51.5t-38.5 -56t-17.5 -55q0 -25 12 -49q-88 46 -92.5 117t75.5 137z" />
    <glyph glyph-name="idieresis" unicode="&#xef;" horiz-adv-x="419" 
d="M154 66v938q9 0 22 -2t36 -9.5t38.5 -27.5t15.5 -50v-938q-5 0 -12.5 0.5t-26.5 5.5t-34 13.5t-27 26.5t-12 43zM8 1268v114h107q22 0 22 -28v-113h-106q-9 0 -16 9t-7 18zM281 1268v114h106q23 0 23 -28v-113h-107q-9 0 -15.5 9t-6.5 18z" />
    <glyph glyph-name="eth" unicode="&#xf0;" horiz-adv-x="1103" 
d="M133 289v430q0 148 99 230.5t300 82.5q110 0 192 -26.5t124 -73.5q-32 187 -162 321l-252 -104q-22 42 -22 65q0 41 49 62l131 55q-79 52 -162 79.5t-149 27.5q-17 0 -41 -4q8 31 23.5 51t36.5 27.5t35.5 9.5t35.5 2q57 0 155 -35.5t187 -106.5l225 95q25 -48 25 -68
q0 -24 -10.5 -36t-39.5 -23l-116 -50q174 -209 174 -501v-510q0 -150 -105.5 -232t-314.5 -82q-208 0 -313 81.5t-105 232.5zM246 319q0 -62 12 -103t45 -73.5t93.5 -47.5t154.5 -15t155 15t94 47.5t45.5 73.5t12.5 103v402q0 63 -48.5 111t-123 72t-160.5 24
q-85 0 -141.5 -16t-86 -49.5t-41 -74.5t-11.5 -100v-369z" />
    <glyph glyph-name="ntilde" unicode="&#xf1;" horiz-adv-x="1077" 
d="M811 76v635q0 106 -63.5 160.5t-208.5 54.5q-76 0 -144.5 -12t-98.5 -24l-30 -13v-891q-5 0 -12.5 0.5t-26.5 5.5t-34 13.5t-27 27t-12 43.5v944q57 -29 92 -29q48 0 151 22.5t170 22.5q55 0 104 -8.5t96.5 -29.5t81.5 -53.5t54.5 -84.5t20.5 -119v-755q-5 0 -12.5 0.5
t-27 5.5t-34.5 13.5t-27 27t-12 43.5zM264 1221q-6 29 -4 58.5t10.5 53t35 38.5t69.5 15q46 0 100.5 -24t111 -48t107.5 -24q35 0 57 12.5t42 43.5q9 -87 -17 -127.5t-96 -40.5q-56 0 -155 47t-158 47q-40 0 -62.5 -12t-40.5 -39z" />
    <glyph glyph-name="ograve" unicode="&#xf2;" horiz-adv-x="1099" 
d="M967 719v-426q0 -154 -103.5 -236t-312.5 -82q-210 0 -314 82t-104 236v426q0 152 104 234.5t314 82.5q208 0 312 -82.5t104 -234.5zM854 324v364q0 61 -12 102.5t-44.5 75t-93 49t-153.5 15.5t-154.5 -15.5t-93.5 -49t-44.5 -75t-12.5 -102.5v-364q0 -62 12.5 -104
t44.5 -75t93.5 -49t154.5 -16t153.5 16t93 49t44.5 75t12 104zM401 1536q-12 -50 7.5 -89.5t62.5 -82.5l141 -133q23 -22 15.5 -39t-30 -28.5t-50.5 -14.5l-98 78q-78 62 -115 107t-36.5 81t25 62.5t78.5 58.5z" />
    <glyph glyph-name="oacute" unicode="&#xf3;" horiz-adv-x="1099" 
d="M967 719v-426q0 -154 -103.5 -236t-312.5 -82q-210 0 -314 82t-104 236v426q0 152 104 234.5t314 82.5q208 0 312 -82.5t104 -234.5zM854 324v364q0 61 -12 102.5t-44.5 75t-93 49t-153.5 15.5t-154.5 -15.5t-93.5 -49t-44.5 -75t-12.5 -102.5v-364q0 -62 12.5 -104
t44.5 -75t93.5 -49t154.5 -16t153.5 16t93 49t44.5 75t12 104zM701 1536q54 -32 78.5 -58.5t25.5 -62.5t-36.5 -81t-114.5 -107l-99 -78q-28 3 -50.5 14.5t-30 28.5t15.5 39l141 133q43 43 62.5 82.5t7.5 89.5z" />
    <glyph glyph-name="ocircumflex" unicode="&#xf4;" horiz-adv-x="1099" 
d="M967 719v-426q0 -154 -103.5 -236t-312.5 -82q-210 0 -314 82t-104 236v426q0 152 104 234.5t314 82.5q208 0 312 -82.5t104 -234.5zM854 324v364q0 61 -12 102.5t-44.5 75t-93 49t-153.5 15.5t-154.5 -15.5t-93.5 -49t-44.5 -75t-12.5 -102.5v-364q0 -62 12.5 -104
t44.5 -75t93.5 -49t154.5 -16t153.5 16t93 49t44.5 75t12 104zM385 1405l166 137l166 -137q80 -66 75.5 -137t-91.5 -117q12 24 12 49q0 24 -16.5 54.5t-40.5 57t-48 50t-41 37.5l-16 14q-7 -5 -17.5 -14.5t-38.5 -36t-49 -51.5t-38.5 -56t-17.5 -55q0 -25 12 -49
q-88 46 -92.5 117t75.5 137z" />
    <glyph glyph-name="otilde" unicode="&#xf5;" horiz-adv-x="1099" 
d="M967 719v-426q0 -154 -103.5 -236t-312.5 -82q-210 0 -314 82t-104 236v426q0 152 104 234.5t314 82.5q208 0 312 -82.5t104 -234.5zM854 324v364q0 61 -12 102.5t-44.5 75t-93 49t-153.5 15.5t-154.5 -15.5t-93.5 -49t-44.5 -75t-12.5 -102.5v-364q0 -62 12.5 -104
t44.5 -75t93.5 -49t154.5 -16t153.5 16t93 49t44.5 75t12 104zM287 1221q-6 29 -4 58.5t10.5 53t35 38.5t69.5 15q46 0 100.5 -24t111 -48t107.5 -24q35 0 57 12.5t42 43.5q9 -87 -17 -127.5t-96 -40.5q-56 0 -155 47t-158 47q-40 0 -62.5 -12t-40.5 -39z" />
    <glyph glyph-name="odieresis" unicode="&#xf6;" horiz-adv-x="1099" 
d="M967 719v-426q0 -154 -103.5 -236t-312.5 -82q-210 0 -314 82t-104 236v426q0 152 104 234.5t314 82.5q208 0 312 -82.5t104 -234.5zM854 324v364q0 61 -12 102.5t-44.5 75t-93 49t-153.5 15.5t-154.5 -15.5t-93.5 -49t-44.5 -75t-12.5 -102.5v-364q0 -62 12.5 -104
t44.5 -75t93.5 -49t154.5 -16t153.5 16t93 49t44.5 75t12 104zM350 1268v114h107q22 0 22 -28v-113h-106q-9 0 -16 9t-7 18zM623 1268v114h106q23 0 23 -28v-113h-107q-9 0 -15.5 9t-6.5 18z" />
    <glyph glyph-name="divide" unicode="&#xf7;" horiz-adv-x="993" 
d="M434 291h111q17 0 21.5 -7.5t4.5 -23.5v-119h-110q-17 0 -22 8t-5 25v117zM434 920h111q17 0 21.5 -7.5t4.5 -23.5v-119h-110q-17 0 -22 8t-5 25v117zM213 582h623q1 -16 2 -40.5t-14.5 -47.5t-45.5 -23h-620q-1 19 -2 43.5t13.5 46t43.5 21.5z" />
    <glyph glyph-name="oslash" unicode="&#xf8;" horiz-adv-x="1099" 
d="M967 719v-426q0 -154 -103.5 -236t-312.5 -82q-248 0 -350 117l-105 -106q-28 33 -29 81t29 80l49 50q-12 47 -12 96v426q0 152 104 234.5t314 82.5q214 0 323 -92l103 105q28 -30 33.5 -74.5t-23.5 -77.5l-45 -47q25 -61 25 -131zM854 324v364q0 28 -4 68l-571 -584
q61 -92 272 -92q93 0 153.5 16t93 49t44.5 75t12 104zM246 324v-25l551 565q-66 66 -246 66q-93 0 -154.5 -15.5t-93.5 -49t-44.5 -75t-12.5 -102.5v-364z" />
    <glyph glyph-name="ugrave" unicode="&#xf9;" horiz-adv-x="1077" 
d="M266 936v-625q0 -35 4.5 -62.5t21 -60.5t44.5 -55.5t80.5 -37.5t124.5 -15q76 0 143.5 13t97.5 25l29 13v895q5 0 12.5 -0.5t27 -5.5t34.5 -13.5t27 -27t12 -43.5v-946q-46 20 -111 20q-35 0 -132 -17.5t-149 -17.5q-69 0 -131 14.5t-120 46t-92.5 92t-34.5 142.5v756
q5 0 12.5 -0.5t26.5 -6t34 -14t27 -26.5t12 -43zM389 1536q-12 -50 7.5 -89.5t62.5 -82.5l141 -133q23 -22 15.5 -39t-30 -28.5t-50.5 -14.5l-99 78q-77 62 -114.5 107t-36.5 81t25.5 62.5t78.5 58.5z" />
    <glyph glyph-name="uacute" unicode="&#xfa;" horiz-adv-x="1077" 
d="M266 936v-625q0 -35 4.5 -62.5t21 -60.5t44.5 -55.5t80.5 -37.5t124.5 -15q76 0 143.5 13t97.5 25l29 13v895q5 0 12.5 -0.5t27 -5.5t34.5 -13.5t27 -27t12 -43.5v-946q-46 20 -111 20q-35 0 -132 -17.5t-149 -17.5q-69 0 -131 14.5t-120 46t-92.5 92t-34.5 142.5v756
q5 0 12.5 -0.5t26.5 -6t34 -14t27 -26.5t12 -43zM688 1536q54 -32 78.5 -58.5t25.5 -62.5t-36.5 -81t-114.5 -107l-99 -78q-28 3 -50.5 14.5t-30 28.5t15.5 39l141 133q43 43 62.5 82.5t7.5 89.5z" />
    <glyph glyph-name="ucircumflex" unicode="&#xfb;" horiz-adv-x="1077" 
d="M266 936v-625q0 -35 4.5 -62.5t21 -60.5t44.5 -55.5t80.5 -37.5t124.5 -15q76 0 143.5 13t97.5 25l29 13v895q5 0 12.5 -0.5t27 -5.5t34.5 -13.5t27 -27t12 -43.5v-946q-46 20 -111 20q-35 0 -132 -17.5t-149 -17.5q-69 0 -131 14.5t-120 46t-92.5 92t-34.5 142.5v756
q5 0 12.5 -0.5t26.5 -6t34 -14t27 -26.5t12 -43zM372 1405l166 137l166 -137q80 -66 75.5 -137t-91.5 -117q12 24 12 49q0 24 -16.5 54.5t-40.5 57t-48 50t-41 37.5l-16 14q-7 -5 -17.5 -14.5t-38.5 -36t-49 -51.5t-38.5 -56t-17.5 -55q0 -25 12 -49q-88 46 -92.5 117
t75.5 137z" />
    <glyph glyph-name="udieresis" unicode="&#xfc;" horiz-adv-x="1077" 
d="M266 936v-625q0 -35 4.5 -62.5t21 -60.5t44.5 -55.5t80.5 -37.5t124.5 -15q76 0 143.5 13t97.5 25l29 13v895q5 0 12.5 -0.5t27 -5.5t34.5 -13.5t27 -27t12 -43.5v-946q-46 20 -111 20q-35 0 -132 -17.5t-149 -17.5q-69 0 -131 14.5t-120 46t-92.5 92t-34.5 142.5v756
q5 0 12.5 -0.5t26.5 -6t34 -14t27 -26.5t12 -43zM338 1268v114h106q23 0 23 -28v-113h-107q-9 0 -15.5 9t-6.5 18zM610 1268v114h107q22 0 22 -28v-113h-106q-9 0 -16 9t-7 18z" />
    <glyph glyph-name="yacute" unicode="&#xfd;" horiz-adv-x="991" 
d="M508 162q9 7 25 20t56.5 56t73.5 88.5t63 114.5t38 137l37 346q3 30 15 49.5t33.5 29t34 12.5t36.5 7l-39 -395q-10 -99 -40 -187t-74.5 -153t-87 -110.5t-91.5 -82.5l-80 -61q-121 -95 -157 -132q-87 -89 -93 -197v-19q0 -74 47 -183q-16 -4 -31 -4q-23 0 -44 8
t-42.5 28t-34 60.5t-12.5 98.5q0 64 23.5 123.5t67 110.5t91 91.5t109.5 81.5q-32 20 -66 50.5t-73 79t-70.5 105t-56.5 133.5t-33 159l-41 397q4 0 11.5 -0.5t27 -5.5t35 -13.5t29 -27t16.5 -43.5l41 -356q8 -71 37.5 -140t65.5 -117t71 -85.5t58 -55.5zM654 1536
q54 -32 78.5 -58.5t25.5 -62.5t-36.5 -81t-114.5 -107l-99 -78q-28 3 -50.5 14.5t-30 28.5t15.5 39l141 133q43 43 62.5 82.5t7.5 89.5z" />
    <glyph glyph-name="thorn" unicode="&#xfe;" horiz-adv-x="1056" 
d="M154 -397v1908h1q12 0 24 -2t35 -10t37.5 -33t14.5 -63v-281q0 -79 -6 -133t-12 -68l-6 -14q4 5 12 14t38 31t65.5 39t96 31t128.5 14q140 0 241 -85t101 -226v-438q0 -142 -101 -227t-241 -85q-67 0 -127 13t-97 31.5t-65 37.5t-39 32l-12 13q3 -3 7 -13t10.5 -64.5
t6.5 -137.5v-393q-15 0 -28.5 2.5t-35 11.5t-35 33.5t-13.5 61.5zM266 715v-418q0 -93 91.5 -155t207.5 -62q111 0 178.5 59.5t67.5 177.5v377q0 117 -67.5 176.5t-178.5 59.5q-74 0 -142 -26.5t-112.5 -77t-44.5 -111.5z" />
    <glyph glyph-name="ydieresis" unicode="&#xff;" horiz-adv-x="991" 
d="M508 162q9 7 25 20t56.5 56t73.5 88.5t63 114.5t38 137l37 346q3 30 15 49.5t33.5 29t34 12.5t36.5 7l-39 -395q-10 -99 -40 -187t-74.5 -153t-87 -110.5t-91.5 -82.5l-80 -61q-121 -95 -157 -132q-87 -89 -93 -197v-19q0 -74 47 -183q-16 -4 -31 -4q-23 0 -44 8
t-42.5 28t-34 60.5t-12.5 98.5q0 64 23.5 123.5t67 110.5t91 91.5t109.5 81.5q-32 20 -66 50.5t-73 79t-70.5 105t-56.5 133.5t-33 159l-41 397q4 0 11.5 -0.5t27 -5.5t35 -13.5t29 -27t16.5 -43.5l41 -356q8 -71 37.5 -140t65.5 -117t71 -85.5t58 -55.5zM303 1268v114h107
q22 0 22 -28v-113h-106q-9 0 -16 9t-7 18zM575 1268v114h107q23 0 23 -28v-113h-107q-9 0 -16 9t-7 18z" />
    <glyph glyph-name="Amacron" unicode="&#x100;" horiz-adv-x="1232" 
d="M981 332l-41 143h-647l-41 -143q-4 -15 -13 -47t-14 -49.5t-14.5 -47t-16.5 -47t-18.5 -42t-22 -38.5t-25.5 -30.5t-30.5 -25.5t-35.5 -15t-42 -6q-14 0 -20 2q8 14 19.5 41.5t27 70.5t30 85t35 107t35.5 113t39 126l38 123.5t39 128t36 118.5q35 115 80.5 212.5
t79 151.5t75.5 101t53 56.5t29 23.5q18 -14 29 -23t53.5 -57t76 -101.5t79 -151t80.5 -212.5q11 -36 36 -118.5t39 -128l38 -123.5t39 -126t35.5 -113t35 -107t30 -85t27 -70.5t19.5 -41.5q-6 -2 -21 -2q-24 0 -45.5 6t-39 20.5t-31.5 28.5t-27.5 39.5t-22 43.5t-19 51
t-16 51.5t-15.5 55t-15 52.5zM326 588h581l-78 258q-40 134 -93.5 243.5t-86.5 152.5l-33 42q-5 -6 -14 -17t-35 -50.5t-50.5 -86t-56.5 -123.5t-57 -161zM396 1718h493q16 -104 -51 -104h-491q-5 20 -5 43.5t14 42t40 18.5z" />
    <glyph glyph-name="amacron" unicode="&#x101;" horiz-adv-x="1017" 
d="M111 266q0 69 25 121t66.5 82.5t96 54t112 35.5t115 27t105 29.5t83.5 41.5t48 64q0 99 -56.5 152t-201.5 53q-148 0 -232 -58.5t-84 -156.5q-43 57 -43 123q0 91 99 146.5t260 55.5q186 0 278 -84t92 -237v-725q-53 20 -124 20q-29 0 -117.5 -17.5t-134.5 -17.5
q-187 0 -287 79.5t-100 211.5zM227 264q0 -84 70.5 -134t216.5 -50q68 0 130 13t90 27l28 13v455q-8 -29 -42.5 -49t-82 -31.5t-103 -22.5t-110 -26.5t-98.5 -38t-71.5 -62t-27.5 -94.5zM295 1341h493q16 -104 -51 -104h-491q-5 20 -5 43.5t14 42t40 18.5z" />
    <glyph glyph-name="Abreve" unicode="&#x102;" horiz-adv-x="1232" 
d="M981 332l-41 143h-647l-41 -143q-4 -15 -13 -47t-14 -49.5t-14.5 -47t-16.5 -47t-18.5 -42t-22 -38.5t-25.5 -30.5t-30.5 -25.5t-35.5 -15t-42 -6q-14 0 -20 2q8 14 19.5 41.5t27 70.5t30 85t35 107t35.5 113t39 126l38 123.5t39 128t36 118.5q35 115 80.5 212.5
t79 151.5t75.5 101t53 56.5t29 23.5q18 -14 29 -23t53.5 -57t76 -101.5t79 -151t80.5 -212.5q11 -36 36 -118.5t39 -128l38 -123.5t39 -126t35.5 -113t35 -107t30 -85t27 -70.5t19.5 -41.5q-6 -2 -21 -2q-24 0 -45.5 6t-39 20.5t-31.5 28.5t-27.5 39.5t-22 43.5t-19 51
t-16 51.5t-15.5 55t-15 52.5zM326 588h581l-78 258q-40 134 -93.5 243.5t-86.5 152.5l-33 42q-5 -6 -14 -17t-35 -50.5t-50.5 -86t-56.5 -123.5t-57 -161zM617 1526q-129 0 -201 64.5t-72 152.5q0 53 26.5 96t82.5 54q-14 -35 -14 -74q0 -37 7 -66t24.5 -57t55 -43.5
t91.5 -15.5q178 0 178 182q0 30 -14 74q54 -11 81 -54t27 -96q0 -89 -71.5 -153t-200.5 -64z" />
    <glyph glyph-name="abreve" unicode="&#x103;" horiz-adv-x="1017" 
d="M111 266q0 69 25 121t66.5 82.5t96 54t112 35.5t115 27t105 29.5t83.5 41.5t48 64q0 99 -56.5 152t-201.5 53q-148 0 -232 -58.5t-84 -156.5q-43 57 -43 123q0 91 99 146.5t260 55.5q186 0 278 -84t92 -237v-725q-53 20 -124 20q-29 0 -117.5 -17.5t-134.5 -17.5
q-187 0 -287 79.5t-100 211.5zM227 264q0 -84 70.5 -134t216.5 -50q68 0 130 13t90 27l28 13v455q-8 -29 -42.5 -49t-82 -31.5t-103 -22.5t-110 -26.5t-98.5 -38t-71.5 -62t-27.5 -94.5zM516 1149q-129 0 -200.5 64t-71.5 153q0 54 26 96.5t82 53.5q-14 -35 -14 -74
q0 -37 7 -66t24.5 -57t55 -43.5t91.5 -15.5q178 0 178 182q0 30 -14 74q54 -11 81 -54t27 -96q0 -89 -71.5 -153t-200.5 -64z" />
    <glyph glyph-name="Aogonek" unicode="&#x104;" horiz-adv-x="1232" 
d="M981 332l-41 143h-647l-41 -143q-4 -15 -13 -47t-14 -49.5t-14.5 -47t-16.5 -47t-18.5 -42t-22 -38.5t-25.5 -30.5t-30.5 -25.5t-35.5 -15t-42 -6q-14 0 -20 2q8 14 19.5 41.5t27 70.5t30 85t35 107t35.5 113t39 126l38 123.5t39 128t36 118.5q35 115 80.5 212.5
t79 151.5t75.5 101t53 56.5t29 23.5q18 -14 29 -23t53.5 -57t76 -101.5t79 -151t80.5 -212.5q11 -36 36 -118.5t39 -128l38 -123.5t39 -126t35.5 -113t35 -107t30 -85t27 -70.5t19.5 -41.5q-6 -2 -21 -2h-2q-6 -1 -22.5 -6.5t-46 -17.5t-59 -33t-56.5 -47.5t-44 -67
t-17 -86.5t22.5 -73.5t57.5 -34t73 -2t74 18.5q0 -56 -43 -87t-105 -31q-98 0 -150 53t-52 143q0 54 20.5 102.5t49.5 81t68 60.5t69 42.5t59 25.5q-14 14 -26.5 30.5t-23.5 40.5t-18.5 40.5t-17.5 49t-14 46.5t-14 52.5t-13 47.5zM326 588h581l-78 258q-40 134 -93.5 243.5
t-86.5 152.5l-33 42q-5 -6 -14 -17t-35 -50.5t-50.5 -86t-56.5 -123.5t-57 -161z" />
    <glyph glyph-name="aogonek" unicode="&#x105;" horiz-adv-x="1017" 
d="M113 266q0 81 32 139t84.5 89.5t116.5 52t131.5 34t125 28.5t101.5 42.5t58 69.5q0 99 -56.5 152t-201.5 53q-148 0 -232 -58.5t-84 -156.5q-43 57 -43 123q0 91 99 146.5t260 55.5q186 0 278 -84t92 -237v-633v-14q-25 -18 -34.5 -25t-40 -31.5t-46.5 -41.5t-41.5 -48
t-38.5 -58.5t-23.5 -64t-10.5 -73.5q0 -46 22.5 -73.5t57.5 -34t73 -2t74 18.5q0 -56 -42.5 -87t-104.5 -31q-98 0 -150.5 53t-52.5 143q0 152 143 283q-10 -2 -37 -6.5t-42.5 -7t-39 -5t-42.5 -2.5q-187 0 -286 79.5t-99 211.5zM227 264q0 -84 70.5 -134t216.5 -50
q68 0 130 12t90 24l28 11v461q-5 -33 -37.5 -54t-80 -32t-103.5 -20t-111.5 -23t-101 -35t-73.5 -61.5t-28 -98.5z" />
    <glyph glyph-name="Cacute" unicode="&#x106;" horiz-adv-x="1351" 
d="M705 1331q-96 0 -172.5 -20t-136.5 -63.5t-92 -117t-32 -174.5v-489q0 -377 422 -377q34 0 67.5 1.5t85 7.5t95.5 16t90.5 29.5t79 45t53 65.5t19.5 89q31 -66 33 -120.5t-20 -92t-65 -66.5t-93.5 -45.5t-113.5 -27t-118 -14t-113 -3.5q-113 0 -207 24.5t-170.5 77
t-119.5 144t-43 215.5v549q0 123 44.5 214.5t123.5 144t174.5 77.5t208.5 25q53 0 103 -2.5t114 -11.5t114.5 -24t96 -42t68 -62.5t20.5 -89.5t-37 -120q0 69 -50 119t-130 74t-153.5 34t-145.5 10zM862 1913q54 -32 78.5 -58.5t25.5 -62.5t-36.5 -81t-114.5 -107l-99 -78
q-28 3 -50.5 14.5t-30 28.5t15.5 39l141 133q43 43 62.5 82.5t7.5 89.5z" />
    <glyph glyph-name="cacute" unicode="&#x107;" horiz-adv-x="1009" 
d="M868 311q52 -74 52 -129q0 -68 -57.5 -116.5t-141 -69.5t-180.5 -21q-187 0 -297.5 84.5t-110.5 233.5v426q0 149 102 233t285 84q160 0 257 -55t97 -147q0 -63 -45 -123q0 98 -83 156.5t-230 58.5q-270 0 -270 -230v-383q0 -105 75 -166t220 -61q146 0 236.5 57.5
t90.5 167.5zM664 1536q54 -32 78.5 -58.5t25 -62.5t-36.5 -81t-115 -107l-98 -78q-28 3 -50.5 14.5t-30 28.5t15.5 39l141 133q43 43 62.5 82.5t7.5 89.5z" />
    <glyph glyph-name="Ccircumflex" unicode="&#x108;" horiz-adv-x="1351" 
d="M705 1331q-96 0 -172.5 -20t-136.5 -63.5t-92 -117t-32 -174.5v-489q0 -377 422 -377q34 0 67.5 1.5t85 7.5t95.5 16t90.5 29.5t79 45t53 65.5t19.5 89q31 -66 33 -120.5t-20 -92t-65 -66.5t-93.5 -45.5t-113.5 -27t-118 -14t-113 -3.5q-113 0 -207 24.5t-170.5 77
t-119.5 144t-43 215.5v549q0 123 44.5 214.5t123.5 144t174.5 77.5t208.5 25q53 0 103 -2.5t114 -11.5t114.5 -24t96 -42t68 -62.5t20.5 -89.5t-37 -120q0 69 -50 119t-130 74t-153.5 34t-145.5 10zM546 1782l166 137l166 -137q80 -66 75.5 -137t-91.5 -117q12 24 12 49
q0 24 -16.5 54.5t-40.5 57t-48 50t-41 37.5l-16 14q-7 -5 -17.5 -14.5t-38.5 -36t-49 -51.5t-38.5 -56t-17.5 -55q0 -25 12 -49q-88 46 -92.5 117t75.5 137z" />
    <glyph glyph-name="ccircumflex" unicode="&#x109;" horiz-adv-x="1009" 
d="M868 311q52 -74 52 -129q0 -68 -57.5 -116.5t-141 -69.5t-180.5 -21q-187 0 -297.5 84.5t-110.5 233.5v426q0 149 102 233t285 84q160 0 257 -55t97 -147q0 -63 -45 -123q0 98 -83 156.5t-230 58.5q-270 0 -270 -230v-383q0 -105 75 -166t220 -61q146 0 236.5 57.5
t90.5 167.5zM348 1405l166 137l166 -137q80 -66 75.5 -137t-91.5 -117q12 24 12 49q0 24 -16.5 54.5t-40.5 57t-48 50t-41 37.5l-16 14q-7 -5 -17.5 -14.5t-38.5 -36t-49.5 -51.5t-39 -56t-17.5 -55q0 -23 13 -49q-88 46 -92.5 117t75.5 137z" />
    <glyph glyph-name="Ccaron" unicode="&#x10c;" horiz-adv-x="1351" 
d="M705 1331q-96 0 -172.5 -20t-136.5 -63.5t-92 -117t-32 -174.5v-489q0 -377 422 -377q34 0 67.5 1.5t85 7.5t95.5 16t90.5 29.5t79 45t53 65.5t19.5 89q31 -66 33 -120.5t-20 -92t-65 -66.5t-93.5 -45.5t-113.5 -27t-118 -14t-113 -3.5q-113 0 -207 24.5t-170.5 77
t-119.5 144t-43 215.5v549q0 123 44.5 214.5t123.5 144t174.5 77.5t208.5 25q53 0 103 -2.5t114 -11.5t114.5 -24t96 -42t68 -62.5t20.5 -89.5t-37 -120q0 69 -50 119t-130 74t-153.5 34t-145.5 10zM532 1952q-7 -16 -9 -31.5t-1.5 -29t7.5 -29.5t12 -27t18.5 -27.5
t20.5 -25t24.5 -25.5t24.5 -23t27.5 -23.5t25.5 -22.5q7 6 28 24.5t32 28.5t30 29.5t29 33t21.5 33.5t15 37t3 37.5t-9.5 40.5q57 -20 79 -65t5.5 -96.5t-65.5 -92.5l-150 -125h-37l-149 123q-51 42 -70 91t3 94t85 71z" />
    <glyph glyph-name="ccaron" unicode="&#x10d;" horiz-adv-x="1009" 
d="M868 311q52 -74 52 -129q0 -68 -57.5 -116.5t-141 -69.5t-180.5 -21q-187 0 -297.5 84.5t-110.5 233.5v426q0 149 102 233t285 84q160 0 257 -55t97 -147q0 -63 -45 -123q0 98 -83 156.5t-230 58.5q-270 0 -270 -230v-383q0 -105 75 -166t220 -61q146 0 236.5 57.5
t90.5 167.5zM362 1542q-7 -16 -9 -31.5t-1.5 -29t7.5 -29.5t12 -27t18.5 -27.5t20.5 -25t24.5 -25.5t24.5 -23t27.5 -23.5t25.5 -22.5q7 6 28 24.5t32 28.5t30 29t29 33t22 34t15.5 37t3 37.5t-9.5 40.5q57 -20 79 -65t5 -96.5t-66 -92.5l-150 -125h-36l-150 123
q-51 42 -70 91t3 94t85 71z" />
    <glyph glyph-name="Dcaron" unicode="&#x10e;" horiz-adv-x="1404" 
d="M692 1311h-399v-1200h399q76 0 140.5 11.5t121 38.5t95.5 69t61.5 105.5t22.5 145.5v461q0 100 -33.5 173.5t-95.5 115t-139 61t-173 19.5zM692 0h-375q-12 0 -29.5 2.5t-46.5 10t-48 27.5t-19 50v1331h518q91 0 169 -13t151.5 -45.5t125 -83.5t82.5 -132t31 -186v-500
q0 -105 -31 -186t-82.5 -132t-125 -84t-151.5 -46t-169 -13zM559 1952q-7 -16 -9 -31.5t-1.5 -29t7.5 -29.5t12 -27t18.5 -27.5t20.5 -25t24.5 -25.5t24.5 -23t27.5 -23.5t25.5 -22.5q7 6 28 24.5t32 28.5t30 29.5t29 33t21.5 33.5t15 37t3 37.5t-9.5 40.5q57 -20 79 -65
t5.5 -96.5t-65.5 -92.5l-150 -125h-37l-149 123q-51 42 -70 91t3 94t85 71z" />
    <glyph glyph-name="dcaron" unicode="&#x10f;" horiz-adv-x="1243" 
d="M1071 1421h59q49 0 58.5 -11.5t9.5 -61.5v-70q0 -223 -108 -223q-40 0 -72 18q35 7 53 43.5t17.5 75.5t-1.5 72zM791 1122v394q112 0 112 -109v-1417q-53 20 -108 20q-40 0 -138 -17.5t-151 -17.5q-175 0 -274 84.5t-99 227.5v438q0 141 96.5 225t237.5 84
q80 0 145.5 -13t101 -32t59.5 -37.5t32 -31.5l8 -13q-22 39 -22 215zM791 131v584q0 61 -44 111t-111.5 76t-141.5 26q-112 0 -180 -59t-68 -175v-377q0 -123 66.5 -179t230.5 -56q68 0 130 12t90 24z" />
    <glyph glyph-name="Dcroat" unicode="&#x110;" horiz-adv-x="1404" 
d="M113 770h61v651h518q91 0 169 -13t151.5 -45.5t125 -83.5t82.5 -132t31 -186v-500q0 -105 -31 -186t-82.5 -132t-125 -84t-151.5 -46t-169 -13h-375q-12 0 -29.5 2.5t-46.5 10t-48 27.5t-19 50v569h-117q-1 19 -2 43.5t14 46t44 21.5zM692 1311h-399v-541h471
q1 -16 2.5 -40.5t-14 -47.5t-45.5 -23h-414v-548h399q76 0 140.5 11.5t121 38.5t95.5 69t61.5 105.5t22.5 145.5v461q0 100 -33.5 173.5t-95.5 115t-139 61t-173 19.5z" />
    <glyph glyph-name="dcroat" unicode="&#x111;" horiz-adv-x="1056" 
d="M668 1292h123v224q112 0 112 -109v-115h168q16 -104 -51 -104h-117v-1198q-53 20 -108 20q-40 0 -138 -17.5t-151 -17.5q-175 0 -274 84.5t-99 227.5v438q0 141 96.5 225t237.5 84q72 0 132.5 -11t95.5 -25.5t62.5 -34t37.5 -30.5t16 -22q-20 40 -20 211v66h-173
q-5 20 -5 43.5t14.5 42t40.5 18.5zM791 131v584q0 61 -44 111t-111.5 76t-141.5 26q-112 0 -180 -59t-68 -175v-377q0 -123 66.5 -179t230.5 -56q68 0 130 12t90 24z" />
    <glyph glyph-name="Emacron" unicode="&#x112;" horiz-adv-x="1128" 
d="M807 727h-514v-616h733q0 -9 -1.5 -21t-7.5 -35.5t-23.5 -39t-43.5 -15.5h-628q-6 0 -16 0.5t-35.5 5.5t-45 13.5t-35.5 27t-16 43.5v1331h852q0 -4 -0.5 -11.5t-4.5 -26.5t-11 -33.5t-23 -26.5t-37 -12h-657v-473h502q54 0 91 7t48 14l10 7q0 -19 -5.5 -39.5
t-18.5 -44.5t-42.5 -39.5t-70.5 -15.5zM389 1718h493q16 -104 -51 -104h-491q-5 20 -5 43.5t14 42t40 18.5z" />
    <glyph glyph-name="emacron" unicode="&#x113;" horiz-adv-x="1017" 
d="M858 311q47 -66 47 -131q0 -67 -59.5 -115t-144.5 -69t-181 -21q-179 0 -283 84.5t-104 233.5v426q0 150 97.5 233.5t279.5 83.5q181 0 283 -81t102 -216q0 -130 -96 -208t-299 -78q-59 0 -122.5 13.5t-97.5 26.5l-34 13v-182q0 -121 61.5 -179.5t212.5 -58.5
q147 0 242.5 58t95.5 167zM246 688v-78q-2 -1 7 -5q61 -23 165 -37q40 -5 71 -5q156 0 224.5 45t68.5 131q0 191 -268 191q-80 0 -133.5 -16t-82.5 -48.5t-40.5 -75t-11.5 -102.5zM293 1341h493q16 -104 -51 -104h-491q-5 20 -5 43.5t14 42t40 18.5z" />
    <glyph glyph-name="Edotaccent" unicode="&#x116;" horiz-adv-x="1128" 
d="M807 727h-514v-616h733q0 -9 -1.5 -21t-7.5 -35.5t-23.5 -39t-43.5 -15.5h-628q-6 0 -16 0.5t-35.5 5.5t-45 13.5t-35.5 27t-16 43.5v1331h852q0 -4 -0.5 -11.5t-4.5 -26.5t-11 -33.5t-23 -26.5t-37 -12h-657v-473h502q54 0 91 7t48 14l10 7q0 -19 -5.5 -39.5
t-18.5 -44.5t-42.5 -39.5t-70.5 -15.5zM547 1645v114h107q22 0 22 -28v-113h-106q-9 0 -16 9t-7 18z" />
    <glyph glyph-name="edotaccent" unicode="&#x117;" horiz-adv-x="1017" 
d="M858 311q47 -66 47 -131q0 -67 -59.5 -115t-144.5 -69t-181 -21q-179 0 -283 84.5t-104 233.5v426q0 150 97.5 233.5t279.5 83.5q181 0 283 -81t102 -216q0 -130 -96 -208t-299 -78q-59 0 -122.5 13.5t-97.5 26.5l-34 13v-182q0 -121 61.5 -179.5t212.5 -58.5
q147 0 242.5 58t95.5 167zM246 688v-78q-2 -1 7 -5q61 -23 165 -37q40 -5 71 -5q156 0 224.5 45t68.5 131q0 191 -268 191q-80 0 -133.5 -16t-82.5 -48.5t-40.5 -75t-11.5 -102.5zM451 1268v114h106q23 0 23 -28v-113h-107q-9 0 -15.5 9t-6.5 18z" />
    <glyph glyph-name="Eogonek" unicode="&#x118;" horiz-adv-x="1128" 
d="M807 727h-514v-616h733q-11 -37 -38 -74.5t-57 -69t-58.5 -66t-47 -79.5t-18.5 -96q0 -46 23.5 -73.5t59.5 -34t75 -2t75 18.5q0 -56 -42.5 -87t-104.5 -31q-98 0 -153.5 53.5t-55.5 142.5q0 151 152 287h-514q-6 0 -16 0.5t-35.5 5.5t-45 13.5t-35.5 27t-16 43.5v1331
h852q0 -4 -0.5 -11.5t-4.5 -26.5t-11 -33.5t-23 -26.5t-37 -12h-657v-473h502q54 0 91 7t48 14l10 7q0 -19 -5.5 -39.5t-18.5 -44.5t-42.5 -39.5t-70.5 -15.5z" />
    <glyph glyph-name="eogonek" unicode="&#x119;" horiz-adv-x="1017" 
d="M858 311q47 -66 47 -131q0 -41 -27.5 -77t-68.5 -60q-31 -22 -62 -51.5t-64 -70t-53 -92t-20 -103.5q0 -46 23.5 -73.5t60 -34t75.5 -2t75 18.5q0 -56 -43 -87t-105 -31q-98 0 -153.5 53.5t-55.5 142.5q0 139 134 269q-58 -7 -101 -7q-179 0 -283 84.5t-104 233.5v426
q0 150 97.5 233.5t279.5 83.5q181 0 283 -81t102 -216q0 -130 -96 -208t-299 -78q-59 0 -122.5 13.5t-97.5 26.5l-34 13v-182q0 -121 61.5 -179.5t212.5 -58.5q147 0 242.5 58t95.5 167zM246 688v-78q-2 -1 7 -5q61 -23 165 -37q40 -5 71 -5q156 0 224.5 45t68.5 131
q0 191 -268 191q-80 0 -133.5 -16t-82.5 -48.5t-40.5 -75t-11.5 -102.5z" />
    <glyph glyph-name="Ecaron" unicode="&#x11a;" horiz-adv-x="1128" 
d="M807 727h-514v-616h733q0 -9 -1.5 -21t-7.5 -35.5t-23.5 -39t-43.5 -15.5h-628q-6 0 -16 0.5t-35.5 5.5t-45 13.5t-35.5 27t-16 43.5v1331h852q0 -4 -0.5 -11.5t-4.5 -26.5t-11 -33.5t-23 -26.5t-37 -12h-657v-473h502q54 0 91 7t48 14l10 7q0 -19 -5.5 -39.5
t-18.5 -44.5t-42.5 -39.5t-70.5 -15.5zM422 1952q-7 -16 -9 -31.5t-1.5 -29t7.5 -29.5t12 -27t18.5 -27.5t20.5 -25t24.5 -25.5t24.5 -23t27.5 -23.5t25.5 -22.5q7 6 28 24.5t32 28.5t30 29.5t29 33t21.5 33.5t15 37t3 37.5t-9.5 40.5q57 -20 79 -65t5.5 -96.5t-65.5 -92.5
l-150 -125h-37l-149 123q-51 42 -70 91t3 94t85 71z" />
    <glyph glyph-name="ecaron" unicode="&#x11b;" horiz-adv-x="1017" 
d="M858 311q47 -66 47 -131q0 -67 -59.5 -115t-144.5 -69t-181 -21q-179 0 -283 84.5t-104 233.5v426q0 150 97.5 233.5t279.5 83.5q181 0 283 -81t102 -216q0 -130 -96 -208t-299 -78q-59 0 -122.5 13.5t-97.5 26.5l-34 13v-182q0 -121 61.5 -179.5t212.5 -58.5
q147 0 242.5 58t95.5 167zM246 688v-78q-2 -1 7 -5q61 -23 165 -37q40 -5 71 -5q156 0 224.5 45t68.5 131q0 191 -268 191q-80 0 -133.5 -16t-82.5 -48.5t-40.5 -75t-11.5 -102.5zM367 1542q-35 -84 57 -180q18 -19 92 -84q7 6 28 24.5t32 28.5t30 29t29 33t22 34t15.5 37
t3 37.5t-9.5 40.5q57 -20 79 -65t5 -96.5t-66 -92.5l-149 -125h-37l-150 123q-51 42 -70 91t3.5 94t85.5 71z" />
    <glyph glyph-name="Gcircumflex" unicode="&#x11c;" 
d="M154 436v549q0 123 44.5 214.5t123.5 144t174.5 77.5t208.5 25q51 0 100.5 -3t112.5 -12t114 -24t96.5 -42.5t69 -63.5t22 -90t-35.5 -119q0 56 -34.5 100t-86 69.5t-119.5 42t-126 22t-113 5.5q-96 0 -172.5 -20t-136.5 -63.5t-92 -117t-32 -174.5v-489q0 -377 422 -377
q96 0 170 18.5t132.5 60t89 114t30.5 174.5v145h-311q-26 0 -46 13.5t-30 33t-16 38.5t-7 33l-1 13q49 -20 131 -20h397v-287q0 -124 -43 -214t-120 -140.5t-170 -73.5t-206 -23t-207 24.5t-170.5 77t-119.5 144t-43 215.5zM538 1782l166 137l166 -137q80 -66 75.5 -137
t-91.5 -117q12 24 12 49q0 24 -16.5 54.5t-40.5 57t-48 50t-41 37.5l-16 14q-7 -5 -17.5 -14.5t-38.5 -36t-49 -51.5t-38.5 -56t-17.5 -55q0 -25 12 -49q-88 46 -92.5 117t75.5 137z" />
    <glyph glyph-name="gcircumflex" unicode="&#x11d;" horiz-adv-x="987" 
d="M874 1024v-401q0 -152 -96 -235t-278 -83q-61 0 -112 7.5t-80 18t-49 21t-27 18.5l-7 7q-20 -72 -20 -119q0 -93 53 -119t207 -26h67q41 0 69.5 -1t67 -4.5t66 -11.5t58.5 -20t51.5 -31.5t38.5 -45.5t26.5 -62.5t8.5 -81.5q0 -162 -102.5 -256.5t-309.5 -94.5
q-108 0 -198 22t-149 69t-59 112q0 70 47 135q0 -104 84.5 -165.5t274.5 -61.5q89 0 149.5 19.5t91 56.5t42.5 78t12 96q0 38 -15 64t-37 40t-61.5 21.5t-73.5 9.5t-88 2h-100q-43 0 -75 1.5t-69 7t-63.5 14.5t-52 25.5t-41.5 39.5t-25.5 56.5t-9.5 76.5q0 61 20 102.5
t70 102.5q-57 75 -57 195v122q0 76 28.5 133.5t78 90.5t110.5 49t133 16q54 0 155 -18.5t132 -18.5q59 0 114 27zM500 412q150 0 206 58.5t56 182.5v221q-12 6 -34 15t-92.5 24t-143.5 15q-146 0 -201 -50.5t-55 -162.5v-62q0 -124 57 -182.5t207 -58.5zM328 1405l166 137
l165 -137q80 -66 75.5 -137t-91.5 -117q12 24 12 49q0 37 -40.5 90.5t-80.5 87.5l-40 35q-7 -5 -17.5 -14.5t-38.5 -36t-49.5 -51.5t-39 -56t-17.5 -55q0 -25 12 -49q-87 46 -91.5 117t75.5 137z" />
    <glyph glyph-name="Gbreve" unicode="&#x11e;" 
d="M154 436v549q0 123 44.5 214.5t123.5 144t174.5 77.5t208.5 25q51 0 100.5 -3t112.5 -12t114 -24t96.5 -42.5t69 -63.5t22 -90t-35.5 -119q0 56 -34.5 100t-86 69.5t-119.5 42t-126 22t-113 5.5q-96 0 -172.5 -20t-136.5 -63.5t-92 -117t-32 -174.5v-489q0 -377 422 -377
q96 0 170 18.5t132.5 60t89 114t30.5 174.5v145h-311q-26 0 -46 13.5t-30 33t-16 38.5t-7 33l-1 13q49 -20 131 -20h397v-287q0 -124 -43 -214t-120 -140.5t-170 -73.5t-206 -23t-207 24.5t-170.5 77t-119.5 144t-43 215.5zM705 1526q-129 0 -201 64.5t-72 152.5
q0 53 26.5 96t82.5 54q-14 -35 -14 -74q0 -37 7 -66t24.5 -57t55 -43.5t91.5 -15.5q178 0 178 182q0 30 -14 74q54 -11 81 -54t27 -96q0 -89 -71.5 -153t-200.5 -64z" />
    <glyph glyph-name="gbreve" unicode="&#x11f;" horiz-adv-x="987" 
d="M874 1024v-401q0 -152 -96 -235t-278 -83q-61 0 -112 7.5t-80 18t-49 21t-27 18.5l-7 7q-20 -72 -20 -119q0 -93 53 -119t207 -26h67q41 0 69.5 -1t67 -4.5t66 -11.5t58.5 -20t51.5 -31.5t38.5 -45.5t26.5 -62.5t8.5 -81.5q0 -162 -102.5 -256.5t-309.5 -94.5
q-108 0 -198 22t-149 69t-59 112q0 70 47 135q0 -104 84.5 -165.5t274.5 -61.5q89 0 149.5 19.5t91 56.5t42.5 78t12 96q0 38 -15 64t-37 40t-61.5 21.5t-73.5 9.5t-88 2h-100q-43 0 -75 1.5t-69 7t-63.5 14.5t-52 25.5t-41.5 39.5t-25.5 56.5t-9.5 76.5q0 61 20 102.5
t70 102.5q-57 75 -57 195v122q0 76 28.5 133.5t78 90.5t110.5 49t133 16q54 0 155 -18.5t132 -18.5q59 0 114 27zM500 412q150 0 206 58.5t56 182.5v221q-12 6 -34 15t-92.5 24t-143.5 15q-146 0 -201 -50.5t-55 -162.5v-62q0 -124 57 -182.5t207 -58.5zM494 1149
q-129 0 -201 64.5t-72 152.5q0 53 26.5 96t82.5 54q-15 -38 -15 -74q0 -37 7 -66t25 -57t55.5 -43.5t91.5 -15.5q178 0 178 182q0 27 -15 74q54 -11 81.5 -54t27.5 -96q0 -89 -71.5 -153t-200.5 -64z" />
    <glyph glyph-name="Gcommaaccent" unicode="&#x122;" 
d="M154 436v549q0 123 44.5 214.5t123.5 144t174.5 77.5t208.5 25q51 0 100.5 -3t112.5 -12t114 -24t96.5 -42.5t69 -63.5t22 -90t-35.5 -119q0 56 -34.5 100t-86 69.5t-119.5 42t-126 22t-113 5.5q-96 0 -172.5 -20t-136.5 -63.5t-92 -117t-32 -174.5v-489q0 -377 422 -377
q96 0 170 18.5t132.5 60t89 114t30.5 174.5v145h-311q-26 0 -46 13.5t-30 33t-16 38.5t-7 33l-1 13q49 -20 131 -20h397v-287q0 -124 -43 -214t-120 -140.5t-170 -73.5t-206 -23t-207 24.5t-170.5 77t-119.5 144t-43 215.5zM651 -74h60q49 0 58 -11.5t9 -61.5v-70
q0 -223 -108 -223q-40 0 -72 18q35 7 53.5 43.5t18 75.5t-1.5 72z" />
    <glyph glyph-name="gcommaaccent" unicode="&#x123;" horiz-adv-x="987" 
d="M874 1024v-401q0 -152 -96 -235t-278 -83q-61 0 -112 7.5t-80 18t-49 21t-27 18.5l-7 7q-20 -72 -20 -119q0 -93 53 -119t207 -26h67q41 0 69.5 -1t67 -4.5t66 -11.5t58.5 -20t51.5 -31.5t38.5 -45.5t26.5 -62.5t8.5 -81.5q0 -162 -102.5 -256.5t-309.5 -94.5
q-108 0 -198 22t-149 69t-59 112q0 70 47 135q0 -104 84.5 -165.5t274.5 -61.5q89 0 149.5 19.5t91 56.5t42.5 78t12 96q0 38 -15 64t-37 40t-61.5 21.5t-73.5 9.5t-88 2h-100q-43 0 -75 1.5t-69 7t-63.5 14.5t-52 25.5t-41.5 39.5t-25.5 56.5t-9.5 76.5q0 61 20 102.5
t70 102.5q-57 75 -57 195v122q0 76 28.5 133.5t78 90.5t110.5 49t133 16q54 0 155 -18.5t132 -18.5q59 0 114 27zM500 412q150 0 206 58.5t56 182.5v221q-12 6 -34 15t-92.5 24t-143.5 15q-146 0 -201 -50.5t-55 -162.5v-62q0 -124 57 -182.5t207 -58.5zM561 1161h-59
q-49 0 -58.5 12t-9.5 62v70q0 223 109 223q37 0 71 -19q-35 -7 -53 -43t-17.5 -75t1.5 -72z" />
    <glyph glyph-name="Hcircumflex" unicode="&#x124;" horiz-adv-x="1413" 
d="M1120 70v616h-827v-706q-5 0 -13 0.5t-28.5 5.5t-36 13.5t-28.5 27t-13 43.5v1372q5 0 13 -0.5t28.5 -5.5t36 -13.5t28.5 -27t13 -43.5v-553h827v643q5 0 13 -0.5t28.5 -5.5t36 -13.5t28.5 -27t13 -43.5v-1372q-5 0 -13 0.5t-28.5 5.5t-36 13.5t-28.5 27t-13 43.5z
M542 1782l166 137l166 -137q80 -66 75.5 -137t-91.5 -117q12 24 12 49q0 24 -16.5 54.5t-40.5 57t-48 50t-41 37.5l-16 14q-7 -5 -17.5 -14.5t-38.5 -36t-49 -51.5t-38.5 -56t-17.5 -55q0 -25 12 -49q-88 46 -92.5 117t75.5 137z" />
    <glyph glyph-name="hcircumflex" unicode="&#x125;" horiz-adv-x="1077" 
d="M266 715v-729q-5 0 -12.5 0.5t-26.5 5.5t-34 13.5t-27 27t-12 43.5v1442q7 0 14.5 -0.5t27 -6.5t33.5 -16t25.5 -33t11.5 -55v-285q0 -76 -5.5 -130t-10.5 -70l-6 -15q3 5 10 14t35.5 31t64 39t99.5 31t139 14q139 0 235.5 -85.5t96.5 -225.5v-739q-5 0 -12.5 0.5t-27 6
t-34.5 14t-27 26.5t-12 43v618q0 120 -67 178t-179 58q-74 0 -142 -26.5t-112.5 -77t-44.5 -111.5zM385 1782l166 137l166 -137q80 -66 75.5 -137t-92.5 -117q13 26 13 49q0 24 -16.5 54.5t-40.5 57t-48 50t-40 37.5l-17 14q-7 -5 -17.5 -14.5t-38.5 -36t-49.5 -51.5
t-39 -56t-17.5 -55q0 -25 12 -49q-87 46 -91.5 117t75.5 137z" />
    <glyph glyph-name="Imacron" unicode="&#x12a;" horiz-adv-x="466" 
d="M174 70v1372q5 0 13 -0.5t28.5 -5.5t36 -13.5t28.5 -27t13 -43.5v-1372q-5 0 -13 0.5t-28.5 5.5t-36 13.5t-28.5 27t-13 43.5zM13 1718h493q16 -104 -51 -104h-491q-5 20 -5 43.5t14 42t40 18.5z" />
    <glyph glyph-name="imacron" unicode="&#x12b;" horiz-adv-x="419" 
d="M154 66v938q9 0 22 -2t36 -9.5t38.5 -27.5t15.5 -50v-938q-5 0 -12.5 0.5t-26.5 5.5t-34 13.5t-27 26.5t-12 43zM-12 1341h493q16 -104 -51 -104h-491q-5 20 -5 43.5t14 42t40 18.5z" />
    <glyph glyph-name="Iogonek" unicode="&#x12e;" horiz-adv-x="466" 
d="M293 -16v-4q-123 -114 -123 -254q0 -46 23.5 -73.5t59 -34t73 -2t71.5 18.5q0 -56 -42.5 -87t-104.5 -31q-98 0 -150.5 53t-52.5 143q0 161 152 297q-25 21 -25 60v1372q5 0 13 -0.5t28.5 -5.5t36 -13.5t28.5 -27t13 -43.5v-1368z" />
    <glyph glyph-name="iogonek" unicode="&#x12f;" horiz-adv-x="419" 
d="M266 936v-956q-116 -107 -116 -254q0 -46 23.5 -73.5t59 -34t73 -2t71.5 18.5q0 -56 -43 -87t-105 -31q-98 0 -150 53t-52 143q0 161 151 297q-24 21 -24 60v956q10 0 23.5 -2.5t36 -10t37.5 -27.5t15 -50zM145 1264v114h107q22 0 22 -28v-113h-106q-9 0 -16 9t-7 18z
" />
    <glyph glyph-name="Idotaccent" unicode="&#x130;" horiz-adv-x="466" 
d="M174 70v1372q5 0 13 -0.5t28.5 -5.5t36 -13.5t28.5 -27t13 -43.5v-1372q-5 0 -13 0.5t-28.5 5.5t-36 13.5t-28.5 27t-13 43.5zM170 1645v114h106q23 0 23 -28v-113h-106q-9 0 -16 9t-7 18z" />
    <glyph glyph-name="dotlessi" unicode="&#x131;" horiz-adv-x="419" 
d="M154 66v938q9 0 22 -2t36 -9.5t38.5 -27.5t15.5 -50v-938q-5 0 -12.5 0.5t-26.5 5.5t-34 13.5t-27 26.5t-12 43z" />
    <glyph glyph-name="Jcircumflex" unicode="&#x134;" horiz-adv-x="446" 
d="M272 1348v-1442q0 -144 -46 -229t-128 -85q-45 0 -82 37q36 0 64 30.5t43.5 80t23 104.5t7.5 113v1485q10 0 25 -2.5t38.5 -11t39 -29.5t15.5 -51zM49 1782l166 137l166 -137q80 -66 75.5 -137t-91.5 -117q12 24 12 49q0 24 -16.5 54.5t-40.5 57t-48 50t-41 37.5l-16 14
q-7 -5 -17.5 -14.5t-38.5 -36t-49 -51.5t-38.5 -56t-17.5 -55q0 -25 12 -49q-88 46 -92.5 117t75.5 137z" />
    <glyph glyph-name="jcircumflex" unicode="&#x135;" horiz-adv-x="419" 
d="M266 936v-1147q0 -116 -46 -197t-120 -81q-37 0 -73 32q33 0 59 30t40 78t21 100t7 104v1171q5 0 12.5 -0.5t26.5 -5.5t34 -13.5t27 -27t12 -43.5zM45 1405l166 137l166 -137q80 -66 75.5 -137t-92.5 -117q13 26 13 49q0 24 -16.5 54.5t-40.5 57t-48 50t-40 37.5l-17 14
q-7 -5 -17.5 -14.5t-38.5 -36t-49.5 -51.5t-39 -56t-17.5 -55q0 -25 12 -49q-87 46 -91.5 117t75.5 137z" />
    <glyph glyph-name="Kcommaaccent" unicode="&#x136;" horiz-adv-x="1175" 
d="M293 737v-757q-5 0 -13 0.5t-28.5 5.5t-36 13.5t-28.5 27t-13 43.5v1372q5 0 13 -0.5t28.5 -5.5t36 -13.5t28.5 -27t13 -43.5v-533q95 4 172.5 27t138 62t118 105t105 139.5t105.5 182.5q60 111 168 111q26 0 26 -2q-19 -29 -54.5 -95.5t-68 -129.5t-83.5 -139
t-104 -134.5t-126 -104.5t-151 -61q77 -8 153.5 -60t135.5 -123t118.5 -165.5t99 -173.5t81 -161.5t61.5 -114.5q-28 -7 -49 -7q-48 0 -82.5 26.5t-67.5 90.5q-8 16 -25 48q-47 91 -71.5 136t-70.5 120.5t-79 114t-85.5 89t-103 75t-118 43t-143.5 19.5zM588 -74h59
q49 0 58.5 -11.5t9.5 -61.5v-70q0 -223 -109 -223q-39 0 -71 18q35 7 53 43.5t17.5 75.5t-1.5 72z" />
    <glyph glyph-name="kcommaaccent" unicode="&#x137;" horiz-adv-x="942" 
d="M455 594q88 -16 160.5 -62t117 -103.5t81 -126.5t56 -127t39 -110t33.5 -71q-35 -8 -53 -8q-41 0 -69 28.5t-46.5 75t-38.5 103t-54.5 114.5t-82.5 106.5t-133.5 82t-198.5 39.5v-549q-5 0 -12.5 0.5t-26.5 5.5t-34 13.5t-27 27t-12 43.5v1446q5 0 12.5 -0.5t26.5 -5.5
t34 -13.5t27 -27t12 -43.5v-795h29q74 0 129 17.5t101.5 59.5t82.5 94t84 140q11 20 16.5 27.5t22.5 22.5t46 21.5t71 6.5l20 -2q-12 -19 -40 -69t-52.5 -91.5t-62.5 -94t-74.5 -88.5t-85.5 -61.5t-98 -25.5zM467 -74h59q49 0 58.5 -11.5t9.5 -61.5v-70q0 -223 -109 -223
q-39 0 -71 18q35 7 53 43.5t17.5 75.5t-1.5 72z" />
    <glyph glyph-name="Lacute" unicode="&#x139;" horiz-adv-x="991" 
d="M883 0h-561q-6 0 -16 0.5t-35.5 5.5t-45 13.5t-35.5 27t-16 43.5v1352q5 0 13 -0.5t28.5 -5.5t36 -13.5t28.5 -27t13 -43.5v-1241h536q54 0 91.5 5t47.5 10l11 5q0 -39 -27 -85t-69 -46zM381 1913q54 -32 78.5 -58.5t25.5 -62.5t-36.5 -81t-114.5 -107l-99 -78
q-28 3 -50.5 14.5t-30 28.5t15.5 39l141 133q43 43 62.5 82.5t7.5 89.5z" />
    <glyph glyph-name="lacute" unicode="&#x13a;" horiz-adv-x="419" 
d="M143 276v1246q9 0 22 -2t36.5 -9.5t39 -28t15.5 -50.5v-1102q0 -84 12.5 -150t43 -110.5t77.5 -44.5q-3 -4 -9 -10.5t-26.5 -17.5t-44.5 -11q-83 0 -124.5 79.5t-41.5 210.5zM346 1974q54 -32 78.5 -58.5t25.5 -62.5t-36.5 -81t-114.5 -107l-98 -78q-28 3 -51 14.5
t-30.5 28.5t15.5 39l141 133q43 43 62.5 82.5t7.5 89.5z" />
    <glyph glyph-name="Lcommaaccent" unicode="&#x13b;" horiz-adv-x="991" 
d="M883 0h-561q-6 0 -16 0.5t-35.5 5.5t-45 13.5t-35.5 27t-16 43.5v1352q5 0 13 -0.5t28.5 -5.5t36 -13.5t28.5 -27t13 -43.5v-1241h536q54 0 91.5 5t47.5 10l11 5q0 -39 -27 -85t-69 -46zM518 -74h60q49 0 58 -11.5t9 -61.5v-70q0 -223 -108 -223q-40 0 -72 18
q35 7 53.5 43.5t18 75.5t-1.5 72z" />
    <glyph glyph-name="lcommaaccent" unicode="&#x13c;" horiz-adv-x="419" 
d="M143 276v1246q9 0 22 -2t36.5 -9.5t39 -28t15.5 -50.5v-1102q0 -84 12.5 -150t43 -110.5t77.5 -44.5q-3 -4 -9 -10.5t-26.5 -17.5t-44.5 -11q-83 0 -124.5 79.5t-41.5 210.5zM201 -74h59q49 0 58.5 -11.5t9.5 -61.5v-70q0 -223 -109 -223q-40 0 -72 18q35 7 53.5 43.5
t18 75.5t-1.5 72z" />
    <glyph glyph-name="Lcaron" unicode="&#x13d;" horiz-adv-x="991" 
d="M559 1421h59q49 0 58.5 -11.5t9.5 -61.5v-70q0 -223 -108 -223q-40 0 -72 18q35 7 53 43.5t17.5 75.5t-1.5 72zM883 0h-561q-6 0 -16 0.5t-35.5 5.5t-45 13.5t-35.5 27t-16 43.5v1352q5 0 13 -0.5t28.5 -5.5t36 -13.5t28.5 -27t13 -43.5v-1241h536q54 0 91.5 5t47.5 10
l11 5q0 -39 -27 -85t-69 -46z" />
    <glyph glyph-name="lcaron" unicode="&#x13e;" horiz-adv-x="595" 
d="M424 1421h59q49 0 58.5 -11.5t9.5 -61.5v-70q0 -223 -109 -223q-39 0 -71 18q35 7 53 43.5t17.5 75.5t-1.5 72zM143 276v1246q9 0 22 -2t36.5 -9.5t39 -28t15.5 -50.5v-1102q0 -84 12.5 -150t43 -110.5t77.5 -44.5q-3 -4 -9 -10.5t-26.5 -17.5t-44.5 -11
q-83 0 -124.5 79.5t-41.5 210.5z" />
    <glyph glyph-name="Lslash" unicode="&#x141;" horiz-adv-x="991" 
d="M883 0h-561q-6 0 -16 0.5t-35.5 5.5t-45 13.5t-35.5 27t-16 43.5v676l-125 -51q-12 17 -19.5 38.5t-3 47.5t30.5 37l117 47v557q5 0 13 -0.5t28.5 -5.5t36 -13.5t28.5 -27t13 -43.5v-418l110 45q10 -17 17.5 -37.5t3 -48.5t-32.5 -39l-98 -41v-702h536q54 0 91.5 5
t47.5 10l11 5q0 -39 -27 -85t-69 -46z" />
    <glyph glyph-name="lslash" unicode="&#x142;" horiz-adv-x="419" 
d="M143 276v494l-125 -51q-12 17 -19.5 38.5t-2.5 47.5t31 37l116 47v633q9 0 22 -2t36.5 -9.5t39 -28t15.5 -50.5v-496l117 47q10 -17 17.5 -38t2.5 -48.5t-33 -38.5l-104 -43v-485q0 -84 12.5 -150t43 -110.5t77.5 -44.5q-3 -4 -9 -10.5t-26.5 -17.5t-44.5 -11
q-83 0 -124.5 79.5t-41.5 210.5z" />
    <glyph glyph-name="Nacute" unicode="&#x143;" horiz-adv-x="1415" 
d="M399 1323l660 -1067l80 -141q-17 100 -17 145v1161q5 0 13 -0.5t28.5 -5.5t36 -13.5t28.5 -27t13 -43.5v-1351q-48 0 -88.5 13t-65 31.5t-42 37t-24.5 31.5l-7 13l-738 1186q17 -88 17 -170v-1142q-5 0 -13 0.5t-28.5 5.5t-36 13.5t-28.5 27t-13 43.5v1351q37 0 55 -0.5
t47 -5.5t46.5 -15t38.5 -29t38 -48zM858 1913q54 -32 78.5 -58.5t25.5 -62.5t-36.5 -81t-114.5 -107l-99 -78q-28 3 -50.5 14.5t-30 28.5t15.5 39l141 133q43 43 62.5 82.5t7.5 89.5z" />
    <glyph glyph-name="nacute" unicode="&#x144;" horiz-adv-x="1077" 
d="M811 76v635q0 106 -63.5 160.5t-208.5 54.5q-76 0 -144.5 -12t-98.5 -24l-30 -13v-891q-5 0 -12.5 0.5t-26.5 5.5t-34 13.5t-27 27t-12 43.5v944q57 -29 92 -29q48 0 151 22.5t170 22.5q55 0 104 -8.5t96.5 -29.5t81.5 -53.5t54.5 -84.5t20.5 -119v-755q-5 0 -12.5 0.5
t-27 5.5t-34.5 13.5t-27 27t-12 43.5zM678 1536q54 -32 78.5 -58.5t25.5 -62.5t-36.5 -81t-114.5 -107l-99 -78q-28 3 -50.5 14.5t-30 28.5t15.5 39l141 133q43 43 62.5 82.5t7.5 89.5z" />
    <glyph glyph-name="Ncommaaccent" unicode="&#x145;" horiz-adv-x="1415" 
d="M399 1323l660 -1067l80 -141q-17 100 -17 145v1161q5 0 13 -0.5t28.5 -5.5t36 -13.5t28.5 -27t13 -43.5v-1351q-48 0 -88.5 13t-65 31.5t-42 37t-24.5 31.5l-7 13l-738 1186q17 -88 17 -170v-1142q-5 0 -13 0.5t-28.5 5.5t-36 13.5t-28.5 27t-13 43.5v1351q37 0 55 -0.5
t47 -5.5t46.5 -15t38.5 -29t38 -48zM649 -74h60q49 0 58 -11.5t9 -61.5v-70q0 -223 -108 -223q-40 0 -72 18q35 7 53.5 43.5t18 75.5t-1.5 72z" />
    <glyph glyph-name="ncommaaccent" unicode="&#x146;" horiz-adv-x="1077" 
d="M811 76v635q0 106 -63.5 160.5t-208.5 54.5q-76 0 -144.5 -12t-98.5 -24l-30 -13v-891q-5 0 -12.5 0.5t-26.5 5.5t-34 13.5t-27 27t-12 43.5v944q57 -29 92 -29q48 0 151 22.5t170 22.5q55 0 104 -8.5t96.5 -29.5t81.5 -53.5t54.5 -84.5t20.5 -119v-755q-5 0 -12.5 0.5
t-27 5.5t-34.5 13.5t-27 27t-12 43.5zM489 -74h60q49 0 58 -11.5t9 -61.5v-70q0 -223 -108 -223q-40 0 -72 18q35 7 53.5 43.5t18 75.5t-1.5 72z" />
    <glyph glyph-name="Ncaron" unicode="&#x147;" horiz-adv-x="1415" 
d="M399 1323l660 -1067l80 -141q-17 100 -17 145v1161q5 0 13 -0.5t28.5 -5.5t36 -13.5t28.5 -27t13 -43.5v-1351q-48 0 -88.5 13t-65 31.5t-42 37t-24.5 31.5l-7 13l-738 1186q17 -88 17 -170v-1142q-5 0 -13 0.5t-28.5 5.5t-36 13.5t-28.5 27t-13 43.5v1351q37 0 55 -0.5
t47 -5.5t46.5 -15t38.5 -29t38 -48zM563 1952q-7 -16 -9 -31.5t-1.5 -29t7.5 -29.5t12 -27t18.5 -27.5t20.5 -25t24.5 -25.5t24.5 -23t27.5 -23.5t25.5 -22.5q7 6 28 24.5t32 28.5t30 29.5t29 33t21.5 33.5t15 37t3 37.5t-9.5 40.5q57 -20 79 -65t5.5 -96.5t-65.5 -92.5
l-150 -125h-37l-149 123q-51 42 -70 91t3 94t85 71z" />
    <glyph glyph-name="ncaron" unicode="&#x148;" horiz-adv-x="1077" 
d="M811 76v635q0 106 -63.5 160.5t-208.5 54.5q-76 0 -144.5 -12t-98.5 -24l-30 -13v-891q-5 0 -12.5 0.5t-26.5 5.5t-34 13.5t-27 27t-12 43.5v944q57 -29 92 -29q48 0 151 22.5t170 22.5q55 0 104 -8.5t96.5 -29.5t81.5 -53.5t54.5 -84.5t20.5 -119v-755q-5 0 -12.5 0.5
t-27 5.5t-34.5 13.5t-27 27t-12 43.5zM395 1542q-7 -16 -9 -31.5t-1.5 -29t7.5 -29.5t12 -27t18.5 -27.5t20.5 -25t24.5 -25.5t24.5 -23t27.5 -23.5t25.5 -22.5q7 6 28 24.5t32 28.5t30 29.5t29 33t21.5 33.5t15 37t3 37.5t-9.5 40.5q57 -20 79 -65t5.5 -96.5t-65.5 -92.5
l-150 -125h-37l-149 123q-51 42 -70 91t3 94t85 71z" />
    <glyph glyph-name="Omacron" unicode="&#x14c;" 
d="M1233 1004v-586q0 -214 -134.5 -328.5t-404.5 -114.5q-273 0 -406.5 114.5t-133.5 328.5v586q0 212 134 327t406 115q270 0 404.5 -115t134.5 -327zM1114 444v533q0 68 -10 119t-37.5 98t-74 76.5t-122 47t-178.5 17.5t-178 -17.5t-121 -47t-73.5 -76.5t-37.5 -98
t-10 -119v-533q0 -68 10 -119.5t37.5 -98t73.5 -76t121 -47t178 -17.5t178.5 17.5t122 47t74 76t37.5 98t10 119.5zM473 1718h493q16 -104 -51 -104h-491q-5 20 -5 43.5t14 42t40 18.5z" />
    <glyph glyph-name="omacron" unicode="&#x14d;" horiz-adv-x="1099" 
d="M967 719v-426q0 -154 -103.5 -236t-312.5 -82q-210 0 -314 82t-104 236v426q0 152 104 234.5t314 82.5q208 0 312 -82.5t104 -234.5zM854 324v364q0 61 -12 102.5t-44.5 75t-93 49t-153.5 15.5t-154.5 -15.5t-93.5 -49t-44.5 -75t-12.5 -102.5v-364q0 -62 12.5 -104
t44.5 -75t93.5 -49t154.5 -16t153.5 16t93 49t44.5 75t12 104zM330 1341h493q16 -104 -51 -104h-491q-5 20 -5 43.5t14 42t40 18.5z" />
    <glyph glyph-name="Ohungarumlaut" unicode="&#x150;" 
d="M1233 1004v-586q0 -214 -134.5 -328.5t-404.5 -114.5q-273 0 -406.5 114.5t-133.5 328.5v586q0 212 134 327t406 115q270 0 404.5 -115t134.5 -327zM1114 444v533q0 68 -10 119t-37.5 98t-74 76.5t-122 47t-178.5 17.5t-178 -17.5t-121 -47t-73.5 -76.5t-37.5 -98
t-10 -119v-533q0 -68 10 -119.5t37.5 -98t73.5 -76t121 -47t178 -17.5t178.5 17.5t122 47t74 76t37.5 98t10 119.5zM893 1913q54 -31 77.5 -57.5t22.5 -62.5t-39 -80.5t-116 -106.5l-99 -78q-28 3 -48.5 14t-26 27.5t17.5 38.5l141 133q43 43 62.5 82.5t7.5 89.5zM596 1913
q62 -36 85 -69t5.5 -78t-86.5 -103l-98 -82q-28 3 -48 12.5t-25.5 26t18.5 37.5l79 84q43 43 62.5 82.5t7.5 89.5z" />
    <glyph glyph-name="ohungarumlaut" unicode="&#x151;" horiz-adv-x="1099" 
d="M967 719v-426q0 -154 -103.5 -236t-312.5 -82q-210 0 -314 82t-104 236v426q0 152 104 234.5t314 82.5q208 0 312 -82.5t104 -234.5zM854 324v364q0 61 -12 102.5t-44.5 75t-93 49t-153.5 15.5t-154.5 -15.5t-93.5 -49t-44.5 -75t-12.5 -102.5v-364q0 -62 12.5 -104
t44.5 -75t93.5 -49t154.5 -16t153.5 16t93 49t44.5 75t12 104zM750 1536q53 -31 77 -58t22.5 -62.5t-39.5 -80t-116 -106.5l-98 -78q-28 3 -48.5 14t-26 27.5t17.5 38.5l141 133q43 43 62.5 82.5t7.5 89.5zM453 1536q62 -36 85 -69t5.5 -78t-86.5 -103l-99 -82
q-28 3 -48 12.5t-25.5 26t18.5 37.5l80 84q43 43 62.5 82.5t7.5 89.5z" />
    <glyph glyph-name="OE" unicode="&#x152;" horiz-adv-x="1622" 
d="M694 1421h826q0 -4 -0.5 -11.5t-4.5 -26.5t-11 -33.5t-23 -26.5t-37 -12h-555v-473h399q54 0 91.5 7t48.5 14l10 7q0 -19 -5.5 -39.5t-19 -44.5t-43 -39.5t-70.5 -15.5h-411v-616h631q0 -9 -1.5 -21t-7.5 -35.5t-23.5 -39t-43.5 -15.5h-823q-240 15 -353.5 138
t-113.5 362v420q0 254 131.5 377.5t408.5 123.5zM272 526q0 -113 16.5 -185.5t62 -128.5t128.5 -81t213 -25h78v1209h-78q-104 0 -178 -17.5t-121 -49.5t-74 -86t-37 -117t-10 -152v-367z" />
    <glyph glyph-name="oe" unicode="&#x153;" horiz-adv-x="1738" 
d="M1579 311q47 -66 47 -131q0 -67 -59.5 -115t-144.5 -69t-181 -21q-247 0 -330 146q-80 -146 -360 -146q-210 0 -314 82t-104 236v426q0 152 104 234.5t314 82.5q280 0 358 -143q73 143 322 143q181 0 283 -81t102 -216q0 -130 -96 -208t-299 -78q-59 0 -122.5 13.5
t-97.5 26.5l-34 13v-182q0 -121 61.5 -179.5t212.5 -58.5q147 0 242.5 58t95.5 167zM854 301v387q0 61 -12 102.5t-44.5 75t-93 49t-153.5 15.5t-154.5 -15.5t-93.5 -49t-44.5 -75t-12.5 -102.5v-364q0 -62 12.5 -104t44.5 -75t93.5 -49t154.5 -16q88 0 147.5 14t92.5 44
t47 68.5t16 94.5zM967 688v-78q0 -3 39 -14.5t99 -22t105 -10.5q156 0 224.5 45t68.5 131q0 191 -268 191q-80 0 -133.5 -16t-82.5 -48.5t-40.5 -75t-11.5 -102.5z" />
    <glyph glyph-name="Racute" unicode="&#x154;" horiz-adv-x="1120" 
d="M1028 1085v-61q0 -178 -119.5 -266t-318.5 -80q84 -26 158.5 -93.5t128.5 -154.5t94.5 -168.5t77.5 -164t57 -113.5q-75 -10 -112.5 9.5t-78.5 98.5q-113 221 -148 279q-96 158 -207 226q-108 67 -267 79v-696q-5 0 -13 0.5t-28.5 6t-36 14t-28.5 26.5t-13 43v1351h397
q103 0 183.5 -18t143.5 -56.5t96.5 -104.5t33.5 -157zM571 1311h-278v-535h295q172 0 246.5 70t74.5 209q0 133 -83 194.5t-255 61.5zM721 1913q54 -32 78.5 -58.5t25.5 -62.5t-36.5 -81t-114.5 -107l-99 -78q-28 3 -50.5 14.5t-30 28.5t15.5 39l141 133q43 43 62.5 82.5
t7.5 89.5z" />
    <glyph glyph-name="racute" unicode="&#x155;" horiz-adv-x="739" 
d="M700 788q-5 127 -202 127q-154 0 -232 -43v-886q-5 0 -12.5 0.5t-26.5 5.5t-34 13.5t-27 27t-12 43.5v944q59 -29 98 -29t137 22.5t154 22.5q127 0 169.5 -66t-12.5 -182zM526 1536q54 -32 78.5 -58.5t25.5 -62.5t-36.5 -81t-114.5 -107l-98 -78q-28 3 -51 14.5
t-30.5 28.5t15.5 39l142 133q43 43 62 82.5t7 89.5z" />
    <glyph glyph-name="Rcommaaccent" unicode="&#x156;" horiz-adv-x="1120" 
d="M1028 1085v-61q0 -178 -119.5 -266t-318.5 -80q84 -26 158.5 -93.5t128.5 -154.5t94.5 -168.5t77.5 -164t57 -113.5q-75 -10 -112.5 9.5t-78.5 98.5q-113 221 -148 279q-96 158 -207 226q-108 67 -267 79v-696q-5 0 -13 0.5t-28.5 6t-36 14t-28.5 26.5t-13 43v1351h397
q103 0 183.5 -18t143.5 -56.5t96.5 -104.5t33.5 -157zM571 1311h-278v-535h295q172 0 246.5 70t74.5 209q0 133 -83 194.5t-255 61.5zM559 -74h59q49 0 58.5 -11.5t9.5 -61.5v-70q0 -223 -108 -223q-40 0 -72 18q35 7 53 43.5t17.5 75.5t-1.5 72z" />
    <glyph glyph-name="rcommaaccent" unicode="&#x157;" horiz-adv-x="739" 
d="M700 788q-5 127 -202 127q-154 0 -232 -43v-886q-5 0 -12.5 0.5t-26.5 5.5t-34 13.5t-27 27t-12 43.5v944q59 -29 98 -29t137 22.5t154 22.5q127 0 169.5 -66t-12.5 -182zM164 -74h59q49 0 58.5 -11.5t9.5 -61.5v-70q0 -223 -109 -223q-39 0 -71 18q35 7 53 43.5
t17.5 75.5t-1.5 72z" />
    <glyph glyph-name="Rcaron" unicode="&#x158;" horiz-adv-x="1120" 
d="M1028 1085v-61q0 -178 -119.5 -266t-318.5 -80q84 -26 158.5 -93.5t128.5 -154.5t94.5 -168.5t77.5 -164t57 -113.5q-75 -10 -112.5 9.5t-78.5 98.5q-113 221 -148 279q-96 158 -207 226q-108 67 -267 79v-696q-5 0 -13 0.5t-28.5 6t-36 14t-28.5 26.5t-13 43v1351h397
q103 0 183.5 -18t143.5 -56.5t96.5 -104.5t33.5 -157zM571 1311h-278v-535h295q172 0 246.5 70t74.5 209q0 133 -83 194.5t-255 61.5zM417 1952q-7 -16 -9 -31.5t-1.5 -29t7.5 -29.5t12 -27t18.5 -27.5t20.5 -25t24.5 -25.5t24.5 -23t27.5 -23.5t25.5 -22.5q7 6 28 24.5
t32 28.5t30 29.5t29 33t21.5 33.5t15 37t3 37.5t-9.5 40.5q57 -20 79 -65t5.5 -96.5t-65.5 -92.5l-150 -125h-37l-149 123q-51 42 -70 91t3 94t85 71z" />
    <glyph glyph-name="rcaron" unicode="&#x159;" horiz-adv-x="739" 
d="M700 788q-5 127 -202 127q-154 0 -232 -43v-886q-5 0 -12.5 0.5t-26.5 5.5t-34 13.5t-27 27t-12 43.5v944q59 -29 98 -29t137 22.5t154 22.5q127 0 169.5 -66t-12.5 -182zM293 1542q-35 -84 57 -180q19 -20 92 -84q7 6 28 24.5t32 28.5t30 29t29 33t22 34t15.5 37t3 37.5
t-9.5 40.5q57 -20 79 -65t5 -96.5t-66 -92.5l-149 -125h-37l-150 123q-51 42 -70 91t3.5 94t85.5 71z" />
    <glyph glyph-name="Sacute" unicode="&#x15a;" horiz-adv-x="1267" 
d="M113 1049q0 89 28.5 159t77 114.5t117.5 73.5t144 40.5t163 11.5t165 -11t148 -36t112.5 -73.5t41.5 -115.5q0 -63 -37 -147q0 62 -25 109.5t-66.5 77t-100.5 48.5t-120 26t-132 7q-86 0 -153.5 -13t-123.5 -43t-86 -85t-30 -133q0 -66 31.5 -112.5t84.5 -71.5t122 -41
t145.5 -28t152.5 -26.5t145 -41.5t122 -67t84.5 -110t31.5 -164q0 -208 -141 -315t-379 -107q-86 0 -168.5 13.5t-157 40t-120.5 75t-46 111.5q0 68 33 150q0 -75 39.5 -130t108.5 -85.5t149 -45t174 -14.5q189 0 287 80t98 221q0 74 -31.5 126.5t-84.5 82t-122 49.5
t-145.5 33t-152.5 27t-145 37.5t-122 59t-84.5 97.5t-31.5 146zM772 1913q54 -32 78.5 -58.5t25.5 -62.5t-36.5 -81t-114.5 -107l-99 -78q-28 3 -50.5 14.5t-30 28.5t15.5 39l141 133q43 43 62.5 82.5t7.5 89.5z" />
    <glyph glyph-name="sacute" unicode="&#x15b;" horiz-adv-x="956" 
d="M752 287q0 52 -22 87t-60 52t-87 26.5t-103 14t-108.5 10.5t-104 21t-88 40.5t-62 72.5t-25.5 114q0 154 95.5 232.5t281.5 78.5q72 0 133.5 -10.5t113 -32.5t81.5 -61.5t30 -91.5q0 -64 -49 -152q2 10 2 33q0 98 -75 153.5t-236 55.5q-144 0 -204 -49t-60 -146
q0 -60 36.5 -93.5t94.5 -45t128 -17t140.5 -17.5t128.5 -38.5t94.5 -89t36.5 -158.5q0 -136 -102 -218.5t-293 -82.5q-72 0 -134 9.5t-118 32t-88.5 64.5t-32.5 101q0 51 31 127q0 -103 84.5 -165t257.5 -62q283 0 283 205zM618 1536q54 -32 78.5 -58.5t25.5 -62.5
t-36.5 -81t-114.5 -107l-98 -78q-28 3 -50.5 14.5t-30 28.5t15.5 39l141 133q43 43 62 82.5t7 89.5z" />
    <glyph glyph-name="Scircumflex" unicode="&#x15c;" horiz-adv-x="1267" 
d="M113 1049q0 89 28.5 159t77 114.5t117.5 73.5t144 40.5t163 11.5t165 -11t148 -36t112.5 -73.5t41.5 -115.5q0 -63 -37 -147q0 62 -25 109.5t-66.5 77t-100.5 48.5t-120 26t-132 7q-86 0 -153.5 -13t-123.5 -43t-86 -85t-30 -133q0 -66 31.5 -112.5t84.5 -71.5t122 -41
t145.5 -28t152.5 -26.5t145 -41.5t122 -67t84.5 -110t31.5 -164q0 -208 -141 -315t-379 -107q-86 0 -168.5 13.5t-157 40t-120.5 75t-46 111.5q0 68 33 150q0 -75 39.5 -130t108.5 -85.5t149 -45t174 -14.5q189 0 287 80t98 221q0 74 -31.5 126.5t-84.5 82t-122 49.5
t-145.5 33t-152.5 27t-145 37.5t-122 59t-84.5 97.5t-31.5 146zM456 1782l166 137l166 -137q80 -66 75.5 -137t-91.5 -117q12 24 12 49q0 24 -16.5 54.5t-40.5 57t-48 50t-41 37.5l-16 14q-7 -5 -17.5 -14.5t-38.5 -36t-49 -51.5t-38.5 -56t-17.5 -55q0 -25 12 -49
q-88 46 -92.5 117t75.5 137z" />
    <glyph glyph-name="scircumflex" unicode="&#x15d;" horiz-adv-x="956" 
d="M752 287q0 52 -22 87t-60 52t-87 26.5t-103 14t-108.5 10.5t-104 21t-88 40.5t-62 72.5t-25.5 114q0 154 95.5 232.5t281.5 78.5q72 0 133.5 -10.5t113 -32.5t81.5 -61.5t30 -91.5q0 -64 -49 -152q2 10 2 33q0 98 -75 153.5t-236 55.5q-144 0 -204 -49t-60 -146
q0 -60 36.5 -93.5t94.5 -45t128 -17t140.5 -17.5t128.5 -38.5t94.5 -89t36.5 -158.5q0 -136 -102 -218.5t-293 -82.5q-72 0 -134 9.5t-118 32t-88.5 64.5t-32.5 101q0 51 31 127q0 -103 84.5 -165t257.5 -62q283 0 283 205zM303 1405l166 137l166 -137q80 -66 75.5 -137
t-92.5 -117q13 26 13 49q0 24 -16.5 54.5t-40.5 57t-48 50t-40 37.5l-17 14q-7 -5 -17.5 -14.5t-38.5 -36t-49.5 -51.5t-39 -56t-17.5 -55q0 -25 12 -49q-87 46 -91.5 117t75.5 137z" />
    <glyph glyph-name="Scedilla" unicode="&#x15e;" horiz-adv-x="1267" 
d="M528 -227q1 5 7 30l49 174q-82 3 -156.5 18t-140 42t-105 73t-39.5 105q0 68 33 150q0 -75 39.5 -130t108.5 -85.5t149 -45t174 -14.5q189 0 287 80t98 221q0 74 -31.5 126.5t-84.5 82t-122 49.5t-145.5 33t-152.5 27t-145 37.5t-122 59t-84.5 97.5t-31.5 146
q0 89 28.5 159t77 114.5t117.5 73.5t144 40.5t163 11.5t165 -11t148 -36t112.5 -73.5t41.5 -115.5q0 -63 -37 -147q0 62 -25 109.5t-66.5 77t-100.5 48.5t-120 26t-132 7q-86 0 -153.5 -13t-123.5 -43t-86 -85t-30 -133q0 -66 31.5 -112.5t84.5 -71.5t122 -41t145.5 -28
t152.5 -26.5t145 -41.5t122 -67t84.5 -110t31.5 -164q0 -199 -130.5 -305.5t-352.5 -114.5v-10l-23 -88q94 0 153.5 -47.5t59.5 -138.5q0 -83 -59.5 -129.5t-145.5 -46.5q-21 0 -41 4t-42.5 14t-36 31.5t-13.5 52.5q50 -20 97 -20q56 0 95.5 23t39.5 75q0 46 -37.5 70
t-91.5 24q-24 0 -49 -4.5t-38 -8.5z" />
    <glyph glyph-name="scedilla" unicode="&#x15f;" horiz-adv-x="956" 
d="M362 -227q1 5 7 30l49 174q-52 3 -96 10t-87 22.5t-73 37.5t-48 56.5t-18 78.5q0 51 31 127q0 -103 84.5 -165t257.5 -62q283 0 283 205q0 52 -22 87t-60 52t-87 26.5t-103 14t-108.5 10.5t-104 21t-88 40.5t-62 72.5t-25.5 114q0 154 95.5 232.5t281.5 78.5
q72 0 133.5 -10.5t113 -32.5t81.5 -61.5t30 -91.5q0 -64 -49 -152q2 10 2 33q0 98 -75 153.5t-236 55.5q-144 0 -204 -49t-60 -146q0 -60 36.5 -93.5t94.5 -45t128 -17t140.5 -17.5t128.5 -38.5t94.5 -89t36.5 -158.5q0 -130 -92 -211t-266 -88v-10l-23 -88
q94 0 153.5 -47.5t59.5 -138.5q0 -83 -59 -129.5t-145 -46.5q-21 0 -41.5 4t-43 14t-36 31.5t-13.5 52.5q50 -20 97 -20q56 0 95.5 23t39.5 75q0 46 -37.5 70t-91.5 24q-24 0 -49 -4.5t-38 -8.5z" />
    <glyph glyph-name="Scaron" unicode="&#x160;" horiz-adv-x="1267" 
d="M113 1049q0 89 28.5 159t77 114.5t117.5 73.5t144 40.5t163 11.5t165 -11t148 -36t112.5 -73.5t41.5 -115.5q0 -63 -37 -147q0 62 -25 109.5t-66.5 77t-100.5 48.5t-120 26t-132 7q-86 0 -153.5 -13t-123.5 -43t-86 -85t-30 -133q0 -66 31.5 -112.5t84.5 -71.5t122 -41
t145.5 -28t152.5 -26.5t145 -41.5t122 -67t84.5 -110t31.5 -164q0 -208 -141 -315t-379 -107q-86 0 -168.5 13.5t-157 40t-120.5 75t-46 111.5q0 68 33 150q0 -75 39.5 -130t108.5 -85.5t149 -45t174 -14.5q189 0 287 80t98 221q0 74 -31.5 126.5t-84.5 82t-122 49.5
t-145.5 33t-152.5 27t-145 37.5t-122 59t-84.5 97.5t-31.5 146zM477 1952q-7 -16 -9 -31.5t-1.5 -29t7.5 -29.5t12 -27t18.5 -27.5t20.5 -25t24.5 -25.5t24.5 -23t27.5 -23.5t25.5 -22.5q7 6 28 24.5t32 28.5t30 29.5t29 33t21.5 33.5t15 37t3 37.5t-9.5 40.5q57 -20 79 -65
t5.5 -96.5t-65.5 -92.5l-150 -125h-37l-149 123q-51 42 -70 91t3 94t85 71z" />
    <glyph glyph-name="scaron" unicode="&#x161;" horiz-adv-x="956" 
d="M752 287q0 52 -22 87t-60 52t-87 26.5t-103 14t-108.5 10.5t-104 21t-88 40.5t-62 72.5t-25.5 114q0 154 95.5 232.5t281.5 78.5q72 0 133.5 -10.5t113 -32.5t81.5 -61.5t30 -91.5q0 -64 -49 -152q2 10 2 33q0 98 -75 153.5t-236 55.5q-144 0 -204 -49t-60 -146
q0 -60 36.5 -93.5t94.5 -45t128 -17t140.5 -17.5t128.5 -38.5t94.5 -89t36.5 -158.5q0 -136 -102 -218.5t-293 -82.5q-72 0 -134 9.5t-118 32t-88.5 64.5t-32.5 101q0 51 31 127q0 -103 84.5 -165t257.5 -62q283 0 283 205zM336 1542q-35 -84 57 -180q19 -20 92 -84
q7 6 28 24.5t32 28.5t30 29t29 33t22 34t15.5 37t3 37.5t-9.5 40.5q57 -20 79 -65t5 -96.5t-66 -92.5l-149 -125h-37l-150 123q-51 42 -70 91t3.5 94t85.5 71z" />
    <glyph glyph-name="Tcommaaccent" unicode="&#x162;" horiz-adv-x="1087" 
d="M428 -227q0 5 6 30l62 220q-15 22 -15 47v1241h-358q-36 0 -61.5 15.5t-37 39.5t-16 44.5t-4.5 39.5q2 -3 9.5 -8t46 -13t96.5 -8h778q58 0 95.5 7.5t45.5 14.5l8 7q0 -20 -4 -40t-15 -44t-36 -39.5t-61 -15.5h-367v-1331l-29 4v-17l-22 -88q94 0 153.5 -47.5
t59.5 -138.5q0 -83 -59.5 -129.5t-145.5 -46.5q-21 0 -41 4t-42.5 14t-36 31.5t-13.5 52.5q50 -20 96 -20q56 0 95.5 23t39.5 75q0 46 -37.5 70t-91.5 24q-24 0 -48.5 -4.5t-37.5 -8.5z" />
    <glyph glyph-name="tcommaaccent" unicode="&#x163;" horiz-adv-x="819" 
d="M373 -227q0 5 6 30l49 181q-123 20 -198.5 97t-75.5 202v997q5 0 12.5 -0.5t26.5 -6t34 -14t27 -26.5t12 -43v-203h428q0 -4 -0.5 -11.5t-5 -26.5t-11.5 -33.5t-22.5 -26.5t-36.5 -12h-352v-543q0 -117 63.5 -182.5t184.5 -65.5q102 0 175 58.5t73 150.5q37 -67 37 -123
q0 -94 -82.5 -144.5t-200.5 -52.5v-8l-22 -88q94 0 153.5 -47.5t59.5 -138.5q0 -83 -59.5 -129.5t-145.5 -46.5q-21 0 -41 4t-42.5 14t-36 31.5t-13.5 52.5q50 -20 96 -20q56 0 95.5 23t39.5 75q0 46 -37.5 70t-91.5 24q-24 0 -48.5 -4.5t-36.5 -8.5z" />
    <glyph glyph-name="Tcaron" unicode="&#x164;" horiz-adv-x="1087" 
d="M967 1311h-367v-1331q-5 0 -13 0.5t-28.5 5.5t-36 13.5t-28.5 27t-13 43.5v1241h-358q-36 0 -61.5 15.5t-37 39.5t-16 44.5t-4.5 39.5q2 -3 9.5 -8t46 -13t96.5 -8h778q58 0 95.5 7.5t45.5 14.5l8 7q0 -20 -4 -40t-15 -44t-36 -39.5t-61 -15.5zM401 1952q-7 -16 -9 -31.5
t-1.5 -29t7.5 -29.5t12 -27t18.5 -27.5t20.5 -25t24.5 -25.5t24.5 -23t27.5 -23.5t25.5 -22.5q7 6 28 24.5t32 28.5t30 29.5t29 33t21.5 33.5t15 37t3 37.5t-9.5 40.5q57 -20 79 -65t5.5 -96.5t-65.5 -92.5l-150 -125h-37l-149 123q-51 42 -70 91t3 94t85 71z" />
    <glyph glyph-name="tcaron" unicode="&#x165;" horiz-adv-x="894" 
d="M154 283v997q5 0 12.5 -0.5t26.5 -6t34 -14t27 -26.5t12 -43v-203h428q0 -4 -0.5 -11.5t-5 -26.5t-11.5 -33.5t-22.5 -26.5t-36.5 -12h-352v-543q0 -117 63.5 -182.5t184.5 -65.5q102 0 175 58.5t73 150.5q37 -67 37 -123q0 -94 -84 -145.5t-203 -51.5
q-155 0 -256.5 81.5t-101.5 226.5zM723 1421h59q49 0 58.5 -11.5t9.5 -61.5v-70q0 -223 -109 -223q-39 0 -71 18q35 7 53 43.5t17.5 75.5t-1.5 72z" />
    <glyph glyph-name="Umacron" unicode="&#x16a;" 
d="M1233 1354v-951q0 -102 -43.5 -185t-118.5 -135t-171.5 -80t-205.5 -28q-110 0 -206.5 28t-171.5 80t-118.5 135t-43.5 185v1041h6.5t16.5 -2t23.5 -5t25 -10t23.5 -16t16.5 -24t6.5 -33v-926q0 -158 116 -248t306 -90q188 0 304 90t116 248v1016q5 0 13 -0.5t28.5 -5.5
t36 -13.5t28.5 -27t13 -43.5zM473 1718h493q16 -104 -51 -104h-491q-5 20 -5 43.5t14 42t40 18.5z" />
    <glyph glyph-name="umacron" unicode="&#x16b;" horiz-adv-x="1077" 
d="M266 936v-625q0 -35 4.5 -62.5t21 -60.5t44.5 -55.5t80.5 -37.5t124.5 -15q76 0 143.5 13t97.5 25l29 13v895q5 0 12.5 -0.5t27 -5.5t34.5 -13.5t27 -27t12 -43.5v-946q-46 20 -111 20q-35 0 -132 -17.5t-149 -17.5q-69 0 -131 14.5t-120 46t-92.5 92t-34.5 142.5v756
q5 0 12.5 -0.5t26.5 -6t34 -14t27 -26.5t12 -43zM317 1341h494q16 -104 -51 -104h-492q-5 20 -5 43.5t14 42t40 18.5z" />
    <glyph glyph-name="Ubreve" unicode="&#x16c;" 
d="M1233 1354v-951q0 -102 -43.5 -185t-118.5 -135t-171.5 -80t-205.5 -28q-110 0 -206.5 28t-171.5 80t-118.5 135t-43.5 185v1041h6.5t16.5 -2t23.5 -5t25 -10t23.5 -16t16.5 -24t6.5 -33v-926q0 -158 116 -248t306 -90q188 0 304 90t116 248v1016q5 0 13 -0.5t28.5 -5.5
t36 -13.5t28.5 -27t13 -43.5zM694 1526q-129 0 -201 64.5t-72 152.5q0 53 26.5 96t82.5 54q-14 -35 -14 -74q0 -37 7 -66t24.5 -57t55 -43.5t91.5 -15.5q178 0 178 182q0 30 -14 74q54 -11 81 -54t27 -96q0 -89 -71.5 -153t-200.5 -64z" />
    <glyph glyph-name="ubreve" unicode="&#x16d;" horiz-adv-x="1077" 
d="M266 936v-625q0 -35 4.5 -62.5t21 -60.5t44.5 -55.5t80.5 -37.5t124.5 -15q76 0 143.5 13t97.5 25l29 13v895q5 0 12.5 -0.5t27 -5.5t34.5 -13.5t27 -27t12 -43.5v-946q-46 20 -111 20q-35 0 -132 -17.5t-149 -17.5q-69 0 -131 14.5t-120 46t-92.5 92t-34.5 142.5v756
q5 0 12.5 -0.5t26.5 -6t34 -14t27 -26.5t12 -43zM539 1149q-129 0 -201 64.5t-72 152.5q0 53 26.5 96t82.5 54q-15 -38 -15 -74q0 -37 7 -66t25 -57t55.5 -43.5t91.5 -15.5q178 0 178 182q0 27 -15 74q54 -11 81.5 -54t27.5 -96q0 -89 -71.5 -153t-200.5 -64z" />
    <glyph glyph-name="Uring" unicode="&#x16e;" 
d="M1233 1354v-951q0 -102 -43.5 -185t-118.5 -135t-171.5 -80t-205.5 -28q-110 0 -206.5 28t-171.5 80t-118.5 135t-43.5 185v1041h6.5t16.5 -2t23.5 -5t25 -10t23.5 -16t16.5 -24t6.5 -33v-926q0 -158 116 -248t306 -90q188 0 304 90t116 248v1016q5 0 13 -0.5t28.5 -5.5
t36 -13.5t28.5 -27t13 -43.5zM862 1778v-139q0 -53 -46 -82t-124 -29t-124 29t-46 82v139q0 52 46.5 82t123.5 30t123.5 -30t46.5 -82zM788 1669v80q0 37 -21 56.5t-75 19.5q-56 0 -76 -19t-20 -57v-80q0 -39 20 -57t76 -18q54 0 75 18.5t21 56.5z" />
    <glyph glyph-name="uring" unicode="&#x16f;" horiz-adv-x="1077" 
d="M266 936v-625q0 -35 4.5 -62.5t21 -60.5t44.5 -55.5t80.5 -37.5t124.5 -15q76 0 143.5 13t97.5 25l29 13v895q5 0 12.5 -0.5t27 -5.5t34.5 -13.5t27 -27t12 -43.5v-946q-46 20 -111 20q-35 0 -132 -17.5t-149 -17.5q-69 0 -131 14.5t-120 46t-92.5 92t-34.5 142.5v756
q5 0 12.5 -0.5t26.5 -6t34 -14t27 -26.5t12 -43zM707 1401v-139q0 -53 -46 -82t-124 -29t-124 29t-46 82v139q0 52 46.5 82t123.5 30t123.5 -30t46.5 -82zM633 1292v80q0 37 -21 56.5t-75 19.5q-56 0 -76.5 -19t-20.5 -57v-80q0 -38 20 -56.5t77 -18.5q54 0 75 18.5t21 56.5
z" />
    <glyph glyph-name="Uhungarumlaut" unicode="&#x170;" 
d="M1233 1354v-951q0 -102 -43.5 -185t-118.5 -135t-171.5 -80t-205.5 -28q-110 0 -206.5 28t-171.5 80t-118.5 135t-43.5 185v1041h6.5t16.5 -2t23.5 -5t25 -10t23.5 -16t16.5 -24t6.5 -33v-926q0 -158 116 -248t306 -90q188 0 304 90t116 248v1016q5 0 13 -0.5t28.5 -5.5
t36 -13.5t28.5 -27t13 -43.5zM893 1913q54 -31 77.5 -57.5t22.5 -62.5t-39 -80.5t-116 -106.5l-99 -78q-28 3 -48.5 14t-26 27.5t17.5 38.5l141 133q43 43 62.5 82.5t7.5 89.5zM596 1913q62 -36 85 -69t5.5 -78t-86.5 -103l-98 -82q-28 3 -48 12.5t-25.5 26t18.5 37.5l79 84
q43 43 62.5 82.5t7.5 89.5z" />
    <glyph glyph-name="uhungarumlaut" unicode="&#x171;" horiz-adv-x="1077" 
d="M266 936v-625q0 -35 4.5 -62.5t21 -60.5t44.5 -55.5t80.5 -37.5t124.5 -15q76 0 143.5 13t97.5 25l29 13v895q5 0 12.5 -0.5t27 -5.5t34.5 -13.5t27 -27t12 -43.5v-946q-46 20 -111 20q-35 0 -132 -17.5t-149 -17.5q-69 0 -131 14.5t-120 46t-92.5 92t-34.5 142.5v756
q5 0 12.5 -0.5t26.5 -6t34 -14t27 -26.5t12 -43zM737 1536q54 -31 77.5 -57.5t22.5 -62.5t-39 -80.5t-116 -106.5l-98 -78q-28 3 -49 14t-26.5 27.5t17.5 38.5l142 133q43 43 62 82.5t7 89.5zM440 1536q62 -36 85 -69t5.5 -78t-86.5 -103l-98 -82q-28 3 -48 12.5t-25.5 26
t18.5 37.5l80 84q43 43 62 82.5t7 89.5z" />
    <glyph glyph-name="Uogonek" unicode="&#x172;" 
d="M1233 1354v-951q0 -74 -16.5 -132t-44.5 -96t-64.5 -67.5t-77 -51.5t-80.5 -42.5t-76.5 -45.5t-64.5 -56t-44.5 -78t-16.5 -108q0 -46 23.5 -73.5t59.5 -34t75 -2t75 18.5q0 -56 -42.5 -87t-104.5 -31q-98 0 -153.5 53.5t-55.5 142.5q0 152 125 264q-31 -2 -56 -2
q-110 0 -206.5 28t-171.5 80t-118.5 135t-43.5 185v1041h6.5t16.5 -2t23.5 -5t25 -10t23.5 -16t16.5 -24t6.5 -33v-926q0 -158 116 -248t306 -90q188 0 304 90t116 248v1016q5 0 13 -0.5t28.5 -5.5t36 -13.5t28.5 -27t13 -43.5z" />
    <glyph glyph-name="uogonek" unicode="&#x173;" horiz-adv-x="1077" 
d="M266 936v-625q0 -35 4.5 -62.5t21 -60.5t44.5 -55.5t80.5 -37.5t124.5 -15q76 0 143.5 13t97.5 25l29 13v895q5 0 12.5 -0.5t27 -5.5t34.5 -13.5t27 -27t12 -43.5v-870q-96 -76 -136 -120q-102 -110 -102 -220q0 -46 23.5 -73.5t60 -34t75.5 -2t75 18.5q0 -56 -43 -87
t-105 -31q-98 0 -153.5 53.5t-55.5 142.5q0 147 152 287q-143 -25 -183 -25q-69 0 -131 14.5t-120 46t-92.5 92t-34.5 142.5v756q5 0 12.5 -0.5t26.5 -6t34 -14t27 -26.5t12 -43z" />
    <glyph glyph-name="Ydieresis" unicode="&#x178;" horiz-adv-x="1081" 
d="M600 621h2v-641q-5 0 -13 0.5t-29 5.5t-37 13.5t-29 27.5t-13 45v549q-79 68 -161.5 196t-137 243t-107 229t-71.5 143q0 2 27 2q45 0 81.5 -23.5t73.5 -87.5q13 -22 73 -152.5t132.5 -253t149.5 -196.5q60 57 120.5 151t99.5 174t78.5 165.5t55.5 111.5q37 64 74 87.5
t82 23.5q26 0 26 -2q-19 -29 -71.5 -143t-107 -229t-137 -243t-161.5 -196zM342 1645v114h107q22 0 22 -28v-113h-106q-9 0 -16 9t-7 18zM615 1645v114h106q23 0 23 -28v-113h-107q-9 0 -15.5 9t-6.5 18z" />
    <glyph glyph-name="Zacute" unicode="&#x179;" horiz-adv-x="1122" 
d="M954 0h-886q0 108 40.5 211.5t106.5 190.5t147 171.5t167 170t160.5 170.5t133 188t80.5 209h-784q0 4 0.5 11.5t4.5 26.5t11.5 33.5t23.5 26.5t38 12h833q-2 -124 -43.5 -241t-109 -212t-149 -185t-166.5 -173.5t-158 -161.5t-127.5 -165.5t-71.5 -171.5h706
q54 0 91.5 6t47.5 12l11 6q0 -19 -5 -40t-16 -43.5t-33.5 -37t-52.5 -14.5zM733 1913q54 -32 78.5 -58.5t25.5 -62.5t-36.5 -81t-114.5 -107l-99 -78q-28 3 -50.5 14.5t-30 28.5t15.5 39l141 133q43 43 62.5 82.5t7.5 89.5z" />
    <glyph glyph-name="zacute" unicode="&#x17a;" horiz-adv-x="880" 
d="M662 905h-560q0 4 0.5 11.5t4.5 26t11.5 32.5t23.5 25.5t38 11.5h623q-6 -21 -13.5 -67t-13.5 -66q-31 -96 -99 -195t-143.5 -177t-147.5 -150t-122.5 -138t-56.5 -115h612q0 -4 -0.5 -11t-4.5 -25t-11 -32t-23 -25t-37 -11h-665v45q0 66 26 130t69.5 119t97 110t112 112
t111.5 115t98.5 129.5t69.5 144.5zM602 1536q54 -32 78.5 -58.5t25.5 -62.5t-36.5 -81t-114.5 -107l-98 -78q-28 3 -51 14.5t-30.5 28.5t15.5 39l141 133q43 43 62.5 82.5t7.5 89.5z" />
    <glyph glyph-name="Zdotaccent" unicode="&#x17b;" horiz-adv-x="1122" 
d="M954 0h-886q0 108 40.5 211.5t106.5 190.5t147 171.5t167 170t160.5 170.5t133 188t80.5 209h-784q0 4 0.5 11.5t4.5 26.5t11.5 33.5t23.5 26.5t38 12h833q-2 -124 -43.5 -241t-109 -212t-149 -185t-166.5 -173.5t-158 -161.5t-127.5 -165.5t-71.5 -171.5h706
q54 0 91.5 6t47.5 12l11 6q0 -19 -5 -40t-16 -43.5t-33.5 -37t-52.5 -14.5zM520 1645v114h107q22 0 22 -28v-113h-106q-9 0 -16 9t-7 18z" />
    <glyph glyph-name="zdotaccent" unicode="&#x17c;" horiz-adv-x="880" 
d="M662 905h-560q0 4 0.5 11.5t4.5 26t11.5 32.5t23.5 25.5t38 11.5h623q-6 -21 -13.5 -67t-13.5 -66q-31 -96 -99 -195t-143.5 -177t-147.5 -150t-122.5 -138t-56.5 -115h612q0 -4 -0.5 -11t-4.5 -25t-11 -32t-23 -25t-37 -11h-665v45q0 66 26 130t69.5 119t97 110t112 112
t111.5 115t98.5 129.5t69.5 144.5zM389 1268v114h107q22 0 22 -28v-113h-106q-9 0 -16 9t-7 18z" />
    <glyph glyph-name="Zcaron" unicode="&#x17d;" horiz-adv-x="1122" 
d="M954 0h-886q0 108 40.5 211.5t106.5 190.5t147 171.5t167 170t160.5 170.5t133 188t80.5 209h-784q0 4 0.5 11.5t4.5 26.5t11.5 33.5t23.5 26.5t38 12h833q-2 -124 -43.5 -241t-109 -212t-149 -185t-166.5 -173.5t-158 -161.5t-127.5 -165.5t-71.5 -171.5h706
q54 0 91.5 6t47.5 12l11 6q0 -19 -5 -40t-16 -43.5t-33.5 -37t-52.5 -14.5zM417 1952q-7 -16 -9 -31.5t-1.5 -29t7.5 -29.5t12 -27t18.5 -27.5t20.5 -25t24.5 -25.5t24.5 -23t27.5 -23.5t25.5 -22.5q7 6 28 24.5t32 28.5t30 29.5t29 33t21.5 33.5t15 37t3 37.5t-9.5 40.5
q57 -20 79 -65t5.5 -96.5t-65.5 -92.5l-150 -125h-37l-149 123q-51 42 -70 91t3 94t85 71z" />
    <glyph glyph-name="zcaron" unicode="&#x17e;" horiz-adv-x="880" 
d="M662 905h-560q0 4 0.5 11.5t4.5 26t11.5 32.5t23.5 25.5t38 11.5h623q-6 -21 -13.5 -67t-13.5 -66q-31 -96 -99 -195t-143.5 -177t-147.5 -150t-122.5 -138t-56.5 -115h612q0 -4 -0.5 -11t-4.5 -25t-11 -32t-23 -25t-37 -11h-665v45q0 66 26 130t69.5 119t97 110t112 112
t111.5 115t98.5 129.5t69.5 144.5zM297 1542q-35 -84 57 -180q19 -20 92 -84q7 6 28 24.5t32 28.5t30 29t29 33t22 34t15.5 37t3 37.5t-9.5 40.5q57 -20 79 -65t5 -96.5t-66 -92.5l-149 -125h-37l-149 123q-51 42 -70 91t3 94t85 71z" />
    <glyph glyph-name="florin" unicode="&#x192;" horiz-adv-x="940" 
d="M274 705l-147 -916q-19 -112 -82.5 -195t-134.5 -83q-47 0 -68 24q34 0 64.5 31t52 80.5t36.5 101t23 102.5q43 255 117 721.5t101 632.5q16 97 81 170t160.5 110.5t206.5 37.5q148 0 235 -36.5t87 -109.5q0 -44 -31 -94q-33 129 -313 129q-137 0 -215.5 -62t-96.5 -173
l-59 -359h387l-2.5 -12.5t-9 -26.5t-17 -34t-27.5 -27t-40 -12h-308z" />
    <glyph glyph-name="Scommaaccent" unicode="&#x218;" horiz-adv-x="1267" 
d="M113 1049q0 89 28.5 159t77 114.5t117.5 73.5t144 40.5t163 11.5t165 -11t148 -36t112.5 -73.5t41.5 -115.5q0 -63 -37 -147q0 62 -25 109.5t-66.5 77t-100.5 48.5t-120 26t-132 7q-86 0 -153.5 -13t-123.5 -43t-86 -85t-30 -133q0 -66 31.5 -112.5t84.5 -71.5t122 -41
t145.5 -28t152.5 -26.5t145 -41.5t122 -67t84.5 -110t31.5 -164q0 -208 -141 -315t-379 -107q-86 0 -168.5 13.5t-157 40t-120.5 75t-46 111.5q0 68 33 150q0 -75 39.5 -130t108.5 -85.5t149 -45t174 -14.5q189 0 287 80t98 221q0 74 -31.5 126.5t-84.5 82t-122 49.5
t-145.5 33t-152.5 27t-145 37.5t-122 59t-84.5 97.5t-31.5 146zM571 -74h60q49 0 58 -11.5t9 -61.5v-70q0 -223 -108 -223q-40 0 -72 18q35 7 53.5 43.5t18 75.5t-1.5 72z" />
    <glyph glyph-name="scommaaccent" unicode="&#x219;" horiz-adv-x="956" 
d="M752 287q0 52 -22 87t-60 52t-87 26.5t-103 14t-108.5 10.5t-104 21t-88 40.5t-62 72.5t-25.5 114q0 154 95.5 232.5t281.5 78.5q72 0 133.5 -10.5t113 -32.5t81.5 -61.5t30 -91.5q0 -64 -49 -152q2 10 2 33q0 98 -75 153.5t-236 55.5q-144 0 -204 -49t-60 -146
q0 -60 36.5 -93.5t94.5 -45t128 -17t140.5 -17.5t128.5 -38.5t94.5 -89t36.5 -158.5q0 -136 -102 -218.5t-293 -82.5q-72 0 -134 9.5t-118 32t-88.5 64.5t-32.5 101q0 51 31 127q0 -103 84.5 -165t257.5 -62q283 0 283 205zM412 -74h59q49 0 58.5 -11.5t9.5 -61.5v-70
q0 -223 -109 -223q-40 0 -72 18q35 7 53.5 43.5t18 75.5t-1.5 72z" />
    <glyph glyph-name="uni021A" unicode="&#x21a;" horiz-adv-x="1087" 
d="M967 1311h-367v-1331q-5 0 -13 0.5t-28.5 5.5t-36 13.5t-28.5 27t-13 43.5v1241h-358q-36 0 -61.5 15.5t-37 39.5t-16 44.5t-4.5 39.5q2 -3 9.5 -8t46 -13t96.5 -8h778q58 0 95.5 7.5t45.5 14.5l8 7q0 -20 -4 -40t-15 -44t-36 -39.5t-61 -15.5zM487 -74h60q49 0 58 -11.5
t9 -61.5v-70q0 -223 -108 -223q-40 0 -72 18q35 7 53.5 43.5t18 75.5t-1.5 72z" />
    <glyph glyph-name="uni021B" unicode="&#x21b;" horiz-adv-x="819" 
d="M154 283v997q5 0 12.5 -0.5t26.5 -6t34 -14t27 -26.5t12 -43v-203h428q0 -4 -0.5 -11.5t-5 -26.5t-11.5 -33.5t-22.5 -26.5t-36.5 -12h-352v-543q0 -117 63.5 -182.5t184.5 -65.5q102 0 175 58.5t73 150.5q37 -67 37 -123q0 -94 -84 -145.5t-203 -51.5
q-155 0 -256.5 81.5t-101.5 226.5zM449 -74h59q49 0 58 -11.5t9 -61.5v-70q0 -223 -108 -223q-40 0 -72 18q35 7 53.5 43.5t18 75.5t-1.5 72z" />
    <glyph glyph-name="circumflex" unicode="&#x2c6;" horiz-adv-x="1001" 
d="M360 1405l166 137l166 -137q80 -66 75.5 -137t-91.5 -117q12 24 12 49q0 24 -16.5 54.5t-40.5 57t-48 50t-41 37.5l-16 14q-7 -5 -17.5 -14.5t-38.5 -36t-49 -51.5t-38.5 -56t-17.5 -55q0 -25 12 -49q-88 46 -92.5 117t75.5 137z" />
    <glyph glyph-name="caron" unicode="&#x2c7;" horiz-adv-x="1001" 
d="M440 1542q-7 -16 -9 -31.5t-1.5 -29t7.5 -29.5t12 -27t18.5 -27.5t20.5 -25t24.5 -25.5t24.5 -23t27.5 -23.5t25.5 -22.5q7 6 28 24.5t32 28.5t30 29.5t29 33t21.5 33.5t15 37t3 37.5t-9.5 40.5q57 -20 79 -65t5.5 -96.5t-65.5 -92.5l-150 -125h-37l-149 123
q-51 42 -70 91t3 94t85 71z" />
    <glyph glyph-name="breve" unicode="&#x2d8;" horiz-adv-x="1169" 
d="M588 1149q-129 0 -201 64.5t-72 152.5q0 53 26.5 96t82.5 54q-14 -35 -14 -74q0 -37 7 -66t24.5 -57t55 -43.5t91.5 -15.5q178 0 178 182q0 30 -14 74q54 -11 81 -54t27 -96q0 -89 -71.5 -153t-200.5 -64z" />
    <glyph glyph-name="dotaccent" unicode="&#x2d9;" horiz-adv-x="497" 
d="M182 1268v114h107q22 0 22 -28v-113h-106q-9 0 -16 9t-7 18z" />
    <glyph glyph-name="ring" unicode="&#x2da;" horiz-adv-x="698" 
d="M520 1401v-139q0 -53 -46 -82t-124 -29t-124 29t-46 82v139q0 52 46.5 82t123.5 30t123.5 -30t46.5 -82zM446 1292v80q0 37 -21 56.5t-75 19.5q-56 0 -76 -19t-20 -57v-80q0 -39 20 -57t76 -18q54 0 75 18.5t21 56.5z" />
    <glyph glyph-name="ogonek" unicode="&#x2db;" horiz-adv-x="1705" 
d="M723 90l29 -16q-78 -80 -127.5 -174t-49.5 -166q0 -46 24.5 -73t62 -33.5t77.5 -2t76 18.5q0 -56 -45.5 -90.5t-107.5 -34.5q-98 0 -157 56.5t-59 145.5q0 97 69.5 197.5t207.5 171.5z" />
    <glyph glyph-name="tilde" unicode="&#x2dc;" horiz-adv-x="796" 
d="M133 1221q-6 29 -4 58.5t10.5 53t35 38.5t69.5 15q46 0 100.5 -24t111 -48t107.5 -24q35 0 57 12.5t42 43.5q9 -87 -17 -127.5t-96 -40.5q-56 0 -155 47t-158 47q-40 0 -62.5 -12t-40.5 -39z" />
    <glyph glyph-name="hungarumlaut" unicode="&#x2dd;" horiz-adv-x="958" 
d="M682 1536q54 -31 77.5 -57.5t22.5 -62.5t-39 -80.5t-116 -106.5l-99 -78q-28 3 -48.5 14t-26 27.5t17.5 38.5l141 133q43 43 62.5 82.5t7.5 89.5zM385 1536q62 -36 85 -69t5.5 -78t-86.5 -103l-98 -82q-28 3 -48 12.5t-25.5 26t18.5 37.5l79 84q43 43 62.5 82.5t7.5 89.5
z" />
    <glyph glyph-name="Omega" unicode="&#x3a9;" horiz-adv-x="2279" 
d="M567 1266q-43 -76 -43 -138q0 -46 25.5 -85t66.5 -69t90.5 -58.5t99.5 -60.5t91 -67.5t66.5 -87t25.5 -112.5q0 -101 -61.5 -161t-145.5 -60q-85 0 -145 57q2 -14 2 -43q-7 -83 -75.5 -141t-151.5 -58q-91 0 -163.5 42.5t-117 113.5t-67.5 157.5t-23 178.5q0 87 21 172
t63 161t100.5 134.5t139.5 92.5t174 34q5 0 14.5 -1t13.5 -1zM1712 203q43 76 43 137q0 40 -20 76t-52.5 62t-74.5 53.5t-85.5 51t-85.5 55t-74.5 64t-52.5 79t-20 100.5q0 101 61.5 161t145.5 60t145 -58q-2 14 -2 43q7 83 75.5 141t152.5 58q91 0 163.5 -42.5
t116.5 -113.5t67 -156.5t23 -178.5q0 -87 -20.5 -172t-63 -161t-100.5 -134.5t-139 -92.5t-174 -34q-5 0 -15 1t-14 1zM1196 1217q66 66 151.5 77t153 -34.5t82.5 -131.5q-39 39 -88.5 59t-108.5 11t-106 -55q-48 -49 -67 -140t-19 -193t-1.5 -206t-28 -202.5t-85.5 -157.5
q-65 -66 -150.5 -77.5t-153 34t-81.5 131.5q38 -38 87.5 -58t108.5 -11t105 56q42 42 63 114.5t22.5 151.5t3.5 171.5t6 174t30.5 159.5t75.5 127z" />
    <glyph glyph-name="Omega" unicode="&#x2126;" horiz-adv-x="2279" 
d="M567 1266q-43 -76 -43 -138q0 -46 25.5 -85t66.5 -69t90.5 -58.5t99.5 -60.5t91 -67.5t66.5 -87t25.5 -112.5q0 -101 -61.5 -161t-145.5 -60q-85 0 -145 57q2 -14 2 -43q-7 -83 -75.5 -141t-151.5 -58q-91 0 -163.5 42.5t-117 113.5t-67.5 157.5t-23 178.5q0 87 21 172
t63 161t100.5 134.5t139.5 92.5t174 34q5 0 14.5 -1t13.5 -1zM1712 203q43 76 43 137q0 40 -20 76t-52.5 62t-74.5 53.5t-85.5 51t-85.5 55t-74.5 64t-52.5 79t-20 100.5q0 101 61.5 161t145.5 60t145 -58q-2 14 -2 43q7 83 75.5 141t152.5 58q91 0 163.5 -42.5
t116.5 -113.5t67 -156.5t23 -178.5q0 -87 -20.5 -172t-63 -161t-100.5 -134.5t-139 -92.5t-174 -34q-5 0 -15 1t-14 1zM1196 1217q66 66 151.5 77t153 -34.5t82.5 -131.5q-39 39 -88.5 59t-108.5 11t-106 -55q-48 -49 -67 -140t-19 -193t-1.5 -206t-28 -202.5t-85.5 -157.5
q-65 -66 -150.5 -77.5t-153 34t-81.5 131.5q38 -38 87.5 -58t108.5 -11t105 56q42 42 63 114.5t22.5 151.5t3.5 171.5t6 174t30.5 159.5t75.5 127z" />
    <glyph glyph-name="pi" unicode="&#x3c0;" horiz-adv-x="2279" 
d="M850 905q0 69 32 127.5t81 88t108.5 33t114.5 -37.5q-86 0 -154.5 -53.5t-68.5 -151.5q0 -68 51 -145.5t123.5 -150t144.5 -147t123 -162t51 -171.5q0 -69 -32 -127.5t-81 -88t-108.5 -33t-114.5 37.5q86 0 154.5 53.5t68.5 151.5q0 70 -51 148t-123.5 150.5t-144.5 147
t-123 161.5t-51 169zM373 494q26 -98 74 -136.5t118 -38.5q55 0 189 35t202 35q101 0 183 -69.5t82 -165.5q0 -80 -61.5 -142.5t-143.5 -62.5q78 -64 78 -164q0 -63 -28 -115t-72.5 -83.5t-95 -48.5t-99.5 -17q-106 0 -212.5 55.5t-187 144t-131.5 204t-51 229.5
q0 98 37.5 178.5t118.5 161.5zM1933 551q-29 97 -75.5 136.5t-116.5 39.5q-55 0 -189.5 -35t-203.5 -35q-100 0 -182.5 69.5t-82.5 164.5q0 84 60.5 144t144.5 63q-78 63 -78 164q0 81 49 143t115.5 90.5t132.5 28.5q106 0 213 -56t187 -144.5t130 -204.5t50 -230
q0 -96 -37 -177t-117 -161z" />
    <glyph glyph-name="endash" unicode="&#x2013;" horiz-adv-x="1419" 
d="M131 582h1212q1 -16 2.5 -40.5t-14 -47.5t-45.5 -23h-1210q-1 19 -2 43.5t13.5 46t43.5 21.5z" />
    <glyph glyph-name="emdash" unicode="&#x2014;" horiz-adv-x="1617" 
d="M131 582h1411q1 -16 2.5 -40.5t-14 -47.5t-45.5 -23h-1409q-1 19 -2 43.5t13.5 46t43.5 21.5z" />
    <glyph glyph-name="quoteleft" unicode="&#x2018;" horiz-adv-x="444" 
d="M303 1047h-37h-92q-16 0 -16 20v119q0 235 110 235q37 0 70 -20q-14 -2 -24.5 -8t-17.5 -16t-11.5 -19.5t-6.5 -25t-3.5 -26t-0.5 -28.5t2 -27t3 -27.5t2 -23.5z" />
    <glyph glyph-name="quoteright" unicode="&#x2019;" horiz-adv-x="444" 
d="M141 1421h37h92q17 0 17 -20v-119q0 -44 -4.5 -81.5t-16 -74t-34.5 -58t-56 -21.5q-37 0 -70 20q36 6 52 40.5t12.5 74t-5.5 73.5q-1 9 -1 13z" />
    <glyph glyph-name="quotesinglbase" unicode="&#x201a;" horiz-adv-x="444" 
d="M141 150h37h92q17 0 17 -21v-119q0 -44 -4.5 -81.5t-16 -74t-34.5 -58t-56 -21.5q-37 0 -70 20q36 6 52 40.5t12.5 74t-5.5 73.5q-1 9 -1 13z" />
    <glyph glyph-name="quotedblleft" unicode="&#x201c;" horiz-adv-x="720" 
d="M303 1047h-37h-92q-16 0 -16 20v119q0 235 110 235q37 0 70 -20q-14 -2 -24.5 -8t-17.5 -16t-11.5 -19.5t-6.5 -25t-3.5 -26t-0.5 -28.5t2 -27t3 -27.5t2 -23.5zM580 1047h-37h-92q-17 0 -17 20v119q0 44 4.5 81.5t16 74t34.5 58t56 21.5q36 0 69 -20q-14 -2 -24.5 -8
t-17.5 -16t-11.5 -19.5t-6.5 -25t-3.5 -26t-0.5 -28.5t2 -27t3 -27.5t2 -23.5z" />
    <glyph glyph-name="quotedblright" unicode="&#x201d;" horiz-adv-x="714" 
d="M412 1421h37h92q16 0 16 -20v-119q0 -44 -4.5 -81.5t-16 -74t-34.5 -58t-56 -21.5q-36 0 -69 20q36 6 51.5 40t12.5 73t-5 74q-2 10 -2 14zM141 1421h37h92q17 0 17 -20v-119q0 -44 -4.5 -81.5t-16 -74t-34.5 -58t-56 -21.5q-37 0 -70 20q36 6 52 40.5t12.5 74t-5.5 73.5
q-1 9 -1 13z" />
    <glyph glyph-name="quotedblbase" unicode="&#x201e;" horiz-adv-x="714" 
d="M412 150h37h92q16 0 16 -21v-119q0 -44 -4.5 -81.5t-16 -74t-34.5 -58t-56 -21.5q-36 0 -69 20q36 6 51.5 40t12.5 73t-5 74q-2 10 -2 14zM141 150h37h92q17 0 17 -21v-119q0 -44 -4.5 -81.5t-16 -74t-34.5 -58t-56 -21.5q-37 0 -70 20q36 6 52 40.5t12.5 74t-5.5 73.5
q-1 9 -1 13z" />
    <glyph glyph-name="dagger" unicode="&#x2020;" horiz-adv-x="747" 
d="M90 1012h225v512q5 0 12.5 -0.5t27 -5.5t34.5 -13.5t27 -27t12 -43.5v-422h285q1 -16 2 -40.5t-14.5 -47.5t-45.5 -23h-227v-1397q-5 0 -12.5 0.5t-27 5.5t-34.5 13.5t-27 27t-12 43.5v1307h-280q-1 19 -2 43.5t13.5 46t43.5 21.5z" />
    <glyph glyph-name="daggerdbl" unicode="&#x2021;" horiz-adv-x="747" 
d="M90 1012h225v512q5 0 12.5 -0.5t27 -5.5t34.5 -13.5t27 -27t12 -43.5v-422h285q1 -16 2 -40.5t-14.5 -47.5t-45.5 -23h-227v-790h285q1 -16 2 -40.5t-14.5 -47.5t-45.5 -23h-227v-496q-5 0 -12.5 0.5t-27 5.5t-34.5 13.5t-27 27t-12 43.5v406h-280q-1 19 -2 43.5t13.5 46
t43.5 21.5h225v790h-280q-1 19 -2 43.5t13.5 46t43.5 21.5z" />
    <glyph glyph-name="bullet" unicode="&#x2022;" horiz-adv-x="921" 
d="M788 612v-168q0 -120 -82 -184.5t-245 -64.5q-162 0 -245 64.5t-83 184.5v168q0 119 83 182.5t245 63.5q163 0 245 -63.5t82 -182.5z" />
    <glyph glyph-name="ellipsis" unicode="&#x2026;" horiz-adv-x="1357" 
d="M158 150h110q17 0 22 -7.5t5 -23.5v-119h-111q-17 0 -21.5 7.5t-4.5 25.5v117zM610 150h111q17 0 22 -7.5t5 -23.5v-119h-111q-17 0 -22 8t-5 25v117zM1063 150h111q17 0 21.5 -7.5t4.5 -23.5v-119h-110q-17 0 -22 8t-5 25v117z" />
    <glyph glyph-name="perthousand" unicode="&#x2030;" horiz-adv-x="1982" 
d="M1890 846v-256q0 -89 -76.5 -138t-209.5 -49q-100 0 -177 31q5 -17 5 -33v-235q0 -89 -77 -137.5t-210 -48.5q-131 0 -208 48.5t-77 137.5v256q0 87 77.5 137.5t207.5 50.5q96 0 178 -35q-4 23 -4 35v236q0 87 77.5 137.5t207.5 50.5q131 0 208.5 -50.5t77.5 -137.5z
M664 1251v-256q0 -89 -77 -137.5t-208 -48.5q-133 0 -210 48.5t-77 137.5v256q0 87 78 138t209 51q130 0 207.5 -51t77.5 -138zM252 297l969 983q5 -4 12 -11t19 -30t12 -47q0 -45 -43 -88l-955 -954q-41 41 -41 88q0 32 27 59zM1335 223v146q0 74 -40 112.5t-150 38.5
q-115 0 -153 -37.5t-38 -113.5v-146q0 -40 6.5 -65t26.5 -46t58.5 -30.5t99.5 -9.5q112 0 151 36.5t39 114.5zM1794 647v146q0 74 -40 112.5t-150 38.5q-115 0 -153 -37.5t-38 -113.5v-146q0 -40 6.5 -65t26.5 -46t58.5 -30.5t99.5 -9.5q112 0 151 36.5t39 114.5zM569 1053
v145q0 74 -40 113t-150 39q-115 0 -153 -38t-38 -114v-145q0 -39 7 -64t26 -46.5t58 -31.5t100 -10q111 0 150.5 37.5t39.5 114.5z" />
    <glyph glyph-name="guilsinglleft" unicode="&#x2039;" horiz-adv-x="839" 
d="M250 508l416 -416q-36 -53 -74 -53q-6 0 -12 1.5t-12.5 4.5t-12 5.5t-13 8.5t-11.5 9.5t-12 11t-11 10.5l-12 12l-11 11l-303 303q-49 49 -49 90q0 43 51 94l408 408q59 -38 59 -78q0 -6 -3 -13t-9 -15.5t-12 -16t-16 -18t-16.5 -17.5t-18 -18t-17.5 -17z" />
    <glyph glyph-name="guilsinglright" unicode="&#x203a;" horiz-adv-x="839" 
d="M133 92l416 416l-309 307q-5 5 -23.5 23t-26.5 26.5t-20.5 22.5t-17.5 24.5t-5 18.5q0 40 60 78l407 -408q52 -52 52 -94q0 -40 -50 -90l-303 -303l-14 -14l-15.5 -15.5t-14 -13t-16 -13t-14.5 -9t-16.5 -7.5t-15.5 -2q-38 0 -74 53z" />
    <glyph glyph-name="fraction" unicode="&#x2044;" horiz-adv-x="1132" 
d="M74 303l966 971q43 -57 43 -96q0 -24 -24 -48l-969 -968q-39 55 -39 92q0 23 23 49z" />
    <glyph glyph-name="Euro" unicode="&#x20ac;" horiz-adv-x="1228" 
d="M844 791h-572v-144h553v-11.5t-4.5 -26.5t-14.5 -33.5t-33 -26.5t-56 -12h-445v-70q0 -200 105.5 -288.5t302.5 -88.5q98 0 181 22.5t139.5 74.5t56.5 124q47 -71 41 -126t-43.5 -95t-102 -65.5t-134 -37.5t-138.5 -12q-113 0 -205 24.5t-165.5 77t-114.5 144t-41 215.5
v549q0 124 40 215t112.5 143.5t163.5 77.5t204 25q161 0 273 -61t112 -152q0 -63 -45 -123q0 97 -95.5 159t-244.5 62q-195 0 -298.5 -88t-103.5 -287v-55h680v-11.5t-4.5 -26.5t-14.5 -33.5t-33 -26.5t-56 -12z" />
    <glyph glyph-name="trademark" unicode="&#x2122;" horiz-adv-x="2107" 
d="M756 1149v182h-221v-688q-4 1 -11 2.5t-25.5 7.5t-32 13t-25 19t-11.5 26v620h-215v-182q-10 3 -25.5 8.5t-41 24t-25.5 37.5v202h723v-202q0 -30 -28.5 -47t-61.5 -23zM1841 711v442q0 19 2 42t4 37l2 13q-203 -317 -303 -475q-9 2 -23 6.5t-44 23t-45 42.5l-281 436
q6 -72 6 -125v-510q-4 1 -11 2.5t-25 7.5t-32 13t-25 19t-11 26v710q47 0 73 -2.5t58.5 -18t50.5 -46.5l279 -455l325 522q103 0 103 -65v-713q-4 1 -11 2.5t-25 7.5t-31.5 13t-24.5 19t-11 26z" />
    <glyph glyph-name="partialdiff" unicode="&#x2202;" horiz-adv-x="1609" 
d="M997 1063h-872q-29 0 -50 13t-31 31.5t-16 37.5t-7 32l-1 13h1004q188 0 305 -89.5t117 -236.5q0 -72 -32.5 -124.5t-92.5 -59.5q29 63 29 123q0 118 -90 187.5t-263 72.5zM580 276q14 -2 38 -2q68 0 112 27t64.5 72.5t32.5 101.5t22.5 117t26.5 115t52 100.5t92 69.5
q43 16 82 16q75 0 131.5 -53t56.5 -140q0 -37 -12 -67q50 18 94 18q98 0 157.5 -73.5t59.5 -167.5q0 -95 -51 -176.5t-133 -134t-180.5 -82t-196.5 -29.5q-104 0 -195 30t-160.5 96.5t-92.5 161.5z" />
    <glyph glyph-name="product" unicode="&#x220f;" horiz-adv-x="1609" 
d="M1030 276q-23 -95 -92.5 -161.5t-160.5 -96.5t-195 -30q-98 0 -197 29.5t-180.5 82t-133 134t-51.5 176.5q0 94 60 167.5t158 73.5q44 0 94 -18q-13 33 -13 67q0 87 57 140t132 53q39 0 82 -16q56 -23 92 -69.5t52 -100.5t26 -115t22 -117t32.5 -101.5t64.5 -72.5
t112 -27q25 0 39 2zM1485 1063h-873q-173 -3 -262.5 -72t-89.5 -188q0 -60 29 -123q-60 7 -92.5 59.5t-32.5 124.5q0 147 117 236.5t305 89.5h1003q0 -5 -1 -13.5t-6.5 -30.5t-15.5 -39t-31 -30.5t-50 -13.5z" />
    <glyph glyph-name="summation" unicode="&#x2211;" horiz-adv-x="1742" 
d="M809 14q41 72 41 127q0 43 -24 79.5t-62 64t-84 54.5t-92 56.5t-84 62.5t-62 80.5t-24 104.5q0 94 57 149.5t135 55.5q79 0 135 -53q-2 14 -2 41q7 77 70.5 130.5t140.5 53.5q68 0 125 -26t97 -70.5t68 -103.5t41 -124t13 -133q0 -101 -31 -198.5t-88 -176.5
t-146.5 -127.5t-196.5 -48.5q-4 0 -13.5 1t-13.5 1zM143 268v363q0 190 88 312t234 122q84 0 137.5 -32.5t63.5 -96.5q-57 29 -121 29q-123 0 -197 -91t-74 -270v-309q0 -83 25.5 -154t78 -129t143 -91.5t210.5 -33.5h264q119 0 211.5 33.5t148.5 91t84.5 129.5t28.5 154
v450q0 180 -72 270.5t-194 90.5q-53 0 -121 -21q10 58 63.5 87.5t137.5 29.5q146 0 231.5 -119.5t85.5 -310.5v-504q0 -220 -161.5 -359.5t-444.5 -139.5h-264q-141 0 -253.5 38t-184.5 105t-110 157.5t-38 198.5z" />
    <glyph glyph-name="minus" unicode="&#x2212;" horiz-adv-x="993" 
d="M215 565h649q1 -16 2.5 -40.5t-14 -47t-45.5 -22.5h-647q-1 19 -2 43.5t13.5 45.5t43.5 21z" />
    <glyph glyph-name="radical" unicode="&#x221a;" horiz-adv-x="980" 
d="M328 252q-113 36 -113 119q0 51 42 102.5t118 112.5q-79 28 -164 28q-36 0 -58.5 -11.5t-46.5 -41.5q-4 40 -4 53q0 53 33 91t109 38q11 0 22.5 -1.5t25.5 -5.5t25 -7.5t28.5 -10t26 -10t28 -11.5t26.5 -11q-10 45 -21 79.5t-29 67t-44.5 52.5t-61.5 26q52 52 107 52
q60 0 102.5 -68.5t57.5 -194.5q49 41 88 95t39 94q0 31 -9 55q60 -13 84.5 -41.5t24.5 -81.5q0 -97 -162 -213q77 -28 168 -28q35 0 58 12.5t46 40.5q5 -50 5 -53q0 -53 -33.5 -91t-110.5 -38q-11 0 -23 1.5t-25.5 5.5t-24 7.5t-27 10.5t-25 10.5t-27.5 12t-26 11.5
q12 -90 50.5 -153.5t103.5 -73.5q-56 -52 -109 -52q-59 0 -102.5 68t-55.5 193q-54 -40 -92.5 -94t-38.5 -95q0 -27 15 -51z" />
    <glyph glyph-name="infinity" unicode="&#x221e;" horiz-adv-x="1232" 
d="M467 1700q-10 -24 -10.5 -47.5t8 -45t21.5 -42t32 -40.5t37.5 -37t40.5 -36q3 -3 5 -4.5t4.5 -3.5t4.5 -4h11q78 68 101 95q77 88 44 165q57 -20 79 -65t5 -96.5t-66 -92.5l-90 -76q146 -169 240 -471q11 -36 36 -118.5t39 -128l38 -123.5t39 -126t35.5 -113t35 -107
t30 -85t27 -70.5t19.5 -41.5q-6 -2 -21 -2q-24 0 -45.5 6t-39 20.5t-31.5 28.5t-27.5 39.5t-22 43.5t-19 51t-16 51.5t-15.5 55t-15 52.5l-41 143h-647l-41 -143q-4 -15 -13 -47t-14 -49.5t-14.5 -47t-16.5 -47t-18.5 -42t-22 -38.5t-25.5 -30.5t-30.5 -25.5t-35.5 -15
t-42 -6q-14 0 -20 2q8 14 19.5 41.5t27 70.5t30 85t35 107t35.5 113t39 126l38 123.5t39 128t36 118.5q96 310 240 471l-90 74q-51 42 -70 91t3 94t85 71zM326 588h581l-78 258q-40 134 -93.5 243.5t-86.5 152.5l-33 42q-5 -6 -14 -17t-35 -50.5t-50.5 -86t-56.5 -123.5
t-57 -161z" />
    <glyph glyph-name="integral" unicode="&#x222b;" horiz-adv-x="1742" 
d="M934 14q-4 0 -13.5 -1t-13.5 -1q-107 0 -197 48.5t-146.5 127.5t-88 176.5t-31.5 198.5q0 68 13 133t41 124t68 103.5t97 70.5t125 26q77 0 140.5 -53.5t70.5 -130.5q0 -27 -2 -41q56 53 136 53q78 0 135 -55.5t57 -149.5q0 -57 -24 -104.5t-62 -80.5t-84 -62.5
t-92 -56.5t-84 -54.5t-62 -64t-24 -79.5q0 -55 41 -127zM1599 631v-363q0 -108 -38 -198.5t-110 -157.5t-184 -105t-253 -38h-264q-283 0 -445 139.5t-162 359.5v504q0 190 86 310t232 120q84 0 137.5 -29.5t63.5 -87.5q-68 21 -121 21q-122 0 -194.5 -91t-72.5 -270v-450
q0 -82 28.5 -154t84.5 -129.5t149 -91t212 -33.5h264q120 0 210.5 33.5t142.5 91.5t77.5 129t25.5 154v309q0 179 -73.5 270t-196.5 91q-64 0 -121 -29q10 64 63.5 96.5t137.5 32.5q146 0 233.5 -122t87.5 -312z" />
    <glyph glyph-name="approxequal" unicode="&#x2248;" horiz-adv-x="1277" 
d="M98 332q-6 29 -6 45q0 115 166 115q75 0 382 -53.5t388 -53.5q41 0 79 11.5t55 23.5l18 12q6 -29 6 -49q0 -44 -38 -77.5t-130 -33.5q-77 0 -383 53.5t-385 53.5q-50 0 -88 -11.5t-51 -23.5zM98 629q-6 29 -6 45q0 114 166 114q75 0 382 -53t388 -53q41 0 79 12t55 24
l18 11q6 -29 6 -49q0 -44 -38 -77.5t-130 -33.5q-77 0 -383 53.5t-385 53.5q-50 0 -88 -12t-51 -24z" />
    <glyph glyph-name="notequal" unicode="&#x2260;" horiz-adv-x="993" 
d="M213 725h279l79 301q106 -33 86 -108l-51 -193h230q1 -16 2 -40.5t-14.5 -47.5t-45.5 -23h-203l-45 -168h306q1 -16 2 -40.5t-14.5 -47t-45.5 -22.5h-276l-80 -297q-48 13 -73.5 41t-12.5 65l51 191h-229q-1 19 -2 43.5t13.5 45.5t43.5 21h203l45 168h-303q-1 19 -2 43.5
t13.5 46t43.5 21.5z" />
    <glyph glyph-name="lessequal" unicode="&#x2264;" horiz-adv-x="825" 
d="M250 731l416 -416q-36 -53 -74 -53q-6 0 -12 1.5t-12.5 4.5t-12 5.5t-13 8.5t-11.5 9.5t-12 11t-11 10.5l-12 12l-11 11l-303 303q-49 49 -49 90q0 43 51 94l408 408q59 -38 59 -78q0 -6 -3 -13t-9 -15.5t-12 -16t-16 -18t-16.5 -17.5t-18 -18t-17.5 -17zM209 111h479
q1 -16 2.5 -40.5t-14 -47.5t-45.5 -23h-477q-1 19 -2 43.5t13.5 46t43.5 21.5z" />
    <glyph glyph-name="greaterequal" unicode="&#x2265;" horiz-adv-x="819" 
d="M154 315l415 416l-309 307q-6 6 -17.5 17t-18 18t-16.5 17.5t-16 18t-12 16t-9 15.5t-3 13q0 40 59 78l408 -408q51 -51 51 -94q0 -41 -49 -90l-303 -303l-11 -11l-12 -12t-11 -10.5t-12 -11t-11.5 -9.5t-13 -8.5t-12 -5.5t-12.5 -4.5t-12 -1.5q-37 0 -73 53zM193 111
h479q1 -16 2 -40.5t-14.5 -47.5t-45.5 -23h-477q-1 19 -2 43.5t14 46t44 21.5z" />
    <glyph glyph-name="lozenge" unicode="&#x25ca;" horiz-adv-x="1705" 
d="M387 1255l51 -47q40 4 66 4q147 0 424.5 -62t378.5 -118l51 27q92 47 92 96q0 22 -16 53q155 -75 155 -153q0 -51 -78 -99l-77 -47q26 -68 28 -102l51 -461q3 -27 3 -53q0 -145 -108 -224t-327 -79q-94 0 -198 14q-344 42 -518.5 170t-174.5 322q0 7 5 57l61 479
q8 56 37 105l-84 77q-96 86 -96 142q0 50 56 71t134 21q-24 -17 -24 -43q0 -50 108 -150zM676 295l422 -62q3 0 10 -1t10 -1q66 0 95.5 34t29.5 87q0 23 -4.5 46t-8.5 35t-7 16q-24 -27 -47.5 -36.5t-65.5 -9.5l-451 72q-40 10 -65 28.5t-53 53.5q-3 -3 -7.5 -15t-9 -34
t-4.5 -43q0 -61 36.5 -107t119.5 -63zM1239 707l-10 149l-182 37q-48 0 -48 -35q0 -26 1 -76t1 -75l187 -35q54 0 51 35zM541 987l-11 -156q0 -18 16 -33.5t40 -21.5l198 -33l4 156q0 12 -16 29.5t-35 21.5z" />
    <glyph glyph-name="st" unicode="&#xfb06;" horiz-adv-x="1775" 
d="M1110 283v708q0 139 -38 188.5t-136 49.5q-64 0 -104.5 -23.5t-55 -65t-14 -88t13.5 -100.5q51 -45 51 -112q0 -64 -49 -152q2 10 2 33q0 205 -311 205q-152 0 -208 -49t-56 -160q0 -53 36.5 -82.5t94.5 -39t128 -14.5t140.5 -18t128.5 -40t94.5 -89.5t36.5 -157.5
q0 -136 -102 -218.5t-293 -82.5q-72 0 -134 9.5t-118 32t-88.5 64.5t-32.5 101q0 51 31 127q0 -102 84 -162.5t258 -60.5q84 0 141.5 15.5t87 44.5t42 63t12.5 78q0 51 -22.5 85.5t-61 51.5t-88 26t-104 13.5t-109 11t-104 21.5t-88 40.5t-61 73.5t-22.5 115
q0 150 97.5 230.5t279.5 80.5q124 0 209 -28q-10 49 -9.5 95t20 87t51 72t84.5 49t120 18q135 0 207 -68t72 -219v-55h428q0 -4 -0.5 -11.5t-5 -26.5t-11.5 -33.5t-22.5 -26.5t-36.5 -12h-352v-543q0 -117 63 -182.5t184 -65.5q102 0 175 58.5t73 150.5q37 -67 37 -123
q0 -94 -84 -145.5t-203 -51.5q-155 0 -256.5 81.5t-101.5 226.5z" />
    <glyph glyph-name="CR" horiz-adv-x="573" 
 />
    <glyph glyph-name="kreska" horiz-adv-x="1001" 
d="M408 1221l45 114q22 64 22 107q0 60 -41 90q148 0 148 -102q0 -46 -19.5 -98t-79.5 -181q-14 -4 -32 -4q-50 0 -50 43q0 14 7 31z" />
    <glyph glyph-name="ct" horiz-adv-x="1828" 
d="M1163 283v708q0 139 -38 188.5t-136 49.5q-51 0 -87 -18t-54 -47.5t-24.5 -69t-3.5 -79.5t14 -83q40 -43 40 -98q0 -63 -45 -123q0 97 -82.5 156t-220.5 59q-82 0 -138.5 -17t-86.5 -50t-42.5 -72t-12.5 -91v-383q0 -105 76.5 -166t228.5 -61q135 0 226 58.5t91 166.5
q52 -74 52 -129q0 -68 -58 -116.5t-142 -69.5t-181 -21q-186 0 -296 84.5t-110 233.5v426q0 149 101 233t276 84q138 0 223 -39q-19 61 -10 121t37.5 106.5t90 75.5t146.5 29q135 0 207 -68t72 -219v-55h428q0 -4 -0.5 -11.5t-5 -26.5t-11.5 -33.5t-22.5 -26.5t-36.5 -12
h-352v-543q0 -117 63.5 -182.5t184.5 -65.5q102 0 175 58.5t73 150.5q36 -65 36 -123q0 -94 -83.5 -145.5t-202.5 -51.5q-155 0 -257 81.5t-102 226.5z" />
    <glyph glyph-name="apple" horiz-adv-x="2086" 
d="M2015 856v-516l-229 -135v-283l-494 -262l-245 131l-250 -131l-494 262v283l-231 135v516l231 133v281l494 264l250 -133l245 133l494 -264v-281zM1921 365v464l-209 121v254l-446 236l-219 -121l-226 121l-444 -236v-254l-211 -121v-464l211 -119v-256l444 -238l226 123
l219 -123l446 238v256zM1833 805v-416l-188 -110v-228l-400 -213l-198 109l-205 -109l-398 213v228l-186 110v416l186 110v228l398 213l205 -111l198 111l400 -213v-228zM754 1087v-892q0 -31 20 -54t48 -33.5t56 -16.5t48 -7h20v428h260q40 0 69.5 16t43 38.5t21.5 45
t9 38.5l1 16h-404v272h383q29 0 50 15.5t30.5 37t15.5 43.5t7 38v15h-678z" />
    <glyph glyph-name="commaaccent" horiz-adv-x="512" 
d="M195 -74h59q49 0 58.5 -11.5t9.5 -61.5v-70q0 -223 -109 -223q-40 0 -72 18q35 7 53.5 43.5t18 75.5t-1.5 72z" />
    <glyph glyph-name="f.alt" horiz-adv-x="653" 
d="M154 76v1171q0 136 70 220.5t179 84.5q123 0 142 -75q-90 0 -145.5 -17t-85 -57.5t-39 -91.5t-9.5 -135v-189h398q0 -4 -0.5 -11.5t-5 -26.5t-11.5 -33.5t-22.5 -26.5t-36.5 -12h-322v-891q-5 0 -12.5 0.5t-26.5 5.5t-34 13.5t-27 27t-12 43.5z" />
    <glyph glyph-name="ff.alt" horiz-adv-x="1306" 
d="M807 76v801h-541v-891q-5 0 -12.5 0.5t-26.5 5.5t-34 13.5t-27 27t-12 43.5v1100q0 145 111 231t272 86q77 0 165.5 -28.5t126.5 -80.5q29 78 89.5 123t138.5 45q122 0 141 -75q-72 0 -122 -12.5t-80.5 -34t-47.5 -60.5t-22.5 -83t-5.5 -111v-189h397q0 -4 -0.5 -11.5
t-5 -26.5t-11.5 -33.5t-22.5 -26.5t-36.5 -12h-321v-891q-5 0 -12.5 0.5t-27 5.5t-34.5 13.5t-27 27t-12 43.5zM266 1153v-166h541v227q-18 77 -96 121.5t-176 44.5q-111 0 -190 -58t-79 -169z" />
    <glyph glyph-name="f.alt2" horiz-adv-x="653" 
d="M154 76v1192q0 73 32.5 134t85.5 100.5t117.5 61t130.5 21.5q69 0 135.5 -18t116 -60.5t49.5 -101.5q0 -49 -33 -105q0 81 -83.5 128t-182.5 47q-102 0 -179 -63t-77 -175v-250h398q0 -4 -0.5 -11.5t-5 -26.5t-11.5 -33.5t-22.5 -26.5t-36.5 -12h-322v-891
q-5 0 -12.5 0.5t-26.5 5.5t-34 13.5t-27 27t-12 43.5z" />
    <glyph glyph-name="ff.alt2" horiz-adv-x="1306" 
d="M807 76v801h-541v-891q-5 0 -12.5 0.5t-26.5 5.5t-34 13.5t-27 27t-12 43.5v1100q0 145 111 231t272 86q77 0 166.5 -28.5t127.5 -80.5q41 92 138.5 146.5t204.5 54.5q69 0 135.5 -18t116 -60.5t49.5 -101.5q0 -49 -33 -105q0 81 -83.5 128t-182.5 47q-102 0 -179 -63
t-77 -175v-250h397q0 -4 -0.5 -11.5t-5 -26.5t-11.5 -33.5t-22.5 -26.5t-36.5 -12h-321v-891q-5 0 -12.5 0.5t-27 5.5t-34.5 13.5t-27 27t-12 43.5zM266 1153v-166h541v227q-18 77 -96 121.5t-176 44.5q-111 0 -190 -58t-79 -169z" />
    <glyph glyph-name="zero.tnum" horiz-adv-x="1263" 
d="M1110 1087v-753q0 -175 -128.5 -267t-348.5 -92q-221 0 -350 91.5t-129 267.5v753q0 174 129 266.5t350 92.5q220 0 348.5 -92.5t128.5 -266.5zM991 365v692q0 142 -86.5 210t-271.5 68q-186 0 -273.5 -68t-87.5 -210v-692q0 -143 87 -211t274 -68q185 0 271.5 68
t86.5 211z" />
    <glyph glyph-name="one.tnum" horiz-adv-x="1263" 
d="M420 1419q90 0 173 4.5t121 8.5l38 4q-15 -82 -15 -174v-1149l361 4q1 -19 4 -45t-11 -49t-44 -23h-791q-2 21 -3 46t12 46t40 21h313v1198q-95 -13 -212 -13q-86 0 -127 -41t-41 -98v-8q-31 64 -31 115q0 72 56.5 112.5t156.5 40.5z" />
    <glyph glyph-name="two.tnum" horiz-adv-x="1263" 
d="M176 0v145q0 82 27.5 150t74 116.5t106.5 90t127 75.5t133.5 66.5t126.5 69t106.5 78.5t74 99t27.5 126v35q0 121 -88 200.5t-252 79.5q-115 0 -207.5 -26.5t-151.5 -84.5t-59 -139q-31 73 -31 125t29.5 94.5t76 69t107 44.5t119.5 25t117 7q202 0 330.5 -98.5
t128.5 -260.5v-81q0 -82 -27.5 -150t-74 -116t-106.5 -88.5t-127 -73.5t-133.5 -65.5t-126.5 -69.5t-106.5 -79.5t-74 -101.5t-27.5 -131v-18h696q36 0 65.5 3t41.5 6l12 3q0 -5 -0.5 -13.5t-6 -30t-14.5 -38t-28.5 -30t-46.5 -13.5h-838z" />
    <glyph glyph-name="three.tnum" horiz-adv-x="1263" 
d="M641 1331q-115 0 -207.5 -27t-151.5 -85.5t-59 -139.5q-30 73 -30 127q0 65 43.5 114t113.5 75t143.5 38.5t147.5 12.5q201 0 330 -100.5t129 -262.5v-51q0 -248 -211 -305q118 -32 174.5 -121t56.5 -207v-61q0 -164 -131.5 -263.5t-347.5 -99.5q-80 0 -157.5 13.5
t-148 40.5t-114 76t-43.5 112q0 57 25 117q0 -119 122.5 -181.5t315.5 -62.5q178 0 269 79t91 200q0 129 -65.5 208.5t-198.5 94.5q-1 0 -14.5 1t-20.5 4.5t-18.5 13.5t-18 32t-8.5 55q177 6 250.5 71t73.5 204q0 121 -86.5 199.5t-253.5 78.5z" />
    <glyph glyph-name="four.tnum" horiz-adv-x="1263" 
d="M139 430q4 83 51 191.5t118.5 215t151 209.5t157 188.5t127 137.5t71.5 72q6 0 15 -1t33 -6t42.5 -13.5t33.5 -26t15 -41.5v-815h148q0 -9 -1.5 -21t-7.5 -35.5t-23.5 -39t-43.5 -15.5h-72v-450q-6 0 -15 0.5t-28.5 5.5t-35 13.5t-27.5 26.5t-12 42v362h-697zM836 541
v620q0 35 3.5 75t6.5 62l4 23q-37 -47 -64 -74q-141 -141 -296 -346.5t-209 -359.5h555z" />
    <glyph glyph-name="five.tnum" horiz-adv-x="1263" 
d="M612 -25q-44 0 -93 3.5t-119.5 18t-124 38t-92 68.5t-38.5 104q0 44 27 127q0 -119 122.5 -181.5t317.5 -62.5q187 0 273 65t86 210v143q0 133 -89 205.5t-270 72.5h-260l-106 -4q8 31 8 131v334q0 29 1.5 48.5t7.5 45t17 41t33 26.5t52 11h530q33 0 62.5 4.5t42.5 8.5
l14 4q0 -5 -0.5 -14t-6 -31t-14.5 -39t-28.5 -31t-46.5 -14h-545v-281q0 -38 -3.5 -71.5t-7.5 -47.5l-4 -14h250q482 0 482 -358v-197q0 -175 -129.5 -269t-348.5 -94z" />
    <glyph glyph-name="six.tnum" horiz-adv-x="1263" 
d="M1110 504v-170q0 -175 -128.5 -267t-348.5 -92q-221 0 -350 91.5t-129 267.5v743q0 175 130 272t349 97q65 0 123 -5t123 -19.5t111.5 -38.5t77 -66.5t30.5 -97.5q0 -62 -27 -125q0 60 -36 106.5t-97.5 74.5t-139 42t-165.5 14q-359 0 -359 -284v-195l-6 -158q1 4 4.5 10
t16.5 23.5t30 33t48.5 35t69.5 33.5t94.5 23.5t121.5 9.5q206 0 331.5 -92t125.5 -266zM633 86q187 0 271.5 66t84.5 213v108q0 146 -82 212.5t-254 66.5q-379 0 -379 -263v-124q0 -147 85.5 -213t273.5 -66z" />
    <glyph glyph-name="seven.tnum" horiz-adv-x="1263" 
d="M1024 1309h-754q-34 0 -64 -4.5t-43 -8.5l-13 -4q0 5 0.5 14t6 31t14.5 39t29.5 31t47.5 14h907q0 -133 -39.5 -256.5t-102.5 -220.5t-139 -189t-151.5 -180t-137.5 -176t-100 -194t-36 -217q-12 -8 -37 -8q-80 0 -80 63q0 100 34 197.5t90 181t124 166t139.5 166.5
t133.5 168t109 184.5t62 202.5z" />
    <glyph glyph-name="eight.tnum" horiz-adv-x="1263" 
d="M154 334v76q0 107 49.5 181.5t154.5 127.5q-100 50 -142 120t-42 179v69q0 173 126 266t333 93q205 0 331 -93t126 -266v-69q0 -109 -41.5 -179t-141.5 -120q104 -53 153.5 -128t49.5 -181v-70q0 -176 -129 -270.5t-348 -94.5q-221 0 -350 91.5t-129 267.5zM991 373
q0 147 -87 220t-271 73q-186 0 -273.5 -74t-87.5 -225q0 -146 86.5 -213.5t274.5 -67.5q185 0 271.5 70t86.5 217zM633 1335q-173 0 -256.5 -68t-83.5 -214q0 -143 73.5 -210t249.5 -67h33q174 0 248 67t74 210q0 146 -83 214t-255 68z" />
    <glyph glyph-name="nine.tnum" horiz-adv-x="1263" 
d="M154 918v169q0 175 128.5 267t348.5 92q221 0 350 -91.5t129 -267.5v-743q0 -175 -130 -272t-349 -97q-65 0 -123.5 5t-123 20t-111 39t-77 66.5t-30.5 97.5q0 62 27 125q0 -79 63 -134.5t159 -79.5t216 -24q358 0 358 285v194l6 158q-1 -4 -4.5 -10t-16.5 -23.5t-30 -33
t-48.5 -35t-69.5 -33.5t-94.5 -23.5t-121.5 -9.5q-206 0 -331 92.5t-125 266.5zM631 1335q-187 0 -272 -65.5t-85 -212.5v-109q0 -146 82 -212t254 -66q379 0 379 262v125q0 147 -85 212.5t-273 65.5z" />
    </font>
</defs>
</svg>
