<?xml version="1.0" encoding="utf-8"?>
<!-- Generator: Adobe Illustrator 16.0.2, SVG Export Plug-In . SVG Version: 6.00 Build 0)  -->
<!DOCTYPE svg PUBLIC "-//W3C//DTD SVG 1.1//EN" "http://www.w3.org/Graphics/SVG/1.1/DTD/svg11.dtd">
<svg version="1.1" id="Layer_1" xmlns="http://www.w3.org/2000/svg" xmlns:xlink="http://www.w3.org/1999/xlink" x="0px" y="0px"
	 width="66px" height="66.075px" viewBox="0 0 66 66.075" enable-background="new 0 0 66 66.075" xml:space="preserve">
<g>
	<g>
		<linearGradient id="SVGID_1_" gradientUnits="userSpaceOnUse" x1="23.333" y1="33.0571" x2="42.667" y2="33.0571">
			<stop  offset="0" style="stop-color:#C9202A"/>
			<stop  offset="1" style="stop-color:#B5191E"/>
		</linearGradient>
		<path fill="url(#SVGID_1_)" d="M33,23.389c-5.331,0-9.667,4.338-9.667,9.669c0,5.332,4.336,9.667,9.667,9.667
			s9.667-4.336,9.667-9.667C42.667,27.727,38.331,23.389,33,23.389z M33,38.858c-3.199,0-5.801-2.602-5.801-5.8
			c0-3.198,2.602-5.801,5.801-5.801s5.801,2.603,5.801,5.801C38.801,36.256,36.199,38.858,33,38.858z"/>
		<linearGradient id="SVGID_2_" gradientUnits="userSpaceOnUse" x1="30.2666" y1="33.0581" x2="35.7334" y2="33.0581">
			<stop  offset="0" style="stop-color:#C9202A"/>
			<stop  offset="1" style="stop-color:#B5191E"/>
		</linearGradient>
		<path fill="url(#SVGID_2_)" d="M33,35.793l-2.733-2.736L33,30.323l2.733,2.734L33,35.793z"/>
		<linearGradient id="SVGID_3_" gradientUnits="userSpaceOnUse" x1="7.8613" y1="33.0376" x2="58.1367" y2="33.0376">
			<stop  offset="0" style="stop-color:#C9202A"/>
			<stop  offset="1" style="stop-color:#B5191E"/>
		</linearGradient>
		<path fill="url(#SVGID_3_)" d="M50.286,45.549c0.22-3.885,0.043-7.76-0.543-11.606c-1.469-9.669-5.445-18.88-11.818-27.377L33,0
			l-4.925,6.566c-6.373,8.497-10.35,17.708-11.818,27.377c-0.586,3.846-0.765,7.721-0.543,11.606
			c-2.243,1.619-4.123,3.729-5.471,6.152c-1.559,2.801-2.382,5.977-2.382,9.184v5.184l4.017-2.943
			c2.009-1.33,4.287-2.227,6.658-2.627c0.732,2.281,1.274,3.586,2.009,5.576c1.275-0.854,4.341-4.639,10.521-5.379v5.363h3.867
			v-5.363c6.199,0.742,9.259,4.535,10.521,5.379c0.739-2.004,1.276-3.293,2.009-5.576c2.371,0.4,4.649,1.297,6.656,2.627
			l4.017,2.943v-5.184C58.137,54.811,55.219,49.108,50.286,45.549z M11.893,58.655c0.478-3.223,1.978-6.174,4.277-8.447
			c0.305,2.186,0.734,4.371,1.292,6.557C15.526,57.131,13.65,57.766,11.893,58.655z M43.637,59.764
			c-2.682-1.68-5.666-2.664-8.703-2.959V46.721h-3.867v10.084c-3.037,0.295-6.021,1.279-8.703,2.959
			c-5.769-17.586-2.683-35.561,8.805-50.876L33,6.445l1.832,2.442C46.317,24.203,49.404,42.178,43.637,59.764z M48.538,56.764
			c0.558-2.186,0.987-4.371,1.292-6.557c2.3,2.273,3.8,5.225,4.275,8.447C52.35,57.766,50.474,57.131,48.538,56.764z"/>
		<linearGradient id="SVGID_4_" gradientUnits="userSpaceOnUse" x1="0" y1="17.5889" x2="11.7305" y2="17.5889">
			<stop  offset="0" style="stop-color:#C9202A"/>
			<stop  offset="1" style="stop-color:#B5191E"/>
		</linearGradient>
		<path fill="url(#SVGID_4_)" d="M0,15.655h11.73v3.867H0V15.655z"/>
		<linearGradient id="SVGID_5_" gradientUnits="userSpaceOnUse" x1="54.2695" y1="17.5889" x2="66" y2="17.5889">
			<stop  offset="0" style="stop-color:#C9202A"/>
			<stop  offset="1" style="stop-color:#B5191E"/>
		</linearGradient>
		<path fill="url(#SVGID_5_)" d="M54.27,15.655H66v3.867H54.27V15.655z"/>
		<linearGradient id="SVGID_6_" gradientUnits="userSpaceOnUse" x1="2.3906" y1="6.1479" x2="14.5391" y2="6.1479">
			<stop  offset="0" style="stop-color:#C9202A"/>
			<stop  offset="1" style="stop-color:#B5191E"/>
		</linearGradient>
		<path fill="url(#SVGID_6_)" d="M4.024,1.944l10.515,4.902l-1.633,3.505L2.391,5.449L4.024,1.944z"/>
		<linearGradient id="SVGID_7_" gradientUnits="userSpaceOnUse" x1="51.4609" y1="29.0303" x2="63.6094" y2="29.0303">
			<stop  offset="0" style="stop-color:#C9202A"/>
			<stop  offset="1" style="stop-color:#B5191E"/>
		</linearGradient>
		<path fill="url(#SVGID_7_)" d="M61.974,33.234l-10.513-4.902l1.633-3.506l10.516,4.903L61.974,33.234z"/>
		<linearGradient id="SVGID_8_" gradientUnits="userSpaceOnUse" x1="2.3906" y1="29.0288" x2="14.5391" y2="29.0288">
			<stop  offset="0" style="stop-color:#C9202A"/>
			<stop  offset="1" style="stop-color:#B5191E"/>
		</linearGradient>
		<path fill="url(#SVGID_8_)" d="M2.391,29.729l10.514-4.903l1.635,3.505L4.024,33.232L2.391,29.729z"/>
		<linearGradient id="SVGID_9_" gradientUnits="userSpaceOnUse" x1="51.4609" y1="6.147" x2="63.6094" y2="6.147">
			<stop  offset="0" style="stop-color:#C9202A"/>
			<stop  offset="1" style="stop-color:#B5191E"/>
		</linearGradient>
		<path fill="url(#SVGID_9_)" d="M61.976,1.943l1.634,3.504l-10.516,4.903l-1.633-3.504L61.976,1.943z"/>
	</g>
</g>
</svg>
