<?xml version="1.0" encoding="utf-8"?>
<!-- Generator: Adobe Illustrator 16.0.2, SVG Export Plug-In . SVG Version: 6.00 Build 0)  -->
<!DOCTYPE svg PUBLIC "-//W3C//DTD SVG 1.1//EN" "http://www.w3.org/Graphics/SVG/1.1/DTD/svg11.dtd">
<svg version="1.1" id="Layer_1" xmlns="http://www.w3.org/2000/svg" xmlns:xlink="http://www.w3.org/1999/xlink" x="0px" y="0px"
	 width="66px" height="66px" viewBox="0 0 66 66" enable-background="new 0 0 66 66" xml:space="preserve">
<g>
	<g>
		<linearGradient id="SVGID_1_" gradientUnits="userSpaceOnUse" x1="19.2119" y1="18.542" x2="46.79" y2="18.542">
			<stop  offset="0" style="stop-color:#C9202A"/>
			<stop  offset="1" style="stop-color:#B5191E"/>
		</linearGradient>
		<path fill="url(#SVGID_1_)" d="M24.478,31.656L33,27.176l8.522,4.48l-1.628-9.489l6.896-6.721l-9.528-1.384L33,5.428l-4.26,8.635
			l-9.528,1.384l6.895,6.721L24.478,31.656z M31.307,17.597L33,14.166l1.693,3.431l3.786,0.55l-2.74,2.67l0.647,3.77L33,22.807
			l-3.386,1.78l0.647-3.77l-2.739-2.67L31.307,17.597z"/>
		<linearGradient id="SVGID_2_" gradientUnits="userSpaceOnUse" x1="0" y1="32.9995" x2="66" y2="32.9995">
			<stop  offset="0" style="stop-color:#C9202A"/>
			<stop  offset="1" style="stop-color:#B5191E"/>
		</linearGradient>
		<path fill="url(#SVGID_2_)" d="M9.667,7.863C4.337,7.863,0,12.201,0,17.532s4.337,9.667,9.667,9.667h2.744
			c2.022,7.085,7.655,12.676,14.788,14.674v8.528H20l-3.867,11.73H11.73V66H54.27v-3.867h-4.401l-3.869-11.73h-7.198v-8.538
			c7.073-2.008,12.657-7.591,14.666-14.665h2.865c5.332,0,9.668-4.336,9.668-9.667s-4.336-9.669-9.668-9.669H54.27V3.867h3.997V0
			C55.535,0,11.726,0,7.735,0v3.867h3.867v3.996H9.667z M9.667,23.333c-3.198,0-5.799-2.603-5.799-5.801
			c0-3.199,2.601-5.801,5.799-5.801h1.935v9.668c0,0.652,0.03,1.297,0.088,1.934H9.667z M45.796,62.132H20.205l2.593-7.863h20.407
			L45.796,62.132z M34.934,50.402h-3.867v-7.821c0.636,0.058,1.28,0.087,1.933,0.087s1.296-0.029,1.934-0.087V50.402z M56.332,11.73
			c3.198,0,5.801,2.603,5.801,5.801c0,3.198-2.603,5.801-5.801,5.801h-2.15c0.058-0.637,0.088-1.282,0.088-1.934V11.73H56.332z
			 M50.403,3.867v17.532c0,9.595-7.808,17.404-17.403,17.404c-9.666,0-17.531-7.809-17.531-17.404V3.867H50.403z"/>
	</g>
</g>
</svg>
