<?xml version="1.0" encoding="utf-8"?>
<!-- Generator: Adobe Illustrator 16.0.2, SVG Export Plug-In . SVG Version: 6.00 Build 0)  -->
<!DOCTYPE svg PUBLIC "-//W3C//DTD SVG 1.1//EN" "http://www.w3.org/Graphics/SVG/1.1/DTD/svg11.dtd">
<svg version="1.1" id="Layer_1" xmlns="http://www.w3.org/2000/svg" xmlns:xlink="http://www.w3.org/1999/xlink" x="0px" y="0px"
	 width="66px" height="66.075px" viewBox="0 0 66 66.075" enable-background="new 0 0 66 66.075" xml:space="preserve">
<g>
	<linearGradient id="SVGID_1_" gradientUnits="userSpaceOnUse" x1="0" y1="33.0371" x2="66" y2="33.0371">
		<stop  offset="0" style="stop-color:#C9202A"/>
		<stop  offset="1" style="stop-color:#B5191E"/>
	</linearGradient>
	<path fill="url(#SVGID_1_)" d="M66,62.169h-3.866V33.837L66,37.706V15.634H43.93l6.934,6.934l-6.682,6.682L29.216,18.12
		L3.867,36.138V0.037H0v66.001h66V62.169z M27.199,33.802v28.367H15.598v-20.12L27.199,33.802z M31.067,33.986l11.731,8.727v19.457
		H31.067V33.986z M46.663,43.173l11.604-11.602v30.598H46.663V43.173z M29.163,22.901l15.391,11.446l11.779-11.779l-3.065-3.066
		h8.866v8.867l-3.067-3.067l-14.159,14.16L29.102,27.705L3.867,45.644v-4.761L29.163,22.901z M3.867,50.389l7.863-5.59v17.37H3.867
		V50.389z"/>
</g>
</svg>
