<?xml version="1.0" encoding="utf-8"?>
<!-- Generator: Adobe Illustrator 16.0.2, SVG Export Plug-In . SVG Version: 6.00 Build 0)  -->
<!DOCTYPE svg PUBLIC "-//W3C//DTD SVG 1.1//EN" "http://www.w3.org/Graphics/SVG/1.1/DTD/svg11.dtd">
<svg version="1.1" id="Layer_1" xmlns="http://www.w3.org/2000/svg" xmlns:xlink="http://www.w3.org/1999/xlink" x="0px" y="0px"
	 width="58.01px" height="66px" viewBox="0 0 58.01 66" enable-background="new 0 0 58.01 66" xml:space="preserve">
<g>
	<g>
		<linearGradient id="SVGID_1_" gradientUnits="userSpaceOnUse" x1="0" y1="33" x2="58.0098" y2="33">
			<stop  offset="0" style="stop-color:#C9202A"/>
			<stop  offset="1" style="stop-color:#B5191E"/>
		</linearGradient>
		<path fill="url(#SVGID_1_)" d="M48.94,15.799l3.034-3.035l2.733,2.736l2.735-2.736l-8.204-8.202l-2.734,2.734l2.734,2.736
			l-3.291,3.288c-3.336-2.41-7.12-4.067-11.143-4.88V3.865h3.867V0H19.337v3.865h3.867V8.44c-4.023,0.813-7.807,2.47-11.145,4.88
			l-3.29-3.288l2.735-2.736L8.77,4.562l-8.203,8.202L3.301,15.5l2.734-2.736l3.034,3.035C3.365,21.204,0,28.664,0,36.868
			C0,52.932,13.01,66,29.005,66C44.997,66,58.01,52.932,58.01,36.868C58.01,29.06,54.93,21.476,48.94,15.799z M27.07,3.865h3.867
			v4.062c-0.64-0.042-1.285-0.064-1.933-0.064s-1.293,0.022-1.935,0.064V3.865z M29.005,62.135
			c-13.861,0-25.138-11.337-25.138-25.267c0-13.862,11.276-25.139,25.138-25.139c13.86,0,25.137,11.276,25.137,25.139
			C54.142,50.798,42.865,62.135,29.005,62.135z"/>
		<linearGradient id="SVGID_2_" gradientUnits="userSpaceOnUse" x1="23.2041" y1="29.1328" x2="34.8057" y2="29.1328">
			<stop  offset="0" style="stop-color:#C9202A"/>
			<stop  offset="1" style="stop-color:#B5191E"/>
		</linearGradient>
		<path fill="url(#SVGID_2_)" d="M30.938,31.398V15.598H27.07v15.801c-2.25,0.798-3.866,2.947-3.866,5.47
			c0,3.197,2.602,5.8,5.801,5.8c3.198,0,5.801-2.603,5.801-5.8C34.806,34.346,33.19,32.196,30.938,31.398z M29.005,38.802
			c-1.066,0-1.935-0.869-1.935-1.934c0-1.067,0.868-1.935,1.935-1.935s1.933,0.867,1.933,1.935
			C30.938,37.933,30.071,38.802,29.005,38.802z"/>
		<linearGradient id="SVGID_3_" gradientUnits="userSpaceOnUse" x1="27.0703" y1="56.2041" x2="30.9375" y2="56.2041">
			<stop  offset="0" style="stop-color:#C9202A"/>
			<stop  offset="1" style="stop-color:#B5191E"/>
		</linearGradient>
		<path fill="url(#SVGID_3_)" d="M27.07,54.271h3.867v3.867H27.07V54.271z"/>
		<linearGradient id="SVGID_4_" gradientUnits="userSpaceOnUse" x1="7.7344" y1="36.8672" x2="11.6016" y2="36.8672">
			<stop  offset="0" style="stop-color:#C9202A"/>
			<stop  offset="1" style="stop-color:#B5191E"/>
		</linearGradient>
		<path fill="url(#SVGID_4_)" d="M7.734,34.934h3.867v3.868H7.734V34.934z"/>
		<linearGradient id="SVGID_5_" gradientUnits="userSpaceOnUse" x1="46.4082" y1="36.8672" x2="50.2764" y2="36.8672">
			<stop  offset="0" style="stop-color:#C9202A"/>
			<stop  offset="1" style="stop-color:#B5191E"/>
		</linearGradient>
		<path fill="url(#SVGID_5_)" d="M46.408,34.934h3.868v3.868h-3.868V34.934z"/>
		<linearGradient id="SVGID_6_" gradientUnits="userSpaceOnUse" x1="12.5957" y1="50.541" x2="18.0664" y2="50.541">
			<stop  offset="0" style="stop-color:#C9202A"/>
			<stop  offset="1" style="stop-color:#B5191E"/>
		</linearGradient>
		<path fill="url(#SVGID_6_)" d="M15.332,53.275l-2.736-2.734l2.736-2.735l2.734,2.735L15.332,53.275z"/>
		<linearGradient id="SVGID_7_" gradientUnits="userSpaceOnUse" x1="39.9434" y1="23.1938" x2="45.4121" y2="23.1938">
			<stop  offset="0" style="stop-color:#C9202A"/>
			<stop  offset="1" style="stop-color:#B5191E"/>
		</linearGradient>
		<path fill="url(#SVGID_7_)" d="M42.678,25.928l-2.734-2.732l2.734-2.735l2.734,2.735L42.678,25.928z"/>
		<linearGradient id="SVGID_8_" gradientUnits="userSpaceOnUse" x1="39.9434" y1="50.541" x2="45.4121" y2="50.541">
			<stop  offset="0" style="stop-color:#C9202A"/>
			<stop  offset="1" style="stop-color:#B5191E"/>
		</linearGradient>
		<path fill="url(#SVGID_8_)" d="M42.678,53.275l-2.734-2.734l2.734-2.735l2.734,2.735L42.678,53.275z"/>
		<linearGradient id="SVGID_9_" gradientUnits="userSpaceOnUse" x1="12.5957" y1="23.1938" x2="18.0664" y2="23.1938">
			<stop  offset="0" style="stop-color:#C9202A"/>
			<stop  offset="1" style="stop-color:#B5191E"/>
		</linearGradient>
		<path fill="url(#SVGID_9_)" d="M15.332,25.928l-2.736-2.732l2.736-2.735l2.734,2.735L15.332,25.928z"/>
	</g>
</g>
</svg>
