<?xml version="1.0" encoding="utf-8"?>
<!-- Generator: Adobe Illustrator 16.0.2, SVG Export Plug-In . SVG Version: 6.00 Build 0)  -->
<!DOCTYPE svg PUBLIC "-//W3C//DTD SVG 1.1//EN" "http://www.w3.org/Graphics/SVG/1.1/DTD/svg11.dtd">
<svg version="1.1" id="Layer_1" xmlns="http://www.w3.org/2000/svg" xmlns:xlink="http://www.w3.org/1999/xlink" x="0px" y="0px"
	 width="32.4px" height="32.4px" viewBox="289.8 379.8 32.4 32.4" enable-background="new 289.8 379.8 32.4 32.4"
	 xml:space="preserve">
<g>
	<g>
		<path fill="#B5111B" stroke="#B5111B" stroke-width="0.4" stroke-miterlimit="10" d="M301.958,388.084h-2.021
			c-0.279,0-0.505,0.227-0.505,0.505c0,0.279,0.226,0.505,0.505,0.505h1.457c-0.229,0.964-1.097,1.684-2.13,1.684
			c-1.208,0-2.189-0.982-2.189-2.189c0-1.207,0.982-2.189,2.189-2.189c0.534,0,1.048,0.194,1.448,0.547
			c0.209,0.185,0.528,0.165,0.713-0.044c0.185-0.209,0.165-0.529-0.044-0.713c-0.584-0.516-1.336-0.799-2.116-0.799
			c-1.765,0-3.2,1.436-3.2,3.2c0,1.765,1.436,3.2,3.2,3.2c1.764,0,3.2-1.436,3.2-3.2
			C302.464,388.311,302.237,388.084,301.958,388.084z"/>
	</g>
</g>
<g>
	<g>
		<path fill="#B5111B" stroke="#B5111B" stroke-width="0.4" stroke-miterlimit="10" d="M314.084,382.695c-1.765,0-3.2,1.436-3.2,3.2
			c0,1.765,1.436,3.2,3.2,3.2s3.2-1.436,3.2-3.2C317.284,384.13,315.849,382.695,314.084,382.695z M314.084,388.084
			c-1.207,0-2.189-0.982-2.189-2.189c0-1.207,0.982-2.189,2.189-2.189s2.189,0.982,2.189,2.189
			C316.274,387.102,315.291,388.084,314.084,388.084z"/>
	</g>
</g>
<g>
	<g>
		<path fill="#B5111B" stroke="#B5111B" stroke-width="0.4" stroke-miterlimit="10" d="M320.177,388.579
			c0.297-0.716,0.476-1.401,0.476-2.01c0-3.622-2.946-6.568-6.568-6.568c-1.127,0-2.188,0.285-3.115,0.787
			c-1.6-0.522-3.271-0.787-4.969-0.787c-4.273,0-8.292,1.664-11.313,4.687C291.664,387.708,290,391.727,290,396
			s1.664,8.292,4.687,11.313c3.022,3.022,7.04,4.687,11.313,4.687s8.292-1.664,11.313-4.687c3.022-3.021,4.687-7.04,4.687-11.313
			C322,393.416,321.369,390.853,320.177,388.579z M314.084,381.011c3.064,0,5.558,2.493,5.558,5.558
			c0,2.404-3.726,6.793-5.558,8.708c-1.832-1.914-5.558-6.302-5.558-8.708C308.527,383.504,311.02,381.011,314.084,381.011z
			 M291.01,396c0-8.265,6.725-14.989,14.99-14.989c1.321,0,2.625,0.171,3.888,0.509c-1.448,1.206-2.372,3.021-2.372,5.049
			c0,0.583,0.165,1.236,0.439,1.919l-16.438,11.38C291.188,398.633,291.01,397.337,291.01,396z M306,410.989
			c-5.29,0-9.949-2.755-12.618-6.905l4.36-3.186c0.248-0.181,0.276-0.541,0.059-0.758c-0.002-0.002-0.005-0.005-0.007-0.007
			c-0.174-0.175-0.45-0.195-0.648-0.051l-4.282,3.129c-0.408-0.741-0.756-1.52-1.036-2.33l16.558-11.463
			c0.292,0.566,0.641,1.142,1.018,1.707l-10.255,7.494c-0.248,0.181-0.275,0.54-0.059,0.758c0.002,0.002,0.005,0.005,0.007,0.007
			c0.174,0.174,0.45,0.195,0.649,0.05l2.022-1.478l8.656,12.366C309.026,410.756,307.539,410.989,306,410.989z M311.415,409.977
			l-8.831-12.616l1.902-1.391l9.077,12.967C312.88,409.338,312.162,409.687,311.415,409.977z M314.418,408.396l-9.116-13.023
			l4.677-3.418c1.673,2.307,3.604,4.259,3.747,4.401c0.095,0.095,0.224,0.149,0.357,0.149c0.135,0,0.264-0.054,0.358-0.149
			c0.187-0.188,3.458-3.492,5.176-6.626c0.898,1.954,1.371,4.104,1.371,6.27C320.99,401.146,318.382,405.696,314.418,408.396z"/>
	</g>
</g>
</svg>
