<?xml version="1.0" encoding="utf-8"?>
<!-- Generator: Adobe Illustrator 16.0.2, SVG Export Plug-In . SVG Version: 6.00 Build 0)  -->
<!DOCTYPE svg PUBLIC "-//W3C//DTD SVG 1.1//EN" "http://www.w3.org/Graphics/SVG/1.1/DTD/svg11.dtd">
<svg version="1.1" id="Layer_1" xmlns="http://www.w3.org/2000/svg" xmlns:xlink="http://www.w3.org/1999/xlink" x="0px" y="0px"
	 width="63.999px" height="64.008px" viewBox="223.999 223.996 63.999 64.008"
	 enable-background="new 223.999 223.996 63.999 64.008" xml:space="preserve">
<g>
	<path fill="#8CC63F" d="M287.952,265.065l-0.571-2.496c-0.197-0.859-0.98-1.456-1.858-1.416l-1.859,0.082
		c-0.49-0.673-1.066-1.27-1.724-1.783l0.197-1.733c0.1-0.876-0.439-1.698-1.281-1.954l-2.445-0.745
		c-0.841-0.256-1.747,0.124-2.154,0.904l-0.867,1.658c-0.83,0.092-1.634,0.294-2.41,0.606l-1.397-1.031
		c-0.708-0.521-1.689-0.465-2.333,0.138l-1.874,1.751c-0.643,0.6-0.768,1.574-0.298,2.316l0.997,1.575
		c-0.332,0.747-0.56,1.528-0.68,2.333l-9.487-11.143c-0.554-0.65-1.651-0.247-1.651,0.608v9.229
		c-1.886-1.607-4.262-2.518-6.804-2.57l-3.273-1.709v-0.449c4.538-1.634,7.833-5.891,8.05-10.931h0.765
		c2.556,0,4.005-3.093,2.343-5.054c0.426-0.45,0.688-1.055,0.688-1.722v-1.836c0-1.589-1.455-2.602-2.936-2.509
		c-0.206-2.503-1.228-4.866-2.935-6.734c-1.768-1.936-4.127-3.19-6.695-3.577v-0.368c0-1.383-1.126-2.508-2.509-2.508h-1.836
		c-1.383,0-2.508,1.125-2.508,2.508v0.369c-1.502,0.228-2.958,0.757-4.252,1.554c-1.059,0.651-0.008,2.207,0.982,1.597
		c1-0.615,2.115-1.04,3.269-1.25v6.563c0,1.019-0.829,1.848-1.848,1.848h-5.9c0.112-1.122,0.42-2.223,0.912-3.229
		c0.532-1.089-1.153-1.912-1.685-0.823c-0.615,1.26-0.993,2.645-1.11,4.051c-1.487-0.144-2.936,0.937-2.936,2.508v1.836
		c0,0.685,0.276,1.306,0.723,1.759c-1.616,1.969-0.16,5.017,2.375,5.017h0.764c0.217,5.038,3.508,9.292,8.041,10.927v0.453
		l-3.272,1.709c-5.902,0.113-10.668,4.948-10.668,10.877v0.039v14.749c0,1.212,1.875,1.212,1.875,0V272.31
		c0-4.466,3.254-8.183,7.515-8.912l-2.479,5.682c-0.138,0.317-0.091,0.685,0.124,0.956l2.316,2.933l-2.397,4.257
		c-0.179,0.317-0.157,0.71,0.055,1.006l6.709,9.374c0.732,1.023,2.212-0.131,1.524-1.092l-6.361-8.888l2.413-4.285
		c0.187-0.331,0.155-0.742-0.081-1.041l-2.357-2.984l1.846-4.231l6.36,21.995c0.026,1.217,1.948,1.217,1.973,0l6.365-21.985
		l1.842,4.222l-2.357,2.984c-0.235,0.298-0.268,0.709-0.081,1.041l2.413,4.284l-6.361,8.889c-0.688,0.96,0.792,2.115,1.525,1.091
		l6.708-9.374c0.212-0.296,0.233-0.688,0.055-1.005l-2.397-4.258l2.315-2.932c0.214-0.271,0.262-0.639,0.124-0.956l-2.483-5.691
		c2.185,0.356,4.147,1.5,5.555,3.265v20.406c0,0.518,0.42,0.938,0.938,0.938h14.733c1.212,0,1.212-1.875,0-1.875H258.13v-28.839
		l16.9,19.851c0.001,0.001,0.002,0.002,0.002,0.003l7.65,8.985h-5.895c-1.212,0-1.212,1.875,0,1.875h7.924
		c0.713,0,1.264-0.9,0.714-1.546l-8.547-10.039l0.422-0.808c0.83-0.092,1.634-0.294,2.41-0.606l1.397,1.031
		c0.708,0.522,1.689,0.465,2.333-0.137l1.874-1.751c0.643-0.601,0.768-1.575,0.298-2.317l-0.997-1.575
		c0.341-0.767,0.572-1.568,0.689-2.396l1.597-0.7C287.707,266.8,288.149,265.922,287.952,265.065L287.952,265.065z M239.815,259.742
		c0.729,0.137,1.48,0.209,2.249,0.209c0.765,0,1.514-0.071,2.24-0.207v0.286l-2.244,4.473l-2.244-4.473V259.742z M246.266,269.035
		l-3.041-2.677l2.426-4.834l2.421,1.266L246.266,269.035z M242.059,267.829l3.632,3.197l-3.66,12.657l-3.649-12.618L242.059,267.829
		z M254.992,246.429h-0.752v-2.393h0.752C256.538,244.037,256.538,246.429,254.992,246.429z M250.768,231.714
		c1.39,1.522,2.238,3.437,2.438,5.47h-5.901c-1.019,0-1.848-0.829-1.848-1.848v-6.563
		C247.492,229.143,249.356,230.168,250.768,231.714L250.768,231.714z M227.911,239.692c0-0.349,0.284-0.634,0.634-0.634h8.21
		c2.053,0,3.723-1.67,3.723-3.723v-8.831c0-0.349,0.284-0.633,0.633-0.633h1.836c0.35,0,0.634,0.284,0.634,0.633v8.831
		c0,2.053,1.67,3.723,3.723,3.723h8.21c0.35,0,0.633,0.284,0.633,0.634v1.836c0,0.349-0.284,0.633-0.633,0.633h-26.97
		c-0.35,0-0.634-0.284-0.634-0.633V239.692z M227.938,245.233c0-0.659,0.537-1.196,1.196-1.196h0.752v2.393h-0.752
		C228.474,246.429,227.938,245.893,227.938,245.233z M231.761,247.774v-3.737h20.604v3.737c0,5.681-4.622,10.302-10.302,10.302
		S231.761,253.455,231.761,247.774L231.761,247.774z M238.466,261.524l2.426,4.834l-3.083,2.713l-1.794-6.266L238.466,261.524z
		 M284.058,266.354c-0.316,0.139-0.53,0.439-0.558,0.784c-0.076,0.959-0.341,1.882-0.786,2.742c-0.153,0.296-0.138,0.651,0.04,0.933
		l1.255,1.982l-1.82,1.7l-1.801-1.329c-0.279-0.205-0.648-0.24-0.962-0.091c-0.853,0.408-1.82,0.653-2.763,0.699
		c-0.332,0.017-0.631,0.208-0.784,0.503l-0.312,0.595l-6.872-8.072c0.28-0.149,0.469-0.431,0.494-0.751
		c0.076-0.959,0.341-1.882,0.786-2.742c0.153-0.296,0.138-0.651-0.04-0.933l-1.255-1.982l1.82-1.7l1.801,1.328
		c0.278,0.206,0.648,0.242,0.961,0.092c0.854-0.408,1.821-0.653,2.764-0.7c0.332-0.016,0.631-0.207,0.784-0.502l1.09-2.085
		l2.369,0.722l-0.254,2.234c-0.039,0.344,0.115,0.683,0.4,0.879c0.795,0.545,1.46,1.231,1.978,2.04
		c0.18,0.282,0.496,0.446,0.831,0.432l2.338-0.103l0.555,2.421L284.058,266.354z"/>
	<path fill="#8CC63F" d="M278.851,262.582c-1.069-0.668-2.334-0.878-3.563-0.592c-2.534,0.591-4.123,3.134-3.543,5.671
		c0.575,2.511,3.149,4.118,5.658,3.534c2.534-0.59,4.124-3.134,3.543-5.67C280.663,264.295,279.919,263.25,278.851,262.582z
		 M276.977,269.369c-1.501,0.351-3.064-0.641-3.404-2.127c-0.352-1.532,0.609-3.069,2.14-3.426c1.496-0.349,3.062,0.627,3.405,2.127
		C279.469,267.477,278.508,269.013,276.977,269.369z"/>
	<path fill="#8CC63F" d="M263.691,248.521l1.071,0.519c0.081,0.515,0.221,1.016,0.419,1.499l-0.629,0.903
		c-0.435,0.623-0.362,1.467,0.171,2.006l1.286,1.301c0.531,0.538,1.374,0.621,2.002,0.197l0.993-0.67
		c0.489,0.186,0.993,0.314,1.513,0.385l0.466,0.992c0.301,0.638,1.144,1.03,1.824,0.851l1.775-0.464
		c0.732-0.192,1.227-0.879,1.174-1.634l-0.082-1.19c0.409-0.33,0.776-0.704,1.098-1.118l1.097,0.09
		c0.757,0.063,1.448-0.422,1.649-1.151l0.489-1.766c0.203-0.732-0.146-1.504-0.829-1.835l-1.071-0.52
		c-0.08-0.515-0.221-1.016-0.418-1.498l0.629-0.903c0.435-0.623,0.362-1.466-0.171-2.006l-1.286-1.301
		c-0.532-0.538-1.374-0.621-2.003-0.197l-0.993,0.671c-0.489-0.187-0.993-0.315-1.512-0.385l-0.467-0.991
		c-0.322-0.686-1.09-1.044-1.824-0.852l-1.774,0.465c-0.732,0.192-1.227,0.879-1.175,1.633l0.083,1.19
		c-0.41,0.33-0.777,0.704-1.098,1.118L265,243.77c-0.755-0.063-1.447,0.422-1.649,1.151l-0.489,1.766
		C262.659,247.418,263.008,248.19,263.691,248.521z M265.092,245.659l1.384,0.113c0.343,0.029,0.676-0.135,0.864-0.425
		c0.354-0.548,0.81-1.013,1.354-1.383c0.275-0.188,0.431-0.507,0.407-0.84L269,241.67l1.296-0.339l0.587,1.249
		c0.148,0.314,0.457,0.521,0.803,0.538c0.658,0.034,1.283,0.191,1.876,0.474c0.3,0.143,0.653,0.117,0.929-0.069l1.212-0.818
		l0.934,0.945l-0.793,1.138c-0.198,0.284-0.223,0.655-0.064,0.964c0.298,0.582,0.474,1.206,0.521,1.854
		c0.024,0.333,0.225,0.629,0.526,0.775l1.307,0.633l-0.356,1.286l-1.384-0.113c-0.341-0.028-0.676,0.135-0.863,0.425
		c-0.354,0.548-0.811,1.013-1.354,1.383c-0.275,0.188-0.431,0.507-0.408,0.84l0.101,1.454l-1.296,0.339l-0.587-1.249
		c-0.148-0.314-0.456-0.521-0.803-0.538c-0.657-0.034-1.283-0.192-1.875-0.474c-0.316-0.142-0.626-0.119-0.929,0.069l-1.212,0.818
		l-0.935-0.945l0.793-1.138c0.198-0.284,0.223-0.655,0.064-0.964c-0.298-0.582-0.474-1.206-0.521-1.854
		c-0.024-0.333-0.225-0.629-0.525-0.775l-1.307-0.633L265.092,245.659z"/>
	<path fill="#8CC63F" d="M270.586,251.053c0.28,0.077,0.563,0.113,0.84,0.113c1.402,0,2.693-0.931,3.085-2.345
		c0.228-0.822,0.121-1.682-0.3-2.422s-1.105-1.271-1.929-1.496c-1.694-0.463-3.455,0.538-3.924,2.231
		c-0.228,0.822-0.121,1.682,0.3,2.422S269.764,250.829,270.586,251.053z M270.165,247.635c0.194-0.701,0.923-1.115,1.624-0.923
		c0.338,0.093,0.619,0.311,0.792,0.615c0.173,0.304,0.216,0.657,0.123,0.995c-0.194,0.701-0.923,1.115-1.624,0.923
		c-0.338-0.092-0.62-0.311-0.793-0.614C270.115,248.327,270.072,247.973,270.165,247.635z"/>
	<path fill="#8CC63F" d="M276.093,283.076c0.153-0.331,0.1-0.723-0.138-1.001l-13.674-16.061c-0.255-0.299-0.669-0.407-1.038-0.272
		c-0.368,0.136-0.613,0.487-0.613,0.881v16.061c0,0.518,0.419,0.938,0.938,0.938h13.674
		C275.608,283.621,275.94,283.408,276.093,283.076z M262.505,281.746V269.17l10.707,12.576H262.505z"/>
</g>
</svg>
