<?xml version="1.0" encoding="utf-8"?>
<!-- Generator: Adobe Illustrator 16.0.2, SVG Export Plug-In . SVG Version: 6.00 Build 0)  -->
<!DOCTYPE svg PUBLIC "-//W3C//DTD SVG 1.1//EN" "http://www.w3.org/Graphics/SVG/1.1/DTD/svg11.dtd">
<svg version="1.1" id="Capa_1" xmlns="http://www.w3.org/2000/svg" xmlns:xlink="http://www.w3.org/1999/xlink" x="0px" y="0px"
	 width="14px" height="19.911px" viewBox="249 246.044 14 19.911" enable-background="new 249 246.044 14 19.911"
	 xml:space="preserve">
<g>
	<path fill="#FFFFFF" d="M255.515,265.695c0.108,0.163,0.291,0.26,0.485,0.26s0.377-0.097,0.485-0.26
		c1.381-2.07,3.414-4.628,4.831-7.229c1.133-2.08,1.684-3.854,1.684-5.422c0-3.86-3.141-7-7-7c-3.86,0-7,3.14-7,7
		c0,1.569,0.551,3.343,1.684,5.422C252.1,261.065,254.137,263.629,255.515,265.695z M256,247.211c3.217,0,5.833,2.617,5.833,5.833
		c0,1.369-0.504,2.96-1.541,4.864c-1.222,2.242-2.965,4.517-4.292,6.429c-1.327-1.912-3.07-4.187-4.292-6.429
		c-1.037-1.904-1.542-3.495-1.542-4.864C250.167,249.828,252.784,247.211,256,247.211z"/>
	<path fill="#FFFFFF" d="M256,256.545c1.93,0,3.5-1.571,3.5-3.5s-1.57-3.5-3.5-3.5s-3.5,1.57-3.5,3.5S254.071,256.545,256,256.545z
		 M256,250.711c1.286,0,2.333,1.047,2.333,2.333s-1.047,2.333-2.333,2.333c-1.287,0-2.333-1.047-2.333-2.333
		S254.714,250.711,256,250.711z"/>
</g>
</svg>
