<?xml version="1.0" encoding="utf-8"?>
<!-- Generator: Adobe Illustrator 16.0.2, SVG Export Plug-In . SVG Version: 6.00 Build 0)  -->
<!DOCTYPE svg PUBLIC "-//W3C//DTD SVG 1.1//EN" "http://www.w3.org/Graphics/SVG/1.1/DTD/svg11.dtd">
<svg version="1.1" id="Layer_3" xmlns="http://www.w3.org/2000/svg" xmlns:xlink="http://www.w3.org/1999/xlink" x="0px" y="0px"
	 width="18px" height="18px" viewBox="247 246.998 18 18" enable-background="new 247 246.998 18 18" xml:space="preserve">
<path fill="#8CC63F" d="M264.707,247.102c-0.182-0.119-0.412-0.137-0.611-0.049l-5.124,2.278l-5.717-2.287
	c-0.161-0.064-0.342-0.061-0.5,0.009l-5.373,2.388c-0.232,0.103-0.382,0.333-0.382,0.587v14.327c0,0.354,0.288,0.643,0.643,0.643
	c0.09,0,0.179-0.019,0.261-0.055l5.125-2.278l5.717,2.287c0.162,0.064,0.342,0.061,0.501-0.009l5.372-2.388
	c0.232-0.104,0.382-0.334,0.382-0.588v-14.326C265,247.423,264.89,247.22,264.707,247.102z M253.658,248.59l4.684,1.874v12.941
	l-4.684-1.874V248.59z M248.286,250.446l4.087-1.816v12.921l-4.087,1.814V250.446z M263.714,261.549l-4.086,1.816v-12.919
	l4.086-1.816V261.549z"/>
</svg>
