<?xml version="1.0" encoding="utf-8"?>
<!-- Generator: Adobe Illustrator 16.0.2, SVG Export Plug-In . SVG Version: 6.00 Build 0)  -->
<!DOCTYPE svg PUBLIC "-//W3C//DTD SVG 1.1//EN" "http://www.w3.org/Graphics/SVG/1.1/DTD/svg11.dtd">
<svg version="1.1" id="Capa_1" xmlns="http://www.w3.org/2000/svg" xmlns:xlink="http://www.w3.org/1999/xlink" x="0px" y="0px"
	 width="18px" height="18px" viewBox="297 387 18 18" enable-background="new 297 387 18 18" xml:space="preserve">
<g>
	<g>
		<path fill="#8CC63F" d="M303.216,387h-4.134c-1.148,0-2.082,0.934-2.082,2.082v4.134c0,1.148,0.934,2.082,2.082,2.082h4.134
			c1.148,0,2.082-0.934,2.082-2.082v-4.134C305.297,387.934,304.364,387,303.216,387z M303.891,393.215
			c0,0.373-0.303,0.675-0.675,0.675h-4.134c-0.373,0-0.675-0.303-0.675-0.675v-4.134c0-0.373,0.303-0.675,0.675-0.675h4.134
			c0.373,0,0.675,0.303,0.675,0.675V393.215z"/>
	</g>
</g>
<g>
	<g>
		<path fill="#8CC63F" d="M312.891,387h-4.078c-1.163,0-2.109,0.946-2.109,2.109v4.078c0,1.163,0.946,2.109,2.109,2.109h4.078
			c1.163,0,2.109-0.946,2.109-2.109v-4.078C315,387.946,314.054,387,312.891,387z M313.594,393.188c0,0.388-0.315,0.703-0.703,0.703
			h-4.078c-0.388,0-0.703-0.315-0.703-0.703v-4.078c0-0.388,0.315-0.703,0.703-0.703h4.078c0.388,0,0.703,0.315,0.703,0.703V393.188
			z"/>
	</g>
</g>
<g>
	<g>
		<path fill="#8CC63F" d="M303.216,396.703h-4.134c-1.148,0-2.082,0.934-2.082,2.082v4.133c0,1.148,0.934,2.082,2.082,2.082h4.134
			c1.148,0,2.082-0.934,2.082-2.082v-4.133C305.297,397.637,304.364,396.703,303.216,396.703z M303.891,402.918
			c0,0.373-0.303,0.676-0.675,0.676h-4.134c-0.373,0-0.675-0.303-0.675-0.676v-4.133c0-0.373,0.303-0.676,0.675-0.676h4.134
			c0.373,0,0.675,0.303,0.675,0.676V402.918z"/>
	</g>
</g>
<g>
	<g>
		<path fill="#8CC63F" d="M312.891,396.703h-4.078c-1.163,0-2.109,0.946-2.109,2.109v4.078c0,1.163,0.946,2.109,2.109,2.109h4.078
			c1.163,0,2.109-0.946,2.109-2.109v-4.078C315,397.649,314.054,396.703,312.891,396.703z M313.594,402.891
			c0,0.388-0.315,0.703-0.703,0.703h-4.078c-0.388,0-0.703-0.315-0.703-0.703v-4.078c0-0.388,0.315-0.703,0.703-0.703h4.078
			c0.388,0,0.703,0.315,0.703,0.703V402.891z"/>
	</g>
</g>
</svg>
