<?xml version="1.0" encoding="utf-8"?>
<!-- Generator: Adobe Illustrator 16.0.2, SVG Export Plug-In . SVG Version: 6.00 Build 0)  -->
<!DOCTYPE svg PUBLIC "-//W3C//DTD SVG 1.1//EN" "http://www.w3.org/Graphics/SVG/1.1/DTD/svg11.dtd">
<svg version="1.1" id="Layer_1" xmlns="http://www.w3.org/2000/svg" xmlns:xlink="http://www.w3.org/1999/xlink" x="0px" y="0px"
	 width="64px" height="64.012px" viewBox="224.05 223.993 64 64.012" enable-background="new 224.05 223.993 64 64.012"
	 xml:space="preserve">
<path fill="#0C8294" d="M286.984,234.672h-10.667c-1.325-0.005-2.515,0.81-2.988,2.047c-0.475,1.237-0.134,2.639,0.855,3.521v6.166
	h-9.601c-1.325-0.005-2.515,0.81-2.988,2.047c-0.475,1.237-0.134,2.639,0.855,3.521v6.166h-9.6
	c-1.325-0.005-2.515,0.811-2.989,2.048c-0.475,1.237-0.134,2.639,0.855,3.521v6.165H240.05c-1.557-0.003-2.888,1.117-3.152,2.651
	c-0.264,1.534,0.618,3.035,2.086,3.553v8.729c0,1.767,1.433,3.199,3.2,3.199h42.666c1.768,0,3.2-1.433,3.2-3.199v-49.067
	C288.05,235.15,287.573,234.672,286.984,234.672z M264.583,264.539h9.601v9.6h-9.601V264.539z M285.916,262.405h-9.6v-9.6h9.6
	V262.405z M276.317,264.539h9.6v9.6h-9.6V264.539z M276.317,236.806h9.6v2.133h-9.6c-0.589,0-1.066-0.478-1.066-1.067
	C275.25,237.283,275.728,236.806,276.317,236.806z M285.916,241.072v9.6h-9.6v-9.6H285.916z M264.583,248.539h9.601v2.133h-9.601
	c-0.589,0-1.066-0.477-1.066-1.066C263.517,249.017,263.994,248.539,264.583,248.539z M274.184,252.806v9.6h-9.601v-9.6H274.184z
	 M252.85,260.272h9.6v2.133h-9.6c-0.589,0-1.067-0.478-1.067-1.066S252.261,260.272,252.85,260.272z M262.45,264.539v9.6h-9.6v-9.6
	H262.45z M240.05,272.005h9.6v2.134h-9.6c-0.589,0-1.066-0.478-1.066-1.066C238.984,272.482,239.461,272.005,240.05,272.005z
	 M241.117,284.806v-8.533h9.6v9.6h-8.533C241.594,285.872,241.117,285.395,241.117,284.806z M252.85,276.272h9.6v9.6h-9.6V276.272z
	 M264.583,276.272h9.601v9.6h-9.601V276.272z M285.916,284.806c0,0.589-0.478,1.066-1.066,1.066h-8.533v-9.6h9.6V284.806z"/>
<path fill="#0C8294" d="M257.306,248.069c0.082,0.497,0.5,0.868,1.002,0.891h0.05c0.484,0,0.908-0.327,1.031-0.796
	c0.115-0.438,2.751-10.797-3.478-17.026l-3.016-3.017c-6.231-6.228-16.587-3.593-17.026-3.476c-0.486,0.128-0.816,0.579-0.792,1.081
	s0.394,0.919,0.89,1.002c4.683,0.78,9.13,4.39,10.868,5.946l-21.846,21.846c-1.251,1.25-1.251,3.277,0,4.527
	c1.251,1.245,3.273,1.245,4.524,0l21.845-21.848C252.915,238.939,256.525,243.387,257.306,248.069z M251.387,229.63l3.016,3.016
	c2.953,2.952,3.544,7.171,3.478,10.38c-1.477-2.99-3.414-5.729-5.741-8.118l-3.015-3.009c-2.391-2.331-5.134-4.271-8.129-5.749
	C244.233,226.073,248.425,226.672,251.387,229.63z M228.005,257.538c-0.417,0.417-1.093,0.416-1.509-0.001
	c-0.417-0.416-0.417-1.092,0-1.509l21.874-21.871l1.508,1.508L228.005,257.538z"/>
<path fill="#0C8294" d="M264.583,241.072v-2.133c0-0.589-0.478-1.067-1.066-1.067s-1.066,0.478-1.066,1.067v2.133
	c0,0.589,0.478,1.066,1.066,1.066S264.583,241.661,264.583,241.072z"/>
<path fill="#0C8294" d="M267.471,243.959l2.133-2.133c0.404-0.418,0.398-1.083-0.013-1.495s-1.076-0.417-1.495-0.013l-2.134,2.134
	c-0.277,0.268-0.388,0.664-0.29,1.037s0.389,0.664,0.762,0.762S267.203,244.237,267.471,243.959z"/>
<path fill="#0C8294" d="M256.64,250.784l-2.134,1.067c-0.526,0.263-0.741,0.904-0.477,1.431c0.263,0.528,0.904,0.742,1.431,0.479
	l2.133-1.067c0.527-0.263,0.741-0.904,0.479-1.431C257.808,250.734,257.167,250.521,256.64,250.784z"/>
</svg>
