<?xml version="1.0" encoding="utf-8"?>
<!-- Generator: Adobe Illustrator 16.0.2, SVG Export Plug-In . SVG Version: 6.00 Build 0)  -->
<!DOCTYPE svg PUBLIC "-//W3C//DTD SVG 1.1//EN" "http://www.w3.org/Graphics/SVG/1.1/DTD/svg11.dtd">
<svg version="1.1" id="Capa_1" xmlns="http://www.w3.org/2000/svg" xmlns:xlink="http://www.w3.org/1999/xlink" x="0px" y="0px"
	 width="32px" height="32px" viewBox="290 380 32 32" enable-background="new 290 380 32 32" xml:space="preserve">
<g>
	<g>
		<g>
			<path fill="#B5111B" d="M305.811,389.455l-0.931,0.116c-0.585,0.11-1.152,0.298-1.687,0.56c-1.22,0.642-2.179,1.688-2.713,2.96
				c-0.072,0.239-0.128,0.481-0.167,0.728c-0.407,1.448,0.119,2.997,1.324,3.898c0.182,0.108,0.604,0.313,0.728,0.043
				c0.057-0.165,0.096-0.335,0.116-0.509c0.07-0.146,0.11-0.304,0.116-0.466c-0.043-0.239-0.298-0.385-0.407-0.582
				c-0.179-0.396-0.292-0.818-0.334-1.251v-0.211c0.054-1.786,1.306-3.31,3.047-3.709c0.544-0.147,1.112-0.189,1.672-0.124
				l0.808,0.138c0.923,0.241,1.686,0.889,2.072,1.76c0.254,0.747,0.305,1.548,0.146,2.32c-0.08,0.334-0.065,0.625-0.167,0.931
				c-0.371,1.127-0.916,2.182-2.146,2.458c-0.668,0.175-1.363-0.174-1.622-0.814c-0.092-0.195-0.125-0.412-0.095-0.626
				c0.211-0.916,0.524-1.73,0.728-2.647c0.25-0.678-0.096-1.431-0.773-1.682c-0.035-0.013-0.071-0.024-0.107-0.034
				c-0.843-0.204-1.491,0.582-1.716,1.091c-0.21,0.539-0.261,1.127-0.146,1.694c0.123,0.246,0.211,0.508,0.262,0.778
				c-0.16,0.728-0.349,1.455-0.545,2.182c-0.197,0.728-0.32,1.455-0.524,2.182c-0.094,0.32-0.087,0.662-0.167,0.997v0.487
				c-0.051,0.385-0.033,0.776,0.051,1.156c0.043,0.196,0,0.437,0.073,0.582c-0.003,0.064,0.015,0.128,0.051,0.182
				c0.298,0,0.728-0.793,0.858-1.019c0.283-0.45,0.526-0.925,0.727-1.418c0.196-0.458,0.226-0.968,0.378-1.455
				c0.154-0.401,0.264-0.818,0.327-1.243c0.094,0.206,0.252,0.377,0.451,0.487c0.698,0.494,1.572,0.671,2.407,0.487
				c1.016-0.197,1.929-0.749,2.575-1.557c0.439-0.598,0.778-1.264,1.003-1.971c0.124-0.364,0.146-0.771,0.24-1.156
				c0.157-0.944,0.033-1.912-0.356-2.786C310.531,390.517,308.713,389.411,305.811,389.455z"/>
			<path fill="#B5111B" d="M306,380c-8.836,0-16,7.164-16,16c0,8.837,7.164,16,16,16c8.837,0,16-7.163,16-16
				C322,387.164,314.837,380,306,380z M306,410.546c-8.033,0-14.545-6.513-14.545-14.546s6.512-14.545,14.545-14.545
				s14.545,6.512,14.545,14.545S314.033,410.546,306,410.546z"/>
		</g>
	</g>
</g>
</svg>
