<?xml version="1.0" encoding="utf-8"?>
<!-- Generator: Adobe Illustrator 16.0.2, SVG Export Plug-In . SVG Version: 6.00 Build 0)  -->
<!DOCTYPE svg PUBLIC "-//W3C//DTD SVG 1.1//EN" "http://www.w3.org/Graphics/SVG/1.1/DTD/svg11.dtd">
<svg version="1.1" id="Layer_1" xmlns="http://www.w3.org/2000/svg" xmlns:xlink="http://www.w3.org/1999/xlink" x="0px" y="0px"
	 width="64px" height="64px" viewBox="274 364 64 64" enable-background="new 274 364 64 64" xml:space="preserve">
<g>
	<g>
		<path fill="#6D4199" d="M306,364c-17.646,0-32,14.355-32,32s14.354,32,32,32c17.646,0,32-14.355,32-32S323.646,364,306,364z"/>
	</g>
</g>
<g>
	<g>
		<path fill="none" stroke="#FFFFFF" stroke-width="3" stroke-miterlimit="10" d="M316.055,397.121l-18.667,12
			c-0.219,0.142-0.472,0.213-0.722,0.213c-0.219,0-0.439-0.056-0.638-0.163c-0.43-0.234-0.695-0.683-0.695-1.171v-24
			c0-0.488,0.266-0.936,0.695-1.17c0.422-0.232,0.95-0.218,1.359,0.049l18.667,12c0.38,0.245,0.612,0.668,0.612,1.121
			S316.435,396.876,316.055,397.121z"/>
	</g>
</g>
</svg>
