<svg width="159" height="121" viewBox="0 0 159 121" fill="none" xmlns="http://www.w3.org/2000/svg">
<path d="M57.8197 -0.013432C59.3137 0.484563 60.4964 1.48055 61.3679 2.97454C64.1069 7.82999 65.4764 11.4404 65.4764 13.8059L65.1029 15.2999C63.8579 16.1714 60.9944 18.1011 56.5125 21.0891C48.7935 26.069 43.4401 30.6755 40.4521 34.9085C36.2192 40.6354 34.1027 46.2378 34.1027 51.7158C34.1027 59.5592 38.9582 65.5974 48.6691 69.8303C55.143 72.6938 59.6872 75.6818 62.3017 78.7942C65.9121 83.0272 67.7174 87.7581 67.7174 92.9871C67.7174 100.208 64.9784 106.557 59.5004 112.035C54.0225 117.389 47.5486 120.066 40.0786 120.066C29.8697 120.066 20.5946 115.459 12.2532 106.246C4.03627 97.0333 -0.0721879 85.3304 -0.0721879 71.1376C-0.0721879 53.5833 5.77925 37.8964 17.4821 24.0771C29.185 10.2577 42.6309 2.22754 57.8197 -0.013432ZM146.152 0.173316C148.642 0.546812 150.945 2.0408 153.061 4.65527C155.925 8.26573 157.356 11.2537 157.356 13.6192L156.609 16.2336C143.288 24.5751 134.698 31.3602 130.838 36.5892C126.979 41.6936 125.049 47.3583 125.049 53.5833C125.049 57.3182 125.796 60.1194 127.29 61.9869C129.406 64.6014 134.262 67.8384 141.856 71.6978C152.937 77.4248 158.477 85.2059 158.477 95.0413C158.477 101.515 155.676 107.367 150.073 112.596C144.471 117.825 137.623 120.439 129.531 120.439C119.571 120.439 110.545 116.019 102.452 107.18C94.4846 98.216 90.5006 87.1979 90.5006 74.1255C90.5006 63.4187 92.8038 52.8985 97.4103 42.5651C102.017 32.2317 108.74 23.5168 117.579 16.4204C126.418 9.19947 135.943 3.78378 146.152 0.173316Z" fill="#F7F7F7"/>
</svg>
