<?xml version="1.0" encoding="utf-8"?>
<!-- Generator: Adobe Illustrator 16.0.2, SVG Export Plug-In . SVG Version: 6.00 Build 0)  -->
<!DOCTYPE svg PUBLIC "-//W3C//DTD SVG 1.1//EN" "http://www.w3.org/Graphics/SVG/1.1/DTD/svg11.dtd">
<svg version="1.1" id="Layer_1" xmlns="http://www.w3.org/2000/svg" xmlns:xlink="http://www.w3.org/1999/xlink" x="0px" y="0px"
	 width="64px" height="64px" viewBox="208 208 64 64" enable-background="new 208 208 64 64" xml:space="preserve">
<path fill="#6D4199" d="M221.867,234.667c-2.945,0-5.333,2.388-5.333,5.333s2.388,5.333,5.333,5.333s5.333-2.388,5.333-5.333
	C227.197,237.056,224.811,234.67,221.867,234.667z M221.867,243.2c-1.767,0-3.2-1.433-3.2-3.2c0-1.767,1.433-3.2,3.2-3.2
	s3.2,1.433,3.2,3.2C225.067,241.768,223.634,243.2,221.867,243.2z"/>
<path fill="#6D4199" d="M243.2,222.934c2.945,0,5.333-2.388,5.333-5.333s-2.388-5.333-5.333-5.333s-5.333,2.388-5.333,5.333
	C237.87,220.544,240.256,222.93,243.2,222.934z M243.2,214.4c1.767,0,3.2,1.433,3.2,3.2s-1.434,3.2-3.2,3.2
	c-1.768,0-3.2-1.433-3.2-3.2S241.433,214.4,243.2,214.4z"/>
<path fill="#6D4199" d="M268.8,240.452V236.8c-0.008-2.68-2.008-4.936-4.667-5.266l-11.391-12.9
	c0.037-0.344,0.057-0.688,0.058-1.034c0-5.302-4.298-9.6-9.6-9.6c-5.302,0-9.6,4.298-9.6,9.6c0,0.17,0.017,0.335,0.025,0.501
	l-12.328,12.327c-3.867,0.22-7.22,2.749-8.496,6.405c-1.277,3.657-0.225,7.723,2.665,10.301v16.332h-6.4
	c-0.589,0-1.067,0.478-1.067,1.066v6.4c0,0.589,0.478,1.066,1.067,1.066H249.6c0.59,0,1.067-0.478,1.067-1.066v-6.4
	c0-0.589-0.478-1.066-1.067-1.066h-21.333v-16.332c2.449-2.155,3.609-5.423,3.07-8.64l11.32-11.322
	c0.182,0.01,0.36,0.028,0.544,0.028c0.543-0.003,1.084-0.053,1.618-0.147l13.315,10.494v2.907c-1.941,0.848-3.196,2.762-3.2,4.879
	V256c-0.002,0.371,0.188,0.716,0.503,0.911c0.315,0.196,0.709,0.215,1.04,0.049l4.267-2.134c0.363-0.181,0.593-0.554,0.59-0.96
	V246.4h4.267v7.466c-0.002,0.406,0.227,0.779,0.591,0.96l4.267,2.134c0.331,0.166,0.725,0.147,1.04-0.049
	c0.314-0.195,0.505-0.54,0.503-0.911v-10.667C271.997,243.215,270.741,241.3,268.8,240.452z M243.2,210.133
	c4.124,0,7.467,3.343,7.467,7.467s-3.343,7.467-7.467,7.467s-7.467-3.343-7.467-7.467
	C235.739,213.478,239.078,210.138,243.2,210.133z M248.533,269.866h-38.4V265.6h38.4V269.866z M226.134,263.467H217.6v-14.88
	c2.685,1.35,5.849,1.35,8.533,0V263.467z M221.867,247.467c-4.124,0-7.467-3.343-7.467-7.467s3.343-7.467,7.467-7.467
	s7.467,3.343,7.467,7.467C229.329,244.122,225.989,247.462,221.867,247.467z M230.657,236.16c-1.214-2.757-3.649-4.788-6.581-5.488
	l10.027-10.026c0.958,2.843,3.184,5.077,6.023,6.043L230.657,236.16z M252.115,221.145l9.44,10.692
	c-1.463,0.569-2.6,1.753-3.109,3.236l-11.164-8.797C249.482,225.237,251.208,223.404,252.115,221.145z M260.267,236.8
	c0-1.767,1.433-3.2,3.2-3.2s3.2,1.433,3.2,3.2v3.2h-6.4V236.8z M269.867,254.274l-2.134-1.067v-7.874
	c0-0.589-0.478-1.066-1.066-1.066h-6.4c-0.589,0-1.066,0.478-1.066,1.066v7.874l-2.134,1.067v-8.941c0-1.767,1.434-3.199,3.2-3.199
	h6.4c1.767,0,3.2,1.433,3.2,3.199V254.274z"/>
<path fill="#6D4199" d="M220.801,252.8c-0.589,0-1.067,0.478-1.067,1.066v6.4c0,0.589,0.478,1.066,1.067,1.066
	c0.589,0,1.066-0.478,1.066-1.066v-6.4C221.867,253.277,221.389,252.8,220.801,252.8z"/>
<path fill="#6D4199" d="M232.846,225.379l-4.267,4.267c-0.277,0.268-0.389,0.665-0.291,1.038c0.097,0.373,0.389,0.664,0.761,0.761
	c0.373,0.098,0.77-0.014,1.038-0.291l4.267-4.267c0.404-0.419,0.398-1.084-0.013-1.496
	C233.93,224.981,233.265,224.975,232.846,225.379z"/>
</svg>
