<?xml version="1.0" encoding="utf-8"?>
<!-- Generator: Adobe Illustrator 16.0.2, SVG Export Plug-In . SVG Version: 6.00 Build 0)  -->
<!DOCTYPE svg PUBLIC "-//W3C//DTD SVG 1.1//EN" "http://www.w3.org/Graphics/SVG/1.1/DTD/svg11.dtd">
<svg version="1.1" id="Capa_1" xmlns="http://www.w3.org/2000/svg" xmlns:xlink="http://www.w3.org/1999/xlink" x="0px" y="0px"
	 width="24px" height="24.001px" viewBox="294.005 294.004 24 24.001" enable-background="new 294.005 294.004 24 24.001"
	 xml:space="preserve">
<g>
	<g id="_x34__4_">
		<g>
			<path fill="#FFFFFF" d="M317.778,316.699l-6.197-6.098c1.623-1.763,2.62-4.095,2.62-6.66c-0.001-5.488-4.521-9.937-10.098-9.937
				c-5.577,0-10.098,4.449-10.098,9.937s4.521,9.938,10.098,9.938c2.41,0,4.62-0.834,6.356-2.22l6.22,6.122
				c0.304,0.299,0.796,0.299,1.099,0C318.08,317.482,318.08,316.998,317.778,316.699z M304.102,312.35
				c-4.719,0-8.544-3.765-8.544-8.408s3.825-8.408,8.544-8.408c4.718,0,8.543,3.765,8.543,8.408S308.821,312.35,304.102,312.35z"/>
		</g>
	</g>
</g>
</svg>
