<?xml version="1.0" encoding="utf-8"?>
<!-- Generator: Adobe Illustrator 16.0.2, SVG Export Plug-In . SVG Version: 6.00 Build 0)  -->
<!DOCTYPE svg PUBLIC "-//W3C//DTD SVG 1.1//EN" "http://www.w3.org/Graphics/SVG/1.1/DTD/svg11.dtd">
<svg version="1.1" id="Layer_5" xmlns="http://www.w3.org/2000/svg" xmlns:xlink="http://www.w3.org/1999/xlink" x="0px" y="0px"
	 width="64px" height="64px" viewBox="224 224 64 64" enable-background="new 224 224 64 64" xml:space="preserve">
<g>
	<path fill="#B5111B" d="M284.904,277.678h-1.032v-34.065c0-2.846-2.315-5.161-5.161-5.161h-3.097v2.064h3.097
		c1.707,0,3.097,1.389,3.097,3.097v34.065h-51.613v-34.065c0-1.708,1.39-3.097,3.097-3.097h3.097v-2.064h-3.097
		c-2.846,0-5.161,2.315-5.161,5.161v34.065h-1.032c-1.707,0-3.097,1.389-3.097,3.097c0,3.983,3.242,7.226,7.226,7.226h49.549
		c3.983,0,7.226-3.242,7.226-7.226C288,279.066,286.611,277.678,284.904,277.678z M249.807,279.742h12.387v1.032
		c0,0.569-0.462,1.032-1.032,1.032h-10.322c-0.57,0-1.032-0.463-1.032-1.032V279.742z M271.484,285.936h-2.064v-2.064h2.064V285.936
		z M279.742,285.936h-2.064v-2.064h2.064V285.936z M281.807,285.831v-4.024h-6.193v4.129h-2.064v-4.129h-6.194v4.129h-36.129
		c-2.846,0-5.161-2.315-5.161-5.161c0-0.57,0.462-1.032,1.032-1.032h20.646v1.032c0,1.707,1.389,3.097,3.097,3.097h10.322
		c1.707,0,3.097-1.39,3.097-3.097v-1.032h20.646c0.569,0,1.032,0.462,1.032,1.032C285.936,283.266,284.159,285.352,281.807,285.831
		L281.807,285.831z"/>
	<path fill="#B5111B" d="M246.71,244.645v-2.064h-12.387c-1.138,0-2.064,0.926-2.064,2.064v28.904c0,1.139,0.926,2.064,2.064,2.064
		h43.355c1.139,0,2.064-0.926,2.064-2.064v-28.904c0-1.138-0.926-2.064-2.064-2.064H265.29v2.064h12.388v28.904h-4.129v-5.914
		l-2.822-0.904c-0.258-0.798-0.575-1.569-0.949-2.301l1.354-2.632l-5.444-5.444l-2.631,1.354c-0.733-0.373-1.503-0.691-2.301-0.948
		l-0.906-2.824h-7.7l-0.904,2.822c-0.798,0.257-1.569,0.575-2.301,0.948l-2.631-1.354l-5.444,5.444l1.354,2.632
		c-0.374,0.732-0.692,1.503-0.949,2.301l-2.823,0.906v5.914h-4.129v-28.904H246.71z M246.71,271.484
		c0-5.123,4.167-9.291,9.291-9.291s9.29,4.168,9.29,9.291c0,0.7-0.103,1.388-0.257,2.064h-4.307
		c0.282-0.646,0.435-1.347,0.435-2.064c0-2.847-2.315-5.162-5.161-5.162s-5.161,2.315-5.161,5.162c0,0.718,0.152,1.419,0.435,2.064
		h-4.306C246.814,272.872,246.71,272.185,246.71,271.484z M252.904,271.484c0-1.708,1.389-3.098,3.097-3.098
		c1.707,0,3.097,1.39,3.097,3.098c0,0.77-0.302,1.497-0.813,2.064h-4.567C253.205,272.981,252.904,272.254,252.904,271.484
		L252.904,271.484z M240.516,269.14l2.432-0.778l0.15-0.533c0.288-1.021,0.688-1.993,1.19-2.888l0.271-0.484l-1.167-2.265
		l3.315-3.315l2.265,1.166l0.484-0.271c0.895-0.501,1.867-0.902,2.887-1.189l0.534-0.151l0.777-2.431h4.687l0.778,2.432l0.534,0.151
		c1.02,0.288,1.992,0.688,2.887,1.19l0.484,0.27l2.265-1.166l3.316,3.315l-1.167,2.265l0.271,0.484
		c0.502,0.895,0.902,1.867,1.19,2.887l0.15,0.534l2.432,0.777v4.409h-4.323c0.124-0.679,0.194-1.368,0.194-2.064
		c0-6.262-5.094-11.355-11.354-11.355s-11.355,5.094-11.355,11.355c0,0.696,0.071,1.386,0.195,2.064h-4.324V269.14z"/>
	<path fill="#B5111B" d="M237.42,228.129h4.129v2.064h-4.129V228.129z"/>
	<path fill="#B5111B" d="M253.936,228.129h4.129v2.064h-4.129V228.129z"/>
	<path fill="#B5111B" d="M270.451,228.129h4.129v2.064h-4.129V228.129z"/>
	<path fill="#B5111B" d="M254.968,251.871h2.064v-17.548h5.161V224h-12.387v10.323h5.161V251.871z M251.871,226.064h8.258v6.193
		h-8.258V226.064z"/>
	<path fill="#B5111B" d="M271.484,238.452h-10.322v13.419h2.064v-11.355h10.323v-6.193h5.161V224h-12.388v10.323h5.161V238.452z
		 M268.387,226.064h8.259v6.193h-8.259V226.064z"/>
	<path fill="#B5111B" d="M238.452,240.516h10.323v11.355h2.064v-13.419h-10.323v-4.129h5.161V224H233.29v10.323h5.162V240.516z
		 M235.355,226.064h8.258v6.193h-8.258V226.064z"/>
</g>
</svg>
