<?xml version="1.0" encoding="utf-8"?>
<!-- Generator: Adobe Illustrator 16.0.2, SVG Export Plug-In . SVG Version: 6.00 Build 0)  -->
<!DOCTYPE svg PUBLIC "-//W3C//DTD SVG 1.1//EN" "http://www.w3.org/Graphics/SVG/1.1/DTD/svg11.dtd">
<svg version="1.1" id="Layer_1" xmlns="http://www.w3.org/2000/svg" xmlns:xlink="http://www.w3.org/1999/xlink" x="0px" y="0px"
	 width="64px" height="64px" viewBox="224 224 64 64" enable-background="new 224 224 64 64" xml:space="preserve">
<g id="_x30_29---eSports">
	<path id="Shape" fill="#172B48" d="M285.866,249.796V246.4c-0.017-10.837-8.555-19.745-19.382-20.222
		c-0.438-1.296-1.649-2.172-3.018-2.178h-14.934c-1.368,0.006-2.581,0.882-3.018,2.178c-10.827,0.477-19.365,9.384-19.382,20.222
		v3.396c-1.274,0.45-2.127,1.652-2.133,3.003v10.667c0.006,1.352,0.859,2.553,2.133,3.004V281.6c0,2.356,1.91,4.268,4.267,4.268h6.4
		c0,1.178,0.955,2.133,2.134,2.133h6.399c1.179,0,2.134-0.955,2.134-2.133v-2.134c0-1.179-0.955-2.134-2.134-2.134h-6.399
		c-1.179,0-2.134,0.955-2.134,2.134h-6.4c-1.178,0-2.133-0.955-2.133-2.134v-14.933h2.133v3.392c0.004,3.256,2.522,5.955,5.77,6.186
		s6.121-2.088,6.583-5.311l1.087-7.604c2.378-0.348,4.593-1.417,6.344-3.063h11.633c1.751,1.646,3.965,2.716,6.344,3.063
		l1.087,7.604c0.462,3.223,3.336,5.541,6.583,5.311c3.248-0.23,5.767-2.93,5.77-6.186v-3.392h3.2c1.768,0,3.2-1.433,3.2-3.2V252.8
		C287.994,251.449,287.141,250.247,285.866,249.796z M238.934,283.733h6.399v2.134h-6.399V283.733z M248.533,226.133h14.934
		c0.589,0,1.066,0.478,1.066,1.067c0,0.589-0.478,1.066-1.066,1.066h-14.934c-0.589,0-1.066-0.478-1.066-1.066
		C247.467,226.611,247.945,226.133,248.533,226.133z M227.2,264.533c-0.589,0-1.067-0.478-1.067-1.066V252.8
		c0-0.589,0.478-1.066,1.067-1.066h3.2v12.8H227.2z M279.467,270.059c-0.007,2.134-1.658,3.901-3.786,4.053s-4.013-1.365-4.32-3.477
		l-1.204-8.427c-0.071-0.497-0.479-0.876-0.979-0.912c-2.333-0.166-4.524-1.177-6.166-2.843c-0.2-0.204-0.474-0.319-0.76-0.32
		h-12.502c-0.286,0.001-0.56,0.116-0.76,0.32c-1.64,1.667-3.832,2.679-6.165,2.845c-0.5,0.036-0.908,0.415-0.98,0.912l-1.204,8.425
		c-0.308,2.111-2.193,3.628-4.321,3.477c-2.128-0.151-3.78-1.919-3.786-4.053v-18.325c0-3.9,2.36-7.413,5.971-8.887
		s7.755-0.618,10.485,2.167c0.2,0.205,0.474,0.321,0.76,0.32h12.502c0.286,0,0.561-0.115,0.76-0.32
		c2.73-2.785,6.875-3.642,10.485-2.167s5.971,4.987,5.971,8.887V270.059z M269.866,240c-2.995-0.007-5.878,1.139-8.051,3.2h-11.627
		c-3.123-2.952-7.61-3.959-11.695-2.624s-7.112,4.797-7.89,9.024h-2.337v-3.2c0.016-9.672,7.618-17.631,17.28-18.089
		c0.462,1.251,1.653,2.083,2.986,2.089h14.934c1.334-0.006,2.523-0.838,2.986-2.089c9.662,0.458,17.265,8.417,17.28,18.089v3.2
		h-2.337C280.364,244.043,275.52,240.009,269.866,240z M285.866,263.467c0,0.589-0.478,1.066-1.066,1.066h-3.2v-12.8h3.2
		c0.589,0,1.066,0.478,1.066,1.066V263.467z"/>
	<path id="Path" fill="#172B48" d="M245.333,250.667H243.2v-2.133c0-0.589-0.478-1.066-1.067-1.066s-1.067,0.478-1.067,1.066v2.133
		h-2.133c-0.589,0-1.067,0.478-1.067,1.067c0,0.589,0.478,1.066,1.067,1.066h2.133v2.134c0,0.589,0.478,1.066,1.067,1.066
		s1.067-0.478,1.067-1.066V252.8h2.133c0.589,0,1.067-0.478,1.067-1.066C246.4,251.144,245.923,250.667,245.333,250.667z"/>
	<path id="Path_1_" fill="#172B48" d="M269.866,253.867c-0.589,0-1.066,0.478-1.066,1.067V256c0,0.589,0.478,1.066,1.066,1.066
		c0.59,0,1.067-0.478,1.067-1.066v-1.066C270.934,254.344,270.456,253.867,269.866,253.867z"/>
	<path id="Path_2_" fill="#172B48" d="M269.866,246.4c-0.589,0-1.066,0.478-1.066,1.067v1.066c0,0.589,0.478,1.067,1.066,1.067
		c0.59,0,1.067-0.478,1.067-1.067v-1.066C270.934,246.877,270.456,246.4,269.866,246.4z"/>
	<path id="Path_3_" fill="#172B48" d="M274.133,250.667h-1.066c-0.589,0-1.066,0.478-1.066,1.067c0,0.589,0.478,1.066,1.066,1.066
		h1.066c0.59,0,1.067-0.478,1.067-1.066C275.2,251.144,274.723,250.667,274.133,250.667z"/>
	<path id="Path_4_" fill="#172B48" d="M266.667,250.667H265.6c-0.589,0-1.066,0.478-1.066,1.067c0,0.589,0.478,1.066,1.066,1.066
		h1.067c0.589,0,1.066-0.478,1.066-1.066C267.734,251.144,267.256,250.667,266.667,250.667z"/>
	<path id="Path_5_" fill="#172B48" d="M254.934,248.533c0-0.589-0.478-1.066-1.067-1.066h-2.133c-0.589,0-1.067,0.478-1.067,1.066
		c0,0.589,0.478,1.067,1.067,1.067h2.133C254.456,249.6,254.934,249.123,254.934,248.533z"/>
	<path id="Path_6_" fill="#172B48" d="M260.267,247.467h-2.134c-0.589,0-1.066,0.478-1.066,1.066c0,0.589,0.478,1.067,1.066,1.067
		h2.134c0.589,0,1.066-0.478,1.066-1.067C261.333,247.944,260.856,247.467,260.267,247.467z"/>
	<path id="Path_7_" fill="#172B48" d="M258.133,253.867h-4.266c-0.589,0-1.067,0.478-1.067,1.067c0,0.589,0.478,1.066,1.067,1.066
		h4.266c0.59,0,1.067-0.478,1.067-1.066C259.2,254.344,258.723,253.867,258.133,253.867z"/>
</g>
</svg>
