<?xml version="1.0" encoding="utf-8"?>
<!-- Generator: Adobe Illustrator 16.0.2, SVG Export Plug-In . SVG Version: 6.00 Build 0)  -->
<!DOCTYPE svg PUBLIC "-//W3C//DTD SVG 1.1//EN" "http://www.w3.org/Graphics/SVG/1.1/DTD/svg11.dtd">
<svg version="1.1" id="Capa_1" xmlns="http://www.w3.org/2000/svg" xmlns:xlink="http://www.w3.org/1999/xlink" x="0px" y="0px"
	 width="19.997px" height="20px" viewBox="5.711 5.708 19.997 20" enable-background="new 5.711 5.708 19.997 20"
	 xml:space="preserve">
<g>
	<g>
		<path fill="#8CC63F" d="M24.015,10.144l-0.299,0.095l-1.594,0.142l-0.45,0.719l-0.327-0.104l-1.269-1.144l-0.184-0.594
			l-0.246-0.634L18.85,7.909l-0.94-0.184l-0.021,0.43l0.921,0.899l0.451,0.531L18.753,9.85L18.34,9.728l-0.617-0.257l0.021-0.499
			l-0.812-0.333L16.663,9.81l-0.818,0.186l0.081,0.654l1.066,0.205l0.184-1.045l0.879,0.13l0.408,0.239h0.656l0.449,0.899
			l1.189,1.207l-0.088,0.469l-0.959-0.122l-1.657,0.837l-1.193,1.432l-0.156,0.634h-0.429l-0.798-0.368l-0.775,0.368l0.193,0.819
			l0.337-0.39l0.593-0.019l-0.042,0.735l0.491,0.144l0.491,0.551l0.802-0.225l0.915,0.145l1.063,0.285l0.531,0.063l0.9,1.022
			l1.736,1.021l-1.123,2.146l-1.187,0.551l-0.45,1.228l-1.716,1.146l-0.184,0.661c4.389-1.058,7.652-4.999,7.652-9.71
			C25.707,13.649,25.082,11.733,24.015,10.144z"/>
		<path fill="#8CC63F" d="M16.858,20.934l-0.728-1.35l0.668-1.393l-0.668-0.2l-0.751-0.754l-1.663-0.373l-0.552-1.155v0.685h-0.243
			l-1.433-1.943v-1.596l-1.05-1.708l-1.668,0.297H7.647l-0.565-0.371l0.721-0.572l-0.72,0.166c-0.867,1.481-1.373,3.199-1.373,5.04
			c0,5.521,4.476,10,9.998,10c0.425,0,0.843-0.038,1.256-0.088l-0.104-1.211c0,0,0.458-1.799,0.458-1.86
			C17.317,22.487,16.858,20.934,16.858,20.934z"/>
		<path fill="#8CC63F" d="M9.426,8.933l1.776-0.248l0.819-0.448l0.921,0.265l1.472-0.082l0.504-0.792l0.735,0.121l1.786-0.167
			l0.492-0.542l0.694-0.463l0.981,0.147l0.357-0.054c-1.293-0.608-2.731-0.96-4.256-0.96c-3.104,0-5.878,1.415-7.71,3.636h0.005
			L9.426,8.933z M16.131,6.703l1.021-0.562l0.655,0.378l-0.949,0.723l-0.906,0.091l-0.408-0.265L16.131,6.703z M13.107,6.785
			l0.451,0.188l0.59-0.188l0.322,0.557l-1.362,0.358l-0.655-0.383C12.451,7.316,13.092,6.903,13.107,6.785z"/>
	</g>
</g>
</svg>
