<?xml version="1.0" encoding="utf-8"?>
<!-- Generator: Adobe Illustrator 16.0.2, SVG Export Plug-In . SVG Version: 6.00 Build 0)  -->
<!DOCTYPE svg PUBLIC "-//W3C//DTD SVG 1.1//EN" "http://www.w3.org/Graphics/SVG/1.1/DTD/svg11.dtd">
<svg version="1.1" id="Layer_1" xmlns="http://www.w3.org/2000/svg" xmlns:xlink="http://www.w3.org/1999/xlink" x="0px" y="0px"
	 width="32px" height="32px" viewBox="240 240 32 32" enable-background="new 240 240 32 32" xml:space="preserve">
<g>
	<g>
		<g>
			<path fill="#B5111B" d="M256,240c-8.836,0-16,7.164-16,16c0,8.837,7.164,16,16,16c8.837,0,16-7.163,16-16
				C272,247.164,264.837,240,256,240z M256,270.546c-8.033,0-14.545-6.513-14.545-14.546s6.512-14.545,14.545-14.545
				s14.545,6.512,14.545,14.545S264.033,270.546,256,270.546z"/>
		</g>
	</g>
</g>
<g>
	<path fill="#B5111B" d="M255.361,259.098c-0.365,0-0.76,0.219-1.174,0.648l-2.48,2.574c-0.439,0.455-0.622,0.99-0.514,1.508
		c0.107,0.516,0.489,0.934,1.074,1.176l1.682,0.695c0.262,0.109,0.522,0.164,0.773,0.164l0,0c0.877,0,1.502-0.684,1.521-1.666
		l0.066-3.574c0.011-0.59-0.112-1.021-0.367-1.281C255.784,259.184,255.584,259.098,255.361,259.098z"/>
	<path fill="#B5111B" d="M255.235,246.136c-0.167,0-0.338,0.021-0.511,0.063l-2.397,0.58c-0.611,0.147-1.066,0.507-1.282,1.011
		c-0.215,0.505-0.16,1.082,0.155,1.625l3.5,6.025c0.351,0.604,0.708,0.913,1.061,0.918c0.003,0,0.005,0,0.008,0
		c0.04,0,0.08-0.004,0.119-0.012c0.409-0.086,0.639-0.542,0.681-1.357l0.361-6.959c0.029-0.548-0.138-1.042-0.467-1.389
		C256.154,246.316,255.718,246.136,255.235,246.136L255.235,246.136z"/>
	<path fill="#B5111B" d="M262.336,259.768l-3.379-1.168c-0.301-0.104-0.573-0.156-0.812-0.156c-0.5,0-0.74,0.227-0.854,0.414
		c-0.215,0.357-0.154,0.873,0.174,1.488l1.683,3.154c0.326,0.613,0.846,0.965,1.426,0.965l0,0c0.471,0,0.933-0.238,1.299-0.668
		l1.183-1.383c0.411-0.482,0.562-1.027,0.424-1.537C263.341,260.369,262.935,259.975,262.336,259.768z"/>
	<path fill="#B5111B" d="M263.697,254.288l-0.951-1.552c-0.343-0.559-0.852-0.879-1.397-0.879c-0.502,0-0.978,0.265-1.341,0.746
		l-2.155,2.853c-0.253,0.335-0.64,0.976-0.379,1.498c0.095,0.191,0.357,0.51,1.055,0.51l0,0c0.16,0,0.337-0.018,0.524-0.051
		l3.52-0.625c0.624-0.109,1.087-0.436,1.303-0.917C264.09,255.39,264.028,254.828,263.697,254.288L263.697,254.288z"/>
	<path fill="#B5111B" d="M254.761,257.672c0.036-0.459-0.325-0.895-1.016-1.231l-3.215-1.563c-0.29-0.141-0.58-0.213-0.861-0.213
		c-0.834,0-1.444,0.633-1.518,1.575l-0.143,1.814c-0.042,0.539,0.103,1.02,0.409,1.35c0.276,0.299,0.671,0.465,1.114,0.465
		c0.198,0,0.404-0.033,0.614-0.096l3.42-1.041C254.3,258.506,254.725,258.131,254.761,257.672z"/>
</g>
</svg>
